<?xml version="1.0" encoding="UTF-8"?><svg id="Calque_1" xmlns="http://www.w3.org/2000/svg" viewBox="0 0 963.5 323.3"><path d="m249.8,292.2h4.5v24.4h-4.5v-24.4Z" style="fill:#fff;"/><path d="m278.3,299.8c1.4,1.4,2.1,3.4,2.1,6.1v10.6h-4.3v-10.1c0-1.6-.4-2.8-1.1-3.7-.8-.8-1.9-1.2-3.3-1.2s-2.9.5-3.8,1.4c-.9,1-1.4,2.3-1.4,4.2v9.4h-4.3v-18.6h4.1v2.4c.7-.9,1.6-1.5,2.7-1.9s2.3-.7,3.7-.7c2.3,0,4.2.7,5.6,2.1Z" style="fill:#fff;"/><path d="m292.4,297v1.1h5.1v3.5h-5v15h-4.3v-15h-3.1v-3.5h3.1v-1.2c0-2,.6-3.6,1.7-4.7,1.2-1.1,2.8-1.7,4.9-1.7s3,.3,3.9,1l-1.2,3.3c-.7-.5-1.5-.8-2.4-.8-1.8,0-2.7,1-2.7,3Zm11-2.8c-.5-.5-.8-1.1-.8-1.9s.3-1.4.8-1.9,1.2-.7,2-.7,1.4.2,2,.7.8,1.1.8,1.8-.3,1.4-.8,1.9c-.5.5-1.2.8-2,.8s-1.4-.3-2-.7Zm-.2,3.8h4.3v18.6h-4.3v-18.6Z" style="fill:#fff;"/><path d="m325.7,297.7v4.1c-.4,0-.7-.1-1-.1-1.7,0-3,.5-4,1.5-1,1-1.4,2.4-1.4,4.3v9h-4.3v-18.6h4.1v2.7c1.3-2,3.5-2.9,6.6-2.9Z" style="fill:#fff;"/><path d="m360,299.8c1.4,1.4,2.1,3.4,2.1,6.1v10.6h-4.3v-10.1c0-1.6-.4-2.8-1.1-3.7-.7-.8-1.8-1.2-3.1-1.2s-2.6.5-3.5,1.4c-.9,1-1.3,2.3-1.3,4.1v9.4h-4.3v-10.1c0-1.6-.4-2.8-1.1-3.7-.7-.8-1.8-1.2-3.1-1.2s-2.7.5-3.5,1.4c-.9,1-1.3,2.3-1.3,4.1v9.4h-4.3v-18.6h4.1v2.4c.7-.8,1.6-1.5,2.6-1.9,1-.4,2.2-.7,3.5-.7s2.6.3,3.7.8c1.1.5,1.9,1.3,2.6,2.3.8-1,1.8-1.7,3-2.3,1.2-.5,2.5-.8,4-.8,2.3,0,4.2.7,5.6,2Z" style="fill:#fff;"/><path d="m369.5,294.1c-.5-.5-.8-1.1-.8-1.9s.3-1.4.8-1.9,1.2-.7,2-.7,1.4.2,2,.7.8,1.1.8,1.8-.3,1.4-.8,1.9c-.5.5-1.2.8-2,.8s-1.5-.3-2-.7Zm-.2,3.8h4.3v18.6h-4.3v-18.6Z" style="fill:#fff;"/><path d="m398.4,308.6h-14.6c.3,1.4.9,2.4,2,3.3,1.1.8,2.4,1.2,4,1.2s3.7-.7,5-2l2.3,2.7c-.8,1-1.9,1.7-3.2,2.3-1.3.5-2.7.8-4.3.8s-3.8-.4-5.4-1.2c-1.6-.8-2.8-1.9-3.6-3.4-.8-1.5-1.3-3.1-1.3-4.9s.4-3.4,1.2-4.9c.8-1.4,2-2.6,3.4-3.4,1.5-.8,3.1-1.2,4.9-1.2s3.4.4,4.9,1.2c1.4.8,2.5,1.9,3.3,3.4.8,1.5,1.2,3.1,1.2,5s0,.7,0,1.3Zm-16.3-18h5.1l4.7,4.8h-3.8l-6.1-4.8Zm3.5,11.8c-1,.8-1.5,1.9-1.8,3.3h10.5c-.2-1.3-.8-2.4-1.7-3.3-1-.8-2.1-1.3-3.5-1.3s-2.6.4-3.5,1.2Z" style="fill:#fff;"/><path d="m415,297.7v4.1c-.4,0-.7-.1-1-.1-1.7,0-3,.5-4,1.5-1,1-1.4,2.4-1.4,4.3v9h-4.3v-18.6h4.1v2.7c1.3-2,3.5-2.9,6.6-2.9Z" style="fill:#fff;"/><path d="m437.5,308.6h-14.6c.3,1.4.9,2.4,2,3.3,1.1.8,2.4,1.2,4,1.2s3.7-.7,5-2l2.3,2.7c-.8,1-1.9,1.7-3.2,2.3-1.3.5-2.7.8-4.3.8s-3.8-.4-5.4-1.2c-1.6-.8-2.8-1.9-3.6-3.4-.8-1.5-1.3-3.1-1.3-4.9s.4-3.4,1.2-4.9c.8-1.4,2-2.6,3.4-3.4,1.5-.8,3.1-1.2,4.9-1.2s3.4.4,4.9,1.2c1.4.8,2.5,1.9,3.3,3.4.8,1.5,1.2,3.1,1.2,5s0,.7,0,1.3Zm-12.9-6.2c-1,.8-1.5,1.9-1.8,3.3h10.5c-.2-1.3-.8-2.4-1.7-3.3-1-.8-2.1-1.3-3.6-1.3s-2.6.4-3.5,1.2Z" style="fill:#fff;"/><path d="m444.7,316.2c-1.4-.4-2.6-.9-3.4-1.5l1.7-3.3c.8.6,1.8,1,3,1.3,1.2.3,2.3.5,3.5.5,2.6,0,3.9-.7,3.9-2.1s-.3-1.1-1-1.4c-.7-.3-1.7-.5-3.2-.7-1.5-.2-2.8-.5-3.7-.8-1-.3-1.8-.8-2.5-1.6-.7-.8-1.1-1.8-1.1-3.1s.7-3.2,2.2-4.2c1.5-1.1,3.5-1.6,6-1.6s2.5.1,3.8.4c1.3.3,2.3.7,3.1,1.2l-1.7,3.3c-1.6-.9-3.4-1.4-5.3-1.4s-2.2.2-2.9.6c-.7.4-1,.9-1,1.5s.4,1.2,1.1,1.5c.7.3,1.8.6,3.3.8,1.5.2,2.7.5,3.7.8.9.3,1.8.8,2.5,1.5.7.7,1,1.7,1,3.1s-.8,3.1-2.3,4.2c-1.5,1-3.6,1.6-6.2,1.6s-3-.2-4.4-.6Z" style="fill:#fff;"/><path d="m490.2,293.2c1.6.7,2.8,1.7,3.6,3,.8,1.3,1.3,2.8,1.3,4.6s-.4,3.3-1.3,4.6c-.8,1.3-2,2.3-3.6,3-1.6.7-3.4,1-5.5,1h-5.5v7h-4.5v-24.4h10c2.1,0,3.9.3,5.5,1Zm-1.2,11.2c1-.8,1.5-2,1.5-3.6s-.5-2.7-1.5-3.6c-1-.8-2.5-1.3-4.5-1.3h-5.3v9.7h5.3c2,0,3.5-.4,4.5-1.3Z" style="fill:#fff;"/><path d="m511.3,297.7v4.1c-.4,0-.7-.1-1-.1-1.7,0-3,.5-4,1.5-1,1-1.4,2.4-1.4,4.3v9h-4.3v-18.6h4.1v2.7c1.3-2,3.5-2.9,6.6-2.9Z" style="fill:#fff;"/><path d="m529.9,299.7c1.5,1.3,2.2,3.3,2.2,5.9v10.9h-4.1v-2.3c-.5.8-1.3,1.4-2.3,1.9s-2.2.6-3.6.6-2.6-.2-3.7-.7c-1-.5-1.8-1.1-2.4-2-.6-.8-.9-1.8-.9-2.9,0-1.7.6-3,1.9-4,1.2-1,3.2-1.5,5.9-1.5h4.8v-.3c0-1.3-.4-2.3-1.2-3-.8-.7-1.9-1-3.5-1s-2.1.2-3.1.5c-1,.3-1.9.8-2.6,1.4l-1.7-3.2c1-.7,2.1-1.3,3.5-1.7,1.4-.4,2.8-.6,4.3-.6,2.7,0,4.8.7,6.3,2Zm-4,13.2c.8-.5,1.4-1.2,1.8-2.1v-2.2h-4.5c-2.5,0-3.8.8-3.8,2.5s.3,1.4.9,1.9c.6.5,1.5.7,2.6.7s2.1-.2,2.9-.7Z" style="fill:#fff;"/><path d="m550.5,315.5c-.5.4-1.1.7-1.9.9-.7.2-1.5.3-2.3.3-2,0-3.6-.5-4.7-1.6-1.1-1.1-1.7-2.6-1.7-4.7v-8.9h-3.1v-3.5h3.1v-4.2h4.3v4.2h5v3.5h-5v8.8c0,.9.2,1.6.7,2.1.4.5,1.1.7,1.9.7s1.8-.3,2.4-.8l1.2,3.1Z" style="fill:#fff;"/><path d="m555.9,294.1c-.5-.5-.8-1.1-.8-1.9s.3-1.4.8-1.9,1.2-.7,2-.7,1.4.2,2,.7.8,1.1.8,1.8-.3,1.4-.8,1.9c-.5.5-1.2.8-2,.8s-1.5-.3-2-.7Zm-.2,3.8h4.3v18.6h-4.3v-18.6Z" style="fill:#fff;"/><path d="m570.7,315.6c-1.5-.8-2.7-1.9-3.6-3.4-.9-1.5-1.3-3.1-1.3-4.9s.4-3.5,1.3-4.9c.9-1.4,2-2.6,3.6-3.4,1.5-.8,3.3-1.2,5.2-1.2s3.4.4,4.8,1.1c1.4.7,2.4,1.8,3.1,3.2l-3.3,2c-.5-.9-1.2-1.5-2-1.9-.8-.4-1.7-.6-2.6-.6-1.6,0-3,.5-4,1.6-1.1,1.1-1.6,2.5-1.6,4.2s.5,3.2,1.6,4.2c1.1,1.1,2.4,1.6,4.1,1.6s1.8-.2,2.6-.6c.8-.4,1.5-1.1,2-1.9l3.3,2c-.7,1.4-1.8,2.5-3.1,3.2-1.4.8-3,1.1-4.8,1.1s-3.7-.4-5.2-1.2Z" style="fill:#fff;"/><path d="m589.4,294.1c-.5-.5-.8-1.1-.8-1.9s.3-1.4.8-1.9,1.2-.7,2-.7,1.5.2,2,.7c.5.5.8,1.1.8,1.8s-.3,1.4-.8,1.9-1.2.8-2,.8-1.5-.3-2-.7Zm-.2,3.8h4.3v18.6h-4.3v-18.6Z" style="fill:#fff;"/><path d="m618.3,308.6h-14.6c.3,1.4.9,2.4,2,3.3,1.1.8,2.4,1.2,4,1.2s3.7-.7,5-2l2.3,2.7c-.8,1-1.9,1.7-3.2,2.3-1.3.5-2.7.8-4.3.8s-3.8-.4-5.4-1.2c-1.6-.8-2.8-1.9-3.6-3.4s-1.3-3.1-1.3-4.9.4-3.4,1.2-4.9c.8-1.4,2-2.6,3.4-3.4,1.5-.8,3.1-1.2,4.9-1.2s3.4.4,4.9,1.2c1.4.8,2.5,1.9,3.3,3.4.8,1.5,1.2,3.1,1.2,5s0,.7,0,1.3Zm-12.9-6.2c-1,.8-1.5,1.9-1.8,3.3h10.5c-.2-1.3-.8-2.4-1.7-3.3-1-.8-2.1-1.3-3.5-1.3s-2.6.4-3.5,1.2Z" style="fill:#fff;"/><path d="m640.4,299.8c1.4,1.4,2.1,3.4,2.1,6.1v10.6h-4.3v-10.1c0-1.6-.4-2.8-1.1-3.7-.8-.8-1.9-1.2-3.3-1.2s-2.9.5-3.8,1.4c-.9,1-1.4,2.3-1.4,4.2v9.4h-4.3v-18.6h4.1v2.4c.7-.9,1.6-1.5,2.7-1.9s2.3-.7,3.7-.7c2.3,0,4.2.7,5.6,2.1Z" style="fill:#fff;"/><path d="m665.8,299.8c1.4,1.4,2.1,3.4,2.1,6.1v10.6h-4.3v-10.1c0-1.6-.4-2.8-1.1-3.7-.8-.8-1.9-1.2-3.3-1.2s-2.9.5-3.8,1.4c-.9,1-1.4,2.3-1.4,4.2v9.4h-4.3v-18.6h4.1v2.4c.7-.9,1.6-1.5,2.7-1.9s2.3-.7,3.7-.7c2.3,0,4.2.7,5.6,2.1Z" style="fill:#fff;"/><path d="m692.7,308.6h-14.6c.3,1.4.9,2.4,2,3.3,1.1.8,2.4,1.2,4,1.2s3.7-.7,5-2l2.3,2.7c-.8,1-1.9,1.7-3.2,2.3-1.3.5-2.7.8-4.3.8s-3.8-.4-5.4-1.2c-1.6-.8-2.8-1.9-3.6-3.4-.8-1.5-1.3-3.1-1.3-4.9s.4-3.4,1.2-4.9c.8-1.4,2-2.6,3.4-3.4,1.5-.8,3.1-1.2,4.9-1.2s3.4.4,4.9,1.2c1.4.8,2.5,1.9,3.3,3.4.8,1.5,1.2,3.1,1.2,5s0,.7,0,1.3Zm-12.9-6.2c-1,.8-1.5,1.9-1.8,3.3h10.5c-.2-1.3-.8-2.4-1.7-3.3s-2.1-1.3-3.5-1.3-2.6.4-3.5,1.2Z" style="fill:#fff;"/><path d="m699.9,316.2c-1.4-.4-2.6-.9-3.4-1.5l1.7-3.3c.8.6,1.8,1,3,1.3,1.2.3,2.3.5,3.5.5,2.6,0,3.9-.7,3.9-2.1s-.3-1.1-1-1.4c-.7-.3-1.7-.5-3.2-.7-1.5-.2-2.8-.5-3.7-.8-1-.3-1.8-.8-2.5-1.6-.7-.8-1.1-1.8-1.1-3.1s.7-3.2,2.2-4.2c1.5-1.1,3.5-1.6,6-1.6s2.5.1,3.8.4c1.3.3,2.3.7,3.1,1.2l-1.7,3.3c-1.6-.9-3.4-1.4-5.3-1.4s-2.2.2-2.9.6c-.7.4-1,.9-1,1.5s.4,1.2,1.1,1.5c.7.3,1.8.6,3.3.8,1.5.2,2.7.5,3.7.8.9.3,1.8.8,2.5,1.5.7.7,1,1.7,1,3.1s-.8,3.1-2.3,4.2c-1.5,1-3.6,1.6-6.2,1.6s-3-.2-4.4-.6Z" style="fill:#fff;"/><path d="m731.9,316.1c-1.7-.5-3.1-1.2-4.2-2.1l1.6-3.5c1,.8,2.2,1.4,3.7,1.9,1.4.5,2.9.7,4.4.7s3.2-.3,4.1-.9c.9-.6,1.3-1.3,1.3-2.3s-.2-1.3-.7-1.7c-.5-.5-1.1-.8-1.9-1.1-.8-.3-1.8-.5-3.1-.9-1.9-.4-3.4-.9-4.5-1.3-1.1-.4-2.1-1.1-3-2.1-.8-.9-1.2-2.2-1.2-3.8s.4-2.6,1.1-3.7c.7-1.1,1.8-2,3.3-2.6,1.5-.6,3.3-1,5.4-1s2.9.2,4.4.6c1.4.4,2.7.9,3.7,1.6l-1.4,3.5c-1.1-.6-2.2-1.1-3.3-1.4s-2.3-.5-3.4-.5c-1.8,0-3.1.3-4,.9-.9.6-1.3,1.4-1.3,2.4s.2,1.3.7,1.7,1.1.8,1.9,1c.8.3,1.8.5,3.1.9,1.8.4,3.3.9,4.5,1.3,1.2.5,2.2,1.1,3,2.1.8.9,1.2,2.2,1.2,3.8s-.4,2.6-1.1,3.7-1.8,2-3.3,2.6-3.3,1-5.4,1-3.7-.3-5.4-.8Z" style="fill:#fff;"/><path d="m768,298.9c1.4.8,2.5,1.9,3.4,3.3.8,1.4,1.2,3.1,1.2,5s-.4,3.5-1.2,5c-.8,1.5-1.9,2.6-3.4,3.4s-3,1.2-4.9,1.2-4.5-.8-5.9-2.5v9h-4.3v-25.3h4.1v2.4c.7-.9,1.6-1.5,2.7-2,1.1-.4,2.2-.7,3.5-.7,1.8,0,3.4.4,4.9,1.2Zm-1.4,12.5c1-1.1,1.5-2.5,1.5-4.2s-.5-3.1-1.5-4.2c-1-1.1-2.3-1.6-3.9-1.6s-2,.2-2.8.7c-.8.5-1.5,1.2-2,2-.5.9-.7,1.9-.7,3.1s.2,2.2.7,3.1c.5.9,1.1,1.6,2,2,.8.5,1.8.7,2.8.7,1.6,0,2.9-.5,3.9-1.6Z" style="fill:#fff;"/><path d="m795.8,308.6h-14.6c.3,1.4.9,2.4,2,3.3,1.1.8,2.4,1.2,4,1.2s3.7-.7,5-2l2.3,2.7c-.8,1-1.9,1.7-3.2,2.3-1.3.5-2.7.8-4.3.8s-3.8-.4-5.4-1.2c-1.6-.8-2.8-1.9-3.6-3.4-.8-1.5-1.3-3.1-1.3-4.9s.4-3.4,1.2-4.9c.8-1.4,2-2.6,3.4-3.4,1.5-.8,3.1-1.2,4.9-1.2s3.4.4,4.9,1.2c1.4.8,2.5,1.9,3.3,3.4.8,1.5,1.2,3.1,1.2,5s0,.7,0,1.3Zm-12.9-6.2c-1,.8-1.5,1.9-1.8,3.3h10.5c-.2-1.3-.8-2.4-1.7-3.3-1-.8-2.1-1.3-3.6-1.3s-2.6.4-3.5,1.2Zm5.2-11.8h5.1l-6.1,4.8h-3.8l4.7-4.8Z" style="fill:#fff;"/><path d="m805,315.6c-1.5-.8-2.7-1.9-3.6-3.4-.9-1.5-1.3-3.1-1.3-4.9s.4-3.5,1.3-4.9c.9-1.4,2-2.6,3.6-3.4,1.5-.8,3.3-1.2,5.2-1.2s3.4.4,4.8,1.1c1.4.7,2.4,1.8,3.1,3.2l-3.3,2c-.5-.9-1.2-1.5-2-1.9-.8-.4-1.7-.6-2.6-.6-1.6,0-3,.5-4,1.6-1.1,1.1-1.6,2.5-1.6,4.2s.5,3.2,1.6,4.2c1.1,1.1,2.4,1.6,4.1,1.6s1.8-.2,2.6-.6c.8-.4,1.5-1.1,2-1.9l3.3,2c-.7,1.4-1.8,2.5-3.1,3.2-1.4.8-3,1.1-4.8,1.1s-3.7-.4-5.2-1.2Z" style="fill:#fff;"/><path d="m823.7,294.1c-.5-.5-.8-1.1-.8-1.9s.3-1.4.8-1.9,1.2-.7,2-.7,1.4.2,2,.7.8,1.1.8,1.8-.3,1.4-.8,1.9c-.5.5-1.2.8-2,.8s-1.5-.3-2-.7Zm-.2,3.8h4.3v18.6h-4.3v-18.6Z" style="fill:#fff;"/><path d="m848.6,299.7c1.4,1.3,2.2,3.3,2.2,5.9v10.9h-4.1v-2.3c-.5.8-1.3,1.4-2.3,1.9-1,.4-2.2.6-3.6.6s-2.6-.2-3.7-.7-1.9-1.1-2.4-2-.9-1.8-.9-2.9c0-1.7.6-3,1.9-4,1.2-1,3.2-1.5,5.9-1.5h4.8v-.3c0-1.3-.4-2.3-1.2-3-.8-.7-1.9-1-3.5-1s-2.1.2-3.1.5c-1,.3-1.9.8-2.6,1.4l-1.7-3.2c1-.7,2.1-1.3,3.5-1.7,1.4-.4,2.8-.6,4.3-.6,2.7,0,4.8.7,6.3,2Zm-4,13.2c.8-.5,1.4-1.2,1.8-2.1v-2.2h-4.5c-2.5,0-3.8.8-3.8,2.5s.3,1.4.9,1.9c.6.5,1.5.7,2.6.7s2.1-.2,2.9-.7Z" style="fill:#fff;"/><path d="m857.9,290.7h4.3v25.8h-4.3v-25.8Z" style="fill:#fff;"/><path d="m869.8,294.1c-.5-.5-.8-1.1-.8-1.9s.3-1.4.8-1.9,1.2-.7,2-.7,1.4.2,2,.7.8,1.1.8,1.8-.3,1.4-.8,1.9c-.5.5-1.2.8-2,.8s-1.5-.3-2-.7Zm-.2,3.8h4.3v18.6h-4.3v-18.6Z" style="fill:#fff;"/><path d="m882.6,316.2c-1.4-.4-2.6-.9-3.4-1.5l1.7-3.3c.8.6,1.8,1,3,1.3,1.2.3,2.3.5,3.5.5,2.6,0,3.9-.7,3.9-2.1s-.3-1.1-1-1.4c-.7-.3-1.7-.5-3.2-.7-1.5-.2-2.8-.5-3.7-.8-1-.3-1.8-.8-2.5-1.6-.7-.8-1.1-1.8-1.1-3.1s.7-3.2,2.2-4.2c1.5-1.1,3.5-1.6,6-1.6s2.5.1,3.8.4c1.3.3,2.3.7,3.1,1.2l-1.7,3.3c-1.6-.9-3.4-1.4-5.3-1.4s-2.2.2-2.9.6c-.7.4-1,.9-1,1.5s.4,1.2,1.1,1.5c.7.3,1.8.6,3.3.8,1.5.2,2.7.5,3.7.8.9.3,1.8.8,2.5,1.5.7.7,1,1.7,1,3.1s-.8,3.1-2.3,4.2c-1.5,1-3.6,1.6-6.2,1.6s-3-.2-4.4-.6Z" style="fill:#fff;"/><path d="m918.3,308.6h-14.6c.3,1.4.9,2.4,2,3.3,1.1.8,2.4,1.2,4,1.2s3.7-.7,5-2l2.3,2.7c-.8,1-1.9,1.7-3.2,2.3-1.3.5-2.7.8-4.3.8s-3.8-.4-5.4-1.2c-1.6-.8-2.8-1.9-3.6-3.4-.8-1.5-1.3-3.1-1.3-4.9s.4-3.4,1.2-4.9c.8-1.4,2-2.6,3.4-3.4,1.5-.8,3.1-1.2,4.9-1.2s3.4.4,4.9,1.2c1.4.8,2.5,1.9,3.3,3.4.8,1.5,1.2,3.1,1.2,5s0,.7,0,1.3Zm-12.9-6.2c-1,.8-1.5,1.9-1.8,3.3h10.5c-.2-1.3-.8-2.4-1.7-3.3-1-.8-2.1-1.3-3.6-1.3s-2.6.4-3.5,1.2Zm5.2-11.8h5.1l-6.1,4.8h-3.8l4.7-4.8Z" style="fill:#fff;"/><path d="m941.5,308.6h-14.6c.3,1.4.9,2.4,2,3.3,1.1.8,2.4,1.2,4,1.2s3.7-.7,5-2l2.3,2.7c-.8,1-1.9,1.7-3.2,2.3-1.3.5-2.7.8-4.3.8s-3.8-.4-5.4-1.2c-1.6-.8-2.8-1.9-3.6-3.4-.8-1.5-1.3-3.1-1.3-4.9s.4-3.4,1.2-4.9c.8-1.4,2-2.6,3.4-3.4,1.5-.8,3.1-1.2,4.9-1.2s3.4.4,4.9,1.2c1.4.8,2.5,1.9,3.3,3.4.8,1.5,1.2,3.1,1.2,5s0,.7,0,1.3Zm-12.9-6.2c-1,.8-1.5,1.9-1.8,3.3h10.5c-.2-1.3-.8-2.4-1.7-3.3s-2.1-1.3-3.5-1.3-2.6.4-3.5,1.2Z" style="fill:#fff;"/><path d="m948.8,316.2c-1.4-.4-2.6-.9-3.4-1.5l1.7-3.3c.8.6,1.8,1,3,1.3s2.3.5,3.5.5c2.6,0,3.9-.7,3.9-2.1s-.3-1.1-1-1.4-1.7-.5-3.2-.7c-1.5-.2-2.8-.5-3.7-.8-1-.3-1.8-.8-2.5-1.6-.7-.8-1.1-1.8-1.1-3.1s.7-3.2,2.2-4.2c1.5-1.1,3.5-1.6,6-1.6s2.6.1,3.8.4c1.3.3,2.3.7,3.1,1.2l-1.7,3.3c-1.6-.9-3.4-1.4-5.3-1.4s-2.2.2-2.9.6c-.7.4-1,.9-1,1.5s.4,1.2,1.1,1.5c.7.3,1.8.6,3.3.8,1.5.2,2.7.5,3.7.8,1,.3,1.8.8,2.5,1.5s1,1.7,1,3.1-.8,3.1-2.3,4.2c-1.5,1-3.6,1.6-6.2,1.6s-3-.2-4.4-.6Z" style="fill:#fff;"/><path d="m301.8,218.4c-2.7,2.8-5.8,5-9.4,6.4-3.5,1.4-6.8,2.4-10,2.7-3.1.4-7.5.6-13.1.6h-19.6v-70.2h19.8c10,0,17.9,1.6,23.7,4.8,5.7,3.1,10.1,7.3,12.9,12.8,2.8,5.4,4.2,11.6,4.2,18.5s-.8,9.6-2.3,13.8c-1.6,4.2-3.7,7.7-6.4,10.5Zm-12.6-48.8c-2.5-2.7-5.5-4.5-8.6-5.5-3.2-.9-7.3-1.4-12.4-1.4s-4.4,0-6.5.2v60.5h9.2c5.7,0,10.4-.8,13.9-2.3,3.5-1.5,6.5-4.4,8.8-8.9,2.4-4.5,3.7-10.3,3.7-17.4s-.8-10.5-2.2-14.9c-1.4-4.3-3.4-7.7-6-10.3Z" style="fill:#b0d1a3;"/><path d="m352.8,162.6h-7.8v26.3h19.5v4.6h-19.5v29.8h29.5v4.6h-41.7v-70.1h41.9v4.7h-21.9Z" style="fill:#b0d1a3;"/><path d="m473,225c4.7,2.4,8.8,5.9,14.7,12.7l-7.4,1.9c-4.6-6.8-9.8-10.4-14.1-12.3-2.4.5-5.2.8-8.3.8-10.6,0-17.2-3.3-24-9.7-7-6.5-10.3-15.1-10.3-25.7s3.5-18.8,10.4-25.1c7-6.2,13.4-9.4,23.8-9.4s17,3.1,24,9.3c7.1,6.3,10.5,14.9,10.5,25.5s-3.3,18.9-10.1,25.4c-2.9,2.7-5.9,5-9.2,6.6Zm-13.5-3.6c2.3,0,6.1.7,6.2.8,2.8-1.1,5.6-3.1,8.3-6.3,4-4.9,5-12.3,5-22.8s-1-17.5-4.9-22.5c-4-5.2-8.6-7.7-16.3-7.7s-10.9,2.4-14.9,7.5c-3.9,5-6,12.4-6,22.6s2.1,17.9,6,22.9c2.5,3.2,4.9,5.3,8.2,6.4.2,0,6.1-.9,8.4-.8Z" style="fill:#b0d1a3;"/><path d="m595.1,112.1c4.7,2.4,8.8,5.9,14.7,12.7l-7.4,1.9c-4.6-6.8-9.8-10.4-14.1-12.3-2.4.5-5.2.8-8.3.8-10.6,0-17.2-3.3-24-9.7-7-6.5-10.3-15.1-10.3-25.7s3.5-18.8,10.4-25.1c7-6.2,13.4-9.4,23.8-9.4s17,3.1,24,9.3c7.1,6.3,10.5,14.9,10.5,25.5s-3.3,18.9-10.1,25.4c-2.9,2.7-5.9,5-9.2,6.6Zm-13.5-3.6c2.3,0,6.1.7,6.2.8,2.8-1.1,5.6-3.1,8.3-6.3,4-4.9,5-12.3,5-22.8s-1-17.5-4.9-22.5c-4-5.2-8.6-7.7-16.3-7.7s-10.9,2.4-14.9,7.5c-3.9,5-6,12.4-6,22.6s2.1,17.9,6,22.9c2.5,3.2,4.9,5.3,8.2,6.4.2,0,6.1-.9,8.4-.8Z" style="fill:#b0d1a3;"/><path d="m566,218.9c-2.3,2.8-5.5,5.1-9.4,6.7-4,1.7-8.6,2.5-13.7,2.5s-11.3-1-15.6-3.2c-4.3-2.1-7.3-4.9-9.2-8.4-1.9-3.4-2.2-7.9-2.2-13.5v-45h11.9v38.5c0,3.6,0,6.8,0,9.3,0,2.5.2,4.5.6,5.9.6,2.8,2,5.3,4.8,7.3,2.9,2.2,6.8,3.2,11.9,3.2s7.5-.8,10.7-2.2c3.2-1.5,5.5-3.3,7.1-5.4,1.6-2.2,2.6-4.3,3-6.5.4-2.4.9-6.2.9-11.3v-38.9h4.6v39.3c0,5.7-.6,10.1-1,12.8-.5,3.1-2.3,6-4.4,8.7Z" style="fill:#b0d1a3;"/><path d="m636.2,228.1c-3.9-9.6-5.4-13.2-5.4-13.2l-4.9-11.8h-23.2l-9.6,24.9h-6l29-70.1h3.5l29.7,70.1h-13.1Zm-22.1-53.7l-9.8,24.3h19.8l-10.1-24.3Z" style="fill:#b0d1a3;"/><path d="m777.4,162.6h-10v65.5h-12v-65.5h-28l.2-4.6h68.1v4.6c0,0-18.2,0-18.2,0Z" style="fill:#b0d1a3;"/><path d="m815.4,228.1v-70.1h12v70.1h-12Z" style="fill:#b0d1a3;"/><path d="m871,162.6h-7.8v26.3h19.5v4.6h-19.5v29.8h29.5v4.6h-41.7v-70.1h41.9v4.7h-21.9Z" style="fill:#b0d1a3;"/><path d="m259.1,105.9c-6.2-6.3-9.3-14.5-9.3-24.5s1.4-12.9,4.3-18.7c2.8-5.9,6.9-10.3,12-13.3,5.1-2.8,10.7-4.2,16.8-4.2s9.6,1,13.7,3.1c4,2,7.1,4.2,9.3,7l.3,1.3-3.4,3.2c-1.8-2.6-2.9-4-4.2-4.9-4.2-3.3-9-4.9-14.3-4.9s-11.6,2.5-15.4,7.8c-3.8,5.3-5.7,13-5.7,23.1s2.2,16.8,6.3,21.8c4.1,4.9,9.3,7.3,15.5,7.3s6.7-.8,10.2-2.4c2.7-1.2,5-3.3,7.7-7.2l3.7,3.8c-6.7,7.5-14.3,11.1-23.6,11.1s-17.7-3.1-24-9.3Z" style="fill:#b0d1a3;"/><path d="m326.3,115.2V45.1h12v65.4h37.3v4.7h-49.4Z" style="fill:#b0d1a3;"/><path d="m394.7,115.2V45.1h12v70.1h-12Z" style="fill:#b0d1a3;"/><path d="m482.1,115.2l-45.7-60.1v58.4h-4.6V45.1h12l36.7,49v-49h5.2v70.1h-3.6Z" style="fill:#b0d1a3;"/><path d="m510.8,115.2V45.1h12v70.1h-12Z" style="fill:#b0d1a3;"/><path d="m738,49.7h-7.8v26.3h19.5v4.6h-19.5v29.8h29.5v4.6h-41.7V45h41.9v4.7h-21.9Z" style="fill:#b0d1a3;"/><path d="m820.8,115.2V45.1h12v70.1h-12Z" style="fill:#b0d1a3;"/><path d="m891.2,81.4c-3.3,1.6-9,1.9-16.6,1.9h-6.1v31.9h-11.9V45.1h14.9c7.1,0,12.5.8,16.4,1.9,4,1.1,7.2,3.4,9.8,6.3,2.6,3,3.9,6.8,3.9,11.2s-.8,7.2-2.5,10.3c-1.8,3-4.4,5.1-7.6,6.7Zm-18.8-31.1c-1.6,0-2.9,0-4,0v28.2h3.6c3.9,0,6.8,0,9-.8,2.1-.7,3.9-1.9,5.3-4.1,1.5-2.2,2.3-5.1,2.3-8.5,0-5.5-1.3-9.1-3.8-11.4-2.4-2.4-6.4-3.6-12.4-3.6Z" style="fill:#b0d1a3;"/><path d="m939.8,115.1c-6.6-.7-15-5.8-19.5-12.9l3.4-3.8c5.8,8.3,9.4,10.9,15.8,11.9,4.1.7,7.5-.4,10.1-2.4,2.5-2.2,3.9-4.7,4.2-7.5.3-2.9-.4-5.5-2.2-7.6-1.8-2.3-5.4-4.9-10.9-8-5-2.7-8.7-5.2-11.2-7.1-2.6-2.1-4.6-4.6-5.8-7.6-1.3-3-1.8-6.1-1.4-9.3.6-5,2.7-8.9,6.5-11.9,3.8-2.9,8.3-4,13.5-3.5,2.8.3,5.5,1,8,2.3,2.5,1.2,4.9,3.6,7.9,7.6l-4,3.2c-1.2-2-1.8-2.7-2.4-3.5-2.5-2.9-5.7-4.6-9.4-5-3.7-.4-6.2.4-7.9,1.9-1.8,1.8-2.8,3.7-3,5.8-.3,2.6.5,5,2.3,7.1,1.9,2.2,5.5,4.9,11,8.1,5.4,3.1,9.2,5.5,11.6,7.3,2.5,1.9,4.4,4.3,5.7,7.3,1.3,3.1,1.8,6.5,1.4,10.2-.7,5.7-3.1,10.3-7.4,13.6-4.3,3.3-9.8,4.5-16.2,3.8Z" style="fill:#b0d1a3;"/><path d="m688.6,106c-2.3,2.8-5.5,5.1-9.4,6.7-4,1.7-8.6,2.5-13.7,2.5s-11.3-1-15.6-3.2c-4.3-2.1-7.3-4.9-9.2-8.4-1.9-3.4-2.2-7.9-2.2-13.5v-45h11.9v38.5c0,3.6,0,6.8,0,9.3,0,2.5.2,4.5.6,5.9.6,2.8,2,5.3,4.8,7.3,2.9,2.2,6.8,3.2,11.9,3.2s7.5-.8,10.7-2.2c3.2-1.5,5.5-3.3,7.1-5.4,1.6-2.2,2.6-4.3,3-6.5.4-2.4.9-6.2.9-11.3v-38.9h4.6v39.3c0,5.7-.6,10.1-1,12.8-.5,3.1-2.3,6-4.4,8.7Z" style="fill:#b0d1a3;"/><path d="m710.2,204.2c-3.2-4.3-5.9-6.9-8.3-8.6-.8-.8-1.7-1.2-2.4-1.7,4.8-1.1,8.6-3.4,11.3-6,3.5-3.3,5.2-7.4,5.2-12.1s-1.3-7.5-3.9-10.4c-2.6-2.9-6.1-4.6-10.2-5.9-4.1-1.2-9.4-1.6-15.8-1.6h-15.9v70.1h12v-32.3h1.7c17.7,0,27.2,28.3,28.2,32.3h10.3c-6.9-17-11.9-23.9-11.9-23.9Zm-25.2-12.9h-3v-28.2h3s9.8-.3,14.6,4.4c3.2,3.1,3.2,6.4,3.2,9.3s0,6.9-3.2,10.1c-4.8,4.7-14.6,4.4-14.6,4.4Z" style="fill:#b0d1a3;"/><path d="m951.6,204.2c-3.2-4.3-5.9-6.9-8.3-8.6-.8-.8-1.7-1.2-2.4-1.7,4.8-1.1,8.6-3.4,11.3-6,3.5-3.3,5.2-7.4,5.2-12.1s-1.3-7.5-3.9-10.4c-2.6-2.9-6.1-4.6-10.2-5.9-4.1-1.2-9.4-1.6-15.8-1.6h-15.9v70.1h12v-32.3h1.7c17.7,0,27.2,28.3,28.2,32.3h10.3c-6.9-17-11.9-23.9-11.9-23.9Zm-25.2-12.9h-3v-28.2h3s9.8-.3,14.6,4.4c3.2,3.1,3.2,6.4,3.2,9.3s0,6.9-3.2,10.1c-4.8,4.7-14.6,4.4-14.6,4.4Z" style="fill:#b0d1a3;"/><path d="m87.3,123.7c-.4,9-1,25.1-1.4,34.2-2.7-.7-6.7-1.7-9.4-2.4,0,0-1.3-31-1.3-31,4.1-1,8.3-1,12.1-.8" style="fill:#cfe3c7;"/><path d="m149.8,108.4c.7,28.9-29.1,31.5-51.5,31.6,0-.9.1-2.2.2-3.1,10.6,0,19.4-.7,26.9-6.5,10.3-7.2,10.3-36.8,0-44.1-6.9-6.7-24.5-6.8-36.4-6.5l-1.4,35.7c-4-.2-8.5-.3-12.8.4l-1.6-37.5c0-.9.7-1.7,1.5-1.7,6.5-.2,19.3-.2,25.8,0,24.7.4,49.5,4.6,49.2,31.6" style="fill:#cfe3c7;"/><path d="m124.1,143.2c0,3.5-.8,6.7-2.3,9.6l-.5.9-2.6-1.5.4-.8c1.3-2.8,1.9-5.4,1.9-8.2s-.2-3.3-.7-4.8c.3,0,.6,0,.8-.2,0,0,0,0,.1,0,.3,0,.7-.1,1-.2,0,0,0,0,0,0,.3,0,.6-.1,1-.2.5,1.7.7,3.5.7,5.4" style="fill:#b0d1a3;"/><path d="m76.3,222.2h-.1c-6.7-.3-12.9-1.3-18.4-3-6.8-2.1-12.2-5.2-16-9.2-3.9-4-5.8-8.9-5.8-14.4s.9-7.1,2.7-10.1l.5-.8,2.7,1.6-.5.8c-1.5,2.6-2.3,5.5-2.3,8.5,0,4.6,1.7,8.6,5.1,12.2,3.4,3.6,8.4,6.4,14.6,8.3,5.2,1.6,11.1,2.6,17.4,2.9v1s0,1.2,0,1.2v1Z" style="fill:#b0d1a3;"/><path d="m129.5,191.3c0,21.9-24.4,30.1-43.3,30.9,0-.6,0-1.8,0-2.3h0v-1c12.4-1.2,30.3-5,29.8-20,0-4.4-1.5-7.9-4.7-10.8-9.8-8.3-24.5-10.2-37.2-14-12.2-3.6-21.7-5.4-30.3-13.2-8.2-7.3-7.5-21.2,0-29.2,14.9-18,64.5-19.7,77.5,1.3-.9.4-1.9.9-2.8,1.2-3.8-6.3-11.6-10-19.5-11.7-3-.7-6.3-1.1-9.7-1.3h0c-13.7-.9-37.4,1.4-38,18.5,0,11.8,15,15.9,24.8,18.7,18.8,6,52.5,7.7,53.4,32.9" style="fill:#b0d1a3;"/><path d="m90.6,58.2c0,5.2-4.2,9.5-9.5,9.5s-9.4-4.2-9.4-9.5,4.2-9.4,9.4-9.4,9.5,4.2,9.5,9.4" style="fill:#cfe3c7;"/><path d="m85,179.9c-.5,11.1-1.7,43.8-2.2,54.3,0,2-3.1,2-3.1,0,0,0-.5-12-.5-12,0-2-1.7-41.7-1.9-44.4,2.2.6,5.4,1.4,7.6,2Z" style="fill:#cfe3c7;"/><path d="m103.8,0v4.6c9.8.4,19.2,2.5,28.2,6.3,9.6,4.1,18.2,9.9,25.6,17.3,7.4,7.4,13.2,16,17.3,25.6,4.2,9.9,6.3,20.5,6.3,31.3v114.5c0,10.9-2.1,21.4-6.3,31.3-4.1,9.6-9.9,18.2-17.3,25.6-7.4,7.4-16,13.2-25.6,17.3-9,3.8-18.4,5.9-28.2,6.3v4.6c45.6-1.7,82-39.1,82-85.1v-114.5C185.8,39.1,149.3,1.7,103.8,0ZM0,85.1v114.5c0,46,36.4,83.4,82,85.1v-4.6c-9.8-.4-19.2-2.5-28.2-6.3-9.6-4.1-18.2-9.9-25.6-17.3-7.4-7.4-13.2-16-17.3-25.6-4.2-9.9-6.3-20.5-6.3-31.3v-114.5c0-10.9,2.1-21.4,6.3-31.3,4.1-9.6,9.9-18.2,17.3-25.6,7.4-7.4,16-13.2,25.6-17.3,9-3.8,18.4-5.9,28.2-6.3V0C36.4,1.7,0,39.1,0,85.1Z" style="fill:#b0d1a3;"/></svg>