<?xml version="1.0" encoding="utf-8"?>
<!-- Generator: Adobe Illustrator 24.3.0, SVG Export Plug-In . SVG Version: 6.00 Build 0)  -->
<svg version="1.1" id="Layer_1" xmlns="http://www.w3.org/2000/svg" xmlns:xlink="http://www.w3.org/1999/xlink" x="0px" y="0px"
	 viewBox="0 0 432 216" style="enable-background:new 0 0 432 216;" xml:space="preserve">
<style type="text/css">
	.st0{fill:#6E7277;}
	.st1{fill:#7BB0B8;}
	.st2{fill:#C9CACD;}
</style>
<g>
	<path class="st0" d="M152.09,90.62v7.84h-2.39V79.95h8c0.92,0,1.97,0,2.94,0.32c2.18,0.76,3.17,2.78,3.17,4.93
		c0,2.02-0.94,4.38-3.41,5.14c-0.92,0.29-1.84,0.29-2.96,0.29H152.09z M152.09,88.45h5.17c1.42,0,2.39,0,3.22-0.84
		c0.63-0.63,0.89-1.55,0.89-2.46c0-0.63-0.1-1.63-0.97-2.36c-0.81-0.68-1.73-0.71-2.6-0.71h-5.72V88.45z"/>
	<path class="st0" d="M176.54,98.93c-5.64,0-9.25-3.96-9.25-9.73c0-6.87,4.75-9.73,9.33-9.73c5.19,0,9.31,3.51,9.31,9.54
		C185.93,94.58,182.68,98.93,176.54,98.93z M176.62,81.47c-4.67,0-6.66,3.59-6.66,7.76c0,3.88,1.91,7.76,6.69,7.76
		c4.98,0,6.63-4.14,6.61-7.94C183.23,84.57,180.9,81.47,176.62,81.47z"/>
	<path class="st0" d="M193.34,96.26h8.97v2.2h-11.43V79.93h2.46V96.26z"/>
	<path class="st0" d="M209.63,89.99v8.47h-2.49v-8.47l-6.53-10.04h2.94l4.85,7.84l4.95-7.84h2.94L209.63,89.99z"/>
	<path class="st0" d="M236.34,91.75c-0.79,3.51-3.75,7.18-9.12,7.18c-6.11,0-9.05-4.59-9.05-9.73c0-5.24,3.02-9.73,9.39-9.73
		c6.4,0,7.97,4.43,8.42,5.66l-2.49,0.52c-0.24-0.68-0.42-1.29-1.1-2.07c-0.89-1.1-2.52-2.15-4.85-2.15c-1.97,0-3.88,0.79-5.09,2.33
		c-1.18,1.47-1.55,3.41-1.55,5.3c0,4.59,2.33,7.81,6.61,7.81c2.75,0,5.56-1.55,6.14-5.45L236.34,91.75z"/>
	<path class="st0" d="M242.66,96.26h8.97v2.2h-11.43V79.93h2.46V96.26z"/>
	<path class="st0" d="M257.62,79.95v18.51h-2.49V79.95H257.62z"/>
	<path class="st0" d="M278.3,79.95v18.51h-2.23l-10.14-15.05l0.21,15.05h-2.31V79.95h2.31l10.04,14.84l-0.11-14.84H278.3z"/>
	<path class="st0" d="M287,79.95v18.51h-2.49V79.95H287z"/>
	<path class="st0" d="M307.24,96.92c-1.34,1.05-3.17,2.02-6.08,2.02c-5.95,0-9.31-4.35-9.31-9.73c0-5.58,3.51-9.73,9.44-9.73
		c6.16,0,9.31,4.33,9.31,9.73c0,2.6-0.63,4.27-1.7,5.9l2.86,2.47l-1.55,1.83L307.24,96.92z M301.23,81.4
		c-3.85,0-6.71,2.94-6.71,7.76c0,4.64,2.6,7.79,6.76,7.79c3.7,0,6.69-2.6,6.66-7.71C307.92,84.15,305.04,81.4,301.23,81.4z"/>
	<path class="st0" d="M329.78,79.93v11.82c-0.03,0.76-0.03,1.57-0.24,2.41c-0.52,2.23-2.6,4.74-6.92,4.74
		c-1.36,0-3.93-0.21-5.69-2.46c-1.23-1.57-1.21-2.96-1.21-5.03V79.93h2.49v11.14c-0.03,1.7-0.03,3.15,0.94,4.33
		c1.1,1.36,2.73,1.44,3.46,1.44c2.18,0,3.88-1.05,4.43-3.07c0.21-0.81,0.21-1.57,0.24-2.75V79.93H329.78z"/>
	<path class="st0" d="M338.63,90.02v6.29h10.7v2.15h-13.08V79.95h12.77v2.18h-10.38v5.72h9.02v2.18H338.63z"/>
	<path class="st0" d="M361.8,79.95h5.79c2.62,0,4.95,0,7.1,2.28c2.23,2.39,2.31,5.66,2.31,6.97c0,1.28-0.05,4.9-2.6,7.29
		c-2.15,1.97-4.67,1.97-6.24,1.97h-6.37V79.95z M364.32,82.13v14.21h3.28c1.63-0.03,2.86-0.05,4.09-0.76
		c1.23-0.68,2.81-2.36,2.81-6.35c0-3.04-0.89-5.87-3.85-6.79c-1.02-0.32-2.1-0.32-3.41-0.32H364.32z"/>
	<path class="st0" d="M396.19,79.93v11.82c-0.03,0.76-0.03,1.57-0.24,2.41c-0.52,2.23-2.6,4.74-6.92,4.74
		c-1.36,0-3.93-0.21-5.69-2.46c-1.23-1.57-1.21-2.96-1.21-5.03V79.93h2.49v11.14c-0.03,1.7-0.03,3.15,0.94,4.33
		c1.1,1.36,2.73,1.44,3.46,1.44c2.18,0,3.88-1.05,4.43-3.07c0.21-0.81,0.21-1.57,0.24-2.75V79.93H396.19z"/>
	<path class="st1" d="M183.72,144.79c-3.69-0.68-4.9-1.12-9.42-4.51c-2.77,1.31-5,2.38-8.64,2.38c-4.61,0-9.03-1.75-11.99-4.61
		c-3.83-3.74-5.1-9.22-5.1-13.64c0-10,6.5-18.01,17.03-18.01c10.92,0,17.33,8.3,17.33,17.86c0,5.87-2.09,9.22-3.4,11.41
		c1.99,1.8,3.2,2.48,6.65,3.06L183.72,144.79z M157.12,124.36c0,6.89,3.54,11.07,8.74,11.07c5.77,0,8.59-5.1,8.59-11.02
		c0-3.2-1.12-5.97-1.94-7.23c-2.04-3.2-5.48-3.64-7.33-3.54C159.06,113.97,157.12,119.7,157.12,124.36z"/>
	<path class="st1" d="M217.25,107.42v19.12c-0.05,3.3-0.1,6.6-1.99,9.71c-3.69,5.92-11.31,6.21-12.76,6.21
		c-2.57,0-5.63-0.63-7.96-1.84c-6.6-3.4-6.6-9.42-6.55-14.07v-19.12h8.64v21.35c0,1.75,0.05,3.2,0.63,4.27
		c1.07,1.8,3.4,2.33,5.53,2.33c5.82,0,5.82-3.98,5.87-6.65v-21.3H217.25z"/>
	<path class="st1" d="M239.98,107.42l12.62,34.26h-9.12l-1.7-5.48h-12.62l-1.7,5.48h-9.12l12.72-34.26H239.98z M235.37,115.58
		c-0.44,1.75-0.92,3.54-1.41,5.29c-0.73,2.57-2.04,6.6-2.81,9.17h8.69L235.37,115.58z"/>
	<path class="st1" d="M256,107.42h15.43c3.59,0.05,8.06,0.1,11.21,3.49c1.6,1.8,2.72,4.51,2.72,7.62c0,6.89-4.71,8.59-7.04,9.46
		l7.91,13.69h-9.46l-6.79-12.23h-5.39v12.23H256V107.42z M264.59,113.83v9.27h7.09c1.21-0.05,5.14-0.14,5.14-4.71
		c0-4.37-3.15-4.51-4.95-4.56H264.59z"/>
	<path class="st1" d="M287.45,107.37h26.4v6.79h-8.88v27.52h-8.59v-27.52h-8.93V107.37z"/>
	<path class="st1" d="M326.18,107.42v34.26h-8.54v-34.26H326.18z"/>
	<path class="st1" d="M334.92,107.42h25.33v6.65h-16.79v6.21h15.68v6.5h-15.68v8.15h18.3v6.75h-26.84V107.42z"/>
	<path class="st1" d="M368.27,107.42h15.43c3.59,0.05,8.06,0.1,11.21,3.49c1.6,1.8,2.72,4.51,2.72,7.62c0,6.89-4.71,8.59-7.04,9.46
		l7.91,13.69h-9.46l-6.79-12.23h-5.39v12.23h-8.59V107.42z M376.85,113.83v9.27h7.09c1.21-0.05,5.14-0.14,5.14-4.71
		c0-4.37-3.15-4.51-4.95-4.56H376.85z"/>
</g>
<path class="st2" d="M82.57,162.21c-28.67,0-52-23.33-52-52c0-28.67,23.33-52,52-52c28.67,0,52,23.33,52,52
	C134.57,138.88,111.24,162.21,82.57,162.21z M82.57,64.28c-25.33,0-45.93,20.6-45.93,45.93c0,25.33,20.6,45.93,45.93,45.93
	c25.33,0,45.93-20.6,45.93-45.93C128.5,84.89,107.9,64.28,82.57,64.28z"/>
<path class="st1" d="M97.73,76.46v15.75h-3.48c-1.16,0-2.33,0.07-3.48,0.2v-8.99H73.35v18.41H54.94v17.41h17.87
	c1.18,0,2.34-0.07,3.48-0.22c0.69-0.09,1.37-0.2,2.05-0.34c5.08-1.02,9.65-3.43,13.32-6.81c0.57-0.53,1.12-1.07,1.65-1.65
	c1.31-1.42,2.47-2.97,3.46-4.64c-1.18,4.39-3.41,8.35-6.4,11.61c-0.52,0.57-1.07,1.12-1.65,1.65c-3.67,3.38-8.25,5.79-13.32,6.81
	c-0.67,0.14-1.36,0.25-2.05,0.34c-1.14,0.14-2.3,0.22-3.48,0.22H47.98V94.87h18.41V76.46H97.73z"/>
<path class="st0" d="M66.39,144.62v-15.75h3.48c1.16,0,2.33-0.07,3.48-0.2v8.99h17.42v-18.41h18.41v-17.41H91.3
	c-1.18,0-2.34,0.07-3.48,0.22c-0.69,0.09-1.37,0.2-2.05,0.34c-5.08,1.02-9.65,3.43-13.32,6.81c-0.57,0.53-1.12,1.07-1.65,1.65
	c-1.31,1.42-2.47,2.97-3.46,4.64c1.18-4.39,3.41-8.35,6.4-11.61c0.52-0.57,1.07-1.12,1.65-1.65c3.67-3.38,8.25-5.79,13.32-6.81
	c0.67-0.14,1.36-0.25,2.05-0.34c1.14-0.14,2.3-0.22,3.48-0.22h21.89v31.34H97.73v18.41H66.39z"/>
</svg>
