<?xml version="1.0" standalone="no"?>
<!DOCTYPE svg PUBLIC "-//W3C//DTD SVG 20010904//EN"
 "http://www.w3.org/TR/2001/REC-SVG-20010904/DTD/svg10.dtd">
<svg version="1.0" xmlns="http://www.w3.org/2000/svg"
 width="570.000000pt" height="570.000000pt" viewBox="0 0 570.000000 570.000000"
 preserveAspectRatio="xMidYMid meet">
<metadata>
Created by potrace 1.14, written by Peter Selinger 2001-2017
</metadata>
<g transform="translate(0.000000,570.000000) scale(0.100000,-0.100000)"
fill="#000000" stroke="none">
<path d="M3278 4744 c-3 -2 -56 -6 -119 -9 -63 -3 -121 -8 -130 -10 -9 -3 -40
-8 -68 -10 -29 -3 -56 -7 -60 -9 -4 -3 -29 -7 -57 -11 -27 -3 -65 -10 -84 -15
-19 -5 -46 -11 -60 -14 -53 -9 -155 -38 -166 -47 -6 -5 -13 -7 -16 -4 -4 4
-94 -23 -138 -42 -8 -3 -20 -7 -27 -9 -23 -4 -188 -87 -191 -96 -2 -4 -7 -6
-11 -4 -12 7 -152 -80 -144 -89 5 -4 2 -5 -4 -1 -8 4 -24 -4 -40 -21 -14 -15
-22 -21 -18 -13 5 8 -14 -3 -43 -25 -28 -22 -51 -46 -52 -53 0 -7 -4 -11 -9
-8 -5 3 -23 -9 -39 -28 -17 -19 -32 -33 -34 -31 -4 4 -152 -171 -157 -187 -2
-7 -7 -15 -11 -18 -14 -11 -73 -104 -73 -117 0 -7 -3 -11 -5 -8 -3 3 -20 -17
-38 -44 -44 -66 -85 -93 -137 -94 -46 0 -101 -22 -92 -37 4 -6 2 -10 -4 -10
-6 0 -20 -18 -31 -40 -11 -22 -18 -40 -14 -40 4 0 2 -6 -4 -12 -9 -12 -35 -91
-37 -113 0 -5 -3 -14 -7 -20 -10 -18 -40 -164 -41 -204 -1 -41 27 -96 43 -86
6 4 10 1 10 -4 0 -6 16 -11 35 -11 25 0 39 7 52 26 56 80 52 78 149 75 142 -3
178 -9 304 -48 47 -15 87 -27 90 -28 3 -1 19 -7 35 -14 17 -6 44 -17 60 -23
17 -7 62 -29 101 -50 39 -20 75 -34 79 -30 5 4 5 2 1 -5 -6 -12 30 -30 49 -24
5 1 7 0 3 -4 -7 -8 76 -75 92 -75 6 0 2 -17 -9 -39 -11 -21 -17 -41 -14 -45 4
-3 1 -6 -5 -6 -7 0 -12 -5 -12 -11 0 -6 -7 -17 -15 -26 -8 -8 -13 -19 -10 -24
4 -5 2 -9 -3 -9 -5 0 -15 -15 -22 -32 -8 -18 -20 -41 -28 -50 -8 -9 -11 -23
-6 -30 4 -7 4 -10 -1 -6 -6 6 -61 -86 -69 -117 -2 -5 -17 -40 -34 -77 -17 -36
-33 -72 -34 -80 -2 -7 -6 -15 -9 -18 -6 -5 -68 -177 -74 -203 -1 -7 -5 -19 -8
-27 -8 -23 -27 -85 -32 -106 -2 -10 -10 -41 -19 -68 -8 -27 -13 -53 -11 -57 8
-11 -18 -25 -45 -23 -23 2 -95 13 -123 18 -7 2 -34 6 -62 10 -102 16 -233 41
-345 68 -47 11 -94 21 -105 23 -43 7 -139 36 -151 46 -6 5 -11 20 -11 34 -1
72 -71 100 -116 46 -23 -28 -28 -29 -80 -24 -47 5 -57 3 -76 -16 -42 -42 -21
-94 51 -130 25 -13 32 -40 16 -66 -5 -9 -31 -118 -33 -140 -1 -5 -4 -19 -8
-30 -4 -11 -9 -38 -13 -60 -3 -22 -7 -42 -9 -44 -2 -2 -26 2 -53 9 -50 12 -83
4 -104 -25 -12 -15 -9 -65 3 -65 5 0 8 -4 5 -9 -8 -12 33 -48 75 -65 36 -15
36 -16 29 -58 -5 -24 -6 -46 -4 -50 2 -4 0 -9 -4 -12 -12 -7 -35 -144 -31
-176 4 -25 96 -103 111 -94 4 3 8 1 8 -4 0 -13 127 -65 220 -90 190 -51 357
-53 468 -4 20 8 40 15 43 14 13 -3 134 77 132 87 -2 6 3 11 11 11 20 0 114
114 109 132 -2 4 2 8 8 8 5 0 7 5 4 10 -3 6 -2 10 3 10 4 0 16 16 25 35 14 29
22 35 49 36 18 0 42 2 53 4 11 2 51 7 90 10 38 4 77 11 86 16 9 4 19 6 21 3 3
-2 26 0 52 6 25 5 63 13 84 16 40 6 151 35 249 64 l62 19 58 -61 c51 -52 118
-105 188 -145 22 -13 107 -55 115 -58 3 -1 22 -9 44 -18 21 -9 42 -14 47 -11
5 3 9 1 9 -4 0 -10 24 -18 90 -30 45 -9 221 -7 280 2 52 9 230 55 245 64 6 4
15 7 21 8 30 5 212 99 207 107 -3 6 -2 7 4 4 6 -4 43 17 84 45 41 29 109 75
151 104 42 29 75 54 72 56 -2 3 2 5 9 6 17 1 111 36 114 42 4 7 103 4 134 -5
18 -4 26 -13 26 -28 1 -53 4 -68 12 -63 5 4 11 2 13 -3 3 -9 106 -63 111 -59
2 2 11 -5 21 -15 10 -9 22 -15 27 -12 5 4 9 2 9 -3 0 -9 50 -37 63 -34 4 1 7
-2 7 -7 0 -9 41 -24 70 -25 16 -1 101 114 94 126 -3 5 0 8 5 8 6 0 11 6 11 14
0 8 4 16 8 18 12 5 116 188 107 188 -3 0 3 10 14 22 11 11 18 25 15 30 -3 4
-1 8 4 8 11 0 43 67 49 102 3 18 -2 30 -15 40 -14 9 -18 23 -16 48 5 57 10 85
16 95 3 6 9 26 14 45 10 42 9 41 17 60 7 20 28 88 31 103 1 7 13 46 25 87 28
90 32 113 48 300 10 112 10 517 0 600 -35 297 -108 512 -244 717 -63 95 -230
276 -246 266 -5 -3 -8 -2 -5 3 3 5 0 15 -8 22 -8 7 -14 10 -14 6 0 -4 -9 5
-21 20 -11 14 -25 24 -30 21 -5 -4 -9 -2 -9 3 0 11 -143 112 -158 112 -6 0
-12 4 -14 8 -1 5 -39 28 -83 52 -44 23 -95 51 -112 62 -18 11 -33 17 -33 13 0
-3 -7 1 -16 9 -14 14 -35 21 -56 17 -5 0 -8 3 -8 8 0 5 -26 19 -57 31 -32 12
-72 28 -89 36 -17 8 -40 15 -50 17 -11 1 -24 6 -30 9 -16 11 -160 46 -254 64
-47 8 -137 17 -200 20 -63 2 -120 6 -127 9 -6 2 -13 2 -15 -1z m-942 -1952 c0
-4 4 -16 8 -27 5 -11 10 -27 14 -35 3 -8 4 -21 3 -27 -1 -7 2 -13 6 -13 11 0
13 -25 13 -155 0 -164 -8 -238 -30 -258 -11 -9 -11 -8 0 8 14 18 14 19 -2 6
-10 -7 -18 -19 -18 -27 0 -7 -14 -22 -30 -34 -17 -12 -28 -25 -25 -30 3 -4 -2
-11 -11 -14 -8 -3 -12 -10 -9 -16 3 -5 1 -10 -5 -10 -6 0 -8 -4 -5 -10 3 -5 1
-10 -5 -10 -6 0 -16 -12 -22 -27 -7 -16 -19 -37 -27 -47 -14 -17 -14 -18 -1
-11 11 6 10 3 -3 -12 -9 -11 -14 -23 -10 -26 3 -4 2 -7 -4 -7 -9 0 -11 -6 -15
-49 -1 -11 -7 -17 -12 -14 -5 4 -7 -3 -4 -15 4 -12 2 -22 -3 -22 -5 0 -9 -9
-9 -21 0 -20 -4 -20 -97 -16 -78 3 -97 7 -94 18 2 8 4 22 5 32 0 9 4 17 9 17
5 0 7 7 4 15 -4 8 -2 17 4 21 6 3 8 12 5 20 -3 8 -1 14 5 14 6 0 9 6 6 14 -3
7 0 19 6 25 6 6 7 11 3 11 -5 0 -3 7 4 15 7 9 10 18 7 22 -4 3 -2 12 4 20 6 7
8 13 3 13 -5 0 -4 4 1 8 10 7 59 145 60 168 0 6 6 19 14 28 7 9 11 16 7 16 -4
0 0 10 9 23 8 13 12 27 8 30 -3 4 -1 7 6 7 8 0 11 7 7 15 -3 9 1 18 10 22 8 3
13 12 10 19 -3 8 -1 14 3 14 8 0 30 48 27 61 -1 3 7 14 17 24 10 9 16 23 13
30 -3 8 2 16 10 19 9 3 12 10 9 16 -3 5 -1 10 5 10 6 0 9 4 6 9 -3 5 1 14 10
22 22 18 40 54 22 44 -7 -3 -5 0 6 9 10 8 15 20 11 25 -3 6 1 14 9 17 9 3 16
12 16 19 0 22 33 27 36 7z m1259 -430 c36 -16 107 -77 112 -98 2 -5 8 -22 14
-39 16 -41 14 -195 -2 -195 -7 0 -32 -50 -33 -65 -1 -5 -8 -10 -16 -10 -8 -1
-13 -7 -12 -15 2 -8 0 -12 -4 -8 -4 4 -19 -1 -33 -11 -67 -47 -151 -55 -226
-22 -25 11 -47 19 -49 18 -2 -1 -16 14 -32 33 -16 19 -33 38 -39 42 -5 4 -6 8
-2 8 5 0 5 6 0 13 -29 46 -18 210 17 253 7 8 9 14 5 14 -13 0 79 72 105 82 36
14 112 26 135 21 11 -2 38 -12 60 -21z m-1231 -439 c6 -76 30 -207 51 -279 8
-24 6 -25 -125 -58 -36 -9 -72 -19 -80 -23 -8 -3 -24 -7 -35 -8 -11 -2 -47 -8
-80 -14 -73 -14 -84 -16 -160 -26 -33 -4 -68 -9 -77 -11 -10 -1 -19 0 -22 4
-2 4 11 56 29 116 l32 110 39 -2 c156 -7 265 -7 282 -1 14 6 29 35 53 106 41
123 68 185 78 179 5 -3 11 -45 15 -93z m-1351 -26 c9 -1 17 -5 17 -10 0 -4 6
-7 13 -6 6 1 19 0 27 -4 8 -3 26 -8 40 -10 14 -3 75 -17 135 -32 120 -28 254
-53 325 -60 25 -3 55 -7 67 -9 11 -3 42 -8 67 -11 43 -7 46 -9 44 -34 -2 -14
-5 -28 -8 -31 -3 -3 -19 -49 -34 -102 l-29 -98 -76 -1 c-161 -2 -245 2 -366
16 -33 4 -71 9 -85 10 -14 1 -41 5 -60 9 -19 4 -46 8 -60 10 -14 2 -32 6 -40
9 -8 3 -42 11 -75 18 -33 6 -63 13 -66 15 -6 3 49 261 67 318 5 15 12 17 43
11 20 -4 44 -7 54 -8z m-120 -501 c196 -37 238 -44 302 -50 28 -3 66 -8 85
-11 19 -3 98 -7 175 -10 77 -2 144 -4 148 -5 12 0 -47 -82 -82 -112 -17 -14
-31 -24 -31 -21 0 4 -8 -1 -18 -10 -10 -10 -22 -14 -25 -10 -4 3 -7 0 -7 -7 0
-7 -3 -11 -6 -7 -4 3 -23 -1 -43 -9 -20 -9 -47 -18 -61 -20 -14 -3 -32 -7 -40
-9 -20 -6 -137 -6 -175 -1 -56 8 -189 47 -252 74 -70 30 -79 46 -68 129 4 26
7 57 8 68 3 27 16 35 44 24 13 -5 34 -11 46 -13z"/>
</g>
</svg>
