<svg id="Layer_1" data-name="Layer 1" xmlns="http://www.w3.org/2000/svg" viewBox="0 0 128 128"><defs><style>.cls-1{fill:none;stroke:#000;stroke-linecap:round;stroke-linejoin:round;stroke-width:2px;}</style></defs><title>iStar_Design_Medicine_LineIcons_Live-1</title><path class="cls-1" d="M1.85,122.19c.55-10,1.67-32.75,14.45-36.09S48.35,75,48.35,75"/><path class="cls-1" d="M126.15,124.31c-.55-10-1.67-34.87-14.45-38.21S78.23,74.26,78.23,74.26"/><path class="cls-1" d="M78.23,77.35a15,15,0,0,1-15,15A14.78,14.78,0,0,1,48.35,77.53"/><line class="cls-1" x1="74.63" y1="122.19" x2="77.95" y2="80.21"/><path class="cls-1" d="M82.58,47.25c0,14.1-8.91,25.53-19.91,25.53S42.76,60,42.76,47.25"/><path class="cls-1" d="M83.7,50.53c2.94,0,5.33-3.06,5.33-6.82S87.91,37.13,85,37.13c0,0-2.38-.06-2.38,1.48"/><path class="cls-1" d="M42.19,50.3c-2.9,0-5.25-3-5.25-6.7s1.19-6.71,4.09-6.71c0,0,1.73.3,1.73,1"/><path class="cls-1" d="M42.76,32.8s-4.87-17.55-.88-21.53,8.21-3.2,8.21-3.2.69-4.38,8.42-4.38c6.79,0,16,.16,23.24,7.58a9.07,9.07,0,0,1,2.42,7.34L82.58,32.8S80.22,18.25,50.09,18.25Z"/><line class="cls-1" x1="82.58" y1="32.8" x2="82.58" y2="43"/><line class="cls-1" x1="42.76" y1="32.8" x2="42.76" y2="43"/><line class="cls-1" x1="89.95" y1="117.95" x2="104.05" y2="117.95"/><path class="cls-1" d="M48.2,71.77S29.92,75,29.92,96.21"/><path class="cls-1" d="M78.23,70.18S96.5,73.36,96.5,94.62"/><circle class="cls-1" cx="96.5" cy="99.63" r="4.77"/><path class="cls-1" d="M34.77,112.37h4.69c0-8.8-4.09-15.94-9.8-15.94s-9.29,7.14-9.29,15.94H25.5"/><line class="cls-1" x1="78.23" y1="63.19" x2="78.23" y2="77.53"/><line class="cls-1" x1="48.35" y1="77.53" x2="48.36" y2="65.02"/><line class="cls-1" x1="52.36" y1="122.19" x2="48.59" y2="80.21"/></svg>