<svg id="Layer_1" data-name="Layer 1" xmlns="http://www.w3.org/2000/svg" viewBox="0 0 128 128"><defs><style>.cls-1{fill:none;stroke:#000;stroke-linecap:round;stroke-linejoin:round;stroke-width:2px;}</style></defs><title>Artboard 1</title><path class="cls-1" d="M38.27,21.47A86.63,86.63,0,0,0,6.47,42.29"/><path class="cls-1" d="M63.53,16.45a82.12,82.12,0,0,0-20.05,3.28"/><path class="cls-1" d="M64,24.62c32.92,0,59.6,31,59.6,31S96.92,86.52,64,86.52,4.4,55.57,4.4,55.57,31.08,24.62,64,24.62Z"/><circle class="cls-1" cx="64" cy="55.34" r="13.14"/><path class="cls-1" d="M44.72,41.17a24.09,24.09,0,0,1,1.63-2"/><path class="cls-1" d="M50.8,35.38q.87-.57,1.8-1.08A23.86,23.86,0,1,1,41.79,46.42"/><path class="cls-1" d="M41,98.48a28,28,0,0,0,45.92,0Z"/><path class="cls-1" d="M75.89,102.43a22.21,22.21,0,0,0,4.65-4"/><path class="cls-1" d="M47.46,98.48A22.18,22.18,0,0,0,70.3,105"/></svg>