<svg id="Layer_1" data-name="Layer 1" xmlns="http://www.w3.org/2000/svg" viewBox="0 0 128 128"><defs><style>.cls-1{fill:none;stroke:#000;stroke-linecap:round;stroke-linejoin:round;stroke-width:2px;}</style></defs><title>iStar_Design_Medicine_LineIcons_Live-2</title><polyline class="cls-1" points="71.27 15.3 79.92 1.51 88.27 6.74 79.63 20.53"/><circle class="cls-1" cx="72.65" cy="41.02" r="8.81" transform="translate(-0.94 80.34) rotate(-57.57)"/><polyline class="cls-1" points="68.04 49.63 57.36 66.66 39.52 55.48 66.56 12.34 84.4 23.53 77.98 33.77"/><line class="cls-1" x1="77.58" y1="5.2" x2="81.76" y2="7.82"/><polyline class="cls-1" points="52.08 64.47 43.7 77.83 35.35 72.59 43.72 59.23"/><path class="cls-1" d="M76.27,40.15a3.71,3.71,0,1,1-4.45-2.8"/><line class="cls-1" x1="67.91" y1="20.92" x2="51.86" y2="46.52"/><line class="cls-1" x1="32.29" y1="93.4" x2="48.4" y2="93.4"/><path class="cls-1" d="M27.62,105a3.45,3.45,0,0,1-3.44-3.45h0a3.44,3.44,0,0,1,3.44-3.44h27A3.44,3.44,0,0,1,58,101.52h0A3.45,3.45,0,0,1,54.59,105h-18"/><path class="cls-1" d="M85.69,45.23c15,7.58,23.18,24.05,20.52,41.54M79.77,35.36c18.7,6.14,32.9,25,32.9,45.78A46.55,46.55,0,0,1,103,109.63m-20.72.14a33,33,0,0,0-6.6-60.14"/><path class="cls-1" d="M23.14,109.77h81.73a11.2,11.2,0,0,1,11.2,11.2v5.52a0,0,0,0,1,0,0H11.93a0,0,0,0,1,0,0V121A11.2,11.2,0,0,1,23.14,109.77Z"/><line class="cls-1" x1="68.93" y1="120.41" x2="102.93" y2="120.41"/><line class="cls-1" x1="61.27" y1="120.41" x2="47.67" y2="120.41"/><path class="cls-1" d="M104.34,93.89a41.41,41.41,0,0,1-3,5.86"/></svg>