<svg id="Layer_1" data-name="Layer 1" xmlns="http://www.w3.org/2000/svg" viewBox="0 0 128 128"><defs><style>.cls-1{fill:none;stroke:#000;stroke-linecap:round;stroke-linejoin:round;stroke-width:2px;}</style></defs><title>iStar_Design_Medicine_LineIcons_Live-71</title><path class="cls-1" d="M10.13,116.5v1.24a7.74,7.74,0,0,0,7.74,7.75H27.3A7.74,7.74,0,0,0,35,117.74V116.5"/><line class="cls-1" x1="7" y1="116.5" x2="73.72" y2="116.5"/><path class="cls-1" d="M27,66.3,16.89,73.49l11,15.57,10.15-7.19a5.3,5.3,0,0,1,3.22-1l18.23.48a10.34,10.34,0,0,0,6.2-1.89l53-37.55A5.13,5.13,0,0,0,120,34.78L98.63,4.68a5.13,5.13,0,0,0-7.16-1.22L38.46,41a10.23,10.23,0,0,0-3.83,5.22L29,63.58A5.32,5.32,0,0,1,27,66.3Z"/><line class="cls-1" x1="87.93" y1="56.8" x2="101.53" y2="47.18"/><line class="cls-1" x1="78.33" y1="63.61" x2="82.66" y2="60.54"/><line class="cls-1" x1="33.41" y1="89.78" x2="18.02" y2="68.06"/><line class="cls-1" x1="29.47" y1="75.12" x2="22.31" y2="65.02"/><line class="cls-1" x1="37.7" y1="86.74" x2="33.49" y2="80.8"/><path class="cls-1" d="M32.24,102.84a4.37,4.37,0,1,1-8.73,0c0-2.41,4.36-8,4.36-8S32.24,100.43,32.24,102.84Z"/><polyline class="cls-1" points="109.53 48.32 88.21 18.22 51.71 44.07 73.03 74.17"/><path class="cls-1" d="M91.85,112v-3.7A5.38,5.38,0,0,1,97.23,103H111.8a5.38,5.38,0,0,1,5.38,5.38V112"/><path class="cls-1" d="M101.27,112.14h15.9A3.82,3.82,0,0,1,121,116v9.52H88V116a3.82,3.82,0,0,1,3.82-3.83h4.34"/><line class="cls-1" x1="116.11" y1="125.49" x2="116.11" y2="120"/><line class="cls-1" x1="110.31" y1="125.49" x2="110.31" y2="120"/><line class="cls-1" x1="104.51" y1="125.49" x2="104.51" y2="120"/><line class="cls-1" x1="98.71" y1="125.49" x2="98.71" y2="120"/><line class="cls-1" x1="92.91" y1="125.49" x2="92.91" y2="120"/></svg>