<svg id="Layer_1" data-name="Layer 1" xmlns="http://www.w3.org/2000/svg" viewBox="0 0 128 128"><defs><style>.cls-1{fill:none;stroke:#000;stroke-linecap:round;stroke-linejoin:round;stroke-width:2px;}</style></defs><title>iStar_Design_Medicine_LineIcons_Live-99</title><line class="cls-1" x1="109.75" y1="20.19" x2="72.34" y2="20.19"/><line class="cls-1" x1="123.92" y1="20.19" x2="115.89" y2="20.19"/><line class="cls-1" x1="123.92" y1="106.34" x2="72.34" y2="106.34"/><polyline class="cls-1" points="69.02 116.53 71.9 113.65 77.11 118.86 82.32 113.65 87.52 118.86 92.73 113.65 97.94 118.86 103.15 113.65 108.36 118.86 113.56 113.65 118.77 118.86 123.92 113.71 123.92 12.36 119.24 7.68 114.03 12.88 108.83 7.68 103.62 12.88 98.41 7.68 93.2 12.88 87.99 7.68 82.79 12.88 77.58 7.68 72.37 12.88 67.16 7.68 62.01 12.83"/><path class="cls-1" d="M4.08,111.19a9.25,9.25,0,0,0,18.5,0Z"/><line class="cls-1" x1="21.55" y1="111.19" x2="54.26" y2="111.19"/><path class="cls-1" d="M22.28,105V18H66.44v95.28a6.09,6.09,0,0,1-6.09,6.09H27.61"/><line class="cls-1" x1="49.84" y1="76.24" x2="49.84" y2="76.24"/><line class="cls-1" x1="57.36" y1="84.98" x2="57.36" y2="84.98"/><line class="cls-1" x1="30.42" y1="72.54" x2="30.42" y2="72.54"/><line class="cls-1" x1="55.51" y1="63.38" x2="55.51" y2="63.38"/><line class="cls-1" x1="42.76" y1="99.79" x2="42.76" y2="99.79"/><line class="cls-1" x1="38.03" y1="87.96" x2="38.03" y2="87.96"/><line class="cls-1" x1="32.88" y1="55.98" x2="32.88" y2="55.98"/><path class="cls-1" d="M6.83,111.19l4.69-4.69a2.56,2.56,0,0,1,3.62,0l4.69,4.69"/><line class="cls-1" x1="75.83" y1="39.35" x2="98.68" y2="39.35"/><line class="cls-1" x1="75.83" y1="46.9" x2="98.68" y2="46.9"/><line class="cls-1" x1="75.83" y1="54.44" x2="98.68" y2="54.44"/><line class="cls-1" x1="75.83" y1="61.99" x2="98.68" y2="61.99"/><line class="cls-1" x1="75.83" y1="78.83" x2="98.68" y2="78.83"/><line class="cls-1" x1="75.83" y1="86.44" x2="85.7" y2="86.44"/><circle class="cls-1" cx="109.54" cy="42.85" r="4.32"/><circle class="cls-1" cx="109.54" cy="58.49" r="4.32"/><path class="cls-1" d="M66.44,46a31.94,31.94,0,0,0-3.17,1.84,21.16,21.16,0,0,1-23,0,32.6,32.6,0,0,0-18-5.33"/></svg>