<svg id="Layer_1" data-name="Layer 1" xmlns="http://www.w3.org/2000/svg" viewBox="0 0 128 128"><defs><style>.cls-1{fill:none;stroke:#000;stroke-linecap:round;stroke-linejoin:round;stroke-width:2px;}</style></defs><title>iStar_Design_Medicine_LineIcons_Live-23</title><path class="cls-1" d="M60.11,69.13h-.34a40.35,40.35,0,0,0-36.92,56.63"/><path class="cls-1" d="M60.1,69.12a14.14,14.14,0,0,1-14-12.58L72.51,30.35,70.54,18a20.66,20.66,0,0,1-9.42,7.15,4.1,4.1,0,0,1-5-2A114.57,114.57,0,0,1,49,4"/><path class="cls-1" d="M99.05,61.05C94.62,56.1,88.93,55.7,86.33,52c-6.31-9.1,7-15.46,1.13-25.31-3.52-5.92-18.31-13.8-23-24.4"/><path class="cls-1" d="M89.51,1.19c3.77,5.06,13.32,17.57,13.32,31.52,0,8.95-6.47,16-.17,21.55,6,5.29,6.36,9,5.64,12.52-.85,4.15-8.67,10.64-9.07,19.41a15.69,15.69,0,0,1-8.74-4.66"/><path class="cls-1" d="M95.36,58.49s-5.89,17.55-4.87,23c1.46,7.85,9.14,13.55,11.27,21.35,2.17,8,.62,18.27-7.71,23.93"/><path class="cls-1" d="M43.75,105.16a31.5,31.5,0,0,0-2.58,8.5c-.8,5,1.46,8.36,5.57,9.82s10.88-2.72,14.53-6.64a32.23,32.23,0,0,0,7.44-12.08c1.15-3.18,1.12-5.84-.46-7.33s-.87-4.76-.87-6.27c0-6.27-4.75-11.35-10.62-11.35S46.14,84.89,46.14,91.16c0,2,1.6,4.91,2.66,8,0,0-8-.06-11.35,6.11"/><path class="cls-1" d="M39.12,103s-1.67-3.38-4.06-.53c-2.15,2.57-1.92,6.9,0,8.69s2.76-.48,3.25-1.19a3.12,3.12,0,0,1,4-1.08"/><path class="cls-1" d="M64.13,98.66s-8.5,1.06-11.88,5.57"/><path class="cls-1" d="M61.89,105.36s-8.25,5.24-11.7,2.52a6.28,6.28,0,0,1-2.65-6.09s1.07-4.76,7.14,0"/><path class="cls-1" d="M50.66,115.38a7.61,7.61,0,0,0-.47-7.5"/><path class="cls-1" d="M34.2,85.3c1.67,0,6.81.89,5.14,6l-.47,1.44A2.47,2.47,0,0,0,41.48,96h0a2.46,2.46,0,0,1,2.62,1.7l.58,1.84"/><path class="cls-1" d="M58.75,91.56s3.48,1.09,0,4.31"/></svg>