<svg id="Layer_1" data-name="Layer 1" xmlns="http://www.w3.org/2000/svg" viewBox="0 0 128 128"><defs><style>.cls-1{fill:none;stroke:#000;stroke-linecap:round;stroke-linejoin:round;stroke-width:2px;}</style></defs><title>iStar_Design_Medicine_LineIcons_Live-28</title><path class="cls-1" d="M61.87,55h57.4a6.37,6.37,0,0,1,6.37,6.37h0a6.37,6.37,0,0,1-6.37,6.38H71.44a6.38,6.38,0,0,0-6.38,6.38h0a6.38,6.38,0,0,0,6.38,6.37H82.07"/><path class="cls-1" d="M94,67.7a6.38,6.38,0,0,1,6.38,6.38h0A6.37,6.37,0,0,1,94,80.45"/><path class="cls-1" d="M94,80.45a6.38,6.38,0,0,1,6.38,6.38h0A6.38,6.38,0,0,1,94,93.21"/><path class="cls-1" d="M94,93.21a6.37,6.37,0,0,1,6.38,6.38h0A6.37,6.37,0,0,1,94,106H71.44a6.38,6.38,0,0,1-6.38-6.37h0a6.38,6.38,0,0,1,6.38-6.38H85.26"/><path class="cls-1" d="M39.42,74.61c13.19,0,21.39-8.63,21.39-19.26l16.41-12.8a29.86,29.86,0,0,0,5.14-5.28c4-6.28,2.27-20-4.86-13.57l-7.62,6.23c-4.45,3.64-10.75,7.26-16.37,8.52L44,40.58c-8.29,1.87-14.8,5-20.75,11.08L22.9,52a14.78,14.78,0,0,1-10.53,4.42h-10"/><path class="cls-1" d="M2.36,93.21H9.63a18.12,18.12,0,0,1,10,3l7.64,5.09A27.55,27.55,0,0,0,42.58,106H60.81"/><path class="cls-1" d="M71.44,80.45H69.31a6.38,6.38,0,0,0-6.37,6.38h0a6.38,6.38,0,0,0,6.37,6.38h4.76"/><path class="cls-1" d="M109.25,87.65c0-3.07,5.55-10.87,5.55-10.87s5.56,7.8,5.56,10.87a5.56,5.56,0,1,1-11.11,0Z"/><line class="cls-1" x1="89.04" y1="54.95" x2="89.04" y2="67.7"/><line class="cls-1" x1="120.04" y1="54.99" x2="120.04" y2="67.65"/><line class="cls-1" x1="98.61" y1="54.95" x2="89.04" y2="67.7"/><line class="cls-1" x1="109.48" y1="54.95" x2="99.92" y2="67.7"/><line class="cls-1" x1="119.64" y1="55.91" x2="110.8" y2="67.7"/></svg>