<svg id="Layer_1" data-name="Layer 1" xmlns="http://www.w3.org/2000/svg" viewBox="0 0 128 128"><defs><style>.cls-1{fill:none;stroke:#000;stroke-linecap:round;stroke-linejoin:round;stroke-width:2px;}</style></defs><title>iStar_Design_Medicine_LineIcons_Live-5</title><polyline class="cls-1" points="4.46 7.28 4.46 2.79 40.34 2.79 40.34 7.28"/><rect class="cls-1" x="67.54" y="42.57" width="12.96" height="9.01"/><line class="cls-1" x1="81.71" y1="46.61" x2="66.33" y2="46.61"/><line class="cls-1" x1="74.02" y1="51.57" x2="74.02" y2="46.61"/><rect class="cls-1" x="87.06" y="42.57" width="12.96" height="9.01"/><line class="cls-1" x1="101.23" y1="46.61" x2="85.85" y2="46.61"/><line class="cls-1" x1="93.54" y1="51.57" x2="93.54" y2="46.61"/><rect class="cls-1" x="106.58" y="42.57" width="12.96" height="9.01"/><line class="cls-1" x1="120.74" y1="46.61" x2="105.37" y2="46.61"/><line class="cls-1" x1="113.05" y1="51.57" x2="113.05" y2="46.61"/><rect class="cls-1" x="49.44" y="67.19" width="61.91" height="5.7"/><rect class="cls-1" x="49.44" y="76.88" width="61.91" height="5.7"/><rect class="cls-1" x="49.44" y="86.57" width="61.91" height="5.7"/><polygon class="cls-1" points="29.08 19.95 24.98 19.95 24.98 15.85 19.82 15.85 19.82 19.95 15.72 19.95 15.72 25.11 19.82 25.11 19.82 29.21 24.98 29.21 24.98 25.11 29.08 25.11 29.08 19.95"/><polyline class="cls-1" points="43.2 94.81 43.2 7.28 1.61 7.28 1.61 125.21 7.49 125.21"/><polyline class="cls-1" points="43.2 59.57 117.6 59.57 117.6 99.88"/><polyline class="cls-1" points="60.69 59.57 60.69 34.5 126.39 34.5 126.39 99.88"/><rect class="cls-1" x="7.49" y="99.88" width="118.9" height="25.33"/><line class="cls-1" x1="98.07" y1="107.3" x2="7.49" y2="107.3"/><line class="cls-1" x1="126.39" y1="107.3" x2="103.61" y2="107.3"/><line class="cls-1" x1="24.2" y1="107.3" x2="24.2" y2="124.37"/><line class="cls-1" x1="109.68" y1="107.3" x2="109.68" y2="124.37"/><line class="cls-1" x1="66.94" y1="107.3" x2="66.94" y2="124.37"/><line class="cls-1" x1="43.2" y1="37.44" x2="1.61" y2="37.44"/><line class="cls-1" x1="43.2" y1="49.25" x2="1.61" y2="49.25"/><line class="cls-1" x1="43.2" y1="61.05" x2="1.61" y2="61.05"/><line class="cls-1" x1="43.2" y1="72.86" x2="1.61" y2="72.86"/><line class="cls-1" x1="43.2" y1="84.67" x2="1.61" y2="84.67"/><line class="cls-1" x1="22.4" y1="37.44" x2="22.4" y2="84.67"/></svg>