<svg id="Layer_1" data-name="Layer 1" xmlns="http://www.w3.org/2000/svg" viewBox="0 0 128 128"><defs><style>.cls-1{fill:none;stroke:#000;stroke-linecap:round;stroke-linejoin:round;stroke-width:2px;}</style></defs><title>iStar_Design_Medicine_LineIcons_Live-54</title><path class="cls-1" d="M112.76,27.93,105,121.83a3.26,3.26,0,0,0,2.9,3.64h0a3.27,3.27,0,0,0,3.38-3.21l4.86-105.07L105,2.25"/><polyline class="cls-1" points="106.55 60.76 103.27 16.63 90.75 2.81"/><path class="cls-1" d="M101.76,39.39,105,121.83"/><rect class="cls-1" x="65.23" y="48.66" width="9.89" height="9.89"/><path class="cls-1" d="M79.15,125.75a22.23,22.23,0,0,0-17.94,0"/><polyline class="cls-1" points="73.78 109.47 73.78 114.15 66.58 114.15 66.58 109.47"/><line class="cls-1" x1="73.78" y1="58.56" x2="73.78" y2="99.57"/><line class="cls-1" x1="66.58" y1="99.57" x2="66.58" y2="58.56"/><line class="cls-1" x1="70.18" y1="114.15" x2="70.18" y2="123.86"/><line class="cls-1" x1="70.18" y1="31.21" x2="70.18" y2="2.25"/><polyline class="cls-1" points="67.11 48.66 67.11 31.21 73.25 31.21 73.25 48.66"/><rect class="cls-1" x="65.23" y="99.57" width="9.89" height="9.89"/><path class="cls-1" d="M74.9,109.47a6.61,6.61,0,1,0,5-11,6.55,6.55,0,0,0-4.73,2"/><path class="cls-1" d="M65.23,100.5a6.62,6.62,0,1,0,.22,9"/><rect class="cls-1" x="13.43" y="51.61" width="8.67" height="22.39" rx="1.09" ry="1.09"/><path class="cls-1" d="M15.22,74v49.23a2.43,2.43,0,0,0,2.42,2.42h.24a2.43,2.43,0,0,0,2.42-2.42V74"/><path class="cls-1" d="M17.72,51.61V39.94H17a5.17,5.17,0,0,1-5.16-5.17h0a5.17,5.17,0,0,1,1-3l7-9.8"/><line class="cls-1" x1="33.94" y1="116.28" x2="38.17" y2="116.28"/><line class="cls-1" x1="42.09" y1="116.28" x2="44.06" y2="116.28"/><line class="cls-1" x1="39" y1="24.83" x2="39" y2="49.78"/><circle class="cls-1" cx="39" cy="15.49" r="9.33"/><line class="cls-1" x1="37.62" y1="12.86" x2="36.08" y2="14.41"/><line class="cls-1" x1="42.96" y1="13.2" x2="37.23" y2="18.92"/><path class="cls-1" d="M39,125.48h0a5.21,5.21,0,0,1-5.21-5.4l2.71-67.9a2.49,2.49,0,0,1,2.5-2.4h0a2.49,2.49,0,0,1,2.49,2.4l2.71,67.9A5.2,5.2,0,0,1,39,125.48Z"/></svg>