<svg id="Layer_1" data-name="Layer 1" xmlns="http://www.w3.org/2000/svg" viewBox="0 0 128 128"><defs><style>.cls-1{fill:none;stroke:#000;stroke-linecap:round;stroke-linejoin:round;stroke-width:2px;}</style></defs><title>iStar_Design_Medicine_LineIcons_Live-27</title><rect class="cls-1" x="10.1" y="49.24" width="53.9" height="75.59" rx="5.29" ry="5.29"/><path class="cls-1" d="M58.52,21.69H15.58a5.47,5.47,0,0,0-5.48,5.47V43H64V27.16A5.48,5.48,0,0,0,58.52,21.69Z"/><line class="cls-1" x1="15.65" y1="43.03" x2="15.65" y2="49.24"/><line class="cls-1" x1="58.45" y1="43.03" x2="58.45" y2="49.24"/><line class="cls-1" x1="15.59" y1="21.69" x2="15.59" y2="30.86"/><line class="cls-1" x1="20.95" y1="21.69" x2="20.95" y2="30.86"/><line class="cls-1" x1="26.32" y1="21.69" x2="26.32" y2="30.86"/><line class="cls-1" x1="31.68" y1="21.69" x2="31.68" y2="30.86"/><line class="cls-1" x1="42.41" y1="21.69" x2="42.41" y2="30.86"/><line class="cls-1" x1="37.05" y1="21.69" x2="37.05" y2="30.86"/><line class="cls-1" x1="47.78" y1="21.69" x2="47.78" y2="30.86"/><line class="cls-1" x1="53.14" y1="21.69" x2="53.14" y2="30.86"/><line class="cls-1" x1="58.5" y1="21.69" x2="58.5" y2="30.86"/><line class="cls-1" x1="64" y1="60.12" x2="10.1" y2="60.12"/><line class="cls-1" x1="64" y1="112.93" x2="10.1" y2="112.93"/><path class="cls-1" d="M51,92.54H36.42a4.69,4.69,0,0,0-4.7,4.69h0a4.69,4.69,0,0,0,4.7,4.7H51a4.69,4.69,0,0,0,4.69-4.7h0A4.69,4.69,0,0,0,51,92.54Z"/><line class="cls-1" x1="43.69" y1="101.93" x2="43.69" y2="92.54"/><path class="cls-1" d="M31.16,81.56,20.88,91.84a4.68,4.68,0,0,0,0,6.64h0a4.68,4.68,0,0,0,6.64,0L37.8,88.2a4.7,4.7,0,0,0,0-6.64h0A4.7,4.7,0,0,0,31.16,81.56Z"/><line class="cls-1" x1="32.66" y1="93.34" x2="26.02" y2="86.7"/><line class="cls-1" x1="64" y1="30.86" x2="10.1" y2="30.86"/><path class="cls-1" d="M45.33,30.86v4.2a2.14,2.14,0,0,1-2.15,2.14H30.91a2.14,2.14,0,0,1-2.15-2.14v-4.2"/><line class="cls-1" x1="15.6" y1="65.32" x2="15.6" y2="69.04"/><line class="cls-1" x1="15.6" y1="73.03" x2="15.6" y2="83.11"/><polyline class="cls-1" points="60.87 13.08 54.74 13.08 54.74 3.13 82.79 3.13 82.79 13.08 65.61 13.08"/><line class="cls-1" x1="57.99" y1="21.69" x2="57.99" y2="13.08"/><polyline class="cls-1" points="79.54 13.08 79.54 124.87 57.99 124.87"/><line class="cls-1" x1="79.54" y1="23.69" x2="67.25" y2="23.69"/><line class="cls-1" x1="79.54" y1="113.35" x2="69.3" y2="113.35"/><circle class="cls-1" cx="98.12" cy="98.96" r="10.77"/><line class="cls-1" x1="103.72" y1="101.53" x2="106.58" y2="104.39"/><line class="cls-1" x1="92.68" y1="90.5" x2="100.57" y2="98.38"/><line class="cls-1" x1="89.65" y1="93.53" x2="103.55" y2="107.42"/><line class="cls-1" x1="57.98" y1="68.01" x2="43.09" y2="68.01"/><line class="cls-1" x1="57.98" y1="73.17" x2="43.09" y2="73.17"/><line class="cls-1" x1="57.98" y1="78.07" x2="52.1" y2="78.07"/><line class="cls-1" x1="74.42" y1="46.14" x2="74.42" y2="73.17"/><line class="cls-1" x1="74.42" y1="36.09" x2="74.42" y2="40.59"/><path class="cls-1" d="M79.54,40.59H117.9v76.47a7.77,7.77,0,0,1-7.77,7.77H85.71"/><path class="cls-1" d="M117.9,63.82c-.94.28-1.84.59-2.71.93a28.78,28.78,0,0,1-19.67,0A42.65,42.65,0,0,0,80.14,62"/><line class="cls-1" x1="93.77" y1="115.75" x2="93.77" y2="115.75"/><line class="cls-1" x1="112.29" y1="110.61" x2="112.29" y2="110.61"/><line class="cls-1" x1="88.5" y1="80.19" x2="88.5" y2="80.19"/><line class="cls-1" x1="85.93" y1="71.52" x2="85.93" y2="71.52"/><line class="cls-1" x1="113.32" y1="82.84" x2="113.32" y2="82.84"/><line class="cls-1" x1="94.8" y1="71.52" x2="94.8" y2="71.52"/><line class="cls-1" x1="111.26" y1="75.64" x2="111.26" y2="75.64"/><line class="cls-1" x1="105.15" y1="83.99" x2="105.15" y2="83.99"/><line class="cls-1" x1="85.93" y1="88.18" x2="85.93" y2="88.18"/></svg>