<svg id="Layer_1" data-name="Layer 1" xmlns="http://www.w3.org/2000/svg" viewBox="0 0 128 128"><defs><style>.cls-1{fill:none;stroke:#000;stroke-linecap:round;stroke-linejoin:round;stroke-width:2px;}</style></defs><title>iStar_Design_Medicine_LineIcons_Live-100</title><rect class="cls-1" x="3.16" y="11.39" width="121.67" height="88.16" rx="6.25" ry="6.25"/><line class="cls-1" x1="3.16" y1="80.57" x2="124.84" y2="80.57"/><path class="cls-1" d="M66.71,90.36A2.71,2.71,0,1,1,64,87.65,2.71,2.71,0,0,1,66.71,90.36Z"/><line class="cls-1" x1="61.78" y1="17.08" x2="66.22" y2="17.08"/><line class="cls-1" x1="48.76" y1="99.55" x2="45.11" y2="116.61"/><line class="cls-1" x1="79.24" y1="99.55" x2="82.89" y2="116.61"/><line class="cls-1" x1="95.32" y1="116.61" x2="32.68" y2="116.61"/><line class="cls-1" x1="14.15" y1="25.61" x2="24.17" y2="25.61"/><line class="cls-1" x1="14.15" y1="37.1" x2="19.16" y2="37.1"/><line class="cls-1" x1="23.79" y1="37.1" x2="31.5" y2="37.1"/><line class="cls-1" x1="31.96" y1="31.35" x2="34.32" y2="31.35"/><line class="cls-1" x1="14.15" y1="31.35" x2="26.49" y2="31.35"/><line class="cls-1" x1="86.58" y1="57.93" x2="97.25" y2="57.93"/><line class="cls-1" x1="102.09" y1="57.93" x2="104.67" y2="57.93"/><line class="cls-1" x1="20.74" y1="57.93" x2="23.32" y2="57.93"/><polyline class="cls-1" points="29.08 57.94 42.86 57.94 47.45 47.72 56.2 72.45 59.48 57.94 62.88 57.94 66.54 64.56 72.17 24.11 77.72 57.94 82.11 57.94"/></svg>