<svg id="Layer_1" data-name="Layer 1" xmlns="http://www.w3.org/2000/svg" viewBox="0 0 128 128"><defs><style>.cls-1{fill:none;stroke:#000;stroke-linecap:round;stroke-linejoin:round;stroke-width:2px;}</style></defs><title>iStar_Design_Medicine_LineIcons_Live-48</title><line class="cls-1" x1="5.38" y1="33.58" x2="40.57" y2="22.31"/><path class="cls-1" d="M34.91,24.12l-1,13.31a37.54,37.54,0,0,0,2.44,16.25l10.79,27.8a6.39,6.39,0,0,1-.78,6.08l-2.66,3.67a4.73,4.73,0,0,0-.9,2.53h0a4.78,4.78,0,0,0,2.4,4.43l6.11,2.38a14.24,14.24,0,0,1,5.78,4.18l6.49,7.89a7.53,7.53,0,0,0,4.18,2.55l1.46.32,3.47.75a2.13,2.13,0,0,0,2.53-1.62h0a2.12,2.12,0,0,0-1.69-2.54h0a6.9,6.9,0,0,1-5.59-5.84L66.6,96.77a16,16,0,0,0-1.14-4.07l-5-11.84a13.26,13.26,0,0,1-1-4.33l-4.2-61.86A11.68,11.68,0,0,0,43.52,3.79H4.94"/><line class="cls-1" x1="16.5" y1="30.02" x2="33.81" y2="39.99"/><path class="cls-1" d="M5.38,53.07l13.51,4a25.3,25.3,0,0,1,13.43,9.5L47.57,83.89"/><path class="cls-1" d="M66.78,98.09l14.14,11a4.23,4.23,0,0,1,1.22,5.18h0a4.8,4.8,0,0,0,.08,4.32h0a4.77,4.77,0,0,0,4.71,2.52l5.58-.56,2.52-.49a13.19,13.19,0,0,1,9,1.43l2.09,1.17a12.15,12.15,0,0,0,12.71-.51l.33-.23,2.92-2a2.23,2.23,0,0,0,.49-3.24l-.15-.18a2.24,2.24,0,0,0-3-.47h0a7.7,7.7,0,0,1-8.87-.28L92.73,102.3A116.17,116.17,0,0,1,75.94,86.82L58.79,67.94"/><path class="cls-1" d="M60.19,17.39c2,.56,3.36,1.5,3.7,2.78.93,3.63-6.46,8.68-16.5,11.27s-19,1.75-19.9-1.88"/><path class="cls-1" d="M60.76,32.11c2,.57,3.33,1.51,3.66,2.79.94,3.63-6.35,8.65-16.27,11.21S29.42,47.8,28.48,44.17"/><path class="cls-1" d="M61.7,46.24c2,.57,3.25,1.52,3.58,2.81.93,3.63-6.1,8.58-15.72,11.06S31.39,61.66,30.45,58"/></svg>