<svg id="Layer_1" data-name="Layer 1" xmlns="http://www.w3.org/2000/svg" viewBox="0 0 128 128"><defs><style>.cls-1{fill:none;stroke:#000;stroke-linecap:round;stroke-linejoin:round;stroke-width:2px;}</style></defs><title>iStar_Design_Medicine_LineIcons_Live-61</title><path class="cls-1" d="M77.22,58.7c4.45-4.45,8.8-13,6.2-15.6s-11.15,1.75-15.6,6.2C64.4,52.72,64,55.62,65.16,58L61.4,61.72a2.41,2.41,0,1,0,3.4,3.41l3.76-3.76C70.9,62.54,73.8,62.12,77.22,58.7Z"/><path class="cls-1" d="M60.32,66.2a16.84,16.84,0,0,0-4.6,8.56,12.28,12.28,0,0,1-9.56,9.57A16.86,16.86,0,0,0,33,97.49"/><path class="cls-1" d="M41.9,65.67c4.45-4.45,8.8-13,6.2-15.6S37,51.82,32.5,56.27c-3.42,3.42-3.83,6.32-2.66,8.66l-3.76,3.76a2.4,2.4,0,0,0,3.4,3.4l3.76-3.76C35.58,69.5,38.48,69.09,41.9,65.67Z"/><path class="cls-1" d="M26.35,72.36A16.89,16.89,0,0,0,13.19,85.53a12.28,12.28,0,0,1-9.57,9.56"/><path class="cls-1" d="M82.57,89.78c4.45-4.45,8.8-13,6.2-15.6s-11.15,1.74-15.6,6.19C69.75,83.79,69.34,86.7,70.5,89L66.75,92.8a2.4,2.4,0,0,0,3.4,3.4l3.76-3.76C76.25,93.61,79.15,93.2,82.57,89.78Z"/><path class="cls-1" d="M35.46,123.53a16.86,16.86,0,0,0,13.16-13.16,12.29,12.29,0,0,1,9.56-9.57,16.87,16.87,0,0,0,8.57-4.6"/><path class="cls-1" d="M45.24,42.48A30.76,30.76,0,1,1,94.65,77.7"/><path class="cls-1" d="M64.57,85.56A30.64,30.64,0,0,1,51.15,77.7,31,31,0,0,1,46,70.88"/><path class="cls-1" d="M110.34,73.64a41.33,41.33,0,0,1-8.16,11.58"/><path class="cls-1" d="M85.48,16.5a41.26,41.26,0,0,1,16.7,10.17"/><path class="cls-1" d="M52.49,19.92a41.44,41.44,0,0,1,28-4.68"/><path class="cls-1" d="M43.63,26.67a42.12,42.12,0,0,1,4-3.5"/><circle class="cls-1" cx="72.9" cy="55.95" r="51.47"/></svg>