<svg id="Layer_1" data-name="Layer 1" xmlns="http://www.w3.org/2000/svg" viewBox="0 0 128 128"><defs><style>.cls-1{fill:none;stroke:#000;stroke-linecap:round;stroke-linejoin:round;stroke-width:2px;}</style></defs><title>iStar_Design_Medicine_LineIcons_Live-85</title><path class="cls-1" d="M107.91,56.82A22.27,22.27,0,0,0,96.86,46"/><line class="cls-1" x1="109.98" y1="93.61" x2="109.98" y2="71.63"/><line class="cls-1" x1="109.98" y1="103.01" x2="109.98" y2="99.87"/><path class="cls-1" d="M47.7,23.28v4.45a9.09,9.09,0,0,1-9.09,9.09H36.54A26.38,26.38,0,0,0,10.16,63.2v50.71a11.42,11.42,0,0,0,11.42,11.42h84.84a11.42,11.42,0,0,0,11.42-11.42V63.2A26.38,26.38,0,0,0,91.46,36.82H89.39a9.09,9.09,0,0,1-9.09-9.09V23.28"/><rect class="cls-1" x="38.5" y="2.67" width="51" height="20.61"/><line class="cls-1" x1="47.63" y1="14.79" x2="47.63" y2="23.28"/><line class="cls-1" x1="58.54" y1="14.79" x2="58.54" y2="23.28"/><line class="cls-1" x1="69.46" y1="14.79" x2="69.46" y2="23.28"/><line class="cls-1" x1="80.37" y1="14.79" x2="80.37" y2="23.28"/><line class="cls-1" x1="38.5" y1="7.92" x2="60.77" y2="7.92"/><line class="cls-1" x1="65.62" y1="7.92" x2="69.48" y2="7.92"/><line class="cls-1" x1="64.91" y1="70.42" x2="63.09" y2="70.42"/><path class="cls-1" d="M72.16,75.72v3.92a4.27,4.27,0,0,1-4.27,4.27H60.11a4.27,4.27,0,0,1-4.27-4.27V75.72"/><path class="cls-1" d="M60.06,64a2.43,2.43,0,1,1-2.43-2.42A2.43,2.43,0,0,1,60.06,64Z"/><path class="cls-1" d="M72.79,64a2.43,2.43,0,1,1-2.42-2.42A2.42,2.42,0,0,1,72.79,64Z"/><path class="cls-1" d="M69.76,75.72h1.31a7.1,7.1,0,0,0,7.1-7.1V59.43A14.16,14.16,0,0,0,64,45.26h0A14.16,14.16,0,0,0,49.83,59.43v9.19a7.1,7.1,0,0,0,7.1,7.1h1.31"/><line class="cls-1" x1="62.03" y1="83.91" x2="62.03" y2="79.06"/><line class="cls-1" x1="65.97" y1="83.91" x2="65.97" y2="79.06"/><path class="cls-1" d="M88.09,101.67a4.15,4.15,0,0,0-.28,1.45L42,85.14a4.19,4.19,0,1,0-5.91.35,4.2,4.2,0,1,0,4.1,4.26l45.81,18a4.19,4.19,0,1,0,5.91-.35,4.19,4.19,0,1,0-3.82-5.71Z"/><path class="cls-1" d="M52.33,98.36l-12.14,4.76a4.15,4.15,0,0,0-.28-1.45,4.2,4.2,0,1,0-3.82,5.71,4.22,4.22,0,1,0,5.91.35l16.45-6.46"/><path class="cls-1" d="M76.13,94.33l11.68-4.58a4.15,4.15,0,0,0,.28,1.45,4.19,4.19,0,1,0,3.82-5.71A4.22,4.22,0,1,0,86,85.14L69.84,91.49"/><line class="cls-1" x1="16.51" y1="94.33" x2="16.51" y2="105.43"/><line class="cls-1" x1="16.51" y1="84.4" x2="16.51" y2="87.03"/></svg>