<svg id="Layer_1" data-name="Layer 1" xmlns="http://www.w3.org/2000/svg" viewBox="0 0 128 128"><defs><style>.cls-1{fill:none;stroke:#000;stroke-linecap:round;stroke-linejoin:round;stroke-width:2px;}</style></defs><title>iStar_Design_Medicine_LineIcons_Live-57</title><rect class="cls-1" x="2.48" y="10.47" width="61.16" height="80.85" rx="7.18" ry="7.18"/><path class="cls-1" d="M39,78.6a5.91,5.91,0,1,1-5.9-5.91A5.91,5.91,0,0,1,39,78.6Z"/><line class="cls-1" x1="51.42" y1="66.56" x2="2.48" y2="66.56"/><line class="cls-1" x1="63.64" y1="66.56" x2="57.25" y2="66.56"/><rect class="cls-1" x="10.42" y="20.08" width="31.34" height="37.97" rx="2.27" ry="2.27"/><line class="cls-1" x1="18.41" y1="27.42" x2="18.41" y2="36.87"/><polyline class="cls-1" points="23.17 27.43 27.36 27.43 27.36 32.15 23.17 32.15 23.17 36.87 27.36 36.87"/><rect class="cls-1" x="31.43" y="27.42" width="4.19" height="9.44"/><line class="cls-1" x1="27.36" y1="47.11" x2="23.17" y2="47.11"/><rect class="cls-1" x="23.17" y="42.39" width="4.19" height="9.44"/><rect class="cls-1" x="31.43" y="42.39" width="4.19" height="9.44"/><line class="cls-1" x1="49.66" y1="29.51" x2="55.69" y2="29.51"/><line class="cls-1" x1="49.66" y1="34.3" x2="55.69" y2="34.3"/><line class="cls-1" x1="49.66" y1="44.71" x2="55.69" y2="44.71"/><line class="cls-1" x1="49.66" y1="49.5" x2="55.69" y2="49.5"/><rect class="cls-1" x="74.29" y="33.52" width="51.23" height="40.46"/><path class="cls-1" d="M88.67,33.52a133.64,133.64,0,0,0,0,40.46"/><line class="cls-1" x1="74.26" y1="67.5" x2="87.4" y2="67.5"/><line class="cls-1" x1="74.26" y1="40" x2="87.4" y2="40"/><line class="cls-1" x1="93.14" y1="67.5" x2="125.17" y2="67.5"/><line class="cls-1" x1="115.42" y1="40" x2="125.17" y2="40"/><line class="cls-1" x1="93.14" y1="40" x2="109.92" y2="40"/><path class="cls-1" d="M93.14,40a135.39,135.39,0,0,0,0,27.5"/><path class="cls-1" d="M33.06,91.32v14A12.24,12.24,0,0,0,45.3,117.53H87.19a12.24,12.24,0,0,0,12.24-12.24V74"/></svg>