<svg id="Layer_1" data-name="Layer 1" xmlns="http://www.w3.org/2000/svg" viewBox="0 0 128 128"><defs><style>.cls-1{fill:none;stroke:#000;stroke-linecap:round;stroke-linejoin:round;stroke-width:2px;}</style></defs><title>iStar_Design_Medicine_LineIcons_Live-38</title><path class="cls-1" d="M100.66,62.16A25.8,25.8,0,0,1,97,66.91"/><path class="cls-1" d="M98.47,31.91a26.33,26.33,0,0,1,5.21,22.86"/><circle class="cls-1" cx="78.03" cy="48.59" r="34.22" transform="translate(21.83 121.33) rotate(-84.22)"/><path class="cls-1" d="M73.82,4.82a44,44,0,0,0-33,67.23L4.78,108.13a3.52,3.52,0,0,0,0,5l8.72,8.72a3.52,3.52,0,0,0,5,0L54.57,85.76A44,44,0,1,0,87.29,5.6"/><path class="cls-1" d="M82,4.79c-1.31-.11-2.62-.17-3.93-.17"/><line class="cls-1" x1="12.18" y1="107.25" x2="10.52" y2="108.9"/><line class="cls-1" x1="23.5" y1="95.92" x2="15.96" y2="103.46"/><path class="cls-1" d="M39.13,69.09A43.78,43.78,0,0,0,46.3,79"/><line class="cls-1" x1="44.03" y1="96.3" x2="30.32" y2="82.59"/><line class="cls-1" x1="64.42" y1="43.71" x2="64.42" y2="43.71"/><line class="cls-1" x1="68.46" y1="21.92" x2="68.46" y2="21.92"/><line class="cls-1" x1="95.69" y1="40.13" x2="95.69" y2="40.13"/><line class="cls-1" x1="87.39" y1="66.91" x2="87.39" y2="66.91"/><line class="cls-1" x1="84.25" y1="61.64" x2="84.25" y2="61.64"/><line class="cls-1" x1="56.14" y1="62.36" x2="56.14" y2="62.36"/><path class="cls-1" d="M87.4,34.31H77.85a2.54,2.54,0,0,1-2.53-2.54h0a2.53,2.53,0,0,1,2.53-2.53H87.4a2.54,2.54,0,0,1,2.54,2.53h0A2.54,2.54,0,0,1,87.4,34.31Z"/><path class="cls-1" d="M91.86,46.47l1.36,9.45a2.54,2.54,0,0,1-2.15,2.87h0a2.53,2.53,0,0,1-2.87-2.15l-1.36-9.45A2.54,2.54,0,0,1,89,44.32h0A2.54,2.54,0,0,1,91.86,46.47Z"/><path class="cls-1" d="M76.16,62.05,73.77,71.3a2.54,2.54,0,0,1-3.09,1.82h0A2.54,2.54,0,0,1,68.86,70l2.4-9.25A2.53,2.53,0,0,1,74.34,59h0A2.54,2.54,0,0,1,76.16,62.05Z"/><path class="cls-1" d="M64.38,54l-9.51-.83a2.54,2.54,0,0,1-2.31-2.75h0a2.54,2.54,0,0,1,2.75-2.3l9.51.83a2.53,2.53,0,0,1,2.3,2.75h0A2.53,2.53,0,0,1,64.38,54Z"/><path class="cls-1" d="M55.43,22.91,58,27.32a2.53,2.53,0,1,0,4.39-2.53l-2.87-5"/></svg>