<svg id="Layer_1" data-name="Layer 1" xmlns="http://www.w3.org/2000/svg" viewBox="0 0 128 128"><defs><style>.cls-1{fill:none;stroke:#000;stroke-linecap:round;stroke-linejoin:round;stroke-width:2px;}</style></defs><title>iStar_Design_Medicine_LineIcons_Live-58</title><path class="cls-1" d="M87.26,56.53a12.8,12.8,0,0,0,14.37-1.32l0,0a5.55,5.55,0,0,1,6.2-.72l.87.44"/><path class="cls-1" d="M99.74,56.67a5.12,5.12,0,0,1,4.86,1.87"/><path class="cls-1" d="M108.06,40.7c-10.09-2.75-19-1.29-21.35,4"/><path class="cls-1" d="M66.66,56.53a12.8,12.8,0,0,1-14.37-1.32l0,0a5.55,5.55,0,0,0-6.2-.72l-.87.44"/><path class="cls-1" d="M54.18,56.67a5.12,5.12,0,0,0-4.86,1.87"/><path class="cls-1" d="M67.21,44.75C64.84,39.41,56,38,45.86,40.7"/><path class="cls-1" d="M81,83.55a3.28,3.28,0,0,0-2.78.28,2.46,2.46,0,0,1-1.3.36,2.5,2.5,0,0,1-1.31-.36,3.25,3.25,0,0,0-2.77-.28,11.89,11.89,0,0,0-6.24,5.24,11.93,11.93,0,0,0,20.64,0A11.89,11.89,0,0,0,81,83.55Z"/><path class="cls-1" d="M81.12,75.77a5.89,5.89,0,0,1-8.33,0"/><path class="cls-1" d="M41.25,76.57a28.79,28.79,0,0,1-1.35-8.68V36.15"/><path class="cls-1" d="M114,37.46V67.89a28.63,28.63,0,0,1-9.1,20.94L86.5,106a11.23,11.23,0,0,1-7.68,3H75.1a11.23,11.23,0,0,1-7.68-3L49,88.83"/><path class="cls-1" d="M90.26,17.24S104.4,28,108.21,31a39.72,39.72,0,0,1,10.61,48.65h0"/><path class="cls-1" d="M31.49,82.82c-1.44-1.63-2.88-3.27-4.28-4.94l-.05,0A27,27,0,0,1,42.92,34.66L65,30.1C79.54,27.42,87.57,20.92,92.14,15c2.22-2.9,4.47-9,4.47-9"/><path class="cls-1" d="M36.86,121c4.91.3,9-3.33,10-5,3.79-6.09,1-12.77-4.2-19.92"/><path class="cls-1" d="M99.74,94.73v5.73A37.29,37.29,0,0,0,106.6,122"/><path class="cls-1" d="M21.42,38.8a34.32,34.32,0,0,1,6.27-27.11"/><path class="cls-1" d="M25.28,39.76a36.85,36.85,0,0,1,2.17-7.17"/><path class="cls-1" d="M76.8,15.8a28,28,0,0,1-14,6.69"/><path class="cls-1" d="M82.13,9.1a26.55,26.55,0,0,1-1.95,3"/><path class="cls-1" d="M34.87,103.85c3.15,2.75,5.43,6.26,4.83,10.62"/><path class="cls-1" d="M5,82.29c1,4.42,4,8.69,10.14,11.4l4,1.74"/><path class="cls-1" d="M5,116.68,39.32,82.4l2.13-.71L56.83,66.31l1.27,3.58a6,6,0,0,1-1.42,6.27l-6.36,6.35s-5.82-.65-7.43,7.75L14.41,118.74"/><line class="cls-1" x1="31.55" y1="94.52" x2="34.19" y2="94.61"/><line class="cls-1" x1="28.35" y1="97.71" x2="30.99" y2="97.81"/><line class="cls-1" x1="25.16" y1="100.91" x2="27.8" y2="101"/></svg>