<svg id="Layer_1" data-name="Layer 1" xmlns="http://www.w3.org/2000/svg" viewBox="0 0 128 128"><defs><style>.cls-1{fill:none;stroke:#000;stroke-linecap:round;stroke-linejoin:round;stroke-width:2px;}</style></defs><title>iStar_Design_Medicine_LineIcons_Live-98</title><line class="cls-1" x1="49.58" y1="36.39" x2="56.59" y2="36.39"/><line class="cls-1" x1="49.58" y1="44.86" x2="56.59" y2="44.86"/><line class="cls-1" x1="49.58" y1="53.32" x2="99.36" y2="53.32"/><line class="cls-1" x1="49.58" y1="61.79" x2="99.36" y2="61.79"/><line class="cls-1" x1="49.58" y1="70.26" x2="99.36" y2="70.26"/><line class="cls-1" x1="93.82" y1="78.73" x2="99.36" y2="78.73"/><line class="cls-1" x1="49.58" y1="78.73" x2="86.39" y2="78.73"/><line class="cls-1" x1="49.58" y1="93.19" x2="62.64" y2="93.19"/><line class="cls-1" x1="69.09" y1="93.19" x2="67.29" y2="93.19"/><rect class="cls-1" x="62.64" y="36.39" width="36.72" height="8.27"/><polyline class="cls-1" points="93.82 9.85 93.82 13.7 55.12 13.7 55.12 9.85"/><polyline class="cls-1" points="48.94 8.9 30.14 8.9 30.14 123.32 118.8 123.32 118.8 8.9 100 8.9"/><polygon class="cls-1" points="93.82 96.48 111.44 96.48 93.82 114.1 93.82 96.48"/><rect class="cls-1" x="48.94" y="4.68" width="51.05" height="14.19"/><polyline class="cls-1" points="48.94 13.79 37.5 13.79 37.5 114.1 93.82 114.1"/><polyline class="cls-1" points="111.44 96.48 111.44 13.79 100 13.79 100 13.79"/><line class="cls-1" x1="19.53" y1="25.01" x2="19.53" y2="21.14"/><path class="cls-1" d="M16.11,101.86l3.42,5,3.43-5V28.44A3.43,3.43,0,0,0,19.53,25h0a3.43,3.43,0,0,0-3.42,3.43Z"/><line class="cls-1" x1="16.11" y1="32.51" x2="22.96" y2="32.51"/><path class="cls-1" d="M23,37H14.78a3.67,3.67,0,0,0-3.67,3.67v19.9a7.45,7.45,0,0,1-1.91,5"/><line class="cls-1" x1="16.11" y1="97.85" x2="22.96" y2="97.85"/></svg>