<svg id="Layer_1" data-name="Layer 1" xmlns="http://www.w3.org/2000/svg" viewBox="0 0 128 128"><defs><style>.cls-1{fill:none;stroke:#000;stroke-linecap:round;stroke-linejoin:round;stroke-width:2px;}</style></defs><title>iStar_Design_Medicine_LineIcons_Live-83</title><path class="cls-1" d="M60.51,87.54c-1.78-.94-3.57-1.92-5.36-3C26.41,68,8.42,45.32,15,34s35.19-7.13,63.94,9.47c2.46,1.41,4.84,2.88,7.13,4.38"/><path class="cls-1" d="M72.68,64A5.64,5.64,0,1,1,67,58.36,5.64,5.64,0,0,1,72.68,64Z"/><path class="cls-1" d="M88.13,17.83a5.64,5.64,0,1,1-5.64-5.64A5.64,5.64,0,0,1,88.13,17.83Z"/><path class="cls-1" d="M120.44,73.87a5.64,5.64,0,1,1-5.64-5.64A5.63,5.63,0,0,1,120.44,73.87Z"/><path class="cls-1" d="M84.46,23.11C88.4,33.84,90.81,48.21,90.81,64c0,33.2-10.64,60.11-23.77,60.11S43.27,97.2,43.27,64a137.29,137.29,0,0,1,2.91-28.83"/><path class="cls-1" d="M48.75,25.6C53.11,12.34,59.68,3.89,67,3.89,71.65,3.89,76,7.22,79.61,13"/><path class="cls-1" d="M23.52,77.2a5.65,5.65,0,1,1-5.64-5.64A5.64,5.64,0,0,1,23.52,77.2Z"/><path class="cls-1" d="M109.16,22.34q-.85-.11-1.74-.18"/><path class="cls-1" d="M120.44,26.23a20.34,20.34,0,0,0-5.64-2.7"/><path class="cls-1" d="M8.75,82.74C7,88.25,7.12,93.24,9.44,97.25"/><path class="cls-1" d="M15,82.06c-1.77,4.64-1.89,8.77,0,12,6.57,11.37,35.19,7.13,63.94-9.47S125.66,45.32,119.09,34,83.9,26.82,55.15,43.42C40,52.19,27.76,62.67,20.62,72.27"/><path class="cls-1" d="M117.59,78.77c3.09,6,3.79,11.32,1.5,15.28-5.21,9-24.35,8.22-46.41-.82"/><path class="cls-1" d="M95.52,54.54a102.21,102.21,0,0,1,15.74,14.94"/></svg>