<svg id="Layer_1" data-name="Layer 1" xmlns="http://www.w3.org/2000/svg" viewBox="0 0 128 128"><defs><style>.cls-1{fill:none;stroke:#000;stroke-linecap:round;stroke-linejoin:round;stroke-width:2px;}</style></defs><title>iStar_Design_Medicine_LineIcons_Live-9</title><path class="cls-1" d="M62.15,72H22.55a8.35,8.35,0,0,1-6.89-3.63"/><path class="cls-1" d="M63.64,47.84l38.84-.16,10-16.5,10.83-1-4.16,10.5,5,7.16v3.79L117,58.84l-7.83,1.5-6.67-6.16-40.67,4.5-10.16,5H27.12a50,50,0,0,1-13-1.73l-.68-.18a5.5,5.5,0,0,1-4.08-5.32h0a5.49,5.49,0,0,1,1.41-3.68h0A36.68,36.68,0,0,1,32.86,41l2.12-.3H58.15Z"/><path class="cls-1" d="M117.18,49.61a4.77,4.77,0,1,1-4.76-4.76A4.76,4.76,0,0,1,117.18,49.61Z"/><line class="cls-1" x1="40.1" y1="34.3" x2="3.85" y2="34.3"/><line class="cls-1" x1="85.85" y1="34.3" x2="49.6" y2="34.3"/><line class="cls-1" x1="44.85" y1="40.68" x2="44.85" y2="31.93"/><polyline class="cls-1" points="9.66 55.18 28.35 55.18 40.1 50.05 40.1 40.68"/><line class="cls-1" x1="28.12" y1="41.97" x2="28.12" y2="55.18"/><line class="cls-1" x1="29.68" y1="63.68" x2="29.68" y2="72.01"/><line class="cls-1" x1="51.43" y1="63.68" x2="51.43" y2="72.01"/><line class="cls-1" x1="49.03" y1="50.01" x2="56.11" y2="50.01"/><line class="cls-1" x1="52.57" y1="46.47" x2="52.57" y2="53.55"/><path class="cls-1" d="M90.09,76.18a8.82,8.82,0,0,1,17.31-2.39,5.31,5.31,0,0,1,3.38-1.23,5.38,5.38,0,0,1,5.38,5.38h2.54"/><path class="cls-1" d="M77.65,85a5,5,0,0,1,7.71-4.21,7.61,7.61,0,0,1,14.32.1A5,5,0,1,1,102.54,90H93.6"/><path class="cls-1" d="M11,93.13a4.69,4.69,0,0,1,4.69-4.7,4.64,4.64,0,0,1,2.53.75,7.14,7.14,0,0,1,13.43.1,4.69,4.69,0,1,1,2.68,8.54H22.91"/><line class="cls-1" x1="75.87" y1="63.68" x2="81.92" y2="63.68"/><line class="cls-1" x1="69.45" y1="63.68" x2="71.87" y2="63.68"/><line class="cls-1" x1="73.87" y1="67.7" x2="85.67" y2="67.7"/><line class="cls-1" x1="87.53" y1="90" x2="84.53" y2="90"/></svg>