<svg id="Layer_1" data-name="Layer 1" xmlns="http://www.w3.org/2000/svg" viewBox="0 0 128 128"><defs><style>.cls-1{fill:none;stroke:#000;stroke-linecap:round;stroke-linejoin:round;stroke-width:2px;}</style></defs><title>iStar_Design_Medicine_LineIcons_Live-3</title><path class="cls-1" d="M85.48,43.56a28.33,28.33,0,0,1,6.39,23.92"/><path class="cls-1" d="M39.38,48.37a28.27,28.27,0,0,1,38.44-11"/><path class="cls-1" d="M35.83,61.28a27.93,27.93,0,0,1,.81-5.93"/><path class="cls-1" d="M41.18,78.64a28.32,28.32,0,0,1-5-12"/><polyline class="cls-1" points="75.65 100.41 32.17 100.41 53.23 69.99 74.62 69.99 95.68 100.41 83.05 100.41"/><line class="cls-1" x1="49.17" y1="75.99" x2="74.78" y2="75.99"/><path class="cls-1" d="M46,74.85a20.69,20.69,0,1,1,35.78-.71"/><path class="cls-1" d="M52,70.78a13.62,13.62,0,1,1,23.56-.47"/><polyline class="cls-1" points="32.17 100.41 32.17 108.2 95.68 108.2 95.68 100.41"/><polyline class="cls-1" points="44.29 112.99 95.68 112.99 95.68 108.2"/><polyline class="cls-1" points="36.64 112.99 32.17 112.99 32.17 108.2"/><polyline class="cls-1" points="73.04 112.99 73.04 126.49 54.31 126.49 54.31 112.99"/><path class="cls-1" d="M54.31,119.74H12.94V52.57A51.06,51.06,0,0,1,64,1.51h0a51.06,51.06,0,0,1,51.06,51.06v67.17H73"/><polyline class="cls-1" points="27.74 83.41 19.04 83.41 19.04 91.6 27.74 91.6"/><line class="cls-1" x1="23.39" y1="87.89" x2="27.74" y2="87.89"/><line class="cls-1" x1="107.01" y1="69.2" x2="115.06" y2="69.2"/><line class="cls-1" x1="64" y1="1.51" x2="64" y2="14.11"/><path class="cls-1" d="M40.21,88.24a34.9,34.9,0,1,1,54-9,45.36,45.36,0,0,1-7,8.78"/></svg>