<svg id="Layer_1" data-name="Layer 1" xmlns="http://www.w3.org/2000/svg" viewBox="0 0 128 128"><defs><style>.cls-1{fill:none;stroke:#000;stroke-linecap:round;stroke-linejoin:round;stroke-width:2px;}</style></defs><title>iStar_Design_Medicine_LineIcons_Live-47</title><path class="cls-1" d="M113.13,51.46s-28,2.66-38.66,4.66S54.14,66.79,48.8,66.46s-4.23,3.66-9.61,4.33-14.21-1.33-18,5.67-2.1,8.92-8.58,18.5A40.74,40.74,0,0,0,8,104.62"/><path class="cls-1" d="M42,82.16,41.59,82a10.08,10.08,0,0,1-4.23-3.43,7.81,7.81,0,0,0-4.52-2.84c-3.45-.78-6.9.86-7.77,3.68-1,3.09,1.32,6.49,5,7.57a8.06,8.06,0,0,0,2.94.3,13.82,13.82,0,0,1,6,.63l.32.11c2.25.65,4.51-.51,4.68-2.56A3.54,3.54,0,0,0,42,82.16Z"/><path class="cls-1" d="M43.77,86.47s7.5,3.53,6,14.65"/><path class="cls-1" d="M63.39,38.19c.19-8.63,3.86-19.9,3.86-19.9s5-1.7,6.64,3.56c0,0-3.56,8.35-3.75,15.54"/><path class="cls-1" d="M65.69,83.87S67.63,100.79,78.38,109h.89a7.14,7.14,0,0,0,6.26-3.72h0c-10.25-4.58-13.74-24-13.74-24"/><path class="cls-1" d="M52.83,34.13a52.67,52.67,0,0,0-2.56-15.42s-.25-4.41,5.91-3c0,0,4.31,11.25,3.12,21.32"/><path class="cls-1" d="M52.3,70s1.45,1.59,2.78,3.34a1.88,1.88,0,0,0,3.22-.38,13.67,13.67,0,0,1,4.82-5.84"/><path class="cls-1" d="M67.74,71.71s-7.67,5.64-5.77,19c2,14.27,5.77,19.6,5.77,19.6l-.51.28a10,10,0,0,1-10-.28h0c0-11.21-1.67-21.83-3.84-27.58a24.21,24.21,0,0,0-7.34-9.59"/><path class="cls-1" d="M62,84.91c4.32-1,11.13-3.39,16.15-8.29,8.5-2.5,8.66-6.16,13.33-8.83s23.38-11.67,29-12.17c3.11-.27,3.65-1.7,3.5-2.94a3.49,3.49,0,0,0-1.72-2.54c-3.65-2.2-16.47-9.18-30.13-7.35-2.84-4-18.75-6.67-24.79-4.83s-13-4.17-18.55-5.17-16-3.17-28.66,6.33C9.62,47,7.37,70.41,6.91,78.13q-.17,2.78-.58,5.54c-.88,5.93-2.66,19-2.29,25.26a3.58,3.58,0,0,0,3.58,3.36h0a3.52,3.52,0,0,0,2.48-1,47.38,47.38,0,0,1,18.54-10.67c9.89-3.08,21.06-7.84,26.51-11.85"/><path class="cls-1" d="M39.37,37.75c-4.21.12-9.44,1.4-15.25,5.88"/><path class="cls-1" d="M46.67,38.5c-.75-.14-1.61-.3-2.58-.45"/></svg>