<svg id="Layer_1" data-name="Layer 1" xmlns="http://www.w3.org/2000/svg" viewBox="0 0 128 128"><defs><style>.cls-1{fill:none;stroke:#000;stroke-linecap:round;stroke-linejoin:round;stroke-width:2px;}</style></defs><title>iStar_Design_Medicine_LineIcons_Live-19</title><path class="cls-1" d="M90.42,57.52c0-8.85-6.74-16-15-16-7,0-12.81,5-14.53,11.87A15.23,15.23,0,0,0,46.31,41.5c-8.31,0-15,7.17-15,16,0,0,.09,1.74.1,1.87,1.26,13.87,29.47,31.32,29.47,31.32S89.06,73.26,90.31,59.39c0-.13.07-.89.08-1.09C90.41,57.92,90.42,57.53,90.42,57.52Z"/><path class="cls-1" d="M97.93,55.5H102a2.2,2.2,0,0,1,2.2,2.2V70.3a2.2,2.2,0,0,1-2.2,2.2H97.93"/><line class="cls-1" x1="49.33" y1="28.34" x2="68.94" y2="28.34"/><line class="cls-1" x1="38.83" y1="28.34" x2="44.33" y2="28.34"/><path class="cls-1" d="M93.59,88.93A10.76,10.76,0,0,1,82.86,99.66"/><rect class="cls-1" x="23.76" y="23.61" width="74.18" height="80.78" rx="11.25" ry="11.25"/><path class="cls-1" d="M35.52,23.61c3.3,0,5-6.73,5-10V12.53a8.89,8.89,0,0,1,8.88-8.89h23a8.89,8.89,0,0,1,8.89,8.89v2c0,3.3,1.66,9,5,9"/><path class="cls-1" d="M86.17,104.39c-3.3,0-5,6.73-5,10v1.06a8.89,8.89,0,0,1-8.89,8.89h-23a8.89,8.89,0,0,1-8.88-8.89v-2c0-3.3-1.66-9-5-9"/><polyline class="cls-1" points="42.56 66.11 48.53 66.11 52.03 56.55 57.82 77.63 62.1 65.05 65.98 65.05 71.11 52.37 75.98 65.05 78.88 65.05"/></svg>