<svg id="Layer_1" data-name="Layer 1" xmlns="http://www.w3.org/2000/svg" viewBox="0 0 128 128"><defs><style>.cls-1{fill:none;stroke:#000;stroke-linecap:round;stroke-linejoin:round;stroke-width:2px;}</style></defs><title>iStar_Design_Medicine_LineIcons_Live-6</title><line class="cls-1" x1="112.96" y1="88.68" x2="97.33" y2="88.68"/><line class="cls-1" x1="112.96" y1="118.57" x2="97.33" y2="118.57"/><path class="cls-1" d="M109.46,80.39a5.24,5.24,0,0,1-1.07-6.23,18.2,18.2,0,0,0,1.75-4.25c.7-4.44-2.3-17.26-5-17.26s-5.69,12.82-5,17.26a18.2,18.2,0,0,0,1.75,4.25,5.24,5.24,0,0,1-1.08,6.23l-2.07,1.93a4.46,4.46,0,0,0-1.42,3.27v35.85a4.1,4.1,0,0,0,4.09,4.1h7.44a4.11,4.11,0,0,0,4.1-4.1V85.59a4.5,4.5,0,0,0-1.42-3.27Z"/><line class="cls-1" x1="112.96" y1="93.05" x2="108.54" y2="93.05"/><line class="cls-1" x1="112.96" y1="97.73" x2="108.54" y2="97.73"/><line class="cls-1" x1="112.96" y1="102.41" x2="108.54" y2="102.41"/><line class="cls-1" x1="112.96" y1="107.08" x2="108.54" y2="107.08"/><line class="cls-1" x1="112.96" y1="111.76" x2="108.54" y2="111.76"/><line class="cls-1" x1="57.1" y1="100.64" x2="85.56" y2="100.64"/><line class="cls-1" x1="62.28" y1="125.86" x2="80.38" y2="125.86"/><path class="cls-1" d="M81.47,100.64V48.13a50,50,0,0,0-20.29,0v52.51"/><polyline class="cls-1" points="75.27 125.86 75.27 106.71 78.87 104.66 78.87 100.64"/><polyline class="cls-1" points="63.78 100.64 63.78 104.66 67.38 106.71 67.38 125.86"/><line class="cls-1" x1="71.33" y1="100.64" x2="71.33" y2="125.86"/><line class="cls-1" x1="71.33" y1="2.14" x2="71.33" y2="31.66"/><line class="cls-1" x1="70.11" y1="55.4" x2="72.54" y2="55.4"/><line class="cls-1" x1="70.11" y1="60.05" x2="72.54" y2="60.05"/><line class="cls-1" x1="68.04" y1="64.69" x2="74.61" y2="64.69"/><line class="cls-1" x1="70.11" y1="69.34" x2="72.54" y2="69.34"/><line class="cls-1" x1="70.11" y1="73.98" x2="72.54" y2="73.98"/><line class="cls-1" x1="68.04" y1="78.63" x2="74.61" y2="78.63"/><line class="cls-1" x1="70.11" y1="83.28" x2="72.54" y2="83.28"/><line class="cls-1" x1="70.11" y1="87.92" x2="72.54" y2="87.92"/><line class="cls-1" x1="68.04" y1="92.57" x2="74.61" y2="92.57"/><polygon class="cls-1" points="67.5 42.71 68.83 31.66 73.83 31.66 75.15 42.71 67.5 42.71"/><line class="cls-1" x1="69.08" y1="42.71" x2="69.08" y2="47.11"/><line class="cls-1" x1="73.58" y1="42.71" x2="73.58" y2="47.11"/><line class="cls-1" x1="41" y1="99.11" x2="41" y2="111.14"/><line class="cls-1" x1="41" y1="115.81" x2="41" y2="118.18"/><line class="cls-1" x1="41.93" y1="67.74" x2="19.22" y2="67.74"/><rect class="cls-1" x="19.75" y="55.75" width="21.65" height="8.41"/><path class="cls-1" d="M22.34,64.16v8.33a3,3,0,0,1-.89,2.13l-4.2,4.15A7.41,7.41,0,0,0,15,84v38.3a3.18,3.18,0,0,0,3.18,3.18h24.7a3.18,3.18,0,0,0,3.18-3.18V84a7.41,7.41,0,0,0-2.21-5.27l-4.2-4.15a3,3,0,0,1-.89-2.13V64.16"/><line class="cls-1" x1="41.39" y1="59.51" x2="34.35" y2="59.51"/><path class="cls-1" d="M46.1,91.24a19,19,0,0,0-2.33,1.21,12,12,0,0,1-12.43,0A19.46,19.46,0,0,0,16,90.38"/><line class="cls-1" x1="30.57" y1="117" x2="21.75" y2="117"/><line class="cls-1" x1="30.57" y1="111.76" x2="21.75" y2="111.76"/></svg>