<svg id="Layer_1" data-name="Layer 1" xmlns="http://www.w3.org/2000/svg" viewBox="0 0 128 128"><defs><style>.cls-1{fill:none;stroke:#000;stroke-linecap:round;stroke-linejoin:round;stroke-width:2px;}</style></defs><title>iStar_Design_Medicine_LineIcons_Live-35</title><path class="cls-1" d="M55.41,47.86c5.88-15.52,21.94-27,38.14-29.32a31.29,31.29,0,0,1,3.75-.34"/><path class="cls-1" d="M27.17,83.11C31.12,72,42.43,69.37,50.12,62c2.63-2.5,3.5-6.5,3.47-9"/><path class="cls-1" d="M93.39,104.14a23.76,23.76,0,0,1-2.88,5.43"/><path class="cls-1" d="M93.5,76.64a52.8,52.8,0,0,1,1.69,19.77"/><line class="cls-1" x1="29.27" y1="53.69" x2="29.27" y2="23.24"/><path class="cls-1" d="M35.12,55.54s-4.86,7.05-4.37,12.26"/><path class="cls-1" d="M62.23,35.21h0a3.78,3.78,0,0,1-3.72-4.49c.92-4.76,3.28-11.6,9.19-11.6,4.88,0,8,5.76,8,5.76"/><path class="cls-1" d="M38,70.66c3.6,1.14,5.11,3.9,7.36,6.92,3.72,5,5.27,10.4,11.85,12.47"/><path class="cls-1" d="M53,88s2,5.21,3.16,8.52"/><path class="cls-1" d="M47.09,80.12s6.28,3.23,12.57.26"/><path class="cls-1" d="M76.63,82.72c.64,7.35.47,18.5-5.6,23.86"/><path class="cls-1" d="M79.84,59.94C73,62.91,74.63,71.53,76,77.79"/><line class="cls-1" x1="74.77" y1="68.87" x2="70.51" y2="74.51"/><line class="cls-1" x1="76.88" y1="89.58" x2="82.86" y2="94.79"/><path class="cls-1" d="M37.85,43.93a46.73,46.73,0,0,1,7.25-5.22S47.6,6.53,66.56,6.53c14,0,19.11,13.25,19.11,13.25"/><path class="cls-1" d="M87.52,33V48c18,18.46,18.46,67.36,0,72.85-13.94,4.14-36.4-11.9-46.58-20A46.86,46.86,0,0,1,28.39,85.7c-8.73-17-1.92-29.93,5.46-37.91"/><line class="cls-1" x1="37.85" y1="34.04" x2="37.85" y2="43.94"/><line class="cls-1" x1="37.85" y1="25.24" x2="37.85" y2="28.66"/><path class="cls-1" d="M61.12,91s2,.25,3.25.25"/><path class="cls-1" d="M94.2,30.48S74,33.59,74,52.94C74,60.67,98.13,67.8,98.13,67.8"/><path class="cls-1" d="M98.64,29.79a21.51,21.51,0,0,1,5.07-1.13"/></svg>