<svg id="Layer_1" data-name="Layer 1" xmlns="http://www.w3.org/2000/svg" viewBox="0 0 128 128"><defs><style>.cls-1{fill:none;stroke:#000;stroke-linecap:round;stroke-linejoin:round;stroke-width:2px;}</style></defs><title>iStar_Design_Medicine_LineIcons_Live-24</title><line class="cls-1" x1="94.25" y1="93.84" x2="99.97" y2="93.84"/><line class="cls-1" x1="94.25" y1="98.92" x2="99.97" y2="98.92"/><line class="cls-1" x1="20.78" y1="88.4" x2="26.5" y2="88.4"/><line class="cls-1" x1="20.78" y1="93.47" x2="26.5" y2="93.47"/><line class="cls-1" x1="46.74" y1="93.84" x2="62.11" y2="93.84"/><line class="cls-1" x1="46.74" y1="52.28" x2="99.97" y2="52.28"/><line class="cls-1" x1="46.74" y1="61.43" x2="99.97" y2="61.43"/><line class="cls-1" x1="46.74" y1="70.58" x2="99.97" y2="70.58"/><line class="cls-1" x1="85.88" y1="78.78" x2="99.97" y2="78.78"/><polygon class="cls-1" points="99.97 21.09 119 21.09 99.97 2.06 99.97 21.09"/><polyline class="cls-1" points="82.43 122.18 119 122.18 119 21.09"/><line class="cls-1" x1="36.46" y1="122.18" x2="45.38" y2="122.18"/><polyline class="cls-1" points="99.97 2.06 28.76 2.06 28.76 39.7"/><line class="cls-1" x1="44.68" y1="30.89" x2="44.68" y2="17.66"/><line class="cls-1" x1="43.04" y1="30.89" x2="46.33" y2="30.89"/><line class="cls-1" x1="50.98" y1="37.57" x2="47.69" y2="37.57"/><line class="cls-1" x1="58.9" y1="23.88" x2="49.02" y2="37.57"/><line class="cls-1" x1="57.19" y1="37.57" x2="60.48" y2="37.57"/><line class="cls-1" x1="57.19" y1="23.88" x2="60.48" y2="23.88"/><path class="cls-1" d="M43,16.94h6.23a3.47,3.47,0,0,1,3.48,3.47h0a3.47,3.47,0,0,1-3.48,3.47H44.68"/><line class="cls-1" x1="49.27" y1="23.88" x2="59.15" y2="37.57"/><polyline class="cls-1" points="13.51 62.06 9 62.06 9 51 38.27 51 38.27 62.06 18.39 62.06"/><polyline class="cls-1" points="12.15 51 13.17 45.34 34.1 45.34 35.12 51"/><polyline class="cls-1" points="36.46 62.06 36.46 125.94 10.81 125.94 10.81 62.06"/><line class="cls-1" x1="26.85" y1="71.53" x2="10.81" y2="71.53"/><line class="cls-1" x1="36.46" y1="71.53" x2="32.86" y2="71.53"/><line class="cls-1" x1="36.46" y1="116" x2="10.81" y2="116"/><path class="cls-1" d="M50,117.8H62.55a4.07,4.07,0,0,1,4.07,4.07h0a4.07,4.07,0,0,1-4.07,4.07H50a4.07,4.07,0,0,1-4.07-4.07h0A4.07,4.07,0,0,1,50,117.8Z"/><line class="cls-1" x1="56.25" y1="125.94" x2="56.25" y2="117.8"/><path class="cls-1" d="M67.11,108.3l8.9,8.9A4.07,4.07,0,0,1,76,123h0a4.08,4.08,0,0,1-5.75,0l-8.91-8.91a4.08,4.08,0,0,1,0-5.75h0A4.07,4.07,0,0,1,67.11,108.3Z"/><line class="cls-1" x1="65.81" y1="118.5" x2="71.56" y2="112.75"/></svg>