<svg id="Layer_1" data-name="Layer 1" xmlns="http://www.w3.org/2000/svg" viewBox="0 0 128 128"><defs><style>.cls-1{fill:none;stroke:#000;stroke-linecap:round;stroke-linejoin:round;stroke-width:2px;}</style></defs><title>iStar_Design_Medicine_LineIcons_Live-25</title><line class="cls-1" x1="53.11" y1="84.37" x2="53.11" y2="72.12"/><line class="cls-1" x1="74.69" y1="72.45" x2="74.69" y2="84.37"/><path class="cls-1" d="M53,84.34s-16.49,6.14-26.49,8.75-12.59,21.8-13,29.63"/><path class="cls-1" d="M74.76,84.4s17.41,6.08,27.41,8.69,11.93,22.07,12.37,29.9"/><path class="cls-1" d="M79.87,39.64s-6.24-2.39-5.78-9.09"/><path class="cls-1" d="M47.53,39.51s25.54.68,26.56-8.95"/><path class="cls-1" d="M74.69,77.9s14.61,9.36,25.2-2.08c0,0-4.25-.12-4.25-13.54,0-8.39-1.56-26.66-9.8-38"/><path class="cls-1" d="M53.11,77.81s-14.8,9.08-25.33-1.87c0,0,4.25-.13,4.25-13.55,0-8.78,2.6-26.64,11.34-37.94"/><line class="cls-1" x1="79.47" y1="86.02" x2="76.81" y2="123.86"/><line class="cls-1" x1="49.53" y1="85.59" x2="52.62" y2="123.86"/><path class="cls-1" d="M77.15,94.13a14.58,14.58,0,0,1-25.94-1.45"/><path class="cls-1" d="M43.39,24.29S48.09,17,63.53,17s22.08,7.33,22.08,7.33V8S77.34,2,63.53,2,43.39,8,43.39,8Z"/><line class="cls-1" x1="67.66" y1="9.64" x2="59.68" y2="9.64"/><line class="cls-1" x1="63.67" y1="5.98" x2="63.67" y2="13.3"/><polyline class="cls-1" points="79.47 86.02 91.35 103.53 85.58 109.29 92.56 116.27 82.84 125.99"/><polyline class="cls-1" points="49.53 85.59 38.46 103.53 44.22 109.29 37.24 116.27 46.96 125.99"/><path class="cls-1" d="M79.91,39.68v14C79.91,67.12,74,78,63.89,78S47.5,65.84,47.5,53.66V39.53"/></svg>