<svg id="Layer_1" data-name="Layer 1" xmlns="http://www.w3.org/2000/svg" viewBox="0 0 128 128"><defs><style>.cls-1{fill:none;stroke:#000;stroke-linecap:round;stroke-linejoin:round;stroke-width:2px;}</style></defs><title>iStar_Design_Medicine_LineIcons_Live-53</title><polyline class="cls-1" points="18.11 67.69 18.11 62.2 109.86 62.2 109.86 67.69"/><line class="cls-1" x1="25.78" y1="49.77" x2="102.19" y2="49.77"/><line class="cls-1" x1="21.57" y1="56.01" x2="106.4" y2="56.01"/><polyline class="cls-1" points="124.17 72.47 106 43.69 102.19 43.69"/><polyline class="cls-1" points="3.83 72.47 22 43.69 25.81 43.69"/><polygon class="cls-1" points="83.11 28.13 95.25 28.13 83.11 15.99 83.11 28.13"/><polyline class="cls-1" points="83.11 15.99 32.72 15.99 32.72 49.23"/><line class="cls-1" x1="95.25" y1="49.23" x2="95.25" y2="28.13"/><line class="cls-1" x1="62.37" y1="29.45" x2="73.3" y2="29.45"/><line class="cls-1" x1="62.37" y1="36.71" x2="82.1" y2="36.71"/><polygon class="cls-1" points="86.15 72.54 86.15 79.01 41.85 79.01 41.85 72.54 3.83 72.54 3.83 112.01 124.14 112.01 124.14 72.54 86.15 72.54"/><polyline class="cls-1" points="91.93 88.26 91.93 95.91 36.07 95.91 36.07 88.26"/><line class="cls-1" x1="39.51" y1="88.26" x2="32.72" y2="88.26"/><line class="cls-1" x1="95.33" y1="88.26" x2="88.53" y2="88.26"/><polygon class="cls-1" points="55.01 29.21 50.07 29.21 50.07 24.27 44.86 24.27 44.86 29.21 39.92 29.21 39.92 34.41 44.86 34.41 44.86 39.36 50.07 39.36 50.07 34.41 55.01 34.41 55.01 29.21"/></svg>