<svg id="Layer_1" data-name="Layer 1" xmlns="http://www.w3.org/2000/svg" viewBox="0 0 128 128"><defs><style>.cls-1{fill:none;stroke:#000;stroke-linecap:round;stroke-linejoin:round;stroke-width:2px;}</style></defs><title>iStar_Design_Medicine_LineIcons_Live-62</title><path class="cls-1" d="M45.42,14.42l1-3.37a4,4,0,0,1,3.87-2.86H74.65a4,4,0,0,1,3.86,2.86l1,3.37"/><path class="cls-1" d="M39.49,14.42l1.78-5.81A7,7,0,0,1,47.93,3.7H77.05A7,7,0,0,1,83.7,8.61l1.79,5.81"/><polyline class="cls-1" points="52.12 80.04 14.97 80.04 14.97 14.42 110 14.42 110 80.04 65.83 80.04"/><line class="cls-1" x1="31.29" y1="65.07" x2="14.97" y2="65.07"/><line class="cls-1" x1="110" y1="65.07" x2="36.56" y2="65.07"/><line class="cls-1" x1="110" y1="52.97" x2="14.97" y2="52.97"/><line class="cls-1" x1="14.97" y1="70" x2="26.92" y2="70"/><line class="cls-1" x1="14.97" y1="74.92" x2="26.92" y2="74.92"/><rect class="cls-1" x="20.95" y="21.23" width="52.44" height="26"/><rect class="cls-1" x="79.68" y="21.23" width="24.32" height="6.76"/><rect class="cls-1" x="79.68" y="32.76" width="24.32" height="14.47"/><circle class="cls-1" cx="23.62" cy="59.02" r="2.41"/><circle class="cls-1" cx="100.87" cy="59.02" r="2.41"/><line class="cls-1" x1="40.12" y1="57" x2="42.24" y2="57"/><line class="cls-1" x1="48.94" y1="57" x2="51.06" y2="57"/><line class="cls-1" x1="40.12" y1="61.04" x2="42.24" y2="61.04"/><line class="cls-1" x1="48.94" y1="61.04" x2="51.06" y2="61.04"/><line class="cls-1" x1="63.71" y1="57" x2="65.83" y2="57"/><line class="cls-1" x1="63.71" y1="61.04" x2="65.83" y2="61.04"/><line class="cls-1" x1="55.23" y1="57" x2="57.35" y2="57"/><line class="cls-1" x1="55.23" y1="61.04" x2="57.35" y2="61.04"/><line class="cls-1" x1="73.39" y1="57" x2="75.51" y2="57"/><line class="cls-1" x1="73.39" y1="61.04" x2="75.51" y2="61.04"/><line class="cls-1" x1="79.68" y1="57" x2="81.8" y2="57"/><line class="cls-1" x1="79.68" y1="61.04" x2="81.8" y2="61.04"/><line class="cls-1" x1="86.96" y1="57" x2="89.08" y2="57"/><line class="cls-1" x1="86.96" y1="61.04" x2="89.08" y2="61.04"/><line class="cls-1" x1="63" y1="36.79" x2="65.71" y2="36.79"/><line class="cls-1" x1="27.03" y1="36.79" x2="28.2" y2="36.79"/><polyline class="cls-1" points="31.82 36.79 37.01 36.79 39.09 32.9 43.51 42.78 46.62 36.79 49.83 36.79 52.87 26.5 55.9 36.79 58.97 36.79"/><line class="cls-1" x1="6.43" y1="123.64" x2="6.43" y2="118.97"/><line class="cls-1" x1="41.12" y1="118.97" x2="41.12" y2="123.64"/><rect class="cls-1" x="3.91" y="112.52" width="39.74" height="6.45"/><line class="cls-1" x1="43.64" y1="124.3" x2="3.91" y2="124.3"/><path class="cls-1" d="M9.94,112.52V108.2a2.79,2.79,0,0,1,2.79-2.8H34.82a2.8,2.8,0,0,1,2.8,2.8v4.32"/><line class="cls-1" x1="66.49" y1="123.64" x2="66.49" y2="118.97"/><line class="cls-1" x1="101.19" y1="118.97" x2="101.19" y2="123.64"/><rect class="cls-1" x="63.97" y="112.52" width="39.74" height="6.45"/><line class="cls-1" x1="103.71" y1="124.3" x2="63.97" y2="124.3"/><path class="cls-1" d="M70,112.52V108.2a2.79,2.79,0,0,1,2.79-2.8H94.88a2.8,2.8,0,0,1,2.8,2.8v4.32"/><path class="cls-1" d="M105,115.74h14.34a4.78,4.78,0,0,0,4.77-4.77V77.56a4.78,4.78,0,0,0-4.77-4.78H103"/><rect class="cls-1" x="91.55" y="70.1" width="10.38" height="5.05"/><polygon class="cls-1" points="62.84 72.62 46.71 98.22 56.8 98.22 50.45 115.83 70.72 92.72 57.89 92.72 62.84 72.62"/></svg>