<svg id="Layer_1" data-name="Layer 1" xmlns="http://www.w3.org/2000/svg" viewBox="0 0 128 128"><defs><style>.cls-1{fill:none;stroke:#000;stroke-linecap:round;stroke-linejoin:round;stroke-width:2px;}</style></defs><title>iStar_Design_Medicine_LineIcons_Live-17</title><path class="cls-1" d="M25,72.82a12.32,12.32,0,0,0,12.67-6.31"/><path class="cls-1" d="M39.84,34.9c3.12-.58,7-2.47,7-10A19.53,19.53,0,0,0,27.37,5.74c-7.27,0-14.09,5.88-17,9.85C4.15,24.18,1.48,41.75,2.5,52.32,3.75,65.26,12.89,77,24.38,78.27,39,80,47.68,65.77,41.81,56.84a3.5,3.5,0,0,1,.61-4.52,7.3,7.3,0,0,0,2.4-5.71,10.84,10.84,0,0,0-8.57-9.92"/><path class="cls-1" d="M46.88,24.85s12,5.88,13.57,18.22C64.9,78.41,44,88.43,48.57,122.26"/><path class="cls-1" d="M42.82,58.79c5.64-3.32,11.69-1.47,11,4.19-2.63,22-14.57,26.72-11,59.28"/><path class="cls-1" d="M45.9,31.12s5.25,3.78,6.19,7.55c-3.54-2.25-12.25-3.77-12.25-3.77"/><path class="cls-1" d="M44,43.15c5.37,1.17,8.87,6.16,8.87,6.16s-5.58-.75-8.91,1"/><path class="cls-1" d="M20.32,13.09a16.54,16.54,0,0,1,13.31-1"/><path class="cls-1" d="M14.42,20a12,12,0,0,1,2.67-4.43"/><path class="cls-1" d="M88.16,34.9c-3.12-.58-7-2.47-7-10A19.53,19.53,0,0,1,100.63,5.74c7.27,0,14.09,5.88,17,9.85,6.24,8.59,8.91,26.16,7.89,36.73C124.25,65.26,115.11,77,103.62,78.27,89,80,80.32,65.77,86.19,56.84a3.5,3.5,0,0,0-.61-4.52,7.3,7.3,0,0,1-2.4-5.71,10.84,10.84,0,0,1,8.57-9.92"/><path class="cls-1" d="M81.12,24.85s-12,5.88-13.57,18.22C63.1,78.41,84,88.43,79.43,122.26"/><path class="cls-1" d="M85.18,58.79c-5.64-3.32-11.69-1.47-11,4.19,2.63,22,14.57,26.72,11,59.28"/><path class="cls-1" d="M82.1,31.12s-5.25,3.78-6.19,7.55c3.54-2.25,12.25-3.77,12.25-3.77"/><path class="cls-1" d="M84,43.15c-5.37,1.17-8.87,6.16-8.87,6.16s5.58-.75,8.91,1"/><path class="cls-1" d="M118.68,59.9a26.35,26.35,0,0,1-4.79,7.35,19,19,0,0,1-11.6,6.2"/><path class="cls-1" d="M120.92,51.37a26.52,26.52,0,0,1-.56,3.44"/></svg>