<svg id="Layer_1" data-name="Layer 1" xmlns="http://www.w3.org/2000/svg" viewBox="0 0 128 128"><defs><style>.cls-1{fill:none;stroke:#000;stroke-linecap:round;stroke-linejoin:round;stroke-width:2px;}</style></defs><title>iStar_Design_Medicine_LineIcons_Live-76</title><rect class="cls-1" x="43.5" y="45.61" width="41" height="36.78" rx="6.91" ry="6.91" transform="translate(64 154.51) rotate(-135)"/><line class="cls-1" x1="54.67" y1="63.2" x2="54.67" y2="63.2"/><line class="cls-1" x1="59.73" y1="68.27" x2="59.73" y2="68.27"/><line class="cls-1" x1="64.8" y1="73.33" x2="64.8" y2="73.33"/><line class="cls-1" x1="58.94" y1="58.94" x2="58.94" y2="58.94"/><line class="cls-1" x1="63.2" y1="54.67" x2="63.2" y2="54.67"/><line class="cls-1" x1="64" y1="64" x2="64" y2="64"/><line class="cls-1" x1="69.06" y1="69.06" x2="69.06" y2="69.06"/><line class="cls-1" x1="68.27" y1="59.73" x2="68.27" y2="59.73"/><line class="cls-1" x1="73.33" y1="64.8" x2="73.33" y2="64.8"/><line class="cls-1" x1="45.78" y1="104.1" x2="45.78" y2="104.1"/><line class="cls-1" x1="38.6" y1="96.91" x2="38.6" y2="96.91"/><line class="cls-1" x1="23.9" y1="82.22" x2="23.9" y2="82.22"/><line class="cls-1" x1="31.42" y1="89.73" x2="31.42" y2="89.73"/><line class="cls-1" x1="32" y1="103.51" x2="32" y2="103.51"/><line class="cls-1" x1="24.82" y1="96.33" x2="24.82" y2="96.33"/><line class="cls-1" x1="103.51" y1="32" x2="103.51" y2="32"/><line class="cls-1" x1="96.33" y1="24.82" x2="96.33" y2="24.82"/><line class="cls-1" x1="104.1" y1="45.78" x2="104.1" y2="45.78"/><line class="cls-1" x1="96.91" y1="38.6" x2="96.91" y2="38.6"/><line class="cls-1" x1="82.22" y1="23.9" x2="82.22" y2="23.9"/><line class="cls-1" x1="89.73" y1="31.42" x2="89.73" y2="31.42"/><line class="cls-1" x1="97.5" y1="75.62" x2="97.5" y2="75.62"/><line class="cls-1" x1="90.32" y1="82.8" x2="90.32" y2="82.8"/><line class="cls-1" x1="75.62" y1="97.5" x2="75.62" y2="97.5"/><line class="cls-1" x1="83.13" y1="89.99" x2="83.13" y2="89.99"/><line class="cls-1" x1="104.1" y1="82.22" x2="104.1" y2="82.22"/><line class="cls-1" x1="96.91" y1="89.4" x2="96.91" y2="89.4"/><line class="cls-1" x1="82.22" y1="104.1" x2="82.22" y2="104.1"/><line class="cls-1" x1="89.73" y1="96.58" x2="89.73" y2="96.58"/><line class="cls-1" x1="103.51" y1="96" x2="103.51" y2="96"/><line class="cls-1" x1="96.33" y1="103.18" x2="96.33" y2="103.18"/><line class="cls-1" x1="32" y1="24.49" x2="32" y2="24.49"/><line class="cls-1" x1="24.82" y1="31.67" x2="24.82" y2="31.67"/><line class="cls-1" x1="45.78" y1="23.9" x2="45.78" y2="23.9"/><line class="cls-1" x1="38.6" y1="31.09" x2="38.6" y2="31.09"/><line class="cls-1" x1="23.9" y1="45.78" x2="23.9" y2="45.78"/><line class="cls-1" x1="31.42" y1="38.27" x2="31.42" y2="38.27"/><line class="cls-1" x1="52.38" y1="30.5" x2="52.38" y2="30.5"/><line class="cls-1" x1="30.5" y1="52.38" x2="30.5" y2="52.38"/><line class="cls-1" x1="45.2" y1="37.68" x2="45.2" y2="37.68"/><line class="cls-1" x1="38.01" y1="44.87" x2="38.01" y2="44.87"/><rect class="cls-1" x="2.35" y="38.29" width="123.3" height="51.42" rx="6.02" ry="6.02" transform="translate(64 154.51) rotate(-135)"/><path class="cls-1" d="M59.49,104.87,43.11,121.25a6.4,6.4,0,0,1-9,0L6.75,93.94a6.4,6.4,0,0,1,0-9L23.13,68.51"/><path class="cls-1" d="M79.92,11.73,85.16,17a6,6,0,0,0,8.52,0l5.24-5.24"/><path class="cls-1" d="M104.87,59.49l16.38-16.38a6.4,6.4,0,0,0,0-9L98.91,11.73h-19l-11.4,11.4"/></svg>