<svg id="Layer_1" data-name="Layer 1" xmlns="http://www.w3.org/2000/svg" viewBox="0 0 128 128"><defs><style>.cls-1{fill:none;stroke:#000;stroke-linecap:round;stroke-linejoin:round;stroke-width:2px;}</style></defs><title>Artboard 1</title><rect class="cls-1" x="2.67" y="4.98" width="122.67" height="118.03" rx="12" ry="12"/><line class="cls-1" x1="27.26" y1="80.51" x2="100.74" y2="80.51"/><line class="cls-1" x1="42.24" y1="90.51" x2="85.76" y2="90.51"/><line class="cls-1" x1="27.26" y1="70.52" x2="100.74" y2="70.52"/><circle class="cls-1" cx="64" cy="107.68" r="8.76"/><path class="cls-1" d="M67.93,107.67A3.93,3.93,0,1,1,64,103.75h0A3.93,3.93,0,0,1,67.93,107.67Z"/><path class="cls-1" d="M35.22,47.55H31.4a2.68,2.68,0,0,1-2.69-2.69V20.4a2.7,2.7,0,0,1,2.69-2.7H96.6a2.7,2.7,0,0,1,2.69,2.7V44.86a2.68,2.68,0,0,1-2.69,2.69H41.09"/><line class="cls-1" x1="83.55" y1="25.96" x2="92.03" y2="25.96"/><line class="cls-1" x1="83.55" y1="34.85" x2="92.03" y2="34.85"/><line class="cls-1" x1="83.55" y1="30.41" x2="92.03" y2="30.41"/><line class="cls-1" x1="83.55" y1="39.29" x2="87.84" y2="39.29"/><line class="cls-1" x1="40.16" y1="32.63" x2="46.77" y2="32.63"/><rect class="cls-1" x="40.16" y="25.69" width="7.11" height="13.88"/><polyline class="cls-1" points="52.66 25.69 59.78 25.69 59.78 39.57"/><rect class="cls-1" x="68.88" y="25.69" width="7.11" height="13.88"/><line class="cls-1" x1="64.11" y1="39.57" x2="64.11" y2="39.57"/><line class="cls-1" x1="119.16" y1="19.46" x2="119.16" y2="34.6"/><line class="cls-1" x1="119.16" y1="41.03" x2="119.16" y2="44.21"/></svg>