<svg id="Layer_1" data-name="Layer 1" xmlns="http://www.w3.org/2000/svg" viewBox="0 0 128 128"><defs><style>.cls-1{fill:none;stroke:#000;stroke-linecap:round;stroke-linejoin:round;stroke-width:2px;}</style></defs><title>iStar_Design_Medicine_LineIcons_Live-86</title><path class="cls-1" d="M46.79,37.54C31.22,56.12,35.65,86,35.36,90.54,35.12,94.18,33,97.28,31.85,99a10.47,10.47,0,0,0-2.27,5.84,8.62,8.62,0,0,0,17.09,1.62c.66-3.62-1.76-6.1-3.63-8.76-3.25-4.6-3.59-11.19-3.25-21.19"/><path class="cls-1" d="M125,85.8h-22.2A5.17,5.17,0,0,0,97.59,91v.24A5,5,0,0,0,99,94.77a14.09,14.09,0,0,1,4.2,10.09,14.19,14.19,0,0,1-28.38,0,14.09,14.09,0,0,1,4-9.88,5.39,5.39,0,0,0,1.6-3.74V91a5.17,5.17,0,0,0-5.16-5.17H51.9A5.17,5.17,0,0,0,46.73,91v.24a5,5,0,0,0,1.43,3.56,14.14,14.14,0,0,1,4.21,10.09A14.33,14.33,0,0,1,38.74,119,14.17,14.17,0,0,1,28,95a5.4,5.4,0,0,0,1.61-3.74V91a5.17,5.17,0,0,0-5.17-5.17H3.05"/><path class="cls-1" d="M111.73,9C92.5,23.72,90.32,53.8,89,58.21c-1,3.51-3.74,6.07-5.27,7.52a10.42,10.42,0,0,0-3.49,5.2,8.62,8.62,0,0,0,16.33,5.3C98,72.85,96.22,69.9,95,66.9c-2.17-5.2-1.07-11.71,1.45-21.39"/></svg>