<svg id="Layer_1" data-name="Layer 1" xmlns="http://www.w3.org/2000/svg" viewBox="0 0 128 128"><defs><style>.cls-1{fill:none;stroke:#000;stroke-linecap:round;stroke-linejoin:round;stroke-width:2px;}</style></defs><title>iStar_Design_Medicine_LineIcons_Live-87</title><path class="cls-1" d="M23.5,48c2.56,5.69,10.92,9.17,17,10.05"/><polyline class="cls-1" points="52.35 86.41 52.35 111.66 38.13 126.02 73.11 126.02 63.4 115.57"/><path class="cls-1" d="M58.77,111.59l-.26-31.25S57.84,67.7,75.83,62.56,96.11,41.42,96.11,41.42H13.57s2.28,16,20.27,21.14,19.1,17.78,19.1,17.78"/><path class="cls-1" d="M45.89,17.16a3.16,3.16,0,0,1-4.46,0"/><path class="cls-1" d="M45.89,21.62a3.16,3.16,0,0,1,0-4.46"/><path class="cls-1" d="M70.47,2.33A34.36,34.36,0,0,1,75,2a39.44,39.44,0,0,1,0,78.88H45.22a9.38,9.38,0,1,0,0,18.75H75.83"/><path class="cls-1" d="M70.76,2.29c.36,0-.71.11-1.07.21-4.34,1.18-10.37,7.75-12.53,10.24A16.88,16.88,0,0,1,54,15.61c-3.46,2.33-7.06,2.8-8.18,1.4-1.38-1.73,1.09-6,5.52-9.56a20.36,20.36,0,0,1,8.55-4A71.83,71.83,0,0,1,70.76,2.29Z"/><line class="cls-1" x1="79.52" y1="46.47" x2="69.92" y2="46.47"/><line class="cls-1" x1="87.04" y1="46.47" x2="84.32" y2="46.47"/><line class="cls-1" x1="69.92" y1="122.59" x2="52.68" y2="122.59"/></svg>