<svg id="Layer_1" data-name="Layer 1" xmlns="http://www.w3.org/2000/svg" viewBox="0 0 128 128"><defs><style>.cls-1{fill:none;stroke:#000;stroke-linecap:round;stroke-linejoin:round;stroke-width:2px;}</style></defs><title>iStar_Design_Medicine_LineIcons_Live-49</title><path class="cls-1" d="M118.36,68.11H9.64A7.65,7.65,0,0,1,2,60.49H2a7.65,7.65,0,0,1,7.63-7.63H118.36A7.65,7.65,0,0,1,126,60.49h0A7.65,7.65,0,0,1,118.36,68.11Z"/><polyline class="cls-1" points="23.45 68.11 23.45 105.03 16.48 105.03 16.48 68.11"/><polyline class="cls-1" points="111.52 68.11 111.52 105.03 104.55 105.03 104.55 68.11"/><line class="cls-1" x1="23.45" y1="90.9" x2="64" y2="68.11"/><line class="cls-1" x1="104.55" y1="90.9" x2="64" y2="68.11"/><line class="cls-1" x1="13.27" y1="58.24" x2="28.73" y2="58.24"/><line class="cls-1" x1="34.79" y1="58.24" x2="37.85" y2="58.24"/><path class="cls-1" d="M115.32,33.26H87a5.17,5.17,0,0,1-5.15-5.15h0A5.17,5.17,0,0,1,87,23h25.36a4.58,4.58,0,0,1,.53,0c3.16.33,2.79,5.12-.39,5.12H88.06"/><path class="cls-1" d="M74.49,47.79H46.13A5.17,5.17,0,0,1,41,42.64h0a5.17,5.17,0,0,1,5.15-5.15H71.49a4.58,4.58,0,0,1,.53,0c3.16.32,2.79,5.12-.39,5.12H47.23"/><path class="cls-1" d="M81.81,47.79h28.37a5.16,5.16,0,0,0,5.14-5.15h0a5.16,5.16,0,0,0-5.14-5.15H84.81a4.41,4.41,0,0,0-.52,0c-3.17.32-2.79,5.12.39,5.12h24.39"/></svg>