<svg id="Layer_1" data-name="Layer 1" xmlns="http://www.w3.org/2000/svg" viewBox="0 0 128 128"><defs><style>.cls-1{fill:none;stroke:#000;stroke-linecap:round;stroke-linejoin:round;stroke-width:2px;}</style></defs><title>iStar_Design_Medicine_LineIcons_Live-63</title><line class="cls-1" x1="11.82" y1="53.41" x2="6.53" y2="52.37"/><path class="cls-1" d="M52.78,53c5.81,15-6.15,33.39-21.68,33.39-12.8,0-23.18-12.47-23.18-25.27,0-15.81,15.83-23.15,32.5-18.83A17.93,17.93,0,0,1,52.78,53Z"/><path class="cls-1" d="M10.87,75.1,3.68,81a3.37,3.37,0,0,0-.45,4.72h0A3.36,3.36,0,0,0,8,86.2L15,80.38"/><line class="cls-1" x1="116.18" y1="53.41" x2="121.47" y2="52.37"/><path class="cls-1" d="M75.22,53C69.41,68,81.37,86.35,96.9,86.35c12.8,0,23.18-12.47,23.18-25.27,0-15.81-15.83-23.15-32.5-18.83A17.93,17.93,0,0,0,75.22,53Z"/><path class="cls-1" d="M117.13,75.1,124.32,81a3.37,3.37,0,0,1,.45,4.72h0a3.36,3.36,0,0,1-4.72.44l-7-5.82"/><path class="cls-1" d="M75.53,52.24A19.79,19.79,0,0,0,64,48.82a19.79,19.79,0,0,0-11.53,3.42"/><line class="cls-1" x1="32.08" y1="52.6" x2="19.87" y2="64.81"/><line class="cls-1" x1="25.97" y1="51.48" x2="20.81" y2="56.64"/><line class="cls-1" x1="45.79" y1="65.38" x2="40.62" y2="70.55"/><line class="cls-1" x1="107.91" y1="65.42" x2="99.64" y2="73.69"/><line class="cls-1" x1="107.76" y1="72.56" x2="104.26" y2="76.06"/></svg>