<svg id="Layer_1" data-name="Layer 1" xmlns="http://www.w3.org/2000/svg" viewBox="0 0 128 128"><defs><style>.cls-1{fill:none;stroke:#000;stroke-linecap:round;stroke-linejoin:round;stroke-width:2px;}</style></defs><title>iStar_Design_Medicine_LineIcons_Live-66</title><line class="cls-1" x1="57.92" y1="40.04" x2="57.92" y2="106.32"/><path class="cls-1" d="M59.94,40H44V32.39A3.42,3.42,0,0,1,47.46,29H68.39a3.42,3.42,0,0,1,3.42,3.42V40H65.17"/><path class="cls-1" d="M47.43,29V16.79a3.42,3.42,0,0,1,3.42-3.42H65a3.43,3.43,0,0,1,3.43,3.42V29"/><path class="cls-1" d="M48.24,40A18.94,18.94,0,0,0,39,56.33v53.5a4.8,4.8,0,0,0,4.81,4.8H72.09a4.81,4.81,0,0,0,4.81-4.8V56.33A19,19,0,0,0,67.61,40"/><rect class="cls-1" x="112.69" y="17.02" width="12.28" height="8.3"/><line class="cls-1" x1="112.69" y1="23.29" x2="68.42" y2="23.29"/><line class="cls-1" x1="68.42" y1="19.04" x2="112.69" y2="19.04"/><path class="cls-1" d="M76.7,61.72a22.24,22.24,0,0,0-2.83,1.46,14.55,14.55,0,0,1-15.06,0,23.66,23.66,0,0,0-18.65-2.51"/><line class="cls-1" x1="44.04" y1="69.79" x2="44.04" y2="82.69"/><line class="cls-1" x1="44.04" y1="88.07" x2="44.04" y2="93.06"/><path class="cls-1" d="M9.89,70.94h14a3.63,3.63,0,0,1,3.63,3.63v6.17a0,0,0,0,1,0,0H6.26a0,0,0,0,1,0,0V74.57A3.63,3.63,0,0,1,9.89,70.94Z"/><path class="cls-1" d="M9.75,80.73l-3.94,3.6A8.56,8.56,0,0,0,3,90.64v19.58a4.4,4.4,0,0,0,4.41,4.41H26.38a4.4,4.4,0,0,0,4.41-4.41V90.64A8.56,8.56,0,0,0,28,84.33l-3.94-3.6"/><path class="cls-1" d="M12.9,70.94l2.18-49a1.83,1.83,0,0,1,1.83-1.75h0a1.83,1.83,0,0,1,1.83,1.75l2.18,49"/><line class="cls-1" x1="6.26" y1="66.18" x2="27.56" y2="66.18"/><line class="cls-1" x1="30.79" y1="91.77" x2="3.03" y2="91.77"/><line class="cls-1" x1="30.79" y1="108.17" x2="3.03" y2="108.17"/><line class="cls-1" x1="12.9" y1="102.7" x2="20.92" y2="102.7"/><line class="cls-1" x1="12.9" y1="97.24" x2="20.92" y2="97.24"/><line class="cls-1" x1="93.61" y1="114.63" x2="70" y2="114.63"/><line class="cls-1" x1="106.95" y1="114.63" x2="99.2" y2="114.63"/><line class="cls-1" x1="33.43" y1="114.63" x2="25.68" y2="114.63"/></svg>