<svg id="Layer_1" data-name="Layer 1" xmlns="http://www.w3.org/2000/svg" viewBox="0 0 128 128"><defs><style>.cls-1{fill:none;stroke:#000;stroke-linecap:round;stroke-linejoin:round;stroke-width:2px;}</style></defs><title>iStar_Design_Medicine_LineIcons_Live-70</title><path class="cls-1" d="M39.68,112.7A15.81,15.81,0,0,1,23.87,96.9v-34h89.52v34a15.8,15.8,0,0,1-15.8,15.8Z"/><path class="cls-1" d="M105.63,102.11a11,11,0,0,1-9.51,5.48"/><path class="cls-1" d="M30.86,30.78c6.5-4.83,9.31-11.9,6.33-17C34.65,9.48,31.37,9,29.81,2c-5.1,4-10.42,10.75-9.57,16.58a16.88,16.88,0,0,0,5.49,9.63"/><path class="cls-1" d="M35.2,39.65s-8-7.35-6.52-23.11"/><path class="cls-1" d="M32.18,55.43c-6.69,4.56-14.29,4.92-18.12.44-3.26-3.81-2.69-7.08-8.73-10.82,5.42-3.52,13.56-6.34,18.79-3.63a16.87,16.87,0,0,1,7.32,8.32"/><path class="cls-1" d="M39.14,62.43S34.8,52.49,19.42,48.72"/><polyline class="cls-1" points="39.35 112.7 39.35 125.98 97.92 125.98 97.92 112.7"/><line class="cls-1" x1="32.68" y1="70.88" x2="23.87" y2="70.88"/><line class="cls-1" x1="113.39" y1="70.88" x2="40.37" y2="70.88"/><path class="cls-1" d="M101.37,36.92l11.57,8a6.19,6.19,0,0,0,8.62-1.56h0A6.18,6.18,0,0,0,120,34.79l-11.57-8a6.18,6.18,0,0,0-8.62,1.55h0A6.18,6.18,0,0,0,101.37,36.92Z"/><path class="cls-1" d="M114.18,35.1l-1.1-.76"/><path class="cls-1" d="M118.2,40.84h0a2.42,2.42,0,0,0-.61-3.37"/><line class="cls-1" x1="79.91" y1="62.72" x2="100.78" y2="36.42"/><line class="cls-1" x1="113.22" y1="45.12" x2="102.45" y2="62.91"/><line class="cls-1" x1="90.34" y1="121.07" x2="97.92" y2="121.07"/><line class="cls-1" x1="39.35" y1="121.07" x2="83.84" y2="121.07"/><path class="cls-1" d="M71.93,39.44l-2.67-2.92s2.92-7-.27-11.09c-1.33-1.72-4.32-2.48-4.9.16-.29,1.28-.65,3.87-.65,3.87S59.53,20.38,52.88,23c-4.76,1.84-5.31,5.67-5.31,5.67s-3-1.9-4.39.44c-1.82,3.11,3.51,6.33,3.51,6.33s-5.52.93-4.56,4.45,9.73,1.61,9.73,1.61l6,4.77c-.23-.3-5.54,1.12-5.63,4.15-.05,1.79,1.49,3.87,6.84,2.07a21.3,21.3,0,0,1,8.09-1.24L72,53.94a5.72,5.72,0,0,0,4.77.47,4,4,0,0,0,2.56-2.56c1.18-3.54-3-7.16-3-7.16s1.19-4.41.43-6.4C75.71,35.64,73.18,35.56,71.93,39.44Z"/><line class="cls-1" x1="70.49" y1="52.74" x2="73" y2="49.86"/><path class="cls-1" d="M70.41,37.78A14.92,14.92,0,0,0,63,44.85"/><path class="cls-1" d="M54.66,35c1.65-2.21,4.21-5.22,8.39-6.31"/><path class="cls-1" d="M56,44.57a18.42,18.42,0,0,1,3.44-6.08"/><path class="cls-1" d="M51.86,41.45a11.22,11.22,0,0,1,.75-2.81"/></svg>