<svg id="Layer_1" data-name="Layer 1" xmlns="http://www.w3.org/2000/svg" viewBox="0 0 128 128"><defs><style>.cls-1{fill:none;stroke:#000;stroke-linecap:round;stroke-linejoin:round;stroke-width:2px;}</style></defs><title>iStar_Design_Medicine_LineIcons_Live-92</title><path class="cls-1" d="M73.77,124.08V111.46a4,4,0,0,1,1.52-3.14,12.76,12.76,0,0,0,2.65-2.74,12.6,12.6,0,0,0,9,3.28,12.88,12.88,0,0,0,11.11-7.81,12,12,0,0,0,.62-8,12.59,12.59,0,0,0,7.3.26,12.64,12.64,0,0,0,7.09-19.58,10,10,0,0,0,3-15.25,12.66,12.66,0,0,0,5.05-16.89,12.67,12.67,0,0,0-5.8-20.08,13.16,13.16,0,0,0,.1-1.55A12.66,12.66,0,0,0,97,8.69a10.59,10.59,0,0,0-13.53-.17A12.85,12.85,0,0,0,62.84,9.7a10.56,10.56,0,0,0-14.9-.88,12.85,12.85,0,0,0-21.83,2.72A12.65,12.65,0,1,0,9,30a11.81,11.81,0,0,0-5,9.46,11.84,11.84,0,0,0,5.29,9.65C6.08,50.78,4,53.47,4,56.52a7.86,7.86,0,0,0,3.23,6.07,12.13,12.13,0,0,0-.9,4.6A12.33,12.33,0,0,0,18.65,79.52h.23a22.29,22.29,0,0,0,4.34,4.54c4.65,3.72,9.7,5.13,11.27,3.16s-.92-6.59-5.57-10.3q-.74-.59-1.47-1.08a12.29,12.29,0,0,0,1-16.07,6.8,6.8,0,0,0,.84-3.24A8.07,8.07,0,0,0,25.54,50a12.15,12.15,0,0,0,6.78-10.56,12.14,12.14,0,0,0-6.75-10.55,12.52,12.52,0,0,0,2.59-3.71,12.84,12.84,0,0,0,19.78-.47,10.56,10.56,0,0,0,14.9-.88,12.86,12.86,0,0,0,20.58,1.18,10.54,10.54,0,0,0,8.93,2.11A12.63,12.63,0,0,0,98.78,32a13.16,13.16,0,0,0-.1,1.55,12.61,12.61,0,0,0,1.43,5.84,12.67,12.67,0,0,0,1.74,17.85,10,10,0,0,0-2.7,11.7A12.66,12.66,0,0,0,90.09,81a12.83,12.83,0,0,0,.41,3.18,12.46,12.46,0,0,0-4.07-.68,12.64,12.64,0,0,0-10.32,5.34,12.65,12.65,0,0,0-19.57,15.5,12.45,12.45,0,0,1,1.45,6v13.68"/><path class="cls-1" d="M98,43.1s-13.48,10.31-17.15,3c0,0-11.25,9.77-19.78,8.38s-5.22-8.38-5.22-8.38"/><path class="cls-1" d="M30.3,45.83c10.14,7.64,20.9,3.46,28.38-1.66A3.66,3.66,0,0,0,58.56,38h0c-2-1.23-2.31-5-.7-6.64"/><path class="cls-1" d="M98.3,64.86s-15,1.78-15-9"/><path class="cls-1" d="M88.36,63.57S75.07,83.74,63.46,71c-8.84-9.66-15.39-5.12-15.39-5.12L42.49,60a5,5,0,0,0-7.47.31"/><path class="cls-1" d="M76.6,74.19s-15.28-8.46-5.8-21.66"/><path class="cls-1" d="M48.07,65.92s8.5,7.6,1.9,14.16A24,24,0,0,0,46.8,84a6.85,6.85,0,0,0,2.68,9.79l5.57,2.86"/><path class="cls-1" d="M99.72,13.62a7.22,7.22,0,0,1,10.4,6.46"/><path class="cls-1" d="M25.23,34.8a6.79,6.79,0,0,1,1.53,2.73,6.88,6.88,0,0,1-4.69,8.54"/><path class="cls-1" d="M102.82,88.26A7.26,7.26,0,0,1,95.56,81"/></svg>