<svg id="Layer_1" data-name="Layer 1" xmlns="http://www.w3.org/2000/svg" viewBox="0 0 128 128"><defs><style>.cls-1{fill:none;stroke:#000;stroke-linecap:round;stroke-linejoin:round;stroke-width:2px;}</style></defs><title>iStar_Design_Medicine_LineIcons_Live-79</title><line class="cls-1" x1="20.57" y1="28.91" x2="20.57" y2="59.33"/><path class="cls-1" d="M15.11,11.09H26a1.1,1.1,0,0,1,1.1,1.1V24.86a4,4,0,0,1-4,4h-5a4,4,0,0,1-4-4V12.18A1.1,1.1,0,0,1,15.11,11.09Z"/><path class="cls-1" d="M6,60H122a4,4,0,0,1,4,4v4a0,0,0,0,1,0,0H2a0,0,0,0,1,0,0V64A4,4,0,0,1,6,60Z"/><line class="cls-1" x1="86.08" y1="73.33" x2="41.92" y2="100.67"/><line class="cls-1" x1="41.92" y1="73.33" x2="86.08" y2="100.67"/><polyline class="cls-1" points="122.67 68 116.67 73.33 11.33 73.33 5.33 68"/><path class="cls-1" d="M43.83,68V53.58a2.91,2.91,0,0,1,2.92-2.91h34.5a2.91,2.91,0,0,1,2.92,2.91V68"/><circle class="cls-1" cx="26.08" cy="115.38" r="5.21"/><circle class="cls-1" cx="101.92" cy="115.38" r="5.21"/><polyline class="cls-1" points="27.53 110.17 27.53 100.67 103.03 100.67 103.03 110.17"/><polyline class="cls-1" points="113.34 73.43 113.34 78.33 120.23 80.33"/><path class="cls-1" d="M27.13,17a5.61,5.61,0,0,0-2.05-.38,5.7,5.7,0,0,0-3.5,1.2,3.36,3.36,0,0,1-4.06,0A5.73,5.73,0,0,0,14,16.64"/><line class="cls-1" x1="14.01" y1="7.42" x2="27.13" y2="7.42"/></svg>