<svg id="Layer_1" data-name="Layer 1" xmlns="http://www.w3.org/2000/svg" viewBox="0 0 128 128"><defs><style>.cls-1{fill:none;stroke:#000;stroke-linecap:round;stroke-linejoin:round;stroke-width:2px;}</style></defs><title>iStar_Design_Medicine_LineIcons_Live-88</title><path class="cls-1" d="M102.29,44.29,80.83,22.82a10.06,10.06,0,0,1,0-14.23h0a10.06,10.06,0,0,1,14.23,0l24.09,24.09Z"/><path class="cls-1" d="M91.1,33.65,55.74,69a7.34,7.34,0,0,0-8.86,1.14L7.15,109.88A7.32,7.32,0,0,0,17.5,120.22L57.23,80.5a7.34,7.34,0,0,0,1.13-8.86L93.73,36.28"/><line class="cls-1" x1="102.08" y1="15.61" x2="87.85" y2="29.85"/><line class="cls-1" x1="111.76" y1="25.29" x2="97.53" y2="39.53"/><path class="cls-1" d="M106,41.75l8.55,7.62a5.08,5.08,0,0,0,7.17-7.18l-6.22-7"/><line class="cls-1" x1="38.03" y1="92.41" x2="24.6" y2="105.84"/><line class="cls-1" x1="20.87" y1="109.57" x2="18.19" y2="112.25"/></svg>