<svg id="Layer_1" data-name="Layer 1" xmlns="http://www.w3.org/2000/svg" viewBox="0 0 128 128"><defs><style>.cls-1{fill:none;stroke:#000;stroke-linecap:round;stroke-linejoin:round;stroke-width:2px;}</style></defs><title>iStar_Design_Medicine_LineIcons_Live-72</title><rect class="cls-1" x="104.29" y="58.06" width="13.28" height="13.28" rx="3.37" ry="3.37"/><rect class="cls-1" x="73.17" y="58.06" width="13.28" height="13.28" rx="3.37" ry="3.37"/><rect class="cls-1" x="41.55" y="58.06" width="13.28" height="13.28" rx="3.37" ry="3.37"/><rect class="cls-1" x="10.69" y="58.06" width="13.28" height="13.28" rx="3.37" ry="3.37"/><path class="cls-1" d="M32.38,78a3.91,3.91,0,0,1-3.9,3.9H6.18A3.9,3.9,0,0,1,2.28,78V57A15.05,15.05,0,0,1,17.33,42h0A15.05,15.05,0,0,1,32.38,57"/><path class="cls-1" d="M91.53,86.05H68.1A4.1,4.1,0,0,1,64,82V57.8A15.81,15.81,0,0,1,79.81,42h0A15.81,15.81,0,0,1,95.62,57.8V82A4.1,4.1,0,0,1,91.53,86.05Z"/><line class="cls-1" x1="20.11" y1="64.77" x2="44.43" y2="64.77"/><line class="cls-1" x1="51.62" y1="64.77" x2="75.94" y2="64.77"/><line class="cls-1" x1="83.28" y1="64.77" x2="107.6" y2="64.77"/><path class="cls-1" d="M64,57.8A15.81,15.81,0,0,0,48.19,42h0A15.81,15.81,0,0,0,32.38,57.8V81.67a4.38,4.38,0,0,0,4.37,4.38H59.62A4.38,4.38,0,0,0,64,81.67"/><path class="cls-1" d="M87.89,50.74a11.18,11.18,0,0,1,2.92,5.14"/><path class="cls-1" d="M82.59,47.74a10.92,10.92,0,0,1,1.7.56"/><line class="cls-1" x1="43.47" y1="79.33" x2="38.37" y2="79.33"/><line class="cls-1" x1="48.41" y1="79.33" x2="46.88" y2="79.33"/><path class="cls-1" d="M95.62,57a15.05,15.05,0,0,1,15-15h0a15,15,0,0,1,15,15V78a3.9,3.9,0,0,1-3.9,3.9H99.52a3.91,3.91,0,0,1-3.9-3.9"/></svg>