<svg id="Layer_1" data-name="Layer 1" xmlns="http://www.w3.org/2000/svg" viewBox="0 0 128 128"><defs><style>.cls-1,.cls-2{fill:none;stroke:#000;stroke-linecap:round;stroke-linejoin:round;stroke-width:2px;}.cls-1{stroke-dasharray:2 4;}</style></defs><title>iStar_Design_Medicine_LineIcons_Live-12</title><path class="cls-1" d="M94.19,89c0-7.43,8.07-12.46,14.33-12.46"/><path class="cls-1" d="M59.73,89c0-7.43-8.07-12.46-14.33-12.46"/><path class="cls-2" d="M87.26,56.53a12.8,12.8,0,0,0,14.37-1.32l0,0a5.55,5.55,0,0,1,6.2-.72l.87.44"/><path class="cls-2" d="M99.74,56.67a5.12,5.12,0,0,1,4.86,1.87"/><path class="cls-2" d="M108.06,40.7c-10.09-2.75-19-1.29-21.35,4"/><path class="cls-2" d="M66.66,56.53a12.8,12.8,0,0,1-14.37-1.32l0,0a5.55,5.55,0,0,0-6.2-.72l-.87.44"/><path class="cls-2" d="M54.18,56.67a5.12,5.12,0,0,0-4.86,1.87"/><path class="cls-2" d="M67.21,44.75C64.84,39.41,56,38,45.86,40.7"/><path class="cls-1" d="M108.06,62.68c-2.37,5.34-14.8,7.56-23.35,2.05"/><path class="cls-1" d="M45.86,62.68c2.37,5.34,14.8,7.56,23.35,2.05"/><path class="cls-2" d="M81.12,75.77a5.89,5.89,0,0,1-8.33,0"/><path class="cls-2" d="M114,37.46V67.89a28.63,28.63,0,0,1-9.1,20.94L86.5,106a11.23,11.23,0,0,1-7.68,3H75.1a11.23,11.23,0,0,1-7.68-3L49,88.83a28.66,28.66,0,0,1-9.1-20.94V36.15"/><path class="cls-2" d="M90.26,17.24S104.4,28,108.21,31a39.72,39.72,0,0,1,10.61,48.65h0"/><path class="cls-2" d="M36.86,121c4.91.29,9-3.34,10-5,6.86-11-7.7-24-19.66-38.13l-.05,0A27,27,0,0,1,42.92,34.66L65,30.1C79.54,27.42,87.57,20.92,92.14,15c2.22-2.9,4.47-9,4.47-9"/><path class="cls-2" d="M99.74,94.73v5.73A37.24,37.24,0,0,0,106.6,122"/><path class="cls-2" d="M21.42,38.8a34.32,34.32,0,0,1,6.27-27.11"/><path class="cls-2" d="M25.28,39.76a36.85,36.85,0,0,1,2.17-7.17"/><path class="cls-2" d="M76.8,15.8a28.11,28.11,0,0,1-14,6.7"/><path class="cls-2" d="M82.13,9.1a26.55,26.55,0,0,1-1.95,3"/><path class="cls-2" d="M5,82.29c1,4.42,4,8.69,10.14,11.4l9.6,4.18c5.83,2.53,16.13,7.89,14.93,16.6"/><line class="cls-1" x1="76.96" y1="65.38" x2="76.96" y2="49.9"/><path class="cls-2" d="M81,83.55a3.28,3.28,0,0,0-2.78.28,2.46,2.46,0,0,1-1.3.36,2.5,2.5,0,0,1-1.31-.36,3.25,3.25,0,0,0-2.77-.28,11.89,11.89,0,0,0-6.24,5.24,11.93,11.93,0,0,0,20.64,0A11.89,11.89,0,0,0,81,83.55Z"/></svg>