<svg id="Layer_1" data-name="Layer 1" xmlns="http://www.w3.org/2000/svg" viewBox="0 0 128 128"><defs><style>.cls-1{fill:none;stroke:#000;stroke-linecap:round;stroke-linejoin:round;stroke-width:2px;}</style></defs><title>iStar_Design_Medicine_LineIcons_Live-44</title><path class="cls-1" d="M16.92,123s-2.65-7.58-1.52-13c.92-4.36,3.41-8.91,11.75-4.18,5.56,3.16,12.79,2.7,17,2,7.43,7.06,22.27,11.6,44,5.92,19.31-5,36.14-23.27,36.14-49.16s-16.18-46.9-36.14-46.9c-12.7,0-21.16,6-24.59,15.53-9-.06-16.88-6.86-17.46-15.69C45.89,14,45.85,5,45.85,5"/><path class="cls-1" d="M91.84,25.93a23,23,0,0,0-4.7-.54"/><path class="cls-1" d="M110.45,40.15a31.58,31.58,0,0,0-14.1-12.77"/><path class="cls-1" d="M32.22,5c-.85,12.36,1,19.62,1.22,20.27A31.45,31.45,0,0,0,62.1,48.09c.15,1.47.38,3,.69,4.49a14,14,0,0,0,7.75,9.79c-3.13,3.41-4.93,8.43-1,13.05-4.09-.82-10.23,2.87-9.76,9.12-6.56-2.34-13.55.51-16.67,3.6A9.12,9.12,0,0,0,42,89.57,24.61,24.61,0,0,0,3.68,110c0,5,1.86,10.6,2.63,13"/><path class="cls-1" d="M77.78,76.31c-3.66.41-4.56,7.5-8.07,12.35-7.16,9.87-17.27.34-23.79,11.9a44.84,44.84,0,0,0,26.16,8c21.36,0,42-16.18,42-32.94,0-1.4-5.52-1.34-9.48.13C92.92,80.08,85.13,75.48,77.78,76.31Z"/><line class="cls-1" x1="64.5" y1="99.8" x2="64.5" y2="99.8"/><line class="cls-1" x1="102.5" y1="85.8" x2="102.5" y2="85.8"/><line class="cls-1" x1="93.5" y1="94.8" x2="93.5" y2="94.8"/><line class="cls-1" x1="75.5" y1="97.8" x2="75.5" y2="97.8"/><line class="cls-1" x1="94.5" y1="83.8" x2="94.5" y2="83.8"/><line class="cls-1" x1="81.5" y1="86.8" x2="81.5" y2="86.8"/></svg>