<svg id="Layer_1" data-name="Layer 1" xmlns="http://www.w3.org/2000/svg" viewBox="0 0 128 128"><defs><style>.cls-1{fill:none;stroke:#000;stroke-linecap:round;stroke-linejoin:round;stroke-width:2px;}</style></defs><title>iStar_Design_Medicine_LineIcons_Live-56</title><polyline class="cls-1" points="41.41 81.26 44.06 78.61 49.37 83.91 46.72 86.56"/><polyline class="cls-1" points="49.19 73.48 46.54 76.13 51.84 81.44 54.49 78.78 51.84 76.13 49.19 78.78"/><polyline class="cls-1" points="56.48 66.19 53.83 68.84 59.13 74.14 61.79 71.49 59.14 68.84 56.48 71.49"/><line class="cls-1" x1="44.06" y1="83.91" x2="46.72" y2="81.26"/><line class="cls-1" x1="56.82" y1="76.45" x2="56.82" y2="76.45"/><path class="cls-1" d="M115.52,6.78,95.43,26.87A49.26,49.26,0,0,1,75.09,39.14h0A49.37,49.37,0,0,0,54.76,51.4L10,96.16A15.44,15.44,0,0,0,10,118h0a15.42,15.42,0,0,0,21.82,0L76.57,73.22A49.47,49.47,0,0,0,88.84,52.88h0A49.34,49.34,0,0,1,101.1,32.54l20.25-20.25a4,4,0,0,0-.15-5.82A4.18,4.18,0,0,0,115.52,6.78Z"/><line class="cls-1" x1="106.33" y1="15.97" x2="112" y2="21.64"/><path class="cls-1" d="M65.79,47.89a29.14,29.14,0,0,0-6.34-.62"/><path class="cls-1" d="M80.7,68.52c0-6.45-1.72-11.89-5.53-15.71a17.35,17.35,0,0,0-4.13-3"/><path class="cls-1" d="M14.67,91.49c-.17,6.71,1.59,12.36,5.52,16.29s9.59,5.69,16.29,5.53"/><path class="cls-1" d="M31.65,96.33a4.39,4.39,0,1,1-6.22,0A4.4,4.4,0,0,1,31.65,96.33Z"/><rect class="cls-1" x="35.56" y="68.71" width="32.07" height="15.32" rx="2.52" ry="2.52" transform="translate(-38.89 58.86) rotate(-45)"/></svg>