<svg id="Layer_1" data-name="Layer 1" xmlns="http://www.w3.org/2000/svg" viewBox="0 0 128 128"><defs><style>.cls-1{fill:none;stroke:#000;stroke-linecap:round;stroke-linejoin:round;stroke-width:2px;}</style></defs><title>iStar_Design_Medicine_LineIcons_Live-51</title><path class="cls-1" d="M91.54,109a17.08,17.08,0,0,1-12.07,8.23"/><path class="cls-1" d="M101.29,57.09a22.26,22.26,0,0,1,0,44.51"/><path class="cls-1" d="M101.31,26.4A22.26,22.26,0,0,1,117.41,64"/><path class="cls-1" d="M70.7,6.6a22.27,22.27,0,0,1,32.43,19.8"/><path class="cls-1" d="M88.38,18.21s-2.27-5.58-11.57-5.58"/><path class="cls-1" d="M98.53,76.75h-2A13.73,13.73,0,0,0,82.8,90.48h0"/><path class="cls-1" d="M105.58,56.81v-3.6a9.53,9.53,0,0,1,9.53-9.53h0"/><path class="cls-1" d="M110.35,87.22h0a12.53,12.53,0,0,0,12.53-12.53V74"/><path class="cls-1" d="M76.81,54.41h0A13.66,13.66,0,0,0,90.46,40.75v-.1"/><path class="cls-1" d="M87.22,51.24a6,6,0,0,0,5.69,3.5"/><path class="cls-1" d="M93,103.07s1.81-3.2.67-5.5"/><path class="cls-1" d="M93.55,27.51a13.32,13.32,0,0,0-1.63-3.72"/><line class="cls-1" x1="67.74" y1="93.33" x2="67.74" y2="86.06"/><line class="cls-1" x1="67.74" y1="77.05" x2="67.74" y2="15"/><path class="cls-1" d="M67.74,103.07v12.77A6.26,6.26,0,0,0,71,121.29a19.89,19.89,0,0,0,9.9,2.56,22.26,22.26,0,0,0,22.26-22.25"/><path class="cls-1" d="M36.46,109a17.08,17.08,0,0,0,12.07,8.23"/><path class="cls-1" d="M26.71,57.09a22.26,22.26,0,0,0,0,44.51"/><path class="cls-1" d="M26.69,26.4A22.26,22.26,0,0,0,10.59,64"/><path class="cls-1" d="M57.3,6.6A22.27,22.27,0,0,0,24.87,26.4"/><path class="cls-1" d="M39.62,18.21s2.27-5.58,11.57-5.58"/><path class="cls-1" d="M46.2,72.75v2A13.73,13.73,0,0,1,32.47,88.48h0"/><path class="cls-1" d="M22.42,56.81v-3.6a9.53,9.53,0,0,0-9.53-9.53h0"/><path class="cls-1" d="M17.65,87.22h0A12.53,12.53,0,0,1,5.12,74.69V74"/><path class="cls-1" d="M51.19,54.41h0A13.66,13.66,0,0,1,37.54,40.75v-.1"/><path class="cls-1" d="M40.78,51.24a6,6,0,0,1-5.69,3.5"/><path class="cls-1" d="M35,103.07s-1.81-3.2-.67-5.5"/><path class="cls-1" d="M34.45,27.51a13.32,13.32,0,0,1,1.63-3.72"/><line class="cls-1" x1="60.26" y1="101.77" x2="60.26" y2="54.41"/><line class="cls-1" x1="60.26" y1="40.65" x2="60.26" y2="18"/><path class="cls-1" d="M60.26,112.72v3.12A6.26,6.26,0,0,1,57,121.29a19.89,19.89,0,0,1-9.9,2.56A22.26,22.26,0,0,1,24.87,101.6"/></svg>