<svg id="Layer_1" data-name="Layer 1" xmlns="http://www.w3.org/2000/svg" viewBox="0 0 128 128"><defs><style>.cls-1{fill:none;stroke:#000;stroke-linecap:round;stroke-linejoin:round;stroke-width:2px;}</style></defs><title>iStar_Design_Medicine_LineIcons_Live-75</title><path class="cls-1" d="M44.51,69.85h0a26.45,26.45,0,0,1-33-17.69L3.37,27.24A10.06,10.06,0,0,1,10,14.48h0"/><path class="cls-1" d="M57.85,60.63A26.44,26.44,0,0,0,62.2,36.88l-7.36-24.4A11,11,0,0,0,41.11,5.11h0"/><line class="cls-1" x1="12.87" y1="9.18" x2="15.57" y2="18.14"/><line class="cls-1" x1="35.68" y1="2.3" x2="38.38" y2="11.26"/><path class="cls-1" d="M84.37,66.35a9.4,9.4,0,0,1,11.71,6.29"/><path class="cls-1" d="M44.51,69.85,52.73,97.1a13.23,13.23,0,0,0,16.48,8.84h0a13.23,13.23,0,0,0,8.84-16.48L74.39,77.31a13.22,13.22,0,0,1,8.85-16.48l1.47-.44a13.23,13.23,0,0,1,16.48,8.84l10.92,36.21"/><path class="cls-1" d="M112,105.71a10.21,10.21,0,1,1-6.83,12.72"/><path class="cls-1" d="M118.17,114.5a3.4,3.4,0,1,1-4.24-2.27A3.39,3.39,0,0,1,118.17,114.5Z"/><line class="cls-1" x1="50.9" y1="70.1" x2="54.23" y2="81.01"/><path class="cls-1" d="M25.34,59.87a19.7,19.7,0,0,1-7-9.13"/><path class="cls-1" d="M55.21,36.84a19.72,19.72,0,0,1-11.5,25.4h0a19.6,19.6,0,0,1-12.9.34"/><path class="cls-1" d="M105.1,112.62a11.12,11.12,0,0,1,2.46-4.38"/><line class="cls-1" x1="52.96" y1="30.71" x2="51.11" y2="24.55"/></svg>