<svg id="Layer_1" data-name="Layer 1" xmlns="http://www.w3.org/2000/svg" viewBox="0 0 128 128"><defs><style>.cls-1{fill:none;stroke:#000;stroke-linecap:round;stroke-linejoin:round;stroke-width:2px;}</style></defs><title>iStar_Design_Medicine_LineIcons_Live-36</title><path class="cls-1" d="M72.37,86.79H98.79V34.07"/><path class="cls-1" d="M59,4.53C51.55,8.58,44.71,16.13,40.49,26s-5,20-2.76,28.21l16-3A7,7,0,0,0,58.88,47l9.55-22.25a7,7,0,0,0-.56-6.58Z"/><path class="cls-1" d="M51.39,17.4A45.07,45.07,0,0,0,45.2,27.79"/><path class="cls-1" d="M56.38,12.22c-.85.72-1.67,1.5-2.48,2.33"/><line class="cls-1" x1="72.37" y1="47.53" x2="60.8" y2="42.57"/><line class="cls-1" x1="66.01" y1="30.41" x2="76.86" y2="35.06"/><polyline class="cls-1" points="97.46 49.09 91.76 49.09 91.76 60.39"/><line class="cls-1" x1="98.79" y1="60.39" x2="72.37" y2="60.39"/><circle class="cls-1" cx="105.17" cy="113.33" r="2.71"/><path class="cls-1" d="M72.37,107.53A28.64,28.64,0,0,0,98.79,86.79"/><line class="cls-1" x1="103.83" y1="60.98" x2="103.83" y2="65.28"/><line class="cls-1" x1="107.96" y1="60.98" x2="107.96" y2="65.28"/><line class="cls-1" x1="103.83" y1="69.76" x2="103.83" y2="74.06"/><line class="cls-1" x1="107.96" y1="69.76" x2="107.96" y2="74.06"/><line class="cls-1" x1="97.46" y1="113.33" x2="97.46" y2="113.33"/><line class="cls-1" x1="105.4" y1="48.94" x2="105.4" y2="48.94"/><path class="cls-1" d="M72.37,60.39V43.28a9.77,9.77,0,0,1,9.78-9.77H95.24a23.92,23.92,0,0,1,23.92,23.92v59.34a6.7,6.7,0,0,1-6.7,6.7H79.07a6.7,6.7,0,0,1-6.7-6.7v-30"/><path class="cls-1" d="M94.61,60.39V82a4.75,4.75,0,0,1-4.74,4.75"/><path class="cls-1" d="M78.32,86.79A4.75,4.75,0,0,1,73.58,82V60.39"/><line class="cls-1" x1="94.61" y1="71.88" x2="73.58" y2="71.88"/><line class="cls-1" x1="91.76" y1="49.09" x2="80.86" y2="49.09"/><line class="cls-1" x1="75.86" y1="49.09" x2="72.41" y2="49.09"/><line class="cls-1" x1="85.38" y1="64.22" x2="73.58" y2="64.22"/><line class="cls-1" x1="94.61" y1="64.22" x2="90.44" y2="64.22"/><line class="cls-1" x1="94.32" y1="68.05" x2="73.58" y2="68.05"/><path class="cls-1" d="M43.51,10.84a12.09,12.09,0,0,0-6.74,2,7.1,7.1,0,0,0-13.46-.21,5,5,0,0,0-8,5.91,10,10,0,0,0-.07,18.64,5.34,5.34,0,0,0-.05.69,5.5,5.5,0,0,0,9.39,3.89"/><path class="cls-1" d="M27.18,21.4a4.24,4.24,0,0,1,7,3.45"/><path class="cls-1" d="M16.78,47.09A4.89,4.89,0,0,0,21.67,52a5.1,5.1,0,0,0,1.3-.19,3.49,3.49,0,0,0,7-.44"/></svg>