<svg id="Layer_1" data-name="Layer 1" xmlns="http://www.w3.org/2000/svg" viewBox="0 0 128 128"><defs><style>.cls-1{fill:none;stroke:#000;stroke-linecap:round;stroke-linejoin:round;stroke-width:2px;}</style></defs><title>iStar_Design_Medicine_LineIcons_Live-11</title><rect class="cls-1" x="5.64" y="39.79" width="6.74" height="16.32" rx="3.17" ry="3.17" transform="translate(-31.27 20.41) rotate(-45)"/><path class="cls-1" d="M23.33,58.92H44.24a5.91,5.91,0,0,1,5.91,5.91V70.1a0,0,0,0,1,0,0H17.42a0,0,0,0,1,0,0V64.83A5.91,5.91,0,0,1,23.33,58.92Z" transform="translate(46.12 -7.26) rotate(37.39)"/><path class="cls-1" d="M124.92,79.63a7.08,7.08,0,0,0-6-8L87,67.06h-.07v0L50.36,75.54a1.7,1.7,0,0,0-1.27,2l1.59,6.9L87.38,76l37.29,5.34Z"/><path class="cls-1" d="M93.2,76.81,60.1,99.08a15.47,15.47,0,0,1-8.62,2.62H49.73a6.49,6.49,0,0,1-6.49-6.49v-16"/><line class="cls-1" x1="14.05" y1="54.64" x2="18.18" y2="57.98"/><path class="cls-1" d="M90.69,95.32H89.9a12.81,12.81,0,0,0-12.78,12.77v2.66h-33a7.16,7.16,0,0,0-7.16,7.15v0h66.5l0,0v-9.82A12.81,12.81,0,0,0,90.69,95.32Z"/><line class="cls-1" x1="77.24" y1="104.9" x2="57.7" y2="100.38"/><line class="cls-1" x1="87.01" y1="95.65" x2="70.21" y2="92.28"/><path class="cls-1" d="M51.08,56V50.75a3,3,0,0,1,3-2.94H72.26a3,3,0,0,1,2.95,2.94V68.32"/><path class="cls-1" d="M81.94,67.55V36.32a1.42,1.42,0,0,1,1.42-1.42H86.7a1.42,1.42,0,0,1,1.42,1.42V66.54"/><path class="cls-1" d="M54.16,16h24.7A6.17,6.17,0,0,1,85,22.12V33.89"/><path class="cls-1" d="M55.52,21.58a8.68,8.68,0,0,0-14.81-6.14L53,27.71A8.65,8.65,0,0,0,55.52,21.58Z"/><polyline class="cls-1" points="91.45 29.15 102.28 29.15 102.28 20.31"/><rect class="cls-1" x="95.23" y="10.07" width="14.1" height="9.94"/><line class="cls-1" x1="91.45" y1="36.93" x2="125.83" y2="36.93"/><polyline class="cls-1" points="125.83 36.93 125.83 44.72 104.13 44.72 104.13 36.93"/><path class="cls-1" d="M112.94,40.82V62.54a2,2,0,0,1-2,2h0a2,2,0,0,1-2-2V40.82"/><path class="cls-1" d="M121,40.82V62.54a2,2,0,0,1-2,2h0a2,2,0,0,1-2-2V40.82"/><rect class="cls-1" x="51.08" y="60.62" width="17.5" height="3.89" rx="1.91" ry="1.91"/><line class="cls-1" x1="50.36" y1="75.54" x2="53.02" y2="64.51"/><path class="cls-1" d="M92,100.92a7.7,7.7,0,0,1,5.52,5.8"/></svg>