<svg id="Layer_1" data-name="Layer 1" xmlns="http://www.w3.org/2000/svg" viewBox="0 0 128 128"><defs><style>.cls-1{fill:none;stroke:#000;stroke-linecap:round;stroke-linejoin:round;stroke-width:2px;}</style></defs><title>iStar_Design_Medicine_LineIcons_Live-40</title><path class="cls-1" d="M53.27,69.44A240.55,240.55,0,0,0,50,43.23C48.6,36,46.78,29.87,44.47,26.63a4.06,4.06,0,0,0-5.19-1.23c-7.79,4.09-32,19.84-30.74,57.13,1.54,44.4,6.42,42.86,8.47,43.12s6.68-6.42,9.5-8,4.88-3.59,13.35-4.87S53,104.09,54,96.9a80.81,80.81,0,0,0,.18-9.84"/><path class="cls-1" d="M54,82c-.07-1.63-.15-3.35-.24-5.14"/><path class="cls-1" d="M23.69,72S30.36,67.9,35,57.12A25.91,25.91,0,0,1,50,43.23"/><path class="cls-1" d="M35,57.12S47.56,67.64,38.83,82s-.38,20.27-.38,20.27"/><path class="cls-1" d="M38.83,82s3.34,6.41,5.39,6.93"/><path class="cls-1" d="M41.52,68.2S39.34,74,34.85,75.3"/><path class="cls-1" d="M34.85,93.82S26,93.31,22.4,106.66"/><path class="cls-1" d="M14.45,76.88a17.94,17.94,0,0,0,4.87-1.58"/><path class="cls-1" d="M9.49,100.24S18,93.31,22.4,85.48"/><path class="cls-1" d="M39.66,50S35,45.57,34.85,39.67"/><path class="cls-1" d="M113.35,51.1q1,2.09,1.89,4.37"/><path class="cls-1" d="M117.09,61.08a71,71,0,0,1,2.37,21.45c-1.54,44.4-6.42,42.86-8.47,43.12s-6.68-6.42-9.5-8-4.88-3.59-13.35-4.87S75.05,104.09,74,96.9c-.69-4.78.11-33.75,4-53.67,1.41-7.28,3.23-13.36,5.54-16.6a4.06,4.06,0,0,1,5.19-1.23A57.8,57.8,0,0,1,110.57,46"/><path class="cls-1" d="M104.31,72S97.64,67.9,93,57.12A25.91,25.91,0,0,0,78,43.23"/><path class="cls-1" d="M93,57.12S80.44,67.64,89.17,82s.38,20.27.38,20.27"/><path class="cls-1" d="M89.17,82S85.83,88.43,83.78,89"/><path class="cls-1" d="M86.48,68.2s2.18,5.77,6.67,7.1"/><path class="cls-1" d="M93.15,93.82s8.85-.51,12.45,12.84"/><path class="cls-1" d="M113.55,76.88a17.94,17.94,0,0,1-4.87-1.58"/><path class="cls-1" d="M118.51,100.24S110,93.31,105.6,85.48"/><path class="cls-1" d="M88.34,50S93,45.57,93.15,39.67"/><path class="cls-1" d="M68.35,4.8V39.49a4.11,4.11,0,0,0,1.21,2.93l4.25,4.25"/><path class="cls-1" d="M51.15,50l7.67-7.66A4.15,4.15,0,0,0,60,39.39V13.54"/><path class="cls-1" d="M52.49,60.73,61,52.19a3.69,3.69,0,0,1,5.23,0l8.89,8.89"/><line class="cls-1" x1="60.03" y1="2.34" x2="60.03" y2="7.25"/></svg>