<svg id="Layer_1" data-name="Layer 1" xmlns="http://www.w3.org/2000/svg" viewBox="0 0 128 128"><defs><style>.cls-1{fill:none;stroke:#000;stroke-linecap:round;stroke-linejoin:round;stroke-width:2px;}</style></defs><title>iStar_Design_Medicine_LineIcons_Live-20</title><rect class="cls-1" x="2.2" y="7.41" width="123.6" height="78.52" rx="2.81" ry="2.81"/><path class="cls-1" d="M64,72.33a57.1,57.1,0,0,0,47.52-25.4L82.08,23.11A31.7,31.7,0,0,1,64,28.48a31.7,31.7,0,0,1-18.08-5.37L16.48,46.93A57.1,57.1,0,0,0,64,72.33Z"/><line class="cls-1" x1="10.98" y1="17.69" x2="19" y2="17.69"/><line class="cls-1" x1="109" y1="17.69" x2="117.02" y2="17.69"/><line class="cls-1" x1="109" y1="77.58" x2="117.02" y2="77.58"/><line class="cls-1" x1="10.98" y1="23.88" x2="24.12" y2="23.88"/><line class="cls-1" x1="10.98" y1="30.06" x2="19" y2="30.06"/><path class="cls-1" d="M31.37,107.35a22.43,22.43,0,0,0,1.81,9h6.9a.62.62,0,0,0,.62-.62h0a4.12,4.12,0,0,1,3.65-4.09l6.45-.73a2.79,2.79,0,0,0,2.48-2.78v-1.6a2.8,2.8,0,0,0-2.48-2.78L44.35,103A4.12,4.12,0,0,1,40.7,99h0a.62.62,0,0,0-.62-.62h-6.9A22.43,22.43,0,0,0,31.37,107.35Z"/><path class="cls-1" d="M53.8,107.35h23a3.74,3.74,0,0,0,3.74-3.75v-2.89A3.74,3.74,0,0,1,84.31,97h0a3.74,3.74,0,0,1,3.74,3.74v15.53A3.75,3.75,0,0,0,91.79,120h1a3.75,3.75,0,0,0,3.75-3.74v-5.15a3.73,3.73,0,0,1,3.74-3.74h5.74a5.48,5.48,0,0,0,5.47-5.48V85.93"/><path class="cls-1" d="M52.15,44.41c-4.55,2.73-6.27,7.89-3.54,12.1s10.63,7,19.52,6.41c9.55-.6,9.78-8,9.78-8a9.24,9.24,0,0,0,9.24-9.5,9.35,9.35,0,0,0-9-9,9.25,9.25,0,0,0-9.5,9.24A5.46,5.46,0,0,0,69.13,48a.7.7,0,0,1-.82,1,16.31,16.31,0,0,0-3.67-.54"/><path class="cls-1" d="M69.24,56.51s-10.11-2-11.33-7.65c-.9-4.19,4.12-4.51,6.78-4.39"/><path class="cls-1" d="M50.83,39.86a7,7,0,0,1,6-.91c3.24,1.11,5.2,4,3.6,5.95"/><path class="cls-1" d="M49.58,46.52S42.68,45,45,40.06a9.82,9.82,0,0,1,3.17-3.94,3.59,3.59,0,0,1,3.61-.39A2.42,2.42,0,0,1,53,38.88"/><line class="cls-1" x1="55.73" y1="49.93" x2="57.91" y2="48.86"/><path class="cls-1" d="M20.88,97.3a17.36,17.36,0,0,0,0,20.14"/><path class="cls-1" d="M25.81,101.58a10,10,0,0,0,0,11.57"/><path class="cls-1" d="M15.76,94.14a22.83,22.83,0,0,0,0,26.45"/></svg>