<svg id="Layer_1" data-name="Layer 1" xmlns="http://www.w3.org/2000/svg" viewBox="0 0 128 128"><defs><style>.cls-1{fill:none;stroke:#000;stroke-linecap:round;stroke-linejoin:round;stroke-width:2px;}</style></defs><title>iStar_Design_Medicine_LineIcons_Live-26</title><path class="cls-1" d="M72.61,59.41a10.81,10.81,0,0,0-3.48-.58,10.54,10.54,0,0,0-5.82,1.74,7.77,7.77,0,0,1-8.53,0,10.51,10.51,0,0,0-2.43-1.18"/><path class="cls-1" d="M15.6,121.91a3.63,3.63,0,0,1-7.25,0c0-2,3.62-6.41,3.62-6.41S15.6,119.91,15.6,121.91Z"/><line class="cls-1" x1="54.36" y1="71.4" x2="54.36" y2="71.4"/><line class="cls-1" x1="38.84" y1="78.96" x2="38.84" y2="78.96"/><line class="cls-1" x1="33.84" y1="89.29" x2="33.84" y2="89.29"/><path class="cls-1" d="M74.69,37,23.06,88.66l-2.28,9.61L12,107.06a2.17,2.17,0,0,0,0,3.06h0a2.15,2.15,0,0,0,3.06,0l8.79-8.79,9.61-2.28L85.08,47.43"/><path class="cls-1" d="M80.25,42.08l-5.56-5.56a2.3,2.3,0,0,1,0-3.24h0a2.3,2.3,0,0,1,3.24,0l10.9,10.91a2.28,2.28,0,0,1,0,3.24h0a2.3,2.3,0,0,1-3.24,0L84,45.8"/><path class="cls-1" d="M88.7,44.06l28.74-28.74a7.53,7.53,0,0,0,0-10.65h0a7.53,7.53,0,0,0-10.65,0L78.06,33.41"/></svg>