<svg id="Layer_1" data-name="Layer 1" xmlns="http://www.w3.org/2000/svg" viewBox="0 0 128 128"><defs><style>.cls-1{fill:none;stroke:#000;stroke-linecap:round;stroke-linejoin:round;stroke-width:2px;}</style></defs><title>Artboard 1</title><path class="cls-1" d="M86.81,120.89a54.9,54.9,0,0,0,37.6-16"/><path class="cls-1" d="M86.69,75.58c21.48,0,38.89,20.19,38.89,20.19S108.17,116,86.69,116,47.8,95.77,47.8,95.77,65.21,75.58,86.69,75.58Z"/><circle class="cls-1" cx="89.14" cy="93.32" r="2.52"/><circle class="cls-1" cx="86.69" cy="95.77" r="10.07"/><path class="cls-1" d="M95.93,83.19a14.53,14.53,0,0,1,1.29,1.06"/><path class="cls-1" d="M99.71,87.15c.25.38.49.78.7,1.18a15.35,15.35,0,0,1,1.89,7.44A15.61,15.61,0,1,1,86.69,80.16h0a15.25,15.25,0,0,1,5.81,1.12"/><path class="cls-1" d="M14.84,40.79a12.18,12.18,0,1,0,0-8.43"/><path class="cls-1" d="M69.49,32.36a12.18,12.18,0,1,0,0,8.43"/><path class="cls-1" d="M14.84,71a7.63,7.63,0,1,0,1.05-10.74,8,8,0,0,0-1.05,1.05"/><path class="cls-1" d="M23.3,86.19a4.78,4.78,0,1,0-.65,6.73,4.44,4.44,0,0,0,.65-.65"/><path class="cls-1" d="M37.32,93.46a4.78,4.78,0,1,0-6.73-.65,4.44,4.44,0,0,0,.65.65"/><path class="cls-1" d="M47,72.91a7.63,7.63,0,1,0-10.74-1,8,8,0,0,0,1.05,1"/><path class="cls-1" d="M69.49,61.33a7.63,7.63,0,1,0-1,10.74,8,8,0,0,0,1-1"/><line class="cls-1" x1="81.91" y1="31.65" x2="81.91" y2="70.76"/><line class="cls-1" x1="81.91" y1="22.26" x2="81.91" y2="25.55"/><path class="cls-1" d="M55.69,111H4.77a2.35,2.35,0,0,1-2.35-2.35V9.76A2.35,2.35,0,0,1,4.77,7.41H79.56a2.35,2.35,0,0,1,2.35,2.35V16"/><line class="cls-1" x1="8.86" y1="12.76" x2="21.9" y2="12.76"/><line class="cls-1" x1="27.23" y1="12.76" x2="31.09" y2="12.76"/></svg>