<svg id="Layer_1" data-name="Layer 1" xmlns="http://www.w3.org/2000/svg" viewBox="0 0 128 128"><defs><style>.cls-1,.cls-2{fill:none;stroke:#000;stroke-linecap:round;stroke-linejoin:round;stroke-width:2px;}.cls-2{stroke-dasharray:6.45 6.45;}</style></defs><title>iStar_Design_Medicine_LineIcons_Live-14</title><path class="cls-1" d="M24.54,73.7s7.85,22.8,18.33,6.88c7.92-12,32.08-4.24,32.08,8,0,3.48,6.3,6.87,17.75,0,16-9.74,26.35-17.19,26.92-43.53S92.7,1.53,60.05,1.53C12.74,1.53,9.92,34.3,12,47.85a28.55,28.55,0,0,1-3.62,18.6h0S20.7,71,9.84,84.4c0,0,6.18,4.5,4.62,8.17s-4.93,6.72,0,15.5"/><path class="cls-1" d="M65.57,81.72a100.73,100.73,0,0,0-1.82,27.88c.79,8.4-17.25,7.64-21.83,9.55s-22.15,8-24.82,7.25-3.06-2.55-2.3-5.28,1.22-10-.34-13.05c0,0,29-8,30.13-12.6s0-14.89,0-14.89"/><line class="cls-1" x1="32.75" y1="97.79" x2="33.99" y2="101.33"/><line class="cls-1" x1="28.74" y1="98.94" x2="29.98" y2="102.48"/><line class="cls-1" x1="24.73" y1="100.09" x2="25.97" y2="103.62"/><line class="cls-1" x1="20.72" y1="101.8" x2="21.96" y2="105.34"/><line class="cls-1" x1="16.71" y1="103.52" x2="17.96" y2="107.06"/><path class="cls-1" d="M33.25,56.28c1.49,4.89-.37,9.28-2.23,9.85s-2.75-3-4.25-7.91-3-9.24-1.16-9.8S31.75,51.39,33.25,56.28Z"/><path class="cls-1" d="M73.83,34.76c5.31-.63,10.65.2,14.62,4"/><path class="cls-1" d="M60.2,15.14c-.09,2,.19,3.69,0,5.43"/><path class="cls-2" d="M57.24,26.89a28.91,28.91,0,0,0-1.6,2.94c-1.62,3.51-.62,5.36,1.4,6"/><path class="cls-1" d="M60.52,36.1a13.86,13.86,0,0,0,5.12-1.72"/><path class="cls-1" d="M65.57,2.42A33.25,33.25,0,0,0,60,8.21"/><path class="cls-1" d="M92.7,54.66s-9.54,17.9-23.29,13.89-14.8.57-18.62,0-5-4.77-6.49-9.74S43.24,57.66,40,52.89,37,39,43.15,39"/><path class="cls-1" d="M86.59,62.73s5.35,2.6,6.11,6.4,2.68,9.54,6.11,9.54"/><path class="cls-1" d="M99.73,39.78A21.49,21.49,0,0,1,96.52,47"/><path class="cls-1" d="M103,24.83c-.32,2.06-.7,4.11-1.12,6.15"/><line class="cls-1" x1="54.83" y1="74.9" x2="54.83" y2="82.7"/><path class="cls-1" d="M54.83,90.5v6.24a12,12,0,0,1-8.54,11.49h0"/></svg>