<svg id="Layer_1" data-name="Layer 1" xmlns="http://www.w3.org/2000/svg" viewBox="0 0 128 128"><defs><style>.cls-1{fill:none;stroke:#000;stroke-linecap:round;stroke-linejoin:round;stroke-width:2px;}</style></defs><title>iStar_Design_Medicine_LineIcons_Live-8</title><path class="cls-1" d="M59.84,33.94h57.45a5.85,5.85,0,0,1,5.85,5.86v80.36a5.86,5.86,0,0,1-5.85,5.86H59.84"/><path class="cls-1" d="M111.86,50.81H99.77a3.9,3.9,0,0,1-3.91-3.9h0A3.91,3.91,0,0,1,99.77,43h12.09a3.91,3.91,0,0,1,3.91,3.91h0A3.9,3.9,0,0,1,111.86,50.81Z"/><line class="cls-1" x1="105.81" y1="43" x2="105.81" y2="50.81"/><rect class="cls-1" x="95.86" y="59.54" width="19.91" height="7.81" rx="3.58" ry="3.58"/><line class="cls-1" x1="105.81" y1="59.54" x2="105.81" y2="67.35"/><path class="cls-1" d="M111.86,83.88H99.77A3.9,3.9,0,0,1,95.86,80h0a3.91,3.91,0,0,1,3.91-3.91h12.09A3.91,3.91,0,0,1,115.77,80h0A3.9,3.9,0,0,1,111.86,83.88Z"/><line class="cls-1" x1="105.81" y1="76.07" x2="105.81" y2="83.88"/><rect class="cls-1" x="95.86" y="92.61" width="19.91" height="7.81" rx="3.58" ry="3.58"/><line class="cls-1" x1="105.81" y1="92.61" x2="105.81" y2="100.42"/><path class="cls-1" d="M111.86,117H99.77a3.91,3.91,0,0,1-3.91-3.91h0a3.91,3.91,0,0,1,3.91-3.91h12.09a3.91,3.91,0,0,1,3.91,3.91h0A3.91,3.91,0,0,1,111.86,117Z"/><line class="cls-1" x1="105.81" y1="109.14" x2="105.81" y2="116.96"/><path class="cls-1" d="M76.27,50.81H64.18a3.9,3.9,0,0,1-3.91-3.9h0A3.91,3.91,0,0,1,64.18,43H76.27a3.91,3.91,0,0,1,3.91,3.91h0A3.9,3.9,0,0,1,76.27,50.81Z"/><line class="cls-1" x1="70.23" y1="43" x2="70.23" y2="50.81"/><rect class="cls-1" x="60.27" y="59.54" width="19.91" height="7.81" rx="3.58" ry="3.58"/><line class="cls-1" x1="70.23" y1="59.54" x2="70.23" y2="67.35"/><path class="cls-1" d="M76.27,83.88H64.18A3.9,3.9,0,0,1,60.27,80h0a3.91,3.91,0,0,1,3.91-3.91H76.27A3.91,3.91,0,0,1,80.18,80h0A3.9,3.9,0,0,1,76.27,83.88Z"/><line class="cls-1" x1="70.23" y1="76.07" x2="70.23" y2="83.88"/><rect class="cls-1" x="60.27" y="92.61" width="19.91" height="7.81" rx="3.58" ry="3.58"/><line class="cls-1" x1="70.23" y1="92.61" x2="70.23" y2="100.42"/><path class="cls-1" d="M76.27,117H64.18a3.91,3.91,0,0,1-3.91-3.91h0a3.91,3.91,0,0,1,3.91-3.91H76.27a3.91,3.91,0,0,1,3.91,3.91h0A3.91,3.91,0,0,1,76.27,117Z"/><line class="cls-1" x1="70.23" y1="109.14" x2="70.23" y2="116.96"/><line class="cls-1" x1="88.02" y1="43.34" x2="88.02" y2="45.34"/><line class="cls-1" x1="88.02" y1="50.47" x2="88.02" y2="52.47"/><line class="cls-1" x1="88.02" y1="57.6" x2="88.02" y2="59.6"/><line class="cls-1" x1="88.02" y1="64.73" x2="88.02" y2="66.72"/><line class="cls-1" x1="88.02" y1="71.85" x2="88.02" y2="73.85"/><line class="cls-1" x1="88.02" y1="78.98" x2="88.02" y2="80.98"/><line class="cls-1" x1="88.02" y1="86.11" x2="88.02" y2="88.11"/><line class="cls-1" x1="88.02" y1="93.23" x2="88.02" y2="95.23"/><line class="cls-1" x1="88.02" y1="100.36" x2="88.02" y2="102.36"/><line class="cls-1" x1="88.02" y1="107.49" x2="88.02" y2="109.49"/><line class="cls-1" x1="88.02" y1="114.61" x2="88.02" y2="116.61"/><path class="cls-1" d="M47.85,33.94H54.3v85.7A6.38,6.38,0,0,1,47.92,126H11.23a6.38,6.38,0,0,1-6.37-6.38V33.94H40"/><polyline class="cls-1" points="4.86 33.94 15.77 19.2 43.39 19.2 54.3 33.94"/><rect class="cls-1" x="11.31" y="1.98" width="36.54" height="12.85"/><line class="cls-1" x1="43.39" y1="19.2" x2="43.39" y2="14.84"/><line class="cls-1" x1="15.77" y1="19.2" x2="15.77" y2="14.84"/><line class="cls-1" x1="18.06" y1="1.98" x2="18.06" y2="14.84"/><line class="cls-1" x1="41.1" y1="1.98" x2="41.1" y2="14.84"/><line class="cls-1" x1="29.58" y1="1.98" x2="29.58" y2="14.84"/><polyline class="cls-1" points="11.31 53.8 11.31 47.89 47.85 47.89 47.85 103.01 24.89 103.01"/><line class="cls-1" x1="11.31" y1="61.42" x2="11.31" y2="58.79"/><polyline class="cls-1" points="18.91 103.01 11.31 103.01 11.31 66.47"/><polygon class="cls-1" points="41.1 71.64 32.98 71.64 32.98 63.52 26.18 63.52 26.18 71.64 18.06 71.64 18.06 78.45 26.18 78.45 26.18 86.57 32.98 86.57 32.98 78.45 41.1 78.45 41.1 71.64"/></svg>