<svg id="Layer_1" data-name="Layer 1" xmlns="http://www.w3.org/2000/svg" viewBox="0 0 128 128"><defs><style>.cls-1{fill:none;stroke:#000;stroke-linecap:round;stroke-linejoin:round;stroke-width:2px;}</style></defs><title>iStar_Design_Medicine_LineIcons_Live-37</title><path class="cls-1" d="M47.81,91.53a4.49,4.49,0,1,1-4.49-4.48A4.48,4.48,0,0,1,47.81,91.53Z"/><path class="cls-1" d="M34.17,71.6A17.23,17.23,0,0,1,41.38,70"/><path class="cls-1" d="M47.74,70.05A21.93,21.93,0,1,1,29,74.93"/><line class="cls-1" x1="43.32" y1="113.45" x2="43.32" y2="101.61"/><line class="cls-1" x1="34.74" y1="96.3" x2="24.04" y2="101.98"/><line class="cls-1" x1="25.04" y1="81.35" x2="35.73" y2="87.03"/><line class="cls-1" x1="50.94" y1="96.3" x2="61.63" y2="101.98"/><path class="cls-1" d="M49.62,78.53s8.25,2.82,8.25,11.12"/><path class="cls-1" d="M43.32,61.65l-3-43.3a9,9,0,0,0-8.61-6.48H25"/><path class="cls-1" d="M13,17.16H7.19A5.3,5.3,0,0,1,1.9,11.87h0A5.3,5.3,0,0,1,7.19,6.58h12.5A5.3,5.3,0,0,1,25,11.87h0a5.3,5.3,0,0,1-5.29,5.29"/><line class="cls-1" x1="81.38" y1="53.96" x2="81.38" y2="71.6"/><path class="cls-1" d="M73.21,71.6h24.6a19.64,19.64,0,0,1,19.64,19.64V113.3"/><circle class="cls-1" cx="117.45" cy="111.99" r="8.66"/><line class="cls-1" x1="113.51" y1="80.49" x2="71.35" y2="80.49"/><line class="cls-1" x1="57.87" y1="53.96" x2="42.8" y2="53.96"/><path class="cls-1" d="M42.08,43.5h61.21a5.23,5.23,0,0,1,5.23,5.23h0A5.23,5.23,0,0,1,103.29,54h-38"/><path class="cls-1" d="M71.22,80.79a29.92,29.92,0,1,1-5.47-9"/></svg>