<svg id="Layer_1" data-name="Layer 1" xmlns="http://www.w3.org/2000/svg" viewBox="0 0 128 128"><defs><style>.cls-1{fill:none;stroke:#000;stroke-linecap:round;stroke-linejoin:round;stroke-width:2px;}</style></defs><title>iStar_Design_Medicine_LineIcons_Live-52</title><path class="cls-1" d="M19.79,34.87a34,34,0,0,1,64,16.93C83.49,64.32,75.66,77.54,65,83.11l-.53.26a23.91,23.91,0,0,0-13.65,22.38h0c-.44,8.81-7.54,16.11-16.38,17.68a20.31,20.31,0,0,1-24-20"/><path class="cls-1" d="M35.24,62.72A18.07,18.07,0,1,1,66.08,50"/><path class="cls-1" d="M50.28,48a18.72,18.72,0,0,0-9.21-2.4"/><path class="cls-1" d="M54.39,51.08a18.79,18.79,0,0,1,5.54,13.34,18.56,18.56,0,0,1-7.81,15.26,12.17,12.17,0,0,1-3.39,1.67l-6,2A8.37,8.37,0,0,0,37.27,89l-.88,3.13a7.94,7.94,0,0,1-1.49,3A8.46,8.46,0,0,1,27.19,98a8.36,8.36,0,0,1-7-7.25,8.26,8.26,0,0,1,2.39-6.92"/><line class="cls-1" x1="85.08" y1="23.32" x2="70.3" y2="38.11"/><path class="cls-1" d="M85.22,23.46h0a2.5,2.5,0,0,1,0-3.54L100.17,5a2.5,2.5,0,0,1,3.54,0h0a2.5,2.5,0,0,1,0,3.53l-14.95,15A2.5,2.5,0,0,1,85.22,23.46Z"/><line class="cls-1" x1="92.42" y1="47.15" x2="72.39" y2="53.19"/><path class="cls-1" d="M92.47,47.34h0a2.5,2.5,0,0,1,1.68-3.12l20.23-6.1a2.5,2.5,0,0,1,3.12,1.67h0a2.5,2.5,0,0,1-1.67,3.12L95.59,49A2.51,2.51,0,0,1,92.47,47.34Z"/><line class="cls-1" x1="90.84" y1="70.74" x2="69.95" y2="69.8"/><path class="cls-1" d="M90.83,70.93h0a2.51,2.51,0,0,1,2.62-2.39l21.11.95A2.5,2.5,0,0,1,117,72.1h0a2.5,2.5,0,0,1-2.61,2.39l-21.12-.95A2.5,2.5,0,0,1,90.83,70.93Z"/></svg>