<svg id="Layer_1" data-name="Layer 1" xmlns="http://www.w3.org/2000/svg" viewBox="0 0 128 128"><defs><style>.cls-1{fill:none;stroke:#000;stroke-linecap:round;stroke-linejoin:round;stroke-width:2px;}</style></defs><title>iStar_Design_Medicine_LineIcons_Live-22</title><path class="cls-1" d="M29.75,77V64.82H104.6v26.6a19,19,0,0,1-19,19"/><path class="cls-1" d="M104.6,73.44h9.21a9.2,9.2,0,0,1,9.2,9.2h0a9.2,9.2,0,0,1-9.2,9.21H104.6"/><path class="cls-1" d="M5,110.46H123a0,0,0,0,1,0,0v.68a8.79,8.79,0,0,1-8.79,8.79H13.78A8.79,8.79,0,0,1,5,111.14v-.68A0,0,0,0,1,5,110.46Z"/><path class="cls-1" d="M39.28,109.16A28.36,28.36,0,0,0,67.63,80.8H10.92A28.36,28.36,0,0,0,39.28,109.16Z"/><line class="cls-1" x1="39.28" y1="103.58" x2="39.28" y2="80.97"/><path class="cls-1" d="M16.49,80.8a22.79,22.79,0,0,0,45.57,0"/><line class="cls-1" x1="23.29" y1="96.96" x2="39.28" y2="80.97"/><line class="cls-1" x1="55.26" y1="96.96" x2="39.28" y2="80.97"/><path class="cls-1" d="M77.57,28C72.55,25.09,65,8.52,65,8.52S83.12,6.89,88.15,9.81A10.53,10.53,0,0,1,77.57,28Z"/><line class="cls-1" x1="64.98" y1="8.52" x2="98.11" y2="27.78"/><line class="cls-1" x1="80.25" y1="17.39" x2="72.71" y2="21.33"/><line class="cls-1" x1="87.31" y1="21.52" x2="76.67" y2="27.08"/><line class="cls-1" x1="80.3" y1="17.3" x2="80" y2="8.8"/><line class="cls-1" x1="87.38" y1="21.39" x2="86.95" y2="9.39"/><path class="cls-1" d="M55.08,28c3.35,4.75,3.32,23,3.32,23S41.23,44.88,37.88,40.13A10.52,10.52,0,0,1,55.08,28Z"/><line class="cls-1" x1="58.4" y1="50.97" x2="36.32" y2="19.65"/><line class="cls-1" x1="48.22" y1="36.54" x2="56.72" y2="36.1"/><line class="cls-1" x1="43.53" y1="29.84" x2="55.52" y2="29.22"/><line class="cls-1" x1="48.13" y1="36.6" x2="46.23" y2="41.19"/><line class="cls-1" x1="43.4" y1="29.93" x2="38.79" y2="41.02"/><path class="cls-1" d="M80.29,38.62a5.72,5.72,0,0,0-.86,10.63h0a5.73,5.73,0,0,1,.3,10.15"/><path class="cls-1" d="M90.92,41.64a4.61,4.61,0,0,0-.69,8.56h0a4.62,4.62,0,0,1,.24,8.18"/><path class="cls-1" d="M95.89,96.51a14.57,14.57,0,0,1-12.65,7.3"/><path class="cls-1" d="M97.85,89.21a14.88,14.88,0,0,1-.23,2.6"/></svg>