<svg id="Layer_1" data-name="Layer 1" xmlns="http://www.w3.org/2000/svg" viewBox="0 0 128 128"><defs><style>.cls-1{fill:none;stroke:#000;stroke-linecap:round;stroke-linejoin:round;stroke-width:2px;}</style></defs><title>iStar_Design_Medicine_LineIcons_Live-95</title><circle class="cls-1" cx="64" cy="64" r="54.04" transform="translate(-26.51 64) rotate(-45)"/><circle class="cls-1" cx="64" cy="64" r="61.56" transform="translate(-26.51 64) rotate(-45)"/><line class="cls-1" x1="93.58" y1="57.21" x2="93.58" y2="70.79"/><line class="cls-1" x1="85.74" y1="57.21" x2="85.74" y2="70.79"/><line class="cls-1" x1="34.77" y1="34.77" x2="93.23" y2="93.23"/><path class="cls-1" d="M89.89,27.34h0a7.77,7.77,0,0,0-1.3,10.92l.38.49"/><path class="cls-1" d="M88.72,38.42h0a7.78,7.78,0,0,1-1.3,10.92l-.49.39"/><path class="cls-1" d="M97.46,33.3h0a5.15,5.15,0,0,0-.27,7.28l.29.31"/><path class="cls-1" d="M97.29,40.68h0A5.15,5.15,0,0,1,97,48l-.31.28"/><polyline class="cls-1" points="58.09 57.21 101.42 57.21 101.42 70.79 71.15 70.79"/><polyline class="cls-1" points="63.29 70.79 26.58 70.79 26.58 57.21 49.92 57.21"/></svg>