<svg id="Layer_1" data-name="Layer 1" xmlns="http://www.w3.org/2000/svg" viewBox="0 0 128 128"><defs><style>.cls-1{fill:none;stroke:#000;stroke-linecap:round;stroke-linejoin:round;stroke-width:2px;}</style></defs><title>iStar_Design_Medicine_LineIcons_Live-45</title><polyline class="cls-1" points="24.22 91.93 24.22 99.64 121.3 99.64 121.3 91.93"/><line class="cls-1" x1="87.88" y1="66.16" x2="40.23" y2="66.16"/><polyline class="cls-1" points="125.63 46.81 125.63 91.93 2.38 91.93 2.38 46.81"/><path class="cls-1" d="M32.18,78.18,6.69,44.7,8.3,43.37a9.93,9.93,0,0,1,14,1.28L37.82,66.16h79.25a4.23,4.23,0,0,1,4.23,4.23v7.79"/><circle class="cls-1" cx="28.14" cy="111.57" r="5.05"/><path class="cls-1" d="M2.37,52.83h61.4a5.69,5.69,0,0,1,5.69,5.69V91.93"/><line class="cls-1" x1="69.46" y1="60.71" x2="2.37" y2="60.71"/><line class="cls-1" x1="69.46" y1="72.35" x2="2.37" y2="72.35"/><line class="cls-1" x1="107.12" y1="78.18" x2="2.37" y2="78.18"/><line class="cls-1" x1="125.62" y1="78.18" x2="112.87" y2="78.18"/><line class="cls-1" x1="35.92" y1="99.64" x2="28.14" y2="111.57"/><path class="cls-1" d="M113.19,111.57a5,5,0,1,0,5-5A5,5,0,0,0,113.19,111.57Z"/><line class="cls-1" x1="110.45" y1="99.64" x2="118.23" y2="111.57"/><line class="cls-1" x1="35.71" y1="84.9" x2="35.26" y2="84.9"/><line class="cls-1" x1="42.4" y1="84.9" x2="41.95" y2="84.9"/><line class="cls-1" x1="55.55" y1="84.9" x2="48.64" y2="84.9"/><rect class="cls-1" x="65.13" y="14.63" width="8.71" height="14.05" rx="1.91" ry="1.91"/><line class="cls-1" x1="118.23" y1="116.62" x2="106.52" y2="116.62"/><line class="cls-1" x1="63.81" y1="18.95" x2="82.47" y2="18.95"/><path class="cls-1" d="M69.46,28.68V32.1a2.39,2.39,0,0,0,2.39,2.39H82.22a4.18,4.18,0,0,1,4.17,4.18v.44a4.17,4.17,0,0,1-4.17,4.17H78.67a4.17,4.17,0,0,0-4.17,4.17h0a4.17,4.17,0,0,0,4.17,4.17h3.59a3.32,3.32,0,0,1,3.32,3.31h0A3.32,3.32,0,0,1,83.41,58l-8,2.94"/><line class="cls-1" x1="80.76" y1="11.38" x2="80.76" y2="66.16"/><line class="cls-1" x1="80.76" y1="99.64" x2="80.76" y2="116.62"/><line class="cls-1" x1="28.14" y1="116.62" x2="2.37" y2="116.62"/><line class="cls-1" x1="62.98" y1="116.62" x2="39.31" y2="116.62"/><line class="cls-1" x1="71.5" y1="116.62" x2="68.03" y2="116.62"/><line class="cls-1" x1="100.94" y1="116.62" x2="75.55" y2="116.62"/></svg>