<svg id="Layer_1" data-name="Layer 1" xmlns="http://www.w3.org/2000/svg" viewBox="0 0 128 128"><defs><style>.cls-1{fill:none;stroke:#000;stroke-linecap:round;stroke-linejoin:round;stroke-width:2px;}</style></defs><title>iStar_Design_Medicine_LineIcons_Live-65</title><path class="cls-1" d="M44.46,4.67V16.61a31.55,31.55,0,0,1-5.13,17.71A14,14,0,0,0,37,43.76a14.17,14.17,0,0,0,18.64,11.9,23.93,23.93,0,0,1,15.5,0,14.16,14.16,0,0,0,16.3-21.34,31.48,31.48,0,0,1-5.14-17.71V4.67"/><path class="cls-1" d="M82.28,123.33v-21A70.31,70.31,0,0,1,86.66,79a12,12,0,0,0,.7-4c0-9.3-10.74-12.83-24-12.83s-24,3.53-24,12.83a12,12,0,0,0,.7,4,70.55,70.55,0,0,1,4.37,23.36v21"/><path class="cls-1" d="M90.35,71a33.66,33.66,0,0,0,.72-17.9"/><path class="cls-1" d="M36,52a33.61,33.61,0,0,0-1.16,8.76,33.25,33.25,0,0,0,.92,7.8"/><line class="cls-1" x1="89.46" y1="88.03" x2="88.76" y2="90.31"/><path class="cls-1" d="M95.45,45.83a38.29,38.29,0,0,1,2.69,14.91,27.94,27.94,0,0,1-2.65,11.88c-1.45,3.12-2.8,6.28-4,9.5"/><path class="cls-1" d="M30.5,49c.35-1.62.69-3.1,1-4.27"/><path class="cls-1" d="M35.29,82a31.53,31.53,0,0,0-2.92-7.2A28.29,28.29,0,0,1,28.6,60.74a39.83,39.83,0,0,1,.79-6.25"/><path class="cls-1" d="M93.42,25.79c-2.21-5-3.22-7.86-3.42-12.12"/><path class="cls-1" d="M96.84,33.85c-.58-1.15-1.12-2.3-1.62-3.46"/><path class="cls-1" d="M90,112.58A70.48,70.48,0,0,1,99.54,78.7a39.23,39.23,0,0,0,0-39.93"/><path class="cls-1" d="M38,13.67c0,12.68-3.08,14.19-9.54,25.1a39.23,39.23,0,0,0,0,39.93A71,71,0,0,1,38,114.87"/><path class="cls-1" d="M71.16,49.69a14.61,14.61,0,0,0-15.58,0"/><path class="cls-1" d="M52.23,69.87a28.7,28.7,0,0,0,22.28,0"/></svg>