<svg id="Layer_1" data-name="Layer 1" xmlns="http://www.w3.org/2000/svg" viewBox="0 0 128 128"><defs><style>.cls-1{fill:none;stroke:#000;stroke-linecap:round;stroke-linejoin:round;stroke-width:2px;}</style></defs><title>iStar_Design_Medicine_LineIcons_Live-32</title><path class="cls-1" d="M90.6,72.62a28,28,0,0,0-2.48-22.78l-.33-.57a27.74,27.74,0,0,0-37.95-10l-.49.23a27.75,27.75,0,0,1-36.86-8.24l-.93-1.45"/><path class="cls-1" d="M67,126.66c-5.13-8.79-5.62-20.36-1.1-28.69"/><path class="cls-1" d="M61.14,27.36a28,28,0,0,0-1.2-26"/><path class="cls-1" d="M116.44,98.12A28.07,28.07,0,0,0,79.08,87.45L78,87.94A28.08,28.08,0,0,1,40.7,79.61l-.94-1.47a28,28,0,0,1-1.27-25.88"/><line class="cls-1" x1="79.79" y1="100.45" x2="62.91" y2="110.3"/><line class="cls-1" x1="98.83" y1="102" x2="64.87" y2="121.82"/><line class="cls-1" x1="59.45" y1="51.64" x2="35.96" y2="65.36"/><line class="cls-1" x1="73.73" y1="55.57" x2="39.01" y2="75.85"/><line class="cls-1" x1="64.4" y1="74.08" x2="45.99" y2="84.84"/><line class="cls-1" x1="63.52" y1="16.45" x2="45.16" y2="27.17"/><line class="cls-1" x1="28.69" y1="24.91" x2="61.85" y2="5.55"/><line class="cls-1" x1="39.34" y1="30.56" x2="34.93" y2="33.14"/><line class="cls-1" x1="70.57" y1="70.48" x2="75.24" y2="67.76"/><line class="cls-1" x1="86.05" y1="96.79" x2="90.45" y2="94.22"/></svg>