<svg id="Layer_1" data-name="Layer 1" xmlns="http://www.w3.org/2000/svg" viewBox="0 0 128 128"><defs><style>.cls-1{fill:none;stroke:#000;stroke-linecap:round;stroke-linejoin:round;stroke-width:2px;}</style></defs><title>iStar_Design_Medicine_LineIcons_Live-96</title><path class="cls-1" d="M44.88,14A21.58,21.58,0,0,1,64,2.87c8.36,0,15.86,4.4,19.12,11.15,1.71,3.53,6.25,14.4,6.25,14.4A27.11,27.11,0,0,1,86.7,54.6L37.46,125.13,16.05,110.19,79.1,19.85"/><path class="cls-1" d="M74.73,26.07a13.11,13.11,0,0,0-21.46,0"/><polyline class="cls-1" points="66.83 91.16 90.54 125.13 111.95 110.19 83.07 68.81"/><path class="cls-1" d="M60.84,37,44.82,14l-6.19,14.4A27.11,27.11,0,0,0,41.3,54.6L45,59.9"/><line class="cls-1" x1="47.06" y1="99.99" x2="64" y2="75.72"/><line class="cls-1" x1="39.71" y1="110.51" x2="42.42" y2="106.64"/></svg>