<svg id="Layer_1" data-name="Layer 1" xmlns="http://www.w3.org/2000/svg" viewBox="0 0 128 128"><defs><style>.cls-1{fill:none;stroke:#000;stroke-linecap:round;stroke-linejoin:round;stroke-width:2px;}</style></defs><title>iStar_Design_Medicine_LineIcons_Live-21</title><path class="cls-1" d="M45.37,23a39.36,39.36,0,0,1,74.06,19.59c-.37,14.49-9.43,29.77-21.8,36.22l-.62.29A27.7,27.7,0,0,0,81.22,105h0c-.5,10.18-8.72,18.63-18.95,20.44A23.5,23.5,0,0,1,34.5,102.34"/><path class="cls-1" d="M63.25,55.21A20.9,20.9,0,1,1,98.92,40.44"/><path class="cls-1" d="M80.64,38.15A21.65,21.65,0,0,0,70,35.38"/><path class="cls-1" d="M85.4,41.75a21.75,21.75,0,0,1,6.4,15.43,21.44,21.44,0,0,1-9,17.64,14.07,14.07,0,0,1-3.92,1.94L71.92,79a9.7,9.7,0,0,0-6.33,6.62l-1,3.62a9,9,0,0,1-1.73,3.46A9.79,9.79,0,0,1,53.94,96a9.69,9.69,0,0,1-8.16-8.39,9.55,9.55,0,0,1,2.76-8"/><path class="cls-1" d="M25.53,82.66a75.33,75.33,0,0,0,3.23-22.13A75.33,75.33,0,0,0,25.53,38.4"/><path class="cls-1" d="M16.38,77a55.78,55.78,0,0,0,2.41-16.46,55.78,55.78,0,0,0-2.41-16.46"/><path class="cls-1" d="M8.56,69.43a59.26,59.26,0,0,0,.67-8.86,59.06,59.06,0,0,0-.67-8.86"/><path class="cls-1" d="M106.24,24.57A29.28,29.28,0,0,1,111.29,38"/><path class="cls-1" d="M100.53,18.45a29.94,29.94,0,0,1,2.7,2.46"/></svg>