<svg id="Layer_1" data-name="Layer 1" xmlns="http://www.w3.org/2000/svg" viewBox="0 0 128 128"><defs><style>.cls-1,.cls-2,.cls-3{fill:none;stroke:#000;stroke-linecap:round;stroke-linejoin:round;stroke-width:2px;}.cls-2{stroke-dasharray:2 3.99;}.cls-3{stroke-dasharray:1.92 3.84;}</style></defs><title>iStar_Design_Medicine_LineIcons_Live-46</title><path class="cls-1" d="M75.94,18.52v3a21.79,21.79,0,0,0,3.54,11.14c2.31,3.21,4.54,4.57,14.57,6.19s12.1,5.17,14.3,8.41,4,17.14,0,30.41-2.68,27.82,2.35,42.38"/><path class="cls-1" d="M66.09,11.66a1.56,1.56,0,0,0-1.33.13,1.15,1.15,0,0,1-.62.17,1.21,1.21,0,0,1-.63-.17,1.56,1.56,0,0,0-1.33-.13,5.69,5.69,0,0,0-3,2.51,5.72,5.72,0,0,0,9.9,0A5.75,5.75,0,0,0,66.09,11.66Z"/><path class="cls-1" d="M52.06,18.52v3a21.79,21.79,0,0,1-3.54,11.14C46.21,35.83,44,37.19,34,38.81S21.85,44,19.65,47.22s-3.95,17.14,0,30.41S22.33,105.45,17.3,120"/><path class="cls-1" d="M83.59,2.17V4.65a14.8,14.8,0,0,1-4.7,10.82l-9.52,8.88a5.81,5.81,0,0,1-4,1.57H62.88a5.78,5.78,0,0,1-4-1.57l-9.52-8.88a14.8,14.8,0,0,1-4.7-10.82V2.17"/><line class="cls-1" x1="32.98" y1="54.34" x2="32.98" y2="63.39"/><path class="cls-1" d="M60.47,74.5A15.75,15.75,0,1,1,35.92,61.44"/><path class="cls-1" d="M34.68,92.19s5.59,18.44,0,33.64"/><path class="cls-1" d="M46.16,75.4a2.47,2.47,0,1,1-4.93,0,2.38,2.38,0,0,1,.19-1"/><path class="cls-1" d="M44.22,42.53h9.7a4,4,0,0,1,4,4"/><line class="cls-1" x1="95.02" y1="54.34" x2="95.02" y2="63.39"/><path class="cls-1" d="M67.53,74.5A15.75,15.75,0,1,0,92.08,61.44"/><path class="cls-1" d="M93.32,92.19s-5.59,18.44,0,33.64"/><path class="cls-1" d="M81.84,75.4a2.47,2.47,0,1,0,4.93,0,2.38,2.38,0,0,0-.19-1"/><path class="cls-1" d="M83.78,42.53h-9.7a4,4,0,0,0-4,4"/><path class="cls-1" d="M85.26,54.43c-.34,0-.67-.06-1-.07"/><path class="cls-2" d="M80.27,54.55a20.63,20.63,0,0,0-13.39,7.9,3.28,3.28,0,0,1-5.25,0,20.59,20.59,0,0,0-15.38-8.09"/><path class="cls-1" d="M44.25,54.36c-.33,0-.66,0-1,.07"/><path class="cls-1" d="M45.24,97.78c.33,0,.67,0,1,0"/><path class="cls-3" d="M50,97.22a20.76,20.76,0,0,0,6.76-3,13.18,13.18,0,0,1,14.93,0,20.33,20.33,0,0,0,8.64,3.33"/><path class="cls-1" d="M82.27,97.75c.33,0,.67,0,1,0"/><path class="cls-1" d="M62.66,6.18a4.67,4.67,0,0,0,1.5.24,4.76,4.76,0,0,0,1.5-.24"/></svg>