<svg id="Layer_1" data-name="Layer 1" xmlns="http://www.w3.org/2000/svg" viewBox="0 0 128 128"><defs><style>.cls-1{fill:none;stroke:#000;stroke-linecap:round;stroke-linejoin:round;stroke-width:2px;}</style></defs><title>iStar_Design_Medicine_LineIcons_Live-59</title><line class="cls-1" x1="92.41" y1="21.32" x2="92.41" y2="53.16"/><polyline class="cls-1" points="67.87 53.16 67.87 21.32 84.85 21.32"/><path class="cls-1" d="M92.39,53.16l31.77,49.68A12.22,12.22,0,0,1,113.46,121H46.82a12.22,12.22,0,0,1-10.7-18.13L67.86,53.16"/><path class="cls-1" d="M112.35,114a5.65,5.65,0,0,0,4.77-8.68L92.41,66.15s-3.25,9.6-17.87,3.91C68,67.52,62.42,74.56,58.69,80.51L43.16,105.29A5.65,5.65,0,0,0,47.92,114H91.5"/><line class="cls-1" x1="98.16" y1="113.97" x2="105.21" y2="113.97"/><line class="cls-1" x1="72.32" y1="103.01" x2="72.32" y2="103.01"/><line class="cls-1" x1="102.86" y1="97.14" x2="102.86" y2="97.14"/><line class="cls-1" x1="84.84" y1="87.05" x2="84.84" y2="87.05"/><line class="cls-1" x1="84.85" y1="55.58" x2="84.85" y2="55.58"/><line class="cls-1" x1="74.67" y1="63.08" x2="74.67" y2="63.08"/><path class="cls-1" d="M91.5,101.78a2.35,2.35,0,1,1-2.34-2.35A2.35,2.35,0,0,1,91.5,101.78Z"/><circle class="cls-1" cx="62.53" cy="97.87" r="3.92"/><line class="cls-1" x1="84.85" y1="28.76" x2="84.85" y2="47.56"/><rect class="cls-1" x="62.53" y="7.03" width="35.63" height="7.63" rx="3.58" ry="3.58"/><path class="cls-1" d="M51.64,78.54a28.23,28.23,0,0,0-14.51-8.65V41.62h1.64a3.66,3.66,0,0,0,0-7.32H22.38a3.66,3.66,0,0,0,0,7.32H24V69.89A28.27,28.27,0,0,0,15,121H35"/><line class="cls-1" x1="37.13" y1="41.62" x2="31.19" y2="41.62"/><path class="cls-1" d="M40.85,95.46a18.46,18.46,0,0,0-3.5-.34,18.18,18.18,0,0,0-9.16,2.47,13.68,13.68,0,0,1-13.67,0,18.12,18.12,0,0,0-12-2.24"/><line class="cls-1" x1="25.34" y1="111.23" x2="25.34" y2="111.23"/><line class="cls-1" x1="12.42" y1="107.71" x2="12.42" y2="107.71"/><path class="cls-1" d="M11.38,87.25a18.69,18.69,0,0,1,7.89-7.39"/></svg>