<svg id="Layer_1" data-name="Layer 1" xmlns="http://www.w3.org/2000/svg" viewBox="0 0 128 128"><defs><style>.cls-1{fill:none;stroke:#000;stroke-linecap:round;stroke-linejoin:round;stroke-width:2px;}</style></defs><title>iStar_Design_Medicine_LineIcons_Live-84</title><path class="cls-1" d="M31.18,46.6c-.72,3.18-5.3,4.85-10.22,3.73s-8.31-4.61-7.59-7.79,5.3-4.86,10.22-3.74S31.91,43.41,31.18,46.6Z"/><path class="cls-1" d="M64,57.28c.44-5.91-3.57-10.74-5.72-18.27s-11.64-9.74-11.64-9.74l4.43-1.13a52.12,52.12,0,0,1,25-.15l5.28,1.28S71.87,31.49,69.72,39,63.56,51.37,64,57.28"/><path class="cls-1" d="M61.15,104.93C61,92,56.53,72.87,56.53,72.87h0a11.13,11.13,0,0,0,14.94,0h0S67,92,66.85,104.93Z"/><path class="cls-1" d="M96.82,46.6c.72,3.18,5.3,4.85,10.22,3.73s8.31-4.61,7.59-7.79-5.3-4.86-10.22-3.74S96.09,43.41,96.82,46.6Z"/><path class="cls-1" d="M113.12,40.2a9.3,9.3,0,0,0,4.42-3.69c2.15-3,2.93-8.42-2.21-7.53a39.76,39.76,0,0,0-15.52,6.63c-4.83,3.4-5.19,3-7.34,2.15s-8.24-6.43-9-3.22-2.15,12.89-6.09,17.55A13.61,13.61,0,0,0,75.55,55a12.59,12.59,0,0,0-.39,9.55,16.76,16.76,0,0,1,1,6.54c-.36,4.3-3,10.39-2.87,14.51s-3.58,24-3.58,24h0a31,31,0,0,0-10.86-.09l-.58.09s-3.76-19.88-3.58-24-2.51-10.21-2.87-14.51a16.76,16.76,0,0,1,1-6.54A12.59,12.59,0,0,0,52.45,55a13.61,13.61,0,0,0-1.87-2.89c-3.94-4.66-5.38-14.33-6.09-17.55s-6.81,2.32-9,3.22S33,39,28.19,35.61A39.76,39.76,0,0,0,12.67,29c-5.14-.89-4.36,4.48-2.21,7.53a9.3,9.3,0,0,0,4.42,3.69"/><path class="cls-1" d="M113.31,46.8l5.89,4s5.51-10.21,6.76-15.59S124.89,25.1,121.84,24a21.64,21.64,0,0,0-13,.72c-6.25,2.38-10.28,7.09-14.36,6.83s-7.72-5.81-12.74-9-10-4.12-17.28-4.12h-.88c-7.26,0-12.27.89-17.28,4.12s-8.69,8.79-12.74,9c-3.82.22-7.45-4.19-13.38-6.46C14,22.74,7.71,23.47,6.16,24,3.11,25.1.78,29.88,2,35.25S8.8,50.84,8.8,50.84l5.89-4"/><line class="cls-1" x1="64" y1="75.75" x2="64" y2="56.43"/><path class="cls-1" d="M45.15,37.81c-.67.63-7.53,6.93-14,6.76"/><path class="cls-1" d="M82.85,37.81c.67.63,7.53,6.93,14,6.76"/></svg>