<svg id="Layer_1" data-name="Layer 1" xmlns="http://www.w3.org/2000/svg" viewBox="0 0 128 128"><defs><style>.cls-1{fill:none;stroke:#000;stroke-linecap:round;stroke-linejoin:round;stroke-width:2px;}</style></defs><title>iStar_Design_Medicine_LineIcons_Live-60</title><path class="cls-1" d="M55.14,18.83a26.65,26.65,0,0,1,10.93,6.62"/><path class="cls-1" d="M80,50.75a33.41,33.41,0,1,1-.11-13.31"/><line class="cls-1" x1="2.3" y1="70.78" x2="20.74" y2="89.22"/><line class="cls-1" x1="23.52" y1="68" x2="2.3" y2="89.22"/><path class="cls-1" d="M48,71.67a33.42,33.42,0,1,1-.15,11.94"/><line class="cls-1" x1="104.48" y1="54.42" x2="125.7" y2="33.2"/><polyline class="cls-1" points="112.49 33.2 125.7 33.2 125.7 46.41"/><path class="cls-1" d="M23.88,9.8c.69-.45,1.39-.89,2.11-1.3"/><path class="cls-1" d="M9.6,25.85A41.69,41.69,0,0,1,20.51,12.29"/><path class="cls-1" d="M59.1,113.23a42.19,42.19,0,0,1-4-2.8"/><path class="cls-1" d="M81.11,119.5a41.49,41.49,0,0,1-16.91-3.57"/></svg>