<svg id="Layer_1" data-name="Layer 1" xmlns="http://www.w3.org/2000/svg" viewBox="0 0 128 128"><defs><style>.cls-1{fill:none;stroke:#000;stroke-linecap:round;stroke-linejoin:round;stroke-width:2px;}</style></defs><title>iStar_Design_Medicine_LineIcons_Live-93</title><line class="cls-1" x1="64" y1="114.49" x2="64" y2="123.43"/><line class="cls-1" x1="50.39" y1="112.98" x2="44.03" y2="119.33"/><line class="cls-1" x1="77.61" y1="112.98" x2="83.97" y2="119.33"/><path class="cls-1" d="M39.54,62c-4.9,8.26-15.72,14-16.35,22.81-1,14.73,12.62,19.29,23.42,17.14"/><path class="cls-1" d="M43.87,52a39.25,39.25,0,0,1-1.6,5.07"/><path class="cls-1" d="M81.39,101.94c10.8,2.15,24.46-2.41,23.42-17.14C104.18,76,93.4,70.22,88.46,62c-.48-.8-1.46-2.4-1.92-3.21-4.91-8.55-5.81-35-12.17-47.79a11,11,0,0,0-9.8-6.42H63.43A11,11,0,0,0,53.63,11c-4.5,9-6.34,24.85-8.72,36.4"/><path class="cls-1" d="M88.42,71a36,36,0,0,1-4.89-6.19"/><path class="cls-1" d="M94.9,77.76c-.82-.94-1.71-1.86-2.62-2.79"/><path class="cls-1" d="M36.8,96.9c-2.47-1.68-2.47-3.28-1.85-4.47a3.35,3.35,0,0,1,3.82-1.6c7.42,2,8.57,10.73,23.65,10.73h2.89c15.07,0,16.22-8.76,23.64-10.73a3.36,3.36,0,0,1,3.83,1.6c.62,1.19.62,2.79-1.86,4.47"/></svg>