<svg id="Layer_1" data-name="Layer 1" xmlns="http://www.w3.org/2000/svg" viewBox="0 0 128 128"><defs><style>.cls-1{fill:none;stroke:#000;stroke-linecap:round;stroke-linejoin:round;stroke-width:2px;}</style></defs><title>iStar_Design_Medicine_LineIcons_Live-4</title><circle class="cls-1" cx="64" cy="16.87" r="5.96"/><path class="cls-1" d="M64,32.18c-8.5,0-9.83-9.1-9.83-9.1s-2-11.5-17-2.16S1.65,32.18,1.65,32.18,4.51,35.82,11,36.25c12.67.83,25.5-5.75,25.5-5.75a7.41,7.41,0,0,0,11,6.51c1.78,4.08,5.47,8.2,16.42,6.93"/><path class="cls-1" d="M39.79,36.66s-11.68,4.55-17.7,5.2-8.43-.64-10.44-2.41c-.9-.79-3.2-3.56-3.2-3.56"/><path class="cls-1" d="M50.22,41.3s-11.69,4.54-17.71,5.19-8.38-.7-10.44-2.41C21.51,43.61,20,42,20,42"/><path class="cls-1" d="M63.89,43.94s-14.61,5.87-20.62,6.52-8.4-.68-10.44-2.41c-.37-.32-1.36-1.39-1.36-1.39"/><path class="cls-1" d="M64,32.18c8.5,0,9.83-9.1,9.83-9.1s2-11.5,17-2.16,35.52,11.26,35.52,11.26-2.86,3.64-9.35,4.07c-12.67.83-25.5-5.75-25.5-5.75a7.41,7.41,0,0,1-11,6.51c-1.78,4.08-5.47,8.2-16.42,6.93"/><path class="cls-1" d="M88.21,36.66s11.68,4.55,17.7,5.2,8.43-.64,10.44-2.41c.9-.79,3.2-3.56,3.2-3.56"/><path class="cls-1" d="M77.78,41.3s11.69,4.54,17.71,5.19,8.38-.7,10.44-2.41C106.49,43.61,108,42,108,42"/><path class="cls-1" d="M64.11,43.94s14.61,5.87,20.62,6.52,8.4-.68,10.44-2.41c.37-.32,1.36-1.39,1.36-1.39"/><path class="cls-1" d="M64,98.37a10,10,0,0,1-7-17.18"/><path class="cls-1" d="M64,78.37A10,10,0,0,1,70.44,96"/><path class="cls-1" d="M64,98.37a6.83,6.83,0,1,1-5.65,3"/><path class="cls-1" d="M60.25,53.15a12.91,12.91,0,1,0,7.5,0"/><line class="cls-1" x1="64" y1="112.01" x2="64" y2="117.08"/><line class="cls-1" x1="64" y1="83.51" x2="64" y2="108.01"/><line class="cls-1" x1="64" y1="22.83" x2="64" y2="78.37"/></svg>