<svg id="Layer_1" data-name="Layer 1" xmlns="http://www.w3.org/2000/svg" viewBox="0 0 128 128"><defs><style>.cls-1{fill:none;stroke:#000;stroke-linecap:round;stroke-linejoin:round;stroke-width:2px;}</style></defs><title>iStar_Design_Medicine_LineIcons_Live-73</title><path class="cls-1" d="M58.56,43.93l-.84-.69L45.61,55.35l.69.85A51,51,0,0,1,57.82,88.93,33.87,33.87,0,1,0,91.93,55.45,53.14,53.14,0,0,1,58.56,43.93Z"/><line class="cls-1" x1="115.57" y1="65.42" x2="67.79" y2="113.21"/><line class="cls-1" x1="79.19" y1="108.85" x2="72.17" y2="115.87"/><line class="cls-1" x1="118.24" y1="69.8" x2="84.64" y2="103.4"/><polyline class="cls-1" points="48.24 52.72 7.22 8.12 10.49 4.85 55.09 45.88"/><line class="cls-1" x1="61.49" y1="46.13" x2="54.99" y2="52.63"/><line class="cls-1" x1="17.44" y1="11.23" x2="13.6" y2="15.08"/><path class="cls-1" d="M10.42,27.07a4,4,0,1,1-8,0c0-2.2,4-7,4-7S10.42,24.87,10.42,27.07Z"/><path class="cls-1" d="M15.18,48.07a4,4,0,1,1-8,0c0-2.19,4-7,4-7S15.18,45.88,15.18,48.07Z"/></svg>