<svg id="Layer_1" data-name="Layer 1" xmlns="http://www.w3.org/2000/svg" viewBox="0 0 128 128"><defs><style>.cls-1{fill:none;stroke:#000;stroke-linecap:round;stroke-linejoin:round;stroke-width:2px;}</style></defs><title>iStar_Design_Medicine_LineIcons_Live-64</title><path class="cls-1" d="M52.68,51.83a38.73,38.73,0,0,0,22.1,0"/><path class="cls-1" d="M54.46,40.08a27.49,27.49,0,0,0,18.54,0"/><path class="cls-1" d="M57.23,63.91a22.71,22.71,0,0,0,13,0"/><path class="cls-1" d="M60.43,76A21.91,21.91,0,0,0,67,76"/><path class="cls-1" d="M47.12,31A25,25,0,1,0,14.38,67.33"/><path class="cls-1" d="M14.38,67.33c5.3,3.19,7.18-1.79,3.85-4.61A19.14,19.14,0,1,1,44.11,34.56"/><path class="cls-1" d="M59.31,70.43c-4.63-1-6-2.31-7.59-9.84s-3.8-6.36-8.62-11.93,1-14.1,4-15.8,2.92,0,5.56,2.66c-.83-5.59,3.11-6.34,4-4.24a7,7,0,0,0,6.68,4.24h1.3a7,7,0,0,0,6.68-4.24c.88-2.1,4.82-1.35,4,4.24,2.64-2.66,2.55-4.36,5.56-2.66s8.84,10.23,4,15.8-7,4.41-8.62,11.93-3,8.88-7.59,9.84"/><path class="cls-1" d="M19.57,67.83s4.71,4.23,5,7.23"/><path class="cls-1" d="M80.88,31a25,25,0,1,1,32.74,36.38"/><path class="cls-1" d="M113.62,67.33c-5.3,3.19-7.18-1.79-3.85-4.61A19.14,19.14,0,1,0,83.89,34.56"/><path class="cls-1" d="M80.08,53.25c1.52,3.57,6.66,3.11,6.66,3.11,4.14-.78,5.11,8.67,2.6,14.07s-8.87,6.95-12.15,9.84-6.36,6.36-12.92,6.17h-.54c-6.56.19-9.64-3.28-12.92-6.17s-9.64-4.44-12.15-9.84-1.54-14.85,2.6-14.07c0,0,5.14.46,6.66-3.11"/><path class="cls-1" d="M91.65,73.76s8.16-3.91,11.75,1.3c.95,5.06-4.08,4.48-5,6.94s-.29,5.93-3.18,7.09c1.59,3.47,2.85,11.65-2.75,15.77-4.92,3.61-11.43,2.17-14,.86s-7.4-6.24-9.08-7.66c-3.07-2.6-5.14-2.46-5.14-2.46h-.54s-2.07-.14-5.14,2.46c-1.68,1.42-6.48,6.36-9.08,7.66s-9.11,2.75-14-.86c-5.6-4.12-4.34-12.3-2.75-15.77-2.89-1.16-2.31-4.63-3.18-7.09s-5.9-1.88-4.95-6.94c3.59-5.21,11.75-1.3,11.75-1.3"/><path class="cls-1" d="M108.43,67.83s-4.71,4.23-5,7.23"/><path class="cls-1" d="M60.78,91.39a29.41,29.41,0,0,1-9.34-4.32c-5.35-3.91-9.55,1.15-9.55,1.15s-.49,8.87,6.51,10.13c5.64,1,9.1-8,9.1-8"/><line class="cls-1" x1="60.78" y1="86.29" x2="60.78" y2="96.49"/><path class="cls-1" d="M67.22,91.39a29.41,29.41,0,0,0,9.34-4.32c5.35-3.91,9.55,1.15,9.55,1.15s.49,8.87-6.51,10.13c-5.64,1-9.1-8-9.1-8"/><line class="cls-1" x1="67.22" y1="86.29" x2="67.22" y2="96.49"/></svg>