<svg id="Layer_1" data-name="Layer 1" xmlns="http://www.w3.org/2000/svg" viewBox="0 0 128 128"><defs><style>.cls-1{fill:none;stroke:#000;stroke-linecap:round;stroke-linejoin:round;stroke-width:2px;}</style></defs><title>iStar_Design_Medicine_LineIcons_Live-94</title><path class="cls-1" d="M73.6,51.42a4.27,4.27,0,1,1-4.27-4.27A4.27,4.27,0,0,1,73.6,51.42Z"/><circle class="cls-1" cx="55.29" cy="65.76" r="3.5"/><path class="cls-1" d="M72.24,65.52A2.22,2.22,0,1,1,70,63.31,2.22,2.22,0,0,1,72.24,65.52Z"/><line class="cls-1" x1="57.03" y1="47.42" x2="57.03" y2="47.42"/><line class="cls-1" x1="51.96" y1="55.46" x2="51.96" y2="55.46"/><line class="cls-1" x1="62.07" y1="74.67" x2="62.07" y2="74.67"/><line class="cls-1" x1="79.25" y1="60.51" x2="79.25" y2="60.51"/><path class="cls-1" d="M97.72,58.41a4.22,4.22,0,0,0-4.26-3.7H90.19a2.92,2.92,0,0,1-1.46-5.44l2.84-1.64a4.22,4.22,0,0,0,1.84-5.33,4.11,4.11,0,0,0-5.79-1.86l-3,1.73a2.92,2.92,0,0,1-4-4l1.62-2.8a4.25,4.25,0,0,0-1.2-5.68,4.1,4.1,0,0,0-5.79,1.38l-1.73,3a2.91,2.91,0,0,1-5.44-1.45V29.35a4.22,4.22,0,0,0-3.7-4.26,4.1,4.1,0,0,0-4.5,4.08v3.46a2.91,2.91,0,0,1-5.44,1.45l-1.64-2.83a4.21,4.21,0,0,0-5.33-1.84,4.09,4.09,0,0,0-1.86,5.78l1.73,3a2.92,2.92,0,0,1-4,4l-2.79-1.61a4.26,4.26,0,0,0-5.69,1.19,4.11,4.11,0,0,0,1.39,5.79l3,1.73a2.91,2.91,0,0,1-1.46,5.44H34.54a4.22,4.22,0,0,0-4.26,3.7,4.09,4.09,0,0,0,4.08,4.5h3.45a2.91,2.91,0,0,1,1.46,5.44L36.43,70a4.23,4.23,0,0,0-1.84,5.33,4.1,4.1,0,0,0,5.79,1.86l3-1.72a2.92,2.92,0,0,1,4,4l-1.62,2.79a4.26,4.26,0,0,0,1.2,5.69,4.1,4.1,0,0,0,5.79-1.39l1.73-3A2.92,2.92,0,0,1,59.9,85v3.28a4.21,4.21,0,0,0,3.7,4.25,4.1,4.1,0,0,0,4.5-4.08V85a2.92,2.92,0,0,1,5.44-1.46l1.64,2.84a4.22,4.22,0,0,0,5.33,1.84,4.1,4.1,0,0,0,1.86-5.79l-1.73-3a2.92,2.92,0,0,1,4-4l2.79,1.61a4.26,4.26,0,0,0,5.69-1.2,4.11,4.11,0,0,0-1.39-5.79l-3-1.73a2.91,2.91,0,0,1,1.46-5.44h3.45A4.09,4.09,0,0,0,97.72,58.41Z"/><path class="cls-1" d="M64,3.34A94.83,94.83,0,0,0,12.16,18.56V72.82c0,28.63,51.84,51.84,51.84,51.84h0s51.84-23.21,51.84-51.84V18.56A94.83,94.83,0,0,0,64,3.34Z"/><path class="cls-1" d="M64,10.45A82.23,82.23,0,0,0,19.07,23.64V71.58C19.07,96.39,64,116.51,64,116.51h0s44.93-20.12,44.93-44.93V23.64A82.23,82.23,0,0,0,64,10.45Z"/><path class="cls-1" d="M73.6,17.65c-1.41-.2-2.83-.37-4.27-.5"/><path class="cls-1" d="M101.47,26.9a82,82,0,0,0-20.92-8"/></svg>