<svg id="Layer_1" data-name="Layer 1" xmlns="http://www.w3.org/2000/svg" viewBox="0 0 128 128"><defs><style>.cls-1{fill:none;stroke:#2a7337;stroke-linecap:round;stroke-linejoin:round;stroke-width:2px;}</style></defs><title>iStar_Design_Medicine_LineIcons_Live-15</title><rect class="cls-1" x="82.61" y="1.53" width="17.8" height="21.88" rx="8.03" ry="8.03" transform="translate(183.02 24.95) rotate(180)"/><rect class="cls-1" x="51.46" y="1.53" width="17.8" height="21.88" rx="8.03" ry="8.03" transform="translate(120.72 24.95) rotate(180)"/><path class="cls-1" d="M85,20.94l-2.3,2.64a6.36,6.36,0,0,0-1.56,3.92L78.25,99.86,74,105.47v21"/><path class="cls-1" d="M66.86,20.94l2.32,2.65a6.4,6.4,0,0,1,1.56,3.89L74,99"/><line class="cls-1" x1="70.22" y1="25.26" x2="81.64" y2="25.26"/><line class="cls-1" x1="77.71" y1="126.47" x2="77.71" y2="107.81"/><path class="cls-1" d="M103.85,54V121.1a4.43,4.43,0,0,0,4.41,4.42h0a4.43,4.43,0,0,0,4.41-4.42V50.72l-1.09-2.2V24.78l-3.75,1.78a6.61,6.61,0,0,0-3.74,5.94v9.81S109.09,46.3,103.85,54Z"/><path class="cls-1" d="M46.77,124.83l1.35-1.25A25.31,25.31,0,0,0,56.21,105h0a25.31,25.31,0,0,0-1.08-7.33L37.32,38.87V10.12h-3.1V38.87L16.41,97.7A25.31,25.31,0,0,0,15.33,105h0a25.31,25.31,0,0,0,8.09,18.55l1.35,1.25"/><line class="cls-1" x1="109.32" y1="66.08" x2="107.2" y2="64.11"/><line class="cls-1" x1="109.32" y1="71.01" x2="107.2" y2="69.04"/><line class="cls-1" x1="109.32" y1="75.94" x2="107.2" y2="73.98"/></svg>