<svg id="Layer_1" data-name="Layer 1" xmlns="http://www.w3.org/2000/svg" viewBox="0 0 128 128"><defs><style>.cls-1{fill:none;stroke:#000;stroke-linecap:round;stroke-linejoin:round;stroke-width:2px;}</style></defs><title>iStar_Design_Medicine_LineIcons_Live-18</title><path class="cls-1" d="M74.66,20.16a14,14,0,0,0,.64-4.24c0-7-5.06-12.28-11.3-12.28S52.7,8.9,52.7,15.92a14,14,0,0,0,.64,4.24,3.31,3.31,0,0,0,.88,5.91c1.62,4.84,5.39,8.23,9.78,8.23s8.16-3.39,9.78-8.23a3.31,3.31,0,0,0,.88-5.91Z"/><path class="cls-1" d="M69.57,13.94,69,11.14s-1.14,0-3.07,1.7a7.09,7.09,0,0,1-8.43.76"/><rect class="cls-1" x="12.95" y="41.73" width="102.1" height="67.63"/><polyline class="cls-1" points="20.11 54.68 20.11 48.93 25.85 48.93"/><polyline class="cls-1" points="25.85 102.17 20.11 102.17 20.11 96.42"/><polyline class="cls-1" points="107.89 96.42 107.89 102.17 102.15 102.17"/><polyline class="cls-1" points="102.15 48.93 107.89 48.93 107.89 54.68"/><line class="cls-1" x1="64" y1="53.88" x2="64" y2="91.49"/><line class="cls-1" x1="64" y1="99.1" x2="64.01" y2="99.1"/><line class="cls-1" x1="64" y1="95.92" x2="64.01" y2="95.92"/><line class="cls-1" x1="64" y1="50.39" x2="64.01" y2="50.39"/><line class="cls-1" x1="64" y1="47.21" x2="64.01" y2="47.21"/><path class="cls-1" d="M58.54,56.26H49.65a2,2,0,0,0-2,2.05h0"/><path class="cls-1" d="M58.54,71.6H48.44a2,2,0,0,0-2,2h0"/><path class="cls-1" d="M58.54,63.93H47.23a2,2,0,0,0-2,2.05h0"/><path class="cls-1" d="M69.46,56.26h8.89a2,2,0,0,1,2,2.05h0"/><path class="cls-1" d="M69.46,71.6h10.1a2,2,0,0,1,2,2h0"/><path class="cls-1" d="M58.54,79.26H49.65a2,2,0,0,0-2,2h0"/><path class="cls-1" d="M69.46,79.26h8.89a2,2,0,0,1,2,2h0"/><path class="cls-1" d="M69.46,63.93H80.77a2,2,0,0,1,2,2.05h0"/><path class="cls-1" d="M58.54,89H50.28a2.66,2.66,0,0,0-2.67,2.67h0a2.68,2.68,0,0,0,1.15,2.2l5.32,3.67a2.84,2.84,0,0,0,1.61.5h0a2.85,2.85,0,0,0,2.85-2.84V94.3"/><path class="cls-1" d="M69.46,89h8.26a2.66,2.66,0,0,1,2.67,2.67h0a2.68,2.68,0,0,1-1.15,2.2l-5.32,3.67a2.84,2.84,0,0,1-1.61.5h0a2.85,2.85,0,0,1-2.85-2.84V94.3"/><line class="cls-1" x1="49.17" y1="109.37" x2="49.17" y2="124.36"/><line class="cls-1" x1="78.83" y1="109.37" x2="78.83" y2="124.36"/><line class="cls-1" x1="64.15" y1="109.37" x2="64.15" y2="124.36"/></svg>