<svg id="Layer_1" data-name="Layer 1" xmlns="http://www.w3.org/2000/svg" viewBox="0 0 128 128"><defs><style>.cls-1{fill:none;stroke:#000;stroke-linecap:round;stroke-linejoin:round;stroke-width:2px;}</style></defs><title>iStar_Design_Medicine_LineIcons_Live-34</title><path class="cls-1" d="M32.92,96.45A11.21,11.21,0,0,1,29.07,88V45.51A3.53,3.53,0,0,1,32.6,42h36a3.53,3.53,0,0,1,3.53,3.53V88A11.23,11.23,0,0,1,60.86,99.21H40.3"/><path class="cls-1" d="M39.28,99.21h0a7.55,7.55,0,0,0,7.54,7.54h7.52a7.55,7.55,0,0,0,7.54-7.54h0"/><line class="cls-1" x1="29.53" y1="81.89" x2="38.86" y2="81.89"/><line class="cls-1" x1="29.53" y1="68.33" x2="38.86" y2="68.33"/><line class="cls-1" x1="29.53" y1="56.47" x2="38.86" y2="56.47"/><line class="cls-1" x1="29.53" y1="74.83" x2="32.93" y2="74.83"/><line class="cls-1" x1="29.53" y1="62.12" x2="32.93" y2="62.12"/><path class="cls-1" d="M49.59,64.38l-3.65,7.06a4.47,4.47,0,0,0,4,6.52h0a4.47,4.47,0,0,0,3.82-6.78Z"/><line class="cls-1" x1="65.95" y1="84.08" x2="65.95" y2="59.66"/><path class="cls-1" d="M39.21,125.67h0a11.47,11.47,0,0,0,11.3-11.5v-7.42"/><line class="cls-1" x1="34.2" y1="37.78" x2="65.95" y2="37.78"/><path class="cls-1" d="M56.23,37.78V30.21a4.73,4.73,0,0,0-4.73-4.73H50.16a4.73,4.73,0,0,0-4.73,4.73v2.9"/><line class="cls-1" x1="56.23" y1="30.88" x2="91.56" y2="30.88"/><path class="cls-1" d="M91.56,125.67V29.17a3.69,3.69,0,0,1,3.68-3.69h0a3.69,3.69,0,0,1,3.69,3.69v96.5"/><path class="cls-1" d="M49.9,25.41a23.08,23.08,0,0,1,46.16,0"/><line class="cls-1" x1="50.07" y1="92.82" x2="70.98" y2="92.82"/><line class="cls-1" x1="65.95" y1="49" x2="65.95" y2="53.19"/></svg>