<svg id="Layer_1" data-name="Layer 1" xmlns="http://www.w3.org/2000/svg" viewBox="0 0 128 128"><defs><style>.cls-1{fill:none;stroke:#000;stroke-linecap:round;stroke-linejoin:round;stroke-width:2px;}</style></defs><title>iStar_Design_Medicine_LineIcons_Live-42</title><path class="cls-1" d="M11.2,60.28a33.92,33.92,0,0,1,.41-5.7,28,28,0,0,1,1.16-4.75,22.68,22.68,0,0,1,2-4.42"/><path class="cls-1" d="M12.59,70.24a41.17,41.17,0,0,1-.88-4.1"/><path class="cls-1" d="M12,86A49.28,49.28,0,0,1,6.26,72.64c-4.94-18.38,1-36,13.33-39.27,5.6-1.5,11.55.22,16.84,4.27a3.9,3.9,0,0,0,4.74,0c5.29-4,11.24-5.77,16.84-4.27C67.49,35.92,73.2,47,73.07,60.28"/><path class="cls-1" d="M33.38,41.4a26.9,26.9,0,0,1,3,2,3.93,3.93,0,0,0,4.74,0,29.29,29.29,0,0,1,8.88-4.58"/><path class="cls-1" d="M96,81.12l-.33-8.25c-.58,2.17-4.14,3.67-8,3.34-4.77-.42-8-3-7.31-5.69.91-3.4,6.48-5.73,12.43-5.21,7.45.65,12.56,4.62,11.42,8.88-1.43,5.31-10.12,9-19.43,8.15-11.63-1-19.62-7.23-17.83-13.88,2.22-8.3,15.81-14,30.35-12.73C115.47,57.32,128,67,125.17,77.4c-3.48,13-25.1,24.51-47.43,19.9C59.12,93.46,34.37,83,2.44,86.67v21.39c31.93-3.72,56.68,6.8,75.3,10.64,22.33,4.61,44-6.93,47.43-19.9V77.66"/><line class="cls-1" x1="9.43" y1="86.64" x2="9.43" y2="107.31"/><line class="cls-1" x1="19.65" y1="98.07" x2="19.65" y2="106.58"/><line class="cls-1" x1="32.17" y1="99.2" x2="32.17" y2="107.71"/><line class="cls-1" x1="44.68" y1="101.66" x2="44.68" y2="110.17"/><line class="cls-1" x1="57.2" y1="104.79" x2="57.2" y2="113.3"/><line class="cls-1" x1="69.71" y1="107.76" x2="69.71" y2="116.27"/><line class="cls-1" x1="94.74" y1="110.11" x2="94.74" y2="118.62"/><line class="cls-1" x1="82.23" y1="110.11" x2="82.23" y2="118.62"/><line class="cls-1" x1="90.37" y1="91.42" x2="90.37" y2="97.56"/><line class="cls-1" x1="77.85" y1="90.63" x2="77.85" y2="96.77"/><line class="cls-1" x1="107.25" y1="106.87" x2="107.25" y2="115.38"/><line class="cls-1" x1="119.77" y1="98.4" x2="119.77" y2="106.91"/><line class="cls-1" x1="80.36" y1="72.04" x2="80.36" y2="81.59"/><line class="cls-1" x1="104.29" y1="74.19" x2="104.29" y2="95.63"/><line class="cls-1" x1="66.82" y1="71.53" x2="66.82" y2="94.61"/><path class="cls-1" d="M61.47,93.19c1.06-1.7,3.65-5.71,5.35-9.07"/><path class="cls-1" d="M61.16,29.2c6.15-5.71,7.33-20.93,7.33-20.93S53.22,8.32,47.07,14,39.75,35,39.75,35"/><path class="cls-1" d="M39.75,35s5.57-9.58,17.69-17.81"/><polyline class="cls-1" points="36.67 33.26 34.31 16.3 39.22 15.54 38.8 21.61"/></svg>