<svg id="Layer_1" data-name="Layer 1" xmlns="http://www.w3.org/2000/svg" viewBox="0 0 128 128"><defs><style>.cls-1{fill:none;stroke:#000;stroke-linecap:round;stroke-linejoin:round;stroke-width:2px;}</style></defs><title>iStar_Design_Medicine_LineIcons_Live-30</title><path class="cls-1" d="M76.42,21.39a14.58,14.58,0,0,1-18,0"/><path class="cls-1" d="M31.22,8.6a24.15,24.15,0,0,1,8.15-1.41S45.61,7,50.5,9.06"/><path class="cls-1" d="M55.32,12.12a21.55,21.55,0,0,0,25.39-.84c.07,0,2.72-1.73,3.68-2.22,4.73-2.41,11.13-1.87,11.13-1.87a24.1,24.1,0,0,1,24.1,24.09c0,12.86-9.08,23.31-12.57,30.88-1.2,2.62-1.93,7.49-1.68,11.42.41,6.4,4.93,11.17,4.18,21.23-1.1,14.79-14.41,29.46-19.93,29.46-6.28,0-5.75-9.62-7.36-22-1.32-10.19-5-20.1-13.47-24.58a2.87,2.87,0,0,0-1.35-.33h0a2.86,2.86,0,0,0-1.34.33C57.58,82.15,54,92.06,52.63,102.25c-1.61,12.4-1.08,22-7.36,22-5.52,0-18.83-14.67-19.93-29.46C24.59,84.75,29.11,80,29.52,73.58c.25-3.93-.48-8.8-1.69-11.42-3.48-7.57-12.56-18-12.56-30.88a24.52,24.52,0,0,1,.26-3.55"/><path class="cls-1" d="M34.91,104a34.49,34.49,0,0,1-3-11.29"/><path class="cls-1" d="M40.22,113c-.88-1.18-1.74-2.43-2.55-3.76"/><path class="cls-1" d="M95.4,14.37S109,14.94,111.63,30"/><polygon class="cls-1" points="20.77 16.12 24.1 3.73 27.44 16.12 39.82 19.45 27.44 22.79 24.1 35.17 20.77 22.79 8.38 19.45 20.77 16.12"/></svg>