<svg id="Layer_1" data-name="Layer 1" xmlns="http://www.w3.org/2000/svg" viewBox="0 0 128 128"><defs><style>.cls-1{fill:none;stroke:#000;stroke-linecap:round;stroke-linejoin:round;stroke-width:2px;}</style></defs><title>iStar_Design_Medicine_LineIcons_Live-41</title><path class="cls-1" d="M83.94,31.79V26.37a3.48,3.48,0,0,0-3.17-3.54,3.35,3.35,0,0,0-3.54,3.35v5.61a7.07,7.07,0,0,1-2.71,5.57l-.47.37a9.55,9.55,0,0,0-3.66,7.52V56.68h20.4V45.25a9.53,9.53,0,0,0-3.67-7.52l-.46-.37A7,7,0,0,1,83.94,31.79Z"/><path class="cls-1" d="M90.79,56.68a2.59,2.59,0,0,1,2.59,2.59h0a2.59,2.59,0,0,1-2.59,2.6h-.93"/><path class="cls-1" d="M70.39,56.68a2.59,2.59,0,0,0-2.59,2.59h0a2.59,2.59,0,0,0,2.59,2.6h.93"/><path class="cls-1" d="M96.75,82.51a24,24,0,0,0-4.23,2.39,12.49,12.49,0,0,1-14.24,0,23.8,23.8,0,0,0-13.85-4.38"/><line class="cls-1" x1="75.09" y1="56.68" x2="75.09" y2="50.87"/><line class="cls-1" x1="80.59" y1="56.68" x2="80.59" y2="50.87"/><line class="cls-1" x1="86.08" y1="56.68" x2="86.08" y2="50.87"/><line class="cls-1" x1="87.54" y1="44.18" x2="90.72" y2="44.18"/><line class="cls-1" x1="70.45" y1="44.18" x2="83.46" y2="44.18"/><line class="cls-1" x1="90.79" y1="78.67" x2="90.79" y2="94.17"/><line class="cls-1" x1="90.79" y1="71.38" x2="90.79" y2="74.64"/><line class="cls-1" x1="30.62" y1="28.06" x2="30.62" y2="30.03"/><line class="cls-1" x1="30.62" y1="35.07" x2="30.62" y2="37.03"/><line class="cls-1" x1="30.62" y1="42.07" x2="30.62" y2="44.04"/><line class="cls-1" x1="30.62" y1="49.08" x2="30.62" y2="51.05"/><line class="cls-1" x1="30.62" y1="56.09" x2="30.62" y2="58.05"/><line class="cls-1" x1="30.62" y1="63.09" x2="30.62" y2="65.06"/><line class="cls-1" x1="30.62" y1="70.1" x2="30.62" y2="72.06"/><line class="cls-1" x1="30.62" y1="77.1" x2="30.62" y2="79.07"/><line class="cls-1" x1="30.62" y1="84.11" x2="30.62" y2="86.08"/><line class="cls-1" x1="30.62" y1="91.12" x2="30.62" y2="93.08"/><line class="cls-1" x1="30.62" y1="98.12" x2="30.62" y2="100.09"/><rect class="cls-1" x="3.17" y="17.88" width="54.91" height="92.24" rx="6.15" ry="6.15"/><circle class="cls-1" cx="16.21" cy="33.48" r="5.41"/><line class="cls-1" x1="20.04" y1="29.65" x2="12.38" y2="37.31"/><circle class="cls-1" cx="16.21" cy="53.88" r="5.41"/><line class="cls-1" x1="20.04" y1="50.05" x2="12.38" y2="57.71"/><circle class="cls-1" cx="16.21" cy="74.27" r="5.41"/><line class="cls-1" x1="20.04" y1="70.44" x2="12.38" y2="78.1"/><circle class="cls-1" cx="16.21" cy="94.67" r="5.41"/><line class="cls-1" x1="20.04" y1="90.84" x2="12.38" y2="98.5"/><circle class="cls-1" cx="45.04" cy="33.48" r="5.41"/><line class="cls-1" x1="48.86" y1="29.65" x2="41.21" y2="37.31"/><circle class="cls-1" cx="45.04" cy="53.88" r="5.41"/><line class="cls-1" x1="48.86" y1="50.05" x2="41.21" y2="57.71"/><circle class="cls-1" cx="45.04" cy="74.27" r="5.41"/><line class="cls-1" x1="48.86" y1="70.44" x2="41.21" y2="78.1"/><circle class="cls-1" cx="45.04" cy="94.67" r="5.41"/><line class="cls-1" x1="48.86" y1="90.84" x2="41.21" y2="98.5"/><path class="cls-1" d="M91.54,100.18h15.39a5,5,0,0,1,5,5h0a5,5,0,0,1-5,5H91.54a5,5,0,0,1-5-5h0A5,5,0,0,1,91.54,100.18Z"/><line class="cls-1" x1="99.24" y1="110.12" x2="99.24" y2="100.18"/><path class="cls-1" d="M112.5,88.57l10.88,10.88a5,5,0,0,1,0,7h0a5,5,0,0,1-7,0L105.47,95.6a5,5,0,0,1,0-7h0A5,5,0,0,1,112.5,88.57Z"/><line class="cls-1" x1="110.91" y1="101.04" x2="117.94" y2="94.01"/><path class="cls-1" d="M90.93,110.12H71.27a6.84,6.84,0,0,1-6.84-6.84V68.71a6.84,6.84,0,0,1,6.84-6.84H89.91a6.84,6.84,0,0,1,6.84,6.84V96.13"/></svg>