<svg id="Layer_1" data-name="Layer 1" xmlns="http://www.w3.org/2000/svg" viewBox="0 0 128 128"><defs><style>.cls-1{fill:none;stroke:#000;stroke-linecap:round;stroke-linejoin:round;stroke-width:2px;}</style></defs><title>iStar_Design_Medicine_LineIcons_Live-29</title><circle class="cls-1" cx="74.8" cy="17.23" r="4.63"/><circle class="cls-1" cx="42.41" cy="35.94" r="4.63"/><circle class="cls-1" cx="107.21" cy="35.94" r="4.63"/><circle class="cls-1" cx="85.6" cy="35.94" r="4.63"/><circle class="cls-1" cx="107.21" cy="73.35" r="4.63"/><circle class="cls-1" cx="85.6" cy="73.35" r="4.63"/><circle class="cls-1" cx="107.21" cy="110.77" r="4.63"/><circle class="cls-1" cx="85.6" cy="110.77" r="4.63"/><circle class="cls-1" cx="74.8" cy="54.65" r="4.63"/><circle class="cls-1" cx="118" cy="54.65" r="4.63"/><circle class="cls-1" cx="118" cy="92.06" r="4.63"/><circle class="cls-1" cx="74.8" cy="92.06" r="4.63"/><line class="cls-1" x1="109.52" y1="106.76" x2="115.69" y2="96.06"/><line class="cls-1" x1="90.23" y1="110.77" x2="102.58" y2="110.77"/><line class="cls-1" x1="77.12" y1="96.06" x2="83.29" y2="106.76"/><line class="cls-1" x1="77.12" y1="88.06" x2="83.29" y2="77.36"/><path class="cls-1" d="M47,73.35a4.63,4.63,0,1,1-4.63-4.62A4.63,4.63,0,0,1,47,73.35Z"/><circle class="cls-1" cx="20.79" cy="73.35" r="4.63"/><path class="cls-1" d="M47,110.77a4.63,4.63,0,1,1-4.63-4.63A4.63,4.63,0,0,1,47,110.77Z"/><circle class="cls-1" cx="53.2" cy="92.06" r="4.63"/><circle class="cls-1" cx="10" cy="92.06" r="4.63"/><line class="cls-1" x1="50.73" y1="87.8" x2="44.71" y2="77.36"/><line class="cls-1" x1="44.71" y1="106.76" x2="50.88" y2="96.06"/><line class="cls-1" x1="12.31" y1="88.06" x2="18.48" y2="77.36"/><line class="cls-1" x1="57.82" y1="92.06" x2="70.18" y2="92.06"/><line class="cls-1" x1="102.58" y1="35.94" x2="90.23" y2="35.94"/><line class="cls-1" x1="115.69" y1="50.64" x2="109.52" y2="39.95"/><line class="cls-1" x1="90.23" y1="73.35" x2="102.58" y2="73.35"/><line class="cls-1" x1="77.12" y1="58.65" x2="83.29" y2="69.35"/><line class="cls-1" x1="77.12" y1="50.64" x2="83.29" y2="39.95"/><path class="cls-1" d="M47,35.94a4.63,4.63,0,1,1-4.63-4.63A4.63,4.63,0,0,1,47,35.94Z"/><circle class="cls-1" cx="20.79" cy="35.94" r="4.63"/><circle class="cls-1" cx="10" cy="54.65" r="4.63"/><circle class="cls-1" cx="53.2" cy="54.65" r="4.63"/><line class="cls-1" x1="37.77" y1="35.94" x2="25.42" y2="35.94"/><line class="cls-1" x1="50.88" y1="50.64" x2="44.71" y2="39.95"/><line class="cls-1" x1="44.71" y1="69.35" x2="50.89" y2="58.65"/><line class="cls-1" x1="25.42" y1="73.35" x2="37.77" y2="73.35"/><line class="cls-1" x1="12.31" y1="58.65" x2="18.48" y2="69.35"/><line class="cls-1" x1="12.31" y1="50.64" x2="18.48" y2="39.95"/><line class="cls-1" x1="57.82" y1="54.65" x2="70.18" y2="54.65"/><line class="cls-1" x1="83.29" y1="31.94" x2="77.12" y2="21.24"/></svg>