<svg id="Layer_1" data-name="Layer 1" xmlns="http://www.w3.org/2000/svg" viewBox="0 0 128 128"><defs><style>.cls-1{fill:none;stroke:#000;stroke-linecap:round;stroke-linejoin:round;stroke-width:2px;}</style></defs><title>iStar_Design_Medicine_LineIcons_Live-13</title><path class="cls-1" d="M111.86,80.85a3,3,0,1,1-3-3A3,3,0,0,1,111.86,80.85Z"/><path class="cls-1" d="M117.09,80.85a8.24,8.24,0,1,1-8.23-8.24A8.23,8.23,0,0,1,117.09,80.85Z"/><path class="cls-1" d="M43.47,80.85a3,3,0,1,1-3-3A3,3,0,0,1,43.47,80.85Z"/><path class="cls-1" d="M48.71,80.85a8.24,8.24,0,1,1-8.24-8.24A8.24,8.24,0,0,1,48.71,80.85Z"/><polyline class="cls-1" points="96.53 80.68 100.62 80.68 48.7 80.68 52.82 80.68"/><path class="cls-1" d="M32.24,80.68H1.89V35.34H89.26V45.7h5.86A6.47,6.47,0,0,1,100,47.93l6.43,7.46a14.74,14.74,0,0,0,8,4.79l9.79,2.19a2.43,2.43,0,0,1,1.89,2.37V80.68h-9"/><rect class="cls-1" x="58.73" y="45.43" width="8.46" height="10.63" rx="1.04" ry="1.04"/><polyline class="cls-1" points="53.62 80.68 53.62 39.55 72.55 39.55 72.55 80.68"/><rect class="cls-1" x="76.74" y="44.95" width="8.34" height="25.59"/><polyline class="cls-1" points="89.65 58.01 109.39 58.01 109.39 68.4"/><line class="cls-1" x1="53.62" y1="61.4" x2="1.89" y2="61.4"/><line class="cls-1" x1="97.98" y1="74.76" x2="50.86" y2="74.76"/><line class="cls-1" x1="29.86" y1="74.76" x2="1.89" y2="74.76"/><line class="cls-1" x1="18.23" y1="45.61" x2="10.64" y2="49.99"/><line class="cls-1" x1="10.64" y1="45.61" x2="18.23" y2="49.99"/><line class="cls-1" x1="14.44" y1="43.42" x2="14.44" y2="52.18"/><line class="cls-1" x1="89.26" y1="45.7" x2="89.26" y2="80.68"/><polyline class="cls-1" points="6.91 35.34 8.43 31.6 11.87 31.6 13.4 35.34"/><polyline class="cls-1" points="89.98 41.95 93.42 41.95 94.94 45.7"/><line class="cls-1" x1="93.12" y1="63.19" x2="93.12" y2="64.24"/><line class="cls-1" x1="40.47" y1="89.08" x2="10.94" y2="89.08"/><line class="cls-1" x1="117.09" y1="89.08" x2="93.99" y2="89.08"/><line class="cls-1" x1="85.75" y1="89.08" x2="81.65" y2="89.08"/><line class="cls-1" x1="53.62" y1="96.4" x2="99.9" y2="96.4"/><line class="cls-1" x1="35.08" y1="96.4" x2="46.94" y2="96.4"/><line class="cls-1" x1="105.03" y1="96.4" x2="106.75" y2="96.4"/></svg>