<svg id="Layer_1" data-name="Layer 1" xmlns="http://www.w3.org/2000/svg" viewBox="0 0 128 128"><defs><style>.cls-1{fill:none;stroke:#000;stroke-linecap:round;stroke-linejoin:round;stroke-width:2px;}</style></defs><title>iStar_Design_Medicine_LineIcons_Live-43</title><path class="cls-1" d="M117.36,104.54A20.07,20.07,0,0,0,120.88,94V45.93H101.25"/><path class="cls-1" d="M25.87,45.93H7.12V94a39.13,39.13,0,0,0,2.25,10.53"/><line class="cls-1" x1="57.95" y1="71.78" x2="67.89" y2="71.78"/><line class="cls-1" x1="88.94" y1="56.27" x2="100.17" y2="56.27"/><line class="cls-1" x1="37.1" y1="45.93" x2="56.62" y2="45.93"/><line class="cls-1" x1="69.18" y1="45.93" x2="88.94" y2="45.93"/><line class="cls-1" x1="31.78" y1="119.73" x2="82.88" y2="119.73"/><line class="cls-1" x1="91.76" y1="119.73" x2="100.17" y2="119.73"/><path class="cls-1" d="M37.1,13.43V92.66a5.62,5.62,0,0,1-5.62,5.61h0a5.61,5.61,0,0,1-5.61-5.61V13.43"/><line class="cls-1" x1="26.17" y1="29.68" x2="36.11" y2="29.68"/><path class="cls-1" d="M31.48,13.43H23.74a2.59,2.59,0,0,1-2.58-2.58h0a2.59,2.59,0,0,1,2.58-2.58H39.23a2.59,2.59,0,0,1,2.58,2.58h0a2.59,2.59,0,0,1-2.58,2.58H37.1"/><path class="cls-1" d="M68.63,13.43V92.66A5.61,5.61,0,0,1,63,98.27h0a5.62,5.62,0,0,1-5.62-5.61V13.43"/><path class="cls-1" d="M57.4,13.43H55.27a2.59,2.59,0,0,1-2.58-2.58h0a2.59,2.59,0,0,1,2.58-2.58H70.76a2.59,2.59,0,0,1,2.58,2.58h0a2.59,2.59,0,0,1-2.58,2.58H63"/><path class="cls-1" d="M100.17,13.43V92.66a5.61,5.61,0,0,1-5.61,5.61h0a5.61,5.61,0,0,1-5.62-5.61V13.43"/><path class="cls-1" d="M94.56,13.43H86.81a2.59,2.59,0,0,1-2.58-2.58h0a2.59,2.59,0,0,1,2.58-2.58H102.3a2.59,2.59,0,0,1,2.58,2.58h0a2.59,2.59,0,0,1-2.58,2.58h-2.13"/><line class="cls-1" x1="29.2" y1="81.66" x2="29.2" y2="81.66"/><line class="cls-1" x1="92.44" y1="93.28" x2="92.44" y2="93.28"/><line class="cls-1" x1="96.32" y1="79.08" x2="96.32" y2="79.08"/><line class="cls-1" x1="92.44" y1="68.76" x2="92.44" y2="68.76"/><line class="cls-1" x1="34.36" y1="68.76" x2="34.36" y2="68.76"/><line class="cls-1" x1="65.34" y1="88.12" x2="65.34" y2="88.12"/><line class="cls-1" x1="61.47" y1="77.79" x2="61.47" y2="77.79"/><line class="cls-1" x1="31.78" y1="55.85" x2="31.78" y2="55.85"/><path class="cls-1" d="M121.07,113H6.93a4.24,4.24,0,0,1-4.24-4.23h0a4.24,4.24,0,0,1,4.24-4.24H121.07a4.24,4.24,0,0,1,4.24,4.24h0A4.24,4.24,0,0,1,121.07,113Z"/></svg>