<svg id="Layer_1" data-name="Layer 1" xmlns="http://www.w3.org/2000/svg" viewBox="0 0 128 128"><defs><style>.cls-1,.cls-2{fill:none;stroke:#000;stroke-linecap:round;stroke-linejoin:round;stroke-width:2px;}.cls-2{stroke-dasharray:2 4;}</style></defs><title>iStar_Design_Medicine_LineIcons_Live-7</title><line class="cls-1" x1="3.12" y1="78.41" x2="17.59" y2="78.41"/><line class="cls-1" x1="14.23" y1="75.24" x2="17.59" y2="78.41"/><line class="cls-1" x1="17.59" y1="78.41" x2="14.23" y2="81.58"/><line class="cls-1" x1="8.28" y1="65.32" x2="22.74" y2="65.32"/><line class="cls-1" x1="19.38" y1="62.15" x2="22.74" y2="65.32"/><line class="cls-1" x1="22.74" y1="65.32" x2="19.38" y2="68.49"/><line class="cls-1" x1="124.88" y1="78.41" x2="110.41" y2="78.41"/><line class="cls-1" x1="113.77" y1="75.24" x2="110.41" y2="78.41"/><line class="cls-1" x1="110.41" y1="78.41" x2="113.77" y2="81.58"/><line class="cls-1" x1="119.72" y1="65.32" x2="105.26" y2="65.32"/><line class="cls-1" x1="108.62" y1="62.15" x2="105.26" y2="65.32"/><line class="cls-1" x1="105.26" y1="65.32" x2="108.62" y2="68.49"/><line class="cls-1" x1="3.28" y1="111.01" x2="17.74" y2="111.01"/><line class="cls-1" x1="14.38" y1="107.84" x2="17.74" y2="111.01"/><line class="cls-1" x1="17.74" y1="111.01" x2="14.38" y2="114.19"/><line class="cls-1" x1="124.72" y1="111.01" x2="110.26" y2="111.01"/><line class="cls-1" x1="113.62" y1="107.84" x2="110.26" y2="111.01"/><line class="cls-1" x1="110.26" y1="111.01" x2="113.62" y2="114.19"/><path class="cls-2" d="M50,85.53V70.91a14,14,0,0,1,14-14h0a14,14,0,0,1,14,14V85.53"/><line class="cls-2" x1="64" y1="86.93" x2="64" y2="62.33"/><path class="cls-2" d="M98.48,103.46l-.42,3.24c-.36,3.69-3.16,11-4.48,14.41"/><path class="cls-2" d="M29.52,103.46l.42,3.24c.36,3.69,3.16,11,4.48,14.41"/><line class="cls-1" x1="94.46" y1="4.79" x2="94.46" y2="9.72"/><path class="cls-1" d="M68.58,26.7a15.52,15.52,0,1,0,23-18.91"/><path class="cls-1" d="M92.78,38.09s-5.15,19.18,2.57,33.15c3.87,7,13.1,19,9.76,34.73C104,111.08,100,123.21,100,123.21"/><path class="cls-1" d="M64.1,111.77C71.32,106,93.57,98,105.8,98"/><path class="cls-2" d="M86.33,58.57c0,7.17,0,13.34,5.33,19.7"/><line class="cls-1" x1="33.54" y1="4.79" x2="33.54" y2="9.72"/><path class="cls-1" d="M59.42,26.7a15.52,15.52,0,1,1-23-18.91"/><path class="cls-1" d="M35.22,38.09s5.15,19.18-2.57,33.15c-3.87,7-13.1,19-9.76,34.73C24,111.08,28,123.21,28,123.21"/><path class="cls-1" d="M28,81.72c8.18,4,20.16,6.5,33.51,6.5h4.94c13.35,0,25.33-2.51,33.51-6.5"/><path class="cls-1" d="M22.2,98c12.23,0,34.48,8,41.7,13.8l.1,11.34"/><path class="cls-2" d="M41.67,58.57c0,7.17,0,13.34-5.33,19.7"/><line class="cls-1" x1="36.34" y1="41.29" x2="91.97" y2="41.29"/><path class="cls-1" d="M44.86,4.79C48.08,11.11,55.42,15.54,64,15.54S79.92,11.11,83.14,4.79"/></svg>