<svg id="Layer_1" data-name="Layer 1" xmlns="http://www.w3.org/2000/svg" viewBox="0 0 128 128"><defs><style>.cls-1{fill:none;stroke:#000;stroke-linecap:round;stroke-linejoin:round;stroke-width:2px;}</style></defs><title>iStar_Design_Medicine_LineIcons_Live-81</title><path class="cls-1" d="M74.53,115.92a53.16,53.16,0,0,1-35.91-5.41"/><path class="cls-1" d="M84.77,112.74c-1.43.61-2.88,1.15-4.34,1.63"/><path class="cls-1" d="M42.62,15.52a53.17,53.17,0,0,1,16-4.22"/><path class="cls-1" d="M5.69,49.36A60.17,60.17,0,1,1,3.89,64"/><path class="cls-1" d="M4.17,58.24c.13-1.36.31-2.72.53-4.07"/><polygon class="cls-1" points="99.45 52.18 91.96 39.21 71.49 51.02 71.49 27.39 56.51 27.39 56.51 51.02 36.04 39.21 28.55 52.18 49.02 64 28.55 75.82 36.04 88.79 56.51 76.97 56.51 100.61 71.49 100.61 71.49 76.97 91.96 88.79 99.45 75.82 78.98 64 99.45 52.18"/></svg>