<svg id="Layer_1" data-name="Layer 1" xmlns="http://www.w3.org/2000/svg" viewBox="0 0 128 128"><defs><style>.cls-1{fill:none;stroke:#000;stroke-linecap:round;stroke-linejoin:round;stroke-width:2px;}</style></defs><title>iStar_Design_Medicine_LineIcons_Live-77</title><circle class="cls-1" cx="28.96" cy="64" r="26.13"/><circle class="cls-1" cx="99.04" cy="64" r="20.01"/><circle class="cls-1" cx="99.04" cy="64" r="13.01"/><circle class="cls-1" cx="99.04" cy="64" r="26.13"/><path class="cls-1" d="M49.88,79.65l1.68-1a25.3,25.3,0,0,1,24.88,0l1.68,1"/><path class="cls-1" d="M80,46.18H48.05"/><line class="cls-1" x1="95.5" y1="59.07" x2="95.5" y2="68.79"/><path class="cls-1" d="M95.5,59.07h4.29a2.44,2.44,0,0,1,2.44,2.44v.05A2.44,2.44,0,0,1,99.79,64H95.5a0,0,0,0,1,0,0V59.07A0,0,0,0,1,95.5,59.07Z"/><line class="cls-1" x1="102.23" y1="68.79" x2="99.77" y2="64"/><line class="cls-1" x1="80.57" y1="82.48" x2="84.64" y2="78.4"/><line class="cls-1" x1="113.45" y1="49.6" x2="117.52" y2="45.52"/><line class="cls-1" x1="80.57" y1="45.52" x2="84.64" y2="49.6"/><line class="cls-1" x1="113.45" y1="78.4" x2="117.52" y2="82.48"/><line class="cls-1" x1="72.92" y1="64" x2="78.68" y2="64"/><line class="cls-1" x1="119.41" y1="64" x2="125.17" y2="64"/><line class="cls-1" x1="72.92" y1="64" x2="78.68" y2="64"/><line class="cls-1" x1="119.41" y1="64" x2="125.17" y2="64"/><line class="cls-1" x1="99.04" y1="37.87" x2="99.04" y2="43.63"/><line class="cls-1" x1="99.04" y1="84.37" x2="99.04" y2="90.13"/><circle class="cls-1" cx="28.96" cy="64" r="20.01"/><circle class="cls-1" cx="28.96" cy="64" r="13.01"/><polyline class="cls-1" points="26.42 59.07 26.42 68.79 32.17 68.79"/><line class="cls-1" x1="10.48" y1="82.48" x2="14.55" y2="78.4"/><line class="cls-1" x1="43.36" y1="49.6" x2="47.43" y2="45.52"/><line class="cls-1" x1="10.48" y1="45.52" x2="14.55" y2="49.6"/><line class="cls-1" x1="43.36" y1="78.4" x2="47.43" y2="82.48"/><line class="cls-1" x1="49.32" y1="64" x2="55.08" y2="64"/><line class="cls-1" x1="2.83" y1="64" x2="8.59" y2="64"/><line class="cls-1" x1="49.32" y1="64" x2="55.08" y2="64"/><line class="cls-1" x1="28.96" y1="37.87" x2="28.96" y2="43.63"/><line class="cls-1" x1="28.96" y1="84.37" x2="28.96" y2="90.13"/></svg>