<svg id="Layer_1" data-name="Layer 1" xmlns="http://www.w3.org/2000/svg" viewBox="0 0 128 128"><defs><style>.cls-1{fill:none;stroke:#000;stroke-linecap:round;stroke-linejoin:round;stroke-width:2px;}</style></defs><title>iStar_Design_Medicine_LineIcons_Live-69</title><polyline class="cls-1" points="29.79 57.78 29.79 3.59 84.72 3.59"/><line class="cls-1" x1="69.51" y1="38.64" x2="76.03" y2="38.64"/><line class="cls-1" x1="45.68" y1="38.64" x2="63.2" y2="38.64"/><line class="cls-1" x1="56.81" y1="20.96" x2="63.2" y2="20.96"/><line class="cls-1" x1="56.81" y1="25.1" x2="63.2" y2="25.1"/><line class="cls-1" x1="45.68" y1="50.99" x2="106.39" y2="50.99"/><line class="cls-1" x1="45.68" y1="59.4" x2="106.39" y2="59.4"/><line class="cls-1" x1="45.68" y1="67.81" x2="106.39" y2="67.81"/><line class="cls-1" x1="65.57" y1="75.35" x2="106.39" y2="75.35"/><polygon class="cls-1" points="100.49 26.34 117.98 26.34 100.49 8.85 100.49 26.34"/><path class="cls-1" d="M79.48,101.43C84.11,90.61,98.13,85,96.67,86.2c-6.72,5.43-7.14,8.91-6.6,10.63a.59.59,0,0,0,.38.44A.66.66,0,0,0,91,97c.53-.52,1.58-1.84,2.11-2.35-.24.72-.1,2.3.63,2.48a4.47,4.47,0,0,0,2.22-.24c4-1.08,11.52-3.13,16.67-1.47"/><path class="cls-1" d="M45.68,84.21l2.14,1v16.91c0,9.19-16.64,16.65-16.64,16.65h0s-16.64-7.46-16.64-16.65V85.23l16.64-7.89,10.16,4.82"/><path class="cls-1" d="M16.37,114.76c-3.56-3.31-6.35-7.27-6.35-11.51V81.74l21.16-10,21.16,10v21.51c0,11.68-21.16,21.16-21.16,21.16h0a65.75,65.75,0,0,1-6.69-3.62"/><polygon class="cls-1" points="40.29 94.16 34.04 94.16 34.04 87.9 28.32 87.9 28.32 94.16 22.07 94.16 22.07 99.87 28.32 99.87 28.32 106.13 34.04 106.13 34.04 99.87 40.29 99.87 40.29 94.16"/><polyline class="cls-1" points="35.05 67.55 35.05 8.85 100.49 8.85"/><polyline class="cls-1" points="117.98 26.34 117.98 119.23 47.29 119.23"/><rect class="cls-1" x="45.68" y="19.96" width="6.14" height="6.14"/><path class="cls-1" d="M20.68,118.27l-1.06-.79"/></svg>