<svg id="Layer_1" data-name="Layer 1" xmlns="http://www.w3.org/2000/svg" viewBox="0 0 128 128"><defs><style>.cls-1{fill:none;stroke:#000;stroke-linecap:round;stroke-linejoin:round;stroke-width:2px;}</style></defs><title>iStar_Design_Medicine_LineIcons_Live-90</title><path class="cls-1" d="M90.89,13l-6.13,1v-3.7a3.15,3.15,0,0,0-4.18-3l-1.78.51a53.94,53.94,0,0,1-29.6,0l-1.78-.51a3.15,3.15,0,0,0-4.18,3V14l-6.13-1a4,4,0,1,0,0,8l6.13,1V24.4A5.23,5.23,0,0,0,46.53,29a53.76,53.76,0,0,0,34.94,0,5.23,5.23,0,0,0,3.29-4.61V22l6.13-1a4,4,0,0,0,0-8Z"/><path class="cls-1" d="M68.15,39.72a53.56,53.56,0,0,1-19-1.91l-1.78-.51a3.15,3.15,0,0,0-4.18,3V44l-6.13-1a4,4,0,0,0,0,8l6.13,1v2.39A5.23,5.23,0,0,0,46.53,59a53.76,53.76,0,0,0,34.94,0,5.23,5.23,0,0,0,3.29-4.61V52l6.13-1a4,4,0,0,0,0-8l-6.13,1v-3.7a3.15,3.15,0,0,0-4.18-3l-1.78.51c-1.26.36-2.52.67-3.79.94"/><path class="cls-1" d="M90.89,73.08l-6.13,1V70.37a3.16,3.16,0,0,0-4.18-3l-1.78.51a53.76,53.76,0,0,1-29.6,0l-1.78-.51a3.16,3.16,0,0,0-4.18,3v3.71l-6.13-1a4,4,0,0,0,0,8l6.13,1v2.38a5.24,5.24,0,0,0,3.29,4.62,53.9,53.9,0,0,0,34.94,0,5.24,5.24,0,0,0,3.29-4.62V82.08l6.13-1a4,4,0,0,0,0-8Z"/><path class="cls-1" d="M60.54,99.84c-.64,0-1.28-.1-1.91-.16"/><path class="cls-1" d="M54.32,99.07a50.66,50.66,0,0,1-5.12-1.2l-1.78-.51a3.16,3.16,0,0,0-4.18,3v3.71l-6.13-1a4,4,0,0,0,0,8l6.13,1v2.38a5.23,5.23,0,0,0,3.29,4.62,53.76,53.76,0,0,0,34.94,0,5.23,5.23,0,0,0,3.29-4.62v-2.38l6.13-1a4,4,0,0,0,0-8l-6.13,1V100.4a3.16,3.16,0,0,0-4.18-3l-1.78.51A53.6,53.6,0,0,1,64,100"/><line class="cls-1" x1="49.52" y1="29.93" x2="49.52" y2="37.81"/><line class="cls-1" x1="78.48" y1="29.93" x2="78.48" y2="37.81"/><line class="cls-1" x1="49.52" y1="59.95" x2="49.52" y2="67.83"/><line class="cls-1" x1="78.48" y1="59.95" x2="78.48" y2="67.83"/><line class="cls-1" x1="49.52" y1="89.98" x2="49.52" y2="97.85"/><line class="cls-1" x1="78.48" y1="89.98" x2="78.48" y2="97.85"/><line class="cls-1" x1="49.52" y1="2.68" x2="49.52" y2="7.32"/><line class="cls-1" x1="78.48" y1="2.68" x2="78.48" y2="7.32"/><line class="cls-1" x1="49.52" y1="120.68" x2="49.52" y2="125.32"/><line class="cls-1" x1="78.48" y1="120.68" x2="78.48" y2="125.32"/><line class="cls-1" x1="48.2" y1="43.43" x2="48.2" y2="51.68"/><line class="cls-1" x1="48.2" y1="13.13" x2="48.2" y2="21.38"/><line class="cls-1" x1="48.2" y1="104.03" x2="48.2" y2="112.28"/><line class="cls-1" x1="48.2" y1="73.73" x2="48.2" y2="81.98"/></svg>