<svg id="Layer_1" data-name="Layer 1" xmlns="http://www.w3.org/2000/svg" viewBox="0 0 128 128"><defs><style>.cls-1{fill:none;stroke:#000;stroke-linecap:round;stroke-linejoin:round;stroke-width:2px;}</style></defs><title>iStar_Design_Medicine_LineIcons_Live-16</title><line class="cls-1" x1="47.39" y1="27.5" x2="29.25" y2="45.65"/><line class="cls-1" x1="52.17" y1="32.28" x2="34.02" y2="50.42"/><line class="cls-1" x1="86.04" y1="66.15" x2="67.89" y2="84.29"/><rect class="cls-1" x="115.04" y="115.25" width="9.96" height="6.04" transform="translate(-48.48 119.51) rotate(-45)"/><path class="cls-1" d="M31.51,5A3,3,0,0,0,27,5.2a139.33,139.33,0,0,1-9.54,10.53Q12.35,20.86,7,25.27a3,3,0,0,0-.25,4.49h0a3,3,0,0,0,4,.23A145.76,145.76,0,0,0,21.78,20,142,142,0,0,0,31.74,9a3,3,0,0,0-.23-4Z"/><line class="cls-1" x1="60.85" y1="40.96" x2="30.85" y2="10.96"/><polyline class="cls-1" points="119.31 114.71 92.77 88.16 86.33 66.44 67.35 47.46"/><polyline class="cls-1" points="12.7 29.1 68.19 84.58 89.91 91.03 116.45 117.57"/><line class="cls-1" x1="92.77" y1="88.16" x2="89.91" y2="91.03"/><line class="cls-1" x1="80.61" y1="27.5" x2="98.75" y2="45.65"/><line class="cls-1" x1="75.83" y1="32.28" x2="93.98" y2="50.42"/><line class="cls-1" x1="41.96" y1="66.15" x2="60.11" y2="84.29"/><rect class="cls-1" x="3" y="115.25" width="9.96" height="6.04" transform="translate(-70.01 207.55) rotate(-135)"/><path class="cls-1" d="M96.49,5A3,3,0,0,1,101,5.2a139.33,139.33,0,0,0,9.54,10.53q5.13,5.13,10.53,9.54a3,3,0,0,1,.25,4.49h0a3,3,0,0,1-4,.23,145.76,145.76,0,0,1-11.06-10A142,142,0,0,1,96.26,9a3,3,0,0,1,.23-4Z"/><polyline class="cls-1" points="8.69 114.71 35.23 88.16 41.67 66.44 97.15 10.96"/><polyline class="cls-1" points="60.91 83.49 59.81 84.58 38.09 91.03 11.55 117.57"/><line class="cls-1" x1="115.3" y1="29.1" x2="66.92" y2="77.48"/><line class="cls-1" x1="35.23" y1="88.16" x2="38.09" y2="91.03"/></svg>