<svg id="Layer_1" data-name="Layer 1" xmlns="http://www.w3.org/2000/svg" viewBox="0 0 128 128"><defs><style>.cls-1{fill:none;stroke:#000;stroke-linecap:round;stroke-linejoin:round;stroke-width:2px;}</style></defs><title>iStar_Design_Medicine_LineIcons_Live-67</title><line class="cls-1" x1="11.55" y1="90.2" x2="11.55" y2="90.2"/><line class="cls-1" x1="15.89" y1="90.2" x2="15.89" y2="90.2"/><line class="cls-1" x1="20.23" y1="90.2" x2="20.23" y2="90.2"/><line class="cls-1" x1="13.72" y1="93.67" x2="13.72" y2="93.67"/><line class="cls-1" x1="18.06" y1="93.67" x2="18.06" y2="93.67"/><line class="cls-1" x1="35.67" y1="90.2" x2="35.67" y2="90.2"/><line class="cls-1" x1="40.01" y1="90.2" x2="40.01" y2="90.2"/><line class="cls-1" x1="44.35" y1="90.2" x2="44.35" y2="90.2"/><line class="cls-1" x1="37.84" y1="93.67" x2="37.84" y2="93.67"/><line class="cls-1" x1="42.18" y1="93.67" x2="42.18" y2="93.67"/><line class="cls-1" x1="59.66" y1="90.2" x2="59.66" y2="90.2"/><line class="cls-1" x1="64" y1="90.2" x2="64" y2="90.2"/><line class="cls-1" x1="68.34" y1="90.2" x2="68.34" y2="90.2"/><line class="cls-1" x1="61.83" y1="93.67" x2="61.83" y2="93.67"/><line class="cls-1" x1="66.17" y1="93.67" x2="66.17" y2="93.67"/><line class="cls-1" x1="83.78" y1="90.2" x2="83.78" y2="90.2"/><line class="cls-1" x1="88.12" y1="90.2" x2="88.12" y2="90.2"/><line class="cls-1" x1="92.46" y1="90.2" x2="92.46" y2="90.2"/><line class="cls-1" x1="85.95" y1="93.67" x2="85.95" y2="93.67"/><line class="cls-1" x1="90.29" y1="93.67" x2="90.29" y2="93.67"/><line class="cls-1" x1="107.77" y1="90.2" x2="107.77" y2="90.2"/><line class="cls-1" x1="112.11" y1="90.2" x2="112.11" y2="90.2"/><line class="cls-1" x1="116.45" y1="90.2" x2="116.45" y2="90.2"/><line class="cls-1" x1="109.94" y1="93.67" x2="109.94" y2="93.67"/><line class="cls-1" x1="114.28" y1="93.67" x2="114.28" y2="93.67"/><path class="cls-1" d="M68.7,83.21H59.3l-1-27.8c0-3.15,2.55-11.17,5.7-11.17h0c3.15,0,5.7,8,5.7,11.17Z"/><path class="cls-1" d="M76.06,40a4,4,0,0,1-4-4V27.76H55.91v8.29a4,4,0,0,1-4,4"/><path class="cls-1" d="M44.71,83.21H35.3l-1-27.8c0-3.15,2.56-11.17,5.71-11.17h0c3.15,0,5.7,8,5.7,11.17Z"/><path class="cls-1" d="M52.07,40a4,4,0,0,1-4-4V27.76H31.92v8.29a4,4,0,0,1-4,4"/><path class="cls-1" d="M116.82,83.21h-9.41l-1-27.8c0-3.15,2.55-11.17,5.7-11.17h0c3.15,0,5.71,8,5.71,11.17Z"/><path class="cls-1" d="M92.82,83.21h-9.4l-1-27.8c0-3.15,2.55-11.17,5.7-11.17h0c3.15,0,5.7,8,5.7,11.17Z"/><path class="cls-1" d="M100.18,40a4,4,0,0,1-4-4V27.76H80v8.29a4,4,0,0,1-4,4"/><path class="cls-1" d="M20.59,83.21H11.18l-1-27.8c0-3.15,2.56-11.17,5.71-11.17h0c3.15,0,5.7,8,5.7,11.17Z"/><path class="cls-1" d="M28,40a4,4,0,0,1-4-4V27.76H7.8v8.29a4,4,0,0,1-4,4v60.22H124.17V40a4,4,0,0,1-4-4V27.76H104v8.29a4,4,0,0,1-4,4"/><line class="cls-1" x1="27.95" y1="40.02" x2="27.95" y2="44.05"/><line class="cls-1" x1="27.95" y1="49.2" x2="27.95" y2="52.22"/><line class="cls-1" x1="27.95" y1="57.37" x2="27.95" y2="60.39"/><line class="cls-1" x1="27.95" y1="65.54" x2="27.95" y2="68.56"/><line class="cls-1" x1="27.95" y1="73.71" x2="27.95" y2="76.74"/><line class="cls-1" x1="27.95" y1="81.88" x2="27.95" y2="84.91"/><line class="cls-1" x1="27.95" y1="90.06" x2="27.95" y2="93.08"/><line class="cls-1" x1="51.94" y1="40.02" x2="51.94" y2="44.05"/><line class="cls-1" x1="51.94" y1="49.2" x2="51.94" y2="52.22"/><line class="cls-1" x1="51.94" y1="57.37" x2="51.94" y2="60.39"/><line class="cls-1" x1="51.94" y1="65.54" x2="51.94" y2="68.56"/><line class="cls-1" x1="51.94" y1="73.71" x2="51.94" y2="76.74"/><line class="cls-1" x1="51.94" y1="81.88" x2="51.94" y2="84.91"/><line class="cls-1" x1="51.94" y1="90.06" x2="51.94" y2="93.08"/><line class="cls-1" x1="76.06" y1="40.02" x2="76.06" y2="44.05"/><line class="cls-1" x1="76.06" y1="49.2" x2="76.06" y2="52.22"/><line class="cls-1" x1="76.06" y1="57.37" x2="76.06" y2="60.39"/><line class="cls-1" x1="76.06" y1="65.54" x2="76.06" y2="68.56"/><line class="cls-1" x1="76.06" y1="73.71" x2="76.06" y2="76.74"/><line class="cls-1" x1="76.06" y1="81.88" x2="76.06" y2="84.91"/><line class="cls-1" x1="76.06" y1="90.06" x2="76.06" y2="93.08"/><line class="cls-1" x1="100.12" y1="40.02" x2="100.12" y2="44.05"/><line class="cls-1" x1="100.12" y1="49.2" x2="100.12" y2="52.22"/><line class="cls-1" x1="100.12" y1="57.37" x2="100.12" y2="60.39"/><line class="cls-1" x1="100.12" y1="65.54" x2="100.12" y2="68.56"/><line class="cls-1" x1="100.12" y1="73.71" x2="100.12" y2="76.74"/><line class="cls-1" x1="100.12" y1="81.88" x2="100.12" y2="84.91"/><line class="cls-1" x1="100.12" y1="90.06" x2="100.12" y2="93.08"/></svg>