<svg id="Layer_1" data-name="Layer 1" xmlns="http://www.w3.org/2000/svg" viewBox="0 0 128 128"><defs><style>.cls-1,.cls-2{fill:none;stroke:#000;stroke-linecap:round;stroke-linejoin:round;stroke-width:2px;}.cls-2{stroke-dasharray:2 4;}</style></defs><title>iStar_Design_Medicine_LineIcons_Live-68</title><path class="cls-1" d="M3.16,34.24,22.53,66a37.12,37.12,0,0,1,4.6,27.24l-6.64,30.66"/><path class="cls-1" d="M56.65,4.11l22,42.36a52.14,52.14,0,0,1,3.67,38.8l-9.08,38.62"/><path class="cls-1" d="M25,19.62,41.69,51.77a23.67,23.67,0,0,1,2.54,11.16c0,4.79-2,11.33,9.6,11.73,13.52.46,15.27-7,13.73-12.13C65.07,54.24,55.22,47.91,46.32,28,41.66,17.54,40.61,12,40.61,12"/><path class="cls-1" d="M48.56,123.86s3.88-10.69,0-16.52-10.42-16.9-7.7-22.73S48,81.32,51.72,82.1s9.35,1.57,12.38.84c8.49-2.06,11.44,13.32.75,40.92"/><path class="cls-2" d="M80.16,33.8a40.38,40.38,0,1,1,4.3,80.54"/><path class="cls-2" d="M88.33,49.18A25.08,25.08,0,0,1,84.46,99"/><path class="cls-2" d="M89.74,65.74a9.78,9.78,0,0,1-1,17"/><path class="cls-1" d="M61.13,68.69a9.21,9.21,0,0,0-5.46-1.45,9.24,9.24,0,0,0-5.47,1.45"/><path class="cls-1" d="M50,87.33c1.34,1,4,1.72,7.08,1.9s5.82-.27,7.26-1.08"/><rect class="cls-1" x="72.81" y="60.58" width="3.96" height="14.59" rx="1.89" ry="1.89"/><line class="cls-1" x1="20.02" y1="50.64" x2="22.41" y2="54.51"/><line class="cls-1" x1="8.2" y1="31.47" x2="16.42" y2="44.8"/></svg>