<?xml version="1.0" encoding="utf-8"?>
<!-- Generator: Adobe Illustrator 23.0.1, SVG Export Plug-In . SVG Version: 6.00 Build 0)  -->
<svg version="1.1" xmlns="http://www.w3.org/2000/svg" xmlns:xlink="http://www.w3.org/1999/xlink" x="0px" y="0px"
	 viewBox="0 0 432 432" enable-background="new 0 0 432 432" xml:space="preserve">
<g id="Layer_37">
</g>
<g id="Layer_47">
</g>
<g id="Layer_42">
</g>
<g id="Layer_43">
</g>
<g id="Layer_44">
</g>
<g id="Layer_45">
</g>
<g id="Layer_46">
</g>
<g id="Layer_38">
</g>
<g id="Layer_39">
</g>
<g id="Layer_40">
</g>
<g id="Layer_41">
</g>
<g id="Layer_17">
</g>
<g id="Layer_18">
</g>
<g id="Layer_19">
</g>
<g id="Layer_20">
</g>
<g id="Layer_21">
</g>
<g id="Layer_22">
</g>
<g id="Layer_23">
</g>
<g id="Layer_24">
</g>
<g id="Layer_25">
</g>
<g id="Layer_26">
</g>
<g id="Layer_27">
</g>
<g id="Layer_28">
</g>
<g id="Layer_29">
</g>
<g id="Layer_30">
</g>
<g id="Layer_31">
</g>
<g id="Layer_2">
	<path id="mineral_oil_free" d="M47.32,335.4c0.37,0.34,0.55,0.78,0.55,1.33v28.47c0,0.52-0.18,0.97-0.55,1.33
		c-0.37,0.37-0.83,0.55-1.38,0.55c-0.55,0-1.01-0.18-1.38-0.55c-0.37-0.37-0.55-0.81-0.55-1.33v-23l-9.71,14.76
		c-0.18,0.21-0.41,0.4-0.67,0.55c-0.26,0.15-0.53,0.23-0.81,0.23c-0.28,0-0.55-0.08-0.83-0.23c-0.28-0.15-0.51-0.34-0.69-0.55
		l-9.75-15.03v23.26c0,0.52-0.17,0.97-0.51,1.33c-0.34,0.37-0.77,0.55-1.29,0.55c-0.52,0-0.94-0.18-1.27-0.55
		c-0.32-0.37-0.48-0.81-0.48-1.33v-28.47c0-0.49,0.18-0.93,0.53-1.31c0.35-0.38,0.8-0.58,1.36-0.58c0.28,0,0.57,0.08,0.9,0.23
		c0.32,0.15,0.57,0.35,0.76,0.6l11.38,17.21l11.53-17.21c0.4-0.58,0.92-0.86,1.56-0.83C46.52,334.88,46.95,335.06,47.32,335.4z
		 M57.85,334.89c-0.55,0-1.01,0.18-1.38,0.53c-0.37,0.35-0.55,0.8-0.55,1.36v28.43c0,0.52,0.17,0.97,0.51,1.33
		c0.34,0.37,0.8,0.55,1.38,0.55c0.52,0,0.97-0.18,1.36-0.55c0.38-0.37,0.58-0.81,0.58-1.33v-28.43c0-0.55-0.18-1-0.55-1.36
		S58.38,334.89,57.85,334.89z M91.66,334.89c-0.49,0-0.9,0.16-1.22,0.48c-0.32,0.32-0.48,0.73-0.48,1.22v23.82l-18.81-24.88
		c-0.15-0.21-0.38-0.38-0.67-0.48c-0.29-0.11-0.57-0.16-0.85-0.16c-0.49,0-0.91,0.17-1.26,0.51c-0.35,0.34-0.53,0.78-0.53,1.33
		v28.66c0,0.49,0.15,0.9,0.46,1.22c0.31,0.32,0.71,0.48,1.2,0.48c0.52,0,0.94-0.16,1.27-0.48c0.32-0.32,0.48-0.73,0.48-1.22v-23.72
		l18.77,24.82c0.15,0.18,0.37,0.33,0.64,0.44c0.28,0.11,0.55,0.16,0.83,0.16c0.52,0,0.97-0.18,1.33-0.53
		c0.37-0.35,0.55-0.82,0.55-1.4V336.6c0-0.49-0.15-0.9-0.46-1.22C92.6,335.05,92.18,334.89,91.66,334.89z M119.63,338.44
		c0.52,0,0.97-0.16,1.33-0.48c0.37-0.32,0.55-0.74,0.55-1.27c0-0.52-0.18-0.95-0.55-1.29c-0.37-0.34-0.81-0.51-1.33-0.51h-16.38
		c-0.52,0-0.96,0.18-1.31,0.53c-0.35,0.35-0.53,0.79-0.53,1.31v28.47c0,0.52,0.18,0.97,0.53,1.33c0.35,0.37,0.79,0.55,1.31,0.55
		h16.38c0.52,0,0.97-0.17,1.33-0.51c0.37-0.34,0.55-0.77,0.55-1.29c0-0.46-0.18-0.87-0.55-1.24c-0.37-0.37-0.81-0.55-1.33-0.55
		h-14.4v-11.18h12.33c0.52,0,0.97-0.16,1.33-0.48c0.37-0.32,0.55-0.74,0.55-1.26s-0.18-0.95-0.55-1.29
		c-0.37-0.34-0.81-0.51-1.33-0.51h-12.33v-10.35H119.63z M152.54,365.02c0.14,0.46,0.05,0.91-0.25,1.33
		c-0.18,0.28-0.44,0.47-0.78,0.58c-0.34,0.11-0.67,0.15-1.01,0.12c-0.34-0.03-0.63-0.12-0.87-0.28c-0.49-0.28-0.97-0.68-1.43-1.22
		c-0.46-0.54-0.84-1.31-1.15-2.32c-0.31-1.01-0.46-2.39-0.46-4.14c0-0.98-0.15-1.79-0.46-2.44c-0.31-0.64-0.72-1.17-1.24-1.56
		s-1.1-0.67-1.75-0.83s-1.3-0.23-1.98-0.23h-9.71v11.18c0,0.52-0.15,0.97-0.46,1.33s-0.72,0.55-1.24,0.55
		c-0.58,0-1.08-0.18-1.5-0.55s-0.62-0.81-0.62-1.33v-28.47c0-0.52,0.18-0.96,0.53-1.31c0.35-0.35,0.79-0.53,1.31-0.53h12.7
		c1.72,0,3.27,0.39,4.65,1.17c1.38,0.78,2.48,1.86,3.29,3.22c0.81,1.36,1.22,2.94,1.22,4.71c0,1.29-0.25,2.49-0.74,3.61
		c-0.49,1.12-1.17,2.09-2.02,2.9c-0.73,0.69-1.55,1.23-2.46,1.65c0.46,0.22,0.9,0.48,1.31,0.79c0.83,0.63,1.5,1.43,2.02,2.39
		c0.52,0.97,0.8,2.09,0.83,3.38c0.06,1.13,0.14,2.04,0.23,2.71c0.09,0.67,0.23,1.2,0.41,1.59c0.18,0.38,0.44,0.68,0.78,0.9
		C152.12,364.2,152.41,364.56,152.54,365.02z M144.68,349.8c0.78-0.55,1.43-1.33,1.93-2.32c0.51-1,0.76-2.12,0.76-3.38
		c0-1.63-0.51-2.97-1.54-4.05c-1.03-1.07-2.32-1.61-3.89-1.61h-10.49v12.28h10.72C143.06,350.66,143.9,350.35,144.68,349.8z
		 M183.16,364.66c0.09,0.25,0.14,0.49,0.14,0.74c0,0.55-0.18,0.99-0.55,1.31c-0.37,0.32-0.78,0.48-1.24,0.48
		c-0.37,0-0.71-0.11-1.01-0.32c-0.31-0.21-0.54-0.52-0.69-0.92l-3.1-7.45h-14.57l-3.08,7.5c-0.12,0.37-0.34,0.66-0.64,0.87
		c-0.31,0.22-0.63,0.32-0.97,0.32c-0.58,0-1.01-0.15-1.29-0.46c-0.28-0.31-0.41-0.67-0.41-1.1c-0.03-0.21,0-0.44,0.09-0.69
		l11.91-28.98c0.15-0.43,0.39-0.74,0.71-0.94c0.32-0.2,0.68-0.28,1.08-0.25c0.4,0,0.76,0.11,1.08,0.32
		c0.32,0.21,0.54,0.51,0.67,0.87L183.16,364.66z M175.21,354.9l-5.84-14.02l-5.76,14.02H175.21z M206.11,363.46h-13.94v-26.73
		c0-0.52-0.18-0.96-0.55-1.31s-0.81-0.53-1.33-0.53c-0.55,0-1.01,0.18-1.38,0.53c-0.37,0.35-0.55,0.79-0.55,1.31v28.47
		c0,0.52,0.18,0.97,0.53,1.33c0.35,0.37,0.79,0.55,1.31,0.55h15.92c0.52,0,0.97-0.17,1.33-0.51c0.37-0.34,0.55-0.77,0.55-1.29
		s-0.18-0.96-0.55-1.31C207.08,363.64,206.63,363.46,206.11,363.46z M253.81,344.39c0.77,2.01,1.15,4.21,1.15,6.6
		c0,2.36-0.38,4.55-1.15,6.55c-0.77,2.01-1.84,3.76-3.22,5.27c-1.38,1.5-3.02,2.67-4.92,3.5c-1.9,0.83-3.97,1.24-6.21,1.24
		c-2.27,0-4.35-0.41-6.23-1.24c-1.89-0.83-3.52-1.99-4.9-3.5c-1.38-1.5-2.45-3.26-3.22-5.27c-0.77-2.01-1.15-4.19-1.15-6.55
		c0-2.39,0.38-4.59,1.15-6.6c0.77-2.01,1.84-3.76,3.22-5.24c1.38-1.49,3.01-2.64,4.9-3.47c1.89-0.83,3.96-1.24,6.23-1.24
		c2.24,0,4.31,0.41,6.21,1.24c1.9,0.83,3.54,1.99,4.92,3.47C251.97,340.64,253.05,342.38,253.81,344.39z M251.01,350.99
		c0-2.51-0.5-4.74-1.5-6.67c-1-1.93-2.35-3.45-4.07-4.55c-1.72-1.1-3.71-1.66-5.98-1.66s-4.27,0.55-6,1.66
		c-1.73,1.1-3.09,2.62-4.07,4.55c-0.98,1.93-1.47,4.16-1.47,6.67c0,2.48,0.49,4.7,1.47,6.65c0.98,1.95,2.34,3.47,4.07,4.58
		c1.73,1.1,3.73,1.66,6,1.66s4.26-0.55,5.98-1.66c1.72-1.1,3.07-2.63,4.07-4.58C250.51,355.69,251.01,353.48,251.01,350.99z
		 M263.01,334.89c-0.55,0-1.01,0.18-1.38,0.53c-0.37,0.35-0.55,0.8-0.55,1.36v28.43c0,0.52,0.17,0.97,0.51,1.33
		c0.34,0.37,0.8,0.55,1.38,0.55c0.52,0,0.97-0.18,1.36-0.55c0.38-0.37,0.58-0.81,0.58-1.33v-28.43c0-0.55-0.18-1-0.55-1.36
		S263.53,334.89,263.01,334.89z M290.75,363.46h-13.94v-26.73c0-0.52-0.18-0.96-0.55-1.31s-0.81-0.53-1.33-0.53
		c-0.55,0-1.01,0.18-1.38,0.53c-0.37,0.35-0.55,0.79-0.55,1.31v28.47c0,0.52,0.18,0.97,0.53,1.33c0.35,0.37,0.79,0.55,1.31,0.55
		h15.92c0.52,0,0.97-0.17,1.33-0.51c0.37-0.34,0.55-0.77,0.55-1.29s-0.18-0.96-0.55-1.31C291.72,363.64,291.27,363.46,290.75,363.46
		z M328.56,334.89h-16.15c-0.52,0-0.96,0.18-1.31,0.53c-0.35,0.35-0.53,0.79-0.53,1.31v28.47c0,0.52,0.18,0.97,0.53,1.33
		c0.35,0.37,0.8,0.55,1.36,0.55c0.52,0,0.97-0.18,1.33-0.55s0.55-0.81,0.55-1.33v-12.79h12.14c0.52,0,0.97-0.18,1.33-0.53
		c0.37-0.35,0.55-0.76,0.55-1.22c0-0.52-0.18-0.96-0.55-1.31c-0.37-0.35-0.81-0.53-1.33-0.53h-12.14v-10.4h14.21
		c0.52,0,0.97-0.17,1.33-0.51c0.37-0.34,0.55-0.75,0.55-1.24c0-0.52-0.18-0.95-0.55-1.29C329.53,335.06,329.08,334.89,328.56,334.89
		z M361.47,365.02c0.14,0.46,0.05,0.91-0.25,1.33c-0.18,0.28-0.44,0.47-0.78,0.58c-0.34,0.11-0.67,0.15-1.01,0.12
		c-0.34-0.03-0.63-0.12-0.87-0.28c-0.49-0.28-0.97-0.68-1.43-1.22c-0.46-0.54-0.84-1.31-1.15-2.32c-0.31-1.01-0.46-2.39-0.46-4.14
		c0-0.98-0.15-1.79-0.46-2.44c-0.31-0.64-0.72-1.17-1.24-1.56s-1.1-0.67-1.75-0.83s-1.3-0.23-1.98-0.23h-9.71v11.18
		c0,0.52-0.15,0.97-0.46,1.33s-0.72,0.55-1.24,0.55c-0.58,0-1.08-0.18-1.5-0.55s-0.62-0.81-0.62-1.33v-28.47
		c0-0.52,0.18-0.96,0.53-1.31c0.35-0.35,0.79-0.53,1.31-0.53h12.7c1.72,0,3.27,0.39,4.65,1.17c1.38,0.78,2.48,1.86,3.29,3.22
		c0.81,1.36,1.22,2.94,1.22,4.71c0,1.29-0.25,2.49-0.74,3.61c-0.49,1.12-1.17,2.09-2.02,2.9c-0.73,0.69-1.55,1.23-2.46,1.65
		c0.46,0.22,0.9,0.48,1.31,0.79c0.83,0.63,1.5,1.43,2.02,2.39c0.52,0.97,0.8,2.09,0.83,3.38c0.06,1.13,0.14,2.04,0.23,2.71
		c0.09,0.67,0.23,1.2,0.41,1.59c0.18,0.38,0.44,0.68,0.78,0.9C361.05,364.2,361.33,364.56,361.47,365.02z M353.61,349.8
		c0.78-0.55,1.43-1.33,1.93-2.32c0.51-1,0.76-2.12,0.76-3.38c0-1.63-0.51-2.97-1.54-4.05c-1.03-1.07-2.32-1.61-3.89-1.61h-10.49
		v12.28h10.72C351.99,350.66,352.83,350.35,353.61,349.8z M385.88,338.44c0.52,0,0.97-0.16,1.33-0.48c0.37-0.32,0.55-0.74,0.55-1.27
		c0-0.52-0.18-0.95-0.55-1.29c-0.37-0.34-0.81-0.51-1.33-0.51H369.5c-0.52,0-0.96,0.18-1.31,0.53c-0.35,0.35-0.53,0.79-0.53,1.31
		v28.47c0,0.52,0.18,0.97,0.53,1.33c0.35,0.37,0.79,0.55,1.31,0.55h16.38c0.52,0,0.97-0.17,1.33-0.51c0.37-0.34,0.55-0.77,0.55-1.29
		c0-0.46-0.18-0.87-0.55-1.24c-0.37-0.37-0.81-0.55-1.33-0.55h-14.4v-11.18h12.33c0.52,0,0.97-0.16,1.33-0.48
		c0.37-0.32,0.55-0.74,0.55-1.26s-0.18-0.95-0.55-1.29c-0.37-0.34-0.81-0.51-1.33-0.51h-12.33v-10.35H385.88z M412.1,363.51h-14.4
		v-11.18h12.33c0.52,0,0.97-0.16,1.33-0.48c0.37-0.32,0.55-0.74,0.55-1.26s-0.18-0.95-0.55-1.29c-0.37-0.34-0.81-0.51-1.33-0.51
		H397.7v-10.35h14.4c0.52,0,0.97-0.16,1.33-0.48c0.37-0.32,0.55-0.74,0.55-1.27c0-0.52-0.18-0.95-0.55-1.29
		c-0.37-0.34-0.81-0.51-1.33-0.51h-16.38c-0.52,0-0.96,0.18-1.31,0.53c-0.35,0.35-0.53,0.79-0.53,1.31v28.47
		c0,0.52,0.18,0.97,0.53,1.33c0.35,0.37,0.79,0.55,1.31,0.55h16.38c0.52,0,0.97-0.17,1.33-0.51c0.37-0.34,0.55-0.77,0.55-1.29
		c0-0.46-0.18-0.87-0.55-1.24C413.06,363.69,412.62,363.51,412.1,363.51z"/>
	<path d="M247.73,76.89h-40.11c-0.66,0-1.3,0.26-1.77,0.73l-16.69,16.69l-11.47-11.47c-0.98-0.98-2.56-0.98-3.54,0l-4.18,4.18
		l-8.38-8.38c-0.98-0.98-2.56-0.98-3.54,0l-11.79,11.79c-0.98,0.98-0.98,2.56,0,3.54l8.38,8.38l-4.18,4.18
		c-0.98,0.98-0.98,2.56,0,3.54l11.47,11.47l-18.62,18.62c-0.47,0.47-0.73,1.1-0.73,1.77v74.12c0,22.98,18.69,41.67,41.67,41.67
		h63.46c22.98,0,41.67-18.69,41.67-41.67v-97.47C289.4,95.59,270.71,76.89,247.73,76.89z M159.82,83.94l6.62,6.62l-8.25,8.25
		l-6.62-6.62L159.82,83.94z M175.92,88.15l9.7,9.7L165.48,118l-9.7-9.7L175.92,88.15z M284.4,216.04
		c0,20.22-16.45,36.67-36.67,36.67h-63.46c-20.22,0-36.67-16.45-36.67-36.67v-73.09l61.06-61.06h39.07
		c20.22,0,36.67,16.45,36.67,36.67V216.04z M264.16,159.95c0.98-0.98,0.98-2.56,0-3.54c-0.98-0.98-2.56-0.98-3.54,0l-15.23,15.23
		H186.6l-15.23-15.23c-0.98-0.98-2.56-0.98-3.54,0c-0.98,0.98-0.98,2.56,0,3.54l15.23,15.23v34.64l-15.23,15.23
		c-0.98,0.98-0.98,2.56,0,3.54c0.49,0.49,1.13,0.73,1.77,0.73s1.28-0.24,1.77-0.73l15.23-15.23h58.79l15.23,15.23
		c0.49,0.49,1.13,0.73,1.77,0.73s1.28-0.24,1.77-0.73c0.98-0.98,0.98-2.56,0-3.54l-15.23-15.23v-34.64L264.16,159.95z
		 M188.07,176.64h55.86v31.71h-55.86V176.64z M247.73,94.64h-32.76c-0.66,0-1.3,0.26-1.77,0.73l-33.5,33.5
		c-2.65,2.65-3.41,6.45-1.97,9.92c1.44,3.47,4.66,5.62,8.41,5.62h68.77c9.23,0,16.75-7.51,16.75-16.75v-9.1
		C271.65,105.37,260.92,94.64,247.73,94.64z M266.65,127.67c0,6.48-5.27,11.75-11.75,11.75h-68.77c-1.72,0-3.13-0.95-3.79-2.53
		c-0.66-1.59-0.32-3.26,0.89-4.47l32.77-32.77h31.72c10.43,0,18.92,8.49,18.92,18.92V127.67z M216,17.5
		C134.67,17.5,68.5,83.67,68.5,165S134.67,312.5,216,312.5S363.5,246.33,363.5,165S297.33,17.5,216,17.5z M216,307.5
		c-78.57,0-142.5-63.92-142.5-142.5S137.43,22.5,216,22.5S358.5,86.42,358.5,165S294.57,307.5,216,307.5z"/>
</g>
<g id="Layer_3">
</g>
<g id="Layer_4">
</g>
<g id="Layer_5">
</g>
<g id="Layer_6">
</g>
<g id="Layer_7">
</g>
<g id="Layer_8">
</g>
<g id="Layer_9">
</g>
<g id="Layer_10">
</g>
<g id="Layer_11">
</g>
<g id="Layer_12">
</g>
<g id="Layer_13">
</g>
<g id="Layer_14">
</g>
<g id="Layer_15">
</g>
<g id="Layer_16">
</g>
<g id="Layer_32">
</g>
<g id="Layer_33">
</g>
<g id="Layer_34">
</g>
<g id="Layer_35">
</g>
<g id="Layer_49">
</g>
<g id="Layer_50">
</g>
<g id="Layer_51">
</g>
</svg>
