<?xml version="1.0" encoding="utf-8"?>
<!-- Generator: Adobe Illustrator 23.0.1, SVG Export Plug-In . SVG Version: 6.00 Build 0)  -->
<svg version="1.1" xmlns="http://www.w3.org/2000/svg" xmlns:xlink="http://www.w3.org/1999/xlink" x="0px" y="0px"
	 viewBox="0 0 432 432" enable-background="new 0 0 432 432" xml:space="preserve">
<g id="Layer_37">
</g>
<g id="Layer_47">
</g>
<g id="Layer_42">
	<path id="fair_trade" d="M109.44,335.4c0.37,0.34,0.55,0.77,0.55,1.29c0,0.49-0.18,0.9-0.55,1.24c-0.37,0.34-0.81,0.51-1.33,0.51
		H93.89v10.4h12.14c0.52,0,0.97,0.18,1.33,0.53c0.37,0.35,0.55,0.79,0.55,1.31c0,0.46-0.18,0.87-0.55,1.22
		c-0.37,0.35-0.81,0.53-1.33,0.53H93.89v12.79c0,0.52-0.18,0.97-0.55,1.33c-0.37,0.37-0.81,0.55-1.33,0.55c-0.55,0-1-0.18-1.36-0.55
		c-0.35-0.37-0.53-0.81-0.53-1.33v-28.47c0-0.52,0.18-0.96,0.53-1.31c0.35-0.35,0.79-0.53,1.31-0.53h16.15
		C108.63,334.89,109.07,335.06,109.44,335.4z M139.07,364.65c0.09,0.25,0.14,0.49,0.14,0.74c0,0.55-0.18,0.99-0.55,1.31
		c-0.37,0.32-0.78,0.48-1.24,0.48c-0.37,0-0.71-0.11-1.01-0.32c-0.31-0.21-0.54-0.52-0.69-0.92l-3.1-7.45h-14.56l-3.08,7.5
		c-0.12,0.37-0.34,0.66-0.64,0.87c-0.31,0.21-0.63,0.32-0.97,0.32c-0.58,0-1.01-0.15-1.29-0.46c-0.28-0.31-0.41-0.67-0.41-1.1
		c-0.03-0.21,0-0.44,0.09-0.69l11.91-28.98c0.15-0.43,0.39-0.74,0.71-0.94c0.32-0.2,0.68-0.28,1.08-0.25c0.4,0,0.76,0.11,1.08,0.32
		c0.32,0.21,0.54,0.51,0.67,0.87L139.07,364.65z M131.11,354.9l-5.84-14.03l-5.76,14.03H131.11z M146.2,334.89
		c-0.55,0-1.01,0.18-1.38,0.53c-0.37,0.35-0.55,0.8-0.55,1.36v28.43c0,0.52,0.17,0.97,0.51,1.33c0.34,0.37,0.8,0.55,1.38,0.55
		c0.52,0,0.97-0.18,1.36-0.55c0.38-0.37,0.58-0.81,0.58-1.33v-28.43c0-0.55-0.18-1-0.55-1.36
		C147.16,335.07,146.72,334.89,146.2,334.89z M181.09,365.02c0.14,0.46,0.05,0.9-0.25,1.33c-0.18,0.28-0.45,0.47-0.78,0.57
		c-0.34,0.11-0.67,0.15-1.01,0.12c-0.34-0.03-0.63-0.12-0.87-0.28c-0.49-0.28-0.97-0.68-1.43-1.22c-0.46-0.54-0.84-1.31-1.15-2.32
		c-0.31-1.01-0.46-2.39-0.46-4.14c0-0.98-0.15-1.79-0.46-2.44c-0.31-0.64-0.72-1.17-1.24-1.56c-0.52-0.4-1.1-0.67-1.75-0.83
		c-0.64-0.15-1.3-0.23-1.98-0.23H160v11.18c0,0.52-0.15,0.97-0.46,1.33c-0.31,0.37-0.72,0.55-1.24,0.55c-0.58,0-1.08-0.18-1.5-0.55
		c-0.41-0.37-0.62-0.81-0.62-1.33v-28.47c0-0.52,0.18-0.96,0.53-1.31c0.35-0.35,0.79-0.53,1.31-0.53h12.7
		c1.72,0,3.27,0.39,4.65,1.17c1.38,0.78,2.48,1.86,3.29,3.22c0.81,1.37,1.22,2.94,1.22,4.72c0,1.29-0.25,2.49-0.74,3.61
		c-0.49,1.12-1.17,2.09-2.02,2.9c-0.73,0.69-1.55,1.23-2.46,1.65c0.46,0.22,0.9,0.48,1.31,0.79c0.83,0.63,1.5,1.43,2.02,2.39
		c0.52,0.97,0.8,2.09,0.83,3.38c0.06,1.13,0.14,2.04,0.23,2.71c0.09,0.68,0.23,1.2,0.41,1.59c0.18,0.38,0.44,0.68,0.78,0.9
		C180.66,364.19,180.95,364.56,181.09,365.02z M173.22,349.79c0.78-0.55,1.43-1.33,1.93-2.32c0.51-1,0.76-2.12,0.76-3.38
		c0-1.63-0.51-2.97-1.54-4.05c-1.03-1.07-2.32-1.61-3.89-1.61H160v12.28h10.72C171.6,350.65,172.44,350.35,173.22,349.79z
		 M220.62,334.89h-21.39c-0.52,0-0.96,0.16-1.31,0.48c-0.35,0.32-0.53,0.74-0.53,1.26c0,0.52,0.18,0.94,0.53,1.27
		s0.79,0.48,1.31,0.48h8.74v26.82c0,0.52,0.18,0.97,0.55,1.33c0.37,0.37,0.83,0.55,1.38,0.55c0.58,0,1.06-0.18,1.43-0.55
		c0.37-0.37,0.55-0.81,0.55-1.33v-26.82h8.74c0.52,0,0.97-0.15,1.33-0.46c0.37-0.31,0.55-0.74,0.55-1.29c0-0.52-0.18-0.94-0.55-1.26
		C221.59,335.05,221.14,334.89,220.62,334.89z M252.94,365.02c0.14,0.46,0.05,0.9-0.25,1.33c-0.18,0.28-0.45,0.47-0.78,0.57
		c-0.34,0.11-0.67,0.15-1.01,0.12c-0.34-0.03-0.63-0.12-0.87-0.28c-0.49-0.28-0.97-0.68-1.43-1.22c-0.46-0.54-0.84-1.31-1.15-2.32
		c-0.31-1.01-0.46-2.39-0.46-4.14c0-0.98-0.15-1.79-0.46-2.44c-0.31-0.64-0.72-1.17-1.24-1.56c-0.52-0.4-1.1-0.67-1.75-0.83
		c-0.64-0.15-1.3-0.23-1.98-0.23h-9.71v11.18c0,0.52-0.15,0.97-0.46,1.33c-0.31,0.37-0.72,0.55-1.24,0.55
		c-0.58,0-1.08-0.18-1.5-0.55c-0.41-0.37-0.62-0.81-0.62-1.33v-28.47c0-0.52,0.18-0.96,0.53-1.31c0.35-0.35,0.79-0.53,1.31-0.53
		h12.7c1.72,0,3.27,0.39,4.65,1.17c1.38,0.78,2.48,1.86,3.29,3.22c0.81,1.37,1.22,2.94,1.22,4.72c0,1.29-0.25,2.49-0.74,3.61
		c-0.49,1.12-1.17,2.09-2.02,2.9c-0.73,0.69-1.55,1.23-2.46,1.65c0.46,0.22,0.9,0.48,1.31,0.79c0.83,0.63,1.5,1.43,2.02,2.39
		c0.52,0.97,0.8,2.09,0.83,3.38c0.06,1.13,0.14,2.04,0.23,2.71c0.09,0.68,0.23,1.2,0.41,1.59c0.18,0.38,0.44,0.68,0.78,0.9
		C252.52,364.19,252.8,364.56,252.94,365.02z M245.07,349.79c0.78-0.55,1.43-1.33,1.93-2.32c0.51-1,0.76-2.12,0.76-3.38
		c0-1.63-0.51-2.97-1.54-4.05c-1.03-1.07-2.32-1.61-3.89-1.61h-10.49v12.28h10.72C243.45,350.65,244.29,350.35,245.07,349.79z
		 M283.55,364.65c0.09,0.25,0.14,0.49,0.14,0.74c0,0.55-0.18,0.99-0.55,1.31c-0.37,0.32-0.78,0.48-1.24,0.48
		c-0.37,0-0.71-0.11-1.01-0.32c-0.31-0.21-0.54-0.52-0.69-0.92l-3.1-7.45h-14.56l-3.08,7.5c-0.12,0.37-0.34,0.66-0.64,0.87
		c-0.31,0.21-0.63,0.32-0.97,0.32c-0.58,0-1.01-0.15-1.29-0.46c-0.28-0.31-0.41-0.67-0.41-1.1c-0.03-0.21,0-0.44,0.09-0.69
		l11.91-28.98c0.15-0.43,0.39-0.74,0.71-0.94c0.32-0.2,0.68-0.28,1.08-0.25c0.4,0,0.76,0.11,1.08,0.32
		c0.32,0.21,0.54,0.51,0.67,0.87L283.55,364.65z M275.6,354.9l-5.84-14.03L264,354.9H275.6z M314.81,344.85
		c0.57,1.95,0.85,4,0.85,6.14c0,2.94-0.51,5.64-1.52,8.07c-1.01,2.44-2.52,4.39-4.51,5.84c-1.99,1.46-4.51,2.19-7.54,2.19h-11.5
		c-0.52,0-0.96-0.18-1.31-0.55c-0.35-0.37-0.53-0.81-0.53-1.33v-28.47c0-0.52,0.18-0.96,0.53-1.31c0.35-0.35,0.79-0.53,1.31-0.53
		h11.5c2.24,0,4.21,0.42,5.91,1.27c1.7,0.84,3.12,2.02,4.25,3.52C313.39,341.18,314.24,342.9,314.81,344.85z M311.7,350.99
		c0-1.66-0.19-3.24-0.58-4.76s-0.98-2.86-1.79-4.03c-0.81-1.17-1.86-2.08-3.13-2.76c-1.27-0.67-2.8-1.01-4.58-1.01h-9.06v25.07h9.06
		c2.36,0,4.29-0.57,5.77-1.7c1.49-1.13,2.58-2.65,3.27-4.55C311.36,355.35,311.7,353.26,311.7,350.99z M339.99,363.5h-14.4v-11.18
		h12.33c0.52,0,0.97-0.16,1.33-0.48c0.37-0.32,0.55-0.74,0.55-1.27c0-0.52-0.18-0.95-0.55-1.29s-0.81-0.51-1.33-0.51h-12.33v-10.35
		h14.4c0.52,0,0.97-0.16,1.33-0.48c0.37-0.32,0.55-0.74,0.55-1.26s-0.18-0.95-0.55-1.29c-0.37-0.34-0.81-0.51-1.33-0.51h-16.38
		c-0.52,0-0.96,0.18-1.31,0.53c-0.35,0.35-0.53,0.79-0.53,1.31v28.47c0,0.52,0.18,0.97,0.53,1.33c0.35,0.37,0.79,0.55,1.31,0.55
		h16.38c0.52,0,0.97-0.17,1.33-0.51c0.37-0.34,0.55-0.77,0.55-1.29c0-0.46-0.18-0.87-0.55-1.24
		C340.96,363.69,340.51,363.5,339.99,363.5z"/>
	<path d="M216,17.5C134.67,17.5,68.5,83.67,68.5,165S134.67,312.5,216,312.5S363.5,246.33,363.5,165S297.33,17.5,216,17.5z
		 M216,307.5c-78.57,0-142.5-63.93-142.5-142.5S137.43,22.5,216,22.5S358.5,86.43,358.5,165S294.57,307.5,216,307.5z M305.97,108.92
		c0-1.38-1.12-2.5-2.5-2.5h-66.83c-1.24-10.29-10.01-18.3-20.64-18.3s-19.39,8.01-20.64,18.3h-66.83c-1.38,0-2.5,1.12-2.5,2.5
		s1.12,2.5,2.5,2.5h26.61l-25.09,25.09c0,0,0,0-0.01,0.01c-3.73,3.73-4.65,8.53-2.59,13.5c4.21,10.16,20.91,20.13,33.73,20.13
		s29.52-9.97,33.73-20.13c2.06-4.97,1.14-9.76-2.59-13.5c0,0,0,0-0.01-0.01l-25.09-25.09h28.15c1.14,9.47,8.66,16.99,18.14,18.14
		v91.14h-25.37c-10.3,0-18.68,8.38-18.68,18.68c0,1.38,1.12,2.5,2.5,2.5h88.09c1.38,0,2.5-1.12,2.5-2.5
		c0-10.3-8.38-18.68-18.68-18.68H218.5v-91.14c9.47-1.14,16.99-8.66,18.14-18.14h28.15l-25.09,25.09c0,0,0,0-0.01,0.01
		c-3.73,3.73-4.65,8.53-2.59,13.5c4.21,10.16,20.91,20.13,33.73,20.13s29.52-9.97,33.73-20.13c2.06-4.97,1.14-9.76-2.59-13.5
		c0,0,0,0-0.01-0.01l-25.09-25.09h26.62C304.85,111.42,305.97,110.3,305.97,108.92z M190.29,148.11
		c-3.43,8.28-18.39,17.04-29.11,17.04c-10.71,0-25.68-8.76-29.11-17.04c-1.16-2.79-0.87-5.19,0.86-7.32h56.49
		C191.15,142.92,191.44,145.32,190.29,148.11z M184.51,135.79h-46.66l23.33-23.33L184.51,135.79z M243.87,225.7
		c6.69,0,12.27,4.83,13.45,11.18h-82.63c1.18-6.35,6.76-11.18,13.45-11.18H243.87z M216,124.72c-8.71,0-15.8-7.09-15.8-15.8
		s7.09-15.8,15.8-15.8s15.8,7.09,15.8,15.8S224.71,124.72,216,124.72z M299.93,148.11c-3.43,8.28-18.39,17.04-29.11,17.04
		c-10.71,0-25.68-8.76-29.11-17.04c-1.16-2.79-0.87-5.19,0.86-7.32h56.49C300.79,142.92,301.08,145.32,299.93,148.11z
		 M294.15,135.79h-46.66l23.33-23.33L294.15,135.79z"/>
</g>
<g id="Layer_43">
</g>
<g id="Layer_44">
</g>
<g id="Layer_45">
</g>
<g id="Layer_46">
</g>
<g id="Layer_38">
</g>
<g id="Layer_39">
</g>
<g id="Layer_40">
</g>
<g id="Layer_41">
</g>
<g id="Layer_17">
</g>
<g id="Layer_18">
</g>
<g id="Layer_19">
</g>
<g id="Layer_20">
</g>
<g id="Layer_21">
</g>
<g id="Layer_22">
</g>
<g id="Layer_23">
</g>
<g id="Layer_24">
</g>
<g id="Layer_25">
</g>
<g id="Layer_26">
</g>
<g id="Layer_27">
</g>
<g id="Layer_28">
</g>
<g id="Layer_29">
</g>
<g id="Layer_30">
</g>
<g id="Layer_31">
</g>
<g id="Layer_2">
</g>
<g id="Layer_3">
</g>
<g id="Layer_4">
</g>
<g id="Layer_5">
</g>
<g id="Layer_6">
</g>
<g id="Layer_7">
</g>
<g id="Layer_8">
</g>
<g id="Layer_9">
</g>
<g id="Layer_10">
</g>
<g id="Layer_11">
</g>
<g id="Layer_12">
</g>
<g id="Layer_13">
</g>
<g id="Layer_14">
</g>
<g id="Layer_15">
</g>
<g id="Layer_16">
</g>
<g id="Layer_32">
</g>
<g id="Layer_33">
</g>
<g id="Layer_34">
</g>
<g id="Layer_35">
</g>
<g id="Layer_49">
</g>
<g id="Layer_50">
</g>
<g id="Layer_51">
</g>
</svg>
