<?xml version="1.0" encoding="utf-8"?>
<!-- Generator: Adobe Illustrator 23.0.1, SVG Export Plug-In . SVG Version: 6.00 Build 0)  -->
<svg version="1.1" xmlns="http://www.w3.org/2000/svg" xmlns:xlink="http://www.w3.org/1999/xlink" x="0px" y="0px"
	 viewBox="0 0 432 432" enable-background="new 0 0 432 432" xml:space="preserve">
<g id="Layer_37">
</g>
<g id="Layer_47">
</g>
<g id="Layer_42">
</g>
<g id="Layer_43">
</g>
<g id="Layer_44">
</g>
<g id="Layer_45">
</g>
<g id="Layer_46">
</g>
<g id="Layer_38">
</g>
<g id="Layer_39">
</g>
<g id="Layer_40">
</g>
<g id="Layer_41">
</g>
<g id="Layer_17">
</g>
<g id="Layer_18">
</g>
<g id="Layer_19">
</g>
<g id="Layer_20">
</g>
<g id="Layer_21">
</g>
<g id="Layer_22">
</g>
<g id="Layer_23">
</g>
<g id="Layer_24">
</g>
<g id="Layer_25">
</g>
<g id="Layer_26">
</g>
<g id="Layer_27">
</g>
<g id="Layer_28">
</g>
<g id="Layer_29">
</g>
<g id="Layer_30">
</g>
<g id="Layer_31">
</g>
<g id="Layer_2">
</g>
<g id="Layer_3">
</g>
<g id="Layer_4">
</g>
<g id="Layer_5">
</g>
<g id="Layer_6">
</g>
<g id="Layer_7">
</g>
<g id="Layer_8">
</g>
<g id="Layer_9">
</g>
<g id="Layer_10">
</g>
<g id="Layer_11">
</g>
<g id="Layer_12">
</g>
<g id="Layer_13">
</g>
<g id="Layer_14">
</g>
<g id="Layer_15">
	<path d="M178.5,199.13c-35.45,0-88.2,5.17-88.2,19.43v70.33c0,14.25,52.74,19.43,88.2,19.43s88.2-5.17,88.2-19.43v-70.33
		C266.7,204.3,213.96,199.13,178.5,199.13z M178.5,204.13c54.62,0,83.2,9.39,83.2,14.43s-28.57,14.43-83.2,14.43
		s-83.2-9.39-83.2-14.43S123.88,204.13,178.5,204.13z M178.5,303.31c-54.62,0-83.2-9.39-83.2-14.43v-63.32
		c13.97,8.98,54.32,12.41,83.2,12.41s69.22-3.43,83.2-12.41v63.32C261.7,293.92,233.13,303.31,178.5,303.31z M90.5,184.3
		c1.56,5.35,10.24,7.98,26.5,7.98c0.95,0,1.92-0.01,2.92-0.03c16.65-0.29,38.23-3.14,60.76-8c34.65-7.48,85.11-23.68,82.11-37.61
		c0,0,0,0,0,0l-3.79-17.53c0,0,0,0,0,0c-0.7-3.24-4.63-6.73-28.95-4.92c-16.41,1.22-37.83,4.57-60.31,9.42
		c-22.48,4.86-43.37,10.65-58.82,16.31c-22.9,8.39-25.03,13.19-24.33,16.43l3.79,17.53C90.4,184.02,90.44,184.16,90.5,184.3z
		 M179.62,179.36c-22.22,4.8-43.46,7.6-59.79,7.89c-18.61,0.34-24.21-2.75-24.57-4.43c0,0,0,0,0,0l-2.59-12.01
		c2.53,0.59,6.09,0.95,11.12,0.95c3.26,0,7.14-0.15,11.75-0.5c16.41-1.22,37.83-4.57,60.31-9.42c22.48-4.86,43.37-10.65,58.82-16.31
		c11.04-4.04,17.24-7.25,20.64-9.86l2.59,12.01c0,0,0,0,0,0C258.95,152.61,233.01,167.83,179.62,179.36z M114.77,153.84
		c15-5.33,34.9-10.79,56.02-15.35c21.12-4.56,41.5-7.81,57.36-9.14c19.35-1.63,24.55,0.2,25.75,0.86c-0.82,1.09-4.8,4.9-23.1,11.41
		c-15.01,5.33-34.9,10.78-56.02,15.35s-41.49,7.81-57.36,9.15c-19.35,1.63-24.55-0.2-25.75-0.86
		C92.49,164.15,96.47,160.34,114.77,153.84z M147.5,253.7c0.41,0.45,0.62,1,0.62,1.68v27.51c0,0.67-0.24,1.23-0.71,1.68
		c-0.48,0.45-1.08,0.67-1.82,0.67c-0.71,0-1.29-0.22-1.75-0.67c-0.46-0.44-0.69-1-0.69-1.68v-23.47l-3.82,2.27
		c-0.37,0.25-0.77,0.37-1.2,0.37c-0.68,0-1.24-0.25-1.68-0.76c-0.44-0.51-0.67-1.05-0.67-1.63c0-0.83,0.4-1.49,1.2-1.98l7.22-4.32
		c0.46-0.25,1.03-0.35,1.7-0.32C146.56,253.03,147.08,253.26,147.5,253.7z M172.34,254.69c-1.76-1.41-3.93-2.12-6.51-2.12
		s-4.75,0.71-6.53,2.12c-1.78,1.41-3.12,3.37-4.03,5.87c-0.9,2.5-1.36,5.36-1.36,8.58c0,3.19,0.45,6.03,1.36,8.53
		c0.9,2.5,2.25,4.46,4.03,5.89c1.78,1.43,3.96,2.14,6.53,2.14s4.75-0.71,6.51-2.14c1.76-1.43,3.11-3.39,4.03-5.89
		c0.92-2.5,1.38-5.34,1.38-8.53c0-3.22-0.46-6.08-1.38-8.58C175.44,258.06,174.1,256.1,172.34,254.69z M171.92,275.62
		c-0.57,1.78-1.37,3.13-2.39,4.05c-1.03,0.92-2.26,1.38-3.7,1.38c-1.44,0-2.68-0.46-3.73-1.38c-1.04-0.92-1.84-2.27-2.39-4.05
		c-0.55-1.78-0.83-3.94-0.83-6.49c0-2.58,0.28-4.75,0.83-6.53s1.35-3.13,2.39-4.05c1.04-0.92,2.28-1.38,3.73-1.38
		c1.44,0,2.67,0.46,3.7,1.38c1.03,0.92,1.82,2.27,2.39,4.05s0.85,3.96,0.85,6.53C172.78,271.68,172.49,273.84,171.92,275.62z
		 M213.14,253.66c0.47,0.45,0.71,1,0.71,1.68v27.55c0,0.67-0.21,1.23-0.64,1.68c-0.43,0.45-1,0.67-1.7,0.67
		c-0.74,0-1.33-0.22-1.77-0.67c-0.45-0.44-0.67-1-0.67-1.68v-20.76l-8.65,13.17c-0.21,0.28-0.49,0.51-0.83,0.71
		c-0.34,0.2-0.69,0.28-1.06,0.25c-0.34,0.03-0.68-0.05-1.04-0.25s-0.64-0.44-0.85-0.71L188,261.84v21.05c0,0.67-0.21,1.23-0.62,1.68
		c-0.41,0.45-0.96,0.67-1.63,0.67c-0.64,0-1.17-0.22-1.59-0.67c-0.41-0.44-0.62-1-0.62-1.68v-27.55c0-0.64,0.24-1.2,0.71-1.66
		s1.04-0.69,1.68-0.69c0.37,0,0.75,0.09,1.15,0.28c0.4,0.18,0.71,0.44,0.92,0.78l10.68,16.27l10.94-16.27
		c0.49-0.71,1.12-1.06,1.89-1.06C212.12,252.99,212.66,253.21,213.14,253.66z"/>
</g>
<g id="Layer_16">
</g>
<g id="Layer_32">
</g>
<g id="Layer_33">
</g>
<g id="Layer_34">
</g>
<g id="Layer_35">
</g>
<g id="Layer_49">
</g>
<g id="Layer_50">
</g>
<g id="Layer_51">
</g>
</svg>
