<?xml version="1.0" encoding="utf-8"?>
<!-- Generator: Adobe Illustrator 23.0.1, SVG Export Plug-In . SVG Version: 6.00 Build 0)  -->
<svg version="1.1" xmlns="http://www.w3.org/2000/svg" xmlns:xlink="http://www.w3.org/1999/xlink" x="0px" y="0px"
	 viewBox="0 0 432 432" enable-background="new 0 0 432 432" xml:space="preserve">
<g id="Layer_37">
</g>
<g id="Layer_47">
</g>
<g id="Layer_42">
</g>
<g id="Layer_43">
</g>
<g id="Layer_44">
</g>
<g id="Layer_45">
</g>
<g id="Layer_46">
</g>
<g id="Layer_38">
</g>
<g id="Layer_39">
</g>
<g id="Layer_40">
</g>
<g id="Layer_41">
</g>
<g id="Layer_17">
</g>
<g id="Layer_18">
</g>
<g id="Layer_19">
</g>
<g id="Layer_20">
</g>
<g id="Layer_21">
</g>
<g id="Layer_22">
</g>
<g id="Layer_23">
</g>
<g id="Layer_24">
</g>
<g id="Layer_25">
</g>
<g id="Layer_26">
</g>
<g id="Layer_27">
</g>
<g id="Layer_28">
</g>
<g id="Layer_29">
</g>
<g id="Layer_30">
	<path d="M68.5,165c0-81.33,66.17-147.5,147.5-147.5S363.5,83.67,363.5,165S297.33,312.5,216,312.5S68.5,246.33,68.5,165z M73.5,165
		c0,78.58,63.92,142.5,142.5,142.5S358.5,243.58,358.5,165S294.58,22.5,216,22.5S73.5,86.42,73.5,165z M111.79,148.98
		c0-15.54,10.18-28.74,24.22-33.29c-0.51-2.42-0.76-4.89-0.76-7.38c0-19.68,16.01-35.68,35.68-35.68c0.6,0,1.2,0.04,1.81,0.07
		c-0.26-1.62-0.4-3.28-0.4-4.95c0-17.09,13.9-30.99,30.99-30.99c15.8,0,28.87,11.89,30.75,27.2c5.32-2.47,11.15-3.79,17.08-3.79
		c22.36,0,40.54,18.19,40.54,40.54c0,5.09-0.93,10.02-2.76,14.7c13.28,4.97,22.77,17.79,22.77,32.79c0,19.29-15.7,34.99-34.99,34.99
		c-1.78,0-3.54-0.15-5.28-0.41c-1.79,15.4-14.89,27.4-30.77,27.4c-0.48,0-0.95-0.03-1.42-0.05v4.09c0,24.62,41.75,33.98,43.86,34.43
		c3.94,0.34,6.77,5.38,6.77,12.26c0,7.12-3.02,12.29-7.18,12.29H258.8c-0.71,0-1.46-0.04-2.24-0.11c1.12,2.15,1.78,5.03,1.78,8.34
		c0,7.04-2.96,12.17-7.05,12.28c-0.05,0-0.09,0.01-0.13,0.01c-0.01,0-0.02,0-0.03,0c-0.61,0-1.19-0.13-1.74-0.34
		c-19.61-4.52-32.08-18.05-38.15-29.97c-8.47,5.93-20.89,9.79-32.03,9.79h-26.71c-4.16,0-7.18-5.17-7.18-12.29
		c0-6.88,2.82-11.93,6.77-12.26c1.91-0.41,36.14-8.08,42.76-27.7c-2.81,0.71-5.75,1.1-8.77,1.1c-19.92,0-36.13-16.21-36.13-36.13
		c0-0.7,0.03-1.4,0.07-2.1c-1.06,0.1-2.12,0.16-3.2,0.16C127.49,183.98,111.79,168.28,111.79,148.98z M154.67,260.92
		c0-4.55-1.61-7.09-2.23-7.3c0,0-0.01,0-0.01,0c-0.52,0.21-2.13,2.74-2.13,7.3c0,4.54,1.6,7.08,2.22,7.29h0.02
		C153.07,267.99,154.67,265.46,154.67,260.92z M251.06,288.65c0.07,0.01,0.13,0.03,0.2,0.05c0.57-0.33,2.07-2.84,2.07-7.25
		c0-4.56-1.62-7.1-2.23-7.3c-0.52,0.2-2.14,2.74-2.14,7.3C248.97,285.71,250.38,288.19,251.06,288.65z M280.51,260.92
		c0,4.56,1.61,7.1,2.23,7.3c0,0,0,0,0,0c0.52-0.2,2.13-2.74,2.13-7.3c0-4.56-1.61-7.1-2.23-7.3c0,0,0,0,0,0
		C282.12,253.82,280.51,256.36,280.51,260.92z M234.24,214.22v-82.61c-0.87-0.26-1.72-0.56-2.55-0.96
		c-4.02-1.95-7.05-5.35-8.51-9.58c-0.19-0.55-0.34-1.11-0.47-1.67c-1.13,0.16-2.29,0.25-3.47,0.25c-4.69,0-9.07-1.3-12.82-3.56v9.62
		c8.91,10.13,16.56,27.13,20.96,58.39c0.19,1.37-0.76,2.63-2.13,2.82c-1.37,0.19-2.63-0.76-2.82-2.13
		c-7.59-53.99-25.36-62.38-34.91-66.89c-8.62-4.07-12.05-3.72-13.33-3.14c-0.44,0.2-0.98,0.56-1.29,1.62
		c-0.29,0.98-0.39,1.54-0.16,1.93c0.21,0.34,1.26,1.54,5.94,2.44c22.5,4.32,22.34,39.1,22.27,55.82c0,0.91-0.01,1.76-0.01,2.55
		v22.74v12.37c0,23.95-30.94,34.82-43.14,38.17c1.18,2.16,1.88,5.12,1.88,8.53c0,2.8-0.47,5.29-1.29,7.29h20.82
		c10.54,0,22.31-3.75,29.95-9.44c-1.43-3.7-2.2-7.07-2.31-9.75c-0.06-1.38,1.01-2.55,2.39-2.61c1.4-0.05,2.55,1.01,2.61,2.39
		c0.11,2.68,0.96,5.99,2.49,9.56c0.09,0.16,0.17,0.34,0.22,0.51c4.54,10.19,14.69,22.32,30.08,27.91c-0.42-1.59-0.65-3.39-0.65-5.35
		c0-4.7,1.32-8.55,3.42-10.62c-9.8-3.85-19.91-12.53-19.91-27.31c0-1.38,1.12-2.5,2.5-2.5s2.5,1.12,2.5,2.5
		c0,17.24,17.43,24.7,26.32,24.7h18c-0.82-2-1.29-4.49-1.29-7.29c0-3.41,0.7-6.37,1.88-8.53
		C265.18,249.03,234.24,238.17,234.24,214.22z M116.79,148.98c0,16.54,13.46,29.99,29.99,29.99c10.35,0,19.83-5.23,25.37-13.98
		c0.74-1.17,2.28-1.51,3.45-0.78c1.17,0.74,1.51,2.28,0.78,3.45c-4.94,7.82-12.58,13.21-21.31,15.32c-0.09,0.97-0.15,1.94-0.15,2.93
		c0,17.17,13.97,31.13,31.13,31.13c3.44,0,6.75-0.57,9.84-1.6c0.02-0.4,0.04-0.81,0.04-1.22v-12.37v-22.74c0-0.8,0-1.66,0.01-2.57
		c0.07-15.37,0.22-47.35-18.21-50.88c-4.93-0.95-7.87-2.45-9.27-4.75c-1.43-2.35-0.71-4.78-0.37-5.95c0.66-2.23,2.06-3.88,4.04-4.76
		c3.71-1.66,9.44-0.62,17.5,3.19c3.98,1.88,7.95,4.19,11.77,7.42v-8.67c-4.4-4.5-7.11-10.64-7.11-17.41c0-1.38,1.12-2.5,2.5-2.5
		s2.5,1.12,2.5,2.5c0,10.99,8.94,19.93,19.93,19.93s19.93-8.94,19.93-19.93c0-1.38,1.12-2.5,2.5-2.5s2.5,1.12,2.5,2.5
		c0,10.83-6.94,20.07-16.61,23.5c0.09,0.41,0.2,0.82,0.34,1.22c2.12,6.12,8.83,9.37,14.95,7.25c1.04-0.36,2.01-0.86,2.9-1.48
		c1.13-0.79,2.69-0.52,3.48,0.61c0.79,1.13,0.52,2.69-0.61,3.48c-1.27,0.89-2.66,1.6-4.13,2.11c-1.71,0.59-3.48,0.9-5.25,0.92v72.8
		c0.47,0.03,0.94,0.05,1.42,0.05c13.5,0,24.61-10.34,25.86-23.52c-2.84-0.86-5.57-2.07-8.12-3.64c-1.18-0.72-1.54-2.26-0.82-3.44
		c0.73-1.18,2.27-1.54,3.44-0.82c4.71,2.89,10.13,4.42,15.69,4.42c16.54,0,29.99-13.46,29.99-29.99c0-16.54-13.46-29.99-29.99-29.99
		c-6,0-11.8,1.77-16.75,5.11c-1.14,0.77-2.7,0.47-3.47-0.67c-0.77-1.14-0.47-2.7,0.67-3.47c5.78-3.9,12.54-5.97,19.55-5.97
		c2.54,0,5.02,0.28,7.42,0.8c1.7-4.21,2.57-8.67,2.57-13.29c0-19.6-15.94-35.54-35.54-35.54c-6.37,0-12.61,1.7-18.06,4.92
		c-1.19,0.7-2.72,0.31-3.42-0.88c-0.26-0.45-0.37-0.94-0.34-1.42c0-0.01,0-0.03,0-0.04c0-14.33-11.66-25.99-25.99-25.99
		s-25.99,11.66-25.99,25.99c0,6.61,2.48,12.91,6.99,17.73c0.94,1.01,0.89,2.59-0.12,3.53c-0.48,0.45-1.09,0.67-1.71,0.67
		c-0.67,0-1.34-0.27-1.83-0.79c-3.01-3.23-5.27-7.01-6.67-11.1c-1.02-0.1-2.04-0.17-3.07-0.17c-16.92,0-30.68,13.76-30.68,30.68
		c0,2.09,0.21,4.16,0.63,6.18c1.92-0.33,3.89-0.51,5.91-0.51c2.98,0,5.93,0.38,8.79,1.11c1.34,0.35,2.14,1.71,1.79,3.05
		c-0.35,1.34-1.71,2.14-3.05,1.79c-2.45-0.63-4.98-0.95-7.54-0.95C130.25,118.99,116.79,132.45,116.79,148.98z"/>
	<path id="_x31_00_x25__natural_1_" d="M64.11,335.42c0.31,0.35,0.46,0.79,0.46,1.31v28.47c0,0.52-0.18,0.97-0.55,1.33
		c-0.37,0.37-0.84,0.55-1.43,0.55s-1.06-0.18-1.43-0.55s-0.55-0.81-0.55-1.33v-25.2l-4.78,2.89c-0.28,0.15-0.58,0.23-0.92,0.23
		c-0.52,0-0.97-0.21-1.33-0.62s-0.55-0.83-0.55-1.26c0-0.67,0.32-1.21,0.96-1.61l7.5-4.46c0.37-0.21,0.83-0.31,1.38-0.28
		C63.39,334.89,63.8,335.07,64.11,335.42z M92.67,342.48c0.86,2.48,1.29,5.32,1.29,8.51c0,3.13-0.43,5.95-1.29,8.46
		s-2.14,4.49-3.84,5.93c-1.7,1.44-3.83,2.16-6.37,2.16c-2.55,0-4.67-0.72-6.37-2.16c-1.7-1.44-2.99-3.42-3.86-5.93
		s-1.31-5.34-1.31-8.46c0-3.19,0.44-6.03,1.31-8.51c0.87-2.48,2.16-4.45,3.86-5.89c1.7-1.44,3.83-2.16,6.37-2.16
		c2.54,0,4.67,0.72,6.37,2.16C90.53,338.04,91.82,340,92.67,342.48z M90.01,350.99c0-2.67-0.29-4.96-0.87-6.88
		c-0.58-1.92-1.43-3.39-2.55-4.42c-1.12-1.03-2.49-1.54-4.12-1.54c-1.63,0-3,0.51-4.12,1.54s-1.98,2.5-2.58,4.42
		c-0.6,1.92-0.9,4.21-0.9,6.88c0,2.64,0.3,4.92,0.9,6.83c0.6,1.92,1.46,3.4,2.58,4.44c1.12,1.04,2.49,1.56,4.12,1.56
		c1.63,0,3-0.52,4.12-1.56c1.12-1.04,1.97-2.52,2.55-4.44C89.71,355.91,90.01,353.63,90.01,350.99z M120.32,342.48
		c0.86,2.48,1.29,5.32,1.29,8.51c0,3.13-0.43,5.95-1.29,8.46s-2.14,4.49-3.84,5.93c-1.7,1.44-3.83,2.16-6.37,2.16
		c-2.55,0-4.67-0.72-6.37-2.16c-1.7-1.44-2.99-3.42-3.87-5.93c-0.87-2.51-1.31-5.34-1.31-8.46c0-3.19,0.44-6.03,1.31-8.51
		c0.88-2.48,2.16-4.45,3.87-5.89c1.7-1.44,3.82-2.16,6.37-2.16c2.54,0,4.67,0.72,6.37,2.16C118.18,338.04,119.46,340,120.32,342.48z
		 M117.65,350.99c0-2.67-0.29-4.96-0.87-6.88c-0.58-1.92-1.43-3.39-2.55-4.42c-1.12-1.03-2.49-1.54-4.12-1.54
		c-1.63,0-3,0.51-4.12,1.54c-1.12,1.03-1.98,2.5-2.58,4.42c-0.6,1.92-0.9,4.21-0.9,6.88c0,2.64,0.3,4.92,0.9,6.83
		c0.6,1.92,1.46,3.4,2.58,4.44c1.12,1.04,2.49,1.56,4.12,1.56c1.63,0,3-0.52,4.12-1.56c1.12-1.04,1.97-2.52,2.55-4.44
		C117.36,355.91,117.65,353.63,117.65,350.99z M132.46,351.68c-1.41,0-2.62-0.39-3.61-1.17s-1.76-1.82-2.3-3.13
		c-0.54-1.3-0.81-2.72-0.81-4.25c0-1.56,0.27-3,0.81-4.32c0.54-1.32,1.31-2.37,2.32-3.15c1.01-0.78,2.22-1.17,3.63-1.17
		c1.41,0,2.61,0.39,3.61,1.17c1,0.78,1.76,1.82,2.28,3.13s0.78,2.74,0.78,4.3c0,1.56-0.28,3-0.83,4.3c-0.55,1.3-1.33,2.35-2.32,3.13
		S133.84,351.68,132.46,351.68z M132.51,348.69c1.17,0,2.02-0.53,2.58-1.59c0.55-1.06,0.83-2.38,0.83-3.98
		c0-1.63-0.29-2.97-0.87-4.05c-0.58-1.07-1.44-1.61-2.58-1.61c-1.17,0-2.03,0.54-2.6,1.63c-0.57,1.09-0.85,2.42-0.85,3.98
		c0,1.63,0.3,2.97,0.9,4.03C130.51,348.17,131.38,348.69,132.51,348.69z M153.12,336.32c0-0.49-0.18-0.87-0.53-1.15
		c-0.35-0.28-0.73-0.41-1.13-0.41c-0.49,0-0.92,0.26-1.29,0.78l-19.23,29.12c-0.21,0.37-0.32,0.69-0.32,0.97
		c0,0.49,0.18,0.87,0.55,1.15c0.37,0.28,0.74,0.41,1.1,0.41c0.52,0,0.96-0.25,1.33-0.74l19.23-29.16
		C153.03,336.95,153.12,336.63,153.12,336.32z M157.63,354.61c0.52,1.3,0.78,2.74,0.78,4.3c0,1.56-0.28,3-0.83,4.3
		c-0.55,1.3-1.33,2.35-2.32,3.13c-1,0.78-2.2,1.17-3.61,1.17c-1.38,0-2.57-0.39-3.56-1.17c-1-0.78-1.77-1.82-2.32-3.13
		c-0.55-1.3-0.83-2.72-0.83-4.25c0-1.56,0.27-3,0.81-4.32c0.54-1.32,1.31-2.37,2.32-3.15c1.01-0.78,2.22-1.17,3.63-1.17
		c1.44,0,2.66,0.39,3.66,1.17C156.35,352.26,157.1,353.3,157.63,354.61z M155.14,358.95c0-1.63-0.29-2.97-0.87-4.05
		s-1.46-1.61-2.62-1.61s-2.03,0.54-2.6,1.63c-0.57,1.09-0.85,2.42-0.85,3.98c0,1.63,0.3,2.97,0.9,4.02c0.6,1.06,1.46,1.59,2.6,1.59
		c1.2,0,2.07-0.53,2.62-1.59C154.87,361.87,155.14,360.55,155.14,358.95z M200.77,334.89c-0.49,0-0.9,0.16-1.22,0.48
		c-0.32,0.32-0.48,0.73-0.48,1.22v23.82l-18.81-24.88c-0.15-0.21-0.38-0.38-0.67-0.48c-0.29-0.11-0.58-0.16-0.85-0.16
		c-0.49,0-0.91,0.17-1.26,0.51s-0.53,0.78-0.53,1.33v28.66c0,0.49,0.15,0.9,0.46,1.22c0.31,0.32,0.71,0.48,1.2,0.48
		c0.52,0,0.94-0.16,1.26-0.48c0.32-0.32,0.48-0.73,0.48-1.22v-23.72l18.77,24.82c0.15,0.18,0.37,0.33,0.64,0.44
		c0.28,0.11,0.55,0.16,0.83,0.16c0.52,0,0.97-0.18,1.33-0.53c0.37-0.35,0.55-0.82,0.55-1.4V336.6c0-0.49-0.15-0.9-0.46-1.22
		C201.71,335.05,201.29,334.89,200.77,334.89z M234.95,364.66c0.09,0.25,0.14,0.49,0.14,0.74c0,0.55-0.18,0.99-0.55,1.31
		s-0.78,0.48-1.24,0.48c-0.37,0-0.71-0.11-1.01-0.32c-0.31-0.21-0.54-0.52-0.69-0.92l-3.1-7.45h-14.57l-3.08,7.5
		c-0.12,0.37-0.34,0.66-0.64,0.87c-0.31,0.21-0.63,0.32-0.97,0.32c-0.58,0-1.01-0.15-1.29-0.46c-0.28-0.31-0.41-0.67-0.41-1.1
		c-0.03-0.21,0-0.44,0.09-0.69l11.91-28.98c0.15-0.43,0.39-0.74,0.71-0.94c0.32-0.2,0.68-0.28,1.08-0.25c0.4,0,0.76,0.11,1.08,0.32
		c0.32,0.21,0.54,0.51,0.67,0.87L234.95,364.66z M227,354.9l-5.84-14.03l-5.76,14.03H227z M258.55,334.89h-21.39
		c-0.52,0-0.96,0.16-1.31,0.48s-0.53,0.74-0.53,1.26c0,0.52,0.18,0.94,0.53,1.27c0.35,0.32,0.79,0.48,1.31,0.48h8.74v26.82
		c0,0.52,0.18,0.97,0.55,1.33c0.37,0.37,0.83,0.55,1.38,0.55c0.58,0,1.06-0.18,1.43-0.55s0.55-0.81,0.55-1.33v-26.82h8.74
		c0.52,0,0.97-0.15,1.33-0.46c0.37-0.31,0.55-0.74,0.55-1.29c0-0.52-0.18-0.94-0.55-1.26S259.07,334.89,258.55,334.89z
		 M288.77,334.85c-0.55,0-0.98,0.18-1.29,0.55c-0.31,0.37-0.46,0.81-0.46,1.33V355c0,1.69-0.41,3.19-1.22,4.51
		c-0.81,1.32-1.88,2.35-3.2,3.11c-1.32,0.75-2.76,1.13-4.32,1.13c-1.53,0-2.95-0.38-4.25-1.13c-1.3-0.75-2.34-1.79-3.11-3.11
		c-0.77-1.32-1.15-2.82-1.15-4.51v-18.26c0-0.52-0.19-0.97-0.58-1.33c-0.38-0.37-0.82-0.55-1.31-0.55c-0.58,0-1.05,0.18-1.4,0.55
		c-0.35,0.37-0.53,0.81-0.53,1.33V355c0,2.36,0.54,4.48,1.61,6.35c1.07,1.87,2.54,3.35,4.39,4.44s3.96,1.63,6.33,1.63
		c2.33,0,4.42-0.54,6.26-1.63c1.84-1.09,3.3-2.57,4.39-4.44c1.09-1.87,1.63-3.99,1.63-6.35v-18.26c0-0.52-0.17-0.97-0.51-1.33
		C289.72,335.03,289.29,334.85,288.77,334.85z M323.52,365.02c0.14,0.46,0.05,0.9-0.25,1.33c-0.18,0.28-0.44,0.47-0.78,0.57
		c-0.34,0.11-0.68,0.15-1.01,0.12c-0.34-0.03-0.63-0.12-0.88-0.28c-0.49-0.28-0.97-0.68-1.43-1.22c-0.46-0.54-0.84-1.31-1.15-2.32
		c-0.31-1.01-0.46-2.39-0.46-4.14c0-0.98-0.15-1.79-0.46-2.44c-0.31-0.64-0.72-1.17-1.24-1.56c-0.52-0.4-1.1-0.67-1.75-0.83
		c-0.64-0.15-1.3-0.23-1.98-0.23h-9.71v11.18c0,0.52-0.15,0.97-0.46,1.33s-0.72,0.55-1.24,0.55c-0.58,0-1.08-0.18-1.5-0.55
		s-0.62-0.81-0.62-1.33v-28.47c0-0.52,0.18-0.96,0.53-1.31c0.35-0.35,0.79-0.53,1.31-0.53h12.7c1.72,0,3.27,0.39,4.65,1.17
		c1.38,0.78,2.48,1.86,3.29,3.22c0.81,1.37,1.22,2.94,1.22,4.71c0,1.29-0.25,2.49-0.74,3.61c-0.49,1.12-1.17,2.09-2.02,2.9
		c-0.73,0.69-1.55,1.23-2.46,1.65c0.46,0.22,0.9,0.48,1.31,0.79c0.83,0.63,1.5,1.43,2.02,2.39s0.8,2.09,0.83,3.38
		c0.06,1.13,0.14,2.04,0.23,2.71c0.09,0.68,0.23,1.2,0.41,1.59c0.18,0.38,0.44,0.68,0.78,0.9
		C323.1,364.2,323.39,364.56,323.52,365.02z M317.59,347.47c0.51-1,0.76-2.12,0.76-3.38c0-1.63-0.51-2.97-1.54-4.05
		c-1.03-1.07-2.32-1.61-3.89-1.61h-10.49v12.28h10.72c0.89-0.06,1.72-0.37,2.51-0.92C316.44,349.25,317.08,348.47,317.59,347.47z
		 M354.14,364.66c0.09,0.25,0.14,0.49,0.14,0.74c0,0.55-0.18,0.99-0.55,1.31s-0.78,0.48-1.24,0.48c-0.37,0-0.71-0.11-1.01-0.32
		c-0.31-0.21-0.54-0.52-0.69-0.92l-3.1-7.45h-14.56l-3.08,7.5c-0.12,0.37-0.34,0.66-0.64,0.87c-0.31,0.21-0.63,0.32-0.97,0.32
		c-0.58,0-1.01-0.15-1.29-0.46c-0.28-0.31-0.41-0.67-0.41-1.1c-0.03-0.21,0-0.44,0.09-0.69l11.91-28.98
		c0.15-0.43,0.39-0.74,0.71-0.94c0.32-0.2,0.68-0.28,1.08-0.25c0.4,0,0.76,0.11,1.08,0.32c0.32,0.21,0.54,0.51,0.67,0.87
		L354.14,364.66z M346.19,354.9l-5.84-14.03l-5.76,14.03H346.19z M378.43,363.99c-0.37-0.35-0.81-0.53-1.33-0.53h-13.94v-26.73
		c0-0.52-0.18-0.96-0.55-1.31c-0.37-0.35-0.81-0.53-1.33-0.53c-0.55,0-1.01,0.18-1.38,0.53c-0.37,0.35-0.55,0.79-0.55,1.31v28.47
		c0,0.52,0.18,0.97,0.53,1.33c0.35,0.37,0.79,0.55,1.31,0.55h15.92c0.52,0,0.97-0.17,1.33-0.51c0.37-0.34,0.55-0.77,0.55-1.29
		C378.98,364.78,378.79,364.34,378.43,363.99z"/>
</g>
<g id="Layer_31">
</g>
<g id="Layer_2">
</g>
<g id="Layer_3">
</g>
<g id="Layer_4">
</g>
<g id="Layer_5">
</g>
<g id="Layer_6">
</g>
<g id="Layer_7">
</g>
<g id="Layer_8">
</g>
<g id="Layer_9">
</g>
<g id="Layer_10">
</g>
<g id="Layer_11">
</g>
<g id="Layer_12">
</g>
<g id="Layer_13">
</g>
<g id="Layer_14">
</g>
<g id="Layer_15">
</g>
<g id="Layer_16">
</g>
<g id="Layer_32">
</g>
<g id="Layer_33">
</g>
<g id="Layer_34">
</g>
<g id="Layer_35">
</g>
<g id="Layer_49">
</g>
<g id="Layer_50">
</g>
<g id="Layer_51">
</g>
</svg>
