<?xml version="1.0" encoding="utf-8"?>
<!-- Generator: Adobe Illustrator 23.0.1, SVG Export Plug-In . SVG Version: 6.00 Build 0)  -->
<svg version="1.1" xmlns="http://www.w3.org/2000/svg" xmlns:xlink="http://www.w3.org/1999/xlink" x="0px" y="0px"
	 viewBox="0 0 432 432" enable-background="new 0 0 432 432" xml:space="preserve">
<g id="Layer_37">
</g>
<g id="Layer_47">
</g>
<g id="Layer_42">
</g>
<g id="Layer_43">
</g>
<g id="Layer_44">
</g>
<g id="Layer_45">
</g>
<g id="Layer_46">
</g>
<g id="Layer_38">
</g>
<g id="Layer_39">
</g>
<g id="Layer_40">
</g>
<g id="Layer_41">
</g>
<g id="Layer_17">
</g>
<g id="Layer_18">
</g>
<g id="Layer_19">
</g>
<g id="Layer_20">
</g>
<g id="Layer_21">
</g>
<g id="Layer_22">
</g>
<g id="Layer_23">
</g>
<g id="Layer_24">
</g>
<g id="Layer_25">
</g>
<g id="Layer_26">
</g>
<g id="Layer_27">
</g>
<g id="Layer_28">
	<path d="M68.5,165c0-81.33,66.17-147.5,147.5-147.5S363.5,83.67,363.5,165S297.33,312.5,216,312.5S68.5,246.33,68.5,165z M73.5,165
		c0,78.58,63.93,142.5,142.5,142.5c78.58,0,142.5-63.92,142.5-142.5S294.58,22.5,216,22.5C137.43,22.5,73.5,86.42,73.5,165z
		 M155.94,180.6c0-31.08,35.31-75.72,50.5-93.46c2.4-2.8,5.88-4.41,9.57-4.41c3.68,0,7.17,1.61,9.57,4.41
		c15.18,17.75,50.5,62.38,50.5,93.46c0,42.66-32.36,57.79-60.07,57.79C188.29,238.4,155.94,223.26,155.94,180.6z M160.94,180.6
		c0,38.92,28.44,52.79,55.06,52.79s55.07-13.87,55.07-52.79c0-29.42-34.47-72.89-49.3-90.21c-1.45-1.69-3.55-2.66-5.77-2.66
		s-4.32,0.97-5.77,2.66C195.41,107.71,160.94,151.19,160.94,180.6z M173.25,188.09c1.38-0.12,2.4-1.32,2.28-2.7
		c-0.13-1.54-0.19-3.15-0.19-4.79c0-1.38-1.12-2.5-2.5-2.5s-2.5,1.12-2.5,2.5c0,1.78,0.07,3.53,0.21,5.2
		c0.11,1.3,1.2,2.29,2.49,2.29C173.1,188.1,173.18,188.1,173.25,188.09z M216,224c1.38,0,2.5-1.12,2.5-2.5s-1.12-2.5-2.5-2.5
		c-9.22,0-31.44-2.29-38.48-23.51c-0.43-1.31-1.85-2.02-3.16-1.59c-1.31,0.43-2.02,1.85-1.59,3.16C181.07,222.05,207.96,224,216,224
		z"/>
	<path id="essential_oil" d="M63.44,338.44v10.35h12.33c0.52,0,0.97,0.17,1.33,0.51c0.37,0.34,0.55,0.77,0.55,1.29
		s-0.18,0.94-0.55,1.26c-0.37,0.32-0.81,0.48-1.33,0.48H63.44v11.18h14.4c0.52,0,0.97,0.18,1.33,0.55c0.37,0.37,0.55,0.78,0.55,1.24
		c0,0.52-0.18,0.95-0.55,1.29c-0.37,0.34-0.81,0.51-1.33,0.51H61.47c-0.52,0-0.96-0.18-1.31-0.55c-0.35-0.37-0.53-0.81-0.53-1.33
		v-28.47c0-0.52,0.18-0.96,0.53-1.31c0.35-0.35,0.79-0.53,1.31-0.53h16.38c0.52,0,0.97,0.17,1.33,0.51
		c0.37,0.34,0.55,0.77,0.55,1.29s-0.18,0.94-0.55,1.26c-0.37,0.32-0.81,0.48-1.33,0.48H63.44z M103.19,352.05
		c-0.92-0.71-2.02-1.29-3.29-1.77c-1.27-0.48-2.66-0.9-4.16-1.27c-1.38-0.37-2.64-0.79-3.77-1.26c-1.13-0.47-2.04-1.09-2.71-1.84
		c-0.68-0.75-1.01-1.71-1.01-2.88c0-1.04,0.3-1.94,0.9-2.69c0.6-0.75,1.43-1.33,2.51-1.75c1.07-0.41,2.31-0.62,3.73-0.62
		c0.95,0,1.9,0.14,2.85,0.41c0.95,0.28,1.82,0.64,2.62,1.1c0.8,0.46,1.46,0.98,1.98,1.56c0.28,0.25,0.58,0.37,0.92,0.37
		c0.49,0,0.93-0.19,1.31-0.58c0.38-0.38,0.58-0.8,0.58-1.26c0-0.55-0.31-1.12-0.92-1.7c-1.01-1.07-2.35-1.92-4.03-2.53
		c-1.67-0.61-3.44-0.92-5.31-0.92c-2.12,0-3.99,0.36-5.61,1.08c-1.63,0.72-2.9,1.74-3.82,3.06s-1.38,2.85-1.38,4.6
		c0,1.38,0.24,2.58,0.71,3.61c0.48,1.03,1.14,1.9,2,2.62c0.86,0.72,1.88,1.33,3.06,1.82c1.18,0.49,2.48,0.91,3.89,1.24
		c1.59,0.37,3,0.82,4.21,1.36c1.21,0.54,2.16,1.2,2.85,2c0.69,0.8,1.05,1.81,1.08,3.04c0,1.01-0.32,1.9-0.97,2.67
		s-1.51,1.36-2.6,1.79c-1.09,0.43-2.31,0.64-3.66,0.64c-1.75,0-3.32-0.31-4.71-0.92c-1.4-0.61-2.69-1.5-3.89-2.67
		c-0.34-0.34-0.72-0.51-1.15-0.51c-0.52,0-0.96,0.19-1.31,0.58s-0.53,0.82-0.53,1.31c0,0.31,0.07,0.59,0.21,0.85
		c0.14,0.26,0.31,0.5,0.53,0.71c1.59,1.47,3.25,2.55,4.97,3.22c1.72,0.67,3.71,1.01,5.98,1.01c2.05-0.03,3.9-0.42,5.54-1.17
		c1.64-0.75,2.94-1.79,3.89-3.1c0.95-1.32,1.43-2.82,1.43-4.51c0-1.59-0.25-2.94-0.76-4.02
		C104.82,353.66,104.11,352.76,103.19,352.05z M129.59,352.05c-0.92-0.71-2.02-1.29-3.29-1.77c-1.27-0.48-2.66-0.9-4.16-1.27
		c-1.38-0.37-2.64-0.79-3.77-1.26c-1.13-0.47-2.04-1.09-2.71-1.84c-0.68-0.75-1.01-1.71-1.01-2.88c0-1.04,0.3-1.94,0.9-2.69
		c0.6-0.75,1.43-1.33,2.51-1.75c1.07-0.41,2.31-0.62,3.73-0.62c0.95,0,1.9,0.14,2.85,0.41c0.95,0.28,1.82,0.64,2.62,1.1
		c0.8,0.46,1.46,0.98,1.98,1.56c0.28,0.25,0.58,0.37,0.92,0.37c0.49,0,0.93-0.19,1.31-0.58c0.38-0.38,0.58-0.8,0.58-1.26
		c0-0.55-0.31-1.12-0.92-1.7c-1.01-1.07-2.35-1.92-4.03-2.53c-1.67-0.61-3.44-0.92-5.31-0.92c-2.12,0-3.99,0.36-5.61,1.08
		c-1.63,0.72-2.9,1.74-3.82,3.06s-1.38,2.85-1.38,4.6c0,1.38,0.24,2.58,0.71,3.61c0.48,1.03,1.14,1.9,2,2.62
		c0.86,0.72,1.88,1.33,3.06,1.82c1.18,0.49,2.48,0.91,3.89,1.24c1.59,0.37,3,0.82,4.21,1.36c1.21,0.54,2.16,1.2,2.85,2
		c0.69,0.8,1.05,1.81,1.08,3.04c0,1.01-0.32,1.9-0.97,2.67s-1.51,1.36-2.6,1.79c-1.09,0.43-2.31,0.64-3.66,0.64
		c-1.75,0-3.32-0.31-4.71-0.92c-1.4-0.61-2.69-1.5-3.89-2.67c-0.34-0.34-0.72-0.51-1.15-0.51c-0.52,0-0.96,0.19-1.31,0.58
		s-0.53,0.82-0.53,1.31c0,0.31,0.07,0.59,0.21,0.85c0.14,0.26,0.31,0.5,0.53,0.71c1.59,1.47,3.25,2.55,4.97,3.22
		c1.72,0.67,3.71,1.01,5.98,1.01c2.05-0.03,3.9-0.42,5.54-1.17c1.64-0.75,2.94-1.79,3.89-3.1c0.95-1.32,1.43-2.82,1.43-4.51
		c0-1.59-0.25-2.94-0.76-4.02C131.22,353.66,130.51,352.76,129.59,352.05z M156.87,338.44c0.52,0,0.97-0.16,1.33-0.48
		c0.37-0.32,0.55-0.74,0.55-1.26s-0.18-0.95-0.55-1.29c-0.37-0.34-0.81-0.51-1.33-0.51h-16.38c-0.52,0-0.96,0.18-1.31,0.53
		c-0.35,0.35-0.53,0.79-0.53,1.31v28.47c0,0.52,0.18,0.97,0.53,1.33c0.35,0.37,0.79,0.55,1.31,0.55h16.38
		c0.52,0,0.97-0.17,1.33-0.51c0.37-0.34,0.55-0.77,0.55-1.29c0-0.46-0.18-0.87-0.55-1.24c-0.37-0.37-0.81-0.55-1.33-0.55h-14.4
		v-11.18h12.33c0.52,0,0.97-0.16,1.33-0.48c0.37-0.32,0.55-0.74,0.55-1.26s-0.18-0.95-0.55-1.29c-0.37-0.34-0.81-0.51-1.33-0.51
		h-12.33v-10.35H156.87z M188.7,334.89c-0.49,0-0.9,0.16-1.22,0.48c-0.32,0.32-0.48,0.73-0.48,1.22v23.82l-18.81-24.88
		c-0.15-0.21-0.38-0.38-0.67-0.48c-0.29-0.11-0.57-0.16-0.85-0.16c-0.49,0-0.91,0.17-1.26,0.51c-0.35,0.34-0.53,0.78-0.53,1.33
		v28.66c0,0.49,0.15,0.9,0.46,1.22c0.31,0.32,0.71,0.48,1.2,0.48c0.52,0,0.94-0.16,1.27-0.48c0.32-0.32,0.48-0.73,0.48-1.22v-23.72
		l18.77,24.82c0.15,0.18,0.37,0.33,0.64,0.44c0.28,0.11,0.55,0.16,0.83,0.16c0.52,0,0.97-0.18,1.33-0.53
		c0.37-0.35,0.55-0.82,0.55-1.4V336.6c0-0.49-0.15-0.9-0.46-1.22C189.63,335.05,189.22,334.89,188.7,334.89z M219.15,334.89h-21.39
		c-0.52,0-0.96,0.16-1.31,0.48s-0.53,0.74-0.53,1.26c0,0.52,0.18,0.94,0.53,1.27c0.35,0.32,0.79,0.48,1.31,0.48h8.74v26.82
		c0,0.52,0.18,0.97,0.55,1.33c0.37,0.37,0.83,0.55,1.38,0.55c0.58,0,1.06-0.18,1.43-0.55s0.55-0.81,0.55-1.33v-26.82h8.74
		c0.52,0,0.96-0.15,1.33-0.46c0.37-0.31,0.55-0.74,0.55-1.29c0-0.52-0.18-0.94-0.55-1.26C220.12,335.05,219.67,334.89,219.15,334.89
		z M228.49,334.89c-0.55,0-1.01,0.18-1.38,0.53c-0.37,0.35-0.55,0.8-0.55,1.36v28.43c0,0.52,0.17,0.97,0.51,1.33
		c0.34,0.37,0.8,0.55,1.38,0.55c0.52,0,0.97-0.18,1.36-0.55c0.38-0.37,0.57-0.81,0.57-1.33v-28.43c0-0.55-0.18-1-0.55-1.36
		C229.45,335.07,229.01,334.89,228.49,334.89z M262.9,364.66c0.09,0.25,0.14,0.49,0.14,0.74c0,0.55-0.18,0.99-0.55,1.31
		c-0.37,0.32-0.78,0.48-1.24,0.48c-0.37,0-0.71-0.11-1.01-0.32s-0.54-0.52-0.69-0.92l-3.1-7.45h-14.56l-3.08,7.5
		c-0.12,0.37-0.34,0.66-0.64,0.87s-0.63,0.32-0.97,0.32c-0.58,0-1.01-0.15-1.29-0.46c-0.28-0.31-0.41-0.67-0.41-1.1
		c-0.03-0.21,0-0.44,0.09-0.69l11.91-28.98c0.15-0.43,0.39-0.74,0.71-0.94c0.32-0.2,0.68-0.28,1.08-0.25c0.4,0,0.76,0.11,1.08,0.32
		c0.32,0.21,0.54,0.51,0.67,0.87L262.9,364.66z M254.95,354.9l-5.84-14.03l-5.76,14.03H254.95z M285.85,363.46h-13.94v-26.73
		c0-0.52-0.18-0.96-0.55-1.31c-0.37-0.35-0.81-0.53-1.33-0.53c-0.55,0-1.01,0.18-1.38,0.53c-0.37,0.35-0.55,0.79-0.55,1.31v28.47
		c0,0.52,0.18,0.97,0.53,1.33s0.79,0.55,1.31,0.55h15.92c0.52,0,0.96-0.17,1.33-0.51c0.37-0.34,0.55-0.77,0.55-1.29
		c0-0.52-0.18-0.96-0.55-1.31C286.82,363.64,286.37,363.46,285.85,363.46z M333.55,344.39c0.77,2.01,1.15,4.21,1.15,6.6
		c0,2.36-0.38,4.55-1.15,6.55c-0.77,2.01-1.84,3.76-3.22,5.27c-1.38,1.5-3.02,2.67-4.92,3.5c-1.9,0.83-3.97,1.24-6.21,1.24
		c-2.27,0-4.35-0.41-6.23-1.24c-1.88-0.83-3.52-1.99-4.9-3.5s-2.45-3.26-3.22-5.27c-0.77-2.01-1.15-4.19-1.15-6.55
		c0-2.39,0.38-4.59,1.15-6.6c0.77-2.01,1.84-3.76,3.22-5.24s3.01-2.65,4.9-3.47c1.89-0.83,3.96-1.24,6.23-1.24
		c2.24,0,4.31,0.41,6.21,1.24s3.54,1.99,4.92,3.47C331.71,340.64,332.78,342.38,333.55,344.39z M330.75,350.99
		c0-2.51-0.5-4.74-1.49-6.67c-1-1.93-2.35-3.45-4.07-4.55c-1.72-1.1-3.71-1.66-5.98-1.66s-4.27,0.55-6,1.66
		c-1.73,1.1-3.09,2.62-4.07,4.55c-0.98,1.93-1.47,4.16-1.47,6.67c0,2.48,0.49,4.7,1.47,6.65c0.98,1.95,2.34,3.47,4.07,4.58
		c1.73,1.1,3.73,1.66,6,1.66s4.26-0.55,5.98-1.66c1.72-1.1,3.07-2.63,4.07-4.58C330.25,355.69,330.75,353.48,330.75,350.99z
		 M342.75,334.89c-0.55,0-1.01,0.18-1.38,0.53c-0.37,0.35-0.55,0.8-0.55,1.36v28.43c0,0.52,0.17,0.97,0.51,1.33
		c0.34,0.37,0.8,0.55,1.38,0.55c0.52,0,0.97-0.18,1.36-0.55c0.38-0.37,0.58-0.81,0.58-1.33v-28.43c0-0.55-0.18-1-0.55-1.36
		C343.72,335.07,343.27,334.89,342.75,334.89z M371.82,363.99c-0.37-0.35-0.81-0.53-1.33-0.53h-13.94v-26.73
		c0-0.52-0.18-0.96-0.55-1.31c-0.37-0.35-0.81-0.53-1.33-0.53c-0.55,0-1.01,0.18-1.38,0.53c-0.37,0.35-0.55,0.79-0.55,1.31v28.47
		c0,0.52,0.18,0.97,0.53,1.33s0.79,0.55,1.31,0.55h15.92c0.52,0,0.96-0.17,1.33-0.51c0.37-0.34,0.55-0.77,0.55-1.29
		C372.37,364.78,372.19,364.34,371.82,363.99z"/>
</g>
<g id="Layer_29">
</g>
<g id="Layer_30">
</g>
<g id="Layer_31">
</g>
<g id="Layer_2">
</g>
<g id="Layer_3">
</g>
<g id="Layer_4">
</g>
<g id="Layer_5">
</g>
<g id="Layer_6">
</g>
<g id="Layer_7">
</g>
<g id="Layer_8">
</g>
<g id="Layer_9">
</g>
<g id="Layer_10">
</g>
<g id="Layer_11">
</g>
<g id="Layer_12">
</g>
<g id="Layer_13">
</g>
<g id="Layer_14">
</g>
<g id="Layer_15">
</g>
<g id="Layer_16">
</g>
<g id="Layer_32">
</g>
<g id="Layer_33">
</g>
<g id="Layer_34">
</g>
<g id="Layer_35">
</g>
<g id="Layer_49">
</g>
<g id="Layer_50">
</g>
<g id="Layer_51">
</g>
</svg>
