<?xml version="1.0" encoding="utf-8"?>
<!-- Generator: Adobe Illustrator 23.0.1, SVG Export Plug-In . SVG Version: 6.00 Build 0)  -->
<svg version="1.1" xmlns="http://www.w3.org/2000/svg" xmlns:xlink="http://www.w3.org/1999/xlink" x="0px" y="0px"
	 viewBox="0 0 432 432" enable-background="new 0 0 432 432" xml:space="preserve">
<g id="Layer_37">
</g>
<g id="Layer_47">
</g>
<g id="Layer_42">
</g>
<g id="Layer_43">
</g>
<g id="Layer_44">
</g>
<g id="Layer_45">
</g>
<g id="Layer_46">
	<path id="phthalate_free_1_" d="M46.08,336.13c-1.35-0.83-2.87-1.24-4.55-1.24H30.76c-0.52,0-0.96,0.18-1.31,0.53
		c-0.35,0.35-0.53,0.79-0.53,1.31v28.47c0,0.52,0.16,0.97,0.48,1.33c0.32,0.37,0.76,0.55,1.31,0.55c0.52,0,0.95-0.18,1.29-0.55
		c0.34-0.37,0.51-0.81,0.51-1.33v-11.04h9.02c1.69,0,3.2-0.43,4.55-1.29c1.35-0.86,2.42-2.02,3.2-3.5c0.78-1.47,1.17-3.11,1.17-4.92
		c0-1.84-0.39-3.48-1.17-4.92C48.49,338.1,47.43,336.96,46.08,336.13z M46.03,347.54c-0.46,0.95-1.07,1.7-1.84,2.25
		c-0.77,0.55-1.66,0.83-2.67,0.83h-9.02v-12.19h9.02c1.01,0,1.9,0.27,2.67,0.81c0.77,0.54,1.38,1.25,1.84,2.14
		c0.46,0.89,0.69,1.92,0.69,3.08C46.72,345.56,46.49,346.59,46.03,347.54z M80.97,335.42c0.35,0.35,0.53,0.8,0.53,1.36v28.43
		c0,0.52-0.18,0.97-0.55,1.33c-0.37,0.37-0.83,0.55-1.38,0.55c-0.52,0-0.97-0.18-1.33-0.55c-0.37-0.37-0.55-0.81-0.55-1.33v-12.7
		H60.29v12.7c0,0.52-0.19,0.97-0.58,1.33c-0.38,0.37-0.84,0.55-1.36,0.55c-0.58,0-1.04-0.18-1.38-0.55
		c-0.34-0.37-0.51-0.81-0.51-1.33v-28.43c0-0.55,0.18-1,0.55-1.36c0.37-0.35,0.83-0.53,1.38-0.53c0.52,0,0.97,0.18,1.33,0.53
		c0.37,0.35,0.55,0.8,0.55,1.36v12.14h17.39v-12.14c0-0.55,0.19-1,0.58-1.36c0.38-0.35,0.83-0.53,1.36-0.53
		C80.16,334.89,80.62,335.07,80.97,335.42z M111.63,335.37c0.37,0.32,0.55,0.74,0.55,1.26c0,0.55-0.18,0.98-0.55,1.29
		c-0.37,0.31-0.81,0.46-1.33,0.46h-8.74v26.82c0,0.52-0.18,0.97-0.55,1.33c-0.37,0.37-0.84,0.55-1.43,0.55
		c-0.55,0-1.01-0.18-1.38-0.55c-0.37-0.37-0.55-0.81-0.55-1.33v-26.82H88.9c-0.52,0-0.96-0.16-1.31-0.48s-0.53-0.74-0.53-1.27
		c0-0.52,0.18-0.94,0.53-1.26c0.35-0.32,0.79-0.48,1.31-0.48h21.39C110.81,334.89,111.26,335.05,111.63,335.37z M142.19,335.42
		c0.35,0.35,0.53,0.8,0.53,1.36v28.43c0,0.52-0.18,0.97-0.55,1.33c-0.37,0.37-0.83,0.55-1.38,0.55c-0.52,0-0.97-0.18-1.33-0.55
		c-0.37-0.37-0.55-0.81-0.55-1.33v-12.7h-17.39v12.7c0,0.52-0.19,0.97-0.58,1.33c-0.38,0.37-0.84,0.55-1.36,0.55
		c-0.58,0-1.04-0.18-1.38-0.55c-0.34-0.37-0.51-0.81-0.51-1.33v-28.43c0-0.55,0.18-1,0.55-1.36c0.37-0.35,0.83-0.53,1.38-0.53
		c0.52,0,0.97,0.18,1.33,0.53c0.37,0.35,0.55,0.8,0.55,1.36v12.14h17.39v-12.14c0-0.55,0.19-1,0.58-1.36
		c0.38-0.35,0.83-0.53,1.36-0.53C141.39,334.89,141.84,335.07,142.19,335.42z M163.38,335.95c-0.12-0.37-0.34-0.66-0.67-0.87
		c-0.32-0.21-0.68-0.32-1.08-0.32c-0.4-0.03-0.76,0.05-1.08,0.25c-0.32,0.2-0.56,0.51-0.71,0.94l-11.91,28.98
		c-0.09,0.25-0.12,0.48-0.09,0.69c0,0.43,0.14,0.8,0.41,1.1c0.28,0.31,0.71,0.46,1.29,0.46c0.34,0,0.66-0.11,0.97-0.32
		c0.31-0.21,0.52-0.51,0.64-0.87l3.08-7.5h14.56l3.1,7.45c0.15,0.4,0.38,0.71,0.69,0.92c0.31,0.21,0.64,0.32,1.01,0.32
		c0.46,0,0.87-0.16,1.24-0.48c0.37-0.32,0.55-0.76,0.55-1.31c0-0.25-0.05-0.49-0.14-0.74L163.38,335.95z M155.7,354.9l5.76-14.03
		l5.84,14.03H155.7z M199.53,363.99c0.37,0.35,0.55,0.79,0.55,1.31c0,0.52-0.18,0.95-0.55,1.29c-0.37,0.34-0.81,0.51-1.33,0.51
		h-15.92c-0.52,0-0.96-0.18-1.31-0.55c-0.35-0.37-0.53-0.81-0.53-1.33v-28.47c0-0.52,0.18-0.96,0.55-1.31
		c0.37-0.35,0.83-0.53,1.38-0.53c0.52,0,0.97,0.18,1.33,0.53c0.37,0.35,0.55,0.79,0.55,1.31v26.73h13.94
		C198.72,363.46,199.16,363.63,199.53,363.99z M217.93,335.95c-0.12-0.37-0.34-0.66-0.67-0.87c-0.32-0.21-0.68-0.32-1.08-0.32
		c-0.4-0.03-0.76,0.05-1.08,0.25c-0.32,0.2-0.56,0.51-0.71,0.94l-11.91,28.98c-0.09,0.25-0.12,0.48-0.09,0.69
		c0,0.43,0.14,0.8,0.41,1.1c0.28,0.31,0.71,0.46,1.29,0.46c0.34,0,0.66-0.11,0.97-0.32c0.31-0.21,0.52-0.51,0.64-0.87l3.08-7.5
		h14.57l3.1,7.45c0.15,0.4,0.38,0.71,0.69,0.92c0.31,0.21,0.64,0.32,1.01,0.32c0.46,0,0.87-0.16,1.24-0.48
		c0.37-0.32,0.55-0.76,0.55-1.31c0-0.25-0.05-0.49-0.14-0.74L217.93,335.95z M210.25,354.9l5.76-14.03l5.84,14.03H210.25z
		 M254.73,335.37c0.37,0.32,0.55,0.74,0.55,1.26c0,0.55-0.18,0.98-0.55,1.29c-0.37,0.31-0.81,0.46-1.33,0.46h-8.74v26.82
		c0,0.52-0.18,0.97-0.55,1.33c-0.37,0.37-0.84,0.55-1.43,0.55c-0.55,0-1.01-0.18-1.38-0.55c-0.37-0.37-0.55-0.81-0.55-1.33v-26.82
		h-8.74c-0.52,0-0.96-0.16-1.31-0.48s-0.53-0.74-0.53-1.27c0-0.52,0.18-0.94,0.53-1.26c0.35-0.32,0.79-0.48,1.31-0.48h21.39
		C253.92,334.89,254.36,335.05,254.73,335.37z M264.62,338.43v10.35h12.33c0.52,0,0.97,0.17,1.33,0.51s0.55,0.77,0.55,1.29
		c0,0.52-0.18,0.94-0.55,1.27c-0.37,0.32-0.81,0.48-1.33,0.48h-12.33v11.18h14.4c0.52,0,0.97,0.18,1.33,0.55
		c0.37,0.37,0.55,0.78,0.55,1.24c0,0.52-0.18,0.95-0.55,1.29c-0.37,0.34-0.81,0.51-1.33,0.51h-16.38c-0.52,0-0.96-0.18-1.31-0.55
		c-0.35-0.37-0.53-0.81-0.53-1.33v-28.47c0-0.52,0.18-0.96,0.53-1.31c0.35-0.35,0.79-0.53,1.31-0.53h16.38
		c0.52,0,0.97,0.17,1.33,0.51c0.37,0.34,0.55,0.77,0.55,1.29s-0.18,0.94-0.55,1.26c-0.37,0.32-0.81,0.48-1.33,0.48H264.62z
		 M318.99,335.4c0.37,0.34,0.55,0.77,0.55,1.29c0,0.49-0.18,0.9-0.55,1.24c-0.37,0.34-0.81,0.51-1.33,0.51h-14.21v10.4h12.14
		c0.52,0,0.97,0.18,1.33,0.53c0.37,0.35,0.55,0.79,0.55,1.31c0,0.46-0.18,0.87-0.55,1.22c-0.37,0.35-0.81,0.53-1.33,0.53h-12.14
		v12.79c0,0.52-0.18,0.97-0.55,1.33c-0.37,0.37-0.81,0.55-1.33,0.55c-0.55,0-1-0.18-1.36-0.55c-0.35-0.37-0.53-0.81-0.53-1.33
		v-28.47c0-0.52,0.18-0.96,0.53-1.31c0.35-0.35,0.79-0.53,1.31-0.53h16.15C318.18,334.89,318.63,335.06,318.99,335.4z
		 M349.72,363.92c-0.34-0.21-0.6-0.51-0.78-0.9c-0.18-0.38-0.32-0.91-0.41-1.59c-0.09-0.67-0.17-1.58-0.23-2.71
		c-0.03-1.29-0.31-2.42-0.83-3.38c-0.52-0.97-1.2-1.76-2.02-2.39c-0.41-0.31-0.85-0.57-1.31-0.79c0.91-0.41,1.73-0.96,2.46-1.65
		c0.86-0.81,1.53-1.78,2.02-2.9c0.49-1.12,0.74-2.32,0.74-3.61c0-1.78-0.41-3.35-1.22-4.72c-0.81-1.36-1.91-2.44-3.29-3.22
		c-1.38-0.78-2.93-1.17-4.65-1.17h-12.7c-0.52,0-0.96,0.18-1.31,0.53c-0.35,0.35-0.53,0.79-0.53,1.31v28.47
		c0,0.52,0.21,0.97,0.62,1.33c0.41,0.37,0.91,0.55,1.5,0.55c0.52,0,0.93-0.18,1.24-0.55c0.31-0.37,0.46-0.81,0.46-1.33v-11.18h9.71
		c0.67,0,1.33,0.08,1.98,0.23c0.64,0.15,1.23,0.43,1.75,0.83c0.52,0.4,0.93,0.92,1.24,1.56c0.31,0.64,0.46,1.46,0.46,2.44
		c0,1.75,0.15,3.13,0.46,4.14c0.31,1.01,0.69,1.79,1.15,2.32c0.46,0.54,0.94,0.94,1.43,1.22c0.25,0.15,0.54,0.25,0.87,0.28
		c0.34,0.03,0.67-0.01,1.01-0.12c0.34-0.11,0.6-0.3,0.78-0.57c0.31-0.43,0.39-0.87,0.25-1.33
		C350.43,364.56,350.15,364.19,349.72,363.92z M340.2,350.71h-10.72v-12.28h10.49c1.56,0,2.86,0.54,3.89,1.61
		c1.03,1.07,1.54,2.42,1.54,4.05c0,1.26-0.25,2.38-0.76,3.38c-0.51,1-1.15,1.77-1.93,2.32C341.92,350.35,341.09,350.65,340.2,350.71
		z M360.58,338.43v10.35h12.33c0.52,0,0.97,0.17,1.33,0.51c0.37,0.34,0.55,0.77,0.55,1.29c0,0.52-0.18,0.94-0.55,1.27
		c-0.37,0.32-0.81,0.48-1.33,0.48h-12.33v11.18h14.4c0.52,0,0.97,0.18,1.33,0.55c0.37,0.37,0.55,0.78,0.55,1.24
		c0,0.52-0.18,0.95-0.55,1.29c-0.37,0.34-0.81,0.51-1.33,0.51H358.6c-0.52,0-0.96-0.18-1.31-0.55c-0.35-0.37-0.53-0.81-0.53-1.33
		v-28.47c0-0.52,0.18-0.96,0.53-1.31c0.35-0.35,0.79-0.53,1.31-0.53h16.38c0.52,0,0.97,0.17,1.33,0.51
		c0.37,0.34,0.55,0.77,0.55,1.29s-0.18,0.94-0.55,1.26c-0.37,0.32-0.81,0.48-1.33,0.48H360.58z M402.53,364.05
		c0.37,0.37,0.55,0.78,0.55,1.24c0,0.52-0.18,0.95-0.55,1.29c-0.37,0.34-0.81,0.51-1.33,0.51h-16.38c-0.52,0-0.96-0.18-1.31-0.55
		c-0.35-0.37-0.53-0.81-0.53-1.33v-28.47c0-0.52,0.18-0.96,0.53-1.31c0.35-0.35,0.79-0.53,1.31-0.53h16.38
		c0.52,0,0.97,0.17,1.33,0.51c0.37,0.34,0.55,0.77,0.55,1.29s-0.18,0.94-0.55,1.26c-0.37,0.32-0.81,0.48-1.33,0.48h-14.4v10.35
		h12.33c0.52,0,0.97,0.17,1.33,0.51c0.37,0.34,0.55,0.77,0.55,1.29c0,0.52-0.18,0.94-0.55,1.27c-0.37,0.32-0.81,0.48-1.33,0.48
		H386.8v11.18h14.4C401.72,363.5,402.16,363.69,402.53,364.05z"/>
	<path d="M216,17.5C134.67,17.5,68.5,83.67,68.5,165S134.67,312.5,216,312.5S363.5,246.33,363.5,165S297.33,17.5,216,17.5z
		 M216,307.5c-78.57,0-142.5-63.93-142.5-142.5S137.43,22.5,216,22.5S358.5,86.43,358.5,165S294.57,307.5,216,307.5z M281.53,126.37
		c-0.04-0.04-0.09-0.08-0.13-0.12c-0.08-0.07-0.17-0.13-0.26-0.18c-0.04-0.02-0.07-0.05-0.11-0.07c-0.13-0.08-0.27-0.14-0.41-0.19
		c-0.01,0-0.02,0-0.03-0.01c-0.13-0.05-0.27-0.08-0.41-0.1c-0.04-0.01-0.09-0.01-0.13-0.01c-0.11-0.01-0.21-0.02-0.32-0.02
		c-0.05,0-0.1,0-0.16,0.01c-0.1,0.01-0.2,0.02-0.31,0.05c-0.05,0.01-0.1,0.02-0.15,0.03c-0.12,0.03-0.23,0.07-0.34,0.12
		c-0.03,0.01-0.05,0.02-0.08,0.03c-0.01,0-0.01,0.01-0.02,0.01c-0.01,0-0.02,0.01-0.02,0.01c-0.13,0.07-0.26,0.15-0.37,0.23
		c-0.03,0.02-0.06,0.05-0.09,0.08c-0.09,0.07-0.17,0.14-0.24,0.22c-0.04,0.04-0.07,0.08-0.11,0.13c-0.06,0.07-0.12,0.15-0.17,0.23
		c-0.03,0.05-0.06,0.09-0.09,0.14c-0.05,0.09-0.09,0.18-0.12,0.27c-0.02,0.05-0.04,0.09-0.05,0.14c-0.04,0.12-0.07,0.24-0.09,0.36
		c0,0.03-0.01,0.05-0.02,0.08c-0.02,0.15-0.03,0.3-0.02,0.45c0,0.05,0.01,0.09,0.02,0.14c0.01,0.08,0.01,0.17,0.03,0.25
		c1.48,7.55-4.01,12.46-13.09,19.85c-7.37,6-15.73,12.79-18.91,23.1c-5.45,17.66,5.73,35.24,9.43,40.38
		c-1.85,3.05-5.09,9.98-1.85,17.2c0.42,0.93,1.33,1.48,2.28,1.48c0.34,0,0.69-0.07,1.02-0.22c1.26-0.57,1.82-2.04,1.26-3.3
		c-2.6-5.8,1.02-11.79,2.05-13.32c21.4-11.32,33.74-25.37,36.65-41.76c4.34-24.4-13.77-44.71-14.54-45.56
		C281.61,126.44,281.57,126.41,281.53,126.37z M255.49,203.72c-4.02-7.16-8.92-19.13-5.37-30.65c2.73-8.86,10.13-14.88,17.29-20.7
		c4.89-3.97,9.62-7.83,12.47-12.35c-0.19,9.21-5.35,18.7-11.07,29.21C262.88,180.12,256.81,191.32,255.49,203.72z M291.26,171.2
		c-2.51,14.01-12.95,26.28-31.02,36.51c0.25-10.26,4.41-19.9,9.27-29.22c3.75-5.9,8.63-9.09,14.51-9.47
		c1.38-0.09,2.42-1.28,2.33-2.66c-0.09-1.38-1.3-2.43-2.66-2.33c-2.61,0.17-5.08,0.79-7.4,1.82c4.61-8.75,8.43-17.27,8.58-25.87
		C289.16,147.69,293.44,159.02,291.26,171.2z M246.35,100.32c0.01-0.06,0.03-0.12,0.04-0.17c0.02-0.1,0.02-0.2,0.02-0.31
		c0-0.05,0.01-0.09,0.01-0.14c0-0.15-0.02-0.3-0.05-0.44c-0.01-0.02-0.01-0.05-0.02-0.07c-0.03-0.12-0.07-0.24-0.11-0.35
		c-0.02-0.05-0.04-0.09-0.07-0.14c-0.04-0.09-0.09-0.17-0.14-0.25c-0.03-0.05-0.06-0.09-0.1-0.14c-0.06-0.08-0.12-0.15-0.19-0.23
		c-0.04-0.04-0.07-0.08-0.11-0.12c-0.09-0.08-0.19-0.16-0.29-0.23c-0.02-0.01-0.04-0.03-0.06-0.05c0,0-0.01,0-0.01-0.01
		c-0.01,0-0.01-0.01-0.02-0.02c-0.13-0.08-0.26-0.14-0.39-0.2c-0.04-0.02-0.08-0.02-0.12-0.04c-0.1-0.04-0.21-0.07-0.31-0.09
		c-0.06-0.01-0.11-0.02-0.17-0.02c-0.09-0.01-0.19-0.02-0.28-0.02c-0.06,0-0.12,0-0.17,0c-0.1,0.01-0.19,0.02-0.28,0.03
		c-0.05,0.01-0.1,0.02-0.16,0.03c-0.11,0.03-0.22,0.06-0.33,0.1c-0.03,0.01-0.07,0.02-0.1,0.03c-0.13,0.06-0.26,0.13-0.39,0.21
		c-0.04,0.03-0.08,0.06-0.12,0.09c-0.06,0.05-0.13,0.09-0.19,0.15c-5.66,5.21-12.72,3.1-23.76-0.77
		c-8.97-3.15-19.13-6.71-29.58-4.03c-17.91,4.6-27.03,23.32-29.48,29.16c-3.57,0.02-11.17,0.88-15.63,7.42
		c-0.78,1.14-0.48,2.7,0.66,3.47c0.43,0.29,0.92,0.44,1.41,0.43c0.8,0,1.58-0.38,2.07-1.09c3.58-5.25,10.56-5.3,12.42-5.22
		c13.97,8.25,26.85,12.4,38.5,12.4c5.73,0,11.16-1,16.28-3.01c23.07-9.07,30.9-35.12,31.22-36.23
		C246.33,100.43,246.34,100.37,246.35,100.32z M190.12,97.99c8.98-2.31,17.98,0.85,26.68,3.9c5.94,2.08,11.7,4.1,17.05,4.16
		c-7.95,4.66-18.73,5.22-30.68,5.85c-2.2,0.12-4.42,0.24-6.64,0.38c1.58-1.99,2.88-4.2,3.74-6.45c0.5-1.29-0.15-2.74-1.43-3.23
		c-1.29-0.5-2.74,0.15-3.23,1.43c-1.29,3.36-3.91,6.71-6.89,8.91c-7.58,0.84-15.02,2.37-21.91,5.65
		C170.81,111.42,178.44,100.99,190.12,97.99z M213.23,132.07c-13.25,5.2-29.17,2.71-47.34-7.33c11.08-6.43,24.51-7.15,37.54-7.84
		c12.27-0.64,24.05-1.27,33.07-6.59C232.17,117.98,224.75,127.55,213.23,132.07z M224.21,231.58c-0.01-0.15-0.04-0.29-0.08-0.43
		c-0.01-0.05-0.03-0.1-0.05-0.14c-0.03-0.09-0.06-0.19-0.11-0.27c-0.03-0.06-0.06-0.12-0.1-0.18c-0.04-0.07-0.08-0.13-0.13-0.2
		c-0.04-0.06-0.09-0.12-0.14-0.18c-0.05-0.05-0.09-0.1-0.14-0.15c-0.06-0.06-0.11-0.11-0.17-0.16c-0.05-0.04-0.1-0.07-0.15-0.11
		c-0.15-0.11-0.32-0.2-0.49-0.27c-0.03-0.01-0.06-0.03-0.08-0.04c-0.07-0.03-0.15-0.04-0.23-0.06c-0.06-0.01-0.11-0.03-0.17-0.05
		c-7.57-1.38-10.13-8.29-13.69-19.44c-2.88-9.05-6.15-19.32-14.59-26.05c-14.45-11.53-34.89-7.55-41.03-5.99
		c-2.16-2.84-7.42-8.4-15.33-8.02c-1.38,0.07-2.44,1.24-2.38,2.62s1.24,2.45,2.62,2.38c6.35-0.3,10.6,5.26,11.65,6.78
		c2.71,24.06,11.27,40.68,25.47,49.39c8.53,5.24,17.78,6.82,25.85,6.82c11.9,0,21.23-3.45,21.87-3.69c0.05-0.02,0.1-0.05,0.15-0.07
		c0.05-0.02,0.11-0.05,0.16-0.08c0.09-0.05,0.18-0.11,0.27-0.17c0.04-0.03,0.07-0.05,0.11-0.07c0.12-0.09,0.23-0.2,0.32-0.31
		c0.01-0.01,0.02-0.03,0.03-0.04c0.08-0.1,0.16-0.21,0.22-0.32c0.03-0.04,0.05-0.09,0.07-0.13c0.05-0.09,0.09-0.18,0.12-0.27
		c0.02-0.05,0.04-0.11,0.05-0.16c0.03-0.09,0.05-0.19,0.07-0.28c0.01-0.06,0.02-0.11,0.03-0.17c0.01-0.11,0.01-0.23,0.01-0.35
		c0-0.03,0.01-0.07,0-0.1c0-0.01,0-0.01,0-0.02C224.21,231.59,224.21,231.59,224.21,231.58z M177.5,226.75
		c-12.14-7.45-19.75-21.67-22.67-42.24c11.8,4.98,20.46,15.26,28.85,25.26c7.9,9.42,15.5,18.46,25.19,22.46
		C200.15,233.4,188.06,233.24,177.5,226.75z M187.51,206.56c-1.42-1.7-2.86-3.4-4.31-5.09c0.23,0.01,0.47,0.03,0.7,0.03
		c2.31,0,4.61-0.3,6.72-0.9c1.33-0.38,2.1-1.76,1.72-3.09c-0.38-1.33-1.77-2.1-3.09-1.72c-3.46,0.99-7.71,0.92-11.26-0.14
		c-5.23-5.55-10.93-10.56-17.7-14.1c8.14-1.12,21.07-1.31,30.49,6.22c7.25,5.79,10.14,14.87,12.94,23.66
		c1.91,6,3.76,11.81,6.94,16.12C202.15,223.99,195.21,215.73,187.51,206.56z"/>
</g>
<g id="Layer_38">
</g>
<g id="Layer_39">
</g>
<g id="Layer_40">
</g>
<g id="Layer_41">
</g>
<g id="Layer_17">
</g>
<g id="Layer_18">
</g>
<g id="Layer_19">
</g>
<g id="Layer_20">
</g>
<g id="Layer_21">
</g>
<g id="Layer_22">
</g>
<g id="Layer_23">
</g>
<g id="Layer_24">
</g>
<g id="Layer_25">
</g>
<g id="Layer_26">
</g>
<g id="Layer_27">
</g>
<g id="Layer_28">
</g>
<g id="Layer_29">
</g>
<g id="Layer_30">
</g>
<g id="Layer_31">
</g>
<g id="Layer_2">
</g>
<g id="Layer_3">
</g>
<g id="Layer_4">
</g>
<g id="Layer_5">
</g>
<g id="Layer_6">
</g>
<g id="Layer_7">
</g>
<g id="Layer_8">
</g>
<g id="Layer_9">
</g>
<g id="Layer_10">
</g>
<g id="Layer_11">
</g>
<g id="Layer_12">
</g>
<g id="Layer_13">
</g>
<g id="Layer_14">
</g>
<g id="Layer_15">
</g>
<g id="Layer_16">
</g>
<g id="Layer_32">
</g>
<g id="Layer_33">
</g>
<g id="Layer_34">
</g>
<g id="Layer_35">
</g>
<g id="Layer_49">
</g>
<g id="Layer_50">
</g>
<g id="Layer_51">
</g>
</svg>
