<?xml version="1.0" encoding="utf-8"?>
<!-- Generator: Adobe Illustrator 23.0.1, SVG Export Plug-In . SVG Version: 6.00 Build 0)  -->
<svg version="1.1" xmlns="http://www.w3.org/2000/svg" xmlns:xlink="http://www.w3.org/1999/xlink" x="0px" y="0px"
	 viewBox="0 0 432 432" enable-background="new 0 0 432 432" xml:space="preserve">
<g id="Layer_37">
</g>
<g id="Layer_47">
</g>
<g id="Layer_42">
</g>
<g id="Layer_43">
</g>
<g id="Layer_44">
</g>
<g id="Layer_45">
</g>
<g id="Layer_46">
</g>
<g id="Layer_38">
</g>
<g id="Layer_39">
</g>
<g id="Layer_40">
</g>
<g id="Layer_41">
</g>
<g id="Layer_17">
</g>
<g id="Layer_18">
</g>
<g id="Layer_19">
</g>
<g id="Layer_20">
</g>
<g id="Layer_21">
</g>
<g id="Layer_22">
</g>
<g id="Layer_23">
</g>
<g id="Layer_24">
</g>
<g id="Layer_25">
</g>
<g id="Layer_26">
	<path d="M68.5,165c0-81.33,66.17-147.5,147.5-147.5S363.5,83.67,363.5,165S297.33,312.5,216,312.5S68.5,246.33,68.5,165z M73.5,165
		c0,78.58,63.93,142.5,142.5,142.5S358.5,243.58,358.5,165S294.57,22.5,216,22.5S73.5,86.42,73.5,165z M213.5,224.43v-20.35
		l-30.2-4.65c-22.35-3.44-39.98-20.71-43.88-42.99c-0.14-0.79,0.11-1.61,0.68-2.18c0.56-0.58,1.37-0.85,2.17-0.72l38.04,5.85
		c14.63,2.25,26.87,11.5,33.2,24.3v-20.35l-30.2-4.65c-22.35-3.44-39.98-20.71-43.88-42.98c-0.14-0.79,0.11-1.61,0.68-2.18
		c0.56-0.58,1.37-0.84,2.17-0.72l38.04,5.85c14.63,2.25,26.87,11.5,33.2,24.3v-4.13l-14.38-28.71c-10.13-20.22-6.24-44.6,9.67-60.66
		c0.57-0.57,1.37-0.84,2.17-0.71c0.8,0.13,1.48,0.63,1.84,1.35l17.24,34.41c8.58,17.12,5.29,37.76-8.19,51.37l-3.35,3.38v3.7
		c6.33-12.8,18.57-22.05,33.2-24.3l38.04-5.85c0.79-0.12,1.6,0.15,2.17,0.72c0.56,0.58,0.82,1.39,0.68,2.18
		c-3.9,22.27-21.54,39.55-43.88,42.98l-30.2,4.65v20.35c6.33-12.8,18.57-22.05,33.2-24.3l38.04-5.85c0.8-0.12,1.6,0.15,2.17,0.72
		c0.56,0.58,0.82,1.39,0.68,2.18c-3.9,22.27-21.54,39.55-43.88,42.99l-30.2,4.65v20.35c6.33-12.8,18.57-22.05,33.2-24.3l38.04-5.85
		c0.79-0.12,1.6,0.15,2.17,0.72c0.56,0.58,0.82,1.39,0.68,2.18c-3.9,22.27-21.54,39.55-43.88,42.98l-30.2,4.65v32.63
		c0,1.38-1.12,2.5-2.5,2.5s-2.5-1.12-2.5-2.5v-32.63l-30.2-4.65c-22.35-3.44-39.98-20.71-43.88-42.98
		c-0.14-0.79,0.11-1.61,0.68-2.18c0.56-0.58,1.37-0.84,2.17-0.72l38.04,5.85C194.93,202.38,207.17,211.64,213.5,224.43z
		 M212.94,239.67l-0.4-2.27c-2.93-16.75-16.19-29.74-33-32.32l-34.46-5.3c4.65,18.47,19.93,32.52,38.98,35.45L212.94,239.67z
		 M219.06,239.67l28.87-4.44c19.06-2.93,34.33-16.98,38.98-35.45l-34.46,5.3c-16.8,2.59-30.06,15.58-33,32.32L219.06,239.67z
		 M219.06,198.94l28.87-4.44c19.06-2.93,34.33-16.98,38.98-35.45l-34.46,5.3c-16.8,2.58-30.07,15.57-33,32.32L219.06,198.94z
		 M219.06,158.21l28.87-4.44c19.06-2.93,34.33-16.98,38.98-35.45l-34.46,5.3c-16.8,2.58-30.06,15.57-33,32.32L219.06,158.21z
		 M212.94,158.21l-0.4-2.27c-2.93-16.75-16.19-29.74-33-32.32l-34.46-5.3c4.65,18.47,19.93,32.52,38.98,35.45L212.94,158.21z
		 M212.94,198.94l-0.4-2.27c-2.93-16.75-16.19-29.74-33-32.32l-34.46-5.3c4.65,18.47,19.93,32.52,38.98,35.45L212.94,198.94z
		 M203.59,107.89l13.08,26.12l1.62-1.64c11.96-12.08,14.88-30.41,7.27-45.61l-15.62-31.18C197.58,70.07,194.96,90.66,203.59,107.89z
		"/>
	<path id="gluten_free" d="M95.57,350.99c0.34,0.37,0.51,0.81,0.51,1.33v10.63c0,0.37-0.08,0.69-0.25,0.97
		c-0.17,0.28-0.39,0.51-0.67,0.69c-1.38,0.89-2.91,1.6-4.58,2.14c-1.67,0.54-3.41,0.81-5.22,0.81c-2.36,0-4.55-0.42-6.56-1.27
		c-2.01-0.84-3.77-2.02-5.29-3.52c-1.52-1.5-2.7-3.26-3.54-5.27c-0.84-2.01-1.27-4.18-1.27-6.51c0-2.36,0.42-4.55,1.27-6.55
		c0.84-2.01,2.02-3.76,3.54-5.27s3.28-2.67,5.29-3.5c2.01-0.83,4.19-1.24,6.56-1.24c1.56,0,3.07,0.18,4.53,0.53
		c1.46,0.35,2.78,0.9,3.98,1.63c0.31,0.15,0.53,0.37,0.67,0.64c0.14,0.28,0.21,0.57,0.21,0.87c0,0.52-0.18,0.97-0.53,1.33
		C93.86,339.82,93.46,340,93,340c-0.18,0-0.36-0.03-0.53-0.09c-0.17-0.06-0.35-0.12-0.53-0.18c-0.95-0.49-1.98-0.88-3.08-1.17
		c-1.1-0.29-2.27-0.44-3.5-0.44c-2.42,0-4.59,0.57-6.51,1.7c-1.92,1.13-3.43,2.67-4.53,4.6c-1.1,1.93-1.66,4.13-1.66,6.58
		c0,2.42,0.55,4.61,1.66,6.56s2.61,3.49,4.53,4.62c1.92,1.13,4.09,1.7,6.51,1.7c1.23,0,2.49-0.17,3.79-0.51
		c1.16-0.3,2.16-0.68,3.01-1.12v-8.12h-6.3c-0.52,0-0.96-0.18-1.31-0.53c-0.35-0.35-0.53-0.79-0.53-1.31c0-0.52,0.18-0.96,0.53-1.31
		c0.35-0.35,0.79-0.53,1.31-0.53h8.37C94.79,350.44,95.24,350.63,95.57,350.99z M120.41,363.46h-13.94v-26.73
		c0-0.52-0.18-0.96-0.55-1.31s-0.81-0.53-1.33-0.53c-0.55,0-1.01,0.18-1.38,0.53c-0.37,0.35-0.55,0.79-0.55,1.31v28.47
		c0,0.52,0.18,0.97,0.53,1.33c0.35,0.37,0.79,0.55,1.31,0.55h15.92c0.52,0,0.97-0.17,1.33-0.51c0.37-0.34,0.55-0.77,0.55-1.29
		s-0.18-0.96-0.55-1.31C121.38,363.64,120.93,363.46,120.41,363.46z M149.49,334.85c-0.55,0-0.98,0.18-1.29,0.55
		c-0.31,0.37-0.46,0.81-0.46,1.33V355c0,1.69-0.41,3.19-1.22,4.51c-0.81,1.32-1.88,2.35-3.2,3.1c-1.32,0.75-2.76,1.13-4.32,1.13
		c-1.53,0-2.95-0.38-4.25-1.13c-1.3-0.75-2.34-1.79-3.1-3.1c-0.77-1.32-1.15-2.82-1.15-4.51v-18.26c0-0.52-0.19-0.97-0.58-1.33
		c-0.38-0.37-0.82-0.55-1.31-0.55c-0.58,0-1.05,0.18-1.4,0.55c-0.35,0.37-0.53,0.81-0.53,1.33V355c0,2.36,0.54,4.48,1.61,6.35
		c1.07,1.87,2.54,3.35,4.39,4.44c1.86,1.09,3.96,1.63,6.33,1.63c2.33,0,4.42-0.54,6.26-1.63c1.84-1.09,3.3-2.57,4.39-4.44
		c1.09-1.87,1.63-3.99,1.63-6.35v-18.26c0-0.52-0.17-0.97-0.51-1.33C150.44,335.03,150.01,334.85,149.49,334.85z M180.03,334.89
		h-21.39c-0.52,0-0.96,0.16-1.31,0.48c-0.35,0.32-0.53,0.74-0.53,1.26s0.18,0.94,0.53,1.26c0.35,0.32,0.79,0.48,1.31,0.48h8.74
		v26.82c0,0.52,0.18,0.97,0.55,1.33c0.37,0.37,0.83,0.55,1.38,0.55c0.58,0,1.06-0.18,1.43-0.55c0.37-0.37,0.55-0.81,0.55-1.33
		v-26.82h8.74c0.52,0,0.97-0.15,1.33-0.46s0.55-0.74,0.55-1.29c0-0.52-0.18-0.94-0.55-1.26C181,335.05,180.55,334.89,180.03,334.89z
		 M205.65,338.44c0.52,0,0.97-0.16,1.33-0.48c0.37-0.32,0.55-0.74,0.55-1.26s-0.18-0.95-0.55-1.29c-0.37-0.34-0.81-0.51-1.33-0.51
		h-16.38c-0.52,0-0.96,0.18-1.31,0.53c-0.35,0.35-0.53,0.79-0.53,1.31v28.47c0,0.52,0.18,0.97,0.53,1.33
		c0.35,0.37,0.79,0.55,1.31,0.55h16.38c0.52,0,0.97-0.17,1.33-0.51c0.37-0.34,0.55-0.77,0.55-1.29c0-0.46-0.18-0.87-0.55-1.24
		c-0.37-0.37-0.81-0.55-1.33-0.55h-14.4v-11.18h12.33c0.52,0,0.97-0.16,1.33-0.48c0.37-0.32,0.55-0.74,0.55-1.27
		c0-0.52-0.18-0.95-0.55-1.29c-0.37-0.34-0.81-0.51-1.33-0.51h-12.33v-10.35H205.65z M237.48,334.89c-0.49,0-0.9,0.16-1.22,0.48
		c-0.32,0.32-0.48,0.73-0.48,1.22v23.82l-18.81-24.88c-0.15-0.21-0.38-0.38-0.67-0.48c-0.29-0.11-0.57-0.16-0.85-0.16
		c-0.49,0-0.91,0.17-1.26,0.51c-0.35,0.34-0.53,0.78-0.53,1.33v28.66c0,0.49,0.15,0.9,0.46,1.22c0.31,0.32,0.71,0.48,1.2,0.48
		c0.52,0,0.94-0.16,1.27-0.48c0.32-0.32,0.48-0.73,0.48-1.22v-23.72l18.77,24.82c0.15,0.18,0.37,0.33,0.64,0.44
		c0.28,0.11,0.55,0.16,0.83,0.16c0.52,0,0.97-0.18,1.33-0.53c0.37-0.35,0.55-0.82,0.55-1.4V336.6c0-0.49-0.15-0.9-0.46-1.22
		C238.42,335.05,238,334.89,237.48,334.89z M277.87,334.89h-16.15c-0.52,0-0.96,0.18-1.31,0.53c-0.35,0.35-0.53,0.79-0.53,1.31
		v28.47c0,0.52,0.18,0.97,0.53,1.33c0.35,0.37,0.8,0.55,1.36,0.55c0.52,0,0.97-0.18,1.33-0.55c0.37-0.37,0.55-0.81,0.55-1.33v-12.79
		h12.14c0.52,0,0.97-0.18,1.33-0.53c0.37-0.35,0.55-0.76,0.55-1.22c0-0.52-0.18-0.96-0.55-1.31c-0.37-0.35-0.81-0.53-1.33-0.53
		h-12.14v-10.4h14.21c0.52,0,0.97-0.17,1.33-0.51c0.37-0.34,0.55-0.75,0.55-1.24c0-0.52-0.18-0.95-0.55-1.29
		C278.84,335.06,278.39,334.89,277.87,334.89z M310.78,365.02c0.14,0.46,0.05,0.91-0.25,1.33c-0.18,0.28-0.44,0.47-0.78,0.58
		c-0.34,0.11-0.67,0.15-1.01,0.12c-0.34-0.03-0.63-0.12-0.87-0.28c-0.49-0.28-0.97-0.68-1.43-1.22c-0.46-0.54-0.84-1.31-1.15-2.32
		c-0.31-1.01-0.46-2.39-0.46-4.14c0-0.98-0.15-1.79-0.46-2.44c-0.31-0.64-0.72-1.17-1.24-1.56s-1.1-0.67-1.75-0.83
		s-1.3-0.23-1.98-0.23h-9.71v11.18c0,0.52-0.15,0.97-0.46,1.33c-0.31,0.37-0.72,0.55-1.24,0.55c-0.58,0-1.08-0.18-1.5-0.55
		c-0.41-0.37-0.62-0.81-0.62-1.33v-28.47c0-0.52,0.18-0.96,0.53-1.31c0.35-0.35,0.79-0.53,1.31-0.53h12.7
		c1.72,0,3.27,0.39,4.65,1.17s2.48,1.86,3.29,3.22c0.81,1.37,1.22,2.94,1.22,4.72c0,1.29-0.25,2.49-0.74,3.61
		c-0.49,1.12-1.17,2.09-2.02,2.9c-0.73,0.69-1.55,1.23-2.46,1.65c0.46,0.22,0.9,0.48,1.31,0.79c0.83,0.63,1.5,1.43,2.02,2.39
		c0.52,0.97,0.8,2.09,0.83,3.38c0.06,1.13,0.14,2.04,0.23,2.71c0.09,0.67,0.23,1.2,0.41,1.59c0.18,0.38,0.44,0.68,0.78,0.9
		C310.36,364.2,310.64,364.56,310.78,365.02z M304.85,347.47c0.51-1,0.76-2.12,0.76-3.38c0-1.63-0.51-2.97-1.54-4.05
		c-1.03-1.07-2.32-1.61-3.89-1.61h-10.49v12.28h10.72c0.89-0.06,1.73-0.37,2.51-0.92C303.7,349.25,304.34,348.47,304.85,347.47z
		 M335.19,338.44c0.52,0,0.97-0.16,1.33-0.48c0.37-0.32,0.55-0.74,0.55-1.26s-0.18-0.95-0.55-1.29c-0.37-0.34-0.81-0.51-1.33-0.51
		h-16.38c-0.52,0-0.96,0.18-1.31,0.53c-0.35,0.35-0.53,0.79-0.53,1.31v28.47c0,0.52,0.18,0.97,0.53,1.33
		c0.35,0.37,0.79,0.55,1.31,0.55h16.38c0.52,0,0.97-0.17,1.33-0.51c0.37-0.34,0.55-0.77,0.55-1.29c0-0.46-0.18-0.87-0.55-1.24
		c-0.37-0.37-0.81-0.55-1.33-0.55h-14.4v-11.18h12.33c0.52,0,0.97-0.16,1.33-0.48c0.37-0.32,0.55-0.74,0.55-1.27
		c0-0.52-0.18-0.95-0.55-1.29c-0.37-0.34-0.81-0.51-1.33-0.51h-12.33v-10.35H335.19z M361.4,363.51h-14.4v-11.18h12.33
		c0.52,0,0.97-0.16,1.33-0.48c0.37-0.32,0.55-0.74,0.55-1.27c0-0.52-0.18-0.95-0.55-1.29c-0.37-0.34-0.81-0.51-1.33-0.51h-12.33
		v-10.35h14.4c0.52,0,0.97-0.16,1.33-0.48c0.37-0.32,0.55-0.74,0.55-1.26s-0.18-0.95-0.55-1.29c-0.37-0.34-0.81-0.51-1.33-0.51
		h-16.38c-0.52,0-0.96,0.18-1.31,0.53c-0.35,0.35-0.53,0.79-0.53,1.31v28.47c0,0.52,0.18,0.97,0.53,1.33
		c0.35,0.37,0.79,0.55,1.31,0.55h16.38c0.52,0,0.97-0.17,1.33-0.51c0.37-0.34,0.55-0.77,0.55-1.29c0-0.46-0.18-0.87-0.55-1.24
		C362.37,363.69,361.93,363.51,361.4,363.51z"/>
</g>
<g id="Layer_27">
</g>
<g id="Layer_28">
</g>
<g id="Layer_29">
</g>
<g id="Layer_30">
</g>
<g id="Layer_31">
</g>
<g id="Layer_2">
</g>
<g id="Layer_3">
</g>
<g id="Layer_4">
</g>
<g id="Layer_5">
</g>
<g id="Layer_6">
</g>
<g id="Layer_7">
</g>
<g id="Layer_8">
</g>
<g id="Layer_9">
</g>
<g id="Layer_10">
</g>
<g id="Layer_11">
</g>
<g id="Layer_12">
</g>
<g id="Layer_13">
</g>
<g id="Layer_14">
</g>
<g id="Layer_15">
</g>
<g id="Layer_16">
</g>
<g id="Layer_32">
</g>
<g id="Layer_33">
</g>
<g id="Layer_34">
</g>
<g id="Layer_35">
</g>
<g id="Layer_49">
</g>
<g id="Layer_50">
</g>
<g id="Layer_51">
</g>
</svg>
