<?xml version="1.0" encoding="utf-8"?>
<!-- Generator: Adobe Illustrator 23.0.1, SVG Export Plug-In . SVG Version: 6.00 Build 0)  -->
<svg version="1.1" xmlns="http://www.w3.org/2000/svg" xmlns:xlink="http://www.w3.org/1999/xlink" x="0px" y="0px"
	 viewBox="0 0 432 432" enable-background="new 0 0 432 432" xml:space="preserve">
<g id="Layer_37">
</g>
<g id="Layer_47">
</g>
<g id="Layer_42">
</g>
<g id="Layer_43">
	<path id="small_batch" d="M88.79,354.74c0.51,1.09,0.76,2.43,0.76,4.02c0,1.69-0.48,3.19-1.43,4.51c-0.95,1.32-2.25,2.35-3.89,3.1
		s-3.49,1.14-5.54,1.17c-2.27,0-4.26-0.34-5.98-1.01c-1.72-0.67-3.37-1.75-4.97-3.22c-0.21-0.21-0.39-0.45-0.53-0.71
		c-0.14-0.26-0.21-0.54-0.21-0.85c0-0.49,0.18-0.93,0.53-1.31c0.35-0.38,0.79-0.58,1.31-0.58c0.43,0,0.81,0.17,1.15,0.51
		c1.2,1.17,2.49,2.05,3.89,2.67c1.4,0.61,2.97,0.92,4.71,0.92c1.35,0,2.57-0.21,3.66-0.64c1.09-0.43,1.96-1.03,2.6-1.79
		c0.64-0.77,0.97-1.66,0.97-2.67c-0.03-1.23-0.39-2.24-1.08-3.04c-0.69-0.8-1.64-1.46-2.85-2c-1.21-0.54-2.61-0.99-4.21-1.36
		c-1.41-0.34-2.71-0.75-3.89-1.24c-1.18-0.49-2.2-1.1-3.06-1.82c-0.86-0.72-1.53-1.59-2-2.62c-0.48-1.03-0.71-2.23-0.71-3.61
		c0-1.75,0.46-3.28,1.38-4.6c0.92-1.32,2.19-2.34,3.82-3.06c1.63-0.72,3.5-1.08,5.61-1.08c1.87,0,3.64,0.31,5.31,0.92
		c1.67,0.61,3.01,1.46,4.03,2.53c0.61,0.58,0.92,1.15,0.92,1.7c0,0.46-0.19,0.88-0.58,1.26c-0.38,0.38-0.82,0.58-1.31,0.58
		c-0.34,0-0.64-0.12-0.92-0.37c-0.52-0.58-1.18-1.1-1.98-1.56c-0.8-0.46-1.67-0.83-2.62-1.1c-0.95-0.28-1.9-0.41-2.85-0.41
		c-1.41,0-2.65,0.21-3.73,0.62s-1.91,1-2.51,1.75c-0.6,0.75-0.9,1.65-0.9,2.69c0,1.17,0.34,2.12,1.01,2.88
		c0.67,0.75,1.58,1.37,2.71,1.84c1.13,0.48,2.39,0.9,3.77,1.26c1.5,0.37,2.89,0.79,4.16,1.27c1.27,0.48,2.37,1.07,3.29,1.77
		C87.57,352.75,88.28,353.65,88.79,354.74z M123.72,334.84c-0.64-0.03-1.17,0.25-1.56,0.83l-11.53,17.21l-11.38-17.21
		c-0.18-0.25-0.44-0.44-0.76-0.6c-0.32-0.15-0.62-0.23-0.9-0.23c-0.55,0-1,0.19-1.36,0.58c-0.35,0.38-0.53,0.82-0.53,1.31v28.47
		c0,0.52,0.16,0.97,0.48,1.33c0.32,0.37,0.74,0.55,1.26,0.55s0.95-0.18,1.29-0.55c0.34-0.37,0.51-0.81,0.51-1.33v-23.26l9.75,15.03
		c0.18,0.21,0.41,0.4,0.69,0.55c0.28,0.15,0.55,0.23,0.83,0.23c0.28,0,0.54-0.08,0.8-0.23c0.26-0.15,0.48-0.34,0.67-0.55l9.71-14.76
		v23c0,0.52,0.18,0.97,0.55,1.33c0.37,0.37,0.83,0.55,1.38,0.55c0.55,0,1.01-0.18,1.38-0.55c0.37-0.37,0.55-0.81,0.55-1.33v-28.47
		c0-0.55-0.18-1-0.55-1.33C124.64,335.06,124.21,334.88,123.72,334.84z M158.04,364.65c0.09,0.25,0.14,0.49,0.14,0.74
		c0,0.55-0.18,0.99-0.55,1.31c-0.37,0.32-0.78,0.48-1.24,0.48c-0.37,0-0.71-0.11-1.01-0.32c-0.31-0.21-0.54-0.52-0.69-0.92
		l-3.1-7.45h-14.56l-3.08,7.5c-0.12,0.37-0.34,0.66-0.64,0.87c-0.31,0.21-0.63,0.32-0.97,0.32c-0.58,0-1.01-0.15-1.29-0.46
		c-0.28-0.31-0.41-0.67-0.41-1.1c-0.03-0.21,0-0.44,0.09-0.69l11.91-28.98c0.15-0.43,0.39-0.74,0.71-0.94
		c0.32-0.2,0.68-0.28,1.08-0.25c0.4,0,0.76,0.11,1.08,0.32c0.32,0.21,0.54,0.51,0.67,0.87L158.04,364.65z M150.09,354.9l-5.84-14.03
		l-5.76,14.03H150.09z M180.99,363.46h-13.94v-26.73c0-0.52-0.18-0.96-0.55-1.31c-0.37-0.35-0.81-0.53-1.33-0.53
		c-0.55,0-1.01,0.18-1.38,0.53c-0.37,0.35-0.55,0.79-0.55,1.31v28.47c0,0.52,0.18,0.97,0.53,1.33c0.35,0.37,0.79,0.55,1.31,0.55
		h15.92c0.52,0,0.97-0.17,1.33-0.51c0.37-0.34,0.55-0.77,0.55-1.29c0-0.52-0.18-0.96-0.55-1.31
		C181.96,363.63,181.51,363.46,180.99,363.46z M205.92,363.46h-13.94v-26.73c0-0.52-0.18-0.96-0.55-1.31
		c-0.37-0.35-0.81-0.53-1.33-0.53c-0.55,0-1.01,0.18-1.38,0.53c-0.37,0.35-0.55,0.79-0.55,1.31v28.47c0,0.52,0.18,0.97,0.53,1.33
		c0.35,0.37,0.79,0.55,1.31,0.55h15.92c0.52,0,0.97-0.17,1.33-0.51c0.37-0.34,0.55-0.77,0.55-1.29c0-0.52-0.18-0.96-0.55-1.31
		C206.89,363.63,206.45,363.46,205.92,363.46z M248.77,353.75c0.6,1.1,0.9,2.47,0.9,4.09c0,1.75-0.29,3.21-0.87,4.39
		c-0.58,1.18-1.36,2.13-2.32,2.85c-0.97,0.72-2.04,1.23-3.22,1.54c-1.18,0.31-2.37,0.46-3.56,0.46h-12.1
		c-0.52,0-0.96-0.18-1.31-0.55c-0.35-0.37-0.53-0.81-0.53-1.33v-28.47c0-0.52,0.18-0.96,0.53-1.31c0.35-0.35,0.79-0.53,1.31-0.53
		h12.01c2.7,0,4.78,0.7,6.23,2.09c1.46,1.4,2.18,3.37,2.18,5.91c0,1.35-0.31,2.59-0.92,3.73c-0.61,1.14-1.51,2.04-2.69,2.71
		c-0.25,0.14-0.52,0.27-0.8,0.38c1.01,0.31,1.95,0.76,2.82,1.37C247.39,351.76,248.18,352.65,248.77,353.75z M239.04,338.52h-9.34
		v10.03h9.43c1.35,0,2.51-0.44,3.47-1.31s1.45-2.17,1.45-3.89c0-1.53-0.45-2.72-1.33-3.56
		C241.83,338.95,240.61,338.52,239.04,338.52z M245.71,357.84c0-1.5-0.31-2.66-0.92-3.47c-0.61-0.81-1.4-1.37-2.37-1.68
		c-0.97-0.31-1.97-0.46-3.01-0.46h-9.71v11.27h9.84c1.81,0,3.29-0.46,4.44-1.38C245.14,361.2,245.71,359.78,245.71,357.84z
		 M280.21,364.65c0.09,0.25,0.14,0.49,0.14,0.74c0,0.55-0.18,0.99-0.55,1.31c-0.37,0.32-0.78,0.48-1.24,0.48
		c-0.37,0-0.71-0.11-1.01-0.32c-0.31-0.21-0.54-0.52-0.69-0.92l-3.1-7.45h-14.56l-3.08,7.5c-0.12,0.37-0.34,0.66-0.64,0.87
		c-0.31,0.21-0.63,0.32-0.97,0.32c-0.58,0-1.01-0.15-1.29-0.46c-0.28-0.31-0.41-0.67-0.41-1.1c-0.03-0.21,0-0.44,0.09-0.69
		l11.91-28.98c0.15-0.43,0.39-0.74,0.71-0.94c0.32-0.2,0.68-0.28,1.08-0.25c0.4,0,0.76,0.11,1.08,0.32
		c0.32,0.21,0.54,0.51,0.67,0.87L280.21,364.65z M272.26,354.9l-5.84-14.03l-5.76,14.03H272.26z M303.81,334.89h-21.39
		c-0.52,0-0.96,0.16-1.31,0.48c-0.35,0.32-0.53,0.74-0.53,1.26c0,0.52,0.18,0.94,0.53,1.27s0.79,0.48,1.31,0.48h8.74v26.82
		c0,0.52,0.18,0.97,0.55,1.33c0.37,0.37,0.83,0.55,1.38,0.55c0.58,0,1.06-0.18,1.43-0.55c0.37-0.37,0.55-0.81,0.55-1.33v-26.82h8.74
		c0.52,0,0.97-0.15,1.33-0.46c0.37-0.31,0.55-0.74,0.55-1.29c0-0.52-0.18-0.94-0.55-1.26C304.78,335.05,304.33,334.89,303.81,334.89
		z M332.88,361.71c-0.43-0.06-0.86,0.02-1.29,0.23c-1.04,0.64-2.15,1.13-3.31,1.47c-1.17,0.34-2.38,0.51-3.63,0.51
		c-1.75,0-3.37-0.29-4.85-0.87s-2.79-1.43-3.91-2.55c-1.12-1.12-2-2.48-2.64-4.07c-0.64-1.59-0.97-3.4-0.97-5.43
		c0-1.9,0.31-3.63,0.92-5.2c0.61-1.56,1.47-2.91,2.58-4.05c1.1-1.13,2.41-2.02,3.91-2.65c1.5-0.63,3.16-0.94,4.97-0.94
		c1.29,0,2.51,0.18,3.68,0.53c1.17,0.35,2.25,0.84,3.27,1.45c0.43,0.21,0.86,0.31,1.29,0.28c0.43-0.03,0.78-0.25,1.06-0.64
		c0.37-0.46,0.51-0.97,0.44-1.52c-0.08-0.55-0.38-0.97-0.9-1.24c-1.26-0.8-2.65-1.41-4.16-1.84c-1.52-0.43-3.08-0.64-4.67-0.64
		c-2.3,0-4.44,0.41-6.42,1.24c-1.98,0.83-3.71,1.98-5.2,3.45c-1.49,1.47-2.65,3.21-3.47,5.2c-0.83,1.99-1.24,4.19-1.24,6.58
		c0,2.55,0.44,4.84,1.31,6.88c0.87,2.04,2.06,3.78,3.57,5.22c1.5,1.44,3.23,2.55,5.2,3.31s4.05,1.15,6.26,1.15
		c1.07,0,2.14-0.11,3.2-0.32c1.06-0.21,2.08-0.51,3.06-0.9c0.98-0.38,1.85-0.81,2.62-1.27c0.49-0.25,0.78-0.64,0.87-1.17
		c0.09-0.54-0.05-1.05-0.41-1.54C333.68,361.98,333.31,361.77,332.88,361.71z M364.46,335.42c-0.35-0.35-0.8-0.53-1.36-0.53
		c-0.52,0-0.97,0.18-1.36,0.53c-0.38,0.35-0.58,0.8-0.58,1.36v12.14h-17.39v-12.14c0-0.55-0.18-1-0.55-1.36
		c-0.37-0.35-0.81-0.53-1.33-0.53c-0.55,0-1.01,0.18-1.38,0.53c-0.37,0.35-0.55,0.8-0.55,1.36v28.43c0,0.52,0.17,0.97,0.51,1.33
		c0.34,0.37,0.8,0.55,1.38,0.55c0.52,0,0.97-0.18,1.36-0.55c0.38-0.37,0.58-0.81,0.58-1.33v-12.7h17.39v12.7
		c0,0.52,0.18,0.97,0.55,1.33c0.37,0.37,0.81,0.55,1.33,0.55c0.55,0,1.01-0.18,1.38-0.55c0.37-0.37,0.55-0.81,0.55-1.33v-28.43
		C364.99,336.22,364.82,335.77,364.46,335.42z"/>
	<path d="M216,17.5C134.67,17.5,68.5,83.67,68.5,165S134.67,312.5,216,312.5S363.5,246.33,363.5,165S297.33,17.5,216,17.5z
		 M216,307.5c-78.57,0-142.5-63.93-142.5-142.5S137.43,22.5,216,22.5S358.5,86.43,358.5,165S294.57,307.5,216,307.5z M326.04,203.99
		c-0.12-11.1-1.71-17.34-5.16-20.24c-3.06-2.57-6.82-1.95-9.84-1.45c-1.37,0.23-2.67,0.44-3.84,0.4
		c-13.13-0.47-20.15-5.84-28.28-12.06c-5.32-4.07-10.86-8.19-18.55-11.65c-6.41-2.89-21.32-6.56-35.2-5.9l33.14-25.14
		c0.04-0.03,0.06-0.06,0.1-0.09c0.08-0.07,0.16-0.14,0.23-0.21c0.05-0.05,0.09-0.11,0.13-0.16c0.06-0.08,0.12-0.16,0.17-0.25
		c0.04-0.06,0.07-0.12,0.1-0.18c0.04-0.09,0.08-0.18,0.11-0.28c0.02-0.07,0.05-0.13,0.06-0.2c0.02-0.1,0.04-0.19,0.05-0.29
		c0.01-0.05,0.02-0.1,0.03-0.15c0-0.03,0-0.05,0-0.08c0-0.03,0.01-0.06,0.01-0.09c0-0.07-0.02-0.14-0.02-0.21
		c-0.01-0.07-0.01-0.15-0.02-0.22c-0.02-0.11-0.05-0.21-0.08-0.31c-0.02-0.06-0.03-0.12-0.06-0.18c-0.04-0.11-0.1-0.22-0.16-0.32
		c-0.03-0.04-0.04-0.09-0.07-0.13c-0.09-0.14-0.2-0.28-0.32-0.4l-21.2-21.2c-0.47-0.47-1.1-0.73-1.77-0.73h-28.55h-28.55
		c-0.66,0-1.3,0.26-1.77,0.73l-21.21,21.2c-0.51,0.51-0.78,1.22-0.73,1.94s0.41,1.38,0.98,1.82l25.39,19.26
		c-0.28,0.25-0.55,0.51-0.8,0.78c-1.68,1.79-2.44,4.86-2.04,8.2c0.63,5.16,3.72,9.88,8.49,12.97c4.14,2.68,11.55,4.45,18.71,6.16
		c4.68,1.12,11.6,2.77,13.33,4.08c-0.6,0.77-3.94,3.47-21.86,5.52c-12.75,1.46-34.5,0.39-49.71-4.45
		c-10.54-3.35-20.54-6.07-27.07-2.58c-2.52,1.35-4.38,3.56-5.56,6.55c-4.08,0.52-7.24,1.84-9.5,3.99c-2.01,1.92-3.98,5.44-2.88,9.04
		c1.04,3.4,4.39,5.73,9.96,6.93c1.18,2.36,3.48,4.67,6.91,6.88c11.24,7.27,34.9,20.05,67.13,23.91c0.01,0,0.02,0,0.03,0
		c4.05,0.76,8.48,1.27,13.36,1.46c10.75,0.41,22.7-0.25,35.35-0.95c24.09-1.33,48.99-2.7,63.73,3.92c4.52,2.03,8.41,3.04,11.75,3.04
		c2.67,0,4.98-0.65,6.96-1.95C324.87,235.86,326.23,223.06,326.04,203.99z M207.03,107.25h6.81l10.32,16.2H189.9l10.32-16.2H207.03z
		 M224.4,128.45l-17.37,30.22l-17.37-30.22H224.4z M230.17,128.45h19.19l-34.01,25.8L230.17,128.45z M250.75,123.45h-20.66
		l-10.32-16.2h14.78L250.75,123.45z M179.52,107.25h14.78l-10.32,16.2h-7.02c-1.38,0-2.5,1.12-2.5,2.5s1.12,2.5,2.5,2.5h6.94
		l14.83,25.8l-37.65-28.56L179.52,107.25z M111.5,199.05c-2.5-0.76-4.08-1.83-4.45-3.05c-0.43-1.41,0.69-3.14,1.55-3.96
		c1.39-1.32,3.82-2.5,8.08-2.8c0.05,0,0.09,0,0.14-0.01c4.78-0.3,11.81,0.5,22.18,3.46c1.24,0.35,3.59,1.02,6.61,1.83
		c-2.02,0.17-3.86,0.8-5.45,1.91c-8.42-3.76-19.14-6.89-25.3-2.27C113.1,195.48,111.94,197.2,111.5,199.05z M121.84,207.08
		c-4.73-3.07-5.5-5.25-5.54-6.29c-0.04-1.25,0.95-2.18,1.54-2.63c3.14-2.35,10.17-1.46,19.07,2.32c-0.24,0.79-0.3,1.53-0.26,2.13
		c0.27,4.35,4.78,8.5,14.17,15.6c2.58,1.95,5.42,4.09,8.67,6.21C142.16,219.1,129.22,211.86,121.84,207.08z M314.71,236.53
		c-2.91,1.91-7.47,1.43-13.92-1.47c-15.85-7.12-41.38-5.71-66.06-4.35c-12.53,0.69-24.36,1.34-34.88,0.95
		c-24.17-0.91-36.27-10.07-46-17.43c-4.2-3.18-12.02-9.09-12.2-11.92c-0.01-0.18-0.03-0.54,0.61-1.16c4.03-3.9,11.75-0.4,17.63,4.18
		c5.35,4.16,19.34,13.66,33.66,11.91c12.35-1.51,37.04-10.58,51.81-19.04c12.84-7.35,24.59-9.42,34.93-6.16
		c1.32,0.42,2.72-0.31,3.14-1.63c0.42-1.32-0.31-2.72-1.63-3.14c-11.73-3.7-24.82-1.49-38.92,6.59
		c-14.3,8.19-38.1,16.97-49.93,18.42c-12.83,1.57-26.19-7.94-29.99-10.89c-2-1.55-3.96-2.84-5.87-3.87
		c9.46,2.34,19.96,4.61,25.13,4.61c0.04,0,0.08,0,0.12,0c1.38-0.01,2.49-1.14,2.48-2.52c-0.01-1.37-1.13-2.48-2.5-2.48
		c-0.04,0-0.08,0-0.12,0c-6.93,0-26.84-4.97-41.84-9.24c-7.88-2.24-14.52-3.47-19.97-3.67c0.6-0.82,1.32-1.46,2.17-1.92
		c4.8-2.58,14.09,0.04,23.19,2.93c11.59,3.69,26.79,5.28,39.31,5.28c4.63,0,8.9-0.22,12.48-0.63c19.12-2.19,23.58-5.31,25.26-7.47
		c0.9-1.16,1.29-2.48,1.11-3.84c-0.52-3.96-6.27-5.51-17.25-8.13c-6.43-1.54-13.73-3.28-17.15-5.49c-4.99-3.23-6.03-7.63-6.24-9.37
		c-0.25-2.07,0.2-3.62,0.72-4.17c0.48-0.51,0.87-0.85,1.27-1.08l20.18,15.3c0.01,0,0.01,0.01,0.02,0.01l0.06,0.05
		c0.06,0.04,0.11,0.07,0.17,0.11c0.03,0.02,0.05,0.04,0.08,0.06c0.02,0.01,0.04,0.02,0.06,0.03c0.02,0.01,0.05,0.03,0.07,0.04
		c0.04,0.02,0.08,0.03,0.13,0.05c0.1,0.05,0.21,0.09,0.31,0.12c0.02,0.01,0.03,0.02,0.05,0.02c0.01,0,0.02,0,0.04,0.01
		c0.03,0.01,0.07,0.01,0.1,0.02c0.16,0.03,0.32,0.05,0.49,0.06c0,0,0.01,0,0.01,0c0,0,0,0,0,0s0,0,0,0c0,0,0.01,0,0.01,0
		c0.16,0,0.33-0.02,0.49-0.06c0.03-0.01,0.07-0.01,0.1-0.02c0.01,0,0.02,0,0.04-0.01c0.02,0,0.03-0.02,0.05-0.02
		c0.11-0.03,0.21-0.07,0.31-0.12c0.04-0.02,0.08-0.03,0.13-0.05c0.02-0.01,0.05-0.02,0.07-0.04c0.02-0.01,0.04-0.02,0.06-0.03
		c0.03-0.02,0.05-0.04,0.08-0.06c0.06-0.04,0.12-0.07,0.17-0.11l0.06-0.05c0.01,0,0.01-0.01,0.02-0.01l10.57-8.01
		c14.85-0.88,32.24,2.93,39.17,5.96c7.17,3.13,12.43,7.15,17.51,11.04c8.44,6.46,16.42,12.56,31.14,13.09
		c1.66,0.06,3.27-0.21,4.83-0.46c2.8-0.46,4.58-0.69,5.82,0.35c1.48,1.24,3.26,5.1,3.38,16.46
		C321.19,218.67,320.53,232.72,314.71,236.53z M204.53,83.35V71.34c0-1.38,1.12-2.5,2.5-2.5s2.5,1.12,2.5,2.5v12.01
		c0,1.38-1.12,2.5-2.5,2.5S204.53,84.73,204.53,83.35z M268.32,121.15c-0.24-1.36,0.67-2.66,2.03-2.9l15.76-2.78
		c1.36-0.24,2.66,0.67,2.9,2.03c0.24,1.36-0.67,2.66-2.03,2.9l-15.76,2.78c-0.15,0.03-0.29,0.04-0.44,0.04
		C269.59,123.21,268.54,122.36,268.32,121.15z M240.06,92.6c-1.06-0.89-1.2-2.46-0.31-3.52l8.56-10.2c0.89-1.06,2.47-1.19,3.52-0.31
		c1.06,0.89,1.2,2.46,0.31,3.52l-8.56,10.2c-0.49,0.59-1.2,0.89-1.92,0.89C241.09,93.19,240.52,92.99,240.06,92.6z M125.06,117.5
		c0.24-1.36,1.54-2.26,2.9-2.03l15.76,2.78c1.36,0.24,2.27,1.54,2.03,2.9c-0.21,1.21-1.27,2.07-2.46,2.07
		c-0.14,0-0.29-0.01-0.44-0.04l-15.76-2.78C125.73,120.16,124.82,118.86,125.06,117.5z M161.93,82.09
		c-0.89-1.06-0.75-2.63,0.31-3.52c1.06-0.89,2.63-0.75,3.52,0.31l8.56,10.2c0.89,1.06,0.75,2.63-0.31,3.52
		c-0.47,0.39-1.04,0.58-1.61,0.58c-0.71,0-1.42-0.3-1.92-0.89L161.93,82.09z"/>
</g>
<g id="Layer_44">
</g>
<g id="Layer_45">
</g>
<g id="Layer_46">
</g>
<g id="Layer_38">
</g>
<g id="Layer_39">
</g>
<g id="Layer_40">
</g>
<g id="Layer_41">
</g>
<g id="Layer_17">
</g>
<g id="Layer_18">
</g>
<g id="Layer_19">
</g>
<g id="Layer_20">
</g>
<g id="Layer_21">
</g>
<g id="Layer_22">
</g>
<g id="Layer_23">
</g>
<g id="Layer_24">
</g>
<g id="Layer_25">
</g>
<g id="Layer_26">
</g>
<g id="Layer_27">
</g>
<g id="Layer_28">
</g>
<g id="Layer_29">
</g>
<g id="Layer_30">
</g>
<g id="Layer_31">
</g>
<g id="Layer_2">
</g>
<g id="Layer_3">
</g>
<g id="Layer_4">
</g>
<g id="Layer_5">
</g>
<g id="Layer_6">
</g>
<g id="Layer_7">
</g>
<g id="Layer_8">
</g>
<g id="Layer_9">
</g>
<g id="Layer_10">
</g>
<g id="Layer_11">
</g>
<g id="Layer_12">
</g>
<g id="Layer_13">
</g>
<g id="Layer_14">
</g>
<g id="Layer_15">
</g>
<g id="Layer_16">
</g>
<g id="Layer_32">
</g>
<g id="Layer_33">
</g>
<g id="Layer_34">
</g>
<g id="Layer_35">
</g>
<g id="Layer_49">
</g>
<g id="Layer_50">
</g>
<g id="Layer_51">
</g>
</svg>
