<?xml version="1.0" encoding="utf-8"?>
<!-- Generator: Adobe Illustrator 23.0.1, SVG Export Plug-In . SVG Version: 6.00 Build 0)  -->
<svg version="1.1" xmlns="http://www.w3.org/2000/svg" xmlns:xlink="http://www.w3.org/1999/xlink" x="0px" y="0px"
	 viewBox="0 0 432 432" enable-background="new 0 0 432 432" xml:space="preserve">
<g id="Layer_37">
</g>
<g id="Layer_47">
</g>
<g id="Layer_42">
</g>
<g id="Layer_43">
</g>
<g id="Layer_44">
</g>
<g id="Layer_45">
</g>
<g id="Layer_46">
</g>
<g id="Layer_38">
</g>
<g id="Layer_39">
</g>
<g id="Layer_40">
</g>
<g id="Layer_41">
</g>
<g id="Layer_17">
</g>
<g id="Layer_18">
</g>
<g id="Layer_19">
</g>
<g id="Layer_20">
</g>
<g id="Layer_21">
</g>
<g id="Layer_22">
</g>
<g id="Layer_23">
	<path d="M216,17.5C134.67,17.5,68.5,83.67,68.5,165S134.67,312.5,216,312.5S363.5,246.33,363.5,165S297.33,17.5,216,17.5z
		 M216,307.5c-78.57,0-142.5-63.92-142.5-142.5c0-78.57,63.93-142.5,142.5-142.5c78.58,0,142.5,63.93,142.5,142.5
		C358.5,243.58,294.58,307.5,216,307.5z M188.19,273.43c-0.31,1.1-1.31,1.83-2.41,1.83c-0.22,0-0.45-0.03-0.68-0.09
		C135.95,261.4,101.62,216.1,101.62,165c0-61.1,48.15-111.16,108.49-114.23l-13.14-13.14c-0.98-0.98-0.98-2.56,0-3.54
		c0.98-0.98,2.56-0.98,3.54,0l17.25,17.25c0.12,0.12,0.22,0.25,0.31,0.38c0.04,0.06,0.07,0.12,0.1,0.18
		c0.05,0.08,0.09,0.16,0.13,0.25c0.03,0.08,0.05,0.16,0.08,0.25c0.02,0.07,0.05,0.14,0.06,0.22c0.06,0.32,0.06,0.66,0,0.98
		c-0.02,0.08-0.04,0.15-0.06,0.22c-0.02,0.08-0.04,0.17-0.08,0.25c-0.04,0.09-0.09,0.17-0.13,0.25c-0.03,0.06-0.06,0.12-0.1,0.18
		c-0.09,0.14-0.2,0.27-0.31,0.38l-17.25,17.25c-0.49,0.49-1.13,0.73-1.77,0.73s-1.28-0.24-1.77-0.73c-0.98-0.98-0.98-2.56,0-3.54
		l12.8-12.81c-57.43,3.23-103.16,50.97-103.16,109.2c0,48.87,32.83,92.19,79.84,105.34C187.78,270.72,188.56,272.1,188.19,273.43z
		 M330.38,165c0,61.1-48.15,111.16-108.5,114.23l13.14,13.14c0.98,0.98,0.98,2.56,0,3.54c-0.49,0.49-1.13,0.73-1.77,0.73
		s-1.28-0.24-1.77-0.73l-17.25-17.25c-0.12-0.12-0.22-0.25-0.31-0.38c-0.04-0.06-0.06-0.12-0.1-0.18c-0.05-0.08-0.1-0.16-0.13-0.25
		c-0.03-0.08-0.05-0.16-0.08-0.25c-0.02-0.07-0.05-0.14-0.07-0.22c-0.06-0.32-0.06-0.66,0-0.98c0.02-0.08,0.04-0.15,0.07-0.22
		c0.02-0.08,0.04-0.17,0.08-0.25c0.04-0.09,0.09-0.17,0.13-0.25c0.03-0.06,0.06-0.12,0.1-0.18c0.09-0.14,0.2-0.27,0.31-0.38
		l17.25-17.25c0.98-0.98,2.56-0.98,3.54,0s0.98,2.56,0,3.54l-12.81,12.81c57.43-3.23,103.17-50.97,103.17-109.2
		c0-48.87-32.83-92.19-79.84-105.34c-1.33-0.37-2.11-1.75-1.73-3.08c0.37-1.33,1.75-2.11,3.08-1.73
		C296.05,68.6,330.38,113.9,330.38,165z M289.94,168.51c9.34-6.92,1.33-28.28-10.96-44.87c-12.29-16.59-30.39-30.47-39.73-23.56
		l-20.2,14.97l0.42-3.48c0.17-1.37-0.81-2.62-2.18-2.78l-16.62-2.02c-1.37-0.16-2.62,0.81-2.78,2.18l-2.9,23.93l-42.03,31.14
		c-4.2,3.11-5.15,9.71-2.68,18.59c2.25,8.1,7.09,17.43,13.64,26.27c6.55,8.84,14.06,16.2,21.16,20.71c4.82,3.06,9.18,4.62,12.8,4.62
		c2.06,0,3.88-0.53,5.4-1.55c0.12-0.06,0.24-0.14,0.36-0.22L289.94,168.51z M195.91,145.99c0.1,0.01,0.2,0.02,0.3,0.02
		c1.25,0,2.33-0.93,2.48-2.2l3.85-31.77l11.66,1.41l-0.82,6.77c-0.01,0.06,0,0.12,0,0.18c0,0.09-0.01,0.19-0.01,0.28
		c0.01,0.08,0.02,0.16,0.03,0.23c0.01,0.08,0.02,0.16,0.04,0.25c0.02,0.08,0.05,0.16,0.08,0.24c0.03,0.07,0.05,0.15,0.09,0.22
		c0.04,0.08,0.09,0.16,0.14,0.24c0.03,0.05,0.05,0.1,0.09,0.15c0.01,0.01,0.01,0.01,0.02,0.02c0.11,0.14,0.23,0.28,0.37,0.4
		c0.04,0.03,0.08,0.06,0.12,0.09c0.1,0.08,0.21,0.15,0.33,0.21c0.06,0.03,0.12,0.06,0.18,0.08c0.1,0.04,0.21,0.08,0.32,0.11
		c0.07,0.02,0.14,0.03,0.21,0.05c0.05,0.01,0.1,0.03,0.15,0.03c0.06,0.01,0.12,0,0.17,0c0.04,0,0.09,0.01,0.13,0.01
		c0.04,0,0.08-0.01,0.13-0.01c0.05,0,0.1-0.01,0.15-0.01c0.11-0.01,0.22-0.03,0.33-0.06c0.04-0.01,0.08-0.02,0.11-0.03
		c0.27-0.08,0.53-0.21,0.77-0.38l24.87-18.43c4.89-3.63,19.93,5.24,32.73,22.51c12.8,17.28,16.89,34.25,12,37.87l-79.32,58.76
		c0.09-2.73-0.35-5.88-1.32-9.4c-2.25-8.1-7.09-17.43-13.64-26.27c-6.55-8.84-14.06-16.2-21.16-20.71c-3.08-1.96-5.97-3.29-8.61-4
		l31.25-23.15l-0.42,3.48C193.56,144.58,194.54,145.82,195.91,145.99z M187.75,225.38c-6.59-4.19-13.63-11.1-19.83-19.46
		c-6.19-8.36-10.76-17.11-12.84-24.64c-1.82-6.55-1.5-11.5,0.84-13.24c0.72-0.54,1.68-0.8,2.83-0.8c2.58,0,6.11,1.32,10.08,3.85
		c6.59,4.19,13.63,11.1,19.83,19.46c6.19,8.36,10.76,17.11,12.84,24.64c1.82,6.55,1.5,11.5-0.84,13.24
		C198.31,230.17,193.48,229.03,187.75,225.38z"/>
	<path id="biodegradable_product" d="M53.42,351.08c-0.87-0.61-1.81-1.06-2.82-1.37c0.28-0.12,0.54-0.24,0.8-0.38
		c1.18-0.67,2.08-1.58,2.69-2.71c0.61-1.13,0.92-2.38,0.92-3.73c0-2.55-0.73-4.52-2.18-5.91c-1.46-1.4-3.53-2.09-6.23-2.09H34.58
		c-0.52,0-0.96,0.18-1.31,0.53c-0.35,0.35-0.53,0.79-0.53,1.31v28.47c0,0.52,0.18,0.97,0.53,1.33c0.35,0.37,0.79,0.55,1.31,0.55
		h12.1c1.2,0,2.38-0.15,3.57-0.46c1.18-0.31,2.25-0.82,3.22-1.54c0.97-0.72,1.74-1.67,2.32-2.85c0.58-1.18,0.87-2.65,0.87-4.39
		c0-1.63-0.3-2.99-0.9-4.09S54.38,351.76,53.42,351.08z M49.71,339.79c0.89,0.84,1.33,2.03,1.33,3.56c0,1.72-0.48,3.01-1.45,3.89
		c-0.97,0.87-2.12,1.31-3.47,1.31h-9.43v-10.03h9.34C47.59,338.52,48.82,338.95,49.71,339.79z M50.98,362.12
		c-1.15,0.92-2.63,1.38-4.44,1.38h-9.84v-11.27h9.71c1.04,0,2.05,0.15,3.01,0.46c0.96,0.31,1.75,0.87,2.37,1.68
		c0.61,0.81,0.92,1.97,0.92,3.47C52.7,359.78,52.13,361.2,50.98,362.12z M66.04,335.42c0.37,0.35,0.55,0.8,0.55,1.36v28.43
		c0,0.52-0.19,0.97-0.58,1.33c-0.38,0.37-0.84,0.55-1.36,0.55c-0.58,0-1.04-0.18-1.38-0.55c-0.34-0.37-0.51-0.81-0.51-1.33v-28.43
		c0-0.55,0.18-1,0.55-1.36c0.37-0.35,0.83-0.53,1.38-0.53C65.23,334.89,65.67,335.07,66.04,335.42z M99.34,339.15
		c-1.38-1.49-3.02-2.65-4.92-3.47s-3.97-1.24-6.21-1.24c-2.27,0-4.35,0.41-6.23,1.24c-1.88,0.83-3.52,1.99-4.9,3.47
		c-1.38,1.49-2.45,3.24-3.22,5.24c-0.77,2.01-1.15,4.21-1.15,6.6c0,2.36,0.38,4.55,1.15,6.56c0.77,2.01,1.84,3.76,3.22,5.27
		c1.38,1.5,3.01,2.67,4.9,3.5c1.89,0.83,3.96,1.24,6.23,1.24c2.24,0,4.31-0.41,6.21-1.24c1.9-0.83,3.54-1.99,4.92-3.5
		c1.38-1.5,2.45-3.26,3.22-5.27c0.77-2.01,1.15-4.19,1.15-6.56c0-2.39-0.38-4.59-1.15-6.6C101.8,342.38,100.73,340.63,99.34,339.15z
		 M98.26,357.64c-1,1.95-2.35,3.47-4.07,4.58c-1.72,1.1-3.71,1.66-5.98,1.66s-4.27-0.55-6-1.66s-3.09-2.63-4.07-4.58
		c-0.98-1.95-1.47-4.16-1.47-6.65c0-2.51,0.49-4.74,1.47-6.67c0.98-1.93,2.34-3.45,4.07-4.55s3.73-1.66,6-1.66s4.26,0.55,5.98,1.66
		c1.72,1.1,3.07,2.62,4.07,4.55c1,1.93,1.49,4.16,1.49,6.67C99.76,353.47,99.26,355.69,98.26,357.64z M133.34,339.67
		c-1.13-1.5-2.55-2.68-4.26-3.52c-1.7-0.84-3.67-1.27-5.91-1.27h-11.5c-0.52,0-0.96,0.18-1.31,0.53c-0.35,0.35-0.53,0.79-0.53,1.31
		v28.47c0,0.52,0.18,0.97,0.53,1.33c0.35,0.37,0.79,0.55,1.31,0.55h11.5c3.04,0,5.55-0.73,7.54-2.19c1.99-1.46,3.5-3.4,4.51-5.84
		c1.01-2.44,1.52-5.13,1.52-8.07c0-2.15-0.28-4.19-0.85-6.14C135.32,342.9,134.47,341.18,133.34,339.67z M131.75,357.25
		c-0.69,1.9-1.78,3.42-3.27,4.55c-1.49,1.13-3.41,1.7-5.77,1.7h-9.06v-25.07h9.06c1.78,0,3.3,0.34,4.58,1.01
		c1.27,0.67,2.31,1.59,3.13,2.76c0.81,1.17,1.41,2.51,1.79,4.03c0.38,1.52,0.57,3.1,0.57,4.76
		C132.79,353.26,132.44,355.35,131.75,357.25z M143.39,366.54c-0.35-0.37-0.53-0.81-0.53-1.33v-28.47c0-0.52,0.18-0.96,0.53-1.31
		c0.35-0.35,0.79-0.53,1.31-0.53h16.38c0.52,0,0.97,0.17,1.33,0.51c0.37,0.34,0.55,0.77,0.55,1.29s-0.18,0.94-0.55,1.26
		c-0.37,0.32-0.81,0.48-1.33,0.48h-14.4v10.35h12.33c0.52,0,0.97,0.17,1.33,0.51s0.55,0.77,0.55,1.29c0,0.52-0.18,0.94-0.55,1.27
		c-0.37,0.32-0.81,0.48-1.33,0.48h-12.33v11.18h14.4c0.52,0,0.97,0.18,1.33,0.55c0.37,0.37,0.55,0.78,0.55,1.24
		c0,0.52-0.18,0.95-0.55,1.29c-0.37,0.34-0.81,0.51-1.33,0.51H144.7C144.18,367.09,143.74,366.91,143.39,366.54z M168.37,357.5
		c-0.84-2.01-1.26-4.18-1.26-6.51c0-2.36,0.42-4.55,1.26-6.55c0.84-2.01,2.02-3.76,3.54-5.27c1.52-1.5,3.28-2.67,5.29-3.5
		c2.01-0.83,4.19-1.24,6.56-1.24c1.56,0,3.07,0.18,4.53,0.53s2.78,0.9,3.98,1.63c0.31,0.15,0.53,0.37,0.67,0.64
		c0.14,0.28,0.21,0.57,0.21,0.87c0,0.52-0.18,0.97-0.53,1.33s-0.76,0.55-1.22,0.55c-0.18,0-0.36-0.03-0.53-0.09
		c-0.17-0.06-0.34-0.12-0.53-0.18c-0.95-0.49-1.98-0.88-3.08-1.17c-1.1-0.29-2.27-0.44-3.5-0.44c-2.42,0-4.59,0.57-6.51,1.7
		c-1.92,1.13-3.43,2.67-4.53,4.6c-1.1,1.93-1.66,4.13-1.66,6.58c0,2.42,0.55,4.61,1.66,6.56c1.1,1.95,2.61,3.49,4.53,4.62
		c1.92,1.13,4.09,1.7,6.51,1.7c1.23,0,2.49-0.17,3.79-0.51c1.16-0.3,2.16-0.68,3.01-1.12v-8.12h-6.3c-0.52,0-0.96-0.18-1.31-0.53
		c-0.35-0.35-0.53-0.79-0.53-1.31c0-0.52,0.18-0.96,0.53-1.31c0.35-0.35,0.79-0.53,1.31-0.53h8.37c0.55,0,1,0.18,1.33,0.55
		c0.34,0.37,0.51,0.81,0.51,1.33v10.63c0,0.37-0.08,0.69-0.25,0.97c-0.17,0.28-0.39,0.51-0.67,0.69c-1.38,0.89-2.91,1.6-4.58,2.14
		c-1.67,0.54-3.41,0.81-5.22,0.81c-2.36,0-4.55-0.42-6.56-1.27c-2.01-0.84-3.77-2.02-5.29-3.52
		C170.39,361.26,169.21,359.51,168.37,357.5z M204.87,365.2v-11.18h9.71c0.67,0,1.33,0.08,1.98,0.23c0.64,0.15,1.23,0.43,1.75,0.83
		c0.52,0.4,0.93,0.92,1.24,1.56c0.31,0.64,0.46,1.46,0.46,2.44c0,1.75,0.15,3.13,0.46,4.14c0.31,1.01,0.69,1.79,1.15,2.32
		c0.46,0.54,0.93,0.94,1.43,1.22c0.24,0.15,0.54,0.25,0.87,0.28c0.34,0.03,0.67-0.01,1.01-0.12c0.34-0.11,0.6-0.3,0.78-0.57
		c0.31-0.43,0.39-0.87,0.25-1.33c-0.14-0.46-0.42-0.83-0.85-1.1c-0.34-0.21-0.6-0.51-0.78-0.9c-0.18-0.38-0.32-0.91-0.41-1.59
		c-0.09-0.67-0.17-1.58-0.23-2.71c-0.03-1.29-0.31-2.42-0.83-3.38c-0.52-0.97-1.2-1.76-2.02-2.39c-0.41-0.31-0.85-0.57-1.31-0.79
		c0.91-0.41,1.73-0.96,2.46-1.65c0.86-0.81,1.53-1.78,2.02-2.9c0.49-1.12,0.74-2.32,0.74-3.61c0-1.78-0.41-3.35-1.22-4.72
		c-0.81-1.36-1.91-2.44-3.29-3.22c-1.38-0.78-2.93-1.17-4.65-1.17h-12.7c-0.52,0-0.96,0.18-1.31,0.53
		c-0.35,0.35-0.53,0.79-0.53,1.31v28.47c0,0.52,0.21,0.97,0.62,1.33c0.41,0.37,0.91,0.55,1.49,0.55c0.52,0,0.94-0.18,1.24-0.55
		C204.71,366.17,204.87,365.73,204.87,365.2z M219.24,340.04c1.03,1.07,1.54,2.42,1.54,4.05c0,1.26-0.25,2.38-0.76,3.38
		c-0.51,1-1.15,1.77-1.93,2.32c-0.78,0.55-1.62,0.86-2.51,0.92h-10.72v-12.28h10.49C216.92,338.43,218.21,338.97,219.24,340.04z
		 M250.11,358.49l3.1,7.45c0.15,0.4,0.38,0.71,0.69,0.92c0.31,0.21,0.64,0.32,1.01,0.32c0.46,0,0.87-0.16,1.24-0.48
		c0.37-0.32,0.55-0.76,0.55-1.31c0-0.25-0.05-0.49-0.14-0.74l-11.87-28.7c-0.12-0.37-0.34-0.66-0.67-0.87
		c-0.32-0.21-0.68-0.32-1.08-0.32c-0.4-0.03-0.76,0.05-1.08,0.25c-0.32,0.2-0.56,0.51-0.71,0.94l-11.91,28.98
		c-0.09,0.25-0.12,0.48-0.09,0.69c0,0.43,0.14,0.8,0.41,1.1c0.28,0.31,0.71,0.46,1.29,0.46c0.34,0,0.66-0.11,0.97-0.32
		c0.31-0.21,0.52-0.51,0.64-0.87l3.08-7.5H250.11z M242.78,340.88l5.84,14.02h-11.6L242.78,340.88z M282.65,364.91
		c1.99-1.46,3.5-3.4,4.51-5.84s1.52-5.13,1.52-8.07c0-2.15-0.28-4.19-0.85-6.14c-0.57-1.95-1.42-3.67-2.55-5.17
		c-1.14-1.5-2.55-2.68-4.25-3.52c-1.7-0.84-3.67-1.27-5.91-1.27h-11.5c-0.52,0-0.96,0.18-1.31,0.53c-0.35,0.35-0.53,0.79-0.53,1.31
		v28.47c0,0.52,0.18,0.97,0.53,1.33c0.35,0.37,0.79,0.55,1.31,0.55h11.5C278.15,367.09,280.66,366.36,282.65,364.91z M265.59,363.5
		v-25.07h9.06c1.78,0,3.3,0.34,4.58,1.01c1.27,0.67,2.32,1.59,3.13,2.76c0.81,1.17,1.41,2.51,1.79,4.03
		c0.38,1.52,0.58,3.1,0.58,4.76c0,2.27-0.35,4.35-1.04,6.26c-0.69,1.9-1.78,3.42-3.27,4.55c-1.49,1.13-3.41,1.7-5.77,1.7H265.59z
		 M312.53,358.49l3.1,7.45c0.15,0.4,0.38,0.71,0.69,0.92c0.31,0.21,0.64,0.32,1.01,0.32c0.46,0,0.87-0.16,1.24-0.48
		c0.37-0.32,0.55-0.76,0.55-1.31c0-0.25-0.05-0.49-0.14-0.74l-11.87-28.7c-0.12-0.37-0.34-0.66-0.67-0.87
		c-0.32-0.21-0.68-0.32-1.08-0.32c-0.4-0.03-0.76,0.05-1.08,0.25c-0.32,0.2-0.56,0.51-0.71,0.94l-11.91,28.98
		c-0.09,0.25-0.12,0.48-0.09,0.69c0,0.43,0.14,0.8,0.41,1.1c0.28,0.31,0.71,0.46,1.29,0.46c0.34,0,0.66-0.11,0.97-0.32
		c0.31-0.21,0.52-0.51,0.64-0.87l3.08-7.5H312.53z M305.21,340.88l5.84,14.02h-11.6L305.21,340.88z M344.87,351.08
		c-0.87-0.61-1.81-1.06-2.82-1.37c0.27-0.12,0.54-0.24,0.8-0.38c1.18-0.67,2.08-1.58,2.69-2.71c0.61-1.13,0.92-2.38,0.92-3.73
		c0-2.55-0.73-4.52-2.18-5.91c-1.46-1.4-3.54-2.09-6.23-2.09h-12.01c-0.52,0-0.96,0.18-1.31,0.53c-0.35,0.35-0.53,0.79-0.53,1.31
		v28.47c0,0.52,0.18,0.97,0.53,1.33c0.35,0.37,0.79,0.55,1.31,0.55h12.1c1.2,0,2.38-0.15,3.57-0.46c1.18-0.31,2.25-0.82,3.22-1.54
		c0.97-0.72,1.74-1.67,2.32-2.85c0.58-1.18,0.87-2.65,0.87-4.39c0-1.63-0.3-2.99-0.9-4.09S345.83,351.76,344.87,351.08z
		 M341.17,339.79c0.89,0.84,1.33,2.03,1.33,3.56c0,1.72-0.48,3.01-1.45,3.89c-0.97,0.87-2.12,1.31-3.47,1.31h-9.43v-10.03h9.34
		C339.05,338.52,340.28,338.95,341.17,339.79z M342.43,362.12c-1.15,0.92-2.63,1.38-4.44,1.38h-9.84v-11.27h9.71
		c1.04,0,2.05,0.15,3.01,0.46c0.97,0.31,1.75,0.87,2.37,1.68c0.61,0.81,0.92,1.97,0.92,3.47
		C344.16,359.78,343.58,361.2,342.43,362.12z M373.32,363.99c0.37,0.35,0.55,0.79,0.55,1.31c0,0.52-0.18,0.95-0.55,1.29
		c-0.37,0.34-0.81,0.51-1.33,0.51h-15.92c-0.52,0-0.96-0.18-1.31-0.55c-0.35-0.37-0.53-0.81-0.53-1.33v-28.47
		c0-0.52,0.18-0.96,0.55-1.31c0.37-0.35,0.83-0.53,1.38-0.53c0.52,0,0.97,0.18,1.33,0.53c0.37,0.35,0.55,0.79,0.55,1.31v26.73h13.94
		C372.51,363.46,372.95,363.63,373.32,363.99z M398.71,364.05c0.37,0.37,0.55,0.78,0.55,1.24c0,0.52-0.18,0.95-0.55,1.29
		c-0.37,0.34-0.81,0.51-1.33,0.51H381c-0.52,0-0.96-0.18-1.31-0.55c-0.35-0.37-0.53-0.81-0.53-1.33v-28.47
		c0-0.52,0.18-0.96,0.53-1.31c0.35-0.35,0.79-0.53,1.31-0.53h16.38c0.52,0,0.97,0.17,1.33,0.51c0.37,0.34,0.55,0.77,0.55,1.29
		s-0.18,0.94-0.55,1.26c-0.37,0.32-0.81,0.48-1.33,0.48h-14.4v10.35h12.33c0.52,0,0.97,0.17,1.33,0.51s0.55,0.77,0.55,1.29
		c0,0.52-0.18,0.94-0.55,1.27c-0.37,0.32-0.81,0.48-1.33,0.48h-12.33v11.18h14.4C397.9,363.5,398.34,363.69,398.71,364.05z
		 M127.82,391.33c-1.35-0.83-2.87-1.24-4.55-1.24H112.5c-0.52,0-0.96,0.18-1.31,0.53c-0.35,0.35-0.53,0.79-0.53,1.31v28.47
		c0,0.52,0.16,0.97,0.48,1.33c0.32,0.37,0.76,0.55,1.31,0.55c0.52,0,0.95-0.18,1.29-0.55c0.34-0.37,0.51-0.81,0.51-1.33v-11.04h9.02
		c1.69,0,3.2-0.43,4.55-1.29c1.35-0.86,2.41-2.02,3.2-3.5s1.17-3.11,1.17-4.92c0-1.84-0.39-3.48-1.17-4.92
		C130.23,393.3,129.17,392.16,127.82,391.33z M127.77,402.74c-0.46,0.95-1.07,1.7-1.84,2.25c-0.77,0.55-1.66,0.83-2.67,0.83h-9.02
		v-12.19h9.02c1.01,0,1.9,0.27,2.67,0.81c0.77,0.54,1.38,1.25,1.84,2.14c0.46,0.89,0.69,1.92,0.69,3.08
		C128.46,400.76,128.23,401.79,127.77,402.74z M162.27,419.12c-0.34-0.21-0.6-0.51-0.78-0.9c-0.18-0.38-0.32-0.91-0.41-1.59
		c-0.09-0.67-0.17-1.58-0.23-2.71c-0.03-1.29-0.31-2.42-0.83-3.38c-0.52-0.97-1.2-1.76-2.02-2.39c-0.41-0.31-0.85-0.57-1.31-0.79
		c0.91-0.41,1.73-0.96,2.46-1.65c0.86-0.81,1.53-1.78,2.02-2.9c0.49-1.12,0.74-2.32,0.74-3.61c0-1.78-0.41-3.35-1.22-4.72
		c-0.81-1.36-1.91-2.44-3.29-3.22c-1.38-0.78-2.93-1.17-4.65-1.17h-12.7c-0.52,0-0.96,0.18-1.31,0.53
		c-0.35,0.35-0.53,0.79-0.53,1.31v28.47c0,0.52,0.21,0.97,0.62,1.33c0.41,0.37,0.91,0.55,1.5,0.55c0.52,0,0.94-0.18,1.24-0.55
		c0.31-0.37,0.46-0.81,0.46-1.33v-11.18h9.71c0.67,0,1.33,0.08,1.98,0.23c0.64,0.15,1.23,0.43,1.75,0.83
		c0.52,0.4,0.93,0.92,1.24,1.56c0.31,0.64,0.46,1.46,0.46,2.44c0,1.75,0.15,3.13,0.46,4.14c0.31,1.01,0.69,1.79,1.15,2.32
		c0.46,0.54,0.94,0.94,1.43,1.22c0.25,0.15,0.54,0.25,0.87,0.28c0.34,0.03,0.67-0.01,1.01-0.12c0.34-0.11,0.6-0.3,0.78-0.57
		c0.31-0.43,0.39-0.87,0.25-1.33S162.7,419.39,162.27,419.12z M152.75,405.91h-10.72v-12.28h10.49c1.56,0,2.86,0.54,3.89,1.61
		c1.03,1.07,1.54,2.42,1.54,4.05c0,1.26-0.25,2.38-0.76,3.38c-0.51,1-1.15,1.77-1.93,2.32
		C154.48,405.55,153.64,405.85,152.75,405.91z M193.51,394.35c-1.38-1.49-3.02-2.65-4.92-3.47c-1.9-0.83-3.97-1.24-6.21-1.24
		c-2.27,0-4.35,0.41-6.23,1.24c-1.89,0.83-3.52,1.99-4.9,3.47c-1.38,1.49-2.45,3.24-3.22,5.24c-0.77,2.01-1.15,4.21-1.15,6.6
		c0,2.36,0.38,4.55,1.15,6.56c0.77,2.01,1.84,3.76,3.22,5.27c1.38,1.5,3.01,2.67,4.9,3.5c1.89,0.83,3.96,1.24,6.23,1.24
		c2.24,0,4.31-0.41,6.21-1.24c1.9-0.83,3.54-1.99,4.92-3.5c1.38-1.5,2.45-3.26,3.22-5.27c0.77-2.01,1.15-4.19,1.15-6.56
		c0-2.39-0.38-4.59-1.15-6.6C195.96,397.58,194.89,395.83,193.51,394.35z M192.43,412.84c-1,1.95-2.35,3.47-4.07,4.58
		c-1.72,1.1-3.71,1.66-5.98,1.66s-4.27-0.55-6-1.66c-1.73-1.1-3.09-2.63-4.07-4.58c-0.98-1.95-1.47-4.16-1.47-6.65
		c0-2.51,0.49-4.74,1.47-6.67s2.34-3.45,4.07-4.55c1.73-1.1,3.73-1.66,6-1.66s4.26,0.55,5.98,1.66c1.72,1.1,3.07,2.62,4.07,4.55
		c1,1.93,1.5,4.16,1.5,6.67C193.92,408.67,193.42,410.89,192.43,412.84z M227.5,394.87c-1.14-1.5-2.55-2.68-4.26-3.52
		c-1.7-0.84-3.67-1.27-5.91-1.27h-11.5c-0.52,0-0.96,0.18-1.31,0.53c-0.35,0.35-0.53,0.79-0.53,1.31v28.47
		c0,0.52,0.18,0.97,0.53,1.33c0.35,0.37,0.79,0.55,1.31,0.55h11.5c3.04,0,5.55-0.73,7.54-2.19c1.99-1.46,3.5-3.4,4.51-5.84
		c1.01-2.44,1.52-5.13,1.52-8.07c0-2.15-0.28-4.19-0.85-6.14C229.49,398.1,228.63,396.38,227.5,394.87z M225.91,412.45
		c-0.69,1.9-1.78,3.42-3.27,4.55c-1.49,1.13-3.41,1.7-5.77,1.7h-9.06v-25.07h9.06c1.78,0,3.3,0.34,4.58,1.01
		c1.27,0.67,2.32,1.59,3.13,2.76c0.81,1.17,1.41,2.51,1.79,4.03s0.58,3.1,0.58,4.76C226.95,408.46,226.6,410.55,225.91,412.45z
		 M261.13,390.6c0.34,0.37,0.51,0.81,0.51,1.33v18.26c0,2.36-0.54,4.48-1.63,6.35c-1.09,1.87-2.55,3.35-4.39,4.44
		c-1.84,1.09-3.93,1.63-6.26,1.63c-2.36,0-4.47-0.54-6.33-1.63c-1.86-1.09-3.32-2.57-4.39-4.44c-1.07-1.87-1.61-3.99-1.61-6.35
		v-18.26c0-0.52,0.18-0.97,0.53-1.33c0.35-0.37,0.82-0.55,1.4-0.55c0.49,0,0.93,0.18,1.31,0.55c0.38,0.37,0.58,0.81,0.58,1.33v18.26
		c0,1.69,0.38,3.19,1.15,4.51c0.77,1.32,1.8,2.35,3.11,3.1c1.3,0.75,2.72,1.13,4.25,1.13c1.56,0,3-0.38,4.32-1.13
		c1.32-0.75,2.38-1.79,3.2-3.1c0.81-1.32,1.22-2.82,1.22-4.51v-18.26c0-0.52,0.15-0.97,0.46-1.33c0.31-0.37,0.74-0.55,1.29-0.55
		C260.36,390.04,260.79,390.23,261.13,390.6z M293.37,417.55c0.37,0.49,0.51,1,0.41,1.54c-0.09,0.54-0.38,0.93-0.87,1.17
		c-0.77,0.46-1.64,0.88-2.62,1.27c-0.98,0.38-2,0.68-3.06,0.9c-1.06,0.21-2.12,0.32-3.2,0.32c-2.21,0-4.29-0.38-6.26-1.15
		c-1.96-0.77-3.7-1.87-5.2-3.31c-1.5-1.44-2.69-3.18-3.56-5.22c-0.88-2.04-1.31-4.33-1.31-6.88c0-2.39,0.41-4.58,1.24-6.58
		c0.83-1.99,1.99-3.73,3.47-5.2c1.49-1.47,3.22-2.62,5.2-3.45c1.98-0.83,4.12-1.24,6.42-1.24c1.59,0,3.15,0.21,4.67,0.64
		c1.52,0.43,2.91,1.04,4.16,1.84c0.52,0.28,0.82,0.69,0.9,1.24c0.08,0.55-0.07,1.06-0.44,1.52c-0.28,0.4-0.63,0.61-1.06,0.64
		c-0.43,0.03-0.86-0.06-1.29-0.28c-1.01-0.61-2.1-1.1-3.27-1.45c-1.17-0.35-2.39-0.53-3.68-0.53c-1.81,0-3.47,0.31-4.97,0.94
		c-1.5,0.63-2.81,1.51-3.91,2.65c-1.1,1.14-1.96,2.48-2.58,4.05s-0.92,3.3-0.92,5.2c0,2.02,0.32,3.83,0.97,5.43
		c0.64,1.59,1.52,2.95,2.64,4.07c1.12,1.12,2.42,1.97,3.91,2.55c1.49,0.58,3.1,0.87,4.85,0.87c1.26,0,2.47-0.17,3.63-0.51
		c1.17-0.34,2.27-0.83,3.31-1.47c0.43-0.21,0.86-0.29,1.29-0.23C292.7,416.97,293.06,417.18,293.37,417.55z M321.38,390.57
		c0.37,0.32,0.55,0.74,0.55,1.26c0,0.55-0.18,0.98-0.55,1.29c-0.37,0.31-0.81,0.46-1.33,0.46h-8.74v26.82
		c0,0.52-0.18,0.97-0.55,1.33c-0.37,0.37-0.84,0.55-1.43,0.55c-0.55,0-1.01-0.18-1.38-0.55c-0.37-0.37-0.55-0.81-0.55-1.33v-26.82
		h-8.74c-0.52,0-0.96-0.16-1.31-0.48s-0.53-0.74-0.53-1.27c0-0.52,0.18-0.94,0.53-1.26c0.35-0.32,0.79-0.48,1.31-0.48h21.39
		C320.57,390.09,321.02,390.25,321.38,390.57z"/>
</g>
<g id="Layer_24">
</g>
<g id="Layer_25">
</g>
<g id="Layer_26">
</g>
<g id="Layer_27">
</g>
<g id="Layer_28">
</g>
<g id="Layer_29">
</g>
<g id="Layer_30">
</g>
<g id="Layer_31">
</g>
<g id="Layer_2">
</g>
<g id="Layer_3">
</g>
<g id="Layer_4">
</g>
<g id="Layer_5">
</g>
<g id="Layer_6">
</g>
<g id="Layer_7">
</g>
<g id="Layer_8">
</g>
<g id="Layer_9">
</g>
<g id="Layer_10">
</g>
<g id="Layer_11">
</g>
<g id="Layer_12">
</g>
<g id="Layer_13">
</g>
<g id="Layer_14">
</g>
<g id="Layer_15">
</g>
<g id="Layer_16">
</g>
<g id="Layer_32">
</g>
<g id="Layer_33">
</g>
<g id="Layer_34">
</g>
<g id="Layer_35">
</g>
<g id="Layer_49">
</g>
<g id="Layer_50">
</g>
<g id="Layer_51">
</g>
</svg>
