<?xml version="1.0" encoding="utf-8"?>
<!-- Generator: Adobe Illustrator 23.0.1, SVG Export Plug-In . SVG Version: 6.00 Build 0)  -->
<svg version="1.1" xmlns="http://www.w3.org/2000/svg" xmlns:xlink="http://www.w3.org/1999/xlink" x="0px" y="0px"
	 viewBox="0 0 432 432" enable-background="new 0 0 432 432" xml:space="preserve">
<g id="Layer_37">
</g>
<g id="Layer_47">
</g>
<g id="Layer_42">
</g>
<g id="Layer_43">
</g>
<g id="Layer_44">
</g>
<g id="Layer_45">
</g>
<g id="Layer_46">
</g>
<g id="Layer_38">
</g>
<g id="Layer_39">
</g>
<g id="Layer_40">
</g>
<g id="Layer_41">
</g>
<g id="Layer_17">
</g>
<g id="Layer_18">
</g>
<g id="Layer_19">
</g>
<g id="Layer_20">
</g>
<g id="Layer_21">
</g>
<g id="Layer_22">
</g>
<g id="Layer_23">
</g>
<g id="Layer_24">
</g>
<g id="Layer_25">
</g>
<g id="Layer_26">
</g>
<g id="Layer_27">
</g>
<g id="Layer_28">
</g>
<g id="Layer_29">
</g>
<g id="Layer_30">
</g>
<g id="Layer_31">
</g>
<g id="Layer_2">
</g>
<g id="Layer_3">
</g>
<g id="Layer_4">
</g>
<g id="Layer_5">
</g>
<g id="Layer_6">
</g>
<g id="Layer_7">
</g>
<g id="Layer_8">
</g>
<g id="Layer_9">
</g>
<g id="Layer_10">
	<path d="M188.87,199.13c-35.45,0-88.2,5.17-88.2,19.43v70.33c0,14.25,52.74,19.43,88.2,19.43s88.2-5.17,88.2-19.43v-70.33
		C277.07,204.3,224.32,199.13,188.87,199.13z M188.87,204.13c54.62,0,83.2,9.39,83.2,14.43s-28.57,14.43-83.2,14.43
		s-83.2-9.39-83.2-14.43S134.25,204.13,188.87,204.13z M188.87,303.32c-54.62,0-83.2-9.39-83.2-14.43v-63.32
		c13.97,8.98,54.32,12.41,83.2,12.41s69.22-3.43,83.2-12.41v63.32C272.07,293.92,243.5,303.32,188.87,303.32z M100.88,184.33
		c1.76,5.73,12.33,7.9,26.57,7.9c18.85,0,44.07-3.77,63.59-7.98c34.65-7.48,85.11-23.68,82.11-37.61c0,0,0,0,0,0l-3.79-17.53
		c0,0,0,0,0,0c-0.7-3.24-4.63-6.73-28.95-4.92c-16.41,1.22-37.83,4.57-60.31,9.42c-22.48,4.86-43.37,10.65-58.82,16.31
		c-22.9,8.39-25.03,13.19-24.33,16.43l3.79,17.53C100.77,184.04,100.82,184.19,100.88,184.33z M189.99,179.36
		c-53.39,11.53-83.3,8.38-84.37,3.46c0,0,0,0,0,0l-2.59-12.01c2.53,0.59,6.09,0.95,11.12,0.95c3.26,0,7.14-0.15,11.75-0.5
		c16.41-1.22,37.83-4.57,60.31-9.42c22.48-4.86,43.37-10.65,58.82-16.31c11.04-4.04,17.24-7.25,20.64-9.86l2.59,12.01c0,0,0,0,0,0
		C269.32,152.61,243.37,167.83,189.99,179.36z M125.14,153.84c15-5.33,34.9-10.78,56.02-15.35c21.12-4.56,41.49-7.81,57.36-9.14
		c19.35-1.63,24.55,0.2,25.75,0.86c-0.82,1.09-4.8,4.9-23.1,11.41c-15,5.33-34.9,10.78-56.02,15.35
		c-21.12,4.56-41.49,7.81-57.36,9.14c-19.35,1.63-24.55-0.2-25.75-0.86C102.86,164.15,106.84,160.34,125.14,153.84z M176.59,268.81
		c0.92,1.59,1.38,3.4,1.38,5.43c0,1.59-0.32,3.08-0.97,4.46c-0.64,1.38-1.53,2.58-2.67,3.61c-1.13,1.03-2.45,1.83-3.93,2.39
		c-1.49,0.57-3.08,0.85-4.76,0.85c-1.2,0-2.43-0.18-3.7-0.55c-1.27-0.37-2.35-0.92-3.24-1.66c-0.34-0.28-0.6-0.63-0.78-1.06
		c-0.18-0.43-0.28-0.84-0.28-1.24c0-0.43,0.19-0.85,0.58-1.27c0.38-0.41,0.91-0.62,1.59-0.62c0.49,0,1.06,0.25,1.7,0.74
		c0.61,0.4,1.26,0.74,1.96,1.01c0.69,0.28,1.4,0.41,2.14,0.41c1.44,0,2.75-0.31,3.93-0.92c1.18-0.61,2.12-1.46,2.81-2.55
		c0.69-1.09,1.04-2.28,1.04-3.57c0-1.32-0.29-2.45-0.87-3.38c-0.58-0.93-1.37-1.66-2.37-2.18c-1-0.52-2.11-0.78-3.33-0.78
		c-1.01,0-1.91,0.16-2.69,0.48c-0.78,0.32-1.47,0.64-2.07,0.97c-0.6,0.32-1.14,0.48-1.63,0.48c-0.8,0-1.4-0.18-1.82-0.53
		s-0.67-0.78-0.78-1.29s-0.13-0.97-0.07-1.4l1.61-11.78c0.09-0.52,0.34-0.96,0.76-1.31s0.93-0.53,1.54-0.53h13.48
		c0.61,0,1.13,0.21,1.54,0.62s0.62,0.93,0.62,1.54c0,0.61-0.21,1.12-0.62,1.52s-0.93,0.6-1.54,0.6h-11.88l-1.11,7.63
		c0.13-0.07,0.26-0.13,0.41-0.2c0.66-0.29,1.41-0.54,2.25-0.74c0.84-0.2,1.69-0.3,2.55-0.3c2.02,0,3.84,0.45,5.45,1.36
		C174.4,265.97,175.67,267.22,176.59,268.81z M214.47,253.66c0.47,0.45,0.71,1,0.71,1.68v27.55c0,0.67-0.21,1.23-0.64,1.68
		c-0.43,0.45-1,0.67-1.7,0.67c-0.74,0-1.33-0.22-1.77-0.67c-0.45-0.44-0.67-1-0.67-1.68v-20.76l-8.65,13.17
		c-0.21,0.28-0.49,0.51-0.83,0.71c-0.34,0.2-0.69,0.28-1.06,0.25c-0.34,0.03-0.68-0.05-1.04-0.25s-0.64-0.44-0.85-0.71l-8.65-13.46
		v21.05c0,0.67-0.21,1.23-0.62,1.68c-0.41,0.45-0.96,0.67-1.63,0.67c-0.64,0-1.17-0.22-1.59-0.67c-0.41-0.44-0.62-1-0.62-1.68
		v-27.55c0-0.64,0.24-1.2,0.71-1.66s1.04-0.69,1.68-0.69c0.37,0,0.75,0.09,1.15,0.28c0.4,0.18,0.71,0.44,0.92,0.78l10.68,16.27
		l10.94-16.27c0.49-0.71,1.12-1.06,1.89-1.06C213.45,252.99,213.99,253.21,214.47,253.66z"/>
</g>
<g id="Layer_11">
</g>
<g id="Layer_12">
</g>
<g id="Layer_13">
</g>
<g id="Layer_14">
</g>
<g id="Layer_15">
</g>
<g id="Layer_16">
</g>
<g id="Layer_32">
</g>
<g id="Layer_33">
</g>
<g id="Layer_34">
</g>
<g id="Layer_35">
</g>
<g id="Layer_49">
</g>
<g id="Layer_50">
</g>
<g id="Layer_51">
</g>
</svg>
