<?xml version="1.0" encoding="utf-8"?>
<!-- Generator: Adobe Illustrator 23.0.1, SVG Export Plug-In . SVG Version: 6.00 Build 0)  -->
<svg version="1.1" xmlns="http://www.w3.org/2000/svg" xmlns:xlink="http://www.w3.org/1999/xlink" x="0px" y="0px"
	 viewBox="0 0 432 432" enable-background="new 0 0 432 432" xml:space="preserve">
<g id="Layer_37">
</g>
<g id="Layer_47">
</g>
<g id="Layer_42">
</g>
<g id="Layer_43">
</g>
<g id="Layer_44">
</g>
<g id="Layer_45">
</g>
<g id="Layer_46">
</g>
<g id="Layer_38">
</g>
<g id="Layer_39">
</g>
<g id="Layer_40">
</g>
<g id="Layer_41">
</g>
<g id="Layer_17">
</g>
<g id="Layer_18">
</g>
<g id="Layer_19">
</g>
<g id="Layer_20">
</g>
<g id="Layer_21">
</g>
<g id="Layer_22">
</g>
<g id="Layer_23">
</g>
<g id="Layer_24">
</g>
<g id="Layer_25">
</g>
<g id="Layer_26">
</g>
<g id="Layer_27">
</g>
<g id="Layer_28">
</g>
<g id="Layer_29">
</g>
<g id="Layer_30">
</g>
<g id="Layer_31">
</g>
<g id="Layer_2">
</g>
<g id="Layer_3">
</g>
<g id="Layer_4">
	<path id="silicone_free" d="M78.72,354.74c0.51,1.09,0.76,2.43,0.76,4.02c0,1.69-0.48,3.19-1.43,4.51
		c-0.95,1.32-2.25,2.35-3.89,3.11c-1.64,0.75-3.49,1.14-5.54,1.17c-2.27,0-4.26-0.34-5.98-1.01c-1.72-0.67-3.37-1.75-4.97-3.22
		c-0.21-0.21-0.39-0.45-0.53-0.71c-0.14-0.26-0.21-0.54-0.21-0.85c0-0.49,0.18-0.93,0.53-1.31c0.35-0.38,0.79-0.57,1.31-0.57
		c0.43,0,0.81,0.17,1.15,0.51c1.2,1.17,2.49,2.05,3.89,2.67s2.97,0.92,4.71,0.92c1.35,0,2.57-0.21,3.66-0.64
		c1.09-0.43,1.96-1.03,2.6-1.79c0.64-0.77,0.97-1.66,0.97-2.67c-0.03-1.23-0.39-2.24-1.08-3.04c-0.69-0.8-1.64-1.46-2.85-2
		c-1.21-0.54-2.61-0.99-4.21-1.36c-1.41-0.34-2.71-0.75-3.89-1.24c-1.18-0.49-2.2-1.1-3.06-1.82c-0.86-0.72-1.53-1.59-2-2.62
		c-0.48-1.03-0.71-2.23-0.71-3.61c0-1.75,0.46-3.28,1.38-4.6s2.19-2.34,3.82-3.06c1.63-0.72,3.5-1.08,5.61-1.08
		c1.87,0,3.64,0.31,5.31,0.92c1.67,0.61,3.01,1.46,4.03,2.53c0.61,0.58,0.92,1.15,0.92,1.7c0,0.46-0.19,0.88-0.58,1.26
		c-0.38,0.38-0.82,0.58-1.31,0.58c-0.34,0-0.64-0.12-0.92-0.37c-0.52-0.58-1.18-1.1-1.98-1.56s-1.67-0.83-2.62-1.1
		s-1.9-0.41-2.85-0.41c-1.41,0-2.65,0.21-3.73,0.62c-1.07,0.41-1.91,1-2.51,1.75c-0.6,0.75-0.9,1.65-0.9,2.69
		c0,1.17,0.34,2.12,1.01,2.88c0.67,0.75,1.58,1.36,2.71,1.84s2.39,0.9,3.77,1.26c1.5,0.37,2.89,0.79,4.16,1.26
		c1.27,0.48,2.37,1.07,3.29,1.77C77.5,352.76,78.21,353.65,78.72,354.74z M87.57,334.89c-0.55,0-1.01,0.18-1.38,0.53
		c-0.37,0.35-0.55,0.8-0.55,1.36v28.43c0,0.52,0.17,0.97,0.51,1.33c0.34,0.37,0.8,0.55,1.38,0.55c0.52,0,0.97-0.18,1.36-0.55
		s0.58-0.81,0.58-1.33v-28.43c0-0.55-0.18-1-0.55-1.36S88.09,334.89,87.57,334.89z M115.31,363.46h-13.94v-26.73
		c0-0.52-0.18-0.96-0.55-1.31s-0.81-0.53-1.33-0.53c-0.55,0-1.01,0.18-1.38,0.53s-0.55,0.79-0.55,1.31v28.47
		c0,0.52,0.18,0.97,0.53,1.33c0.35,0.37,0.79,0.55,1.31,0.55h15.92c0.52,0,0.97-0.17,1.33-0.51c0.37-0.34,0.55-0.77,0.55-1.29
		s-0.18-0.96-0.55-1.31C116.27,363.64,115.83,363.46,115.31,363.46z M124.42,334.89c-0.55,0-1.01,0.18-1.38,0.53
		s-0.55,0.8-0.55,1.36v28.43c0,0.52,0.17,0.97,0.51,1.33c0.34,0.37,0.8,0.55,1.38,0.55c0.52,0,0.97-0.18,1.36-0.55
		c0.38-0.37,0.58-0.81,0.58-1.33v-28.43c0-0.55-0.18-1-0.55-1.36S124.94,334.89,124.42,334.89z M156.98,361.71
		c-0.43-0.06-0.86,0.02-1.29,0.23c-1.04,0.64-2.15,1.13-3.31,1.47c-1.17,0.34-2.38,0.51-3.63,0.51c-1.75,0-3.37-0.29-4.85-0.87
		c-1.49-0.58-2.79-1.43-3.91-2.55c-1.12-1.12-2-2.48-2.65-4.07c-0.64-1.59-0.97-3.4-0.97-5.43c0-1.9,0.31-3.63,0.92-5.2
		c0.61-1.56,1.47-2.91,2.58-4.05c1.1-1.13,2.41-2.02,3.91-2.65c1.5-0.63,3.16-0.94,4.97-0.94c1.29,0,2.51,0.18,3.68,0.53
		c1.17,0.35,2.25,0.84,3.27,1.45c0.43,0.21,0.86,0.31,1.29,0.28s0.78-0.25,1.06-0.64c0.37-0.46,0.51-0.97,0.44-1.52
		s-0.38-0.97-0.9-1.24c-1.26-0.8-2.65-1.41-4.16-1.84c-1.52-0.43-3.08-0.64-4.67-0.64c-2.3,0-4.44,0.41-6.42,1.24
		c-1.98,0.83-3.71,1.98-5.2,3.45s-2.64,3.21-3.47,5.2s-1.24,4.19-1.24,6.58c0,2.55,0.44,4.84,1.31,6.88s2.06,3.78,3.57,5.22
		c1.5,1.44,3.24,2.55,5.2,3.31c1.96,0.77,4.05,1.15,6.26,1.15c1.07,0,2.14-0.11,3.2-0.32c1.06-0.21,2.08-0.51,3.06-0.9
		s1.86-0.81,2.62-1.27c0.49-0.25,0.78-0.64,0.87-1.17c0.09-0.54-0.05-1.05-0.41-1.54C157.78,361.99,157.41,361.77,156.98,361.71z
		 M191.94,344.39c0.77,2.01,1.15,4.21,1.15,6.6c0,2.36-0.38,4.55-1.15,6.55c-0.77,2.01-1.84,3.76-3.22,5.27
		c-1.38,1.5-3.02,2.67-4.92,3.5c-1.9,0.83-3.97,1.24-6.21,1.24c-2.27,0-4.35-0.41-6.23-1.24s-3.52-1.99-4.9-3.5
		c-1.38-1.5-2.45-3.26-3.22-5.27c-0.77-2.01-1.15-4.19-1.15-6.55c0-2.39,0.38-4.59,1.15-6.6c0.77-2.01,1.84-3.76,3.22-5.24
		c1.38-1.49,3.01-2.64,4.9-3.47s3.96-1.24,6.23-1.24c2.24,0,4.31,0.41,6.21,1.24c1.9,0.83,3.54,1.99,4.92,3.47
		C190.1,340.64,191.18,342.38,191.94,344.39z M189.14,350.99c0-2.51-0.5-4.74-1.5-6.67c-1-1.93-2.35-3.45-4.07-4.55
		c-1.72-1.1-3.71-1.66-5.98-1.66s-4.27,0.55-6,1.66c-1.73,1.1-3.09,2.62-4.07,4.55c-0.98,1.93-1.47,4.16-1.47,6.67
		c0,2.48,0.49,4.7,1.47,6.65c0.98,1.95,2.34,3.47,4.07,4.58c1.73,1.1,3.73,1.66,6,1.66s4.26-0.55,5.98-1.66
		c1.72-1.1,3.07-2.63,4.07-4.58C188.64,355.69,189.14,353.48,189.14,350.99z M223.04,334.89c-0.49,0-0.9,0.16-1.22,0.48
		c-0.32,0.32-0.48,0.73-0.48,1.22v23.82l-18.81-24.88c-0.15-0.21-0.38-0.38-0.67-0.48s-0.57-0.16-0.85-0.16
		c-0.49,0-0.91,0.17-1.26,0.51c-0.35,0.34-0.53,0.78-0.53,1.33v28.66c0,0.49,0.15,0.9,0.46,1.22c0.31,0.32,0.71,0.48,1.2,0.48
		c0.52,0,0.94-0.16,1.26-0.48c0.32-0.32,0.48-0.73,0.48-1.22v-23.72l18.77,24.82c0.15,0.18,0.37,0.33,0.64,0.44
		c0.28,0.11,0.55,0.16,0.83,0.16c0.52,0,0.97-0.18,1.33-0.53c0.37-0.35,0.55-0.82,0.55-1.4v-28.57c0-0.49-0.15-0.9-0.46-1.22
		C223.97,335.05,223.56,334.89,223.04,334.89z M251.01,338.43c0.52,0,0.97-0.16,1.33-0.48c0.37-0.32,0.55-0.74,0.55-1.27
		c0-0.52-0.18-0.95-0.55-1.29c-0.37-0.34-0.81-0.51-1.33-0.51h-16.38c-0.52,0-0.96,0.18-1.31,0.53c-0.35,0.35-0.53,0.79-0.53,1.31
		v28.47c0,0.52,0.18,0.97,0.53,1.33c0.35,0.37,0.79,0.55,1.31,0.55h16.38c0.52,0,0.97-0.17,1.33-0.51c0.37-0.34,0.55-0.77,0.55-1.29
		c0-0.46-0.18-0.87-0.55-1.24s-0.81-0.55-1.33-0.55h-14.4v-11.18h12.33c0.52,0,0.97-0.16,1.33-0.48c0.37-0.32,0.55-0.74,0.55-1.26
		s-0.18-0.95-0.55-1.29c-0.37-0.34-0.81-0.51-1.33-0.51h-12.33v-10.35H251.01z M289.65,334.89H273.5c-0.52,0-0.96,0.18-1.31,0.53
		c-0.35,0.35-0.53,0.79-0.53,1.31v28.47c0,0.52,0.18,0.97,0.53,1.33c0.35,0.37,0.8,0.55,1.36,0.55c0.52,0,0.97-0.18,1.33-0.55
		s0.55-0.81,0.55-1.33v-12.79h12.14c0.52,0,0.97-0.18,1.33-0.53c0.37-0.35,0.55-0.76,0.55-1.22c0-0.52-0.18-0.96-0.55-1.31
		c-0.37-0.35-0.81-0.53-1.33-0.53h-12.14v-10.4h14.21c0.52,0,0.97-0.17,1.33-0.51c0.37-0.34,0.55-0.75,0.55-1.24
		c0-0.52-0.18-0.95-0.55-1.29C290.61,335.06,290.17,334.89,289.65,334.89z M322.56,365.02c0.14,0.46,0.05,0.91-0.25,1.33
		c-0.18,0.28-0.45,0.47-0.78,0.58c-0.34,0.11-0.67,0.15-1.01,0.12c-0.34-0.03-0.63-0.12-0.87-0.28c-0.49-0.28-0.97-0.68-1.43-1.22
		c-0.46-0.54-0.84-1.31-1.15-2.32c-0.31-1.01-0.46-2.39-0.46-4.14c0-0.98-0.15-1.79-0.46-2.44c-0.31-0.64-0.72-1.17-1.24-1.56
		s-1.1-0.67-1.75-0.83c-0.64-0.15-1.3-0.23-1.98-0.23h-9.71v11.18c0,0.52-0.15,0.97-0.46,1.33s-0.72,0.55-1.24,0.55
		c-0.58,0-1.08-0.18-1.5-0.55s-0.62-0.81-0.62-1.33v-28.47c0-0.52,0.18-0.96,0.53-1.31c0.35-0.35,0.79-0.53,1.31-0.53h12.7
		c1.72,0,3.27,0.39,4.65,1.17c1.38,0.78,2.48,1.86,3.29,3.22s1.22,2.94,1.22,4.71c0,1.29-0.25,2.49-0.74,3.61
		c-0.49,1.12-1.17,2.09-2.02,2.9c-0.73,0.69-1.55,1.23-2.46,1.65c0.46,0.22,0.9,0.48,1.31,0.79c0.83,0.63,1.5,1.43,2.02,2.39
		s0.8,2.09,0.83,3.38c0.06,1.13,0.14,2.04,0.23,2.71c0.09,0.67,0.23,1.2,0.41,1.59c0.18,0.38,0.44,0.68,0.78,0.9
		C322.14,364.19,322.42,364.56,322.56,365.02z M314.69,349.8c0.78-0.55,1.43-1.33,1.93-2.32c0.51-1,0.76-2.12,0.76-3.38
		c0-1.63-0.51-2.97-1.54-4.05c-1.03-1.07-2.32-1.61-3.89-1.61h-10.49v12.28h10.72C313.07,350.66,313.91,350.35,314.69,349.8z
		 M346.96,338.43c0.52,0,0.97-0.16,1.33-0.48c0.37-0.32,0.55-0.74,0.55-1.27c0-0.52-0.18-0.95-0.55-1.29
		c-0.37-0.34-0.81-0.51-1.33-0.51h-16.38c-0.52,0-0.96,0.18-1.31,0.53c-0.35,0.35-0.53,0.79-0.53,1.31v28.47
		c0,0.52,0.18,0.97,0.53,1.33c0.35,0.37,0.79,0.55,1.31,0.55h16.38c0.52,0,0.97-0.17,1.33-0.51c0.37-0.34,0.55-0.77,0.55-1.29
		c0-0.46-0.18-0.87-0.55-1.24s-0.81-0.55-1.33-0.55h-14.4v-11.18h12.33c0.52,0,0.97-0.16,1.33-0.48c0.37-0.32,0.55-0.74,0.55-1.26
		s-0.18-0.95-0.55-1.29c-0.37-0.34-0.81-0.51-1.33-0.51h-12.33v-10.35H346.96z M373.18,363.51h-14.4v-11.18h12.33
		c0.52,0,0.97-0.16,1.33-0.48c0.37-0.32,0.55-0.74,0.55-1.26s-0.18-0.95-0.55-1.29c-0.37-0.34-0.81-0.51-1.33-0.51h-12.33v-10.35
		h14.4c0.52,0,0.97-0.16,1.33-0.48c0.37-0.32,0.55-0.74,0.55-1.27c0-0.52-0.18-0.95-0.55-1.29c-0.37-0.34-0.81-0.51-1.33-0.51H356.8
		c-0.52,0-0.96,0.18-1.31,0.53c-0.35,0.35-0.53,0.79-0.53,1.31v28.47c0,0.52,0.18,0.97,0.53,1.33c0.35,0.37,0.79,0.55,1.31,0.55
		h16.38c0.52,0,0.97-0.17,1.33-0.51c0.37-0.34,0.55-0.77,0.55-1.29c0-0.46-0.18-0.87-0.55-1.24S373.7,363.51,373.18,363.51z"/>
	<path d="M216,17.5C134.67,17.5,68.5,83.67,68.5,165S134.67,312.5,216,312.5S363.5,246.33,363.5,165S297.33,17.5,216,17.5z
		 M216,307.5c-78.57,0-142.5-63.92-142.5-142.5S137.43,22.5,216,22.5S358.5,86.42,358.5,165S294.57,307.5,216,307.5z M260.28,260.37
		l-5.77-5.29l-8.41-143.95c0-0.06-0.02-0.12-0.02-0.18c-0.01-0.05-0.01-0.1-0.02-0.16c-0.03-0.13-0.06-0.26-0.11-0.39
		c-0.01-0.01-0.01-0.03-0.01-0.04c-0.06-0.14-0.13-0.28-0.21-0.4c-0.01-0.01-0.01-0.03-0.02-0.04l-8.74-13.56l-2.32-49.94
		c-0.06-1.33-1.16-2.38-2.5-2.38h-32.3c-1.34,0-2.44,1.05-2.5,2.38l-2.32,49.94l-8.74,13.56c-0.01,0.01-0.01,0.03-0.02,0.04
		c-0.08,0.13-0.15,0.26-0.21,0.41c0,0.01-0.01,0.02-0.01,0.04c-0.05,0.13-0.08,0.26-0.11,0.39c-0.01,0.05-0.01,0.1-0.02,0.16
		c-0.01,0.06-0.02,0.12-0.02,0.18l-8.41,143.95l-5.76,5.29c-0.47,0.43-0.75,1.02-0.8,1.65l-1.02,13.46
		c-0.05,0.69,0.19,1.38,0.66,1.89c0.47,0.51,1.14,0.8,1.83,0.8H216h43.61c0.7,0,1.36-0.29,1.83-0.8c0.47-0.51,0.71-1.19,0.66-1.89
		l-1.02-13.46C261.04,261.39,260.75,260.8,260.28,260.37z M198.86,99.65H216h17.14l5.11,7.93c-4.93-0.86-12.64-1.85-22.25-1.85
		c-9.61,0-17.32,0.98-22.25,1.85L198.86,99.65z M218.5,49.04h3.29l0.77,45.61h-4.05V49.04z M213.5,94.65h-4.05l0.77-45.61h3.28
		V94.65z M231.88,94.65h-4.33l-0.77-45.61h2.98L231.88,94.65z M202.24,49.04h2.98l-0.77,45.61h-4.33L202.24,49.04z M190.78,113.27
		c3.64-0.81,12.83-2.53,25.22-2.53c12.36,0,21.57,1.72,25.22,2.53l8.21,140.47h-66.86L190.78,113.27z M216,273.17h-40.92l0.74-9.79
		l5.06-4.65h70.22l5.07,4.65l0.74,9.79H216z"/>
</g>
<g id="Layer_5">
</g>
<g id="Layer_6">
</g>
<g id="Layer_7">
</g>
<g id="Layer_8">
</g>
<g id="Layer_9">
</g>
<g id="Layer_10">
</g>
<g id="Layer_11">
</g>
<g id="Layer_12">
</g>
<g id="Layer_13">
</g>
<g id="Layer_14">
</g>
<g id="Layer_15">
</g>
<g id="Layer_16">
</g>
<g id="Layer_32">
</g>
<g id="Layer_33">
</g>
<g id="Layer_34">
</g>
<g id="Layer_35">
</g>
<g id="Layer_49">
</g>
<g id="Layer_50">
</g>
<g id="Layer_51">
</g>
</svg>
