<?xml version="1.0" encoding="utf-8"?>
<!-- Generator: Adobe Illustrator 23.0.1, SVG Export Plug-In . SVG Version: 6.00 Build 0)  -->
<svg version="1.1" xmlns="http://www.w3.org/2000/svg" xmlns:xlink="http://www.w3.org/1999/xlink" x="0px" y="0px"
	 viewBox="0 0 432 432" enable-background="new 0 0 432 432" xml:space="preserve">
<g id="Layer_37">
</g>
<g id="Layer_47">
</g>
<g id="Layer_42">
</g>
<g id="Layer_43">
</g>
<g id="Layer_44">
</g>
<g id="Layer_45">
</g>
<g id="Layer_46">
</g>
<g id="Layer_38">
</g>
<g id="Layer_39">
</g>
<g id="Layer_40">
</g>
<g id="Layer_41">
</g>
<g id="Layer_17">
</g>
<g id="Layer_18">
</g>
<g id="Layer_19">
</g>
<g id="Layer_20">
</g>
<g id="Layer_21">
</g>
<g id="Layer_22">
</g>
<g id="Layer_23">
</g>
<g id="Layer_24">
</g>
<g id="Layer_25">
</g>
<g id="Layer_26">
</g>
<g id="Layer_27">
</g>
<g id="Layer_28">
</g>
<g id="Layer_29">
</g>
<g id="Layer_30">
</g>
<g id="Layer_31">
</g>
<g id="Layer_2">
</g>
<g id="Layer_3">
</g>
<g id="Layer_4">
</g>
<g id="Layer_5">
</g>
<g id="Layer_6">
</g>
<g id="Layer_7">
	<path d="M217.92,199.13c-35.45,0-88.2,5.17-88.2,19.43v70.33c0,14.25,52.74,19.43,88.2,19.43c35.45,0,88.2-5.17,88.2-19.43v-70.33
		C306.12,204.3,253.37,199.13,217.92,199.13z M217.92,204.13c54.62,0,83.2,9.39,83.2,14.43s-28.57,14.43-83.2,14.43
		c-54.62,0-83.2-9.39-83.2-14.43S163.3,204.13,217.92,204.13z M217.92,303.32c-54.62,0-83.2-9.39-83.2-14.43v-63.32
		c13.97,8.98,54.32,12.41,83.2,12.41c28.88,0,69.22-3.43,83.2-12.41v63.32C301.12,293.92,272.54,303.32,217.92,303.32z
		 M129.78,183.87C129.78,183.87,129.78,183.88,129.78,183.87c0,0.01,0.01,0.02,0.01,0.02c0.03,0.15,0.08,0.29,0.14,0.43
		c1.75,5.74,12.33,7.9,26.57,7.9c18.85,0,44.07-3.77,63.59-7.98c34.65-7.49,85.12-23.68,82.11-37.61l-3.79-17.53c0,0,0,0,0-0.01
		c-0.7-3.24-4.62-6.73-28.95-4.92c-16.41,1.22-37.83,4.57-60.31,9.42c-22.48,4.86-43.37,10.65-58.82,16.31
		c-22.9,8.39-25.03,13.19-24.33,16.43c0,0,0,0.01,0,0.01L129.78,183.87z M219.03,179.36c-53.39,11.53-83.3,8.38-84.37,3.46
		c0,0,0,0,0,0l-2.59-12.01c2.53,0.59,6.09,0.95,11.12,0.95c3.26,0,7.14-0.15,11.75-0.5c16.41-1.22,37.83-4.57,60.31-9.42
		c22.48-4.86,43.38-10.65,58.82-16.31c11.04-4.04,17.24-7.25,20.64-9.86l2.59,12.01C298.37,152.61,272.42,167.82,219.03,179.36z
		 M154.18,153.84c15.01-5.33,34.9-10.78,56.02-15.35c21.12-4.56,41.49-7.81,57.36-9.15c19.35-1.63,24.55,0.2,25.75,0.86
		c-0.82,1.09-4.8,4.9-23.1,11.41c-15,5.33-34.9,10.79-56.02,15.35c-21.12,4.56-41.49,7.81-57.36,9.14
		c-19.35,1.63-24.55-0.2-25.75-0.86C131.9,164.15,135.89,160.34,154.18,153.84z M207.43,281.58c0.41,0.41,0.62,0.93,0.62,1.54
		c0,0.61-0.21,1.12-0.62,1.52c-0.41,0.4-0.93,0.6-1.54,0.6h-16.15c-0.68,0-1.21-0.2-1.61-0.6c-0.4-0.4-0.6-0.94-0.6-1.61
		c0-0.61,0.21-1.17,0.64-1.66l10.26-11.09c1.29-1.38,2.3-2.73,3.04-4.05c0.74-1.32,1.1-2.58,1.1-3.77c0-1.1-0.25-2.08-0.74-2.92
		c-0.49-0.84-1.17-1.51-2.02-2c-0.86-0.49-1.82-0.74-2.9-0.74c-1.04,0-2.08,0.31-3.1,0.94c-1.03,0.63-1.88,1.53-2.55,2.69
		c-0.28,0.4-0.57,0.67-0.87,0.8c-0.31,0.14-0.61,0.21-0.92,0.21c-0.55,0-1.07-0.21-1.56-0.62c-0.49-0.41-0.74-0.9-0.74-1.45
		c0-0.43,0.14-0.84,0.41-1.24c0.28-0.4,0.63-0.81,1.06-1.24c1.04-1.35,2.35-2.41,3.91-3.17s3.11-1.15,4.65-1.15
		c2.12,0,3.92,0.41,5.41,1.24c1.49,0.83,2.64,1.97,3.45,3.43c0.81,1.46,1.22,3.12,1.22,4.99c0,1.23-0.23,2.48-0.69,3.75
		s-1.1,2.55-1.93,3.82s-1.84,2.55-3.04,3.84l-6.71,7.31h10.99C206.5,280.96,207.01,281.16,207.43,281.58z M242.99,253.66
		c0.48,0.45,0.71,1,0.71,1.68v27.55c0,0.67-0.21,1.23-0.64,1.68c-0.43,0.45-1,0.67-1.7,0.67c-0.74,0-1.33-0.22-1.77-0.67
		c-0.44-0.44-0.67-1-0.67-1.68v-20.76l-8.65,13.17c-0.21,0.28-0.49,0.51-0.83,0.71s-0.69,0.28-1.06,0.25
		c-0.34,0.03-0.68-0.05-1.04-0.25c-0.35-0.2-0.64-0.44-0.85-0.71l-8.65-13.46v21.05c0,0.67-0.21,1.23-0.62,1.68
		c-0.41,0.45-0.96,0.67-1.63,0.67c-0.64,0-1.17-0.22-1.59-0.67c-0.41-0.44-0.62-1-0.62-1.68v-27.55c0-0.64,0.24-1.2,0.71-1.66
		c0.48-0.46,1.04-0.69,1.68-0.69c0.37,0,0.75,0.09,1.15,0.28c0.4,0.18,0.71,0.44,0.92,0.78l10.68,16.27l10.94-16.27
		c0.49-0.71,1.12-1.06,1.89-1.06C241.97,252.99,242.51,253.21,242.99,253.66z"/>
</g>
<g id="Layer_8">
</g>
<g id="Layer_9">
</g>
<g id="Layer_10">
</g>
<g id="Layer_11">
</g>
<g id="Layer_12">
</g>
<g id="Layer_13">
</g>
<g id="Layer_14">
</g>
<g id="Layer_15">
</g>
<g id="Layer_16">
</g>
<g id="Layer_32">
</g>
<g id="Layer_33">
</g>
<g id="Layer_34">
</g>
<g id="Layer_35">
</g>
<g id="Layer_49">
</g>
<g id="Layer_50">
</g>
<g id="Layer_51">
</g>
</svg>
