<?xml version="1.0" encoding="utf-8"?>
<!-- Generator: Adobe Illustrator 23.0.1, SVG Export Plug-In . SVG Version: 6.00 Build 0)  -->
<svg version="1.1" xmlns="http://www.w3.org/2000/svg" xmlns:xlink="http://www.w3.org/1999/xlink" x="0px" y="0px"
	 viewBox="0 0 432 432" enable-background="new 0 0 432 432" xml:space="preserve">
<g id="Layer_37">
</g>
<g id="Layer_47">
</g>
<g id="Layer_42">
</g>
<g id="Layer_43">
</g>
<g id="Layer_44">
</g>
<g id="Layer_45">
</g>
<g id="Layer_46">
</g>
<g id="Layer_38">
</g>
<g id="Layer_39">
</g>
<g id="Layer_40">
</g>
<g id="Layer_41">
</g>
<g id="Layer_17">
	<path d="M216,312.5c-81.33,0-147.5-66.17-147.5-147.5S134.67,17.5,216,17.5S363.5,83.67,363.5,165S297.33,312.5,216,312.5z
		 M216,307.5c78.57,0,142.5-63.93,142.5-142.5S294.57,22.5,216,22.5S73.5,86.43,73.5,165S137.43,307.5,216,307.5z M231.9,204.02
		c-12.79,4.44-28.64,9.95-44.22,1.4c-4.06,1.18-19.84,6.08-29.58,13.25c-4.59,3.38-8.2,8.35-11.39,12.74
		c-3.99,5.49-7.79,10.73-12.61,10.73c-1.03,0-2.11-0.24-3.24-0.77c-1.58-0.74-4.19-2.8-3.88-8.36c0.55-9.78,9.93-26.21,23.14-35.49
		c0.03-0.09,0.06-0.17,0.1-0.26c3.68-7.04,1.06-15.01-0.28-18.18c-2.84,0.37-5.68,0.57-8.41,0.57c-4.66,0-9.02-0.52-12.57-1.5
		c-7.32-2.01-11.67-5.84-12.24-10.77c-1.35-11.62,7.72-18.43,13.58-20.83c8.05-21.01,25.46-24.5,36.06-24.52
		c3.23-3.47,18.69-21.4,18.64-45.57c-0.03-11.98,2.29-20.25,6.89-24.58c2.63-2.48,6.05-3.67,9.86-3.43c3.52,0.22,6.81,2.38,9.26,6.1
		c2.28,3.46,6.24,12.21,3.5,28.49c12.92-12.19,27.57-19.85,41.54-13.44c6.79,3.12,8.39,7.68,8.54,10.96
		c0.98,21.43-58.32,58.25-75.89,68.68c3.59,0.9,10.14,1.18,20.77-2.79c17.99-6.72,44.27-14.34,64.65-2.93
		c11.66,6.52,13.73,16.6,13.38,24.02c0.83-0.4,1.74-0.68,2.75-0.78c5.1-0.54,10.25,3.41,15.72,12.09
		c11.41,18.11,16.88,28.54,15.12,35.29c-0.63,2.42-2.16,4.3-4.55,5.6c-4.42,2.4-9.65-0.07-15.54-7.34c-2.02-2.49-3.76-5.1-4.98-7.06
		c-3.83,4.26-12.03,11.4-22.81,9.81c-6.62-0.98-11.12-4.91-15.1-8.39c-4.93-4.31-8.82-7.71-15.78-6.03
		C239.13,201.51,235.62,202.73,231.9,204.02z M230.26,199.3c3.83-1.33,7.46-2.59,10.87-3.42c9.48-2.3,15.2,2.71,20.25,7.12
		c3.79,3.31,7.37,6.44,12.53,7.21c11.74,1.73,20.25-10.52,20.34-10.65c0.49-0.72,1.32-1.13,2.19-1.09c0.87,0.04,1.66,0.54,2.07,1.3
		c4.23,7.79,12.01,17.54,15.62,15.57c1.17-0.63,1.81-1.39,2.09-2.46c1.42-5.43-6.39-18.47-14.51-31.36
		c-5.63-8.93-9.28-9.96-10.96-9.79c-2.64,0.28-4.57,3.87-5.1,5.24c-0.04,0.11-0.06,0.17-0.07,0.18c-0.51,1.26-1.94,1.88-3.22,1.39
		c-1.27-0.49-1.92-1.91-1.45-3.19c0.01-0.03,0.04-0.1,0.09-0.22c0.69-1.82,6.44-18.41-9.35-27.24c-18.57-10.39-43.4-3.12-60.46,3.25
		c-21.01,7.85-28.79,0.91-29.61,0.09c-0.55-0.55-0.81-1.32-0.71-2.1c0.1-0.77,0.56-1.45,1.23-1.84
		c21.82-12.56,78.27-48.99,77.46-66.5c-0.13-2.79-1.97-4.96-5.64-6.65c-32.58-14.96-73.46,64.81-73.87,65.62
		c-0.62,1.23-2.13,1.72-3.36,1.1c-1.23-0.62-1.72-2.13-1.1-3.36c0.98-1.93,14.3-27.9,32.28-47.7c5.4-20.18,0.69-29.82-1.07-32.5
		c-1.56-2.37-3.47-3.74-5.39-3.86c-2.47-0.15-4.48,0.53-6.12,2.08c-2.44,2.3-5.35,7.8-5.32,20.94c0.05,22.02-11.43,38.8-17.33,45.97
		c1.51,0.2,2.41,0.4,2.46,0.41c1.34,0.32,2.17,1.67,1.85,3.01s-1.66,2.17-3.01,1.85c-1.23-0.29-29.31-6.52-39.37,21.63
		c-0.26,0.72-0.83,1.28-1.56,1.53c-0.51,0.18-12.69,4.49-11.36,15.95c0.32,2.73,3.45,5.11,8.6,6.53
		c13.23,3.64,34.58,0.08,42.28-9.98c0.84-1.1,2.41-1.31,3.5-0.47c1.1,0.84,1.31,2.41,0.47,3.5c-4.7,6.15-12.86,9.94-21.54,11.82
		c1.3,3.38,2.91,9.25,1.71,15.48c1.24-0.58,2.5-1.09,3.78-1.52c1.31-0.44,2.73,0.27,3.16,1.58c0.44,1.31-0.27,2.73-1.58,3.16
		c-16.29,5.43-29.48,25.81-30.08,36.38c-0.05,0.9-0.06,3.05,0.99,3.54c2.58,1.2,5.37-2.4,9.7-8.37c3.4-4.68,7.25-9.99,12.47-13.83
		c11.96-8.8,31.4-14.1,32.22-14.33c0.65-0.18,1.34-0.08,1.92,0.26C203.16,208.71,217.56,203.71,230.26,199.3z M151.45,141.05h-3.76
		c-1.38,0-2.5,1.12-2.5,2.5s1.12,2.5,2.5,2.5h3.76c1.38,0,2.5-1.12,2.5-2.5S152.83,141.05,151.45,141.05z"/>
	<path id="not_tested_on_animals" d="M66.09,335.37c0.31,0.32,0.46,0.73,0.46,1.22v28.57c0,0.58-0.18,1.05-0.55,1.4
		c-0.37,0.35-0.81,0.53-1.33,0.53c-0.28,0-0.55-0.05-0.83-0.16c-0.28-0.11-0.49-0.25-0.64-0.44l-18.77-24.82v23.72
		c0,0.49-0.16,0.9-0.48,1.22c-0.32,0.32-0.74,0.48-1.27,0.48c-0.49,0-0.89-0.16-1.2-0.48c-0.31-0.32-0.46-0.73-0.46-1.22v-28.66
		c0-0.55,0.18-1,0.53-1.33c0.35-0.34,0.77-0.51,1.26-0.51c0.28,0,0.56,0.05,0.85,0.16c0.29,0.11,0.51,0.27,0.67,0.48l18.81,24.88
		v-23.82c0-0.49,0.16-0.9,0.48-1.22c0.32-0.32,0.73-0.48,1.22-0.48C65.37,334.89,65.78,335.05,66.09,335.37z M102.47,344.39
		c0.77,2.01,1.15,4.21,1.15,6.6c0,2.36-0.38,4.55-1.15,6.56c-0.77,2.01-1.84,3.76-3.22,5.27c-1.38,1.5-3.02,2.67-4.92,3.5
		c-1.9,0.83-3.97,1.24-6.21,1.24c-2.27,0-4.35-0.41-6.23-1.24c-1.89-0.83-3.52-1.99-4.9-3.5c-1.38-1.5-2.45-3.26-3.22-5.27
		c-0.77-2.01-1.15-4.19-1.15-6.56c0-2.39,0.38-4.59,1.15-6.6c0.77-2.01,1.84-3.76,3.22-5.24c1.38-1.49,3.01-2.65,4.9-3.47
		c1.89-0.83,3.96-1.24,6.23-1.24c2.24,0,4.31,0.41,6.21,1.24c1.9,0.83,3.54,1.99,4.92,3.47
		C100.63,340.63,101.71,342.38,102.47,344.39z M99.67,350.99c0-2.51-0.5-4.74-1.5-6.67s-2.35-3.45-4.07-4.55
		c-1.72-1.1-3.71-1.66-5.98-1.66s-4.27,0.55-6,1.66c-1.73,1.1-3.09,2.62-4.07,4.55s-1.47,4.16-1.47,6.67c0,2.48,0.49,4.7,1.47,6.65
		c0.98,1.95,2.34,3.47,4.07,4.58c1.73,1.1,3.73,1.66,6,1.66s4.26-0.55,5.98-1.66c1.72-1.1,3.07-2.63,4.07-4.58
		C99.17,355.69,99.67,353.47,99.67,350.99z M120.78,365.2v-26.82h8.74c0.52,0,0.97-0.15,1.33-0.46c0.37-0.31,0.55-0.74,0.55-1.29
		c0-0.52-0.18-0.94-0.55-1.26c-0.37-0.32-0.81-0.48-1.33-0.48h-21.39c-0.52,0-0.96,0.16-1.31,0.48c-0.35,0.32-0.53,0.74-0.53,1.26
		c0,0.52,0.18,0.94,0.53,1.27s0.79,0.48,1.31,0.48h8.74v26.82c0,0.52,0.18,0.97,0.55,1.33c0.37,0.37,0.83,0.55,1.38,0.55
		c0.58,0,1.06-0.18,1.43-0.55C120.6,366.17,120.78,365.73,120.78,365.2z M157.63,365.2c0,0.52,0.18,0.97,0.55,1.33
		c0.37,0.37,0.83,0.55,1.38,0.55c0.58,0,1.06-0.18,1.43-0.55c0.37-0.37,0.55-0.81,0.55-1.33v-26.82h8.74c0.52,0,0.96-0.15,1.33-0.46
		c0.37-0.31,0.55-0.74,0.55-1.29c0-0.52-0.18-0.94-0.55-1.26c-0.37-0.32-0.81-0.48-1.33-0.48h-21.39c-0.52,0-0.96,0.16-1.31,0.48
		c-0.35,0.32-0.53,0.74-0.53,1.26c0,0.52,0.18,0.94,0.53,1.27c0.35,0.32,0.79,0.48,1.31,0.48h8.74V365.2z M195.9,338.43
		c0.52,0,0.97-0.16,1.33-0.48c0.37-0.32,0.55-0.74,0.55-1.26s-0.18-0.95-0.55-1.29c-0.37-0.34-0.81-0.51-1.33-0.51h-16.38
		c-0.52,0-0.96,0.18-1.31,0.53c-0.35,0.35-0.53,0.79-0.53,1.31v28.47c0,0.52,0.18,0.97,0.53,1.33c0.35,0.37,0.79,0.55,1.31,0.55
		h16.38c0.52,0,0.97-0.17,1.33-0.51c0.37-0.34,0.55-0.77,0.55-1.29c0-0.46-0.18-0.87-0.55-1.24c-0.37-0.37-0.81-0.55-1.33-0.55
		h-14.4v-11.18h12.33c0.52,0,0.97-0.16,1.33-0.48c0.37-0.32,0.55-0.74,0.55-1.27c0-0.52-0.18-0.95-0.55-1.29
		c-0.37-0.34-0.81-0.51-1.33-0.51H181.5v-10.35H195.9z M202.34,363.32c1.59,1.47,3.25,2.55,4.97,3.22c1.72,0.67,3.71,1.01,5.98,1.01
		c2.05-0.03,3.9-0.42,5.54-1.17c1.64-0.75,2.94-1.79,3.89-3.1c0.95-1.32,1.43-2.82,1.43-4.51c0-1.59-0.25-2.94-0.76-4.02
		c-0.51-1.09-1.22-1.99-2.14-2.69c-0.92-0.71-2.02-1.3-3.29-1.77c-1.27-0.48-2.66-0.9-4.16-1.27c-1.38-0.37-2.64-0.79-3.77-1.26
		c-1.13-0.48-2.04-1.09-2.71-1.84c-0.68-0.75-1.01-1.71-1.01-2.88c0-1.04,0.3-1.94,0.9-2.69c0.6-0.75,1.43-1.33,2.51-1.75
		c1.07-0.41,2.32-0.62,3.73-0.62c0.95,0,1.9,0.14,2.85,0.41c0.95,0.28,1.82,0.64,2.62,1.1c0.8,0.46,1.46,0.98,1.98,1.56
		c0.28,0.25,0.58,0.37,0.92,0.37c0.49,0,0.93-0.19,1.31-0.58c0.38-0.38,0.57-0.8,0.57-1.26c0-0.55-0.31-1.12-0.92-1.7
		c-1.01-1.07-2.35-1.92-4.03-2.53c-1.67-0.61-3.44-0.92-5.31-0.92c-2.12,0-3.99,0.36-5.61,1.08c-1.63,0.72-2.9,1.74-3.82,3.06
		c-0.92,1.32-1.38,2.85-1.38,4.6c0,1.38,0.24,2.58,0.71,3.61c0.48,1.03,1.14,1.9,2,2.62c0.86,0.72,1.88,1.33,3.06,1.82
		c1.18,0.49,2.48,0.9,3.89,1.24c1.59,0.37,3,0.82,4.21,1.36c1.21,0.54,2.16,1.2,2.85,2c0.69,0.8,1.05,1.81,1.08,3.04
		c0,1.01-0.32,1.9-0.97,2.67c-0.64,0.77-1.51,1.36-2.6,1.79c-1.09,0.43-2.31,0.64-3.66,0.64c-1.75,0-3.32-0.31-4.71-0.92
		c-1.4-0.61-2.69-1.5-3.89-2.67c-0.34-0.34-0.72-0.51-1.15-0.51c-0.52,0-0.96,0.19-1.31,0.58c-0.35,0.38-0.53,0.82-0.53,1.31
		c0,0.31,0.07,0.59,0.21,0.85C201.95,362.87,202.12,363.1,202.34,363.32z M238.36,365.2c0,0.52,0.18,0.97,0.55,1.33
		c0.37,0.37,0.83,0.55,1.38,0.55c0.58,0,1.06-0.18,1.43-0.55c0.37-0.37,0.55-0.81,0.55-1.33v-26.82h8.74c0.52,0,0.96-0.15,1.33-0.46
		c0.37-0.31,0.55-0.74,0.55-1.29c0-0.52-0.18-0.94-0.55-1.26c-0.37-0.32-0.81-0.48-1.33-0.48h-21.39c-0.52,0-0.96,0.16-1.31,0.48
		c-0.35,0.32-0.53,0.74-0.53,1.26c0,0.52,0.18,0.94,0.53,1.27c0.35,0.32,0.79,0.48,1.31,0.48h8.74V365.2z M260.25,367.09h16.38
		c0.52,0,0.97-0.17,1.33-0.51c0.37-0.34,0.55-0.77,0.55-1.29c0-0.46-0.18-0.87-0.55-1.24c-0.37-0.37-0.81-0.55-1.33-0.55h-14.4
		v-11.18h12.33c0.52,0,0.97-0.16,1.33-0.48c0.37-0.32,0.55-0.74,0.55-1.27c0-0.52-0.18-0.95-0.55-1.29
		c-0.37-0.34-0.81-0.51-1.33-0.51h-12.33v-10.35h14.4c0.52,0,0.97-0.16,1.33-0.48c0.37-0.32,0.55-0.74,0.55-1.26
		s-0.18-0.95-0.55-1.29c-0.37-0.34-0.81-0.51-1.33-0.51h-16.38c-0.52,0-0.96,0.18-1.31,0.53c-0.35,0.35-0.53,0.79-0.53,1.31v28.47
		c0,0.52,0.18,0.97,0.53,1.33C259.29,366.91,259.73,367.09,260.25,367.09z M310.69,344.85c0.57,1.95,0.85,4,0.85,6.14
		c0,2.94-0.51,5.64-1.52,8.07c-1.01,2.44-2.51,4.39-4.51,5.84c-1.99,1.46-4.51,2.19-7.54,2.19h-11.5c-0.52,0-0.96-0.18-1.31-0.55
		c-0.35-0.37-0.53-0.81-0.53-1.33v-28.47c0-0.52,0.18-0.96,0.53-1.31c0.35-0.35,0.79-0.53,1.31-0.53h11.5
		c2.24,0,4.21,0.42,5.91,1.27c1.7,0.84,3.12,2.02,4.26,3.52C309.27,341.18,310.12,342.9,310.69,344.85z M307.58,350.99
		c0-1.66-0.19-3.24-0.57-4.76c-0.38-1.52-0.98-2.86-1.79-4.03c-0.81-1.17-1.86-2.08-3.13-2.76c-1.27-0.67-2.8-1.01-4.58-1.01h-9.06
		v25.07h9.06c2.36,0,4.29-0.57,5.77-1.7c1.49-1.13,2.58-2.65,3.27-4.55C307.24,355.35,307.58,353.26,307.58,350.99z M358.18,344.39
		c0.77,2.01,1.15,4.21,1.15,6.6c0,2.36-0.38,4.55-1.15,6.56c-0.77,2.01-1.84,3.76-3.22,5.27c-1.38,1.5-3.02,2.67-4.92,3.5
		c-1.9,0.83-3.97,1.24-6.21,1.24c-2.27,0-4.35-0.41-6.23-1.24c-1.89-0.83-3.52-1.99-4.9-3.5c-1.38-1.5-2.45-3.26-3.22-5.27
		c-0.77-2.01-1.15-4.19-1.15-6.56c0-2.39,0.38-4.59,1.15-6.6c0.77-2.01,1.84-3.76,3.22-5.24c1.38-1.49,3.01-2.65,4.9-3.47
		s3.96-1.24,6.23-1.24c2.24,0,4.31,0.41,6.21,1.24s3.54,1.99,4.92,3.47C356.34,340.63,357.42,342.38,358.18,344.39z M355.38,350.99
		c0-2.51-0.5-4.74-1.5-6.67c-1-1.93-2.35-3.45-4.07-4.55s-3.71-1.66-5.98-1.66s-4.27,0.55-6,1.66s-3.09,2.62-4.07,4.55
		c-0.98,1.93-1.47,4.16-1.47,6.67c0,2.48,0.49,4.7,1.47,6.65c0.98,1.95,2.34,3.47,4.07,4.58s3.73,1.66,6,1.66s4.26-0.55,5.98-1.66
		s3.07-2.63,4.07-4.58C354.88,355.69,355.38,353.47,355.38,350.99z M390.52,335.37c-0.31-0.32-0.72-0.48-1.24-0.48
		c-0.49,0-0.9,0.16-1.22,0.48c-0.32,0.32-0.48,0.73-0.48,1.22v23.82l-18.81-24.88c-0.15-0.21-0.38-0.38-0.67-0.48
		c-0.29-0.11-0.57-0.16-0.85-0.16c-0.49,0-0.91,0.17-1.26,0.51c-0.35,0.34-0.53,0.78-0.53,1.33v28.66c0,0.49,0.15,0.9,0.46,1.22
		c0.31,0.32,0.71,0.48,1.2,0.48c0.52,0,0.94-0.16,1.27-0.48c0.32-0.32,0.48-0.73,0.48-1.22v-23.72l18.77,24.82
		c0.15,0.18,0.37,0.33,0.64,0.44c0.28,0.11,0.55,0.16,0.83,0.16c0.52,0,0.97-0.18,1.33-0.53c0.37-0.35,0.55-0.82,0.55-1.4v-28.57
		C390.98,336.1,390.83,335.7,390.52,335.37z M147.46,419.85c0.09,0.25,0.14,0.49,0.14,0.74c0,0.55-0.18,0.99-0.55,1.31
		c-0.37,0.32-0.78,0.48-1.24,0.48c-0.37,0-0.71-0.11-1.01-0.32c-0.31-0.21-0.54-0.52-0.69-0.92l-3.1-7.45h-14.56l-3.08,7.5
		c-0.12,0.37-0.34,0.66-0.64,0.87c-0.31,0.21-0.63,0.32-0.97,0.32c-0.58,0-1.01-0.15-1.29-0.46c-0.28-0.31-0.41-0.67-0.41-1.1
		c-0.03-0.21,0-0.44,0.09-0.69l11.91-28.98c0.15-0.43,0.39-0.74,0.71-0.94c0.32-0.2,0.68-0.28,1.08-0.25c0.4,0,0.76,0.11,1.08,0.32
		c0.32,0.21,0.54,0.51,0.67,0.87L147.46,419.85z M139.51,410.1l-5.84-14.02l-5.76,14.02H139.51z M176.49,390.09
		c-0.49,0-0.9,0.16-1.22,0.48c-0.32,0.32-0.48,0.73-0.48,1.22v23.82l-18.81-24.88c-0.15-0.21-0.38-0.38-0.67-0.48
		c-0.29-0.11-0.58-0.16-0.85-0.16c-0.49,0-0.91,0.17-1.27,0.51c-0.35,0.34-0.53,0.78-0.53,1.33v28.66c0,0.49,0.15,0.9,0.46,1.22
		c0.31,0.32,0.71,0.48,1.2,0.48c0.52,0,0.94-0.16,1.27-0.48c0.32-0.32,0.48-0.73,0.48-1.22v-23.72l18.77,24.82
		c0.15,0.18,0.37,0.33,0.64,0.44c0.28,0.11,0.55,0.16,0.83,0.16c0.52,0,0.97-0.18,1.33-0.53c0.37-0.35,0.55-0.82,0.55-1.4v-28.57
		c0-0.49-0.15-0.9-0.46-1.22C177.42,390.25,177.01,390.09,176.49,390.09z M188.17,390.09c-0.55,0-1.01,0.18-1.38,0.53
		c-0.37,0.35-0.55,0.8-0.55,1.36v28.43c0,0.52,0.17,0.97,0.51,1.33c0.34,0.37,0.8,0.55,1.38,0.55c0.52,0,0.97-0.18,1.36-0.55
		c0.38-0.37,0.58-0.81,0.58-1.33v-28.43c0-0.55-0.18-1-0.55-1.36C189.14,390.27,188.69,390.09,188.17,390.09z M226.17,390.04
		c-0.64-0.03-1.17,0.25-1.56,0.83l-11.53,17.21l-11.38-17.21c-0.18-0.25-0.44-0.44-0.76-0.6c-0.32-0.15-0.62-0.23-0.9-0.23
		c-0.55,0-1,0.19-1.36,0.58c-0.35,0.38-0.53,0.82-0.53,1.31v28.47c0,0.52,0.16,0.97,0.48,1.33c0.32,0.37,0.74,0.55,1.27,0.55
		c0.52,0,0.95-0.18,1.29-0.55c0.34-0.37,0.51-0.81,0.51-1.33v-23.26l9.75,15.03c0.18,0.21,0.41,0.4,0.69,0.55
		c0.28,0.15,0.55,0.23,0.83,0.23s0.54-0.08,0.81-0.23c0.26-0.15,0.48-0.34,0.67-0.55l9.71-14.77v23c0,0.52,0.18,0.97,0.55,1.33
		c0.37,0.37,0.83,0.55,1.38,0.55c0.55,0,1.01-0.18,1.38-0.55c0.37-0.37,0.55-0.81,0.55-1.33v-28.47c0-0.55-0.18-1-0.55-1.33
		C227.09,390.26,226.66,390.08,226.17,390.04z M260.48,419.85c0.09,0.25,0.14,0.49,0.14,0.74c0,0.55-0.18,0.99-0.55,1.31
		c-0.37,0.32-0.78,0.48-1.24,0.48c-0.37,0-0.71-0.11-1.01-0.32c-0.31-0.21-0.54-0.52-0.69-0.92l-3.1-7.45h-14.56l-3.08,7.5
		c-0.12,0.37-0.34,0.66-0.64,0.87c-0.31,0.21-0.63,0.32-0.97,0.32c-0.58,0-1.01-0.15-1.29-0.46c-0.28-0.31-0.41-0.67-0.41-1.1
		c-0.03-0.21,0-0.44,0.09-0.69l11.91-28.98c0.15-0.43,0.39-0.74,0.71-0.94c0.32-0.2,0.68-0.28,1.08-0.25c0.4,0,0.76,0.11,1.08,0.32
		c0.32,0.21,0.54,0.51,0.67,0.87L260.48,419.85z M252.53,410.1l-5.84-14.03l-5.76,14.03H252.53z M283.44,418.66H269.5v-26.73
		c0-0.52-0.18-0.96-0.55-1.31c-0.37-0.35-0.81-0.53-1.33-0.53c-0.55,0-1.01,0.18-1.38,0.53c-0.37,0.35-0.55,0.79-0.55,1.31v28.47
		c0,0.52,0.18,0.97,0.53,1.33c0.35,0.37,0.79,0.55,1.31,0.55h15.92c0.52,0,0.97-0.17,1.33-0.51c0.37-0.34,0.55-0.77,0.55-1.29
		c0-0.52-0.18-0.96-0.55-1.31C284.4,418.83,283.96,418.66,283.44,418.66z M307.95,407.25c-0.92-0.71-2.02-1.3-3.29-1.77
		c-1.27-0.48-2.66-0.9-4.16-1.27c-1.38-0.37-2.64-0.79-3.77-1.26c-1.13-0.48-2.04-1.09-2.71-1.84c-0.68-0.75-1.01-1.71-1.01-2.88
		c0-1.04,0.3-1.94,0.9-2.69c0.6-0.75,1.43-1.33,2.51-1.75c1.07-0.41,2.32-0.62,3.73-0.62c0.95,0,1.9,0.14,2.85,0.41
		c0.95,0.28,1.82,0.64,2.62,1.1c0.8,0.46,1.46,0.98,1.98,1.56c0.28,0.25,0.58,0.37,0.92,0.37c0.49,0,0.93-0.19,1.31-0.58
		c0.38-0.38,0.57-0.8,0.57-1.26c0-0.55-0.31-1.12-0.92-1.7c-1.01-1.07-2.35-1.92-4.03-2.53c-1.67-0.61-3.44-0.92-5.31-0.92
		c-2.12,0-3.99,0.36-5.61,1.08c-1.63,0.72-2.9,1.74-3.82,3.06c-0.92,1.32-1.38,2.85-1.38,4.6c0,1.38,0.24,2.58,0.71,3.61
		c0.48,1.03,1.14,1.9,2,2.62c0.86,0.72,1.88,1.33,3.06,1.82c1.18,0.49,2.48,0.9,3.89,1.24c1.59,0.37,3,0.82,4.21,1.36
		c1.21,0.54,2.16,1.2,2.85,2c0.69,0.8,1.05,1.81,1.08,3.04c0,1.01-0.32,1.9-0.97,2.67c-0.64,0.77-1.51,1.36-2.6,1.79
		c-1.09,0.43-2.31,0.64-3.66,0.64c-1.75,0-3.32-0.31-4.71-0.92c-1.4-0.61-2.69-1.5-3.89-2.67c-0.34-0.34-0.72-0.51-1.15-0.51
		c-0.52,0-0.96,0.19-1.31,0.58c-0.35,0.38-0.53,0.82-0.53,1.31c0,0.31,0.07,0.59,0.21,0.85c0.14,0.26,0.31,0.5,0.53,0.71
		c1.59,1.47,3.25,2.55,4.97,3.22c1.72,0.67,3.71,1.01,5.98,1.01c2.05-0.03,3.9-0.42,5.54-1.17c1.64-0.75,2.94-1.79,3.89-3.1
		c0.95-1.32,1.43-2.82,1.43-4.51c0-1.59-0.25-2.94-0.76-4.02C309.59,408.85,308.87,407.95,307.95,407.25z"/>
</g>
<g id="Layer_18">
</g>
<g id="Layer_19">
</g>
<g id="Layer_20">
</g>
<g id="Layer_21">
</g>
<g id="Layer_22">
</g>
<g id="Layer_23">
</g>
<g id="Layer_24">
</g>
<g id="Layer_25">
</g>
<g id="Layer_26">
</g>
<g id="Layer_27">
</g>
<g id="Layer_28">
</g>
<g id="Layer_29">
</g>
<g id="Layer_30">
</g>
<g id="Layer_31">
</g>
<g id="Layer_2">
</g>
<g id="Layer_3">
</g>
<g id="Layer_4">
</g>
<g id="Layer_5">
</g>
<g id="Layer_6">
</g>
<g id="Layer_7">
</g>
<g id="Layer_8">
</g>
<g id="Layer_9">
</g>
<g id="Layer_10">
</g>
<g id="Layer_11">
</g>
<g id="Layer_12">
</g>
<g id="Layer_13">
</g>
<g id="Layer_14">
</g>
<g id="Layer_15">
</g>
<g id="Layer_16">
</g>
<g id="Layer_32">
</g>
<g id="Layer_33">
</g>
<g id="Layer_34">
</g>
<g id="Layer_35">
</g>
<g id="Layer_49">
</g>
<g id="Layer_50">
</g>
<g id="Layer_51">
</g>
</svg>
