<?xml version="1.0" encoding="utf-8"?>
<!-- Generator: Adobe Illustrator 23.0.1, SVG Export Plug-In . SVG Version: 6.00 Build 0)  -->
<svg version="1.1" xmlns="http://www.w3.org/2000/svg" xmlns:xlink="http://www.w3.org/1999/xlink" x="0px" y="0px"
	 viewBox="0 0 432 432" enable-background="new 0 0 432 432" xml:space="preserve">
<g id="Layer_37">
</g>
<g id="Layer_47">
</g>
<g id="Layer_42">
</g>
<g id="Layer_43">
</g>
<g id="Layer_44">
</g>
<g id="Layer_45">
</g>
<g id="Layer_46">
</g>
<g id="Layer_38">
</g>
<g id="Layer_39">
</g>
<g id="Layer_40">
</g>
<g id="Layer_41">
	<path d="M68.5,165c0-81.33,66.17-147.5,147.5-147.5S363.5,83.67,363.5,165S297.33,312.5,216,312.5S68.5,246.33,68.5,165z M73.5,165
		c0,78.57,63.93,142.5,142.5,142.5S358.5,243.57,358.5,165S294.57,22.5,216,22.5S73.5,86.43,73.5,165z M128.41,241.31
		c-8.84-10.15-7.78-25.6,2.37-34.44c9.51-8.29,23.68-7.87,32.7,0.57l21.93-19.1c-4.96-6.48-7.91-14.57-7.91-23.34
		c0-20.39,15.93-37.12,36-38.41V97.52c-12.29-1.26-21.91-11.67-21.91-24.28c0-13.46,10.95-24.41,24.41-24.41
		s24.41,10.95,24.41,24.41c0,12.62-9.62,23.03-21.91,24.28v29.07c19.24,1.24,34.67,16.67,35.91,35.91h29.07
		c1.26-12.29,11.67-21.91,24.28-21.91c13.46,0,24.41,10.95,24.41,24.41s-10.95,24.41-24.41,24.41c-12.62,0-23.03-9.62-24.28-21.91
		h-29.07c-1.29,20.07-18.02,36-38.41,36c-10.67,0-20.33-4.36-27.31-11.39l-21.93,19.1c7.13,10.09,5.6,24.18-3.92,32.47
		c-4.62,4.02-10.33,5.99-16.02,5.99C140.01,249.68,133.23,246.84,128.41,241.31z M288.35,165c0,10.7,8.71,19.41,19.41,19.41
		s19.41-8.71,19.41-19.41s-8.71-19.41-19.41-19.41S288.35,154.3,288.35,165z M216,92.65c10.7,0,19.41-8.71,19.41-19.41
		S226.7,53.83,216,53.83s-19.41,8.71-19.41,19.41S205.3,92.65,216,92.65z M182.5,165c0,18.47,15.03,33.5,33.5,33.5
		s33.5-15.03,33.5-33.5s-15.03-33.5-33.5-33.5S182.5,146.53,182.5,165z M132.18,238.03c7.03,8.07,19.31,8.91,27.38,1.88
		c8.07-7.03,8.92-19.31,1.89-27.38c-3.83-4.4-9.23-6.65-14.65-6.65c-4.52,0-9.07,1.57-12.74,4.77
		C125.99,217.67,125.15,229.96,132.18,238.03z"/>
	<path id="nitrates_free" d="M149.25,363.92c-0.34-0.21-0.6-0.51-0.78-0.9c-0.18-0.38-0.32-0.91-0.41-1.59
		c-0.09-0.67-0.17-1.58-0.23-2.71c-0.03-1.29-0.31-2.42-0.83-3.38c-0.52-0.97-1.2-1.76-2.02-2.39c-0.41-0.31-0.85-0.57-1.31-0.79
		c0.91-0.41,1.73-0.96,2.46-1.65c0.86-0.81,1.53-1.78,2.02-2.9c0.49-1.12,0.74-2.32,0.74-3.61c0-1.78-0.41-3.35-1.22-4.72
		c-0.81-1.36-1.91-2.44-3.29-3.22s-2.93-1.17-4.65-1.17h-12.7c-0.52,0-0.96,0.18-1.31,0.53c-0.35,0.35-0.53,0.79-0.53,1.31v28.47
		c0,0.52,0.21,0.97,0.62,1.33c0.41,0.37,0.91,0.55,1.5,0.55c0.52,0,0.94-0.18,1.24-0.55c0.31-0.37,0.46-0.81,0.46-1.33v-11.18h9.71
		c0.67,0,1.33,0.08,1.98,0.23s1.23,0.43,1.75,0.83s0.94,0.92,1.24,1.56c0.31,0.64,0.46,1.46,0.46,2.44c0,1.75,0.15,3.13,0.46,4.14
		c0.31,1.01,0.69,1.79,1.15,2.32c0.46,0.54,0.94,0.94,1.43,1.22c0.25,0.15,0.54,0.25,0.87,0.28c0.34,0.03,0.67-0.01,1.01-0.12
		c0.34-0.11,0.6-0.3,0.78-0.58c0.31-0.43,0.39-0.87,0.25-1.33S149.68,364.2,149.25,363.92z M142.24,349.8
		c-0.78,0.55-1.62,0.86-2.51,0.92h-10.72v-12.28h10.49c1.56,0,2.86,0.54,3.89,1.61c1.03,1.07,1.54,2.42,1.54,4.05
		c0,1.26-0.25,2.38-0.76,3.38C143.67,348.47,143.02,349.25,142.24,349.8z M205.65,335.38c0.37,0.32,0.55,0.74,0.55,1.26
		c0,0.55-0.18,0.98-0.55,1.29s-0.81,0.46-1.33,0.46h-8.74v26.82c0,0.52-0.18,0.97-0.55,1.33c-0.37,0.37-0.84,0.55-1.43,0.55
		c-0.55,0-1.01-0.18-1.38-0.55c-0.37-0.37-0.55-0.81-0.55-1.33v-26.82h-8.74c-0.52,0-0.96-0.16-1.31-0.48
		c-0.35-0.32-0.53-0.74-0.53-1.26s0.18-0.94,0.53-1.26c0.35-0.32,0.79-0.48,1.31-0.48h21.39
		C204.84,334.89,205.28,335.05,205.65,335.38z M168.85,335.95c-0.12-0.37-0.34-0.66-0.67-0.87c-0.32-0.21-0.68-0.32-1.08-0.32
		c-0.4-0.03-0.76,0.05-1.08,0.25c-0.32,0.2-0.56,0.51-0.71,0.94l-11.91,28.98c-0.09,0.25-0.12,0.48-0.09,0.69
		c0,0.43,0.14,0.8,0.41,1.1c0.28,0.31,0.71,0.46,1.29,0.46c0.34,0,0.66-0.11,0.97-0.32c0.31-0.21,0.52-0.51,0.64-0.87l3.08-7.5
		h14.56l3.1,7.45c0.15,0.4,0.38,0.71,0.69,0.92c0.31,0.21,0.64,0.32,1.01,0.32c0.46,0,0.87-0.16,1.24-0.48
		c0.37-0.32,0.55-0.76,0.55-1.31c0-0.25-0.05-0.49-0.14-0.74L168.85,335.95z M161.17,354.9l5.76-14.02l5.84,14.02H161.17z
		 M119.13,335.38c0.37,0.32,0.55,0.74,0.55,1.26c0,0.55-0.18,0.98-0.55,1.29s-0.81,0.46-1.33,0.46h-8.74v26.82
		c0,0.52-0.18,0.97-0.55,1.33c-0.37,0.37-0.84,0.55-1.43,0.55c-0.55,0-1.01-0.18-1.38-0.55c-0.37-0.37-0.55-0.81-0.55-1.33v-26.82
		H96.4c-0.52,0-0.96-0.16-1.31-0.48c-0.35-0.32-0.53-0.74-0.53-1.26s0.18-0.94,0.53-1.26c0.35-0.32,0.79-0.48,1.31-0.48h21.39
		C118.31,334.89,118.76,335.05,119.13,335.38z M88.44,335.42c0.37,0.35,0.55,0.8,0.55,1.36v28.43c0,0.52-0.19,0.97-0.58,1.33
		c-0.38,0.37-0.84,0.55-1.36,0.55c-0.58,0-1.04-0.18-1.38-0.55c-0.34-0.37-0.51-0.81-0.51-1.33v-28.43c0-0.55,0.18-1,0.55-1.36
		c0.37-0.35,0.83-0.53,1.38-0.53C87.63,334.89,88.08,335.07,88.44,335.42z M76.67,335.38c0.31,0.32,0.46,0.73,0.46,1.22v28.57
		c0,0.58-0.18,1.05-0.55,1.4c-0.37,0.35-0.81,0.53-1.33,0.53c-0.28,0-0.55-0.05-0.83-0.16c-0.28-0.11-0.49-0.25-0.64-0.44L55,341.68
		v23.72c0,0.49-0.16,0.9-0.48,1.22c-0.32,0.32-0.74,0.48-1.27,0.48c-0.49,0-0.89-0.16-1.2-0.48c-0.31-0.32-0.46-0.73-0.46-1.22
		v-28.66c0-0.55,0.18-1,0.53-1.33c0.35-0.34,0.77-0.51,1.26-0.51c0.28,0,0.56,0.05,0.85,0.16c0.29,0.11,0.51,0.27,0.67,0.48
		l18.81,24.88V336.6c0-0.49,0.16-0.9,0.48-1.22c0.32-0.32,0.73-0.48,1.22-0.48C75.95,334.89,76.36,335.05,76.67,335.38z
		 M379.85,364.06c0.37,0.37,0.55,0.78,0.55,1.24c0,0.52-0.18,0.95-0.55,1.29c-0.37,0.34-0.81,0.51-1.33,0.51h-16.38
		c-0.52,0-0.96-0.18-1.31-0.55c-0.35-0.37-0.53-0.81-0.53-1.33v-28.47c0-0.52,0.18-0.96,0.53-1.31c0.35-0.35,0.79-0.53,1.31-0.53
		h16.38c0.52,0,0.97,0.17,1.33,0.51c0.37,0.34,0.55,0.77,0.55,1.29s-0.18,0.94-0.55,1.26c-0.37,0.32-0.81,0.48-1.33,0.48h-14.4
		v10.35h12.33c0.52,0,0.97,0.17,1.33,0.51c0.37,0.34,0.55,0.77,0.55,1.29c0,0.52-0.18,0.94-0.55,1.27
		c-0.37,0.32-0.81,0.48-1.33,0.48h-12.33v11.18h14.4C379.04,363.51,379.48,363.69,379.85,364.06z M327.04,363.92
		c-0.34-0.21-0.6-0.51-0.78-0.9c-0.18-0.38-0.32-0.91-0.41-1.59c-0.09-0.67-0.17-1.58-0.23-2.71c-0.03-1.29-0.31-2.42-0.83-3.38
		c-0.52-0.97-1.2-1.76-2.02-2.39c-0.41-0.31-0.85-0.57-1.31-0.79c0.91-0.41,1.73-0.96,2.46-1.65c0.86-0.81,1.53-1.78,2.02-2.9
		c0.49-1.12,0.74-2.32,0.74-3.61c0-1.78-0.41-3.35-1.22-4.72c-0.81-1.36-1.91-2.44-3.29-3.22s-2.93-1.17-4.65-1.17h-12.7
		c-0.52,0-0.96,0.18-1.31,0.53c-0.35,0.35-0.53,0.79-0.53,1.31v28.47c0,0.52,0.21,0.97,0.62,1.33c0.41,0.37,0.91,0.55,1.5,0.55
		c0.52,0,0.94-0.18,1.24-0.55c0.31-0.37,0.46-0.81,0.46-1.33v-11.18h9.71c0.67,0,1.33,0.08,1.98,0.23s1.23,0.43,1.75,0.83
		s0.94,0.92,1.24,1.56c0.31,0.64,0.46,1.46,0.46,2.44c0,1.75,0.15,3.13,0.46,4.14c0.31,1.01,0.69,1.79,1.15,2.32
		c0.46,0.54,0.94,0.94,1.43,1.22c0.25,0.15,0.54,0.25,0.87,0.28c0.34,0.03,0.67-0.01,1.01-0.12c0.34-0.11,0.6-0.3,0.78-0.58
		c0.31-0.43,0.39-0.87,0.25-1.33S327.47,364.2,327.04,363.92z M320.03,349.8c-0.78,0.55-1.62,0.86-2.51,0.92H306.8v-12.28h10.49
		c1.56,0,2.86,0.54,3.89,1.61c1.03,1.07,1.54,2.42,1.54,4.05c0,1.26-0.25,2.38-0.76,3.38C321.45,348.47,320.81,349.25,320.03,349.8z
		 M215.54,338.44v10.35h12.33c0.52,0,0.97,0.17,1.33,0.51c0.37,0.34,0.55,0.77,0.55,1.29c0,0.52-0.18,0.94-0.55,1.27
		c-0.37,0.32-0.81,0.48-1.33,0.48h-12.33v11.18h14.4c0.52,0,0.97,0.18,1.33,0.55c0.37,0.37,0.55,0.78,0.55,1.24
		c0,0.52-0.18,0.95-0.55,1.29c-0.37,0.34-0.81,0.51-1.33,0.51h-16.38c-0.52,0-0.96-0.18-1.31-0.55c-0.35-0.37-0.53-0.81-0.53-1.33
		v-28.47c0-0.52,0.18-0.96,0.53-1.31c0.35-0.35,0.79-0.53,1.31-0.53h16.38c0.52,0,0.97,0.17,1.33,0.51
		c0.37,0.34,0.55,0.77,0.55,1.29s-0.18,0.94-0.55,1.26c-0.37,0.32-0.81,0.48-1.33,0.48H215.54z M337.9,338.44v10.35h12.33
		c0.52,0,0.97,0.17,1.33,0.51c0.37,0.34,0.55,0.77,0.55,1.29c0,0.52-0.18,0.94-0.55,1.27c-0.37,0.32-0.81,0.48-1.33,0.48H337.9
		v11.18h14.4c0.52,0,0.97,0.18,1.33,0.55c0.37,0.37,0.55,0.78,0.55,1.24c0,0.52-0.18,0.95-0.55,1.29c-0.37,0.34-0.81,0.51-1.33,0.51
		h-16.38c-0.52,0-0.96-0.18-1.31-0.55c-0.35-0.37-0.53-0.81-0.53-1.33v-28.47c0-0.52,0.18-0.96,0.53-1.31
		c0.35-0.35,0.79-0.53,1.31-0.53h16.38c0.52,0,0.97,0.17,1.33,0.51c0.37,0.34,0.55,0.77,0.55,1.29s-0.18,0.94-0.55,1.26
		c-0.37,0.32-0.81,0.48-1.33,0.48H337.9z M296.32,335.4c0.37,0.34,0.55,0.77,0.55,1.29c0,0.49-0.18,0.91-0.55,1.24
		c-0.37,0.34-0.81,0.51-1.33,0.51h-14.21v10.4h12.14c0.52,0,0.97,0.18,1.33,0.53c0.37,0.35,0.55,0.79,0.55,1.31
		c0,0.46-0.18,0.87-0.55,1.22c-0.37,0.35-0.81,0.53-1.33,0.53h-12.14v12.79c0,0.52-0.18,0.97-0.55,1.33
		c-0.37,0.37-0.81,0.55-1.33,0.55c-0.55,0-1-0.18-1.36-0.55c-0.35-0.37-0.53-0.81-0.53-1.33v-28.47c0-0.52,0.18-0.96,0.53-1.31
		c0.35-0.35,0.79-0.53,1.31-0.53h16.15C295.5,334.89,295.95,335.06,296.32,335.4z M257.42,354.74c0.51,1.09,0.76,2.43,0.76,4.03
		c0,1.69-0.48,3.19-1.43,4.51c-0.95,1.32-2.25,2.35-3.89,3.11c-1.64,0.75-3.49,1.14-5.54,1.17c-2.27,0-4.26-0.34-5.98-1.01
		c-1.72-0.67-3.37-1.75-4.97-3.22c-0.21-0.21-0.39-0.45-0.53-0.71c-0.14-0.26-0.21-0.54-0.21-0.85c0-0.49,0.18-0.93,0.53-1.31
		c0.35-0.38,0.79-0.58,1.31-0.58c0.43,0,0.81,0.17,1.15,0.51c1.2,1.17,2.49,2.05,3.89,2.67c1.4,0.61,2.97,0.92,4.71,0.92
		c1.35,0,2.57-0.21,3.66-0.64c1.09-0.43,1.96-1.03,2.6-1.79c0.64-0.77,0.97-1.66,0.97-2.67c-0.03-1.23-0.39-2.24-1.08-3.04
		c-0.69-0.8-1.64-1.46-2.85-2c-1.21-0.54-2.61-0.99-4.21-1.36c-1.41-0.34-2.71-0.75-3.89-1.24c-1.18-0.49-2.2-1.1-3.06-1.82
		c-0.86-0.72-1.53-1.59-2-2.62c-0.48-1.03-0.71-2.23-0.71-3.61c0-1.75,0.46-3.28,1.38-4.6c0.92-1.32,2.19-2.34,3.82-3.06
		c1.63-0.72,3.5-1.08,5.61-1.08c1.87,0,3.64,0.31,5.31,0.92c1.67,0.61,3.01,1.46,4.03,2.53c0.61,0.58,0.92,1.15,0.92,1.7
		c0,0.46-0.19,0.88-0.58,1.26c-0.38,0.38-0.82,0.58-1.31,0.58c-0.34,0-0.64-0.12-0.92-0.37c-0.52-0.58-1.18-1.1-1.98-1.56
		c-0.8-0.46-1.67-0.83-2.62-1.1c-0.95-0.28-1.9-0.41-2.85-0.41c-1.41,0-2.65,0.21-3.73,0.62c-1.07,0.41-1.91,1-2.51,1.75
		c-0.6,0.75-0.9,1.65-0.9,2.69c0,1.17,0.34,2.12,1.01,2.88c0.67,0.75,1.58,1.37,2.71,1.84c1.13,0.48,2.39,0.9,3.77,1.26
		c1.5,0.37,2.89,0.79,4.16,1.26c1.27,0.48,2.37,1.07,3.29,1.77S256.92,353.65,257.42,354.74z"/>
</g>
<g id="Layer_17">
</g>
<g id="Layer_18">
</g>
<g id="Layer_19">
</g>
<g id="Layer_20">
</g>
<g id="Layer_21">
</g>
<g id="Layer_22">
</g>
<g id="Layer_23">
</g>
<g id="Layer_24">
</g>
<g id="Layer_25">
</g>
<g id="Layer_26">
</g>
<g id="Layer_27">
</g>
<g id="Layer_28">
</g>
<g id="Layer_29">
</g>
<g id="Layer_30">
</g>
<g id="Layer_31">
</g>
<g id="Layer_2">
</g>
<g id="Layer_3">
</g>
<g id="Layer_4">
</g>
<g id="Layer_5">
</g>
<g id="Layer_6">
</g>
<g id="Layer_7">
</g>
<g id="Layer_8">
</g>
<g id="Layer_9">
</g>
<g id="Layer_10">
</g>
<g id="Layer_11">
</g>
<g id="Layer_12">
</g>
<g id="Layer_13">
</g>
<g id="Layer_14">
</g>
<g id="Layer_15">
</g>
<g id="Layer_16">
</g>
<g id="Layer_32">
</g>
<g id="Layer_33">
</g>
<g id="Layer_34">
</g>
<g id="Layer_35">
</g>
<g id="Layer_49">
</g>
<g id="Layer_50">
</g>
<g id="Layer_51">
</g>
</svg>
