<?xml version="1.0" encoding="utf-8"?>
<!-- Generator: Adobe Illustrator 23.0.1, SVG Export Plug-In . SVG Version: 6.00 Build 0)  -->
<svg version="1.1" xmlns="http://www.w3.org/2000/svg" xmlns:xlink="http://www.w3.org/1999/xlink" x="0px" y="0px"
	 viewBox="0 0 432 432" enable-background="new 0 0 432 432" xml:space="preserve">
<g id="Layer_37">
</g>
<g id="Layer_47">
</g>
<g id="Layer_42">
</g>
<g id="Layer_43">
</g>
<g id="Layer_44">
</g>
<g id="Layer_45">
</g>
<g id="Layer_46">
</g>
<g id="Layer_38">
</g>
<g id="Layer_39">
</g>
<g id="Layer_40">
</g>
<g id="Layer_41">
</g>
<g id="Layer_17">
</g>
<g id="Layer_18">
</g>
<g id="Layer_19">
</g>
<g id="Layer_20">
</g>
<g id="Layer_21">
</g>
<g id="Layer_22">
</g>
<g id="Layer_23">
</g>
<g id="Layer_24">
</g>
<g id="Layer_25">
</g>
<g id="Layer_26">
</g>
<g id="Layer_27">
</g>
<g id="Layer_28">
</g>
<g id="Layer_29">
</g>
<g id="Layer_30">
</g>
<g id="Layer_31">
</g>
<g id="Layer_2">
</g>
<g id="Layer_3">
</g>
<g id="Layer_4">
</g>
<g id="Layer_5">
</g>
<g id="Layer_6">
</g>
<g id="Layer_7">
</g>
<g id="Layer_8">
</g>
<g id="Layer_9">
</g>
<g id="Layer_10">
</g>
<g id="Layer_11">
</g>
<g id="Layer_12">
</g>
<g id="Layer_13">
</g>
<g id="Layer_14">
	<path d="M217.92,199.13c-35.45,0-88.2,5.17-88.2,19.43v70.33c0,14.25,52.74,19.43,88.2,19.43s88.2-5.17,88.2-19.43v-70.33
		C306.12,204.3,253.37,199.13,217.92,199.13z M217.92,204.13c54.62,0,83.2,9.39,83.2,14.43s-28.57,14.43-83.2,14.43
		s-83.2-9.39-83.2-14.43S163.3,204.13,217.92,204.13z M217.92,303.31c-54.62,0-83.2-9.39-83.2-14.43v-63.32
		c13.97,8.98,54.32,12.41,83.2,12.41c28.88,0,69.22-3.43,83.2-12.41v63.32C301.12,293.92,272.54,303.31,217.92,303.31z
		 M156.41,192.27c0.95,0,1.92-0.01,2.91-0.03c16.65-0.29,38.23-3.14,60.76-8c34.65-7.48,85.12-23.68,82.11-37.61l-3.79-17.53
		c0,0,0,0,0,0c-0.7-3.24-4.63-6.73-28.95-4.92c-16.41,1.22-37.83,4.57-60.31,9.42c-22.48,4.86-43.37,10.65-58.82,16.31
		c-22.9,8.39-25.04,13.19-24.33,16.43l3.79,17.53C131,189.52,139.72,192.27,156.41,192.27z M219.03,179.36
		c-22.22,4.8-43.45,7.6-59.79,7.89c-18.62,0.34-24.21-2.75-24.57-4.43l-2.59-12.01c2.53,0.59,6.09,0.95,11.12,0.95
		c3.26,0,7.14-0.15,11.75-0.5c16.41-1.22,37.83-4.57,60.31-9.42c22.48-4.86,43.38-10.65,58.83-16.31
		c11.04-4.04,17.24-7.25,20.64-9.86l2.59,12.01C298.37,152.61,272.42,167.82,219.03,179.36z M154.18,153.84
		c15-5.33,34.9-10.78,56.02-15.35c21.12-4.56,41.49-7.81,57.36-9.14c19.35-1.63,24.55,0.2,25.75,0.86c-0.82,1.09-4.8,4.9-23.1,11.41
		c-15.01,5.33-34.9,10.78-56.02,15.35c-21.12,4.56-41.49,7.81-57.36,9.14c-19.35,1.63-24.55-0.2-25.75-0.86
		C131.9,164.15,135.89,160.34,154.18,153.84z M204.97,256.23c-0.92-1.15-2.05-2.06-3.38-2.74c-1.33-0.67-2.84-1.01-4.53-1.01
		c-1.96,0-3.74,0.48-5.34,1.43c-1.59,0.95-2.86,2.22-3.79,3.82s-1.4,3.36-1.4,5.29c0,1.44,0.28,2.8,0.83,4.07
		c0.55,1.27,1.29,2.4,2.21,3.38s1.97,1.75,3.15,2.3s2.4,0.83,3.66,0.83c1.29,0,2.42-0.22,3.38-0.67c0.97-0.44,1.81-1,2.53-1.68
		c0.05-0.05,0.09-0.1,0.14-0.15c-0.39,1.19-0.93,2.31-1.66,3.37c-1.06,1.53-2.3,2.84-3.73,3.93c-1.43,1.09-2.91,1.89-4.44,2.42
		c-0.61,0.18-1.1,0.48-1.45,0.87c-0.35,0.4-0.53,0.89-0.53,1.47c0,0.77,0.24,1.33,0.71,1.68c0.47,0.35,1,0.53,1.59,0.53
		c0.28,0,0.58-0.05,0.92-0.14c2.18-0.64,4.05-1.58,5.61-2.81s2.88-2.61,3.96-4.14c1.07-1.53,1.93-3.12,2.58-4.76
		c0.64-1.64,1.1-3.23,1.38-4.76c0.28-1.53,0.41-2.9,0.41-4.09c0-1.56-0.24-3.07-0.71-4.53
		C206.58,258.69,205.89,257.38,204.97,256.23z M200.16,268.51c-0.9,0.57-1.96,0.85-3.15,0.85c-1.17,0-2.19-0.29-3.08-0.87
		c-0.89-0.58-1.57-1.36-2.05-2.32c-0.48-0.97-0.71-2.02-0.71-3.15c0-1.23,0.25-2.32,0.76-3.27c0.51-0.95,1.21-1.69,2.12-2.23
		c0.9-0.54,1.91-0.8,3.01-0.8c1.2,0,2.25,0.28,3.15,0.85c0.9,0.57,1.61,1.32,2.12,2.25c0.51,0.94,0.76,1.99,0.76,3.15
		s-0.26,2.24-0.78,3.22S201.06,267.95,200.16,268.51z M243.08,253.66c0.47,0.45,0.71,1,0.71,1.68v27.55c0,0.67-0.21,1.23-0.64,1.68
		c-0.43,0.45-1,0.67-1.7,0.67c-0.74,0-1.33-0.22-1.77-0.67c-0.45-0.44-0.67-1-0.67-1.68v-20.76l-8.65,13.17
		c-0.21,0.28-0.49,0.51-0.83,0.71s-0.69,0.28-1.06,0.25c-0.34,0.03-0.68-0.05-1.04-0.25c-0.35-0.2-0.64-0.44-0.85-0.71l-8.65-13.46
		v21.05c0,0.67-0.21,1.23-0.62,1.68c-0.41,0.45-0.96,0.67-1.63,0.67c-0.64,0-1.17-0.22-1.59-0.67c-0.41-0.44-0.62-1-0.62-1.68
		v-27.55c0-0.64,0.24-1.2,0.71-1.66c0.47-0.46,1.04-0.69,1.68-0.69c0.37,0,0.75,0.09,1.15,0.28c0.4,0.18,0.71,0.44,0.92,0.78
		l10.68,16.27l10.94-16.27c0.49-0.71,1.12-1.06,1.89-1.06C242.06,252.99,242.6,253.21,243.08,253.66z"/>
</g>
<g id="Layer_15">
</g>
<g id="Layer_16">
</g>
<g id="Layer_32">
</g>
<g id="Layer_33">
</g>
<g id="Layer_34">
</g>
<g id="Layer_35">
</g>
<g id="Layer_49">
</g>
<g id="Layer_50">
</g>
<g id="Layer_51">
</g>
</svg>
