<?xml version="1.0" encoding="utf-8"?>
<!-- Generator: Adobe Illustrator 23.0.1, SVG Export Plug-In . SVG Version: 6.00 Build 0)  -->
<svg version="1.1" xmlns="http://www.w3.org/2000/svg" xmlns:xlink="http://www.w3.org/1999/xlink" x="0px" y="0px"
	 viewBox="0 0 432 432" enable-background="new 0 0 432 432" xml:space="preserve">
<g id="Layer_37">
</g>
<g id="Layer_47">
</g>
<g id="Layer_42">
</g>
<g id="Layer_43">
</g>
<g id="Layer_44">
</g>
<g id="Layer_45">
</g>
<g id="Layer_46">
</g>
<g id="Layer_38">
</g>
<g id="Layer_39">
</g>
<g id="Layer_40">
	<path id="talc_free" d="M126.48,335.37c0.37,0.32,0.55,0.74,0.55,1.26c0,0.55-0.18,0.98-0.55,1.29c-0.37,0.31-0.81,0.46-1.33,0.46
		h-8.74v26.82c0,0.52-0.18,0.97-0.55,1.33c-0.37,0.37-0.84,0.55-1.43,0.55c-0.55,0-1.01-0.18-1.38-0.55
		c-0.37-0.37-0.55-0.81-0.55-1.33v-26.82h-8.74c-0.52,0-0.96-0.16-1.31-0.48s-0.53-0.74-0.53-1.27c0-0.52,0.18-0.94,0.53-1.26
		c0.35-0.32,0.79-0.48,1.31-0.48h21.39C125.67,334.89,126.12,335.05,126.48,335.37z M154.68,364.65c0.09,0.25,0.14,0.49,0.14,0.74
		c0,0.55-0.18,0.99-0.55,1.31c-0.37,0.32-0.78,0.48-1.24,0.48c-0.37,0-0.71-0.11-1.01-0.32c-0.31-0.21-0.54-0.52-0.69-0.92
		l-3.1-7.45h-14.56l-3.08,7.5c-0.12,0.37-0.34,0.66-0.64,0.87c-0.31,0.21-0.63,0.32-0.97,0.32c-0.58,0-1.01-0.15-1.29-0.46
		c-0.28-0.31-0.41-0.67-0.41-1.1c-0.03-0.21,0-0.44,0.09-0.69l11.91-28.98c0.15-0.43,0.39-0.74,0.71-0.94
		c0.32-0.2,0.68-0.28,1.08-0.25c0.4,0,0.76,0.11,1.08,0.32c0.32,0.21,0.54,0.51,0.67,0.87L154.68,364.65z M146.73,354.9l-5.84-14.03
		l-5.76,14.03H146.73z M177.64,363.46H163.7v-26.73c0-0.52-0.18-0.96-0.55-1.31c-0.37-0.35-0.81-0.53-1.33-0.53
		c-0.55,0-1.01,0.18-1.38,0.53c-0.37,0.35-0.55,0.79-0.55,1.31v28.47c0,0.52,0.18,0.97,0.53,1.33c0.35,0.37,0.79,0.55,1.31,0.55
		h15.92c0.52,0,0.97-0.17,1.33-0.51c0.37-0.34,0.55-0.77,0.55-1.29c0-0.52-0.18-0.96-0.55-1.31
		C178.6,363.63,178.16,363.46,177.64,363.46z M206.94,361.71c-0.43-0.06-0.86,0.02-1.29,0.23c-1.04,0.64-2.15,1.13-3.31,1.47
		c-1.17,0.34-2.38,0.51-3.63,0.51c-1.75,0-3.37-0.29-4.85-0.87c-1.49-0.58-2.79-1.43-3.91-2.55c-1.12-1.12-2-2.48-2.64-4.07
		c-0.64-1.59-0.97-3.4-0.97-5.43c0-1.9,0.31-3.63,0.92-5.2s1.47-2.91,2.58-4.05c1.1-1.13,2.41-2.02,3.91-2.65
		c1.5-0.63,3.16-0.94,4.97-0.94c1.29,0,2.51,0.18,3.68,0.53c1.17,0.35,2.25,0.84,3.27,1.45c0.43,0.21,0.86,0.31,1.29,0.28
		c0.43-0.03,0.78-0.25,1.06-0.64c0.37-0.46,0.51-0.97,0.44-1.52c-0.08-0.55-0.38-0.97-0.9-1.24c-1.26-0.8-2.64-1.41-4.16-1.84
		c-1.52-0.43-3.07-0.64-4.67-0.64c-2.3,0-4.44,0.41-6.42,1.24c-1.98,0.83-3.71,1.98-5.2,3.45c-1.49,1.47-2.65,3.21-3.47,5.2
		c-0.83,1.99-1.24,4.19-1.24,6.58c0,2.55,0.44,4.84,1.31,6.88c0.87,2.04,2.06,3.78,3.56,5.22c1.5,1.44,3.24,2.55,5.2,3.31
		c1.96,0.77,4.05,1.15,6.26,1.15c1.07,0,2.14-0.11,3.2-0.32c1.06-0.21,2.08-0.51,3.06-0.9c0.98-0.38,1.86-0.81,2.62-1.27
		c0.49-0.25,0.78-0.64,0.87-1.17c0.09-0.54-0.05-1.05-0.41-1.54C207.74,361.98,207.37,361.77,206.94,361.71z M244.66,334.89h-16.15
		c-0.52,0-0.96,0.18-1.31,0.53c-0.35,0.35-0.53,0.79-0.53,1.31v28.47c0,0.52,0.18,0.97,0.53,1.33c0.35,0.37,0.8,0.55,1.36,0.55
		c0.52,0,0.97-0.18,1.33-0.55c0.37-0.37,0.55-0.81,0.55-1.33v-12.79h12.14c0.52,0,0.97-0.18,1.33-0.53
		c0.37-0.35,0.55-0.76,0.55-1.22c0-0.52-0.18-0.96-0.55-1.31c-0.37-0.35-0.81-0.53-1.33-0.53h-12.14v-10.4h14.21
		c0.52,0,0.97-0.17,1.33-0.51c0.37-0.34,0.55-0.75,0.55-1.24c0-0.52-0.18-0.95-0.55-1.29C245.62,335.06,245.18,334.89,244.66,334.89
		z M277.57,365.02c0.14,0.46,0.05,0.9-0.25,1.33c-0.18,0.28-0.45,0.47-0.78,0.57c-0.34,0.11-0.67,0.15-1.01,0.12
		c-0.34-0.03-0.63-0.12-0.87-0.28c-0.49-0.28-0.97-0.68-1.43-1.22c-0.46-0.54-0.84-1.31-1.15-2.32c-0.31-1.01-0.46-2.39-0.46-4.14
		c0-0.98-0.15-1.79-0.46-2.44c-0.31-0.64-0.72-1.17-1.24-1.56c-0.52-0.4-1.1-0.67-1.75-0.83c-0.64-0.15-1.3-0.23-1.98-0.23h-9.71
		v11.18c0,0.52-0.15,0.97-0.46,1.33c-0.31,0.37-0.72,0.55-1.24,0.55c-0.58,0-1.08-0.18-1.5-0.55c-0.41-0.37-0.62-0.81-0.62-1.33
		v-28.47c0-0.52,0.18-0.96,0.53-1.31c0.35-0.35,0.79-0.53,1.31-0.53h12.7c1.72,0,3.27,0.39,4.65,1.17c1.38,0.78,2.48,1.86,3.29,3.22
		c0.81,1.37,1.22,2.94,1.22,4.72c0,1.29-0.25,2.49-0.74,3.61c-0.49,1.12-1.17,2.09-2.02,2.9c-0.73,0.69-1.55,1.23-2.46,1.65
		c0.46,0.22,0.9,0.48,1.31,0.79c0.83,0.63,1.5,1.43,2.02,2.39c0.52,0.97,0.8,2.09,0.83,3.38c0.06,1.13,0.14,2.04,0.23,2.71
		c0.09,0.68,0.23,1.2,0.41,1.59c0.18,0.38,0.44,0.68,0.78,0.9C277.15,364.19,277.43,364.56,277.57,365.02z M269.7,349.79
		c0.78-0.55,1.43-1.33,1.93-2.32c0.51-1,0.76-2.12,0.76-3.38c0-1.63-0.51-2.97-1.54-4.05c-1.03-1.07-2.32-1.61-3.89-1.61h-10.49
		v12.28h10.72C268.09,350.65,268.92,350.35,269.7,349.79z M301.97,338.43c0.52,0,0.97-0.16,1.33-0.48c0.37-0.32,0.55-0.74,0.55-1.26
		s-0.18-0.95-0.55-1.29c-0.37-0.34-0.81-0.51-1.33-0.51H285.6c-0.52,0-0.96,0.18-1.31,0.53c-0.35,0.35-0.53,0.79-0.53,1.31v28.47
		c0,0.52,0.18,0.97,0.53,1.33c0.35,0.37,0.79,0.55,1.31,0.55h16.38c0.52,0,0.97-0.17,1.33-0.51c0.37-0.34,0.55-0.77,0.55-1.29
		c0-0.46-0.18-0.87-0.55-1.24c-0.37-0.37-0.81-0.55-1.33-0.55h-14.4v-11.18h12.33c0.52,0,0.97-0.16,1.33-0.48
		c0.37-0.32,0.55-0.74,0.55-1.27c0-0.52-0.18-0.95-0.55-1.29c-0.37-0.34-0.81-0.51-1.33-0.51h-12.33v-10.35H301.97z M328.19,363.5
		h-14.4v-11.18h12.33c0.52,0,0.97-0.16,1.33-0.48c0.37-0.32,0.55-0.74,0.55-1.27c0-0.52-0.18-0.95-0.55-1.29
		c-0.37-0.34-0.81-0.51-1.33-0.51H313.8v-10.35h14.4c0.52,0,0.97-0.16,1.33-0.48c0.37-0.32,0.55-0.74,0.55-1.26
		s-0.18-0.95-0.55-1.29c-0.37-0.34-0.81-0.51-1.33-0.51h-16.38c-0.52,0-0.96,0.18-1.31,0.53c-0.35,0.35-0.53,0.79-0.53,1.31v28.47
		c0,0.52,0.18,0.97,0.53,1.33c0.35,0.37,0.79,0.55,1.31,0.55h16.38c0.52,0,0.97-0.17,1.33-0.51c0.37-0.34,0.55-0.77,0.55-1.29
		c0-0.46-0.18-0.87-0.55-1.24C329.16,363.69,328.71,363.5,328.19,363.5z"/>
	<path d="M216,17.5C134.67,17.5,68.5,83.67,68.5,165S134.67,312.5,216,312.5c81.33,0,147.5-66.17,147.5-147.5S297.33,17.5,216,17.5z
		 M216,307.5c-78.57,0-142.5-63.93-142.5-142.5S137.43,22.5,216,22.5c78.57,0,142.5,63.93,142.5,142.5S294.57,307.5,216,307.5z
		 M162,221.44c0.98,0.98,0.98,2.58,0,3.56c-0.98,0.98-2.58,0.98-3.56,0s-0.98-2.58,0-3.56S161.02,220.46,162,221.44z M172.64,232.08
		c1.03,0.94,1.1,2.53,0.16,3.56c-0.94,1.03-2.53,1.1-3.56,0.16s-1.1-2.53-0.16-3.56C170.02,231.21,171.61,231.14,172.64,232.08z
		 M162.96,209.93c0.94,1.03,0.87,2.62-0.16,3.56c-1.03,0.94-2.62,0.87-3.56-0.16c-0.94-1.03-0.87-2.62,0.16-3.56
		C160.43,208.83,162.02,208.9,162.96,209.93z M161.2,233.12c0.94,1.03,0.87,2.62-0.16,3.56c-1.03,0.94-2.62,0.87-3.56-0.16
		c-0.94-1.03-0.87-2.62,0.16-3.56C158.67,232.02,160.26,232.09,161.2,233.12z M150.33,222.25c1.03,0.94,1.1,2.53,0.16,3.56
		c-0.94,1.03-2.53,1.1-3.56,0.16s-1.1-2.53-0.16-3.56C147.71,221.38,149.3,221.31,150.33,222.25z M151.37,210.81
		c0.94,1.03,0.87,2.62-0.16,3.56c-1.03,0.94-2.62,0.87-3.56-0.16c-0.94-1.03-0.87-2.62,0.16-3.56
		C148.83,209.71,150.43,209.78,151.37,210.81z M173.52,220.49c1.03,0.94,1.1,2.53,0.16,3.56c-0.94,1.03-2.53,1.1-3.56,0.16
		s-1.1-2.53-0.16-3.56S172.49,219.55,173.52,220.49z M185.96,208.84c0.94-1.03,2.53-1.1,3.56-0.16c1.03,0.94,1.1,2.53,0.16,3.56
		s-2.53,1.1-3.56,0.16S185.02,209.87,185.96,208.84z M250.67,81.65c-8.63,0.52-13.36,7.42-21.19,18.85
		c-7.25,10.59-17.18,25.09-35.6,43.5c-3.96,3.96-13.43,11.32-21.04,17.25l-1.03,0.8c-3.19,2.48-5.16,6.21-5.41,10.24
		c-0.2,3.19,0.71,6.32,2.51,8.91l-7.49,7.49c-1.68,1.68-2.61,3.92-2.61,6.3s0.93,4.62,2.61,6.3l20.76,20.76
		c1.74,1.74,4.02,2.6,6.3,2.6c2.28,0,4.56-0.87,6.3-2.6l7.48-7.48c2.35,1.63,5.15,2.53,8.04,2.53c0.29,0,0.58-0.01,0.87-0.03
		c4.03-0.25,7.76-2.22,10.24-5.41l0.8-1.03c5.92-7.61,13.29-17.09,17.25-21.04c18.42-18.42,32.92-28.35,43.5-35.6
		c11.43-7.83,18.33-12.56,18.85-21.19c0.4-6.67-6.41-17.07-20.24-30.9C267.73,88.05,257.34,81.25,250.67,81.65z M191.23,218.5
		c-1.52,1.52-4,1.52-5.52,0l-20.76-20.76c-0.74-0.74-1.14-1.72-1.14-2.76s0.41-2.02,1.14-2.76l7.32-7.32l13.14,13.14l13.14,13.14
		L191.23,218.5z M218.26,207.55l-0.8,1.03c-1.6,2.06-4.01,3.33-6.61,3.49c-2.6,0.16-5.15-0.8-7-2.65l-14.91-14.91l-14.91-14.91
		c-1.84-1.84-2.81-4.4-2.65-7c0.16-2.6,1.43-5.01,3.49-6.61l1.03-0.8c6.67-5.19,14.74-11.46,19.5-15.77l5.19,5.19
		c-1.8,7.88,0.55,16.17,6.31,21.93c5.76,5.76,14.04,8.11,21.92,6.32l5.19,5.19C229.71,192.81,223.44,200.88,218.26,207.55z
		 M237.51,184.46l-6.16-6.15c-0.03-0.03-0.06-0.05-0.09-0.07c-0.06-0.06-0.13-0.11-0.2-0.16c-0.07-0.05-0.14-0.1-0.21-0.14
		c-0.06-0.04-0.13-0.07-0.2-0.1c-0.08-0.04-0.16-0.07-0.24-0.1c-0.07-0.03-0.14-0.05-0.22-0.06c-0.08-0.02-0.16-0.04-0.24-0.05
		c-0.08-0.01-0.16-0.02-0.24-0.02c-0.08,0-0.16-0.01-0.24,0c-0.08,0-0.16,0.01-0.23,0.02c-0.09,0.01-0.17,0.03-0.26,0.05
		c-0.04,0.01-0.07,0.01-0.11,0.02c-6.55,1.94-13.61,0.15-18.43-4.68c-4.83-4.83-6.62-11.89-4.68-18.44
		c0.01-0.03,0.01-0.05,0.01-0.08c0.05-0.18,0.08-0.37,0.08-0.55c0-0.02,0.01-0.04,0.01-0.06c0-0.2-0.03-0.39-0.07-0.59
		c-0.01-0.05-0.03-0.1-0.05-0.15c-0.04-0.15-0.1-0.28-0.17-0.42c-0.02-0.05-0.05-0.1-0.07-0.14c-0.1-0.17-0.22-0.33-0.36-0.47
		c0,0,0,0-0.01-0.01c0,0,0,0,0,0l-6.15-6.15c3.79-3.84,7.22-7.51,10.33-11.01l6.5,6.49c0.03,0.03,0.06,0.04,0.08,0.07
		c0.07,0.06,0.14,0.12,0.21,0.17c0.06,0.05,0.12,0.09,0.19,0.13c0.07,0.04,0.14,0.08,0.22,0.12c0.07,0.03,0.14,0.07,0.22,0.09
		c0.08,0.03,0.16,0.05,0.24,0.07c0.07,0.02,0.15,0.04,0.23,0.05c0.08,0.01,0.17,0.02,0.25,0.02c0.08,0,0.16,0.01,0.23,0
		c0.08,0,0.16-0.01,0.24-0.02c0.09-0.01,0.17-0.03,0.26-0.05c0.04-0.01,0.07-0.01,0.11-0.02c6.55-1.94,13.61-0.15,18.43,4.68
		c4.83,4.83,6.62,11.89,4.67,18.44c-0.01,0.04-0.01,0.07-0.02,0.11c-0.02,0.09-0.04,0.18-0.05,0.27c-0.01,0.08-0.02,0.15-0.02,0.23
		c0,0.08,0,0.17,0,0.25c0,0.08,0.01,0.16,0.02,0.23c0.01,0.08,0.03,0.16,0.05,0.25c0.02,0.07,0.04,0.14,0.06,0.22
		c0.03,0.08,0.06,0.16,0.1,0.24c0.03,0.07,0.07,0.14,0.11,0.2c0.04,0.07,0.09,0.14,0.14,0.2c0.05,0.07,0.1,0.14,0.16,0.2
		c0.03,0.03,0.05,0.06,0.07,0.09l6.49,6.49C245.02,177.25,241.35,180.68,237.51,184.46z M280.12,149.85
		c-7.39,5.06-16.67,11.42-27.83,20.99l-5.72-5.71c1.8-7.88-0.55-16.17-6.31-21.93c-5.76-5.76-14.04-8.11-21.92-6.32l-5.72-5.72
		c9.57-11.17,15.92-20.44,20.98-27.83c7.44-10.86,11.18-16.32,17.37-16.69c4.87-0.31,15,6.73,27.06,18.78
		c12.05,12.06,19.08,22.17,18.78,27.06C296.44,138.67,290.99,142.41,280.12,149.85z M182.15,201.3c0.98,0.98,0.98,2.58,0,3.56
		c-0.98,0.98-2.58,0.98-3.56,0c-0.98-0.98-0.98-2.58,0-3.56C179.57,200.32,181.16,200.32,182.15,201.3z M174.77,193.93
		c0.94,1.03,0.87,2.62-0.16,3.56c-1.03,0.94-2.62,0.87-3.56-0.16c-0.94-1.03-0.87-2.62,0.16-3.56S173.83,192.9,174.77,193.93z"/>
</g>
<g id="Layer_41">
</g>
<g id="Layer_17">
</g>
<g id="Layer_18">
</g>
<g id="Layer_19">
</g>
<g id="Layer_20">
</g>
<g id="Layer_21">
</g>
<g id="Layer_22">
</g>
<g id="Layer_23">
</g>
<g id="Layer_24">
</g>
<g id="Layer_25">
</g>
<g id="Layer_26">
</g>
<g id="Layer_27">
</g>
<g id="Layer_28">
</g>
<g id="Layer_29">
</g>
<g id="Layer_30">
</g>
<g id="Layer_31">
</g>
<g id="Layer_2">
</g>
<g id="Layer_3">
</g>
<g id="Layer_4">
</g>
<g id="Layer_5">
</g>
<g id="Layer_6">
</g>
<g id="Layer_7">
</g>
<g id="Layer_8">
</g>
<g id="Layer_9">
</g>
<g id="Layer_10">
</g>
<g id="Layer_11">
</g>
<g id="Layer_12">
</g>
<g id="Layer_13">
</g>
<g id="Layer_14">
</g>
<g id="Layer_15">
</g>
<g id="Layer_16">
</g>
<g id="Layer_32">
</g>
<g id="Layer_33">
</g>
<g id="Layer_34">
</g>
<g id="Layer_35">
</g>
<g id="Layer_49">
</g>
<g id="Layer_50">
</g>
<g id="Layer_51">
</g>
</svg>
