<?xml version="1.0" encoding="utf-8"?>
<!-- Generator: Adobe Illustrator 23.0.1, SVG Export Plug-In . SVG Version: 6.00 Build 0)  -->
<svg version="1.1" xmlns="http://www.w3.org/2000/svg" xmlns:xlink="http://www.w3.org/1999/xlink" x="0px" y="0px"
	 viewBox="0 0 432 432" enable-background="new 0 0 432 432" xml:space="preserve">
<g id="Layer_37">
</g>
<g id="Layer_47">
</g>
<g id="Layer_42">
</g>
<g id="Layer_43">
</g>
<g id="Layer_44">
</g>
<g id="Layer_45">
</g>
<g id="Layer_46">
</g>
<g id="Layer_38">
</g>
<g id="Layer_39">
</g>
<g id="Layer_40">
</g>
<g id="Layer_41">
</g>
<g id="Layer_17">
</g>
<g id="Layer_18">
</g>
<g id="Layer_19">
</g>
<g id="Layer_20">
</g>
<g id="Layer_21">
</g>
<g id="Layer_22">
</g>
<g id="Layer_23">
</g>
<g id="Layer_24">
</g>
<g id="Layer_25">
</g>
<g id="Layer_26">
</g>
<g id="Layer_27">
</g>
<g id="Layer_28">
</g>
<g id="Layer_29">
</g>
<g id="Layer_30">
</g>
<g id="Layer_31">
</g>
<g id="Layer_2">
</g>
<g id="Layer_3">
</g>
<g id="Layer_4">
</g>
<g id="Layer_5">
</g>
<g id="Layer_6">
</g>
<g id="Layer_7">
</g>
<g id="Layer_8">
</g>
<g id="Layer_9">
</g>
<g id="Layer_10">
</g>
<g id="Layer_11">
</g>
<g id="Layer_12">
</g>
<g id="Layer_13">
</g>
<g id="Layer_14">
</g>
<g id="Layer_15">
</g>
<g id="Layer_16">
</g>
<g id="Layer_32">
</g>
<g id="Layer_33">
	<path d="M217.92,199.12c-35.45,0-88.2,5.17-88.2,19.43v70.33c0,14.25,52.74,19.43,88.2,19.43c35.45,0,88.2-5.17,88.2-19.43v-70.33
		C306.12,204.3,253.37,199.12,217.92,199.12z M217.92,204.12c54.62,0,83.2,9.39,83.2,14.43s-28.57,14.43-83.2,14.43
		s-83.2-9.39-83.2-14.43S163.3,204.12,217.92,204.12z M217.92,303.32c-54.62,0-83.2-9.39-83.2-14.43v-63.32
		c13.97,8.98,54.32,12.41,83.2,12.41c28.88,0,69.22-3.43,83.2-12.41v63.32C301.12,293.92,272.54,303.32,217.92,303.32z
		 M129.93,184.33c1.75,5.74,12.33,7.9,26.57,7.9c18.85,0,44.07-3.77,63.59-7.98c34.65-7.48,85.11-23.68,82.11-37.61c0,0,0,0,0,0
		l-3.79-17.53c0,0,0,0,0,0c-0.7-3.24-4.62-6.73-28.95-4.92c-16.41,1.22-37.83,4.57-60.31,9.42c-22.48,4.86-43.37,10.65-58.82,16.31
		c-22.9,8.39-25.03,13.19-24.33,16.43l3.79,17.53C129.81,184.03,129.86,184.19,129.93,184.33z M219.03,179.36
		c-53.39,11.53-83.31,8.38-84.37,3.46l-2.59-12.01c2.53,0.59,6.09,0.95,11.12,0.95c3.26,0,7.14-0.15,11.75-0.5
		c16.41-1.22,37.83-4.57,60.31-9.42c22.48-4.86,43.37-10.65,58.82-16.31c11.04-4.05,17.24-7.25,20.64-9.86l2.59,12.01c0,0,0,0,0,0
		C298.37,152.61,272.42,167.82,219.03,179.36z M154.18,153.84c15-5.33,34.9-10.78,56.02-15.35c21.12-4.56,41.49-7.81,57.36-9.14
		c19.35-1.63,24.55,0.2,25.75,0.86c-0.82,1.09-4.8,4.9-23.1,11.41c-15.01,5.33-34.9,10.78-56.02,15.35
		c-21.12,4.56-41.49,7.81-57.36,9.14c-19.35,1.63-24.55-0.2-25.75-0.86C131.9,164.15,135.89,160.34,154.18,153.84z M187.56,253.7
		c0.41,0.45,0.62,1,0.62,1.68v27.51c0,0.67-0.24,1.23-0.71,1.68c-0.48,0.45-1.08,0.67-1.82,0.67c-0.71,0-1.29-0.22-1.75-0.67
		c-0.46-0.44-0.69-1-0.69-1.68v-23.47l-3.82,2.27c-0.37,0.25-0.77,0.37-1.2,0.37c-0.68,0-1.23-0.25-1.68-0.76
		c-0.44-0.51-0.67-1.05-0.67-1.63c0-0.83,0.4-1.49,1.2-1.98l7.22-4.32c0.46-0.25,1.03-0.35,1.7-0.32
		C186.61,253.03,187.14,253.26,187.56,253.7z M213.02,270.03c-0.63-0.59-1.33-1.09-2.11-1.5c0.45-0.26,0.91-0.55,1.37-0.92
		c0.74-0.58,1.36-1.33,1.86-2.23c0.51-0.9,0.76-2,0.76-3.29c0-1.69-0.43-3.21-1.29-4.58c-0.86-1.36-2.02-2.45-3.47-3.27
		c-1.46-0.81-3.09-1.22-4.9-1.22c-1.78,0-3.4,0.41-4.88,1.22c-1.47,0.81-2.65,1.9-3.52,3.27c-0.87,1.37-1.31,2.89-1.31,4.58
		c0,1.2,0.23,2.25,0.69,3.17c0.46,0.92,1.05,1.68,1.77,2.28c0.48,0.4,0.99,0.72,1.5,1c-0.54,0.34-1.09,0.71-1.64,1.14
		c-0.9,0.71-1.64,1.58-2.21,2.62c-0.57,1.04-0.85,2.25-0.85,3.63c0,1.72,0.47,3.29,1.4,4.71s2.19,2.56,3.77,3.4
		c1.58,0.84,3.33,1.26,5.27,1.26c1.96,0,3.73-0.42,5.31-1.26c1.58-0.84,2.84-1.98,3.77-3.4c0.94-1.43,1.4-3,1.4-4.71
		c0-1.1-0.24-2.16-0.71-3.17C214.54,271.76,213.87,270.84,213.02,270.03z M201.61,258.65c0.95-0.92,2.16-1.38,3.63-1.38
		c1.44,0,2.64,0.46,3.59,1.38c0.95,0.92,1.43,2.1,1.43,3.54c0,0.95-0.22,1.79-0.67,2.53c-0.44,0.74-1.04,1.32-1.79,1.75
		c-0.75,0.43-1.6,0.64-2.55,0.64c-0.95,0-1.81-0.21-2.58-0.64c-0.77-0.43-1.37-1.01-1.82-1.75c-0.44-0.74-0.67-1.58-0.67-2.53
		C200.18,260.75,200.66,259.57,201.61,258.65z M209.43,279.6c-1.1,1-2.5,1.5-4.19,1.5s-3.08-0.5-4.19-1.5c-1.1-1-1.66-2.23-1.66-3.7
		c0-1.01,0.26-1.92,0.78-2.71c0.52-0.8,1.23-1.43,2.12-1.89c0.89-0.46,1.87-0.69,2.94-0.69c1.07,0,2.05,0.23,2.94,0.69
		c0.89,0.46,1.59,1.09,2.12,1.89c0.52,0.8,0.78,1.7,0.78,2.71C211.08,277.37,210.53,278.6,209.43,279.6z M251.91,253.66
		c0.47,0.45,0.71,1,0.71,1.68v27.55c0,0.67-0.21,1.23-0.64,1.68c-0.43,0.45-1,0.67-1.7,0.67c-0.74,0-1.33-0.22-1.77-0.67
		c-0.45-0.44-0.67-1-0.67-1.68v-20.76l-8.65,13.17c-0.21,0.28-0.49,0.51-0.83,0.71c-0.34,0.2-0.69,0.28-1.06,0.25
		c-0.34,0.03-0.68-0.05-1.04-0.25s-0.64-0.44-0.85-0.71l-8.65-13.46v21.05c0,0.67-0.21,1.23-0.62,1.68
		c-0.41,0.45-0.96,0.67-1.63,0.67c-0.64,0-1.17-0.22-1.59-0.67c-0.41-0.44-0.62-1-0.62-1.68v-27.55c0-0.64,0.24-1.2,0.71-1.66
		s1.04-0.69,1.68-0.69c0.37,0,0.75,0.09,1.15,0.28c0.4,0.18,0.71,0.44,0.92,0.78l10.68,16.27l10.94-16.27
		c0.49-0.71,1.12-1.06,1.89-1.06C250.89,252.99,251.43,253.21,251.91,253.66z"/>
</g>
<g id="Layer_34">
</g>
<g id="Layer_35">
</g>
<g id="Layer_49">
</g>
<g id="Layer_50">
</g>
<g id="Layer_51">
</g>
</svg>
