<?xml version="1.0" encoding="utf-8"?>
<!-- Generator: Adobe Illustrator 23.0.1, SVG Export Plug-In . SVG Version: 6.00 Build 0)  -->
<svg version="1.1" xmlns="http://www.w3.org/2000/svg" xmlns:xlink="http://www.w3.org/1999/xlink" x="0px" y="0px"
	 viewBox="0 0 432 432" enable-background="new 0 0 432 432" xml:space="preserve">
<g id="Layer_37">
</g>
<g id="Layer_47">
</g>
<g id="Layer_42">
</g>
<g id="Layer_43">
</g>
<g id="Layer_44">
</g>
<g id="Layer_45">
</g>
<g id="Layer_46">
</g>
<g id="Layer_38">
</g>
<g id="Layer_39">
</g>
<g id="Layer_40">
</g>
<g id="Layer_41">
</g>
<g id="Layer_17">
</g>
<g id="Layer_18">
</g>
<g id="Layer_19">
</g>
<g id="Layer_20">
</g>
<g id="Layer_21">
</g>
<g id="Layer_22">
</g>
<g id="Layer_23">
</g>
<g id="Layer_24">
</g>
<g id="Layer_25">
</g>
<g id="Layer_26">
</g>
<g id="Layer_27">
</g>
<g id="Layer_28">
</g>
<g id="Layer_29">
	<path d="M216,312.5c-81.33,0-147.5-66.17-147.5-147.5S134.67,17.5,216,17.5S363.5,83.67,363.5,165S297.33,312.5,216,312.5z
		 M216,307.5c78.58,0,142.5-63.92,142.5-142.5S294.58,22.5,216,22.5S73.5,86.42,73.5,165S137.42,307.5,216,307.5z M246.21,258.51
		h-60.42c-1.04,0-1.97-0.65-2.34-1.62l-20.31-54.05c-6.06-1.87-10.48-7.53-10.48-14.19c0-8.19,6.66-14.85,14.85-14.85h45.1
		c0.04-8.84,0.33-19.62,1.52-30.96c-3.47-1.14-9.92-4.04-13.82-10.52c-3.72-6.17-4.19-13.94-1.39-23.09
		c11.18-36.56,60.36-43.88,62.45-44.18c0.03,0,0.05,0,0.08,0c0.22-0.02,0.43-0.03,0.64,0c0.02,0,0.04,0.01,0.06,0.02
		c0.19,0.03,0.37,0.09,0.54,0.17c0.06,0.03,0.12,0.05,0.17,0.08c0.18,0.09,0.35,0.2,0.5,0.33c0.01,0.01,0.02,0.02,0.03,0.03
		c0.15,0.14,0.28,0.3,0.4,0.48c0.01,0.02,0.04,0.04,0.05,0.06c0.01,0.02,0.02,0.05,0.03,0.07c0.11,0.19,0.2,0.38,0.26,0.6
		c0,0,0,0,0,0c0,0,0,0.01,0,0.01c0.05,0.21,0.07,0.43,0.07,0.64c0,0.05,0,0.1-0.01,0.14c-0.01,0.2-0.05,0.39-0.1,0.57
		c-0.01,0.02-0.01,0.05-0.02,0.07c-0.07,0.21-0.17,0.4-0.29,0.58c-0.01,0.02-0.02,0.04-0.03,0.06c-0.14,0.2-13.82,19.84-11.42,39.06
		c1.5,12-0.67,21.18-6.46,27.28c-5.3,5.59-13.42,8.41-24.19,8.41c-0.84,0-1.7-0.02-2.57-0.05c-0.95,9.18-1.44,19.24-1.51,30.14
		h46.87c8.19,0,14.85,6.66,14.85,14.85c0,6.67-4.42,12.32-10.48,14.19l-20.31,54.05C248.19,257.86,247.25,258.51,246.21,258.51z
		 M256.02,72.06c-11.97,5-21.1,15.02-27.45,30.24c2.94-2.07,6.31-3.61,9.88-4.37c1.34-0.28,2.68,0.57,2.97,1.92
		c0.29,1.35-0.57,2.68-1.92,2.97c-7.12,1.52-13.33,6.75-15.46,13.01c-1.84,6.86-3.29,14.46-4.33,22.83
		c10.35,0.35,17.93-1.94,22.56-6.81c4.7-4.96,6.43-12.77,5.12-23.22C245.55,94.07,251.76,79.82,256.02,72.06z M214.72,137.73
		c0.99-7.74,2.43-15.63,4.51-23.25c0.02-0.07,0.03-0.15,0.05-0.22c0.01-0.03,0.02-0.05,0.03-0.08c0.1-0.38,0.2-0.76,0.3-1.13
		c4.64-16.27,11.63-28.61,20.87-36.92c-14.19,5.68-31.15,16.12-36.79,34.55c-2.36,7.71-2.07,14.11,0.86,19.01
		C207.3,134.26,211.82,136.62,214.72,137.73z M167.51,198.5h96.98c5.43,0,9.85-4.42,9.85-9.85s-4.42-9.85-9.85-9.85h-96.98
		c-5.43,0-9.85,4.42-9.85,9.85S162.08,198.5,167.51,198.5z M244.48,253.51l18.8-50.01h-94.55l18.8,50.01H244.48z"/>
	<path id="_x31_00_x25__plant_based" d="M14.61,335.42c0.31,0.35,0.46,0.79,0.46,1.31v28.47c0,0.52-0.18,0.97-0.55,1.33
		c-0.37,0.37-0.84,0.55-1.43,0.55s-1.06-0.18-1.43-0.55s-0.55-0.81-0.55-1.33v-25.2l-4.78,2.89c-0.28,0.15-0.58,0.23-0.92,0.23
		c-0.52,0-0.97-0.21-1.33-0.62c-0.37-0.41-0.55-0.83-0.55-1.26c0-0.67,0.32-1.21,0.97-1.61l7.5-4.46c0.37-0.21,0.83-0.31,1.38-0.28
		C13.89,334.89,14.31,335.07,14.61,335.42z M43.18,342.48c0.86,2.48,1.29,5.32,1.29,8.51c0,3.13-0.43,5.95-1.29,8.46
		c-0.86,2.51-2.14,4.49-3.84,5.93c-1.7,1.44-3.83,2.16-6.37,2.16c-2.55,0-4.67-0.72-6.37-2.16c-1.7-1.44-2.99-3.42-3.86-5.93
		s-1.31-5.34-1.31-8.46c0-3.19,0.44-6.03,1.31-8.51c0.87-2.48,2.16-4.45,3.86-5.89c1.7-1.44,3.83-2.16,6.37-2.16
		c2.54,0,4.67,0.72,6.37,2.16C41.04,338.04,42.32,340,43.18,342.48z M40.51,350.99c0-2.67-0.29-4.96-0.87-6.88
		c-0.58-1.92-1.43-3.39-2.55-4.42s-2.49-1.54-4.12-1.54c-1.63,0-3,0.51-4.12,1.54c-1.12,1.03-1.98,2.5-2.58,4.42
		c-0.6,1.92-0.9,4.21-0.9,6.88c0,2.64,0.3,4.92,0.9,6.83c0.6,1.92,1.46,3.4,2.58,4.44c1.12,1.04,2.49,1.56,4.12,1.56
		c1.63,0,3-0.52,4.12-1.56c1.12-1.04,1.97-2.52,2.55-4.44C40.22,355.91,40.51,353.63,40.51,350.99z M70.83,342.48
		c0.86,2.48,1.29,5.32,1.29,8.51c0,3.13-0.43,5.95-1.29,8.46c-0.86,2.51-2.14,4.49-3.84,5.93c-1.7,1.44-3.83,2.16-6.37,2.16
		s-4.67-0.72-6.37-2.16c-1.7-1.44-2.99-3.42-3.86-5.93c-0.88-2.51-1.31-5.34-1.31-8.46c0-3.19,0.44-6.03,1.31-8.51
		c0.87-2.48,2.16-4.45,3.86-5.89c1.7-1.44,3.83-2.16,6.37-2.16s4.67,0.72,6.37,2.16C68.69,338.04,69.97,340,70.83,342.48z
		 M68.16,350.99c0-2.67-0.29-4.96-0.88-6.88c-0.58-1.92-1.43-3.39-2.55-4.42s-2.49-1.54-4.12-1.54s-3,0.51-4.12,1.54
		s-1.98,2.5-2.58,4.42c-0.6,1.92-0.9,4.21-0.9,6.88c0,2.64,0.3,4.92,0.9,6.83c0.6,1.92,1.46,3.4,2.58,4.44
		c1.12,1.04,2.49,1.56,4.12,1.56s3-0.52,4.12-1.56c1.12-1.04,1.97-2.52,2.55-4.44C67.87,355.91,68.16,353.63,68.16,350.99z
		 M103.62,336.32c0-0.49-0.18-0.87-0.53-1.15s-0.73-0.41-1.13-0.41c-0.49,0-0.92,0.26-1.29,0.78l-19.23,29.12
		c-0.21,0.37-0.32,0.69-0.32,0.97c0,0.49,0.18,0.87,0.55,1.15c0.37,0.28,0.74,0.41,1.1,0.41c0.52,0,0.97-0.25,1.33-0.74l19.23-29.16
		C103.53,336.95,103.62,336.63,103.62,336.32z M82.97,351.68c-1.41,0-2.61-0.39-3.61-1.17s-1.76-1.82-2.3-3.13
		c-0.54-1.3-0.8-2.72-0.8-4.25c0-1.56,0.27-3,0.8-4.32c0.54-1.32,1.31-2.37,2.32-3.15c1.01-0.78,2.22-1.17,3.63-1.17
		c1.41,0,2.61,0.39,3.61,1.17c1,0.78,1.75,1.82,2.28,3.13c0.52,1.3,0.78,2.74,0.78,4.3c0,1.56-0.28,3-0.83,4.3
		c-0.55,1.3-1.33,2.35-2.32,3.13C85.54,351.29,84.35,351.68,82.97,351.68z M83.02,348.69c1.17,0,2.02-0.53,2.58-1.59
		c0.55-1.06,0.83-2.38,0.83-3.98c0-1.63-0.29-2.97-0.88-4.05c-0.58-1.07-1.44-1.61-2.58-1.61c-1.17,0-2.03,0.54-2.6,1.63
		c-0.57,1.09-0.85,2.42-0.85,3.98c0,1.63,0.3,2.97,0.9,4.03C81.01,348.17,81.88,348.69,83.02,348.69z M108.13,354.61
		c0.52,1.3,0.78,2.74,0.78,4.3c0,1.56-0.28,3-0.83,4.3c-0.55,1.3-1.33,2.35-2.32,3.13c-1,0.78-2.2,1.17-3.61,1.17
		c-1.38,0-2.57-0.39-3.57-1.17s-1.77-1.82-2.32-3.13c-0.55-1.3-0.83-2.72-0.83-4.25c0-1.56,0.27-3,0.8-4.32
		c0.54-1.32,1.31-2.37,2.32-3.15c1.01-0.78,2.22-1.17,3.63-1.17c1.44,0,2.66,0.39,3.66,1.17
		C106.85,352.26,107.61,353.3,108.13,354.61z M105.65,358.95c0-1.63-0.29-2.97-0.87-4.05c-0.58-1.07-1.46-1.61-2.62-1.61
		s-2.03,0.54-2.6,1.63c-0.57,1.09-0.85,2.42-0.85,3.98c0,1.63,0.3,2.97,0.9,4.02c0.6,1.06,1.46,1.59,2.6,1.59
		c1.2,0,2.07-0.53,2.62-1.59C105.37,361.87,105.65,360.55,105.65,358.95z M147.81,339.54c0.78,1.44,1.17,3.08,1.17,4.92
		c0,1.81-0.39,3.45-1.17,4.92c-0.78,1.47-1.85,2.64-3.2,3.5c-1.35,0.86-2.87,1.29-4.55,1.29h-9.02v11.04c0,0.52-0.17,0.97-0.51,1.33
		s-0.77,0.55-1.29,0.55c-0.55,0-0.99-0.18-1.31-0.55c-0.32-0.37-0.48-0.81-0.48-1.33v-28.47c0-0.52,0.18-0.96,0.53-1.31
		c0.35-0.35,0.79-0.53,1.31-0.53h10.76c1.69,0,3.21,0.41,4.55,1.24S147.02,338.1,147.81,339.54z M145.25,344.46
		c0-1.17-0.23-2.19-0.69-3.08c-0.46-0.89-1.07-1.6-1.84-2.14c-0.77-0.54-1.66-0.81-2.67-0.81h-9.02v12.19h9.02
		c1.01,0,1.9-0.28,2.67-0.83c0.77-0.55,1.38-1.3,1.84-2.25C145.02,346.59,145.25,345.57,145.25,344.46z M172.76,363.46h-13.94
		v-26.73c0-0.52-0.18-0.96-0.55-1.31c-0.37-0.35-0.81-0.53-1.33-0.53c-0.55,0-1.01,0.18-1.38,0.53c-0.37,0.35-0.55,0.79-0.55,1.31
		v28.47c0,0.52,0.18,0.97,0.53,1.33s0.79,0.55,1.31,0.55h15.92c0.52,0,0.96-0.17,1.33-0.51c0.37-0.34,0.55-0.77,0.55-1.29
		c0-0.52-0.18-0.96-0.55-1.31C173.73,363.64,173.28,363.46,172.76,363.46z M204.36,364.66c0.09,0.25,0.14,0.49,0.14,0.74
		c0,0.55-0.18,0.99-0.55,1.31c-0.37,0.32-0.78,0.48-1.24,0.48c-0.37,0-0.71-0.11-1.01-0.32c-0.31-0.21-0.54-0.52-0.69-0.92
		l-3.1-7.45h-14.57l-3.08,7.5c-0.12,0.37-0.34,0.66-0.64,0.87c-0.31,0.21-0.63,0.32-0.97,0.32c-0.58,0-1.01-0.15-1.29-0.46
		c-0.28-0.31-0.41-0.67-0.41-1.1c-0.03-0.21,0-0.44,0.09-0.69l11.91-28.98c0.15-0.43,0.39-0.74,0.71-0.94
		c0.32-0.2,0.68-0.28,1.08-0.25c0.4,0,0.76,0.11,1.08,0.32c0.32,0.21,0.54,0.51,0.67,0.87L204.36,364.66z M196.41,354.9l-5.84-14.03
		l-5.76,14.03H196.41z M233.39,334.89c-0.49,0-0.9,0.16-1.22,0.48s-0.48,0.73-0.48,1.22v23.82l-18.81-24.88
		c-0.15-0.21-0.38-0.38-0.67-0.48c-0.29-0.11-0.57-0.16-0.85-0.16c-0.49,0-0.91,0.17-1.26,0.51c-0.35,0.34-0.53,0.78-0.53,1.33
		v28.66c0,0.49,0.15,0.9,0.46,1.22c0.31,0.32,0.71,0.48,1.2,0.48c0.52,0,0.94-0.16,1.27-0.48c0.32-0.32,0.48-0.73,0.48-1.22v-23.72
		l18.77,24.82c0.15,0.18,0.37,0.33,0.64,0.44c0.28,0.11,0.55,0.16,0.83,0.16c0.52,0,0.97-0.18,1.33-0.53
		c0.37-0.35,0.55-0.82,0.55-1.4V336.6c0-0.49-0.15-0.9-0.46-1.22S233.91,334.89,233.39,334.89z M263.84,334.89h-21.39
		c-0.52,0-0.96,0.16-1.31,0.48c-0.35,0.32-0.53,0.74-0.53,1.26c0,0.52,0.18,0.94,0.53,1.27c0.35,0.32,0.79,0.48,1.31,0.48h8.74
		v26.82c0,0.52,0.18,0.97,0.55,1.33c0.37,0.37,0.83,0.55,1.38,0.55c0.58,0,1.06-0.18,1.43-0.55c0.37-0.37,0.55-0.81,0.55-1.33
		v-26.82h8.74c0.52,0,0.97-0.15,1.33-0.46c0.37-0.31,0.55-0.74,0.55-1.29c0-0.52-0.18-0.94-0.55-1.26
		C264.81,335.05,264.36,334.89,263.84,334.89z M280.86,352.56h-9.29c-0.52,0-0.96,0.17-1.31,0.51c-0.35,0.34-0.53,0.77-0.53,1.29
		c0,0.55,0.18,1,0.53,1.36s0.79,0.53,1.31,0.53h9.29c0.52,0,0.96-0.17,1.31-0.51c0.35-0.34,0.53-0.77,0.53-1.29
		s-0.18-0.97-0.53-1.33C281.82,352.74,281.38,352.56,280.86,352.56z M312.3,353.75c0.6,1.1,0.9,2.47,0.9,4.09
		c0,1.75-0.29,3.21-0.87,4.39c-0.58,1.18-1.36,2.13-2.32,2.85c-0.96,0.72-2.04,1.24-3.22,1.54c-1.18,0.31-2.37,0.46-3.57,0.46h-12.1
		c-0.52,0-0.96-0.18-1.31-0.55c-0.35-0.37-0.53-0.81-0.53-1.33v-28.47c0-0.52,0.18-0.96,0.53-1.31c0.35-0.35,0.79-0.53,1.31-0.53
		h12.01c2.7,0,4.78,0.7,6.23,2.09c1.46,1.4,2.18,3.37,2.18,5.91c0,1.35-0.31,2.59-0.92,3.73c-0.61,1.13-1.51,2.04-2.69,2.71
		c-0.25,0.14-0.52,0.27-0.8,0.38c1.01,0.31,1.95,0.76,2.82,1.37C310.92,351.76,311.7,352.65,312.3,353.75z M293.23,348.56h9.43
		c1.35,0,2.51-0.44,3.47-1.31c0.97-0.87,1.45-2.17,1.45-3.89c0-1.53-0.45-2.72-1.33-3.57c-0.89-0.84-2.12-1.26-3.68-1.26h-9.34
		V348.56z M309.24,357.85c0-1.5-0.31-2.66-0.92-3.47c-0.61-0.81-1.4-1.37-2.37-1.68c-0.97-0.31-1.97-0.46-3.01-0.46h-9.71v11.27
		h9.84c1.81,0,3.29-0.46,4.44-1.38S309.24,359.78,309.24,357.85z M343.74,364.66c0.09,0.25,0.14,0.49,0.14,0.74
		c0,0.55-0.18,0.99-0.55,1.31c-0.37,0.32-0.78,0.48-1.24,0.48c-0.37,0-0.71-0.11-1.01-0.32c-0.31-0.21-0.54-0.52-0.69-0.92
		l-3.1-7.45h-14.57l-3.08,7.5c-0.12,0.37-0.34,0.66-0.64,0.87c-0.31,0.21-0.63,0.32-0.97,0.32c-0.58,0-1.01-0.15-1.29-0.46
		c-0.28-0.31-0.41-0.67-0.41-1.1c-0.03-0.21,0-0.44,0.09-0.69l11.91-28.98c0.15-0.43,0.39-0.74,0.71-0.94
		c0.32-0.2,0.68-0.28,1.08-0.25c0.4,0,0.76,0.11,1.08,0.32c0.32,0.21,0.54,0.51,0.67,0.87L343.74,364.66z M335.79,354.9l-5.84-14.03
		l-5.76,14.03H335.79z M366.28,352.05c-0.92-0.71-2.02-1.29-3.29-1.77s-2.66-0.9-4.16-1.27c-1.38-0.37-2.64-0.79-3.77-1.26
		c-1.13-0.47-2.04-1.09-2.71-1.84c-0.68-0.75-1.01-1.71-1.01-2.88c0-1.04,0.3-1.94,0.9-2.69c0.6-0.75,1.43-1.33,2.51-1.75
		c1.07-0.41,2.31-0.62,3.72-0.62c0.95,0,1.9,0.14,2.85,0.41c0.95,0.28,1.82,0.64,2.62,1.1c0.8,0.46,1.46,0.98,1.98,1.56
		c0.28,0.25,0.58,0.37,0.92,0.37c0.49,0,0.93-0.19,1.31-0.58c0.38-0.38,0.58-0.8,0.58-1.26c0-0.55-0.31-1.12-0.92-1.7
		c-1.01-1.07-2.35-1.92-4.03-2.53c-1.67-0.61-3.44-0.92-5.31-0.92c-2.12,0-3.99,0.36-5.61,1.08c-1.63,0.72-2.9,1.74-3.82,3.06
		s-1.38,2.85-1.38,4.6c0,1.38,0.24,2.58,0.71,3.61c0.47,1.03,1.14,1.9,2,2.62s1.88,1.33,3.06,1.82c1.18,0.49,2.48,0.91,3.89,1.24
		c1.59,0.37,3,0.82,4.21,1.36c1.21,0.54,2.16,1.2,2.85,2c0.69,0.8,1.05,1.81,1.08,3.04c0,1.01-0.32,1.9-0.96,2.67
		c-0.64,0.77-1.51,1.36-2.6,1.79c-1.09,0.43-2.31,0.64-3.66,0.64c-1.75,0-3.32-0.31-4.71-0.92c-1.4-0.61-2.69-1.5-3.89-2.67
		c-0.34-0.34-0.72-0.51-1.15-0.51c-0.52,0-0.96,0.19-1.31,0.58c-0.35,0.38-0.53,0.82-0.53,1.31c0,0.31,0.07,0.59,0.21,0.85
		s0.31,0.5,0.53,0.71c1.59,1.47,3.25,2.55,4.97,3.22c1.72,0.67,3.71,1.01,5.98,1.01c2.05-0.03,3.9-0.42,5.54-1.17
		c1.64-0.75,2.94-1.79,3.89-3.1c0.95-1.32,1.43-2.82,1.43-4.51c0-1.59-0.25-2.94-0.76-4.02
		C367.91,353.66,367.2,352.76,366.28,352.05z M393.56,338.44c0.52,0,0.97-0.16,1.33-0.48c0.37-0.32,0.55-0.74,0.55-1.26
		s-0.18-0.95-0.55-1.29c-0.37-0.34-0.81-0.51-1.33-0.51h-16.38c-0.52,0-0.96,0.18-1.31,0.53c-0.35,0.35-0.53,0.79-0.53,1.31v28.47
		c0,0.52,0.18,0.97,0.53,1.33s0.79,0.55,1.31,0.55h16.38c0.52,0,0.97-0.17,1.33-0.51c0.37-0.34,0.55-0.77,0.55-1.29
		c0-0.46-0.18-0.87-0.55-1.24c-0.37-0.37-0.81-0.55-1.33-0.55h-14.4v-11.18h12.33c0.52,0,0.97-0.16,1.33-0.48
		c0.37-0.32,0.55-0.74,0.55-1.26s-0.18-0.95-0.55-1.29c-0.37-0.34-0.81-0.51-1.33-0.51h-12.33v-10.35H393.56z M428.47,350.99
		c0,2.94-0.51,5.63-1.52,8.07c-1.01,2.44-2.52,4.39-4.51,5.84c-1.99,1.46-4.51,2.18-7.54,2.18h-11.5c-0.52,0-0.96-0.18-1.31-0.55
		c-0.35-0.37-0.53-0.81-0.53-1.33v-28.47c0-0.52,0.18-0.96,0.53-1.31c0.35-0.35,0.79-0.53,1.31-0.53h11.5
		c2.24,0,4.21,0.42,5.91,1.27s3.12,2.02,4.25,3.52c1.13,1.5,1.99,3.23,2.55,5.17C428.19,346.8,428.47,348.85,428.47,350.99z
		 M424.52,350.99c0-1.66-0.19-3.24-0.58-4.76c-0.38-1.52-0.98-2.86-1.79-4.03c-0.81-1.17-1.86-2.08-3.13-2.76
		c-1.27-0.67-2.8-1.01-4.58-1.01h-9.06v25.07h9.06c2.36,0,4.29-0.57,5.77-1.7c1.49-1.13,2.58-2.65,3.27-4.55
		S424.52,353.26,424.52,350.99z"/>
</g>
<g id="Layer_30">
</g>
<g id="Layer_31">
</g>
<g id="Layer_2">
</g>
<g id="Layer_3">
</g>
<g id="Layer_4">
</g>
<g id="Layer_5">
</g>
<g id="Layer_6">
</g>
<g id="Layer_7">
</g>
<g id="Layer_8">
</g>
<g id="Layer_9">
</g>
<g id="Layer_10">
</g>
<g id="Layer_11">
</g>
<g id="Layer_12">
</g>
<g id="Layer_13">
</g>
<g id="Layer_14">
</g>
<g id="Layer_15">
</g>
<g id="Layer_16">
</g>
<g id="Layer_32">
</g>
<g id="Layer_33">
</g>
<g id="Layer_34">
</g>
<g id="Layer_35">
</g>
<g id="Layer_49">
</g>
<g id="Layer_50">
</g>
<g id="Layer_51">
</g>
</svg>
