<?xml version="1.0" encoding="utf-8"?>
<!-- Generator: Adobe Illustrator 23.0.1, SVG Export Plug-In . SVG Version: 6.00 Build 0)  -->
<svg version="1.1" xmlns="http://www.w3.org/2000/svg" xmlns:xlink="http://www.w3.org/1999/xlink" x="0px" y="0px"
	 viewBox="0 0 432 432" enable-background="new 0 0 432 432" xml:space="preserve">
<g id="Layer_37">
</g>
<g id="Layer_47">
</g>
<g id="Layer_42">
</g>
<g id="Layer_43">
</g>
<g id="Layer_44">
</g>
<g id="Layer_45">
</g>
<g id="Layer_46">
</g>
<g id="Layer_38">
</g>
<g id="Layer_39">
	<path d="M217.82,87.1c-0.02-0.02-0.04-0.03-0.06-0.05c-0.02-0.02-0.03-0.04-0.05-0.06c-0.04-0.04-0.1-0.07-0.14-0.11
		c-0.07-0.05-0.13-0.11-0.2-0.15c-0.07-0.05-0.15-0.09-0.22-0.12c-0.07-0.04-0.14-0.07-0.21-0.1c-0.08-0.03-0.16-0.06-0.25-0.08
		c-0.07-0.02-0.14-0.04-0.21-0.06c-0.09-0.02-0.17-0.02-0.26-0.03c-0.07-0.01-0.15-0.01-0.22-0.01c-0.09,0-0.17,0.01-0.25,0.02
		c-0.07,0.01-0.15,0.01-0.22,0.03c-0.08,0.02-0.16,0.04-0.24,0.06c-0.07,0.02-0.15,0.04-0.22,0.07c-0.08,0.03-0.15,0.07-0.23,0.11
		c-0.07,0.04-0.14,0.07-0.21,0.12c-0.07,0.05-0.14,0.1-0.21,0.16c-0.05,0.04-0.1,0.07-0.14,0.11c-0.02,0.02-0.03,0.04-0.05,0.06
		c-0.02,0.02-0.04,0.03-0.06,0.05c-1.98,2.1-48.6,51.88-53.83,88.13c-1.83,12.72,2.12,25.46,11.13,35.86
		c10.4,12,25.95,19.4,42.01,20.1v9.99c0,1.38,1.12,2.5,2.5,2.5s2.5-1.12,2.5-2.5v-9.99c16.06-0.7,31.62-8.09,42.01-20.1
		c9.02-10.41,12.97-23.15,11.13-35.87C266.42,138.98,219.8,89.2,217.82,87.1z M256.73,207.82c-9.31,10.75-23.77,17.65-38.23,18.37
		v-11.13l15.24-15.4c0.97-0.98,0.96-2.56-0.02-3.54c-0.98-0.97-2.56-0.96-3.54,0.02l-11.69,11.81v-30.03l15.24-15.4
		c0.97-0.98,0.96-2.56-0.02-3.54c-0.98-0.97-2.56-0.96-3.54,0.02l-11.69,11.81v-31.05c0-1.38-1.12-2.5-2.5-2.5s-2.5,1.12-2.5,2.5
		v31.05L201.81,159c-0.97-0.98-2.55-0.99-3.54-0.02c-0.98,0.97-0.99,2.55-0.02,3.54l15.24,15.4v30.03l-11.69-11.81
		c-0.97-0.98-2.55-0.99-3.54-0.02c-0.98,0.97-0.99,2.55-0.02,3.54l15.24,15.4v11.13c-14.46-0.72-28.92-7.61-38.23-18.37
		c-8.05-9.3-11.59-20.62-9.97-31.88c4.44-30.77,41.95-73.76,50.7-83.43c8.75,9.67,46.26,52.66,50.7,83.43
		C268.32,187.2,264.78,198.52,256.73,207.82z M216,17.5C134.67,17.5,68.5,83.67,68.5,165S134.67,312.5,216,312.5
		S363.5,246.33,363.5,165S297.33,17.5,216,17.5z M216,307.5c-78.57,0-142.5-63.93-142.5-142.5S137.43,22.5,216,22.5
		S358.5,86.43,358.5,165S294.57,307.5,216,307.5z"/>
	<path id="vegetarian" d="M107.58,335.33c0.37,0.32,0.55,0.74,0.55,1.27c0,0.25-0.06,0.52-0.18,0.83L95.94,365.9
		c-0.18,0.4-0.44,0.7-0.76,0.9c-0.32,0.2-0.67,0.3-1.03,0.3c-0.34-0.03-0.66-0.15-0.97-0.35c-0.31-0.2-0.54-0.48-0.69-0.85
		l-11.96-28.43c-0.06-0.12-0.11-0.25-0.14-0.39c-0.03-0.14-0.05-0.28-0.05-0.44c0-0.58,0.21-1.03,0.62-1.36
		c0.41-0.32,0.82-0.48,1.22-0.48c0.83,0,1.43,0.43,1.79,1.29l10.45,24.93l10.11-25.03c0.37-0.77,0.94-1.15,1.7-1.15
		C106.77,334.84,107.21,335.01,107.58,335.33z M131.87,338.43c0.52,0,0.97-0.16,1.33-0.48c0.37-0.32,0.55-0.74,0.55-1.26
		s-0.18-0.95-0.55-1.29c-0.37-0.34-0.81-0.51-1.33-0.51h-16.38c-0.52,0-0.96,0.18-1.31,0.53c-0.35,0.35-0.53,0.79-0.53,1.31v28.47
		c0,0.52,0.18,0.97,0.53,1.33c0.35,0.37,0.79,0.55,1.31,0.55h16.38c0.52,0,0.97-0.17,1.33-0.51c0.37-0.34,0.55-0.77,0.55-1.29
		c0-0.46-0.18-0.87-0.55-1.24c-0.37-0.37-0.81-0.55-1.33-0.55h-14.4v-11.18h12.33c0.52,0,0.97-0.16,1.33-0.48
		c0.37-0.32,0.55-0.74,0.55-1.27c0-0.52-0.18-0.95-0.55-1.29s-0.81-0.51-1.33-0.51h-12.33v-10.35H131.87z M163.42,350.44h-8.37
		c-0.52,0-0.96,0.18-1.31,0.53c-0.35,0.35-0.53,0.79-0.53,1.31c0,0.52,0.18,0.96,0.53,1.31c0.35,0.35,0.79,0.53,1.31,0.53h6.3v8.12
		c-0.86,0.45-1.85,0.82-3.01,1.12c-1.3,0.34-2.57,0.51-3.79,0.51c-2.42,0-4.59-0.57-6.51-1.7c-1.92-1.13-3.43-2.68-4.53-4.62
		c-1.1-1.95-1.66-4.13-1.66-6.56c0-2.45,0.55-4.65,1.66-6.58c1.1-1.93,2.61-3.46,4.53-4.6c1.92-1.13,4.09-1.7,6.51-1.7
		c1.23,0,2.39,0.15,3.5,0.44c1.1,0.29,2.13,0.68,3.08,1.17c0.18,0.06,0.36,0.12,0.53,0.18c0.17,0.06,0.34,0.09,0.53,0.09
		c0.46,0,0.87-0.18,1.22-0.55c0.35-0.37,0.53-0.81,0.53-1.33c0-0.31-0.07-0.6-0.21-0.87c-0.14-0.28-0.36-0.49-0.67-0.64
		c-1.2-0.74-2.52-1.28-3.98-1.63c-1.46-0.35-2.97-0.53-4.53-0.53c-2.36,0-4.55,0.41-6.55,1.24c-2.01,0.83-3.77,1.99-5.29,3.5
		c-1.52,1.5-2.7,3.26-3.54,5.27c-0.84,2.01-1.26,4.19-1.26,6.55c0,2.33,0.42,4.5,1.26,6.51c0.84,2.01,2.02,3.76,3.54,5.27
		c1.52,1.5,3.28,2.68,5.29,3.52c2.01,0.84,4.19,1.27,6.55,1.27c1.81,0,3.55-0.27,5.22-0.81c1.67-0.54,3.2-1.25,4.58-2.14
		c0.28-0.18,0.5-0.41,0.67-0.69c0.17-0.28,0.25-0.6,0.25-0.97v-10.63c0-0.52-0.17-0.97-0.51-1.33
		C164.42,350.62,163.97,350.44,163.42,350.44z M190.06,338.43c0.52,0,0.97-0.16,1.33-0.48c0.37-0.32,0.55-0.74,0.55-1.26
		s-0.18-0.95-0.55-1.29c-0.37-0.34-0.81-0.51-1.33-0.51h-16.38c-0.52,0-0.96,0.18-1.31,0.53c-0.35,0.35-0.53,0.79-0.53,1.31v28.47
		c0,0.52,0.18,0.97,0.53,1.33c0.35,0.37,0.79,0.55,1.31,0.55h16.38c0.52,0,0.97-0.17,1.33-0.51c0.37-0.34,0.55-0.77,0.55-1.29
		c0-0.46-0.18-0.87-0.55-1.24c-0.37-0.37-0.81-0.55-1.33-0.55h-14.4v-11.18h12.33c0.52,0,0.97-0.16,1.33-0.48
		c0.37-0.32,0.55-0.74,0.55-1.27c0-0.52-0.18-0.95-0.55-1.29s-0.81-0.51-1.33-0.51h-12.33v-10.35H190.06z M218.76,334.89h-21.39
		c-0.52,0-0.96,0.16-1.31,0.48c-0.35,0.32-0.53,0.74-0.53,1.26c0,0.52,0.18,0.94,0.53,1.27s0.79,0.48,1.31,0.48h8.74v26.82
		c0,0.52,0.18,0.97,0.55,1.33c0.37,0.37,0.83,0.55,1.38,0.55c0.58,0,1.06-0.18,1.43-0.55c0.37-0.37,0.55-0.81,0.55-1.33v-26.82h8.74
		c0.52,0,0.97-0.15,1.33-0.46c0.37-0.31,0.55-0.74,0.55-1.29c0-0.52-0.18-0.94-0.55-1.26C219.73,335.05,219.28,334.89,218.76,334.89
		z M248.29,364.65c0.09,0.25,0.14,0.49,0.14,0.74c0,0.55-0.18,0.99-0.55,1.31c-0.37,0.32-0.78,0.48-1.24,0.48
		c-0.37,0-0.71-0.11-1.01-0.32c-0.31-0.21-0.54-0.52-0.69-0.92l-3.1-7.45h-14.56l-3.08,7.5c-0.12,0.37-0.34,0.66-0.64,0.87
		c-0.31,0.21-0.63,0.32-0.97,0.32c-0.58,0-1.01-0.15-1.29-0.46c-0.28-0.31-0.41-0.67-0.41-1.1c-0.03-0.21,0-0.44,0.09-0.69
		l11.91-28.98c0.15-0.43,0.39-0.74,0.71-0.94c0.32-0.2,0.68-0.28,1.08-0.25c0.4,0,0.76,0.11,1.08,0.32
		c0.32,0.21,0.54,0.51,0.67,0.87L248.29,364.65z M240.34,354.9l-5.84-14.03l-5.76,14.03H240.34z M278.4,365.02
		c0.14,0.46,0.05,0.9-0.25,1.33c-0.18,0.28-0.45,0.47-0.78,0.57c-0.34,0.11-0.67,0.15-1.01,0.12c-0.34-0.03-0.63-0.12-0.87-0.28
		c-0.49-0.28-0.97-0.68-1.43-1.22c-0.46-0.54-0.84-1.31-1.15-2.32c-0.31-1.01-0.46-2.39-0.46-4.14c0-0.98-0.15-1.79-0.46-2.44
		c-0.31-0.64-0.72-1.17-1.24-1.56c-0.52-0.4-1.1-0.67-1.75-0.83c-0.64-0.15-1.3-0.23-1.98-0.23h-9.71v11.18
		c0,0.52-0.15,0.97-0.46,1.33c-0.31,0.37-0.72,0.55-1.24,0.55c-0.58,0-1.08-0.18-1.5-0.55c-0.41-0.37-0.62-0.81-0.62-1.33v-28.47
		c0-0.52,0.18-0.96,0.53-1.31c0.35-0.35,0.79-0.53,1.31-0.53h12.7c1.72,0,3.27,0.39,4.65,1.17c1.38,0.78,2.48,1.86,3.29,3.22
		c0.81,1.37,1.22,2.94,1.22,4.72c0,1.29-0.25,2.49-0.74,3.61c-0.49,1.12-1.17,2.09-2.02,2.9c-0.73,0.69-1.55,1.23-2.46,1.65
		c0.46,0.22,0.9,0.48,1.31,0.79c0.83,0.63,1.5,1.43,2.02,2.39c0.52,0.97,0.8,2.09,0.83,3.38c0.06,1.13,0.14,2.04,0.23,2.71
		c0.09,0.68,0.23,1.2,0.41,1.59c0.18,0.38,0.44,0.68,0.78,0.9C277.98,364.19,278.26,364.56,278.4,365.02z M272.46,347.47
		c0.51-1,0.76-2.12,0.76-3.38c0-1.63-0.51-2.97-1.54-4.05c-1.03-1.07-2.32-1.61-3.89-1.61h-10.49v12.28h10.72
		c0.89-0.06,1.72-0.37,2.51-0.92C271.31,349.24,271.96,348.47,272.46,347.47z M286.52,334.89c-0.55,0-1.01,0.18-1.38,0.53
		c-0.37,0.35-0.55,0.8-0.55,1.36v28.43c0,0.52,0.17,0.97,0.51,1.33c0.34,0.37,0.8,0.55,1.38,0.55c0.52,0,0.97-0.18,1.36-0.55
		c0.38-0.37,0.58-0.81,0.58-1.33v-28.43c0-0.55-0.18-1-0.55-1.36C287.48,335.07,287.04,334.89,286.52,334.89z M320.92,364.65
		c0.09,0.25,0.14,0.49,0.14,0.74c0,0.55-0.18,0.99-0.55,1.31c-0.37,0.32-0.78,0.48-1.24,0.48c-0.37,0-0.71-0.11-1.01-0.32
		c-0.31-0.21-0.54-0.52-0.69-0.92l-3.1-7.45H299.9l-3.08,7.5c-0.12,0.37-0.34,0.66-0.64,0.87c-0.31,0.21-0.63,0.32-0.97,0.32
		c-0.58,0-1.01-0.15-1.29-0.46c-0.28-0.31-0.41-0.67-0.41-1.1c-0.03-0.21,0-0.44,0.09-0.69l11.91-28.98
		c0.15-0.43,0.39-0.74,0.71-0.94c0.32-0.2,0.68-0.28,1.08-0.25c0.4,0,0.76,0.11,1.08,0.32c0.32,0.21,0.54,0.51,0.67,0.87
		L320.92,364.65z M312.97,354.9l-5.84-14.03l-5.76,14.03H312.97z M351.19,335.37c-0.31-0.32-0.72-0.48-1.24-0.48
		c-0.49,0-0.9,0.16-1.22,0.48c-0.32,0.32-0.48,0.73-0.48,1.22v23.82l-18.81-24.88c-0.15-0.21-0.38-0.38-0.67-0.48
		c-0.29-0.11-0.58-0.16-0.85-0.16c-0.49,0-0.91,0.17-1.26,0.51c-0.35,0.34-0.53,0.78-0.53,1.33v28.66c0,0.49,0.15,0.9,0.46,1.22
		c0.31,0.32,0.71,0.48,1.2,0.48c0.52,0,0.94-0.16,1.26-0.48c0.32-0.32,0.48-0.73,0.48-1.22v-23.72l18.77,24.82
		c0.15,0.18,0.37,0.33,0.64,0.44c0.28,0.11,0.55,0.16,0.83,0.16c0.52,0,0.97-0.18,1.33-0.53c0.37-0.35,0.55-0.82,0.55-1.4v-28.57
		C351.65,336.1,351.5,335.7,351.19,335.37z"/>
</g>
<g id="Layer_40">
</g>
<g id="Layer_41">
</g>
<g id="Layer_17">
</g>
<g id="Layer_18">
</g>
<g id="Layer_19">
</g>
<g id="Layer_20">
</g>
<g id="Layer_21">
</g>
<g id="Layer_22">
</g>
<g id="Layer_23">
</g>
<g id="Layer_24">
</g>
<g id="Layer_25">
</g>
<g id="Layer_26">
</g>
<g id="Layer_27">
</g>
<g id="Layer_28">
</g>
<g id="Layer_29">
</g>
<g id="Layer_30">
</g>
<g id="Layer_31">
</g>
<g id="Layer_2">
</g>
<g id="Layer_3">
</g>
<g id="Layer_4">
</g>
<g id="Layer_5">
</g>
<g id="Layer_6">
</g>
<g id="Layer_7">
</g>
<g id="Layer_8">
</g>
<g id="Layer_9">
</g>
<g id="Layer_10">
</g>
<g id="Layer_11">
</g>
<g id="Layer_12">
</g>
<g id="Layer_13">
</g>
<g id="Layer_14">
</g>
<g id="Layer_15">
</g>
<g id="Layer_16">
</g>
<g id="Layer_32">
</g>
<g id="Layer_33">
</g>
<g id="Layer_34">
</g>
<g id="Layer_35">
</g>
<g id="Layer_49">
</g>
<g id="Layer_50">
</g>
<g id="Layer_51">
</g>
</svg>
