<?xml version="1.0" encoding="utf-8"?>
<!-- Generator: Adobe Illustrator 23.0.1, SVG Export Plug-In . SVG Version: 6.00 Build 0)  -->
<svg version="1.1" xmlns="http://www.w3.org/2000/svg" xmlns:xlink="http://www.w3.org/1999/xlink" x="0px" y="0px"
	 viewBox="0 0 432 432" enable-background="new 0 0 432 432" xml:space="preserve">
<g id="Layer_37">
</g>
<g id="Layer_47">
</g>
<g id="Layer_42">
</g>
<g id="Layer_43">
</g>
<g id="Layer_44">
	<path id="handmade" d="M115.49,335.42c0.35,0.35,0.53,0.8,0.53,1.36v28.43c0,0.52-0.18,0.97-0.55,1.33
		c-0.37,0.37-0.83,0.55-1.38,0.55c-0.52,0-0.97-0.18-1.33-0.55c-0.37-0.37-0.55-0.81-0.55-1.33v-12.7H94.81v12.7
		c0,0.52-0.19,0.97-0.58,1.33c-0.38,0.37-0.84,0.55-1.36,0.55c-0.58,0-1.04-0.18-1.38-0.55c-0.34-0.37-0.51-0.81-0.51-1.33v-28.43
		c0-0.55,0.18-1,0.55-1.36c0.37-0.35,0.83-0.53,1.38-0.53c0.52,0,0.97,0.18,1.33,0.53c0.37,0.35,0.55,0.8,0.55,1.36v12.14h17.39
		v-12.14c0-0.55,0.19-1,0.58-1.36c0.38-0.35,0.83-0.53,1.36-0.53C114.69,334.89,115.14,335.07,115.49,335.42z M148.54,364.65
		c0.09,0.25,0.14,0.49,0.14,0.74c0,0.55-0.18,0.99-0.55,1.31c-0.37,0.32-0.78,0.48-1.24,0.48c-0.37,0-0.71-0.11-1.01-0.32
		c-0.31-0.21-0.54-0.52-0.69-0.92l-3.1-7.45h-14.56l-3.08,7.5c-0.12,0.37-0.34,0.66-0.64,0.87c-0.31,0.21-0.63,0.32-0.97,0.32
		c-0.58,0-1.01-0.15-1.29-0.46c-0.28-0.31-0.41-0.67-0.41-1.1c-0.03-0.21,0-0.44,0.09-0.69l11.91-28.98
		c0.15-0.43,0.39-0.74,0.71-0.94c0.32-0.2,0.68-0.28,1.08-0.25c0.4,0,0.76,0.11,1.08,0.32c0.32,0.21,0.54,0.51,0.67,0.87
		L148.54,364.65z M140.59,354.9l-5.84-14.03l-5.76,14.03H140.59z M177.57,334.89c-0.49,0-0.9,0.16-1.22,0.48
		c-0.32,0.32-0.48,0.73-0.48,1.22v23.82l-18.81-24.88c-0.15-0.21-0.38-0.38-0.67-0.48c-0.29-0.11-0.57-0.16-0.85-0.16
		c-0.49,0-0.91,0.17-1.26,0.51c-0.35,0.34-0.53,0.78-0.53,1.33v28.66c0,0.49,0.15,0.9,0.46,1.22c0.31,0.32,0.71,0.48,1.2,0.48
		c0.52,0,0.94-0.16,1.27-0.48c0.32-0.32,0.48-0.73,0.48-1.22v-23.72l18.77,24.82c0.15,0.18,0.37,0.33,0.64,0.44
		c0.28,0.11,0.55,0.16,0.83,0.16c0.52,0,0.97-0.18,1.33-0.53c0.37-0.35,0.55-0.82,0.55-1.4v-28.57c0-0.49-0.15-0.9-0.46-1.22
		C178.5,335.05,178.09,334.89,177.57,334.89z M213.38,344.85c0.57,1.95,0.85,4,0.85,6.14c0,2.94-0.51,5.64-1.52,8.07
		c-1.01,2.44-2.51,4.39-4.51,5.84c-1.99,1.46-4.51,2.19-7.54,2.19h-11.5c-0.52,0-0.96-0.18-1.31-0.55
		c-0.35-0.37-0.53-0.81-0.53-1.33v-28.47c0-0.52,0.18-0.96,0.53-1.31c0.35-0.35,0.79-0.53,1.31-0.53h11.5
		c2.24,0,4.21,0.42,5.91,1.27c1.7,0.84,3.12,2.02,4.26,3.52C211.96,341.18,212.81,342.9,213.38,344.85z M210.27,350.99
		c0-1.66-0.19-3.24-0.58-4.76c-0.38-1.52-0.98-2.86-1.79-4.03c-0.81-1.17-1.86-2.08-3.13-2.76c-1.27-0.67-2.8-1.01-4.58-1.01h-9.06
		v25.07h9.06c2.36,0,4.29-0.57,5.77-1.7c1.49-1.13,2.58-2.65,3.27-4.55C209.93,355.35,210.27,353.26,210.27,350.99z M248.36,334.84
		c-0.64-0.03-1.17,0.25-1.56,0.83l-11.53,17.21l-11.38-17.21c-0.18-0.25-0.44-0.44-0.76-0.6c-0.32-0.15-0.62-0.23-0.9-0.23
		c-0.55,0-1,0.19-1.36,0.58c-0.35,0.38-0.53,0.82-0.53,1.31v28.47c0,0.52,0.16,0.97,0.48,1.33c0.32,0.37,0.74,0.55,1.27,0.55
		c0.52,0,0.95-0.18,1.29-0.55c0.34-0.37,0.51-0.81,0.51-1.33v-23.26l9.75,15.03c0.18,0.21,0.41,0.4,0.69,0.55
		c0.28,0.15,0.55,0.23,0.83,0.23c0.28,0,0.54-0.08,0.81-0.23c0.26-0.15,0.48-0.34,0.67-0.55l9.71-14.76v23
		c0,0.52,0.18,0.97,0.55,1.33c0.37,0.37,0.83,0.55,1.38,0.55c0.55,0,1.01-0.18,1.38-0.55c0.37-0.37,0.55-0.81,0.55-1.33v-28.47
		c0-0.55-0.18-1-0.55-1.33C249.28,335.06,248.85,334.88,248.36,334.84z M282.68,364.65c0.09,0.25,0.14,0.49,0.14,0.74
		c0,0.55-0.18,0.99-0.55,1.31c-0.37,0.32-0.78,0.48-1.24,0.48c-0.37,0-0.71-0.11-1.01-0.32c-0.31-0.21-0.54-0.52-0.69-0.92
		l-3.1-7.45h-14.56l-3.08,7.5c-0.12,0.37-0.34,0.66-0.64,0.87c-0.31,0.21-0.63,0.32-0.97,0.32c-0.58,0-1.01-0.15-1.29-0.46
		c-0.28-0.31-0.41-0.67-0.41-1.1c-0.03-0.21,0-0.44,0.09-0.69l11.91-28.98c0.15-0.43,0.39-0.74,0.71-0.94
		c0.32-0.2,0.68-0.28,1.08-0.25c0.4,0,0.76,0.11,1.08,0.32c0.32,0.21,0.54,0.51,0.67,0.87L282.68,364.65z M274.72,354.9l-5.84-14.03
		l-5.76,14.03H274.72z M313.93,344.85c0.57,1.95,0.85,4,0.85,6.14c0,2.94-0.51,5.64-1.52,8.07c-1.01,2.44-2.51,4.39-4.51,5.84
		c-1.99,1.46-4.51,2.19-7.54,2.19h-11.5c-0.52,0-0.96-0.18-1.31-0.55c-0.35-0.37-0.53-0.81-0.53-1.33v-28.47
		c0-0.52,0.18-0.96,0.53-1.31c0.35-0.35,0.79-0.53,1.31-0.53h11.5c2.24,0,4.21,0.42,5.91,1.27c1.7,0.84,3.12,2.02,4.26,3.52
		C312.51,341.18,313.37,342.9,313.93,344.85z M310.83,350.99c0-1.66-0.19-3.24-0.58-4.76c-0.38-1.52-0.98-2.86-1.79-4.03
		c-0.81-1.17-1.86-2.08-3.13-2.76c-1.27-0.67-2.8-1.01-4.58-1.01h-9.06v25.07h9.06c2.36,0,4.29-0.57,5.77-1.7
		c1.49-1.13,2.58-2.65,3.27-4.55C310.48,355.35,310.83,353.26,310.83,350.99z M339.12,363.5h-14.4v-11.18h12.33
		c0.52,0,0.97-0.16,1.33-0.48c0.37-0.32,0.55-0.74,0.55-1.27c0-0.52-0.18-0.95-0.55-1.29c-0.37-0.34-0.81-0.51-1.33-0.51h-12.33
		v-10.35h14.4c0.52,0,0.97-0.16,1.33-0.48c0.37-0.32,0.55-0.74,0.55-1.26s-0.18-0.95-0.55-1.29c-0.37-0.34-0.81-0.51-1.33-0.51
		h-16.38c-0.52,0-0.96,0.18-1.31,0.53c-0.35,0.35-0.53,0.79-0.53,1.31v28.47c0,0.52,0.18,0.97,0.53,1.33
		c0.35,0.37,0.79,0.55,1.31,0.55h16.38c0.52,0,0.97-0.17,1.33-0.51c0.37-0.34,0.55-0.77,0.55-1.29c0-0.46-0.18-0.87-0.55-1.24
		C340.08,363.69,339.64,363.5,339.12,363.5z"/>
	<path d="M216,17.5C134.67,17.5,68.5,83.67,68.5,165S134.67,312.5,216,312.5S363.5,246.33,363.5,165S297.33,17.5,216,17.5z
		 M216,307.5c-78.57,0-142.5-63.93-142.5-142.5S137.43,22.5,216,22.5S358.5,86.43,358.5,165S294.57,307.5,216,307.5z M230.97,129.98
		c-0.97-0.99-0.95-2.57,0.04-3.54c0.34-0.33,0.66-0.65,0.96-0.97c0.96-0.99,2.54-1.03,3.54-0.07c1,0.96,1.03,2.54,0.07,3.54
		c-0.34,0.35-0.69,0.71-1.07,1.08c-0.49,0.48-1.12,0.71-1.75,0.71C232.11,130.73,231.46,130.48,230.97,129.98z M233.7,108.22
		c0.23-1.36,1.51-2.28,2.88-2.06c3.75,0.62,6.17,3.65,6.32,7.91c0.04,1.11,0.13,3.71-1.83,7.51c-0.44,0.86-1.32,1.35-2.22,1.35
		c-0.39,0-0.78-0.09-1.15-0.28c-1.23-0.63-1.71-2.14-1.07-3.37c1.36-2.63,1.3-4.25,1.28-5.03c-0.1-2.82-1.64-3.07-2.15-3.16
		C234.39,110.87,233.47,109.58,233.7,108.22z M326.03,189.37c-0.12-11.1-1.71-17.34-5.16-20.24c-3.06-2.57-6.82-1.95-9.84-1.45
		c-1.37,0.23-2.67,0.44-3.84,0.4c-13.13-0.47-20.15-5.84-28.28-12.06c-5.32-4.07-10.82-8.28-18.55-11.65
		c-6.32-2.76-13.68-4.14-21.06-5.1c0.79-0.66,1.55-1.34,2.27-2.04c7.96-7.81,11.69-15.49,11.4-23.5c-0.37-10.29-7.94-17.75-18-17.75
		c-0.01,0-0.02,0-0.02,0c-10.02,0.01-17.16,6.43-20.48,10.18c-3.32-3.75-10.46-10.17-20.48-10.18c-0.01,0-0.02,0-0.02,0
		c-10.06,0-17.63,7.46-18,17.75c-0.22,6.09,1.89,11.99,6.41,17.9c-0.78,0.51-1.43,1.11-2.01,1.73c-1.68,1.79-2.44,4.86-2.04,8.2
		c0.63,5.16,3.72,9.88,8.49,12.97c4.14,2.68,11.55,4.45,18.71,6.16c4.68,1.12,11.6,2.77,13.33,4.08c-0.6,0.77-3.94,3.47-21.86,5.52
		c-12.75,1.46-34.5,0.39-49.71-4.45c-10.54-3.35-20.54-6.07-27.07-2.58c-2.52,1.35-4.38,3.56-5.56,6.55
		c-4.08,0.52-7.24,1.84-9.5,3.99c-2.01,1.92-3.98,5.44-2.88,9.04c1.04,3.4,4.39,5.73,9.96,6.93c1.18,2.36,3.48,4.67,6.91,6.88
		c11.24,7.27,34.9,20.05,67.13,23.91c0.01,0,0.02,0,0.03,0c4.05,0.76,8.48,1.27,13.36,1.46c10.75,0.41,22.7-0.25,35.35-0.95
		c24.09-1.33,48.99-2.7,63.73,3.92c4.52,2.03,8.41,3.04,11.75,3.04c2.67,0,4.98-0.65,6.96-1.95
		C324.87,221.23,326.23,208.44,326.03,189.37z M180.96,113.89c0.22-6.23,4.39-12.93,13-12.93c0.01,0,0.01,0,0.02,0
		c10.95,0.01,18.08,10.1,18.4,10.56c0,0,0,0.01,0.01,0.01c0,0,0.01,0.01,0.01,0.01c0.02,0.04,0.05,0.06,0.08,0.1
		c0.07,0.1,0.14,0.19,0.23,0.28c0.09,0.09,0.18,0.16,0.28,0.23c0.03,0.02,0.06,0.06,0.1,0.08c0,0,0,0,0.01,0
		c0.14,0.09,0.29,0.17,0.44,0.23c0.07,0.03,0.14,0.04,0.21,0.06c0.08,0.03,0.17,0.06,0.25,0.08c0.11,0.02,0.21,0.03,0.32,0.03
		c0.05,0,0.11,0.01,0.16,0.01c0.1,0,0.2-0.02,0.3-0.03c0.06-0.01,0.12-0.01,0.18-0.02c0.15-0.03,0.3-0.07,0.45-0.13
		c0.01,0,0.01,0,0.02-0.01c0.15-0.06,0.3-0.14,0.44-0.23c0,0,0,0,0,0c0.03-0.02,0.05-0.04,0.07-0.06c0.11-0.08,0.21-0.16,0.3-0.25
		c0.09-0.09,0.16-0.18,0.23-0.28c0.03-0.03,0.06-0.06,0.08-0.1c0,0,0.01-0.01,0.01-0.01c0,0,0,0,0-0.01
		c0.27-0.39,7.34-10.55,18.4-10.57c0.01,0,0.01,0,0.02,0c8.61,0,12.78,6.7,13,12.93c0.23,6.52-3.01,12.99-9.91,19.75
		c-7.52,7.38-20.38,12.09-23.6,13.19c-3.22-1.1-16.07-5.81-23.6-13.2C183.96,126.88,180.72,120.42,180.96,113.89z M111.5,184.43
		c-2.5-0.76-4.08-1.83-4.45-3.05c-0.43-1.41,0.69-3.14,1.55-3.96c1.39-1.32,3.82-2.5,8.08-2.8c0.05,0,0.09,0,0.14-0.01
		c4.78-0.3,11.81,0.5,22.18,3.46c1.24,0.35,3.59,1.02,6.61,1.83c-2.02,0.17-3.86,0.8-5.45,1.91c-8.42-3.76-19.14-6.89-25.3-2.27
		C113.1,180.85,111.94,182.57,111.5,184.43z M121.84,192.46c-4.73-3.07-5.5-5.25-5.54-6.29c-0.04-1.25,0.95-2.18,1.54-2.63
		c3.14-2.35,10.17-1.46,19.07,2.32c-0.24,0.79-0.3,1.53-0.26,2.13c0.27,4.35,4.78,8.5,14.17,15.6c2.58,1.95,5.42,4.09,8.67,6.21
		C142.16,204.47,129.22,197.24,121.84,192.46z M314.71,221.91c-2.91,1.91-7.47,1.43-13.92-1.47c-15.85-7.12-41.38-5.71-66.06-4.35
		c-12.53,0.69-24.36,1.34-34.88,0.95c-24.17-0.91-36.27-10.07-46-17.43c-4.2-3.18-12.02-9.09-12.2-11.92
		c-0.01-0.18-0.03-0.54,0.61-1.16c4.03-3.9,11.75-0.4,17.63,4.18c5.35,4.16,19.34,13.66,33.66,11.91
		c12.35-1.51,37.04-10.58,51.81-19.04c12.84-7.35,24.59-9.42,34.93-6.16c1.32,0.42,2.72-0.31,3.14-1.63
		c0.42-1.32-0.31-2.72-1.63-3.14c-11.73-3.7-24.82-1.49-38.92,6.59c-14.3,8.19-38.1,16.97-49.93,18.42
		c-12.83,1.57-26.19-7.94-29.99-10.89c-2-1.55-3.96-2.84-5.87-3.87c9.46,2.34,19.96,4.61,25.13,4.61c0.04,0,0.08,0,0.12,0
		c1.38-0.01,2.49-1.14,2.48-2.52c-0.01-1.37-1.13-2.48-2.5-2.48c-0.04,0-0.08,0-0.12,0c-6.93,0-26.84-4.97-41.84-9.24
		c-7.88-2.24-14.52-3.47-19.97-3.67c0.6-0.82,1.32-1.46,2.17-1.92c4.8-2.58,14.09,0.04,23.19,2.93c11.59,3.69,26.79,5.28,39.31,5.28
		c4.63,0,8.9-0.22,12.48-0.63c19.12-2.19,23.58-5.31,25.26-7.47c0.9-1.16,1.29-2.48,1.11-3.84c-0.52-3.96-6.27-5.51-17.25-8.13
		c-6.43-1.54-13.73-3.28-17.15-5.49c-4.99-3.23-6.03-7.63-6.24-9.37c-0.25-2.07,0.2-3.62,0.72-4.17c0.64-0.68,1.12-1.06,1.68-1.28
		c0.54,0.57,1.09,1.14,1.68,1.72c9.39,9.21,25.39,14.34,26.33,14.64c0,0,0,0,0,0c0.01,0,0.02,0.01,0.03,0.01
		c0.06,0.02,0.13,0.03,0.19,0.04c0.06,0.01,0.12,0.03,0.18,0.04c0.12,0.02,0.24,0.03,0.36,0.03c0.01,0,0.02,0,0.02,0c0,0,0,0,0,0
		s0,0,0,0c0.01,0,0.02,0,0.02,0c0.12,0,0.24-0.01,0.36-0.03c0.06-0.01,0.12-0.03,0.18-0.04c0.06-0.01,0.12-0.02,0.18-0.04
		c0.01,0,0.02-0.01,0.03-0.01c0,0,0,0,0.01,0c0.7-0.22,9.61-3.08,18-8.27c8.77,0.95,17.85,2.19,25.11,5.36
		c7.17,3.13,12.43,7.15,17.51,11.04c8.44,6.46,16.42,12.56,31.14,13.09c1.66,0.06,3.27-0.21,4.83-0.46c2.8-0.46,4.58-0.69,5.82,0.35
		c1.48,1.24,3.26,5.1,3.38,16.46C321.19,204.04,320.53,218.1,314.71,221.91z"/>
</g>
<g id="Layer_45">
</g>
<g id="Layer_46">
</g>
<g id="Layer_38">
</g>
<g id="Layer_39">
</g>
<g id="Layer_40">
</g>
<g id="Layer_41">
</g>
<g id="Layer_17">
</g>
<g id="Layer_18">
</g>
<g id="Layer_19">
</g>
<g id="Layer_20">
</g>
<g id="Layer_21">
</g>
<g id="Layer_22">
</g>
<g id="Layer_23">
</g>
<g id="Layer_24">
</g>
<g id="Layer_25">
</g>
<g id="Layer_26">
</g>
<g id="Layer_27">
</g>
<g id="Layer_28">
</g>
<g id="Layer_29">
</g>
<g id="Layer_30">
</g>
<g id="Layer_31">
</g>
<g id="Layer_2">
</g>
<g id="Layer_3">
</g>
<g id="Layer_4">
</g>
<g id="Layer_5">
</g>
<g id="Layer_6">
</g>
<g id="Layer_7">
</g>
<g id="Layer_8">
</g>
<g id="Layer_9">
</g>
<g id="Layer_10">
</g>
<g id="Layer_11">
</g>
<g id="Layer_12">
</g>
<g id="Layer_13">
</g>
<g id="Layer_14">
</g>
<g id="Layer_15">
</g>
<g id="Layer_16">
</g>
<g id="Layer_32">
</g>
<g id="Layer_33">
</g>
<g id="Layer_34">
</g>
<g id="Layer_35">
</g>
<g id="Layer_49">
</g>
<g id="Layer_50">
</g>
<g id="Layer_51">
</g>
</svg>
