<?xml version="1.0" encoding="utf-8"?>
<!-- Generator: Adobe Illustrator 23.0.1, SVG Export Plug-In . SVG Version: 6.00 Build 0)  -->
<svg version="1.1" xmlns="http://www.w3.org/2000/svg" xmlns:xlink="http://www.w3.org/1999/xlink" x="0px" y="0px"
	 viewBox="0 0 432 432" enable-background="new 0 0 432 432" xml:space="preserve">
<g id="Layer_37">
</g>
<g id="Layer_47">
</g>
<g id="Layer_42">
</g>
<g id="Layer_43">
</g>
<g id="Layer_44">
</g>
<g id="Layer_45">
	<path id="vegan" d="M169.91,335.33c0.37,0.32,0.55,0.74,0.55,1.27c0,0.25-0.06,0.52-0.18,0.83l-12.01,28.47
		c-0.18,0.4-0.44,0.7-0.76,0.9c-0.32,0.2-0.67,0.3-1.04,0.3c-0.34-0.03-0.66-0.15-0.97-0.35c-0.31-0.2-0.54-0.48-0.69-0.85
		l-11.96-28.43c-0.06-0.12-0.11-0.25-0.14-0.39c-0.03-0.14-0.05-0.28-0.05-0.44c0-0.58,0.21-1.03,0.62-1.36
		c0.41-0.32,0.82-0.48,1.22-0.48c0.83,0,1.43,0.43,1.79,1.29l10.46,24.93l10.11-25.03c0.37-0.77,0.94-1.15,1.7-1.15
		C169.1,334.84,169.54,335.01,169.91,335.33z M194.2,338.43c0.52,0,0.97-0.16,1.33-0.48c0.37-0.32,0.55-0.74,0.55-1.26
		s-0.18-0.95-0.55-1.29c-0.37-0.34-0.81-0.51-1.33-0.51h-16.38c-0.52,0-0.96,0.18-1.31,0.53c-0.35,0.35-0.53,0.79-0.53,1.31v28.47
		c0,0.52,0.18,0.97,0.53,1.33c0.35,0.37,0.79,0.55,1.31,0.55h16.38c0.52,0,0.97-0.17,1.33-0.51c0.37-0.34,0.55-0.77,0.55-1.29
		c0-0.46-0.18-0.87-0.55-1.24c-0.37-0.37-0.81-0.55-1.33-0.55h-14.4v-11.18h12.33c0.52,0,0.97-0.16,1.33-0.48
		c0.37-0.32,0.55-0.74,0.55-1.27c0-0.52-0.18-0.95-0.55-1.29c-0.37-0.34-0.81-0.51-1.33-0.51H179.8v-10.35H194.2z M225.75,350.44
		h-8.37c-0.52,0-0.96,0.18-1.31,0.53c-0.35,0.35-0.53,0.79-0.53,1.31c0,0.52,0.18,0.96,0.53,1.31c0.35,0.35,0.79,0.53,1.31,0.53h6.3
		v8.12c-0.86,0.45-1.85,0.82-3.01,1.12c-1.3,0.34-2.57,0.51-3.79,0.51c-2.42,0-4.59-0.57-6.51-1.7c-1.92-1.13-3.43-2.68-4.53-4.62
		c-1.1-1.95-1.66-4.13-1.66-6.56c0-2.45,0.55-4.65,1.66-6.58c1.1-1.93,2.61-3.46,4.53-4.6c1.92-1.13,4.09-1.7,6.51-1.7
		c1.23,0,2.39,0.15,3.5,0.44c1.1,0.29,2.13,0.68,3.08,1.17c0.18,0.06,0.36,0.12,0.53,0.18c0.17,0.06,0.34,0.09,0.53,0.09
		c0.46,0,0.87-0.18,1.22-0.55c0.35-0.37,0.53-0.81,0.53-1.33c0-0.31-0.07-0.6-0.21-0.87c-0.14-0.28-0.36-0.49-0.67-0.64
		c-1.2-0.74-2.52-1.28-3.98-1.63c-1.46-0.35-2.97-0.53-4.53-0.53c-2.36,0-4.55,0.41-6.56,1.24c-2.01,0.83-3.77,1.99-5.29,3.5
		c-1.52,1.5-2.7,3.26-3.54,5.27c-0.84,2.01-1.27,4.19-1.27,6.55c0,2.33,0.42,4.5,1.27,6.51c0.84,2.01,2.02,3.76,3.54,5.27
		c1.52,1.5,3.28,2.68,5.29,3.52c2.01,0.84,4.19,1.27,6.56,1.27c1.81,0,3.55-0.27,5.22-0.81c1.67-0.54,3.2-1.25,4.58-2.14
		c0.28-0.18,0.5-0.41,0.67-0.69c0.17-0.28,0.25-0.6,0.25-0.97v-10.63c0-0.52-0.17-0.97-0.51-1.33
		C226.75,350.62,226.3,350.44,225.75,350.44z M258.6,364.65c0.09,0.25,0.14,0.49,0.14,0.74c0,0.55-0.18,0.99-0.55,1.31
		c-0.37,0.32-0.78,0.48-1.24,0.48c-0.37,0-0.71-0.11-1.01-0.32c-0.31-0.21-0.54-0.52-0.69-0.92l-3.1-7.45h-14.56l-3.08,7.5
		c-0.12,0.37-0.34,0.66-0.64,0.87c-0.31,0.21-0.63,0.32-0.97,0.32c-0.58,0-1.01-0.15-1.29-0.46c-0.28-0.31-0.41-0.67-0.41-1.1
		c-0.03-0.21,0-0.44,0.09-0.69l11.91-28.98c0.15-0.43,0.39-0.74,0.71-0.94c0.32-0.2,0.68-0.28,1.08-0.25c0.4,0,0.76,0.11,1.08,0.32
		c0.32,0.21,0.54,0.51,0.67,0.87L258.6,364.65z M250.64,354.9l-5.84-14.03l-5.76,14.03H250.64z M288.86,335.37
		c-0.31-0.32-0.72-0.48-1.24-0.48c-0.49,0-0.9,0.16-1.22,0.48c-0.32,0.32-0.48,0.73-0.48,1.22v23.82l-18.81-24.88
		c-0.15-0.21-0.38-0.38-0.67-0.48c-0.29-0.11-0.57-0.16-0.85-0.16c-0.49,0-0.91,0.17-1.26,0.51c-0.35,0.34-0.53,0.78-0.53,1.33
		v28.66c0,0.49,0.15,0.9,0.46,1.22c0.31,0.32,0.71,0.48,1.2,0.48c0.52,0,0.94-0.16,1.27-0.48c0.32-0.32,0.48-0.73,0.48-1.22v-23.72
		l18.77,24.82c0.15,0.18,0.37,0.33,0.64,0.44c0.28,0.11,0.55,0.16,0.83,0.16c0.52,0,0.97-0.18,1.33-0.53
		c0.37-0.35,0.55-0.82,0.55-1.4v-28.57C289.32,336.1,289.17,335.7,288.86,335.37z"/>
	<path d="M216.97,17.5c-81.33,0-147.5,66.17-147.5,147.5s66.17,147.5,147.5,147.5s147.5-66.17,147.5-147.5S298.3,17.5,216.97,17.5z
		 M216.97,307.5c-78.58,0-142.5-63.93-142.5-142.5s63.92-142.5,142.5-142.5s142.5,63.93,142.5,142.5S295.54,307.5,216.97,307.5z
		 M264.84,143.32c-24.21-1.65-39.68,13.34-46.31,21.62c-1.95-9.44-0.65-22.42,5.03-30.33c2.64,0.77,7.91,2.05,14.18,2.05
		c8.6,0,19.04-2.4,26.97-11.79c15.9-18.82,8.36-51.71,8.03-53.1c-0.02-0.07-0.04-0.13-0.06-0.19c-0.02-0.05-0.03-0.1-0.05-0.15
		c-0.05-0.13-0.11-0.26-0.18-0.38c0-0.01-0.01-0.01-0.01-0.02c-0.08-0.13-0.17-0.24-0.27-0.35c-0.03-0.03-0.06-0.06-0.1-0.1
		c-0.07-0.07-0.15-0.14-0.23-0.2c-0.04-0.03-0.09-0.07-0.13-0.1c-0.08-0.06-0.17-0.11-0.26-0.16c-0.04-0.02-0.09-0.05-0.13-0.07
		c-0.14-0.06-0.28-0.12-0.43-0.15c0,0,0,0,0,0c0,0,0,0,0,0c-0.13-0.03-0.26-0.05-0.39-0.06c-0.02,0-0.04,0-0.05,0
		c-0.06,0-0.12,0-0.18,0c-0.09,0-0.17,0.01-0.26,0.02c-0.07,0.01-0.14,0.02-0.21,0.03c-0.08,0.02-0.15,0.04-0.22,0.06
		c-0.07,0.02-0.13,0.04-0.2,0.07c-0.08,0.03-0.16,0.07-0.24,0.12c-0.07,0.04-0.13,0.07-0.19,0.11c-0.1,0.07-0.2,0.14-0.29,0.22
		c-0.04,0.04-0.08,0.08-0.12,0.12c-0.06,0.07-0.13,0.13-0.18,0.2c-0.04,0.05-0.07,0.1-0.11,0.15c-0.05,0.08-0.1,0.16-0.14,0.24
		c-0.03,0.05-0.05,0.1-0.08,0.15c-0.01,0.02-0.02,0.04-0.03,0.07c-3.02,7.47-9.81,9.76-17.66,12.41c-6.8,2.29-14.5,4.89-20.72,11.35
		c-10.48,10.89-9.84,31.02-9.53,35.77c-6.26,8.07-8.29,20.71-7.07,31.17c-7.61-8.44-22.26-20.26-43.91-18.79
		c-14.5,0.98-26.22,7.96-33.02,19.64c-7.61,13.09-8.04,30.15-1.1,44.52c9.82,20.37,35.75,39.13,55.16,46.43
		c16.27,6.13,26.41,6.22,26.84,6.22c0,0,0,0,0.01,0c0.25,0.01,10.46-0.06,26.84-6.22c19.41-7.31,45.33-26.07,55.16-46.43
		c6.93-14.38,6.51-31.44-1.1-44.52C291.06,151.28,279.33,144.3,264.84,143.32z M269.46,84.15c0.86,10.8,0.3,26.98-8.58,37.49
		c-10.34,12.24-26.39,10.38-33.62,8.75c4.17-4.18,8.62-7.19,13.28-10.33C251.1,112.97,261.96,105.65,269.46,84.15z M233.2,98.64
		c5.37-5.58,12.16-7.87,18.72-10.08c4.38-1.48,8.83-2.99,12.63-5.5c-6.91,19.48-16.61,26.01-26.8,32.85
		c-4.26,2.86-8.62,5.8-12.79,9.72C225.07,118.29,226.34,105.76,233.2,98.64z M294.46,205.32c-8.13,16.85-30.66,35.73-52.41,43.93
		c-15.26,5.75-24.9,5.9-25.08,5.9c-0.18,0-9.82-0.15-25.08-5.9c-21.75-8.19-44.29-27.08-52.41-43.93
		c-6.13-12.71-5.77-28.34,0.92-39.84c5.94-10.21,16.25-16.3,29.04-17.17c29.36-1.98,45.16,24.03,45.38,24.4
		c0.02,0.04,0.05,0.07,0.08,0.11c0.05,0.07,0.09,0.13,0.15,0.2c0.06,0.07,0.12,0.14,0.18,0.2c0.05,0.05,0.1,0.1,0.15,0.14
		c0.08,0.07,0.16,0.12,0.24,0.18c0.03,0.02,0.05,0.04,0.08,0.06c0.03,0.02,0.05,0.02,0.08,0.04c0.09,0.05,0.18,0.09,0.27,0.13
		c0.06,0.03,0.13,0.05,0.19,0.07c0.09,0.03,0.17,0.05,0.26,0.06c0.07,0.01,0.14,0.03,0.21,0.03c0.09,0.01,0.18,0.01,0.27,0.01
		c0.07,0,0.14,0,0.21-0.01c0.09-0.01,0.18-0.02,0.27-0.04c0.07-0.01,0.14-0.03,0.2-0.05c0.09-0.02,0.17-0.06,0.25-0.09
		c0.07-0.03,0.14-0.06,0.21-0.1c0.04-0.02,0.07-0.03,0.11-0.05c0.04-0.02,0.07-0.06,0.11-0.08c0.07-0.04,0.13-0.09,0.19-0.14
		c0.07-0.06,0.13-0.12,0.2-0.18c0.05-0.05,0.1-0.11,0.15-0.16c0.06-0.07,0.11-0.15,0.16-0.22c0.02-0.03,0.05-0.06,0.07-0.1
		c0.16-0.26,15.96-26.37,45.38-24.4c12.79,0.87,23.1,6.96,29.04,17.17C300.23,176.97,300.59,192.61,294.46,205.32z M190.41,198.15
		c-4.57,0-7.39-3.57-7.5-3.72c-0.85-1.09-0.65-2.66,0.44-3.51c1.09-0.84,2.65-0.65,3.49,0.43c0.06,0.07,1.51,1.8,3.57,1.8
		c2.17,0,3.69-1.79,3.71-1.81c0.86-1.08,2.43-1.26,3.51-0.4c1.08,0.86,1.26,2.43,0.4,3.51C197.91,194.6,195.04,198.15,190.41,198.15
		z M251.02,194.43c-0.12,0.15-2.94,3.72-7.5,3.72c-4.63,0-7.5-3.55-7.62-3.7c-0.86-1.08-0.68-2.65,0.4-3.51
		c1.08-0.86,2.65-0.68,3.51,0.4c0,0,1.52,1.81,3.71,1.81c2.09,0,3.55-1.78,3.57-1.8c0.86-1.07,2.43-1.25,3.5-0.4
		C251.67,191.8,251.86,193.35,251.02,194.43z M243.59,209.53c0,8.09-11.45,14.19-26.63,14.19s-26.63-6.1-26.63-14.19
		c0-1.38,1.12-2.5,2.5-2.5s2.5,1.12,2.5,2.5c0,4.35,8.88,9.19,21.63,9.19s21.63-4.84,21.63-9.19c0-1.38,1.12-2.5,2.5-2.5
		S243.59,208.15,243.59,209.53z"/>
</g>
<g id="Layer_46">
</g>
<g id="Layer_38">
</g>
<g id="Layer_39">
</g>
<g id="Layer_40">
</g>
<g id="Layer_41">
</g>
<g id="Layer_17">
</g>
<g id="Layer_18">
</g>
<g id="Layer_19">
</g>
<g id="Layer_20">
</g>
<g id="Layer_21">
</g>
<g id="Layer_22">
</g>
<g id="Layer_23">
</g>
<g id="Layer_24">
</g>
<g id="Layer_25">
</g>
<g id="Layer_26">
</g>
<g id="Layer_27">
</g>
<g id="Layer_28">
</g>
<g id="Layer_29">
</g>
<g id="Layer_30">
</g>
<g id="Layer_31">
</g>
<g id="Layer_2">
</g>
<g id="Layer_3">
</g>
<g id="Layer_4">
</g>
<g id="Layer_5">
</g>
<g id="Layer_6">
</g>
<g id="Layer_7">
</g>
<g id="Layer_8">
</g>
<g id="Layer_9">
</g>
<g id="Layer_10">
</g>
<g id="Layer_11">
</g>
<g id="Layer_12">
</g>
<g id="Layer_13">
</g>
<g id="Layer_14">
</g>
<g id="Layer_15">
</g>
<g id="Layer_16">
</g>
<g id="Layer_32">
</g>
<g id="Layer_33">
</g>
<g id="Layer_34">
</g>
<g id="Layer_35">
</g>
<g id="Layer_49">
</g>
<g id="Layer_50">
</g>
<g id="Layer_51">
</g>
</svg>
