<?xml version="1.0" encoding="utf-8"?>
<!-- Generator: Adobe Illustrator 23.0.1, SVG Export Plug-In . SVG Version: 6.00 Build 0)  -->
<svg version="1.1" xmlns="http://www.w3.org/2000/svg" xmlns:xlink="http://www.w3.org/1999/xlink" x="0px" y="0px"
	 viewBox="0 0 432 432" enable-background="new 0 0 432 432" xml:space="preserve">
<g id="Layer_37">
</g>
<g id="Layer_47">
</g>
<g id="Layer_42">
</g>
<g id="Layer_43">
</g>
<g id="Layer_44">
</g>
<g id="Layer_45">
</g>
<g id="Layer_46">
</g>
<g id="Layer_38">
</g>
<g id="Layer_39">
</g>
<g id="Layer_40">
</g>
<g id="Layer_41">
</g>
<g id="Layer_17">
</g>
<g id="Layer_18">
</g>
<g id="Layer_19">
</g>
<g id="Layer_20">
</g>
<g id="Layer_21">
</g>
<g id="Layer_22">
</g>
<g id="Layer_23">
</g>
<g id="Layer_24">
</g>
<g id="Layer_25">
</g>
<g id="Layer_26">
</g>
<g id="Layer_27">
</g>
<g id="Layer_28">
</g>
<g id="Layer_29">
</g>
<g id="Layer_30">
</g>
<g id="Layer_31">
</g>
<g id="Layer_2">
</g>
<g id="Layer_3">
</g>
<g id="Layer_4">
</g>
<g id="Layer_5">
</g>
<g id="Layer_6">
</g>
<g id="Layer_7">
</g>
<g id="Layer_8">
</g>
<g id="Layer_9">
</g>
<g id="Layer_10">
</g>
<g id="Layer_11">
	<path d="M188.87,199.13c-35.45,0-88.2,5.17-88.2,19.43v70.33c0,14.25,52.74,19.43,88.2,19.43c35.45,0,88.2-5.17,88.2-19.43v-70.33
		C277.07,204.3,224.32,199.13,188.87,199.13z M188.87,204.13c54.62,0,83.2,9.39,83.2,14.43s-28.57,14.43-83.2,14.43
		c-54.62,0-83.2-9.39-83.2-14.43S134.25,204.13,188.87,204.13z M188.87,303.31c-54.62,0-83.2-9.39-83.2-14.43v-63.32
		c13.97,8.98,54.32,12.41,83.2,12.41c28.88,0,69.22-3.43,83.2-12.41v63.32C272.07,293.92,243.5,303.31,188.87,303.31z
		 M100.73,183.88c1.22,5.64,9.94,8.4,26.63,8.4c0.95,0,1.92-0.01,2.91-0.03c16.65-0.29,38.23-3.14,60.76-8
		c34.65-7.48,85.11-23.68,82.11-37.61c0,0,0,0,0,0l-3.79-17.53c-0.7-3.24-4.62-6.73-28.95-4.92c-16.41,1.22-37.83,4.57-60.31,9.42
		s-43.38,10.65-58.82,16.31c-22.9,8.39-25.03,13.19-24.33,16.43c0,0,0,0.01,0,0.01L100.73,183.88z M189.99,179.36
		c-22.22,4.8-43.46,7.6-59.79,7.89c-18.61,0.33-24.21-2.75-24.57-4.43l-2.59-12.01c2.53,0.59,6.09,0.95,11.12,0.95
		c3.26,0,7.14-0.15,11.75-0.5c16.41-1.22,37.83-4.57,60.31-9.42c22.48-4.86,43.37-10.65,58.82-16.31
		c11.04-4.04,17.24-7.25,20.64-9.85l2.59,12.01c0,0,0,0,0,0C269.32,152.61,243.37,167.83,189.99,179.36z M125.14,153.84
		c15-5.33,34.9-10.79,56.02-15.35c21.12-4.56,41.49-7.81,57.36-9.14c19.35-1.63,24.55,0.2,25.75,0.86c-0.82,1.09-4.8,4.9-23.1,11.41
		c-15.01,5.33-34.9,10.78-56.02,15.35c-21.12,4.56-41.49,7.81-57.36,9.14c-19.35,1.63-24.55-0.2-25.75-0.86
		C102.86,164.15,106.84,160.34,125.14,153.84z M175.83,267.66c-0.92-0.98-1.97-1.75-3.15-2.3s-2.4-0.83-3.66-0.83
		c-1.26,0-2.38,0.22-3.36,0.67c-0.98,0.45-1.83,1-2.53,1.66c-0.04,0.04-0.07,0.08-0.11,0.12c0.25-0.73,0.56-1.44,0.94-2.14
		c0.67-1.24,1.48-2.37,2.42-3.38c0.94-1.01,1.96-1.89,3.06-2.62c1.1-0.74,2.22-1.29,3.36-1.66c0.61-0.18,1.1-0.48,1.45-0.9
		c0.35-0.41,0.53-0.9,0.53-1.45c0-0.83-0.24-1.4-0.71-1.72c-0.48-0.32-1-0.48-1.59-0.48c-0.28,0-0.58,0.05-0.92,0.14
		c-2.18,0.64-4.05,1.59-5.61,2.83c-1.56,1.24-2.88,2.63-3.96,4.16c-1.07,1.53-1.93,3.14-2.58,4.81c-0.64,1.67-1.1,3.28-1.38,4.83
		s-0.41,2.92-0.41,4.12c0,1.53,0.24,3.03,0.71,4.49c0.48,1.46,1.17,2.77,2.09,3.93c0.92,1.17,2.05,2.08,3.38,2.76
		c1.33,0.67,2.84,1.01,4.53,1.01c1.99,0,3.78-0.47,5.36-1.43c1.58-0.95,2.84-2.23,3.77-3.84c0.94-1.61,1.4-3.37,1.4-5.27
		c0-1.44-0.28-2.81-0.83-4.09C177.48,269.78,176.75,268.64,175.83,267.66z M173.46,278.38c-0.51,0.95-1.2,1.69-2.09,2.23
		c-0.89,0.54-1.9,0.8-3.04,0.8c-1.2,0-2.25-0.28-3.15-0.83c-0.91-0.55-1.61-1.31-2.12-2.28s-0.76-2-0.76-3.11
		c0-1.2,0.26-2.28,0.78-3.24c0.52-0.97,1.23-1.74,2.14-2.32c0.9-0.58,1.96-0.87,3.15-0.87s2.23,0.29,3.1,0.87
		c0.87,0.58,1.55,1.35,2.02,2.3c0.48,0.95,0.71,2.02,0.71,3.22C174.22,276.36,173.97,277.43,173.46,278.38z M213.89,253.66
		c0.48,0.45,0.71,1,0.71,1.68v27.55c0,0.67-0.21,1.23-0.64,1.68c-0.43,0.45-1,0.67-1.7,0.67c-0.74,0-1.33-0.22-1.77-0.67
		c-0.44-0.44-0.67-1-0.67-1.68v-20.76l-8.65,13.17c-0.21,0.28-0.49,0.51-0.83,0.71s-0.69,0.28-1.06,0.25
		c-0.34,0.03-0.68-0.05-1.04-0.25c-0.35-0.2-0.64-0.44-0.85-0.71l-8.65-13.46v21.05c0,0.67-0.21,1.23-0.62,1.68
		c-0.41,0.45-0.96,0.67-1.63,0.67c-0.64,0-1.17-0.22-1.59-0.67c-0.41-0.44-0.62-1-0.62-1.68v-27.55c0-0.64,0.24-1.2,0.71-1.66
		c0.48-0.46,1.04-0.69,1.68-0.69c0.37,0,0.75,0.09,1.15,0.28c0.4,0.18,0.71,0.44,0.92,0.78l10.68,16.27l10.94-16.27
		c0.49-0.71,1.12-1.06,1.89-1.06C212.87,252.99,213.42,253.21,213.89,253.66z"/>
</g>
<g id="Layer_12">
</g>
<g id="Layer_13">
</g>
<g id="Layer_14">
</g>
<g id="Layer_15">
</g>
<g id="Layer_16">
</g>
<g id="Layer_32">
</g>
<g id="Layer_33">
</g>
<g id="Layer_34">
</g>
<g id="Layer_35">
</g>
<g id="Layer_49">
</g>
<g id="Layer_50">
</g>
<g id="Layer_51">
</g>
</svg>
