<?xml version="1.0" encoding="utf-8"?>
<!-- Generator: Adobe Illustrator 23.0.1, SVG Export Plug-In . SVG Version: 6.00 Build 0)  -->
<svg version="1.1" xmlns="http://www.w3.org/2000/svg" xmlns:xlink="http://www.w3.org/1999/xlink" x="0px" y="0px"
	 viewBox="0 0 432 432" enable-background="new 0 0 432 432" xml:space="preserve">
<g id="Layer_37">
</g>
<g id="Layer_47">
</g>
<g id="Layer_42">
</g>
<g id="Layer_43">
</g>
<g id="Layer_44">
</g>
<g id="Layer_45">
</g>
<g id="Layer_46">
</g>
<g id="Layer_38">
</g>
<g id="Layer_39">
</g>
<g id="Layer_40">
</g>
<g id="Layer_41">
</g>
<g id="Layer_17">
</g>
<g id="Layer_18">
</g>
<g id="Layer_19">
</g>
<g id="Layer_20">
</g>
<g id="Layer_21">
</g>
<g id="Layer_22">
</g>
<g id="Layer_23">
</g>
<g id="Layer_24">
</g>
<g id="Layer_25">
</g>
<g id="Layer_26">
</g>
<g id="Layer_27">
</g>
<g id="Layer_28">
</g>
<g id="Layer_29">
</g>
<g id="Layer_30">
</g>
<g id="Layer_31">
</g>
<g id="Layer_2">
</g>
<g id="Layer_3">
</g>
<g id="Layer_4">
</g>
<g id="Layer_5">
</g>
<g id="Layer_6">
</g>
<g id="Layer_7">
</g>
<g id="Layer_8">
</g>
<g id="Layer_9">
</g>
<g id="Layer_10">
</g>
<g id="Layer_11">
</g>
<g id="Layer_12">
</g>
<g id="Layer_13">
</g>
<g id="Layer_14">
</g>
<g id="Layer_15">
</g>
<g id="Layer_16">
</g>
<g id="Layer_32">
</g>
<g id="Layer_33">
</g>
<g id="Layer_34">
</g>
<g id="Layer_35">
</g>
<g id="Layer_49">
	<path id="wild-harvested_ingredients" d="M60.78,335.26c0.41,0.34,0.62,0.81,0.62,1.43c0,0.21-0.03,0.45-0.09,0.69l-9.8,28.52
		c-0.12,0.37-0.34,0.65-0.67,0.85c-0.32,0.2-0.65,0.32-0.99,0.35c-0.37,0-0.72-0.1-1.06-0.3c-0.34-0.2-0.6-0.5-0.78-0.9l-7.47-18.07
		l-7.48,18.07c-0.18,0.4-0.44,0.7-0.78,0.9s-0.69,0.3-1.06,0.3c-0.34-0.03-0.67-0.15-0.99-0.35c-0.32-0.2-0.54-0.48-0.67-0.85
		l-9.8-28.52c-0.06-0.25-0.09-0.46-0.09-0.64c0-0.61,0.22-1.1,0.67-1.45c0.44-0.35,0.9-0.53,1.36-0.53c0.37,0,0.72,0.11,1.06,0.32
		c0.34,0.21,0.57,0.51,0.69,0.87l8.31,24.53l7.15-17.67c0.15-0.37,0.38-0.66,0.69-0.87c0.31-0.21,0.66-0.32,1.06-0.32
		c0.37,0,0.71,0.11,1.04,0.32c0.32,0.21,0.54,0.51,0.67,0.87l7.01,17.62l8.26-24.47c0.12-0.37,0.35-0.66,0.69-0.87
		c0.34-0.21,0.71-0.32,1.1-0.32C59.91,334.75,60.36,334.92,60.78,335.26z M68.57,334.89c-0.55,0-1.01,0.18-1.38,0.53
		c-0.37,0.35-0.55,0.8-0.55,1.36v28.43c0,0.52,0.17,0.97,0.51,1.33c0.34,0.37,0.8,0.55,1.38,0.55c0.52,0,0.97-0.18,1.36-0.55
		c0.38-0.37,0.58-0.81,0.58-1.33v-28.43c0-0.55-0.18-1-0.55-1.36S69.09,334.89,68.57,334.89z M97.64,366.58
		c0.37-0.34,0.55-0.77,0.55-1.29s-0.18-0.96-0.55-1.31c-0.37-0.35-0.81-0.53-1.33-0.53H82.37v-26.73c0-0.52-0.18-0.96-0.55-1.31
		s-0.81-0.53-1.33-0.53c-0.55,0-1.01,0.18-1.38,0.53c-0.37,0.35-0.55,0.79-0.55,1.31v28.47c0,0.52,0.18,0.97,0.53,1.33
		c0.35,0.37,0.79,0.55,1.31,0.55h15.92C96.83,367.09,97.28,366.92,97.64,366.58z M124.37,364.91c-1.99,1.46-4.51,2.19-7.54,2.19
		h-11.5c-0.52,0-0.96-0.18-1.31-0.55c-0.35-0.37-0.53-0.81-0.53-1.33v-28.47c0-0.52,0.18-0.96,0.53-1.31
		c0.35-0.35,0.79-0.53,1.31-0.53h11.5c2.24,0,4.21,0.42,5.91,1.26c1.7,0.84,3.12,2.02,4.26,3.52c1.13,1.5,1.98,3.23,2.55,5.17
		c0.57,1.95,0.85,4,0.85,6.14c0,2.94-0.51,5.64-1.52,8.07C127.87,361.5,126.36,363.45,124.37,364.91z M125.4,357.25
		c0.69-1.9,1.04-3.99,1.04-6.26c0-1.66-0.19-3.24-0.58-4.76c-0.38-1.52-0.98-2.86-1.79-4.03c-0.81-1.17-1.86-2.08-3.13-2.76
		c-1.27-0.67-2.8-1.01-4.58-1.01h-9.06v25.07h9.06c2.36,0,4.29-0.57,5.77-1.7C123.63,360.67,124.71,359.15,125.4,357.25z
		 M146.13,352.55h-9.29c-0.52,0-0.96,0.17-1.31,0.51c-0.35,0.34-0.53,0.77-0.53,1.29c0,0.55,0.18,1,0.53,1.36
		c0.35,0.35,0.79,0.53,1.31,0.53h9.29c0.52,0,0.96-0.17,1.31-0.51c0.35-0.34,0.53-0.77,0.53-1.29c0-0.52-0.18-0.97-0.53-1.33
		C147.08,352.74,146.65,352.55,146.13,352.55z M177.68,334.89c-0.52,0-0.97,0.18-1.36,0.53c-0.38,0.35-0.58,0.8-0.58,1.36v12.14
		h-17.39v-12.14c0-0.55-0.18-1-0.55-1.36s-0.81-0.53-1.33-0.53c-0.55,0-1.01,0.18-1.38,0.53c-0.37,0.35-0.55,0.8-0.55,1.36v28.43
		c0,0.52,0.17,0.97,0.51,1.33c0.34,0.37,0.8,0.55,1.38,0.55c0.52,0,0.97-0.18,1.36-0.55c0.38-0.37,0.58-0.81,0.58-1.33v-12.7h17.39
		v12.7c0,0.52,0.18,0.97,0.55,1.33c0.37,0.37,0.81,0.55,1.33,0.55c0.55,0,1.01-0.18,1.38-0.55c0.37-0.37,0.55-0.81,0.55-1.33v-28.43
		c0-0.55-0.18-1-0.53-1.36C178.69,335.07,178.23,334.89,177.68,334.89z M184.67,365.62c-0.03-0.21,0-0.44,0.09-0.69l11.91-28.98
		c0.15-0.43,0.39-0.74,0.71-0.94c0.32-0.2,0.68-0.28,1.08-0.25c0.4,0,0.76,0.11,1.08,0.32c0.32,0.21,0.54,0.51,0.67,0.87l11.87,28.7
		c0.09,0.25,0.14,0.49,0.14,0.74c0,0.55-0.18,0.99-0.55,1.31c-0.37,0.32-0.78,0.48-1.24,0.48c-0.37,0-0.71-0.11-1.01-0.32
		c-0.31-0.21-0.54-0.52-0.69-0.92l-3.1-7.45h-14.56l-3.08,7.5c-0.12,0.37-0.34,0.66-0.64,0.87c-0.31,0.21-0.63,0.32-0.97,0.32
		c-0.58,0-1.01-0.15-1.29-0.46C184.81,366.42,184.67,366.05,184.67,365.62z M192.54,354.9h11.6l-5.84-14.02L192.54,354.9z
		 M241.16,366.93c-0.34,0.11-0.67,0.15-1.01,0.12c-0.34-0.03-0.63-0.12-0.87-0.28c-0.49-0.28-0.97-0.68-1.43-1.22
		c-0.46-0.54-0.84-1.31-1.15-2.32c-0.31-1.01-0.46-2.39-0.46-4.14c0-0.98-0.15-1.79-0.46-2.44c-0.31-0.64-0.72-1.17-1.24-1.56
		s-1.1-0.67-1.75-0.83s-1.3-0.23-1.98-0.23h-9.71v11.18c0,0.52-0.15,0.97-0.46,1.33c-0.31,0.37-0.72,0.55-1.24,0.55
		c-0.58,0-1.08-0.18-1.5-0.55c-0.41-0.37-0.62-0.81-0.62-1.33v-28.47c0-0.52,0.18-0.96,0.53-1.31c0.35-0.35,0.79-0.53,1.31-0.53
		h12.7c1.72,0,3.27,0.39,4.65,1.17s2.48,1.86,3.29,3.22c0.81,1.37,1.22,2.94,1.22,4.72c0,1.29-0.25,2.49-0.74,3.61
		c-0.49,1.12-1.17,2.09-2.02,2.9c-0.73,0.69-1.55,1.23-2.46,1.65c0.46,0.22,0.9,0.48,1.31,0.79c0.83,0.63,1.5,1.43,2.02,2.39
		c0.52,0.97,0.8,2.09,0.83,3.38c0.06,1.13,0.14,2.04,0.23,2.71c0.09,0.67,0.23,1.2,0.41,1.59c0.18,0.38,0.44,0.68,0.78,0.9
		c0.43,0.28,0.71,0.64,0.85,1.1s0.05,0.91-0.25,1.33C241.76,366.63,241.5,366.82,241.16,366.93z M234.33,349.79
		c0.78-0.55,1.43-1.33,1.93-2.32c0.51-1,0.76-2.12,0.76-3.38c0-1.63-0.51-2.97-1.54-4.05c-1.03-1.07-2.32-1.61-3.89-1.61h-10.49
		v12.28h10.72C232.71,350.65,233.55,350.35,234.33,349.79z M258,366.75c0.31,0.2,0.63,0.32,0.97,0.35c0.37,0,0.71-0.1,1.04-0.3
		c0.32-0.2,0.58-0.5,0.76-0.9l12.01-28.47c0.12-0.31,0.18-0.58,0.18-0.83c0-0.52-0.18-0.94-0.55-1.27
		c-0.37-0.32-0.81-0.48-1.33-0.48c-0.77,0-1.33,0.38-1.7,1.15l-10.11,25.03l-10.46-24.93c-0.37-0.86-0.97-1.29-1.79-1.29
		c-0.4,0-0.8,0.16-1.22,0.48c-0.41,0.32-0.62,0.78-0.62,1.36c0,0.15,0.02,0.3,0.05,0.44c0.03,0.14,0.08,0.27,0.14,0.39l11.96,28.43
		C257.46,366.26,257.69,366.55,258,366.75z M296.68,367.09c0.52,0,0.97-0.17,1.33-0.51c0.37-0.34,0.55-0.77,0.55-1.29
		c0-0.46-0.18-0.87-0.55-1.24c-0.37-0.37-0.81-0.55-1.33-0.55h-14.4v-11.18h12.33c0.52,0,0.97-0.16,1.33-0.48
		c0.37-0.32,0.55-0.74,0.55-1.27c0-0.52-0.18-0.95-0.55-1.29c-0.37-0.34-0.81-0.51-1.33-0.51h-12.33v-10.35h14.4
		c0.52,0,0.97-0.16,1.33-0.48c0.37-0.32,0.55-0.74,0.55-1.26s-0.18-0.95-0.55-1.29c-0.37-0.34-0.81-0.51-1.33-0.51h-16.38
		c-0.52,0-0.96,0.18-1.31,0.53c-0.35,0.35-0.53,0.79-0.53,1.31v28.47c0,0.52,0.18,0.97,0.53,1.33c0.35,0.37,0.79,0.55,1.31,0.55
		H296.68z M319.61,366.38c1.64-0.75,2.94-1.79,3.89-3.11c0.95-1.32,1.43-2.82,1.43-4.51c0-1.59-0.25-2.94-0.76-4.03
		c-0.51-1.09-1.22-1.99-2.14-2.69s-2.02-1.3-3.29-1.77c-1.27-0.47-2.66-0.9-4.16-1.26c-1.38-0.37-2.64-0.79-3.77-1.26
		c-1.13-0.48-2.04-1.09-2.71-1.84c-0.68-0.75-1.01-1.71-1.01-2.88c0-1.04,0.3-1.94,0.9-2.69c0.6-0.75,1.43-1.33,2.51-1.75
		c1.07-0.41,2.31-0.62,3.73-0.62c0.95,0,1.9,0.14,2.85,0.41c0.95,0.28,1.82,0.64,2.62,1.1c0.8,0.46,1.46,0.98,1.98,1.56
		c0.28,0.25,0.58,0.37,0.92,0.37c0.49,0,0.93-0.19,1.31-0.58c0.38-0.38,0.58-0.8,0.58-1.26c0-0.55-0.31-1.12-0.92-1.7
		c-1.01-1.07-2.35-1.92-4.03-2.53c-1.67-0.61-3.44-0.92-5.31-0.92c-2.12,0-3.99,0.36-5.61,1.08c-1.63,0.72-2.9,1.74-3.82,3.06
		c-0.92,1.32-1.38,2.85-1.38,4.6c0,1.38,0.24,2.58,0.71,3.61c0.48,1.03,1.14,1.9,2,2.62c0.86,0.72,1.88,1.33,3.06,1.82
		c1.18,0.49,2.48,0.9,3.89,1.24c1.59,0.37,3,0.82,4.21,1.36c1.21,0.54,2.16,1.2,2.85,2c0.69,0.8,1.05,1.81,1.08,3.04
		c0,1.01-0.32,1.9-0.97,2.67c-0.64,0.77-1.51,1.37-2.6,1.79c-1.09,0.43-2.31,0.64-3.66,0.64c-1.75,0-3.32-0.31-4.71-0.92
		c-1.4-0.61-2.69-1.5-3.89-2.67c-0.34-0.34-0.72-0.51-1.15-0.51c-0.52,0-0.96,0.19-1.31,0.58c-0.35,0.38-0.53,0.82-0.53,1.31
		c0,0.31,0.07,0.59,0.21,0.85c0.14,0.26,0.31,0.5,0.53,0.71c1.59,1.47,3.25,2.55,4.97,3.22c1.72,0.67,3.71,1.01,5.98,1.01
		C316.13,367.52,317.97,367.13,319.61,366.38z M330.4,338.39h8.74v26.82c0,0.52,0.18,0.97,0.55,1.33c0.37,0.37,0.83,0.55,1.38,0.55
		c0.58,0,1.06-0.18,1.43-0.55c0.37-0.37,0.55-0.81,0.55-1.33v-26.82h8.74c0.52,0,0.97-0.15,1.33-0.46s0.55-0.74,0.55-1.29
		c0-0.52-0.18-0.94-0.55-1.26c-0.37-0.32-0.81-0.48-1.33-0.48H330.4c-0.52,0-0.96,0.16-1.31,0.48c-0.35,0.32-0.53,0.74-0.53,1.26
		s0.18,0.94,0.53,1.26C329.44,338.23,329.88,338.39,330.4,338.39z M377.41,338.43c0.52,0,0.97-0.16,1.33-0.48
		c0.37-0.32,0.55-0.74,0.55-1.26s-0.18-0.95-0.55-1.29c-0.37-0.34-0.81-0.51-1.33-0.51h-16.38c-0.52,0-0.96,0.18-1.31,0.53
		c-0.35,0.35-0.53,0.79-0.53,1.31v28.47c0,0.52,0.18,0.97,0.53,1.33c0.35,0.37,0.79,0.55,1.31,0.55h16.38
		c0.52,0,0.97-0.17,1.33-0.51c0.37-0.34,0.55-0.77,0.55-1.29c0-0.46-0.18-0.87-0.55-1.24c-0.37-0.37-0.81-0.55-1.33-0.55h-14.4
		v-11.18h12.33c0.52,0,0.97-0.16,1.33-0.48c0.37-0.32,0.55-0.74,0.55-1.27c0-0.52-0.18-0.95-0.55-1.29
		c-0.37-0.34-0.81-0.51-1.33-0.51h-12.33v-10.35H377.41z M412.33,350.99c0,2.94-0.51,5.64-1.52,8.07c-1.01,2.44-2.51,4.39-4.51,5.84
		c-1.99,1.46-4.51,2.19-7.54,2.19h-11.5c-0.52,0-0.96-0.18-1.31-0.55c-0.35-0.37-0.53-0.81-0.53-1.33v-28.47
		c0-0.52,0.18-0.96,0.53-1.31c0.35-0.35,0.79-0.53,1.31-0.53h11.5c2.24,0,4.21,0.42,5.91,1.26c1.7,0.84,3.12,2.02,4.26,3.52
		c1.13,1.5,1.98,3.23,2.55,5.17C412.04,346.8,412.33,348.84,412.33,350.99z M408.37,350.99c0-1.66-0.19-3.24-0.58-4.76
		c-0.38-1.52-0.98-2.86-1.79-4.03c-0.81-1.17-1.86-2.08-3.13-2.76c-1.27-0.67-2.8-1.01-4.58-1.01h-9.06v25.07h9.06
		c2.36,0,4.29-0.57,5.77-1.7c1.49-1.13,2.58-2.65,3.27-4.55C408.03,355.35,408.37,353.26,408.37,350.99z M75.4,390.09
		c-0.55,0-1.01,0.18-1.38,0.53c-0.37,0.35-0.55,0.8-0.55,1.36v28.43c0,0.52,0.17,0.97,0.51,1.33c0.34,0.37,0.8,0.55,1.38,0.55
		c0.52,0,0.97-0.18,1.36-0.55c0.38-0.37,0.58-0.81,0.58-1.33v-28.43c0-0.55-0.18-1-0.55-1.36S75.92,390.09,75.4,390.09z
		 M109.21,390.09c-0.49,0-0.9,0.16-1.22,0.48c-0.32,0.32-0.48,0.73-0.48,1.22v23.82L88.7,390.73c-0.15-0.21-0.38-0.38-0.67-0.48
		c-0.29-0.11-0.57-0.16-0.85-0.16c-0.49,0-0.91,0.17-1.26,0.51c-0.35,0.34-0.53,0.78-0.53,1.33v28.66c0,0.49,0.15,0.9,0.46,1.22
		c0.31,0.32,0.71,0.48,1.2,0.48c0.52,0,0.94-0.16,1.27-0.48c0.32-0.32,0.48-0.73,0.48-1.22v-23.72l18.77,24.82
		c0.15,0.18,0.37,0.33,0.64,0.44c0.28,0.11,0.55,0.16,0.83,0.16c0.52,0,0.97-0.18,1.33-0.53c0.37-0.35,0.55-0.82,0.55-1.4v-28.57
		c0-0.49-0.15-0.9-0.46-1.22C110.15,390.25,109.73,390.09,109.21,390.09z M142.52,405.64h-8.37c-0.52,0-0.96,0.18-1.31,0.53
		c-0.35,0.35-0.53,0.79-0.53,1.31c0,0.52,0.18,0.96,0.53,1.31c0.35,0.35,0.79,0.53,1.31,0.53h6.3v8.12
		c-0.86,0.45-1.85,0.82-3.01,1.12c-1.3,0.34-2.57,0.51-3.79,0.51c-2.42,0-4.59-0.57-6.51-1.7c-1.92-1.13-3.43-2.68-4.53-4.62
		s-1.66-4.13-1.66-6.56c0-2.45,0.55-4.65,1.66-6.58c1.1-1.93,2.61-3.46,4.53-4.6c1.92-1.13,4.09-1.7,6.51-1.7
		c1.23,0,2.39,0.15,3.5,0.44c1.1,0.29,2.13,0.68,3.08,1.17c0.18,0.06,0.36,0.12,0.53,0.18c0.17,0.06,0.34,0.09,0.53,0.09
		c0.46,0,0.87-0.18,1.22-0.55c0.35-0.37,0.53-0.81,0.53-1.33c0-0.31-0.07-0.6-0.21-0.87c-0.14-0.28-0.36-0.49-0.67-0.64
		c-1.2-0.74-2.52-1.28-3.98-1.63c-1.46-0.35-2.97-0.53-4.53-0.53c-2.36,0-4.55,0.41-6.56,1.24c-2.01,0.83-3.77,1.99-5.29,3.5
		s-2.7,3.26-3.54,5.27c-0.84,2.01-1.27,4.19-1.27,6.55c0,2.33,0.42,4.5,1.27,6.51c0.84,2.01,2.02,3.76,3.54,5.27
		c1.52,1.5,3.28,2.68,5.29,3.52c2.01,0.84,4.19,1.27,6.56,1.27c1.81,0,3.55-0.27,5.22-0.81c1.67-0.54,3.2-1.25,4.58-2.14
		c0.28-0.18,0.5-0.41,0.67-0.69c0.17-0.28,0.25-0.6,0.25-0.97v-10.63c0-0.52-0.17-0.97-0.51-1.33
		C143.51,405.82,143.07,405.64,142.52,405.64z M175.84,420.22c0.14,0.46,0.05,0.91-0.25,1.33c-0.18,0.28-0.44,0.47-0.78,0.58
		c-0.34,0.11-0.67,0.15-1.01,0.12c-0.34-0.03-0.63-0.12-0.87-0.28c-0.49-0.28-0.97-0.68-1.43-1.22c-0.46-0.54-0.84-1.31-1.15-2.32
		c-0.31-1.01-0.46-2.39-0.46-4.14c0-0.98-0.15-1.79-0.46-2.44c-0.31-0.64-0.72-1.17-1.24-1.56s-1.1-0.67-1.75-0.83
		s-1.3-0.23-1.98-0.23h-9.71v11.18c0,0.52-0.15,0.97-0.46,1.33c-0.31,0.37-0.72,0.55-1.24,0.55c-0.58,0-1.08-0.18-1.5-0.55
		c-0.41-0.37-0.62-0.81-0.62-1.33v-28.47c0-0.52,0.18-0.96,0.53-1.31c0.35-0.35,0.79-0.53,1.31-0.53h12.7
		c1.72,0,3.27,0.39,4.65,1.17s2.48,1.86,3.29,3.22c0.81,1.37,1.22,2.94,1.22,4.72c0,1.29-0.25,2.49-0.74,3.61
		c-0.49,1.12-1.17,2.09-2.02,2.9c-0.73,0.69-1.55,1.23-2.46,1.65c0.46,0.22,0.9,0.48,1.31,0.79c0.83,0.63,1.5,1.43,2.02,2.39
		c0.52,0.97,0.8,2.09,0.83,3.38c0.06,1.13,0.14,2.04,0.23,2.71c0.09,0.67,0.23,1.2,0.41,1.59c0.18,0.38,0.44,0.68,0.78,0.9
		C175.42,419.39,175.7,419.76,175.84,420.22z M167.98,405c0.78-0.55,1.43-1.33,1.93-2.32c0.51-1,0.76-2.12,0.76-3.38
		c0-1.63-0.51-2.97-1.54-4.05c-1.03-1.07-2.32-1.61-3.89-1.61h-10.49v12.28h10.72C166.36,405.85,167.2,405.55,167.98,405z
		 M200.25,393.63c0.52,0,0.97-0.16,1.33-0.48c0.37-0.32,0.55-0.74,0.55-1.26s-0.18-0.95-0.55-1.29c-0.37-0.34-0.81-0.51-1.33-0.51
		h-16.38c-0.52,0-0.96,0.18-1.31,0.53c-0.35,0.35-0.53,0.79-0.53,1.31v28.47c0,0.52,0.18,0.97,0.53,1.33
		c0.35,0.37,0.79,0.55,1.31,0.55h16.38c0.52,0,0.97-0.17,1.33-0.51c0.37-0.34,0.55-0.77,0.55-1.29c0-0.46-0.18-0.87-0.55-1.24
		c-0.37-0.37-0.81-0.55-1.33-0.55h-14.4v-11.18h12.33c0.52,0,0.97-0.16,1.33-0.48c0.37-0.32,0.55-0.74,0.55-1.27
		c0-0.52-0.18-0.95-0.55-1.29c-0.37-0.34-0.81-0.51-1.33-0.51h-12.33v-10.35H200.25z M234.31,400.05c0.57,1.95,0.85,4,0.85,6.14
		c0,2.94-0.51,5.64-1.52,8.07c-1.01,2.44-2.51,4.39-4.51,5.84c-1.99,1.46-4.51,2.19-7.54,2.19h-11.5c-0.52,0-0.96-0.18-1.31-0.55
		c-0.35-0.37-0.53-0.81-0.53-1.33v-28.47c0-0.52,0.18-0.96,0.53-1.31c0.35-0.35,0.79-0.53,1.31-0.53h11.5
		c2.24,0,4.21,0.42,5.91,1.26c1.7,0.84,3.12,2.02,4.26,3.52C232.89,396.38,233.74,398.1,234.31,400.05z M231.2,406.19
		c0-1.66-0.19-3.24-0.58-4.76c-0.38-1.52-0.98-2.86-1.79-4.03c-0.81-1.17-1.86-2.08-3.13-2.76c-1.27-0.67-2.8-1.01-4.58-1.01h-9.06
		v25.07h9.06c2.36,0,4.29-0.57,5.77-1.7c1.49-1.13,2.58-2.65,3.27-4.55C230.86,410.55,231.2,408.46,231.2,406.19z M243.21,390.09
		c-0.55,0-1.01,0.18-1.38,0.53c-0.37,0.35-0.55,0.8-0.55,1.36v28.43c0,0.52,0.17,0.97,0.51,1.33c0.34,0.37,0.8,0.55,1.38,0.55
		c0.52,0,0.97-0.18,1.36-0.55c0.38-0.37,0.58-0.81,0.58-1.33v-28.43c0-0.55-0.18-1-0.55-1.36S243.73,390.09,243.21,390.09z
		 M271.41,393.63c0.52,0,0.97-0.16,1.33-0.48c0.37-0.32,0.55-0.74,0.55-1.26s-0.18-0.95-0.55-1.29c-0.37-0.34-0.81-0.51-1.33-0.51
		h-16.38c-0.52,0-0.96,0.18-1.31,0.53c-0.35,0.35-0.53,0.79-0.53,1.31v28.47c0,0.52,0.18,0.97,0.53,1.33
		c0.35,0.37,0.79,0.55,1.31,0.55h16.38c0.52,0,0.97-0.17,1.33-0.51c0.37-0.34,0.55-0.77,0.55-1.29c0-0.46-0.18-0.87-0.55-1.24
		c-0.37-0.37-0.81-0.55-1.33-0.55h-14.4v-11.18h12.33c0.52,0,0.97-0.16,1.33-0.48c0.37-0.32,0.55-0.74,0.55-1.27
		c0-0.52-0.18-0.95-0.55-1.29c-0.37-0.34-0.81-0.51-1.33-0.51h-12.33v-10.35H271.41z M303.24,390.09c-0.49,0-0.9,0.16-1.22,0.48
		c-0.32,0.32-0.48,0.73-0.48,1.22v23.82l-18.81-24.88c-0.15-0.21-0.38-0.38-0.67-0.48c-0.29-0.11-0.57-0.16-0.85-0.16
		c-0.49,0-0.91,0.17-1.26,0.51c-0.35,0.34-0.53,0.78-0.53,1.33v28.66c0,0.49,0.15,0.9,0.46,1.22c0.31,0.32,0.71,0.48,1.2,0.48
		c0.52,0,0.94-0.16,1.27-0.48c0.32-0.32,0.48-0.73,0.48-1.22v-23.72l18.77,24.82c0.15,0.18,0.37,0.33,0.64,0.44
		c0.28,0.11,0.55,0.16,0.83,0.16c0.52,0,0.97-0.18,1.33-0.53c0.37-0.35,0.55-0.82,0.55-1.4v-28.57c0-0.49-0.15-0.9-0.46-1.22
		C304.17,390.25,303.76,390.09,303.24,390.09z M333.69,390.09H312.3c-0.52,0-0.96,0.16-1.31,0.48c-0.35,0.32-0.53,0.74-0.53,1.26
		s0.18,0.94,0.53,1.26c0.35,0.32,0.79,0.48,1.31,0.48h8.74v26.82c0,0.52,0.18,0.97,0.55,1.33c0.37,0.37,0.83,0.55,1.38,0.55
		c0.58,0,1.06-0.18,1.43-0.55c0.37-0.37,0.55-0.81,0.55-1.33v-26.82h8.74c0.52,0,0.97-0.15,1.33-0.46s0.55-0.74,0.55-1.29
		c0-0.52-0.18-0.94-0.55-1.26C334.66,390.25,334.21,390.09,333.69,390.09z M358.44,407.25c-0.92-0.71-2.02-1.3-3.29-1.77
		c-1.27-0.47-2.66-0.9-4.16-1.26c-1.38-0.37-2.64-0.79-3.77-1.26c-1.13-0.48-2.04-1.09-2.71-1.84c-0.68-0.75-1.01-1.71-1.01-2.88
		c0-1.04,0.3-1.94,0.9-2.69c0.6-0.75,1.43-1.33,2.51-1.75c1.07-0.41,2.31-0.62,3.73-0.62c0.95,0,1.9,0.14,2.85,0.41
		c0.95,0.28,1.82,0.64,2.62,1.1c0.8,0.46,1.46,0.98,1.98,1.56c0.28,0.25,0.58,0.37,0.92,0.37c0.49,0,0.93-0.19,1.31-0.58
		c0.38-0.38,0.58-0.8,0.58-1.26c0-0.55-0.31-1.12-0.92-1.7c-1.01-1.07-2.35-1.92-4.03-2.53c-1.67-0.61-3.44-0.92-5.31-0.92
		c-2.12,0-3.99,0.36-5.61,1.08c-1.63,0.72-2.9,1.74-3.82,3.06c-0.92,1.32-1.38,2.85-1.38,4.6c0,1.38,0.24,2.58,0.71,3.61
		c0.48,1.03,1.14,1.9,2,2.62c0.86,0.72,1.88,1.33,3.06,1.82c1.18,0.49,2.48,0.9,3.89,1.24c1.59,0.37,3,0.82,4.21,1.36
		c1.21,0.54,2.16,1.2,2.85,2c0.69,0.8,1.05,1.81,1.08,3.04c0,1.01-0.32,1.9-0.97,2.67c-0.64,0.77-1.51,1.37-2.6,1.79
		c-1.09,0.43-2.31,0.64-3.66,0.64c-1.75,0-3.32-0.31-4.71-0.92c-1.4-0.61-2.69-1.5-3.89-2.67c-0.34-0.34-0.72-0.51-1.15-0.51
		c-0.52,0-0.96,0.19-1.31,0.58c-0.35,0.38-0.53,0.82-0.53,1.31c0,0.31,0.07,0.59,0.21,0.85c0.14,0.26,0.31,0.5,0.53,0.71
		c1.59,1.47,3.25,2.55,4.97,3.22c1.72,0.67,3.71,1.01,5.98,1.01c2.05-0.03,3.9-0.42,5.54-1.17c1.64-0.75,2.94-1.79,3.89-3.11
		c0.95-1.32,1.43-2.82,1.43-4.51c0-1.59-0.25-2.94-0.76-4.03C360.07,408.85,359.36,407.95,358.44,407.25z"/>
	<path d="M216,17.5C134.67,17.5,68.5,83.67,68.5,165S134.67,312.5,216,312.5S363.5,246.33,363.5,165S297.33,17.5,216,17.5z
		 M216,307.5c-78.57,0-142.5-63.92-142.5-142.5c0-78.57,63.93-142.5,142.5-142.5c78.58,0,142.5,63.93,142.5,142.5
		C358.5,243.58,294.58,307.5,216,307.5z M283.06,154.37c7.9-1.27,12.26-2.61,12.47-2.68c0.78-0.24,1.39-0.85,1.64-1.63
		c0.25-0.78,0.1-1.63-0.4-2.28L271.4,114.6c7.43-0.99,11.62-2.27,11.82-2.34c0.78-0.24,1.39-0.85,1.64-1.63
		c0.25-0.78,0.1-1.63-0.4-2.28l-28.65-37.46c-0.47-0.62-1.21-0.98-1.99-0.98s-1.51,0.36-1.99,0.98l-28.65,37.46
		c-0.5,0.65-0.64,1.5-0.4,2.28c0.25,0.78,0.86,1.39,1.64,1.63c0.21,0.06,4.39,1.35,11.82,2.34l-25.37,33.19
		c-0.5,0.65-0.64,1.5-0.4,2.28c0.25,0.78,0.86,1.39,1.64,1.63c0.21,0.07,4.58,1.41,12.47,2.68l-9.28,12.14l-19.58-25.62
		c7.43-0.99,11.62-2.27,11.82-2.34c0.78-0.24,1.39-0.85,1.64-1.63c0.25-0.78,0.1-1.63-0.4-2.28l-28.65-37.46
		c-0.47-0.62-1.21-0.98-1.99-0.98s-1.51,0.36-1.99,0.98l-28.65,37.46c-0.5,0.65-0.64,1.5-0.4,2.28c0.25,0.78,0.86,1.39,1.64,1.63
		c0.21,0.06,4.39,1.35,11.82,2.34l-25.37,33.19c-0.5,0.65-0.64,1.5-0.4,2.28c0.25,0.78,0.86,1.39,1.64,1.63
		c0.21,0.07,4.58,1.41,12.47,2.68L119.63,219c-0.5,0.65-0.64,1.5-0.4,2.28c0.25,0.78,0.86,1.39,1.64,1.63
		c0.8,0.25,18.46,5.65,48.53,6.57v27.57c0,1.17,0.81,2.18,1.95,2.44c0.11,0.02,2.7,0.59,6.82,0.59s6.71-0.57,6.82-0.59
		c1.14-0.26,1.95-1.27,1.95-2.44v-27.57c30.07-0.92,47.73-6.32,48.53-6.57c0.78-0.24,1.39-0.85,1.64-1.63
		c0.25-0.78,0.1-1.63-0.4-2.28l-13.29-17.38c6.99,0.81,14.23,1.33,21.64,1.56v27.58c0,1.17,0.81,2.18,1.95,2.44
		c0.11,0.02,2.7,0.59,6.82,0.59c4.12,0,6.71-0.57,6.82-0.59c1.14-0.26,1.95-1.27,1.95-2.44v-27.57c30.07-0.92,47.73-6.32,48.53-6.57
		c0.78-0.24,1.39-0.85,1.64-1.63c0.25-0.78,0.1-1.63-0.4-2.28L283.06,154.37z M181.94,254.9c-0.96,0.1-2.24,0.19-3.77,0.19
		c-1.53,0-2.81-0.09-3.77-0.19v-25.31c1.24,0.02,2.49,0.03,3.77,0.03c1.28,0,2.53-0.01,3.77-0.03V254.9z M178.17,224.62
		c-26.42,0-44.95-3.75-52.3-5.55l29.62-38.74c0.54-0.71,0.67-1.65,0.32-2.48s-1.1-1.4-1.98-1.52c-5.47-0.73-9.65-1.58-12.35-2.2
		l25.76-33.7c0.55-0.72,0.67-1.69,0.31-2.52c-0.36-0.83-1.15-1.4-2.05-1.49c-5.11-0.49-9.08-1.2-11.68-1.76l24.35-31.84l24.35,31.84
		c-2.6,0.56-6.57,1.27-11.68,1.76c-0.9,0.09-1.69,0.66-2.05,1.49c-0.36,0.83-0.25,1.8,0.31,2.52l25.76,33.7
		c-2.7,0.63-6.88,1.48-12.35,2.2c-0.88,0.12-1.64,0.7-1.98,1.52s-0.22,1.77,0.32,2.48l14.96,19.56c0,0,0,0,0,0l14.66,19.18
		C223.12,220.86,204.59,224.62,178.17,224.62z M257.6,228.6c-0.96,0.1-2.24,0.19-3.77,0.19c-1.53,0-2.81-0.09-3.77-0.19v-25.31
		c1.25,0.02,2.51,0.03,3.77,0.03c1.28,0,2.53-0.01,3.77-0.03V228.6z M253.83,198.32c-12.05,0-23.7-0.77-34.67-2.28l-10.06-13.16
		l2.22-2.9c5.41-1.03,8.38-1.94,8.55-1.99c0.78-0.24,1.39-0.85,1.64-1.63c0.25-0.78,0.1-1.63-0.4-2.28l-2.64-3.46l12.69-16.59
		c0.54-0.71,0.67-1.65,0.32-2.48c-0.34-0.82-1.1-1.4-1.98-1.52c-5.47-0.73-9.65-1.57-12.35-2.2l25.76-33.7
		c0.55-0.72,0.67-1.69,0.31-2.52c-0.36-0.83-1.15-1.4-2.05-1.49c-5.11-0.49-9.08-1.2-11.68-1.76l24.35-31.84l24.35,31.84
		c-2.6,0.56-6.57,1.27-11.68,1.76c-0.9,0.09-1.69,0.66-2.05,1.49c-0.36,0.83-0.25,1.8,0.31,2.52l25.76,33.7
		c-2.7,0.63-6.88,1.48-12.35,2.2c-0.88,0.12-1.64,0.7-1.98,1.52s-0.22,1.77,0.32,2.48l29.62,38.74
		C298.78,194.57,280.25,198.32,253.83,198.32z"/>
</g>
<g id="Layer_50">
</g>
<g id="Layer_51">
</g>
</svg>
