<?xml version="1.0" encoding="utf-8"?>
<!-- Generator: Adobe Illustrator 23.0.1, SVG Export Plug-In . SVG Version: 6.00 Build 0)  -->
<svg version="1.1" xmlns="http://www.w3.org/2000/svg" xmlns:xlink="http://www.w3.org/1999/xlink" x="0px" y="0px"
	 viewBox="0 0 432 432" enable-background="new 0 0 432 432" xml:space="preserve">
<g id="Layer_37">
</g>
<g id="Layer_47">
</g>
<g id="Layer_42">
</g>
<g id="Layer_43">
</g>
<g id="Layer_44">
</g>
<g id="Layer_45">
</g>
<g id="Layer_46">
</g>
<g id="Layer_38">
</g>
<g id="Layer_39">
</g>
<g id="Layer_40">
</g>
<g id="Layer_41">
</g>
<g id="Layer_17">
</g>
<g id="Layer_18">
</g>
<g id="Layer_19">
</g>
<g id="Layer_20">
</g>
<g id="Layer_21">
</g>
<g id="Layer_22">
</g>
<g id="Layer_23">
</g>
<g id="Layer_24">
</g>
<g id="Layer_25">
</g>
<g id="Layer_26">
</g>
<g id="Layer_27">
</g>
<g id="Layer_28">
</g>
<g id="Layer_29">
</g>
<g id="Layer_30">
</g>
<g id="Layer_31">
</g>
<g id="Layer_2">
</g>
<g id="Layer_3">
</g>
<g id="Layer_4">
</g>
<g id="Layer_5">
</g>
<g id="Layer_6">
</g>
<g id="Layer_7">
</g>
<g id="Layer_8">
</g>
<g id="Layer_9">
</g>
<g id="Layer_10">
</g>
<g id="Layer_11">
</g>
<g id="Layer_12">
</g>
<g id="Layer_13">
</g>
<g id="Layer_14">
</g>
<g id="Layer_15">
</g>
<g id="Layer_16">
</g>
<g id="Layer_32">
</g>
<g id="Layer_33">
</g>
<g id="Layer_34">
</g>
<g id="Layer_35">
</g>
<g id="Layer_49">
</g>
<g id="Layer_50">
	<path id="locally_grown" d="M49.02,363.99c0.37,0.35,0.55,0.79,0.55,1.31s-0.18,0.95-0.55,1.29c-0.37,0.34-0.81,0.51-1.33,0.51
		H31.77c-0.52,0-0.96-0.18-1.31-0.55c-0.35-0.37-0.53-0.81-0.53-1.33v-28.47c0-0.52,0.18-0.96,0.55-1.31
		c0.37-0.35,0.83-0.53,1.38-0.53c0.52,0,0.97,0.18,1.33,0.53s0.55,0.79,0.55,1.31v26.73h13.94
		C48.21,363.46,48.65,363.63,49.02,363.99z M82.28,344.39c0.77,2.01,1.15,4.21,1.15,6.6c0,2.36-0.38,4.55-1.15,6.56
		s-1.84,3.76-3.22,5.27c-1.38,1.5-3.02,2.67-4.92,3.5c-1.9,0.83-3.97,1.24-6.21,1.24c-2.27,0-4.35-0.41-6.23-1.24
		c-1.89-0.83-3.52-1.99-4.9-3.5c-1.38-1.5-2.45-3.26-3.22-5.27c-0.77-2.01-1.15-4.19-1.15-6.56c0-2.39,0.38-4.59,1.15-6.6
		c0.77-2.01,1.84-3.76,3.22-5.24c1.38-1.49,3.01-2.64,4.9-3.47c1.89-0.83,3.96-1.24,6.23-1.24c2.24,0,4.31,0.41,6.21,1.24
		c1.9,0.83,3.54,1.99,4.92,3.47C80.44,340.63,81.51,342.38,82.28,344.39z M79.47,350.99c0-2.51-0.5-4.74-1.5-6.67
		c-1-1.93-2.35-3.45-4.07-4.55c-1.72-1.1-3.71-1.66-5.98-1.66s-4.27,0.55-6,1.66c-1.73,1.1-3.09,2.62-4.07,4.55
		c-0.98,1.93-1.47,4.16-1.47,6.67c0,2.48,0.49,4.7,1.47,6.65c0.98,1.95,2.34,3.47,4.07,4.58c1.73,1.1,3.73,1.66,6,1.66
		s4.26-0.55,5.98-1.66c1.72-1.1,3.07-2.63,4.07-4.58C78.97,355.69,79.47,353.47,79.47,350.99z M112.13,361.71
		c-0.43-0.06-0.86,0.02-1.29,0.23c-1.04,0.64-2.15,1.13-3.31,1.47c-1.17,0.34-2.38,0.51-3.63,0.51c-1.75,0-3.37-0.29-4.85-0.87
		c-1.49-0.58-2.79-1.43-3.91-2.55c-1.12-1.12-2-2.48-2.65-4.07s-0.97-3.4-0.97-5.43c0-1.9,0.31-3.63,0.92-5.2
		c0.61-1.56,1.47-2.91,2.58-4.05c1.1-1.13,2.41-2.02,3.91-2.64c1.5-0.63,3.16-0.94,4.97-0.94c1.29,0,2.51,0.18,3.68,0.53
		c1.17,0.35,2.25,0.84,3.27,1.45c0.43,0.21,0.86,0.31,1.29,0.28c0.43-0.03,0.78-0.25,1.06-0.64c0.37-0.46,0.51-0.97,0.44-1.52
		c-0.08-0.55-0.38-0.97-0.9-1.24c-1.26-0.8-2.65-1.41-4.16-1.84s-3.07-0.64-4.67-0.64c-2.3,0-4.44,0.41-6.42,1.24
		s-3.71,1.98-5.2,3.45c-1.49,1.47-2.65,3.21-3.47,5.2c-0.83,1.99-1.24,4.19-1.24,6.58c0,2.55,0.44,4.84,1.31,6.88
		c0.87,2.04,2.06,3.78,3.56,5.22c1.5,1.44,3.24,2.55,5.2,3.31c1.96,0.77,4.05,1.15,6.26,1.15c1.07,0,2.14-0.11,3.2-0.32
		c1.06-0.21,2.08-0.51,3.06-0.9s1.86-0.81,2.62-1.27c0.49-0.25,0.78-0.64,0.87-1.17c0.09-0.54-0.05-1.05-0.41-1.54
		C112.93,361.98,112.56,361.77,112.13,361.71z M143.64,364.65c0.09,0.25,0.14,0.49,0.14,0.74c0,0.55-0.18,0.99-0.55,1.31
		c-0.37,0.32-0.78,0.48-1.24,0.48c-0.37,0-0.71-0.11-1.01-0.32c-0.31-0.21-0.54-0.52-0.69-0.92l-3.1-7.45h-14.56l-3.08,7.5
		c-0.12,0.37-0.34,0.66-0.64,0.87c-0.31,0.21-0.63,0.32-0.97,0.32c-0.58,0-1.01-0.15-1.29-0.46c-0.28-0.31-0.41-0.67-0.41-1.1
		c-0.03-0.21,0-0.44,0.09-0.69l11.91-28.98c0.15-0.43,0.39-0.74,0.71-0.94c0.32-0.2,0.68-0.28,1.08-0.25c0.4,0,0.76,0.11,1.08,0.32
		c0.32,0.21,0.54,0.51,0.67,0.87L143.64,364.65z M135.69,354.9l-5.84-14.02l-5.76,14.02H135.69z M166.6,363.46h-13.94v-26.73
		c0-0.52-0.18-0.96-0.55-1.31s-0.81-0.53-1.33-0.53c-0.55,0-1.01,0.18-1.38,0.53c-0.37,0.35-0.55,0.79-0.55,1.31v28.47
		c0,0.52,0.18,0.97,0.53,1.33c0.35,0.37,0.79,0.55,1.31,0.55h15.92c0.52,0,0.97-0.17,1.33-0.51c0.37-0.34,0.55-0.77,0.55-1.29
		s-0.18-0.96-0.55-1.31C167.56,363.63,167.12,363.46,166.6,363.46z M191.53,363.46h-13.94v-26.73c0-0.52-0.18-0.96-0.55-1.31
		s-0.81-0.53-1.33-0.53c-0.55,0-1.01,0.18-1.38,0.53c-0.37,0.35-0.55,0.79-0.55,1.31v28.47c0,0.52,0.18,0.97,0.53,1.33
		c0.35,0.37,0.79,0.55,1.31,0.55h15.92c0.52,0,0.97-0.17,1.33-0.51c0.37-0.34,0.55-0.77,0.55-1.29s-0.18-0.96-0.55-1.31
		C192.49,363.63,192.05,363.46,191.53,363.46z M215.54,334.71c-0.61,0-1.12,0.31-1.52,0.92l-8.77,12.34l-9.03-12.39
		c-0.4-0.58-0.91-0.87-1.52-0.87c-0.43,0-0.86,0.18-1.29,0.53c-0.43,0.35-0.64,0.79-0.64,1.31c0,0.21,0.04,0.44,0.11,0.67
		c0.08,0.23,0.21,0.47,0.39,0.71l10.03,13.55v13.73c0,0.52,0.18,0.97,0.53,1.33c0.35,0.37,0.81,0.55,1.36,0.55
		c0.49,0,0.91-0.18,1.27-0.55c0.35-0.37,0.53-0.81,0.53-1.33v-13.44l10.07-14.03c0.12-0.18,0.21-0.38,0.25-0.57s0.07-0.39,0.07-0.58
		c0-0.49-0.18-0.93-0.53-1.31C216.5,334.9,216.06,334.71,215.54,334.71z M258.46,350.44h-8.37c-0.52,0-0.96,0.18-1.31,0.53
		c-0.35,0.35-0.53,0.79-0.53,1.31c0,0.52,0.18,0.96,0.53,1.31c0.35,0.35,0.79,0.53,1.31,0.53h6.3v8.12
		c-0.86,0.45-1.85,0.82-3.01,1.12c-1.3,0.34-2.57,0.51-3.79,0.51c-2.42,0-4.59-0.57-6.51-1.7c-1.92-1.13-3.43-2.68-4.53-4.62
		s-1.66-4.13-1.66-6.56c0-2.45,0.55-4.65,1.66-6.58c1.1-1.93,2.61-3.46,4.53-4.6c1.92-1.13,4.09-1.7,6.51-1.7
		c1.23,0,2.39,0.15,3.5,0.44c1.1,0.29,2.13,0.68,3.08,1.17c0.18,0.06,0.36,0.12,0.53,0.18c0.17,0.06,0.34,0.09,0.53,0.09
		c0.46,0,0.87-0.18,1.22-0.55c0.35-0.37,0.53-0.81,0.53-1.33c0-0.31-0.07-0.6-0.21-0.87c-0.14-0.28-0.36-0.49-0.67-0.64
		c-1.2-0.74-2.52-1.28-3.98-1.63c-1.46-0.35-2.97-0.53-4.53-0.53c-2.36,0-4.55,0.41-6.56,1.24c-2.01,0.83-3.77,1.99-5.29,3.5
		s-2.7,3.26-3.54,5.27c-0.84,2.01-1.27,4.19-1.27,6.55c0,2.33,0.42,4.5,1.27,6.51c0.84,2.01,2.02,3.76,3.54,5.27
		c1.52,1.5,3.28,2.68,5.29,3.52c2.01,0.84,4.19,1.27,6.56,1.27c1.81,0,3.55-0.27,5.22-0.81c1.67-0.54,3.2-1.25,4.58-2.14
		c0.28-0.18,0.5-0.41,0.67-0.69c0.17-0.28,0.25-0.6,0.25-0.97v-10.63c0-0.52-0.17-0.97-0.51-1.33
		C259.45,350.62,259.01,350.44,258.46,350.44z M291.78,365.02c0.14,0.46,0.05,0.91-0.25,1.33c-0.18,0.28-0.44,0.47-0.78,0.58
		c-0.34,0.11-0.67,0.15-1.01,0.12c-0.34-0.03-0.63-0.12-0.87-0.28c-0.49-0.28-0.97-0.68-1.43-1.22c-0.46-0.54-0.84-1.31-1.15-2.32
		c-0.31-1.01-0.46-2.39-0.46-4.14c0-0.98-0.15-1.79-0.46-2.44c-0.31-0.64-0.72-1.17-1.24-1.56s-1.1-0.67-1.75-0.83
		s-1.3-0.23-1.98-0.23h-9.71v11.18c0,0.52-0.15,0.97-0.46,1.33c-0.31,0.37-0.72,0.55-1.24,0.55c-0.58,0-1.08-0.18-1.5-0.55
		c-0.41-0.37-0.62-0.81-0.62-1.33v-28.47c0-0.52,0.18-0.96,0.53-1.31c0.35-0.35,0.79-0.53,1.31-0.53h12.7
		c1.72,0,3.27,0.39,4.65,1.17s2.48,1.86,3.29,3.22c0.81,1.37,1.22,2.94,1.22,4.72c0,1.29-0.25,2.49-0.74,3.61
		c-0.49,1.12-1.17,2.09-2.02,2.9c-0.73,0.69-1.55,1.23-2.46,1.65c0.46,0.22,0.9,0.48,1.31,0.79c0.83,0.63,1.5,1.43,2.02,2.39
		c0.52,0.97,0.8,2.09,0.83,3.38c0.06,1.13,0.14,2.04,0.23,2.71c0.09,0.67,0.23,1.2,0.41,1.59c0.18,0.38,0.44,0.68,0.78,0.9
		C291.36,364.19,291.65,364.56,291.78,365.02z M283.92,349.79c0.78-0.55,1.43-1.33,1.93-2.32c0.51-1,0.76-2.12,0.76-3.38
		c0-1.63-0.51-2.97-1.54-4.05c-1.03-1.07-2.32-1.61-3.89-1.61h-10.49v12.28h10.72C282.3,350.65,283.14,350.35,283.92,349.79z
		 M325.39,344.39c0.77,2.01,1.15,4.21,1.15,6.6c0,2.36-0.38,4.55-1.15,6.56s-1.84,3.76-3.22,5.27c-1.38,1.5-3.02,2.67-4.92,3.5
		c-1.9,0.83-3.97,1.24-6.21,1.24c-2.27,0-4.35-0.41-6.23-1.24c-1.89-0.83-3.52-1.99-4.9-3.5c-1.38-1.5-2.45-3.26-3.22-5.27
		c-0.77-2.01-1.15-4.19-1.15-6.56c0-2.39,0.38-4.59,1.15-6.6c0.77-2.01,1.84-3.76,3.22-5.24c1.38-1.49,3.01-2.64,4.9-3.47
		c1.89-0.83,3.96-1.24,6.23-1.24c2.24,0,4.31,0.41,6.21,1.24c1.9,0.83,3.54,1.99,4.92,3.47
		C323.55,340.63,324.62,342.38,325.39,344.39z M322.58,350.99c0-2.51-0.5-4.74-1.5-6.67c-1-1.93-2.35-3.45-4.07-4.55
		c-1.72-1.1-3.71-1.66-5.98-1.66s-4.27,0.55-6,1.66c-1.73,1.1-3.09,2.62-4.07,4.55c-0.98,1.93-1.47,4.16-1.47,6.67
		c0,2.48,0.49,4.7,1.47,6.65c0.98,1.95,2.34,3.47,4.07,4.58c1.73,1.1,3.73,1.66,6,1.66s4.26-0.55,5.98-1.66
		c1.72-1.1,3.07-2.63,4.07-4.58C322.08,355.69,322.58,353.47,322.58,350.99z M369.32,334.75c-0.4,0-0.77,0.11-1.1,0.32
		c-0.34,0.21-0.57,0.51-0.69,0.87l-8.26,24.47l-7.01-17.62c-0.12-0.37-0.35-0.66-0.67-0.87c-0.32-0.21-0.67-0.32-1.04-0.32
		c-0.4,0-0.75,0.11-1.06,0.32c-0.31,0.21-0.54,0.51-0.69,0.87l-7.15,17.67l-8.31-24.53c-0.12-0.37-0.35-0.66-0.69-0.87
		c-0.34-0.21-0.69-0.32-1.06-0.32c-0.46,0-0.91,0.18-1.36,0.53c-0.44,0.35-0.67,0.84-0.67,1.45c0,0.18,0.03,0.4,0.09,0.64l9.8,28.52
		c0.12,0.37,0.35,0.65,0.67,0.85c0.32,0.2,0.65,0.32,0.99,0.35c0.37,0,0.72-0.1,1.06-0.3s0.6-0.5,0.78-0.9l7.48-18.07l7.47,18.07
		c0.18,0.4,0.44,0.7,0.78,0.9c0.34,0.2,0.69,0.3,1.06,0.3c0.34-0.03,0.67-0.15,0.99-0.35c0.32-0.2,0.54-0.48,0.67-0.85l9.8-28.52
		c0.06-0.25,0.09-0.48,0.09-0.69c0-0.61-0.21-1.09-0.62-1.43C370.26,334.92,369.81,334.75,369.32,334.75z M401.61,335.37
		c-0.31-0.32-0.72-0.48-1.24-0.48c-0.49,0-0.9,0.16-1.22,0.48c-0.32,0.32-0.48,0.73-0.48,1.22v23.82l-18.81-24.88
		c-0.15-0.21-0.38-0.38-0.67-0.48c-0.29-0.11-0.57-0.16-0.85-0.16c-0.49,0-0.91,0.17-1.26,0.51c-0.35,0.34-0.53,0.78-0.53,1.33
		v28.66c0,0.49,0.15,0.9,0.46,1.22c0.31,0.32,0.71,0.48,1.2,0.48c0.52,0,0.94-0.16,1.27-0.48c0.32-0.32,0.48-0.73,0.48-1.22v-23.72
		l18.77,24.82c0.15,0.18,0.37,0.33,0.64,0.44c0.28,0.11,0.55,0.16,0.83,0.16c0.52,0,0.97-0.18,1.33-0.53
		c0.37-0.35,0.55-0.82,0.55-1.4v-28.57C402.07,336.1,401.92,335.7,401.61,335.37z"/>
	<path d="M216,17.5C134.67,17.5,68.5,83.67,68.5,165S134.67,312.5,216,312.5S363.5,246.33,363.5,165S297.33,17.5,216,17.5z
		 M216,307.5c-78.57,0-142.5-63.92-142.5-142.5c0-78.57,63.93-142.5,142.5-142.5c78.58,0,142.5,63.93,142.5,142.5
		C358.5,243.58,294.58,307.5,216,307.5z M216,76.62c-34.81,0-63.13,28.32-63.13,63.13c0,27.74,39.11,86.09,55.92,109.9
		c1.65,2.34,4.35,3.74,7.21,3.74s5.56-1.4,7.21-3.74c16.81-23.8,55.92-82.16,55.92-109.9C279.13,104.94,250.81,76.62,216,76.62z
		 M219.13,246.76c-0.73,1.03-1.87,1.62-3.13,1.62s-2.4-0.59-3.13-1.62c-12.9-18.27-55-79.97-55-107.01
		c0-32.05,26.08-58.13,58.13-58.13s58.13,26.08,58.13,58.13C274.13,166.79,232.03,228.49,219.13,246.76z M216,91.76
		c-26.46,0-47.99,21.53-47.99,47.99c0,26.46,21.53,47.99,47.99,47.99c1.38,0,2.5-1.12,2.5-2.5s-1.12-2.5-2.5-2.5
		c-23.7,0-42.99-19.28-42.99-42.99c0-23.7,19.28-42.99,42.99-42.99s42.99,19.28,42.99,42.99c0,10.98-9.36,19.46-21.77,19.75
		c-0.16,0-0.33,0-0.49,0c-4.96,0-9.5-1.71-13.45-4.92c2.49-0.82,5.37-2.24,7.35-4.72c2-2.5,2.76-5.56,2.23-9.09
		c-1.02-6.83-6.96-11.91-12.21-16.4c-4.82-4.12-9.38-8.02-9.04-12.08c0.09-1.1-0.55-2.13-1.58-2.53c-1.03-0.4-2.2-0.09-2.88,0.78
		c-0.78,0.99-18.94,24.35-12.11,40.14c2.42,5.59,7.76,9.65,13.3,10.09c0.35,0.03,0.7,0.04,1.05,0.04c3.4,0,6.46-1.37,8.88-3.94
		c5.34,5.09,11.83,7.77,19.05,7.61c14.95-0.34,26.66-11.21,26.66-24.74C263.99,113.29,242.46,91.76,216,91.76z M208.74,155.79
		c-3.69-0.3-7.44-3.21-9.11-7.09c-4.1-9.48,3.69-23.56,8.34-30.65c1.97,3.75,5.74,6.97,9.43,10.13c4.8,4.11,9.77,8.35,10.51,13.33
		c0.32,2.12-0.07,3.83-1.18,5.22c-1.82,2.28-5.34,3.35-7.54,3.75c-4.02-4.93-7.14-11.75-9.06-20.14c-0.31-1.35-1.65-2.19-2.99-1.88
		c-1.35,0.31-2.19,1.65-1.88,2.99c2.03,8.89,5.34,16.22,9.64,21.7C213.22,155.06,211.12,155.98,208.74,155.79z"/>
</g>
<g id="Layer_51">
</g>
</svg>
