<?xml version="1.0" encoding="utf-8"?>
<!-- Generator: Adobe Illustrator 23.0.1, SVG Export Plug-In . SVG Version: 6.00 Build 0)  -->
<svg version="1.1" xmlns="http://www.w3.org/2000/svg" xmlns:xlink="http://www.w3.org/1999/xlink" x="0px" y="0px"
	 viewBox="0 0 432 432" enable-background="new 0 0 432 432" xml:space="preserve">
<g id="Layer_37">
</g>
<g id="Layer_47">
</g>
<g id="Layer_42">
</g>
<g id="Layer_43">
</g>
<g id="Layer_44">
</g>
<g id="Layer_45">
</g>
<g id="Layer_46">
</g>
<g id="Layer_38">
</g>
<g id="Layer_39">
</g>
<g id="Layer_40">
</g>
<g id="Layer_41">
</g>
<g id="Layer_17">
</g>
<g id="Layer_18">
</g>
<g id="Layer_19">
</g>
<g id="Layer_20">
</g>
<g id="Layer_21">
</g>
<g id="Layer_22">
</g>
<g id="Layer_23">
</g>
<g id="Layer_24">
</g>
<g id="Layer_25">
</g>
<g id="Layer_26">
</g>
<g id="Layer_27">
</g>
<g id="Layer_28">
</g>
<g id="Layer_29">
</g>
<g id="Layer_30">
</g>
<g id="Layer_31">
	<path id="nut_oil_free" d="M93.55,335.38c0.31,0.32,0.46,0.73,0.46,1.22v28.57c0,0.58-0.18,1.05-0.55,1.4
		c-0.37,0.35-0.81,0.53-1.33,0.53c-0.28,0-0.55-0.05-0.83-0.16c-0.28-0.11-0.49-0.25-0.64-0.44l-18.77-24.82v23.72
		c0,0.49-0.16,0.9-0.48,1.22c-0.32,0.32-0.74,0.48-1.27,0.48c-0.49,0-0.89-0.16-1.2-0.48c-0.31-0.32-0.46-0.73-0.46-1.22v-28.66
		c0-0.55,0.18-1,0.53-1.33c0.35-0.34,0.77-0.51,1.26-0.51c0.28,0,0.56,0.05,0.85,0.16c0.29,0.11,0.51,0.27,0.67,0.48l18.81,24.88
		v-23.82c0-0.49,0.16-0.9,0.48-1.22s0.73-0.48,1.22-0.48C92.83,334.89,93.24,335.05,93.55,335.38z M124.88,334.85
		c-0.55,0-0.98,0.18-1.29,0.55c-0.31,0.37-0.46,0.81-0.46,1.33V355c0,1.69-0.41,3.19-1.22,4.51s-1.88,2.35-3.2,3.1
		c-1.32,0.75-2.76,1.13-4.32,1.13c-1.53,0-2.95-0.38-4.25-1.13c-1.3-0.75-2.34-1.79-3.11-3.1s-1.15-2.82-1.15-4.51v-18.26
		c0-0.52-0.19-0.97-0.58-1.33c-0.38-0.37-0.82-0.55-1.31-0.55c-0.58,0-1.05,0.18-1.4,0.55c-0.35,0.37-0.53,0.81-0.53,1.33V355
		c0,2.36,0.54,4.48,1.61,6.35c1.07,1.87,2.54,3.35,4.39,4.44s3.96,1.63,6.33,1.63c2.33,0,4.42-0.54,6.26-1.63s3.3-2.57,4.39-4.44
		c1.09-1.87,1.63-3.99,1.63-6.35v-18.26c0-0.52-0.17-0.97-0.51-1.33C125.83,335.03,125.4,334.85,124.88,334.85z M155.42,334.89
		h-21.39c-0.52,0-0.96,0.16-1.31,0.48s-0.53,0.74-0.53,1.26c0,0.52,0.18,0.94,0.53,1.27c0.35,0.32,0.79,0.48,1.31,0.48h8.74v26.82
		c0,0.52,0.18,0.97,0.55,1.33s0.83,0.55,1.38,0.55c0.58,0,1.06-0.18,1.43-0.55s0.55-0.81,0.55-1.33v-26.82h8.74
		c0.52,0,0.97-0.15,1.33-0.46c0.37-0.31,0.55-0.74,0.55-1.29c0-0.52-0.18-0.94-0.55-1.26S155.94,334.89,155.42,334.89z
		 M203.35,344.39c0.77,2.01,1.15,4.21,1.15,6.6c0,2.36-0.38,4.55-1.15,6.55c-0.77,2.01-1.84,3.76-3.22,5.27
		c-1.38,1.5-3.02,2.67-4.92,3.5c-1.9,0.83-3.97,1.24-6.21,1.24c-2.27,0-4.35-0.41-6.23-1.24s-3.52-1.99-4.9-3.5
		c-1.38-1.5-2.45-3.26-3.22-5.27c-0.77-2.01-1.15-4.19-1.15-6.55c0-2.39,0.38-4.59,1.15-6.6c0.77-2.01,1.84-3.76,3.22-5.24
		c1.38-1.49,3.01-2.64,4.9-3.47s3.96-1.24,6.23-1.24c2.24,0,4.31,0.41,6.21,1.24c1.9,0.83,3.54,1.99,4.92,3.47
		C201.51,340.64,202.58,342.38,203.35,344.39z M200.55,350.99c0-2.51-0.5-4.74-1.5-6.67c-1-1.93-2.35-3.45-4.07-4.55
		c-1.72-1.1-3.71-1.66-5.98-1.66s-4.27,0.55-6,1.66c-1.73,1.1-3.09,2.62-4.07,4.55c-0.98,1.93-1.47,4.16-1.47,6.67
		c0,2.48,0.49,4.7,1.47,6.65c0.98,1.95,2.34,3.47,4.07,4.58c1.73,1.1,3.73,1.66,6,1.66s4.26-0.55,5.98-1.66
		c1.72-1.1,3.07-2.63,4.07-4.58C200.05,355.69,200.55,353.48,200.55,350.99z M212.55,334.89c-0.55,0-1.01,0.18-1.38,0.53
		s-0.55,0.8-0.55,1.36v28.43c0,0.52,0.17,0.97,0.51,1.33c0.34,0.37,0.8,0.55,1.38,0.55c0.52,0,0.97-0.18,1.36-0.55
		c0.38-0.37,0.58-0.81,0.58-1.33v-28.43c0-0.55-0.18-1-0.55-1.36S213.07,334.89,212.55,334.89z M240.29,363.46h-13.94v-26.73
		c0-0.52-0.18-0.96-0.55-1.31s-0.81-0.53-1.33-0.53c-0.55,0-1.01,0.18-1.38,0.53c-0.37,0.35-0.55,0.79-0.55,1.31v28.47
		c0,0.52,0.18,0.97,0.53,1.33s0.79,0.55,1.31,0.55h15.92c0.52,0,0.97-0.17,1.33-0.51c0.37-0.34,0.55-0.77,0.55-1.29
		s-0.18-0.96-0.55-1.31C241.25,363.64,240.81,363.46,240.29,363.46z M278.1,334.89h-16.15c-0.52,0-0.96,0.18-1.31,0.53
		c-0.35,0.35-0.53,0.79-0.53,1.31v28.47c0,0.52,0.18,0.97,0.53,1.33c0.35,0.37,0.8,0.55,1.36,0.55c0.52,0,0.97-0.18,1.33-0.55
		s0.55-0.81,0.55-1.33v-12.79h12.14c0.52,0,0.97-0.18,1.33-0.53c0.37-0.35,0.55-0.76,0.55-1.22c0-0.52-0.18-0.96-0.55-1.31
		c-0.37-0.35-0.81-0.53-1.33-0.53h-12.14v-10.4h14.21c0.52,0,0.97-0.17,1.33-0.51c0.37-0.34,0.55-0.75,0.55-1.24
		c0-0.52-0.18-0.95-0.55-1.29C279.07,335.06,278.62,334.89,278.1,334.89z M311.01,365.02c0.14,0.46,0.05,0.91-0.25,1.33
		c-0.18,0.28-0.45,0.47-0.78,0.58c-0.34,0.11-0.67,0.15-1.01,0.12c-0.34-0.03-0.63-0.12-0.87-0.28c-0.49-0.28-0.97-0.68-1.43-1.22
		c-0.46-0.54-0.84-1.31-1.15-2.32c-0.31-1.01-0.46-2.39-0.46-4.14c0-0.98-0.15-1.79-0.46-2.44c-0.31-0.64-0.72-1.17-1.24-1.56
		s-1.1-0.67-1.75-0.83c-0.64-0.15-1.3-0.23-1.98-0.23h-9.71v11.18c0,0.52-0.15,0.97-0.46,1.33s-0.72,0.55-1.24,0.55
		c-0.58,0-1.08-0.18-1.5-0.55s-0.62-0.81-0.62-1.33v-28.47c0-0.52,0.18-0.96,0.53-1.31c0.35-0.35,0.79-0.53,1.31-0.53h12.7
		c1.72,0,3.27,0.39,4.65,1.17c1.38,0.78,2.48,1.86,3.29,3.22s1.22,2.94,1.22,4.71c0,1.29-0.25,2.49-0.74,3.61
		c-0.49,1.12-1.17,2.09-2.02,2.9c-0.73,0.69-1.55,1.23-2.46,1.65c0.46,0.22,0.9,0.48,1.31,0.79c0.83,0.63,1.5,1.43,2.02,2.39
		s0.8,2.09,0.83,3.38c0.06,1.13,0.14,2.04,0.23,2.71c0.09,0.67,0.23,1.2,0.41,1.59c0.18,0.38,0.44,0.68,0.78,0.9
		C310.59,364.19,310.87,364.56,311.01,365.02z M303.15,349.8c0.78-0.55,1.43-1.33,1.93-2.32c0.51-1,0.76-2.12,0.76-3.38
		c0-1.63-0.51-2.97-1.54-4.05c-1.03-1.07-2.32-1.61-3.89-1.61h-10.49v12.28h10.72C301.53,350.66,302.36,350.35,303.15,349.8z
		 M335.41,338.43c0.52,0,0.97-0.16,1.33-0.48c0.37-0.32,0.55-0.74,0.55-1.27c0-0.52-0.18-0.95-0.55-1.29
		c-0.37-0.34-0.81-0.51-1.33-0.51h-16.38c-0.52,0-0.96,0.18-1.31,0.53c-0.35,0.35-0.53,0.79-0.53,1.31v28.47
		c0,0.52,0.18,0.97,0.53,1.33c0.35,0.37,0.79,0.55,1.31,0.55h16.38c0.52,0,0.97-0.17,1.33-0.51c0.37-0.34,0.55-0.77,0.55-1.29
		c0-0.46-0.18-0.87-0.55-1.24s-0.81-0.55-1.33-0.55h-14.4v-11.18h12.33c0.52,0,0.97-0.16,1.33-0.48c0.37-0.32,0.55-0.74,0.55-1.26
		s-0.18-0.95-0.55-1.29c-0.37-0.34-0.81-0.51-1.33-0.51h-12.33v-10.35H335.41z M361.63,363.51h-14.4v-11.18h12.33
		c0.52,0,0.97-0.16,1.33-0.48c0.37-0.32,0.55-0.74,0.55-1.26s-0.18-0.95-0.55-1.29c-0.37-0.34-0.81-0.51-1.33-0.51h-12.33v-10.35
		h14.4c0.52,0,0.97-0.16,1.33-0.48c0.37-0.32,0.55-0.74,0.55-1.27c0-0.52-0.18-0.95-0.55-1.29c-0.37-0.34-0.81-0.51-1.33-0.51
		h-16.38c-0.52,0-0.96,0.18-1.31,0.53c-0.35,0.35-0.53,0.79-0.53,1.31v28.47c0,0.52,0.18,0.97,0.53,1.33
		c0.35,0.37,0.79,0.55,1.31,0.55h16.38c0.52,0,0.97-0.17,1.33-0.51c0.37-0.34,0.55-0.77,0.55-1.29c0-0.46-0.18-0.87-0.55-1.24
		S362.16,363.51,361.63,363.51z"/>
	<path d="M216,17.5C134.67,17.5,68.5,83.67,68.5,165S134.67,312.5,216,312.5S363.5,246.33,363.5,165S297.33,17.5,216,17.5z
		 M216,307.5c-78.57,0-142.5-63.92-142.5-142.5S137.43,22.5,216,22.5S358.5,86.42,358.5,165S294.57,307.5,216,307.5z M246.69,126.9
		c4.77-1.17,9.08-4.14,12.25-8.5c6.64-9.14,10.55-41.46,10.98-45.12c0.1-0.9-0.28-1.78-1.01-2.31c-0.73-0.53-1.69-0.63-2.51-0.25
		c-3.34,1.54-32.87,15.26-39.51,24.4c-3.45,4.75-4.93,10.28-4.17,15.58c0.39,2.73,1.36,5.29,2.81,7.57
		c-3.09-0.55-6.27-0.85-9.52-0.85c-30.07,0-54.53,24.46-54.53,54.53v1.79c0,6.1,4.96,11.06,11.06,11.06h1.97
		c0.37,17.18,4.5,33.27,11.74,45.55c7.84,13.29,18.41,20.61,29.76,20.61s21.92-7.32,29.76-20.61c7.25-12.28,11.38-28.38,11.74-45.55
		h1.97c6.1,0,11.06-4.96,11.06-11.06v-1.79C270.53,153.25,261.07,136.72,246.69,126.9z M230.92,98.06
		c4.32-5.95,22.92-15.76,33.45-20.86c-1.59,11.59-5.16,32.3-9.48,38.26c-2.68,3.69-6.35,6.11-10.33,6.8
		c-3.02,0.53-6.08,0.04-8.84-1.34l16.86-23.21c0.81-1.12,0.56-2.68-0.55-3.49c-1.12-0.81-2.68-0.56-3.49,0.55l-16.86,23.21
		c-2.17-2.2-3.58-4.96-4.01-8C227.08,105.99,228.24,101.75,230.92,98.06z M216,245.95c-19.67,0-35.74-27.21-36.5-61.16h6.98
		c0.48,19.24,6.41,37.12,15.76,47.08c0.49,0.53,1.16,0.79,1.82,0.79c0.61,0,1.23-0.22,1.71-0.68c1.01-0.94,1.06-2.53,0.11-3.53
		c-8.39-8.94-13.93-25.88-14.41-43.66h61.02C251.74,218.73,235.67,245.95,216,245.95z M265.53,173.73c0,3.34-2.72,6.06-6.06,6.06
		h-86.94c-3.34,0-6.06-2.72-6.06-6.06v-1.79c0-27.31,22.22-49.53,49.53-49.53s49.53,22.22,49.53,49.53V173.73z"/>
</g>
<g id="Layer_2">
</g>
<g id="Layer_3">
</g>
<g id="Layer_4">
</g>
<g id="Layer_5">
</g>
<g id="Layer_6">
</g>
<g id="Layer_7">
</g>
<g id="Layer_8">
</g>
<g id="Layer_9">
</g>
<g id="Layer_10">
</g>
<g id="Layer_11">
</g>
<g id="Layer_12">
</g>
<g id="Layer_13">
</g>
<g id="Layer_14">
</g>
<g id="Layer_15">
</g>
<g id="Layer_16">
</g>
<g id="Layer_32">
</g>
<g id="Layer_33">
</g>
<g id="Layer_34">
</g>
<g id="Layer_35">
</g>
<g id="Layer_49">
</g>
<g id="Layer_50">
</g>
<g id="Layer_51">
</g>
</svg>
