<?xml version="1.0" encoding="utf-8"?>
<!-- Generator: Adobe Illustrator 23.0.1, SVG Export Plug-In . SVG Version: 6.00 Build 0)  -->
<svg version="1.1" xmlns="http://www.w3.org/2000/svg" xmlns:xlink="http://www.w3.org/1999/xlink" x="0px" y="0px"
	 viewBox="0 0 432 432" enable-background="new 0 0 432 432" xml:space="preserve">
<g id="Layer_37">
	<path d="M199.72,108.15c-0.71-0.36-1.56-0.36-2.27,0l-49.14,25.09c-0.84,0.43-1.36,1.29-1.36,2.23s0.53,1.8,1.36,2.23l13.06,6.67
		l-13.06,6.67c-0.84,0.43-1.36,1.29-1.36,2.23s0.53,1.8,1.36,2.23l16.05,8.2v30.86c0,0.05,0.01,0.09,0.01,0.14
		c0.01,0.09,0.01,0.18,0.03,0.27c0.01,0.08,0.03,0.16,0.05,0.23c0.02,0.08,0.04,0.15,0.07,0.23c0.03,0.08,0.06,0.15,0.1,0.22
		c0.03,0.07,0.07,0.14,0.11,0.21c0.04,0.07,0.09,0.13,0.14,0.2c0.05,0.06,0.1,0.13,0.15,0.19c0.05,0.06,0.11,0.12,0.17,0.17
		c0.06,0.05,0.12,0.1,0.18,0.15c0.07,0.05,0.15,0.1,0.23,0.15c0.04,0.02,0.07,0.05,0.12,0.07l49.14,25.09
		c0.02,0.01,0.05,0.01,0.07,0.03c0.12,0.06,0.25,0.1,0.38,0.14c0.05,0.01,0.09,0.03,0.14,0.04c0.18,0.04,0.36,0.06,0.55,0.06
		s0.37-0.02,0.55-0.06c0.05-0.01,0.09-0.03,0.14-0.04c0.13-0.04,0.26-0.08,0.38-0.14c0.02-0.01,0.05-0.01,0.07-0.02l49.14-25.09
		c0.04-0.02,0.08-0.05,0.12-0.07c0.08-0.05,0.15-0.09,0.23-0.15c0.06-0.05,0.12-0.1,0.18-0.15c0.06-0.05,0.12-0.11,0.18-0.17
		c0.05-0.06,0.1-0.12,0.15-0.19c0.05-0.06,0.09-0.13,0.14-0.2c0.04-0.07,0.08-0.14,0.11-0.21c0.04-0.07,0.07-0.15,0.1-0.23
		c0.03-0.07,0.05-0.15,0.07-0.23c0.02-0.08,0.04-0.15,0.05-0.23c0.01-0.09,0.02-0.18,0.03-0.27c0-0.05,0.01-0.09,0.01-0.14v-30.86
		l16.05-8.2c0.84-0.43,1.36-1.29,1.36-2.23s-0.53-1.8-1.36-2.23l-13.05-6.67l13.05-6.67c0.84-0.43,1.36-1.29,1.36-2.23
		s-0.53-1.8-1.36-2.23l-49.14-25.09c-0.71-0.36-1.56-0.36-2.27,0L216,116.47L199.72,108.15z M154.94,135.47l43.64-22.28l11.92,6.08
		l-43.64,22.28L154.94,135.47z M154.94,153.25l11.92-6.08l43.64,22.28l-11.92,6.08L154.94,153.25z M213.5,215.54L169.36,193v-26.78
		l28.08,14.34c0.36,0.18,0.75,0.27,1.14,0.27s0.78-0.09,1.14-0.27l13.78-7.03V215.54z M216,166.64l-43.64-22.28L216,122.08
		l42.96,21.93l0.68,0.35l-0.68,0.35L216,166.64z M262.64,193l-44.14,22.53v-42.01l13.78,7.04c0.36,0.18,0.75,0.27,1.14,0.27
		s0.78-0.09,1.14-0.27l28.08-14.34V193z M277.06,153.25l-43.64,22.28l-11.92-6.08l0.68-0.35l42.96-21.93L277.06,153.25z
		 M233.42,113.19l43.64,22.28l-11.92,6.08l-42.96-21.93l-0.68-0.35L233.42,113.19z M188.19,273.43c-0.31,1.1-1.31,1.83-2.41,1.83
		c-0.22,0-0.45-0.03-0.68-0.09C135.95,261.4,101.62,216.1,101.62,165c0-61.1,48.15-111.16,108.49-114.23l-13.14-13.14
		c-0.98-0.98-0.98-2.56,0-3.54c0.98-0.98,2.56-0.98,3.54,0l17.25,17.25c0.12,0.12,0.22,0.25,0.31,0.38c0.04,0.06,0.06,0.12,0.1,0.18
		c0.05,0.08,0.09,0.16,0.13,0.25c0.03,0.08,0.05,0.16,0.08,0.25c0.02,0.07,0.05,0.14,0.06,0.22c0.06,0.32,0.06,0.66,0,0.98
		c-0.02,0.08-0.04,0.15-0.06,0.22c-0.02,0.08-0.04,0.17-0.08,0.25c-0.04,0.09-0.09,0.17-0.13,0.25c-0.03,0.06-0.06,0.12-0.1,0.18
		c-0.09,0.14-0.2,0.27-0.31,0.38l-17.25,17.25c-0.49,0.49-1.13,0.73-1.77,0.73s-1.28-0.24-1.77-0.73c-0.98-0.98-0.98-2.56,0-3.54
		l12.8-12.81c-57.43,3.23-103.16,50.97-103.16,109.2c0,48.87,32.83,92.19,79.84,105.34C187.78,270.72,188.56,272.1,188.19,273.43z
		 M330.38,165c0,61.1-48.15,111.16-108.5,114.23l13.14,13.14c0.98,0.98,0.98,2.56,0,3.54c-0.49,0.49-1.13,0.73-1.77,0.73
		s-1.28-0.24-1.77-0.73l-17.25-17.25c-0.12-0.12-0.22-0.25-0.31-0.38c-0.04-0.06-0.06-0.12-0.1-0.18c-0.05-0.08-0.1-0.16-0.13-0.25
		c-0.03-0.08-0.05-0.16-0.08-0.25c-0.02-0.07-0.05-0.14-0.06-0.22c-0.06-0.32-0.06-0.66,0-0.98c0.02-0.08,0.04-0.15,0.07-0.22
		c0.02-0.08,0.04-0.17,0.08-0.25c0.04-0.09,0.09-0.17,0.13-0.25c0.03-0.06,0.06-0.12,0.1-0.18c0.09-0.14,0.2-0.27,0.31-0.38
		l17.25-17.25c0.98-0.98,2.56-0.98,3.54,0s0.98,2.56,0,3.54l-12.81,12.81c57.43-3.23,103.17-50.97,103.17-109.2
		c0-48.87-32.83-92.19-79.84-105.34c-1.33-0.37-2.11-1.75-1.73-3.08c0.37-1.33,1.75-2.11,3.08-1.73
		C296.05,68.6,330.38,113.9,330.38,165z M216,17.5C134.67,17.5,68.5,83.67,68.5,165S134.67,312.5,216,312.5S363.5,246.33,363.5,165
		S297.33,17.5,216,17.5z M216,307.5c-78.57,0-142.5-63.92-142.5-142.5c0-78.57,63.93-142.5,142.5-142.5
		c78.58,0,142.5,63.93,142.5,142.5C358.5,243.58,294.58,307.5,216,307.5z"/>
	<path id="recycled_packaging" d="M108.43,367.09c0.52,0,0.94-0.18,1.24-0.55c0.31-0.37,0.46-0.81,0.46-1.33v-11.18h9.71
		c0.67,0,1.33,0.08,1.98,0.23c0.64,0.15,1.23,0.43,1.75,0.83c0.52,0.4,0.94,0.92,1.24,1.56c0.31,0.64,0.46,1.46,0.46,2.44
		c0,1.75,0.15,3.13,0.46,4.14c0.31,1.01,0.69,1.79,1.15,2.32c0.46,0.54,0.94,0.94,1.43,1.22c0.25,0.15,0.54,0.25,0.87,0.28
		c0.34,0.03,0.67-0.01,1.01-0.12c0.34-0.11,0.6-0.3,0.78-0.57c0.31-0.43,0.39-0.87,0.25-1.33s-0.42-0.83-0.85-1.1
		c-0.34-0.21-0.6-0.51-0.78-0.9c-0.18-0.38-0.32-0.91-0.41-1.59c-0.09-0.67-0.17-1.58-0.23-2.71c-0.03-1.29-0.31-2.42-0.83-3.38
		c-0.52-0.97-1.2-1.76-2.02-2.39c-0.41-0.31-0.85-0.57-1.31-0.79c0.91-0.41,1.73-0.96,2.46-1.65c0.86-0.81,1.53-1.78,2.02-2.9
		c0.49-1.12,0.74-2.32,0.74-3.61c0-1.78-0.41-3.35-1.22-4.72c-0.81-1.36-1.91-2.44-3.29-3.22c-1.38-0.78-2.93-1.17-4.65-1.17h-12.7
		c-0.52,0-0.96,0.18-1.31,0.53c-0.35,0.35-0.53,0.79-0.53,1.31v28.47c0,0.52,0.21,0.97,0.62,1.33
		C107.35,366.91,107.85,367.09,108.43,367.09z M124.51,340.04c1.03,1.07,1.54,2.42,1.54,4.05c0,1.26-0.25,2.38-0.76,3.38
		c-0.51,1-1.15,1.77-1.93,2.32c-0.78,0.55-1.62,0.86-2.51,0.92h-10.72v-12.28h10.49C122.18,338.43,123.48,338.97,124.51,340.04z
		 M137.94,366.54c-0.35-0.37-0.53-0.81-0.53-1.33v-28.47c0-0.52,0.18-0.96,0.53-1.31c0.35-0.35,0.79-0.53,1.31-0.53h16.38
		c0.52,0,0.97,0.17,1.33,0.51c0.37,0.34,0.55,0.77,0.55,1.29s-0.18,0.94-0.55,1.26c-0.37,0.32-0.81,0.48-1.33,0.48h-14.4v10.35
		h12.33c0.52,0,0.97,0.17,1.33,0.51c0.37,0.34,0.55,0.77,0.55,1.29c0,0.52-0.18,0.94-0.55,1.27c-0.37,0.32-0.81,0.48-1.33,0.48
		h-12.33v11.18h14.4c0.52,0,0.97,0.18,1.33,0.55c0.37,0.37,0.55,0.78,0.55,1.24c0,0.52-0.18,0.95-0.55,1.29
		c-0.37,0.34-0.81,0.51-1.33,0.51h-16.38C138.73,367.09,138.29,366.91,137.94,366.54z M177.98,367.55c-2.21,0-4.29-0.38-6.26-1.15
		c-1.96-0.77-3.7-1.87-5.2-3.31c-1.5-1.44-2.69-3.18-3.56-5.22c-0.87-2.04-1.31-4.33-1.31-6.88c0-2.39,0.41-4.58,1.24-6.58
		c0.83-1.99,1.99-3.73,3.47-5.2c1.49-1.47,3.22-2.62,5.2-3.45c1.98-0.83,4.12-1.24,6.42-1.24c1.59,0,3.15,0.21,4.67,0.64
		c1.52,0.43,2.91,1.04,4.16,1.84c0.52,0.28,0.82,0.69,0.9,1.24c0.08,0.55-0.07,1.06-0.44,1.52c-0.28,0.4-0.63,0.61-1.06,0.64
		c-0.43,0.03-0.86-0.06-1.29-0.28c-1.01-0.61-2.1-1.1-3.27-1.45c-1.17-0.35-2.39-0.53-3.68-0.53c-1.81,0-3.47,0.31-4.97,0.94
		c-1.5,0.63-2.81,1.51-3.91,2.65c-1.1,1.14-1.96,2.48-2.58,4.05c-0.61,1.56-0.92,3.3-0.92,5.2c0,2.02,0.32,3.83,0.97,5.43
		c0.64,1.59,1.52,2.95,2.65,4.07c1.12,1.12,2.42,1.97,3.91,2.55c1.49,0.58,3.1,0.87,4.85,0.87c1.26,0,2.47-0.17,3.63-0.51
		c1.17-0.34,2.27-0.83,3.31-1.47c0.43-0.21,0.86-0.29,1.29-0.23c0.43,0.06,0.8,0.28,1.1,0.64c0.37,0.49,0.51,1,0.41,1.54
		c-0.09,0.54-0.38,0.93-0.87,1.17c-0.77,0.46-1.64,0.88-2.62,1.27c-0.98,0.38-2,0.68-3.06,0.9
		C180.12,367.44,179.06,367.55,177.98,367.55z M204.34,351.77v13.44c0,0.52-0.18,0.97-0.53,1.33c-0.35,0.37-0.77,0.55-1.27,0.55
		c-0.55,0-1-0.18-1.36-0.55c-0.35-0.37-0.53-0.81-0.53-1.33v-13.73l-10.03-13.55c-0.18-0.25-0.31-0.48-0.39-0.71
		s-0.11-0.45-0.11-0.67c0-0.52,0.21-0.96,0.64-1.31c0.43-0.35,0.86-0.53,1.29-0.53c0.61,0,1.12,0.29,1.52,0.87l9.03,12.39
		l8.77-12.34c0.4-0.61,0.9-0.92,1.52-0.92c0.52,0,0.96,0.19,1.31,0.57c0.35,0.38,0.53,0.82,0.53,1.31c0,0.18-0.02,0.38-0.07,0.58
		c-0.05,0.2-0.13,0.39-0.25,0.57L204.34,351.77z M235.96,367.23c-1.06,0.21-2.12,0.32-3.2,0.32c-2.21,0-4.29-0.38-6.26-1.15
		c-1.96-0.77-3.7-1.87-5.2-3.31c-1.5-1.44-2.69-3.18-3.56-5.22c-0.87-2.04-1.31-4.33-1.31-6.88c0-2.39,0.41-4.58,1.24-6.58
		c0.83-1.99,1.99-3.73,3.47-5.2c1.49-1.47,3.22-2.62,5.2-3.45c1.98-0.83,4.12-1.24,6.42-1.24c1.59,0,3.15,0.21,4.67,0.64
		c1.52,0.43,2.91,1.04,4.16,1.84c0.52,0.28,0.82,0.69,0.9,1.24c0.08,0.55-0.07,1.06-0.44,1.52c-0.28,0.4-0.63,0.61-1.06,0.64
		c-0.43,0.03-0.86-0.06-1.29-0.28c-1.01-0.61-2.1-1.1-3.27-1.45c-1.17-0.35-2.39-0.53-3.68-0.53c-1.81,0-3.47,0.31-4.97,0.94
		c-1.5,0.63-2.81,1.51-3.91,2.65c-1.1,1.14-1.96,2.48-2.58,4.05c-0.61,1.56-0.92,3.3-0.92,5.2c0,2.02,0.32,3.83,0.97,5.43
		c0.64,1.59,1.52,2.95,2.65,4.07c1.12,1.12,2.42,1.97,3.91,2.55c1.49,0.58,3.1,0.87,4.85,0.87c1.26,0,2.47-0.17,3.63-0.51
		c1.17-0.34,2.27-0.83,3.31-1.47c0.43-0.21,0.86-0.29,1.29-0.23c0.43,0.06,0.8,0.28,1.1,0.64c0.37,0.49,0.51,1,0.41,1.54
		c-0.09,0.54-0.38,0.93-0.87,1.17c-0.77,0.46-1.64,0.88-2.62,1.27C238.04,366.72,237.02,367.01,235.96,367.23z M267.18,363.99
		c0.37,0.35,0.55,0.79,0.55,1.31c0,0.52-0.18,0.95-0.55,1.29c-0.37,0.34-0.81,0.51-1.33,0.51h-15.92c-0.52,0-0.96-0.18-1.31-0.55
		c-0.35-0.37-0.53-0.81-0.53-1.33v-28.47c0-0.52,0.18-0.96,0.55-1.31c0.37-0.35,0.83-0.53,1.38-0.53c0.52,0,0.97,0.18,1.33,0.53
		c0.37,0.35,0.55,0.79,0.55,1.31v26.73h13.94C266.36,363.46,266.81,363.63,267.18,363.99z M291.23,367.09h-16.38
		c-0.52,0-0.96-0.18-1.31-0.55c-0.35-0.37-0.53-0.81-0.53-1.33v-28.47c0-0.52,0.18-0.96,0.53-1.31c0.35-0.35,0.79-0.53,1.31-0.53
		h16.38c0.52,0,0.97,0.17,1.33,0.51c0.37,0.34,0.55,0.77,0.55,1.29s-0.18,0.94-0.55,1.26c-0.37,0.32-0.81,0.48-1.33,0.48h-14.4
		v10.35h12.33c0.52,0,0.97,0.17,1.33,0.51c0.37,0.34,0.55,0.77,0.55,1.29c0,0.52-0.18,0.94-0.55,1.27
		c-0.37,0.32-0.81,0.48-1.33,0.48h-12.33v11.18h14.4c0.52,0,0.97,0.18,1.33,0.55c0.37,0.37,0.55,0.78,0.55,1.24
		c0,0.52-0.18,0.95-0.55,1.29C292.2,366.92,291.75,367.09,291.23,367.09z M301.08,367.09h11.5c3.04,0,5.55-0.73,7.54-2.19
		c1.99-1.46,3.5-3.4,4.51-5.84c1.01-2.44,1.52-5.13,1.52-8.07c0-2.15-0.28-4.19-0.85-6.14c-0.57-1.95-1.42-3.67-2.55-5.17
		c-1.14-1.5-2.55-2.68-4.26-3.52c-1.7-0.84-3.67-1.27-5.91-1.27h-11.5c-0.52,0-0.96,0.18-1.31,0.53c-0.35,0.35-0.53,0.79-0.53,1.31
		v28.47c0,0.52,0.18,0.97,0.53,1.33C300.12,366.91,300.55,367.09,301.08,367.09z M316.69,339.44c1.27,0.67,2.32,1.59,3.13,2.76
		c0.81,1.17,1.41,2.51,1.79,4.03c0.38,1.52,0.58,3.1,0.58,4.76c0,2.27-0.34,4.35-1.04,6.26c-0.69,1.9-1.78,3.42-3.27,4.55
		c-1.49,1.13-3.41,1.7-5.77,1.7h-9.06v-25.07h9.06C313.89,338.43,315.42,338.77,316.69,339.44z M109.26,391.33
		c-1.35-0.83-2.87-1.24-4.55-1.24H93.94c-0.52,0-0.96,0.18-1.31,0.53c-0.35,0.35-0.53,0.79-0.53,1.31v28.47
		c0,0.52,0.16,0.97,0.48,1.33c0.32,0.37,0.76,0.55,1.31,0.55c0.52,0,0.95-0.18,1.29-0.55c0.34-0.37,0.51-0.81,0.51-1.33v-11.04h9.02
		c1.69,0,3.2-0.43,4.55-1.29c1.35-0.86,2.42-2.02,3.2-3.5c0.78-1.47,1.17-3.11,1.17-4.92c0-1.84-0.39-3.48-1.17-4.92
		C111.67,393.3,110.61,392.16,109.26,391.33z M109.21,402.74c-0.46,0.95-1.07,1.7-1.84,2.25c-0.77,0.55-1.66,0.83-2.67,0.83h-9.02
		v-12.19h9.02c1.01,0,1.9,0.27,2.67,0.81c0.77,0.54,1.38,1.25,1.84,2.14c0.46,0.89,0.69,1.92,0.69,3.08
		C109.9,400.76,109.67,401.79,109.21,402.74z M130.37,391.15c-0.12-0.37-0.34-0.66-0.67-0.87c-0.32-0.21-0.68-0.32-1.08-0.32
		c-0.4-0.03-0.76,0.05-1.08,0.25c-0.32,0.2-0.56,0.51-0.71,0.94l-11.91,28.98c-0.09,0.25-0.12,0.48-0.09,0.69
		c0,0.43,0.14,0.8,0.41,1.1c0.28,0.31,0.71,0.46,1.29,0.46c0.34,0,0.66-0.11,0.97-0.32c0.31-0.21,0.52-0.51,0.64-0.87l3.08-7.5
		h14.56l3.1,7.45c0.15,0.4,0.38,0.71,0.69,0.92c0.31,0.21,0.64,0.32,1.01,0.32c0.46,0,0.87-0.16,1.24-0.48
		c0.37-0.32,0.55-0.76,0.55-1.31c0-0.25-0.05-0.49-0.14-0.74L130.37,391.15z M122.69,410.1l5.76-14.03l5.84,14.03H122.69z
		 M170.9,417.55c0.37,0.49,0.51,1,0.41,1.54c-0.09,0.54-0.38,0.93-0.87,1.17c-0.77,0.46-1.64,0.88-2.62,1.27
		c-0.98,0.38-2,0.68-3.06,0.9c-1.06,0.21-2.12,0.32-3.2,0.32c-2.21,0-4.29-0.38-6.26-1.15c-1.96-0.77-3.7-1.87-5.2-3.31
		c-1.5-1.44-2.69-3.18-3.56-5.22c-0.87-2.04-1.31-4.33-1.31-6.88c0-2.39,0.41-4.58,1.24-6.58c0.83-1.99,1.99-3.73,3.47-5.2
		c1.49-1.47,3.22-2.62,5.2-3.45c1.98-0.83,4.12-1.24,6.42-1.24c1.59,0,3.15,0.21,4.67,0.64c1.52,0.43,2.91,1.04,4.16,1.84
		c0.52,0.28,0.82,0.69,0.9,1.24c0.08,0.55-0.07,1.06-0.44,1.52c-0.28,0.4-0.63,0.61-1.06,0.64c-0.43,0.03-0.86-0.06-1.29-0.28
		c-1.01-0.61-2.1-1.1-3.27-1.45c-1.17-0.35-2.39-0.53-3.68-0.53c-1.81,0-3.47,0.31-4.97,0.94c-1.5,0.63-2.81,1.51-3.91,2.65
		c-1.1,1.14-1.96,2.48-2.58,4.05c-0.61,1.56-0.92,3.3-0.92,5.2c0,2.02,0.32,3.83,0.97,5.43c0.64,1.59,1.52,2.95,2.65,4.07
		c1.12,1.12,2.42,1.97,3.91,2.55c1.49,0.58,3.1,0.87,4.85,0.87c1.26,0,2.47-0.17,3.63-0.51c1.17-0.34,2.27-0.83,3.31-1.47
		c0.43-0.21,0.86-0.29,1.29-0.23C170.22,416.97,170.59,417.19,170.9,417.55z M201.26,419.21c0.28,0.4,0.41,0.81,0.41,1.24
		c0,0.61-0.22,1.09-0.67,1.43c-0.44,0.34-0.91,0.51-1.4,0.51c-0.55,0-1.01-0.23-1.38-0.69l-11.87-15.13l-5.66,5.35v8.49
		c0,0.52-0.18,0.97-0.53,1.33c-0.35,0.37-0.82,0.55-1.4,0.55c-0.58,0-1.04-0.18-1.38-0.55c-0.34-0.37-0.51-0.81-0.51-1.33v-28.43
		c0-0.55,0.18-1,0.55-1.36c0.37-0.35,0.83-0.53,1.38-0.53c0.58,0,1.04,0.18,1.38,0.53c0.34,0.35,0.51,0.8,0.51,1.36v15.35
		l17.3-16.59c0.46-0.46,0.95-0.69,1.47-0.69c0.49,0,0.9,0.2,1.22,0.6c0.32,0.4,0.48,0.81,0.48,1.24c0,0.43-0.18,0.83-0.55,1.2
		l-11.37,10.75L201.26,419.21z M220.21,391.15c-0.12-0.37-0.34-0.66-0.67-0.87c-0.32-0.21-0.68-0.32-1.08-0.32
		c-0.4-0.03-0.76,0.05-1.08,0.25c-0.32,0.2-0.56,0.51-0.71,0.94l-11.91,28.98c-0.09,0.25-0.12,0.48-0.09,0.69
		c0,0.43,0.14,0.8,0.41,1.1c0.28,0.31,0.71,0.46,1.29,0.46c0.34,0,0.66-0.11,0.97-0.32c0.31-0.21,0.52-0.51,0.64-0.87l3.08-7.5
		h14.56l3.1,7.45c0.15,0.4,0.38,0.71,0.69,0.92c0.31,0.21,0.64,0.32,1.01,0.32c0.46,0,0.87-0.16,1.24-0.48
		c0.37-0.32,0.55-0.76,0.55-1.31c0-0.25-0.05-0.49-0.14-0.74L220.21,391.15z M212.53,410.1l5.76-14.03l5.84,14.03H212.53z
		 M261.93,406.19c0.34,0.37,0.51,0.81,0.51,1.33v10.63c0,0.37-0.08,0.69-0.25,0.97c-0.17,0.28-0.39,0.51-0.67,0.69
		c-1.38,0.89-2.91,1.6-4.58,2.14c-1.67,0.54-3.41,0.81-5.22,0.81c-2.36,0-4.55-0.42-6.56-1.27c-2.01-0.84-3.77-2.02-5.29-3.52
		c-1.52-1.5-2.7-3.26-3.54-5.27c-0.84-2.01-1.27-4.18-1.27-6.51c0-2.36,0.42-4.55,1.27-6.55c0.84-2.01,2.02-3.76,3.54-5.27
		c1.52-1.5,3.28-2.67,5.29-3.5c2.01-0.83,4.19-1.24,6.56-1.24c1.56,0,3.07,0.18,4.53,0.53c1.46,0.35,2.78,0.9,3.98,1.63
		c0.31,0.15,0.53,0.37,0.67,0.64c0.14,0.28,0.21,0.57,0.21,0.87c0,0.52-0.18,0.97-0.53,1.33c-0.35,0.37-0.76,0.55-1.22,0.55
		c-0.18,0-0.36-0.03-0.53-0.09c-0.17-0.06-0.35-0.12-0.53-0.18c-0.95-0.49-1.98-0.88-3.08-1.17c-1.1-0.29-2.27-0.44-3.5-0.44
		c-2.42,0-4.59,0.57-6.51,1.7c-1.92,1.13-3.43,2.67-4.53,4.6c-1.1,1.93-1.66,4.13-1.66,6.58c0,2.42,0.55,4.61,1.66,6.56
		c1.1,1.95,2.61,3.49,4.53,4.62c1.92,1.13,4.09,1.7,6.51,1.7c1.23,0,2.49-0.17,3.79-0.51c1.16-0.3,2.16-0.68,3.01-1.12v-8.12h-6.3
		c-0.52,0-0.96-0.18-1.31-0.53c-0.35-0.35-0.53-0.79-0.53-1.31c0-0.52,0.18-0.96,0.53-1.31c0.35-0.35,0.79-0.53,1.31-0.53h8.37
		C261.15,405.64,261.59,405.82,261.93,406.19z M272.28,390.62c0.37,0.35,0.55,0.8,0.55,1.36v28.43c0,0.52-0.19,0.97-0.58,1.33
		c-0.38,0.37-0.84,0.55-1.36,0.55c-0.58,0-1.04-0.18-1.38-0.55c-0.34-0.37-0.51-0.81-0.51-1.33v-28.43c0-0.55,0.18-1,0.55-1.36
		c0.37-0.35,0.83-0.53,1.38-0.53C271.47,390.09,271.91,390.27,272.28,390.62z M306,390.57c0.31,0.32,0.46,0.73,0.46,1.22v28.57
		c0,0.58-0.18,1.05-0.55,1.4c-0.37,0.35-0.81,0.53-1.33,0.53c-0.28,0-0.55-0.05-0.83-0.16c-0.28-0.11-0.49-0.25-0.64-0.44
		l-18.77-24.82v23.72c0,0.49-0.16,0.9-0.48,1.22c-0.32,0.32-0.74,0.48-1.27,0.48c-0.49,0-0.89-0.16-1.2-0.48
		c-0.31-0.32-0.46-0.73-0.46-1.22v-28.66c0-0.55,0.18-1,0.53-1.33c0.35-0.34,0.77-0.51,1.26-0.51c0.28,0,0.56,0.05,0.85,0.16
		c0.29,0.11,0.51,0.27,0.67,0.48l18.81,24.88v-23.82c0-0.49,0.16-0.9,0.48-1.22c0.32-0.32,0.73-0.48,1.22-0.48
		C305.28,390.09,305.69,390.25,306,390.57z M339.9,407.52v10.63c0,0.37-0.08,0.69-0.25,0.97c-0.17,0.28-0.39,0.51-0.67,0.69
		c-1.38,0.89-2.91,1.6-4.58,2.14c-1.67,0.54-3.41,0.81-5.22,0.81c-2.36,0-4.55-0.42-6.56-1.27c-2.01-0.84-3.77-2.02-5.29-3.52
		c-1.52-1.5-2.7-3.26-3.54-5.27c-0.84-2.01-1.27-4.18-1.27-6.51c0-2.36,0.42-4.55,1.27-6.55c0.84-2.01,2.02-3.76,3.54-5.27
		c1.52-1.5,3.28-2.67,5.29-3.5c2.01-0.83,4.19-1.24,6.56-1.24c1.56,0,3.07,0.18,4.53,0.53c1.46,0.35,2.78,0.9,3.98,1.63
		c0.31,0.15,0.53,0.37,0.67,0.64c0.14,0.28,0.21,0.57,0.21,0.87c0,0.52-0.18,0.97-0.53,1.33c-0.35,0.37-0.76,0.55-1.22,0.55
		c-0.18,0-0.36-0.03-0.53-0.09c-0.17-0.06-0.35-0.12-0.53-0.18c-0.95-0.49-1.98-0.88-3.08-1.17c-1.1-0.29-2.27-0.44-3.5-0.44
		c-2.42,0-4.59,0.57-6.51,1.7c-1.92,1.13-3.43,2.67-4.53,4.6c-1.1,1.93-1.66,4.13-1.66,6.58c0,2.42,0.55,4.61,1.66,6.56
		c1.1,1.95,2.61,3.49,4.53,4.62c1.92,1.13,4.09,1.7,6.51,1.7c1.23,0,2.49-0.17,3.79-0.51c1.16-0.3,2.16-0.68,3.01-1.12v-8.12h-6.3
		c-0.52,0-0.96-0.18-1.31-0.53c-0.35-0.35-0.53-0.79-0.53-1.31c0-0.52,0.18-0.96,0.53-1.31c0.35-0.35,0.79-0.53,1.31-0.53h8.37
		c0.55,0,1,0.18,1.33,0.55C339.73,406.56,339.9,407,339.9,407.52z"/>
</g>
<g id="Layer_47">
</g>
<g id="Layer_42">
</g>
<g id="Layer_43">
</g>
<g id="Layer_44">
</g>
<g id="Layer_45">
</g>
<g id="Layer_46">
</g>
<g id="Layer_38">
</g>
<g id="Layer_39">
</g>
<g id="Layer_40">
</g>
<g id="Layer_41">
</g>
<g id="Layer_17">
</g>
<g id="Layer_18">
</g>
<g id="Layer_19">
</g>
<g id="Layer_20">
</g>
<g id="Layer_21">
</g>
<g id="Layer_22">
</g>
<g id="Layer_23">
</g>
<g id="Layer_24">
</g>
<g id="Layer_25">
</g>
<g id="Layer_26">
</g>
<g id="Layer_27">
</g>
<g id="Layer_28">
</g>
<g id="Layer_29">
</g>
<g id="Layer_30">
</g>
<g id="Layer_31">
</g>
<g id="Layer_2">
</g>
<g id="Layer_3">
</g>
<g id="Layer_4">
</g>
<g id="Layer_5">
</g>
<g id="Layer_6">
</g>
<g id="Layer_7">
</g>
<g id="Layer_8">
</g>
<g id="Layer_9">
</g>
<g id="Layer_10">
</g>
<g id="Layer_11">
</g>
<g id="Layer_12">
</g>
<g id="Layer_13">
</g>
<g id="Layer_14">
</g>
<g id="Layer_15">
</g>
<g id="Layer_16">
</g>
<g id="Layer_32">
</g>
<g id="Layer_33">
</g>
<g id="Layer_34">
</g>
<g id="Layer_35">
</g>
<g id="Layer_49">
</g>
<g id="Layer_50">
</g>
<g id="Layer_51">
</g>
</svg>
