<?xml version="1.0" encoding="utf-8"?>
<!-- Generator: Adobe Illustrator 23.0.1, SVG Export Plug-In . SVG Version: 6.00 Build 0)  -->
<svg version="1.1" xmlns="http://www.w3.org/2000/svg" xmlns:xlink="http://www.w3.org/1999/xlink" x="0px" y="0px"
	 viewBox="0 0 432 432" enable-background="new 0 0 432 432" xml:space="preserve">
<g id="Layer_37">
</g>
<g id="Layer_47">
</g>
<g id="Layer_42">
</g>
<g id="Layer_43">
</g>
<g id="Layer_44">
</g>
<g id="Layer_45">
</g>
<g id="Layer_46">
</g>
<g id="Layer_38">
</g>
<g id="Layer_39">
</g>
<g id="Layer_40">
</g>
<g id="Layer_41">
</g>
<g id="Layer_17">
</g>
<g id="Layer_18">
</g>
<g id="Layer_19">
</g>
<g id="Layer_20">
</g>
<g id="Layer_21">
</g>
<g id="Layer_22">
</g>
<g id="Layer_23">
</g>
<g id="Layer_24">
</g>
<g id="Layer_25">
</g>
<g id="Layer_26">
</g>
<g id="Layer_27">
</g>
<g id="Layer_28">
</g>
<g id="Layer_29">
</g>
<g id="Layer_30">
</g>
<g id="Layer_31">
</g>
<g id="Layer_2">
</g>
<g id="Layer_3">
</g>
<g id="Layer_4">
</g>
<g id="Layer_5">
	<path id="alcohol_free" d="M65.98,335.95c-0.12-0.37-0.34-0.66-0.67-0.87c-0.32-0.21-0.68-0.32-1.08-0.32
		c-0.4-0.03-0.76,0.05-1.08,0.25c-0.32,0.2-0.56,0.51-0.71,0.94l-11.91,28.98c-0.09,0.25-0.12,0.48-0.09,0.69
		c0,0.43,0.14,0.8,0.41,1.1c0.28,0.31,0.71,0.46,1.29,0.46c0.34,0,0.66-0.11,0.97-0.32c0.31-0.21,0.52-0.51,0.64-0.87l3.08-7.5
		h14.57l3.1,7.45c0.15,0.4,0.38,0.71,0.69,0.92c0.31,0.22,0.64,0.32,1.01,0.32c0.46,0,0.87-0.16,1.24-0.48
		c0.37-0.32,0.55-0.76,0.55-1.31c0-0.25-0.05-0.49-0.14-0.74L65.98,335.95z M58.3,354.9l5.76-14.03l5.84,14.03H58.3z M102.13,363.99
		c0.37,0.35,0.55,0.79,0.55,1.31s-0.18,0.95-0.55,1.29c-0.37,0.34-0.81,0.51-1.33,0.51H84.88c-0.52,0-0.96-0.18-1.31-0.55
		c-0.35-0.37-0.53-0.81-0.53-1.33v-28.47c0-0.52,0.18-0.96,0.55-1.31s0.83-0.53,1.38-0.53c0.52,0,0.97,0.18,1.33,0.53
		s0.55,0.79,0.55,1.31v26.73h13.94C101.32,363.46,101.77,363.64,102.13,363.99z M131.21,362.36c0.37,0.49,0.51,1,0.41,1.54
		c-0.09,0.54-0.38,0.93-0.87,1.17c-0.77,0.46-1.64,0.88-2.62,1.27s-2,0.68-3.06,0.9c-1.06,0.21-2.12,0.32-3.2,0.32
		c-2.21,0-4.29-0.38-6.26-1.15c-1.96-0.77-3.7-1.87-5.2-3.31s-2.69-3.18-3.56-5.22s-1.31-4.33-1.31-6.88c0-2.39,0.41-4.58,1.24-6.58
		s1.99-3.73,3.47-5.2c1.49-1.47,3.22-2.62,5.2-3.45c1.98-0.83,4.12-1.24,6.42-1.24c1.59,0,3.15,0.21,4.67,0.64
		c1.52,0.43,2.91,1.04,4.16,1.84c0.52,0.28,0.82,0.69,0.9,1.24c0.08,0.55-0.07,1.06-0.44,1.52c-0.28,0.4-0.63,0.61-1.06,0.64
		c-0.43,0.03-0.86-0.06-1.29-0.28c-1.01-0.61-2.1-1.1-3.27-1.45c-1.17-0.35-2.39-0.53-3.68-0.53c-1.81,0-3.47,0.31-4.97,0.94
		c-1.5,0.63-2.81,1.51-3.91,2.65c-1.1,1.13-1.96,2.48-2.58,4.05c-0.61,1.56-0.92,3.3-0.92,5.2c0,2.02,0.32,3.83,0.97,5.43
		c0.64,1.59,1.52,2.95,2.64,4.07c1.12,1.12,2.42,1.97,3.91,2.55c1.49,0.58,3.1,0.87,4.85,0.87c1.26,0,2.47-0.17,3.63-0.51
		c1.17-0.34,2.27-0.83,3.31-1.47c0.43-0.21,0.86-0.29,1.29-0.23C130.53,361.77,130.9,361.99,131.21,362.36z M161.84,339.15
		c-1.38-1.49-3.02-2.64-4.92-3.47s-3.97-1.24-6.21-1.24c-2.27,0-4.35,0.41-6.23,1.24c-1.89,0.83-3.52,1.99-4.9,3.47
		c-1.38,1.49-2.45,3.24-3.22,5.24c-0.77,2.01-1.15,4.21-1.15,6.6c0,2.36,0.38,4.55,1.15,6.55c0.77,2.01,1.84,3.76,3.22,5.27
		c1.38,1.5,3.01,2.67,4.9,3.5c1.89,0.83,3.96,1.24,6.23,1.24c2.24,0,4.31-0.41,6.21-1.24s3.54-1.99,4.92-3.5
		c1.38-1.5,2.45-3.26,3.22-5.27c0.77-2.01,1.15-4.19,1.15-6.55c0-2.39-0.38-4.59-1.15-6.6
		C164.29,342.38,163.22,340.64,161.84,339.15z M160.76,357.64c-1,1.95-2.35,3.47-4.07,4.58c-1.72,1.1-3.71,1.66-5.98,1.66
		s-4.27-0.55-6-1.66c-1.73-1.1-3.09-2.63-4.07-4.58c-0.98-1.95-1.47-4.16-1.47-6.65c0-2.51,0.49-4.74,1.47-6.67
		c0.98-1.93,2.34-3.45,4.07-4.55c1.73-1.1,3.73-1.66,6-1.66s4.26,0.55,5.98,1.66c1.72,1.1,3.07,2.62,4.07,4.55
		c1,1.93,1.5,4.16,1.5,6.67C162.26,353.48,161.76,355.69,160.76,357.64z M196.82,335.42c0.35,0.35,0.53,0.8,0.53,1.36v28.43
		c0,0.52-0.18,0.97-0.55,1.33s-0.83,0.55-1.38,0.55c-0.52,0-0.97-0.18-1.33-0.55c-0.37-0.37-0.55-0.81-0.55-1.33v-12.7h-17.39v12.7
		c0,0.52-0.19,0.97-0.58,1.33s-0.84,0.55-1.36,0.55c-0.58,0-1.04-0.18-1.38-0.55c-0.34-0.37-0.51-0.81-0.51-1.33v-28.43
		c0-0.55,0.18-1,0.55-1.36c0.37-0.35,0.83-0.53,1.38-0.53c0.52,0,0.97,0.18,1.33,0.53s0.55,0.8,0.55,1.36v12.14h17.39v-12.14
		c0-0.55,0.19-1,0.58-1.36c0.38-0.35,0.83-0.53,1.36-0.53C196.02,334.89,196.47,335.07,196.82,335.42z M230.11,339.15
		c-1.38-1.49-3.02-2.64-4.92-3.47c-1.9-0.83-3.97-1.24-6.21-1.24c-2.27,0-4.35,0.41-6.23,1.24s-3.52,1.99-4.9,3.47
		c-1.38,1.49-2.45,3.24-3.22,5.24c-0.77,2.01-1.15,4.21-1.15,6.6c0,2.36,0.38,4.55,1.15,6.55c0.77,2.01,1.84,3.76,3.22,5.27
		c1.38,1.5,3.01,2.67,4.9,3.5s3.96,1.24,6.23,1.24c2.24,0,4.31-0.41,6.21-1.24c1.9-0.83,3.54-1.99,4.92-3.5
		c1.38-1.5,2.45-3.26,3.22-5.27c0.77-2.01,1.15-4.19,1.15-6.55c0-2.39-0.38-4.59-1.15-6.6
		C232.56,342.38,231.49,340.64,230.11,339.15z M229.02,357.64c-1,1.95-2.35,3.47-4.07,4.58c-1.72,1.1-3.71,1.66-5.98,1.66
		s-4.27-0.55-6-1.66c-1.73-1.1-3.09-2.63-4.07-4.58c-0.98-1.95-1.47-4.16-1.47-6.65c0-2.51,0.49-4.74,1.47-6.67
		c0.98-1.93,2.34-3.45,4.07-4.55c1.73-1.1,3.73-1.66,6-1.66s4.26,0.55,5.98,1.66c1.72,1.1,3.07,2.62,4.07,4.55
		c1,1.93,1.5,4.16,1.5,6.67C230.52,353.48,230.02,355.69,229.02,357.64z M259.68,363.99c0.37,0.35,0.55,0.79,0.55,1.31
		s-0.18,0.95-0.55,1.29c-0.37,0.34-0.81,0.51-1.33,0.51h-15.92c-0.52,0-0.96-0.18-1.31-0.55c-0.35-0.37-0.53-0.81-0.53-1.33v-28.47
		c0-0.52,0.18-0.96,0.55-1.31s0.83-0.53,1.38-0.53c0.52,0,0.97,0.18,1.33,0.53s0.55,0.79,0.55,1.31v26.73h13.94
		C258.87,363.46,259.31,363.64,259.68,363.99z M297.49,335.4c0.37,0.34,0.55,0.77,0.55,1.29c0,0.49-0.18,0.91-0.55,1.24
		c-0.37,0.34-0.81,0.51-1.33,0.51h-14.21v10.4h12.14c0.52,0,0.97,0.18,1.33,0.53c0.37,0.35,0.55,0.79,0.55,1.31
		c0,0.46-0.18,0.87-0.55,1.22c-0.37,0.35-0.81,0.53-1.33,0.53h-12.14v12.79c0,0.52-0.18,0.97-0.55,1.33s-0.81,0.55-1.33,0.55
		c-0.55,0-1-0.18-1.36-0.55s-0.53-0.81-0.53-1.33v-28.47c0-0.52,0.18-0.96,0.53-1.31s0.79-0.53,1.31-0.53h16.15
		C296.68,334.89,297.13,335.06,297.49,335.4z M328.22,363.92c-0.34-0.21-0.6-0.51-0.78-0.9c-0.18-0.38-0.32-0.91-0.41-1.59
		c-0.09-0.67-0.17-1.58-0.23-2.71c-0.03-1.29-0.31-2.42-0.83-3.38c-0.52-0.97-1.2-1.76-2.02-2.39c-0.41-0.31-0.85-0.57-1.31-0.79
		c0.91-0.41,1.73-0.96,2.46-1.65c0.86-0.81,1.53-1.78,2.02-2.9c0.49-1.12,0.74-2.32,0.74-3.61c0-1.78-0.41-3.35-1.22-4.71
		c-0.81-1.36-1.91-2.44-3.29-3.22c-1.38-0.78-2.93-1.17-4.65-1.17H306c-0.52,0-0.96,0.18-1.31,0.53s-0.53,0.79-0.53,1.31v28.47
		c0,0.52,0.21,0.97,0.62,1.33s0.91,0.55,1.5,0.55c0.52,0,0.94-0.18,1.24-0.55s0.46-0.81,0.46-1.33v-11.18h9.71
		c0.67,0,1.33,0.08,1.98,0.23c0.64,0.15,1.23,0.43,1.75,0.83s0.94,0.92,1.24,1.56c0.31,0.64,0.46,1.46,0.46,2.44
		c0,1.75,0.15,3.13,0.46,4.14c0.31,1.01,0.69,1.79,1.15,2.32c0.46,0.54,0.93,0.94,1.43,1.22c0.25,0.15,0.54,0.25,0.87,0.28
		c0.34,0.03,0.67-0.01,1.01-0.12c0.34-0.11,0.6-0.3,0.78-0.58c0.31-0.43,0.39-0.87,0.25-1.33
		C328.93,364.56,328.65,364.2,328.22,363.92z M318.7,350.72h-10.72v-12.28h10.49c1.56,0,2.86,0.54,3.89,1.61s1.54,2.42,1.54,4.05
		c0,1.26-0.25,2.38-0.76,3.38c-0.51,1-1.15,1.77-1.93,2.32C320.42,350.35,319.59,350.66,318.7,350.72z M339.08,338.44v10.35h12.33
		c0.52,0,0.97,0.17,1.33,0.51c0.37,0.34,0.55,0.77,0.55,1.29s-0.18,0.94-0.55,1.26s-0.81,0.48-1.33,0.48h-12.33v11.18h14.4
		c0.52,0,0.97,0.18,1.33,0.55c0.37,0.37,0.55,0.78,0.55,1.24c0,0.52-0.18,0.95-0.55,1.29c-0.37,0.34-0.81,0.51-1.33,0.51H337.1
		c-0.52,0-0.96-0.18-1.31-0.55s-0.53-0.81-0.53-1.33v-28.47c0-0.52,0.18-0.96,0.53-1.31s0.79-0.53,1.31-0.53h16.38
		c0.52,0,0.97,0.17,1.33,0.51c0.37,0.34,0.55,0.77,0.55,1.29c0,0.52-0.18,0.94-0.55,1.27c-0.37,0.32-0.81,0.48-1.33,0.48H339.08z
		 M381.03,364.06c0.37,0.37,0.55,0.78,0.55,1.24c0,0.52-0.18,0.95-0.55,1.29c-0.37,0.34-0.81,0.51-1.33,0.51h-16.38
		c-0.52,0-0.96-0.18-1.31-0.55s-0.53-0.81-0.53-1.33v-28.47c0-0.52,0.18-0.96,0.53-1.31s0.79-0.53,1.31-0.53h16.38
		c0.52,0,0.97,0.17,1.33,0.51c0.37,0.34,0.55,0.77,0.55,1.29c0,0.52-0.18,0.94-0.55,1.27c-0.37,0.32-0.81,0.48-1.33,0.48h-14.4
		v10.35h12.33c0.52,0,0.97,0.17,1.33,0.51c0.37,0.34,0.55,0.77,0.55,1.29s-0.18,0.94-0.55,1.26s-0.81,0.48-1.33,0.48H365.3v11.18
		h14.4C380.22,363.51,380.66,363.69,381.03,364.06z"/>
	<path d="M216,17.5C134.67,17.5,68.5,83.67,68.5,165S134.67,312.5,216,312.5c81.33,0,147.5-66.17,147.5-147.5S297.33,17.5,216,17.5z
		 M216,307.5c-78.57,0-142.5-63.92-142.5-142.5S137.43,22.5,216,22.5c78.58,0,142.5,63.92,142.5,142.5S294.58,307.5,216,307.5z
		 M288.53,140.1c-0.84,0.04-1.7,0.06-2.58,0.08c-8.71,0.21-20.64,0.49-26.46,22.25c-0.7,2.63-2.4,4.28-4.65,4.53
		c-2.21,0.25-4.33-0.92-5.41-2.97c-2.31-4.39,0.28-11.57,6.91-19.21c5.63-6.49,7.57-13.45,5.74-20.69
		c-6.33-25.11-56.99-44.54-59.15-45.36c-0.97-0.36-2.05-0.1-2.74,0.67c-0.69,0.77-0.84,1.88-0.37,2.8
		c3.37,6.66,8.33,19.71,3.74,32.37c-3.22,8.89-10.66,15.9-22.11,20.85c-35.26,15.24-44.94,43.76-38.89,65.27
		c6.22,22.1,23.76,36.97,49.39,41.86c1.09,0.21,2.21-0.35,2.71-1.33c0.43-0.84,0.34-1.85-0.22-2.61
		c-0.08-0.11-8.31-11.43-11.73-26.15c-4.5-19.37,1.18-35.12,16.89-46.81c9.81-7.3,12.74-7.27,13.54-6.92
		c1.46,0.64,1.98,5.48,2.44,9.75c0.95,8.81,2.26,20.88,11.69,29.85c8.31,7.91,12.18,15.38,11.51,22.21
		c-0.79,7.97-7.65,13.88-13.27,17.43c-1.02,0.64-1.43,1.92-0.99,3.04c0.38,0.96,1.31,1.57,2.32,1.57c0.16,0,0.33-0.02,0.49-0.05
		c33.73-6.71,57.98-33.37,58.97-64.81c0.6-19.05,4.72-34.32,4.76-34.47c0.21-0.77,0.04-1.6-0.46-2.23
		C290.1,140.41,289.33,140.07,288.53,140.1z M281.31,177.57c-0.81,25.57-18.34,47.74-43.9,56.99c3.26-3.67,5.82-8.17,6.34-13.52
		c0.83-8.45-3.55-17.3-13.04-26.33c-8.1-7.71-9.24-18.28-10.16-26.77c-0.72-6.7-1.3-12-5.41-13.8c-3.79-1.65-9.16,0.51-18.53,7.49
		c-17.21,12.8-23.7,30.77-18.78,51.95c2.23,9.59,6.29,17.72,9.19,22.7c-20.48-5.53-34.46-18.49-39.66-36.96
		c-5.06-17.99,1.35-44.32,36.06-59.32c12.77-5.52,21.13-13.51,24.83-23.74c4.07-11.25,1.63-22.57-1.4-30.5
		c13.35,5.79,45.84,21.57,50.37,39.55c1.42,5.63-0.11,10.93-4.67,16.18c-11.58,13.34-9.14,21.8-7.56,24.82
		c2.04,3.89,6.1,6.1,10.39,5.62c4.34-0.49,7.68-3.56,8.92-8.21c4.72-17.68,13.01-18.32,21.12-18.53
		C284.17,150.79,281.77,162.99,281.31,177.57z"/>
</g>
<g id="Layer_6">
</g>
<g id="Layer_7">
</g>
<g id="Layer_8">
</g>
<g id="Layer_9">
</g>
<g id="Layer_10">
</g>
<g id="Layer_11">
</g>
<g id="Layer_12">
</g>
<g id="Layer_13">
</g>
<g id="Layer_14">
</g>
<g id="Layer_15">
</g>
<g id="Layer_16">
</g>
<g id="Layer_32">
</g>
<g id="Layer_33">
</g>
<g id="Layer_34">
</g>
<g id="Layer_35">
</g>
<g id="Layer_49">
</g>
<g id="Layer_50">
</g>
<g id="Layer_51">
</g>
</svg>
