<?xml version="1.0" encoding="utf-8"?>
<!-- Generator: Adobe Illustrator 23.0.1, SVG Export Plug-In . SVG Version: 6.00 Build 0)  -->
<svg version="1.1" xmlns="http://www.w3.org/2000/svg" xmlns:xlink="http://www.w3.org/1999/xlink" x="0px" y="0px"
	 viewBox="0 0 432 432" enable-background="new 0 0 432 432" xml:space="preserve">
<g id="Layer_37">
</g>
<g id="Layer_47">
</g>
<g id="Layer_42">
</g>
<g id="Layer_43">
</g>
<g id="Layer_44">
</g>
<g id="Layer_45">
</g>
<g id="Layer_46">
</g>
<g id="Layer_38">
</g>
<g id="Layer_39">
</g>
<g id="Layer_40">
</g>
<g id="Layer_41">
</g>
<g id="Layer_17">
</g>
<g id="Layer_18">
</g>
<g id="Layer_19">
</g>
<g id="Layer_20">
</g>
<g id="Layer_21">
</g>
<g id="Layer_22">
	<path d="M218.26,176.27c0.93,1.92,1.4,3.99,1.4,6.21c0,2.93-0.65,5.46-1.96,7.6c-1.31,2.14-3.15,3.78-5.52,4.93
		c-2.38,1.15-5.15,1.72-8.32,1.72c-1.47,0-2.91-0.18-4.34-0.53c-1.43-0.36-2.65-0.83-3.68-1.43c-0.87-0.48-1.46-1-1.75-1.57
		c-0.3-0.57-0.45-1.12-0.45-1.63c0-0.91,0.33-1.77,0.98-2.58c0.65-0.81,1.47-1.22,2.47-1.22c0.36,0,0.74,0.06,1.16,0.18
		c0.42,0.12,0.88,0.36,1.4,0.71c0.67,0.52,1.47,0.97,2.41,1.37c0.93,0.4,2.01,0.59,3.24,0.59c1.23,0,2.39-0.31,3.48-0.92
		c1.09-0.61,1.99-1.49,2.7-2.61c0.71-1.13,1.07-2.48,1.07-4.07c0-1.5-0.31-2.75-0.92-3.74c-0.61-0.99-1.43-1.74-2.44-2.26
		c-1.01-0.51-2.09-0.77-3.24-0.77c-0.87,0-1.59,0.08-2.17,0.24c-0.57,0.16-1.13,0.33-1.66,0.5s-1.16,0.27-1.87,0.27
		c-0.91,0-1.61-0.32-2.11-0.95c-0.5-0.63-0.74-1.39-0.74-2.26c0-0.55,0.11-1.05,0.33-1.48c0.22-0.44,0.54-0.91,0.98-1.43l9.2-10.04
		h-11.76c-0.95,0-1.74-0.32-2.38-0.95c-0.63-0.63-0.95-1.43-0.95-2.38c0-0.91,0.32-1.67,0.95-2.29c0.63-0.61,1.43-0.92,2.38-0.92
		h18.18c1.23,0,2.15,0.34,2.76,1.01c0.61,0.67,0.92,1.52,0.92,2.55c0,0.52-0.13,1.01-0.39,1.48c-0.26,0.48-0.6,0.93-1.04,1.37
		l-8,8.82c2.18,0.06,4.09,0.65,5.72,1.79C216,172.79,217.33,174.35,218.26,176.27z M238.22,155.6c0.65,0.69,0.98,1.55,0.98,2.58
		v34.33c0,1.03-0.37,1.89-1.1,2.58c-0.73,0.69-1.67,1.04-2.82,1.04c-1.11,0-2.02-0.35-2.73-1.04c-0.71-0.69-1.07-1.55-1.07-2.58
		v-28.13l-3.68,2.23c-0.59,0.36-1.23,0.53-1.9,0.53c-1.03,0-1.88-0.39-2.55-1.16c-0.67-0.77-1.01-1.59-1.01-2.47
		c0-1.35,0.61-2.38,1.84-3.09l8.97-5.35c0.67-0.36,1.52-0.53,2.55-0.53C236.72,154.56,237.56,154.91,238.22,155.6z M216,17.5
		C134.67,17.5,68.5,83.67,68.5,165S134.67,312.5,216,312.5S363.5,246.33,363.5,165S297.33,17.5,216,17.5z M216,307.5
		c-78.57,0-142.5-63.92-142.5-142.5c0-78.57,63.93-142.5,142.5-142.5S358.5,86.43,358.5,165C358.5,243.58,294.57,307.5,216,307.5z
		 M285.13,105.29h-18.95v-8.78c0-5.27-4.29-9.56-9.56-9.56s-9.56,4.29-9.56,9.56v8.78h-62.13v-8.78c0-5.27-4.29-9.56-9.56-9.56
		s-9.56,4.29-9.56,9.56v8.78h-18.95c-1.38,0-2.5,1.12-2.5,2.5v114.42c0,1.38,1.12,2.5,2.5,2.5h138.25c1.38,0,2.5-1.12,2.5-2.5
		V107.79C287.63,106.41,286.51,105.29,285.13,105.29z M252.06,96.52c0-2.51,2.04-4.56,4.56-4.56s4.56,2.04,4.56,4.56v20.27
		c0,2.51-2.04,4.56-4.56,4.56s-4.56-2.04-4.56-4.56V96.52z M170.82,96.52c0-2.51,2.04-4.56,4.56-4.56s4.56,2.04,4.56,4.56v20.27
		c0,2.51-2.04,4.56-4.56,4.56s-4.56-2.04-4.56-4.56V96.52z M165.82,110.29v6.49c0,5.27,4.29,9.56,9.56,9.56s9.56-4.29,9.56-9.56
		v-6.49h62.13v6.49c0,5.27,4.29,9.56,9.56,9.56s9.56-4.29,9.56-9.56v-6.49h16.45v21.66H149.37v-21.66H165.82z M149.37,219.71v-82.76
		h133.25v82.76H149.37z"/>
	<path id="period_after_opening" d="M76.56,336.13c-1.35-0.83-2.87-1.24-4.55-1.24H61.24c-0.52,0-0.96,0.18-1.31,0.53
		c-0.35,0.35-0.53,0.79-0.53,1.31v28.47c0,0.52,0.16,0.97,0.48,1.33c0.32,0.37,0.76,0.55,1.31,0.55c0.52,0,0.95-0.18,1.29-0.55
		c0.34-0.37,0.51-0.81,0.51-1.33v-11.04H72c1.69,0,3.2-0.43,4.55-1.29c1.35-0.86,2.42-2.02,3.2-3.5s1.17-3.11,1.17-4.92
		c0-1.84-0.39-3.48-1.17-4.92C78.97,338.1,77.91,336.96,76.56,336.13z M76.51,347.54c-0.46,0.95-1.07,1.7-1.84,2.25
		c-0.77,0.55-1.66,0.83-2.67,0.83h-9.02v-12.19H72c1.01,0,1.9,0.27,2.67,0.81c0.77,0.54,1.38,1.25,1.84,2.14
		c0.46,0.89,0.69,1.92,0.69,3.08C77.2,345.56,76.97,346.59,76.51,347.54z M90.77,338.43v10.35h12.33c0.52,0,0.97,0.17,1.33,0.51
		s0.55,0.77,0.55,1.29c0,0.52-0.18,0.94-0.55,1.27c-0.37,0.32-0.81,0.48-1.33,0.48H90.77v11.18h14.4c0.52,0,0.97,0.18,1.33,0.55
		c0.37,0.37,0.55,0.78,0.55,1.24c0,0.52-0.18,0.95-0.55,1.29c-0.37,0.34-0.81,0.51-1.33,0.51H88.79c-0.52,0-0.96-0.18-1.31-0.55
		c-0.35-0.37-0.53-0.81-0.53-1.33v-28.47c0-0.52,0.18-0.96,0.53-1.31c0.35-0.35,0.79-0.53,1.31-0.53h16.38
		c0.52,0,0.97,0.17,1.33,0.51c0.37,0.34,0.55,0.77,0.55,1.29s-0.18,0.94-0.55,1.26c-0.37,0.32-0.81,0.48-1.33,0.48H90.77z
		 M126.7,354.03c0.67,0,1.33,0.08,1.98,0.23c0.64,0.15,1.23,0.43,1.75,0.83c0.52,0.4,0.94,0.92,1.24,1.56s0.46,1.46,0.46,2.44
		c0,1.75,0.15,3.13,0.46,4.14c0.31,1.01,0.69,1.79,1.15,2.32c0.46,0.54,0.93,0.94,1.43,1.22c0.25,0.15,0.54,0.25,0.87,0.28
		c0.34,0.03,0.67-0.01,1.01-0.12c0.34-0.11,0.6-0.3,0.78-0.57c0.31-0.43,0.39-0.87,0.25-1.33c-0.14-0.46-0.42-0.83-0.85-1.1
		c-0.34-0.21-0.6-0.51-0.78-0.9c-0.18-0.38-0.32-0.91-0.41-1.59c-0.09-0.67-0.17-1.58-0.23-2.71c-0.03-1.29-0.31-2.42-0.83-3.38
		c-0.52-0.97-1.2-1.76-2.02-2.39c-0.41-0.31-0.85-0.57-1.31-0.79c0.91-0.41,1.73-0.96,2.46-1.65c0.86-0.81,1.53-1.78,2.02-2.9
		c0.49-1.12,0.74-2.32,0.74-3.61c0-1.78-0.41-3.35-1.22-4.72c-0.81-1.36-1.91-2.44-3.29-3.22c-1.38-0.78-2.93-1.17-4.65-1.17h-12.7
		c-0.52,0-0.96,0.18-1.31,0.53c-0.35,0.35-0.53,0.79-0.53,1.31v28.47c0,0.52,0.21,0.97,0.62,1.33c0.41,0.37,0.91,0.55,1.5,0.55
		c0.52,0,0.94-0.18,1.24-0.55c0.31-0.37,0.46-0.81,0.46-1.33v-11.18H126.7z M131.36,340.04c1.03,1.07,1.54,2.42,1.54,4.05
		c0,1.26-0.25,2.38-0.76,3.38c-0.51,1-1.15,1.77-1.93,2.32c-0.78,0.55-1.62,0.86-2.51,0.92h-10.72v-12.28h10.49
		C129.04,338.43,130.34,338.97,131.36,340.04z M144.77,366.54c-0.34-0.37-0.51-0.81-0.51-1.33v-28.43c0-0.55,0.18-1,0.55-1.36
		c0.37-0.35,0.83-0.53,1.38-0.53c0.52,0,0.97,0.18,1.33,0.53c0.37,0.35,0.55,0.8,0.55,1.36v28.43c0,0.52-0.19,0.97-0.58,1.33
		c-0.38,0.37-0.84,0.55-1.36,0.55C145.57,367.09,145.11,366.91,144.77,366.54z M185.21,350.99c0-2.39-0.38-4.59-1.15-6.6
		c-0.77-2.01-1.84-3.76-3.22-5.24c-1.38-1.49-3.02-2.65-4.92-3.47c-1.9-0.83-3.97-1.24-6.21-1.24c-2.27,0-4.35,0.41-6.23,1.24
		s-3.52,1.99-4.9,3.47c-1.38,1.49-2.45,3.24-3.22,5.24c-0.77,2.01-1.15,4.21-1.15,6.6c0,2.36,0.38,4.55,1.15,6.56
		c0.77,2.01,1.84,3.76,3.22,5.27c1.38,1.5,3.01,2.67,4.9,3.5c1.89,0.83,3.96,1.24,6.23,1.24c2.24,0,4.31-0.41,6.21-1.24
		c1.9-0.83,3.54-1.99,4.92-3.5c1.38-1.5,2.45-3.26,3.22-5.27C184.82,355.54,185.21,353.35,185.21,350.99z M179.76,357.64
		c-1,1.95-2.35,3.47-4.07,4.58c-1.72,1.1-3.71,1.66-5.98,1.66s-4.27-0.55-6-1.66s-3.09-2.63-4.07-4.58
		c-0.98-1.95-1.47-4.16-1.47-6.65c0-2.51,0.49-4.74,1.47-6.67c0.98-1.93,2.34-3.45,4.07-4.55s3.73-1.66,6-1.66s4.26,0.55,5.98,1.66
		c1.72,1.1,3.07,2.62,4.07,4.55c1,1.93,1.5,4.16,1.5,6.67C181.25,353.47,180.75,355.69,179.76,357.64z M216.72,359.06
		c1.01-2.44,1.52-5.13,1.52-8.07c0-2.15-0.28-4.19-0.85-6.14c-0.57-1.95-1.42-3.67-2.55-5.17c-1.13-1.5-2.55-2.68-4.25-3.52
		c-1.7-0.84-3.67-1.27-5.91-1.27h-11.5c-0.52,0-0.96,0.18-1.31,0.53c-0.35,0.35-0.53,0.79-0.53,1.31v28.47
		c0,0.52,0.18,0.97,0.53,1.33c0.35,0.37,0.79,0.55,1.31,0.55h11.5c3.04,0,5.55-0.73,7.54-2.19
		C214.2,363.45,215.7,361.5,216.72,359.06z M209.98,361.8c-1.49,1.13-3.41,1.7-5.77,1.7h-9.06v-25.07h9.06
		c1.78,0,3.3,0.34,4.58,1.01c1.27,0.67,2.32,1.59,3.13,2.76c0.81,1.17,1.41,2.51,1.79,4.03c0.38,1.52,0.58,3.1,0.58,4.76
		c0,2.27-0.34,4.35-1.04,6.26C212.55,359.15,211.46,360.67,209.98,361.8z M254.97,358.49l3.1,7.45c0.15,0.4,0.38,0.71,0.69,0.92
		c0.31,0.21,0.64,0.32,1.01,0.32c0.46,0,0.87-0.16,1.24-0.48c0.37-0.32,0.55-0.76,0.55-1.31c0-0.25-0.05-0.49-0.14-0.74l-11.87-28.7
		c-0.12-0.37-0.34-0.66-0.67-0.87c-0.32-0.21-0.68-0.32-1.08-0.32c-0.4-0.03-0.76,0.05-1.08,0.25c-0.32,0.2-0.56,0.51-0.71,0.94
		l-11.91,28.98c-0.09,0.25-0.12,0.48-0.09,0.69c0,0.43,0.14,0.8,0.41,1.1c0.28,0.31,0.71,0.46,1.29,0.46c0.34,0,0.66-0.11,0.97-0.32
		c0.31-0.21,0.52-0.51,0.64-0.87l3.08-7.5H254.97z M247.64,340.88l5.84,14.02h-11.6L247.64,340.88z M270.4,338.43v10.4h12.14
		c0.52,0,0.97,0.18,1.33,0.53c0.37,0.35,0.55,0.79,0.55,1.31c0,0.46-0.18,0.87-0.55,1.22c-0.37,0.35-0.81,0.53-1.33,0.53H270.4
		v12.79c0,0.52-0.18,0.97-0.55,1.33c-0.37,0.37-0.81,0.55-1.33,0.55c-0.55,0-1-0.18-1.36-0.55c-0.35-0.37-0.53-0.81-0.53-1.33
		v-28.47c0-0.52,0.18-0.96,0.53-1.31c0.35-0.35,0.79-0.53,1.31-0.53h16.15c0.52,0,0.97,0.17,1.33,0.51
		c0.37,0.34,0.55,0.77,0.55,1.29c0,0.49-0.18,0.9-0.55,1.24c-0.37,0.34-0.81,0.51-1.33,0.51H270.4z M315.34,335.37
		c0.37,0.32,0.55,0.74,0.55,1.26c0,0.55-0.18,0.98-0.55,1.29c-0.37,0.31-0.81,0.46-1.33,0.46h-8.74v26.82
		c0,0.52-0.18,0.97-0.55,1.33c-0.37,0.37-0.84,0.55-1.43,0.55c-0.55,0-1.01-0.18-1.38-0.55c-0.37-0.37-0.55-0.81-0.55-1.33v-26.82
		h-8.74c-0.52,0-0.96-0.16-1.31-0.48s-0.53-0.74-0.53-1.27c0-0.52,0.18-0.94,0.53-1.26c0.35-0.32,0.79-0.48,1.31-0.48H314
		C314.53,334.89,314.97,335.05,315.34,335.37z M325.23,338.43v10.35h12.33c0.52,0,0.97,0.17,1.33,0.51
		c0.37,0.34,0.55,0.77,0.55,1.29c0,0.52-0.18,0.94-0.55,1.27c-0.37,0.32-0.81,0.48-1.33,0.48h-12.33v11.18h14.4
		c0.52,0,0.97,0.18,1.33,0.55c0.37,0.37,0.55,0.78,0.55,1.24c0,0.52-0.18,0.95-0.55,1.29c-0.37,0.34-0.81,0.51-1.33,0.51h-16.38
		c-0.52,0-0.96-0.18-1.31-0.55c-0.35-0.37-0.53-0.81-0.53-1.33v-28.47c0-0.52,0.18-0.96,0.53-1.31c0.35-0.35,0.79-0.53,1.31-0.53
		h16.38c0.52,0,0.97,0.17,1.33,0.51c0.37,0.34,0.55,0.77,0.55,1.29s-0.18,0.94-0.55,1.26c-0.37,0.32-0.81,0.48-1.33,0.48H325.23z
		 M372.54,365.02c-0.14-0.46-0.42-0.83-0.85-1.1c-0.34-0.21-0.6-0.51-0.78-0.9c-0.18-0.38-0.32-0.91-0.41-1.59
		c-0.09-0.67-0.17-1.58-0.23-2.71c-0.03-1.29-0.31-2.42-0.83-3.38c-0.52-0.97-1.2-1.76-2.02-2.39c-0.41-0.31-0.85-0.57-1.31-0.79
		c0.91-0.41,1.73-0.96,2.46-1.65c0.86-0.81,1.53-1.78,2.02-2.9c0.49-1.12,0.74-2.32,0.74-3.61c0-1.78-0.41-3.35-1.22-4.72
		c-0.81-1.36-1.91-2.44-3.29-3.22c-1.38-0.78-2.93-1.17-4.65-1.17h-12.7c-0.52,0-0.96,0.18-1.31,0.53
		c-0.35,0.35-0.53,0.79-0.53,1.31v28.47c0,0.52,0.21,0.97,0.62,1.33c0.41,0.37,0.91,0.55,1.5,0.55c0.52,0,0.93-0.18,1.24-0.55
		c0.31-0.37,0.46-0.81,0.46-1.33v-11.18h9.71c0.67,0,1.33,0.08,1.98,0.23c0.64,0.15,1.23,0.43,1.75,0.83
		c0.52,0.4,0.93,0.92,1.24,1.56c0.31,0.64,0.46,1.46,0.46,2.44c0,1.75,0.15,3.13,0.46,4.14c0.31,1.01,0.69,1.79,1.15,2.32
		c0.46,0.54,0.94,0.94,1.43,1.22c0.25,0.15,0.54,0.25,0.87,0.28c0.34,0.03,0.67-0.01,1.01-0.12c0.34-0.11,0.6-0.3,0.78-0.57
		C372.59,365.93,372.68,365.48,372.54,365.02z M362.17,350.71h-10.72v-12.28h10.49c1.56,0,2.86,0.54,3.89,1.61
		c1.03,1.07,1.54,2.42,1.54,4.05c0,1.26-0.25,2.38-0.76,3.38c-0.51,1-1.15,1.77-1.93,2.32
		C363.89,350.35,363.05,350.65,362.17,350.71z M143.74,394.35c-1.38-1.49-3.02-2.65-4.92-3.47c-1.9-0.83-3.97-1.24-6.21-1.24
		c-2.27,0-4.35,0.41-6.23,1.24c-1.89,0.83-3.52,1.99-4.9,3.47c-1.38,1.49-2.45,3.24-3.22,5.24c-0.77,2.01-1.15,4.21-1.15,6.6
		c0,2.36,0.38,4.55,1.15,6.56c0.77,2.01,1.84,3.76,3.22,5.27c1.38,1.5,3.01,2.67,4.9,3.5c1.89,0.83,3.96,1.24,6.23,1.24
		c2.24,0,4.31-0.41,6.21-1.24c1.9-0.83,3.54-1.99,4.92-3.5c1.38-1.5,2.45-3.26,3.22-5.27c0.77-2.01,1.15-4.19,1.15-6.56
		c0-2.39-0.38-4.59-1.15-6.6C146.19,397.58,145.12,395.83,143.74,394.35z M142.66,412.84c-1,1.95-2.35,3.47-4.07,4.58
		c-1.72,1.1-3.71,1.66-5.98,1.66s-4.27-0.55-6-1.66c-1.73-1.1-3.09-2.63-4.07-4.58c-0.98-1.95-1.47-4.16-1.47-6.65
		c0-2.51,0.49-4.74,1.47-6.67c0.98-1.93,2.34-3.45,4.07-4.55c1.73-1.1,3.73-1.66,6-1.66s4.26,0.55,5.98,1.66
		c1.72,1.1,3.07,2.62,4.07,4.55c1,1.93,1.5,4.16,1.5,6.67C144.15,408.67,143.65,410.89,142.66,412.84z M171.38,391.33
		c-1.35-0.83-2.87-1.24-4.55-1.24h-10.76c-0.52,0-0.96,0.18-1.31,0.53c-0.35,0.35-0.53,0.79-0.53,1.31v28.47
		c0,0.52,0.16,0.97,0.48,1.33c0.32,0.37,0.76,0.55,1.31,0.55c0.52,0,0.95-0.18,1.29-0.55c0.34-0.37,0.51-0.81,0.51-1.33v-11.04h9.02
		c1.69,0,3.2-0.43,4.55-1.29c1.35-0.86,2.42-2.02,3.2-3.5c0.78-1.47,1.17-3.11,1.17-4.92c0-1.84-0.39-3.48-1.17-4.92
		C173.8,393.3,172.73,392.16,171.38,391.33z M171.34,402.74c-0.46,0.95-1.07,1.7-1.84,2.25c-0.77,0.55-1.66,0.83-2.67,0.83h-9.02
		v-12.19h9.02c1.01,0,1.9,0.27,2.67,0.81c0.77,0.54,1.38,1.25,1.84,2.14c0.46,0.89,0.69,1.92,0.69,3.08
		C172.03,400.76,171.8,401.79,171.34,402.74z M185.6,393.63v10.35h12.33c0.52,0,0.97,0.17,1.33,0.51s0.55,0.77,0.55,1.29
		c0,0.52-0.18,0.94-0.55,1.27c-0.37,0.32-0.81,0.48-1.33,0.48H185.6v11.18H200c0.52,0,0.97,0.18,1.33,0.55
		c0.37,0.37,0.55,0.78,0.55,1.24c0,0.52-0.18,0.95-0.55,1.29c-0.37,0.34-0.81,0.51-1.33,0.51h-16.38c-0.52,0-0.96-0.18-1.31-0.55
		c-0.35-0.37-0.53-0.81-0.53-1.33v-28.47c0-0.52,0.18-0.96,0.53-1.31c0.35-0.35,0.79-0.53,1.31-0.53H200c0.52,0,0.97,0.17,1.33,0.51
		c0.37,0.34,0.55,0.77,0.55,1.29s-0.18,0.94-0.55,1.26c-0.37,0.32-0.81,0.48-1.33,0.48H185.6z M233.07,390.57
		c0.31,0.32,0.46,0.73,0.46,1.22v28.57c0,0.58-0.18,1.05-0.55,1.4s-0.81,0.53-1.33,0.53c-0.28,0-0.55-0.05-0.83-0.16
		c-0.28-0.11-0.49-0.25-0.64-0.44l-18.77-24.82v23.72c0,0.49-0.16,0.9-0.48,1.22c-0.32,0.32-0.74,0.48-1.27,0.48
		c-0.49,0-0.89-0.16-1.2-0.48c-0.31-0.32-0.46-0.73-0.46-1.22v-28.66c0-0.55,0.18-1,0.53-1.33c0.35-0.34,0.77-0.51,1.26-0.51
		c0.28,0,0.56,0.05,0.85,0.16c0.29,0.11,0.51,0.27,0.67,0.48l18.81,24.88v-23.82c0-0.49,0.16-0.9,0.48-1.22
		c0.32-0.32,0.73-0.48,1.22-0.48C232.35,390.09,232.76,390.25,233.07,390.57z M244.84,390.62c0.37,0.35,0.55,0.8,0.55,1.36v28.43
		c0,0.52-0.19,0.97-0.58,1.33c-0.38,0.37-0.84,0.55-1.36,0.55c-0.58,0-1.04-0.18-1.38-0.55c-0.34-0.37-0.51-0.81-0.51-1.33v-28.43
		c0-0.55,0.18-1,0.55-1.36c0.37-0.35,0.83-0.53,1.38-0.53C244.03,390.09,244.48,390.27,244.84,390.62z M278.56,390.57
		c0.31,0.32,0.46,0.73,0.46,1.22v28.57c0,0.58-0.18,1.05-0.55,1.4s-0.81,0.53-1.33,0.53c-0.28,0-0.55-0.05-0.83-0.16
		c-0.28-0.11-0.49-0.25-0.64-0.44l-18.77-24.82v23.72c0,0.49-0.16,0.9-0.48,1.22c-0.32,0.32-0.74,0.48-1.27,0.48
		c-0.49,0-0.89-0.16-1.2-0.48c-0.31-0.32-0.46-0.73-0.46-1.22v-28.66c0-0.55,0.18-1,0.53-1.33c0.35-0.34,0.77-0.51,1.26-0.51
		c0.28,0,0.56,0.05,0.85,0.16c0.29,0.11,0.51,0.27,0.67,0.48l18.81,24.88v-23.82c0-0.49,0.16-0.9,0.48-1.22
		c0.32-0.32,0.73-0.48,1.22-0.48C277.84,390.09,278.26,390.25,278.56,390.57z M311.96,406.19c0.34,0.37,0.51,0.81,0.51,1.33v10.63
		c0,0.37-0.08,0.69-0.25,0.97c-0.17,0.28-0.39,0.51-0.67,0.69c-1.38,0.89-2.91,1.6-4.58,2.14c-1.67,0.54-3.41,0.81-5.22,0.81
		c-2.36,0-4.55-0.42-6.55-1.27c-2.01-0.84-3.77-2.02-5.29-3.52c-1.52-1.5-2.7-3.26-3.54-5.27c-0.84-2.01-1.27-4.18-1.27-6.51
		c0-2.36,0.42-4.55,1.27-6.55c0.84-2.01,2.02-3.76,3.54-5.27c1.52-1.5,3.28-2.67,5.29-3.5c2.01-0.83,4.19-1.24,6.55-1.24
		c1.56,0,3.07,0.18,4.53,0.53c1.46,0.35,2.78,0.9,3.98,1.63c0.31,0.15,0.53,0.37,0.67,0.64c0.14,0.28,0.21,0.57,0.21,0.87
		c0,0.52-0.18,0.97-0.53,1.33c-0.35,0.37-0.76,0.55-1.22,0.55c-0.18,0-0.36-0.03-0.53-0.09c-0.17-0.06-0.35-0.12-0.53-0.18
		c-0.95-0.49-1.98-0.88-3.08-1.17c-1.1-0.29-2.27-0.44-3.5-0.44c-2.42,0-4.59,0.57-6.51,1.7c-1.92,1.13-3.43,2.67-4.53,4.6
		c-1.1,1.93-1.66,4.13-1.66,6.58c0,2.42,0.55,4.61,1.66,6.56c1.1,1.95,2.61,3.49,4.53,4.62c1.92,1.13,4.09,1.7,6.51,1.7
		c1.23,0,2.49-0.17,3.79-0.51c1.16-0.3,2.16-0.68,3.01-1.12v-8.12h-6.3c-0.52,0-0.96-0.18-1.31-0.53c-0.35-0.35-0.53-0.79-0.53-1.31
		c0-0.52,0.18-0.96,0.53-1.31c0.35-0.35,0.79-0.53,1.31-0.53h8.37C311.18,405.64,311.62,405.82,311.96,406.19z"/>
</g>
<g id="Layer_23">
</g>
<g id="Layer_24">
</g>
<g id="Layer_25">
</g>
<g id="Layer_26">
</g>
<g id="Layer_27">
</g>
<g id="Layer_28">
</g>
<g id="Layer_29">
</g>
<g id="Layer_30">
</g>
<g id="Layer_31">
</g>
<g id="Layer_2">
</g>
<g id="Layer_3">
</g>
<g id="Layer_4">
</g>
<g id="Layer_5">
</g>
<g id="Layer_6">
</g>
<g id="Layer_7">
</g>
<g id="Layer_8">
</g>
<g id="Layer_9">
</g>
<g id="Layer_10">
</g>
<g id="Layer_11">
</g>
<g id="Layer_12">
</g>
<g id="Layer_13">
</g>
<g id="Layer_14">
</g>
<g id="Layer_15">
</g>
<g id="Layer_16">
</g>
<g id="Layer_32">
</g>
<g id="Layer_33">
</g>
<g id="Layer_34">
</g>
<g id="Layer_35">
</g>
<g id="Layer_49">
</g>
<g id="Layer_50">
</g>
<g id="Layer_51">
</g>
</svg>
