<?xml version="1.0" encoding="utf-8"?>
<!-- Generator: Adobe Illustrator 23.0.1, SVG Export Plug-In . SVG Version: 6.00 Build 0)  -->
<svg version="1.1" xmlns="http://www.w3.org/2000/svg" xmlns:xlink="http://www.w3.org/1999/xlink" x="0px" y="0px"
	 viewBox="0 0 432 432" enable-background="new 0 0 432 432" xml:space="preserve">
<g id="Layer_37">
</g>
<g id="Layer_47">
</g>
<g id="Layer_42">
</g>
<g id="Layer_43">
</g>
<g id="Layer_44">
</g>
<g id="Layer_45">
</g>
<g id="Layer_46">
</g>
<g id="Layer_38">
</g>
<g id="Layer_39">
</g>
<g id="Layer_40">
</g>
<g id="Layer_41">
</g>
<g id="Layer_17">
</g>
<g id="Layer_18">
</g>
<g id="Layer_19">
	<path id="organic_product" d="M140.38,350.99c0-2.39-0.38-4.59-1.15-6.6c-0.77-2.01-1.84-3.76-3.22-5.24
		c-1.38-1.49-3.02-2.65-4.92-3.47c-1.9-0.83-3.97-1.24-6.21-1.24c-2.27,0-4.35,0.41-6.23,1.24s-3.52,1.99-4.9,3.47
		c-1.38,1.49-2.45,3.24-3.22,5.24c-0.77,2.01-1.15,4.21-1.15,6.6c0,2.36,0.38,4.55,1.15,6.56c0.77,2.01,1.84,3.76,3.22,5.27
		c1.38,1.5,3.01,2.67,4.9,3.5c1.89,0.83,3.96,1.24,6.23,1.24c2.24,0,4.31-0.41,6.21-1.24c1.9-0.83,3.54-1.99,4.92-3.5
		c1.38-1.5,2.45-3.26,3.22-5.27C139.99,355.54,140.38,353.36,140.38,350.99z M134.93,357.64c-1,1.95-2.35,3.47-4.07,4.58
		c-1.72,1.1-3.71,1.66-5.98,1.66s-4.27-0.55-6-1.66s-3.09-2.63-4.07-4.58c-0.98-1.95-1.47-4.16-1.47-6.65
		c0-2.51,0.49-4.74,1.47-6.67c0.98-1.93,2.34-3.45,4.07-4.55s3.73-1.66,6-1.66s4.26,0.55,5.98,1.66c1.72,1.1,3.07,2.62,4.07,4.55
		c1,1.93,1.5,4.16,1.5,6.67C136.42,353.48,135.92,355.69,134.93,357.64z M168.48,366.77c0.25,0.15,0.54,0.25,0.87,0.28
		c0.34,0.03,0.67-0.01,1.01-0.12c0.34-0.11,0.6-0.3,0.78-0.57c0.31-0.43,0.39-0.87,0.25-1.33c-0.14-0.46-0.42-0.83-0.85-1.1
		c-0.34-0.21-0.6-0.51-0.78-0.9c-0.18-0.38-0.32-0.91-0.41-1.59c-0.09-0.67-0.17-1.58-0.23-2.71c-0.03-1.29-0.31-2.42-0.83-3.38
		c-0.52-0.97-1.2-1.76-2.02-2.39c-0.41-0.31-0.85-0.57-1.31-0.79c0.91-0.41,1.73-0.96,2.46-1.65c0.86-0.81,1.53-1.78,2.02-2.9
		c0.49-1.12,0.74-2.32,0.74-3.61c0-1.78-0.41-3.35-1.22-4.72c-0.81-1.36-1.91-2.44-3.29-3.22c-1.38-0.78-2.93-1.17-4.65-1.17h-12.7
		c-0.52,0-0.96,0.18-1.31,0.53c-0.35,0.35-0.53,0.79-0.53,1.31v28.47c0,0.52,0.21,0.97,0.62,1.33c0.41,0.37,0.91,0.55,1.5,0.55
		c0.52,0,0.93-0.18,1.24-0.55c0.31-0.37,0.46-0.81,0.46-1.33v-11.18h9.71c0.67,0,1.33,0.08,1.98,0.23c0.64,0.15,1.23,0.43,1.75,0.83
		c0.52,0.4,0.93,0.92,1.24,1.56c0.31,0.64,0.46,1.46,0.46,2.44c0,1.75,0.15,3.13,0.46,4.14c0.31,1.01,0.69,1.79,1.15,2.32
		C167.52,366.09,167.99,366.5,168.48,366.77z M163.54,349.8c-0.78,0.55-1.62,0.86-2.51,0.92h-10.72v-12.28h10.49
		c1.56,0,2.86,0.54,3.89,1.61c1.03,1.07,1.54,2.42,1.54,4.05c0,1.26-0.25,2.38-0.76,3.38C164.96,348.47,164.32,349.25,163.54,349.8z
		 M202.02,350.99c0.34,0.37,0.51,0.81,0.51,1.33v10.63c0,0.37-0.08,0.69-0.25,0.97c-0.17,0.28-0.39,0.51-0.67,0.69
		c-1.38,0.89-2.91,1.6-4.58,2.14c-1.67,0.54-3.41,0.81-5.22,0.81c-2.36,0-4.55-0.42-6.55-1.27c-2.01-0.84-3.77-2.02-5.29-3.52
		c-1.52-1.5-2.7-3.26-3.54-5.27c-0.84-2.01-1.27-4.18-1.27-6.51c0-2.36,0.42-4.55,1.27-6.55c0.84-2.01,2.02-3.76,3.54-5.27
		c1.52-1.5,3.28-2.67,5.29-3.5c2.01-0.83,4.19-1.24,6.55-1.24c1.56,0,3.07,0.18,4.53,0.53c1.46,0.35,2.78,0.9,3.98,1.63
		c0.31,0.15,0.53,0.37,0.67,0.64c0.14,0.28,0.21,0.57,0.21,0.87c0,0.52-0.18,0.97-0.53,1.33c-0.35,0.37-0.76,0.55-1.22,0.55
		c-0.18,0-0.36-0.03-0.53-0.09c-0.17-0.06-0.35-0.12-0.53-0.18c-0.95-0.49-1.98-0.88-3.08-1.17c-1.1-0.29-2.27-0.44-3.5-0.44
		c-2.42,0-4.59,0.57-6.51,1.7c-1.92,1.13-3.43,2.67-4.53,4.6c-1.1,1.93-1.66,4.13-1.66,6.58c0,2.42,0.55,4.61,1.66,6.56
		c1.1,1.95,2.61,3.49,4.53,4.62c1.92,1.13,4.09,1.7,6.51,1.7c1.23,0,2.49-0.17,3.79-0.51c1.16-0.3,2.16-0.68,3.01-1.12v-8.12h-6.3
		c-0.52,0-0.96-0.18-1.31-0.53c-0.35-0.35-0.53-0.79-0.53-1.31c0-0.52,0.18-0.96,0.53-1.31c0.35-0.35,0.79-0.53,1.31-0.53h8.37
		C201.23,350.44,201.68,350.63,202.02,350.99z M221.66,335.95c-0.12-0.37-0.34-0.66-0.67-0.87c-0.32-0.21-0.68-0.32-1.08-0.32
		c-0.4-0.03-0.76,0.05-1.08,0.25c-0.32,0.2-0.56,0.51-0.71,0.94l-11.91,28.98c-0.09,0.25-0.12,0.48-0.09,0.69
		c0,0.43,0.14,0.8,0.41,1.1c0.28,0.31,0.71,0.46,1.29,0.46c0.34,0,0.66-0.11,0.97-0.32c0.31-0.21,0.52-0.51,0.64-0.87l3.08-7.5
		h14.56l3.1,7.45c0.15,0.4,0.38,0.71,0.69,0.92c0.31,0.21,0.64,0.32,1.01,0.32c0.46,0,0.87-0.16,1.24-0.48
		c0.37-0.32,0.55-0.76,0.55-1.31c0-0.25-0.05-0.49-0.14-0.74L221.66,335.95z M213.98,354.9l5.76-14.03l5.84,14.03H213.98z
		 M263.79,335.38c0.31,0.32,0.46,0.73,0.46,1.22v28.57c0,0.58-0.18,1.05-0.55,1.4c-0.37,0.35-0.81,0.53-1.33,0.53
		c-0.28,0-0.55-0.05-0.83-0.16c-0.28-0.11-0.49-0.25-0.64-0.44l-18.77-24.82v23.72c0,0.49-0.16,0.9-0.48,1.22
		c-0.32,0.32-0.74,0.48-1.26,0.48c-0.49,0-0.89-0.16-1.2-0.48c-0.31-0.32-0.46-0.73-0.46-1.22v-28.66c0-0.55,0.18-1,0.53-1.33
		c0.35-0.34,0.77-0.51,1.26-0.51c0.28,0,0.56,0.05,0.85,0.16c0.29,0.11,0.51,0.27,0.67,0.48l18.81,24.88V336.6
		c0-0.49,0.16-0.9,0.48-1.22c0.32-0.32,0.73-0.48,1.22-0.48C263.07,334.89,263.49,335.05,263.79,335.38z M272.81,366.54
		c-0.34-0.37-0.51-0.81-0.51-1.33v-28.43c0-0.55,0.18-1,0.55-1.36c0.37-0.35,0.83-0.53,1.38-0.53c0.52,0,0.97,0.18,1.33,0.53
		c0.37,0.35,0.55,0.8,0.55,1.36v28.43c0,0.52-0.19,0.97-0.58,1.33c-0.38,0.37-0.84,0.55-1.36,0.55
		C273.61,367.09,273.15,366.91,272.81,366.54z M283.55,357.87c-0.87-2.04-1.31-4.33-1.31-6.88c0-2.39,0.41-4.58,1.24-6.58
		c0.83-1.99,1.99-3.73,3.47-5.2c1.49-1.47,3.22-2.62,5.2-3.45c1.98-0.83,4.12-1.24,6.42-1.24c1.59,0,3.15,0.21,4.67,0.64
		c1.52,0.43,2.91,1.04,4.16,1.84c0.52,0.28,0.82,0.69,0.9,1.24c0.08,0.55-0.07,1.06-0.44,1.52c-0.28,0.4-0.63,0.61-1.06,0.64
		c-0.43,0.03-0.86-0.06-1.29-0.28c-1.01-0.61-2.1-1.1-3.27-1.45c-1.17-0.35-2.39-0.53-3.68-0.53c-1.81,0-3.47,0.31-4.97,0.94
		c-1.5,0.63-2.81,1.51-3.91,2.65c-1.1,1.14-1.96,2.48-2.58,4.05s-0.92,3.3-0.92,5.2c0,2.02,0.32,3.83,0.97,5.43
		c0.64,1.59,1.52,2.95,2.64,4.07c1.12,1.12,2.42,1.97,3.91,2.55c1.49,0.58,3.1,0.87,4.85,0.87c1.26,0,2.47-0.17,3.63-0.51
		c1.17-0.34,2.27-0.83,3.31-1.47c0.43-0.21,0.86-0.29,1.29-0.23c0.43,0.06,0.8,0.28,1.1,0.64c0.37,0.49,0.51,1,0.41,1.54
		c-0.09,0.54-0.38,0.93-0.87,1.17c-0.77,0.46-1.64,0.88-2.62,1.27c-0.98,0.38-2,0.68-3.06,0.9c-1.06,0.21-2.12,0.32-3.2,0.32
		c-2.21,0-4.29-0.38-6.26-1.15c-1.96-0.77-3.7-1.87-5.2-3.31C285.61,361.65,284.42,359.91,283.55,357.87z M128.51,391.34
		c-1.35-0.83-2.87-1.24-4.55-1.24h-10.76c-0.52,0-0.96,0.18-1.31,0.53c-0.35,0.35-0.53,0.79-0.53,1.31v28.47
		c0,0.52,0.16,0.97,0.48,1.33c0.32,0.37,0.76,0.55,1.31,0.55c0.52,0,0.95-0.18,1.29-0.55c0.34-0.37,0.51-0.81,0.51-1.33v-11.04h9.02
		c1.69,0,3.2-0.43,4.55-1.29c1.35-0.86,2.42-2.02,3.2-3.5c0.78-1.47,1.17-3.11,1.17-4.92c0-1.84-0.39-3.48-1.17-4.92
		C130.92,393.3,129.86,392.16,128.51,391.34z M128.46,402.74c-0.46,0.95-1.07,1.7-1.84,2.25c-0.77,0.55-1.66,0.83-2.67,0.83h-9.02
		v-12.19h9.02c1.01,0,1.9,0.27,2.67,0.81c0.77,0.54,1.38,1.25,1.84,2.14c0.46,0.89,0.69,1.92,0.69,3.08
		C129.15,400.77,128.92,401.79,128.46,402.74z M162.96,419.12c-0.34-0.21-0.6-0.51-0.78-0.9c-0.18-0.38-0.32-0.91-0.41-1.59
		c-0.09-0.67-0.17-1.58-0.23-2.71c-0.03-1.29-0.31-2.42-0.83-3.38c-0.52-0.97-1.2-1.76-2.02-2.39c-0.41-0.31-0.85-0.57-1.31-0.79
		c0.91-0.41,1.73-0.96,2.46-1.65c0.86-0.81,1.53-1.78,2.02-2.9c0.49-1.12,0.74-2.32,0.74-3.61c0-1.78-0.41-3.35-1.22-4.72
		c-0.81-1.36-1.91-2.44-3.29-3.22c-1.38-0.78-2.93-1.17-4.65-1.17h-12.7c-0.52,0-0.96,0.18-1.31,0.53
		c-0.35,0.35-0.53,0.79-0.53,1.31v28.47c0,0.52,0.21,0.97,0.62,1.33c0.41,0.37,0.91,0.55,1.5,0.55c0.52,0,0.93-0.18,1.24-0.55
		c0.31-0.37,0.46-0.81,0.46-1.33v-11.18h9.71c0.67,0,1.33,0.08,1.98,0.23c0.64,0.15,1.23,0.43,1.75,0.83
		c0.52,0.4,0.93,0.92,1.24,1.56c0.31,0.64,0.46,1.46,0.46,2.44c0,1.75,0.15,3.13,0.46,4.14c0.31,1.01,0.69,1.79,1.15,2.32
		c0.46,0.54,0.94,0.94,1.43,1.22c0.25,0.15,0.54,0.25,0.87,0.28c0.34,0.03,0.67-0.01,1.01-0.12c0.34-0.11,0.6-0.3,0.78-0.57
		c0.31-0.43,0.39-0.87,0.25-1.33C163.68,419.76,163.39,419.4,162.96,419.12z M155.95,405c-0.78,0.55-1.62,0.86-2.51,0.92h-10.72
		v-12.28h10.49c1.56,0,2.86,0.54,3.89,1.61c1.03,1.07,1.54,2.42,1.54,4.05c0,1.26-0.25,2.38-0.76,3.38
		C157.37,403.67,156.73,404.45,155.95,405z M194.2,394.35c-1.38-1.49-3.02-2.65-4.92-3.47c-1.9-0.83-3.97-1.24-6.21-1.24
		c-2.27,0-4.35,0.41-6.23,1.24s-3.52,1.99-4.9,3.47c-1.38,1.49-2.45,3.24-3.22,5.24c-0.77,2.01-1.15,4.21-1.15,6.6
		c0,2.36,0.38,4.55,1.15,6.56c0.77,2.01,1.84,3.76,3.22,5.27c1.38,1.5,3.01,2.67,4.9,3.5c1.89,0.83,3.96,1.24,6.23,1.24
		c2.24,0,4.31-0.41,6.21-1.24c1.9-0.83,3.54-1.99,4.92-3.5c1.38-1.5,2.45-3.26,3.22-5.27c0.77-2.01,1.15-4.19,1.15-6.56
		c0-2.39-0.38-4.59-1.15-6.6C196.65,397.58,195.58,395.84,194.2,394.35z M193.12,412.84c-1,1.95-2.35,3.47-4.07,4.58
		c-1.72,1.1-3.71,1.66-5.98,1.66s-4.27-0.55-6-1.66s-3.09-2.63-4.07-4.58c-0.98-1.95-1.47-4.16-1.47-6.65
		c0-2.51,0.49-4.74,1.47-6.67c0.98-1.93,2.34-3.45,4.07-4.55s3.73-1.66,6-1.66s4.26,0.55,5.98,1.66c1.72,1.1,3.07,2.62,4.07,4.55
		c1,1.93,1.5,4.16,1.5,6.67C194.61,408.68,194.11,410.89,193.12,412.84z M228.19,394.88c-1.13-1.5-2.55-2.68-4.25-3.52
		c-1.7-0.84-3.67-1.27-5.91-1.27h-11.5c-0.52,0-0.96,0.18-1.31,0.53c-0.35,0.35-0.53,0.79-0.53,1.31v28.47
		c0,0.52,0.18,0.97,0.53,1.33c0.35,0.37,0.79,0.55,1.31,0.55h11.5c3.04,0,5.55-0.73,7.54-2.19c1.99-1.46,3.5-3.4,4.51-5.84
		c1.01-2.44,1.52-5.13,1.52-8.07c0-2.15-0.28-4.19-0.85-6.14C230.18,398.11,229.32,396.38,228.19,394.88z M226.6,412.45
		c-0.69,1.9-1.78,3.42-3.27,4.55c-1.49,1.13-3.41,1.7-5.77,1.7h-9.06v-25.07h9.06c1.78,0,3.3,0.34,4.58,1.01
		c1.27,0.67,2.32,1.59,3.13,2.76c0.81,1.17,1.41,2.51,1.79,4.03c0.38,1.52,0.58,3.1,0.58,4.76
		C227.64,408.46,227.29,410.55,226.6,412.45z M261.82,390.6c0.34,0.37,0.51,0.81,0.51,1.33v18.26c0,2.36-0.54,4.48-1.63,6.35
		c-1.09,1.87-2.55,3.35-4.39,4.44c-1.84,1.09-3.93,1.63-6.26,1.63c-2.36,0-4.47-0.54-6.33-1.63c-1.86-1.09-3.32-2.57-4.39-4.44
		c-1.07-1.87-1.61-3.99-1.61-6.35v-18.26c0-0.52,0.18-0.97,0.53-1.33c0.35-0.37,0.82-0.55,1.4-0.55c0.49,0,0.93,0.18,1.31,0.55
		c0.38,0.37,0.58,0.81,0.58,1.33v18.26c0,1.69,0.38,3.19,1.15,4.51c0.77,1.32,1.8,2.35,3.11,3.1c1.3,0.75,2.72,1.13,4.25,1.13
		c1.56,0,3-0.38,4.32-1.13c1.32-0.75,2.38-1.79,3.2-3.1c0.81-1.32,1.22-2.82,1.22-4.51v-18.26c0-0.52,0.15-0.97,0.46-1.33
		c0.31-0.37,0.74-0.55,1.29-0.55C261.05,390.05,261.48,390.23,261.82,390.6z M294.06,417.56c0.37,0.49,0.51,1,0.41,1.54
		s-0.38,0.93-0.87,1.17c-0.77,0.46-1.64,0.88-2.62,1.27c-0.98,0.38-2,0.68-3.06,0.9c-1.06,0.21-2.12,0.32-3.2,0.32
		c-2.21,0-4.29-0.38-6.26-1.15c-1.96-0.77-3.7-1.87-5.2-3.31c-1.5-1.44-2.69-3.18-3.57-5.22c-0.87-2.04-1.31-4.33-1.31-6.88
		c0-2.39,0.41-4.58,1.24-6.58c0.83-1.99,1.99-3.73,3.47-5.2s3.22-2.62,5.2-3.45c1.98-0.83,4.12-1.24,6.42-1.24
		c1.59,0,3.15,0.21,4.67,0.64c1.52,0.43,2.91,1.04,4.16,1.84c0.52,0.28,0.82,0.69,0.9,1.24c0.08,0.55-0.07,1.06-0.44,1.52
		c-0.28,0.4-0.63,0.61-1.06,0.64c-0.43,0.03-0.86-0.06-1.29-0.28c-1.01-0.61-2.1-1.1-3.27-1.45c-1.17-0.35-2.39-0.53-3.68-0.53
		c-1.81,0-3.47,0.31-4.97,0.94c-1.5,0.63-2.81,1.51-3.91,2.65c-1.1,1.14-1.96,2.48-2.58,4.05c-0.61,1.56-0.92,3.3-0.92,5.2
		c0,2.02,0.32,3.83,0.97,5.43c0.64,1.59,1.53,2.95,2.65,4.07c1.12,1.12,2.42,1.97,3.91,2.55s3.11,0.87,4.85,0.87
		c1.26,0,2.47-0.17,3.63-0.51c1.17-0.34,2.27-0.83,3.31-1.47c0.43-0.21,0.86-0.29,1.29-0.23
		C293.39,416.97,293.75,417.19,294.06,417.56z M322.63,391.84c0,0.55-0.18,0.98-0.55,1.29c-0.37,0.31-0.81,0.46-1.33,0.46H312v26.82
		c0,0.52-0.18,0.97-0.55,1.33c-0.37,0.37-0.84,0.55-1.43,0.55c-0.55,0-1.01-0.18-1.38-0.55c-0.37-0.37-0.55-0.81-0.55-1.33v-26.82
		h-8.74c-0.52,0-0.96-0.16-1.31-0.48s-0.53-0.74-0.53-1.27c0-0.52,0.18-0.94,0.53-1.26c0.35-0.32,0.79-0.48,1.31-0.48h21.39
		c0.52,0,0.97,0.16,1.33,0.48C322.44,390.9,322.63,391.32,322.63,391.84z"/>
	<path d="M216,17.5C134.67,17.5,68.5,83.67,68.5,165S134.67,312.5,216,312.5S363.5,246.33,363.5,165S297.33,17.5,216,17.5z
		 M216,307.5c-78.57,0-142.5-63.92-142.5-142.5c0-78.57,63.93-142.5,142.5-142.5c78.58,0,142.5,63.93,142.5,142.5
		C358.5,243.58,294.58,307.5,216,307.5z M319.87,182.4c-3.32-1.8-6.52-1.32-9.91-0.8c-3.08,0.46-6.56,0.99-11.34,0.18
		c-5.61-0.95-14.41-7.4-22.17-13.1c-5.77-4.24-11.23-8.24-15.46-10.13c-9.94-4.43-28.34-6.64-42.8-5.14
		c-5.13,0.53-9.88,0.07-14.13-1.37c-1.31-0.44-2.73,0.26-3.17,1.57s0.26,2.73,1.57,3.17c4.93,1.67,10.4,2.22,16.25,1.61
		c13.48-1.4,31.17,0.69,40.25,4.74c3.74,1.67,8.98,5.52,14.54,9.59c8.61,6.32,17.52,12.86,24.3,14c5.56,0.93,9.64,0.32,12.91-0.17
		c3.25-0.49,5.02-0.7,6.78,0.26c2.33,1.26,4.91,7.09,3.99,27.69c-0.5,11.09-3.67,22.55-9.64,23.15c-4.35,0.45-8.44-1-13.61-2.83
		c-3.52-1.25-7.51-2.66-12.3-3.71c-12.06-2.65-36.4-1.81-54.7-0.64c-24.5,1.57-42.18,0.85-52.56-2.14
		c-12.14-3.5-27.92-15.23-33.25-20.04c-2.59-2.34-3.58-5.1-3.22-6.62c0.08-0.32,0.31-1.31,2.19-1.82
		c6.38-1.71,12.83,2.94,15.31,5.02c2.59,2.17,16.09,12.84,31.26,12.84c0.26,0,0.52,0,0.78-0.01c14.07-0.34,40.13-10.96,54.72-20.27
		c14.37-9.17,24.77-7.76,33.39-5.72c1.34,0.32,2.69-0.51,3.01-1.86s-0.51-2.69-1.86-3.01c-10.32-2.45-21.97-3.37-37.23,6.37
		c-14.01,8.94-39.29,19.17-52.16,19.49c-13.69,0.33-26.32-9.66-28.71-11.66c-1.73-1.45-3.51-2.66-5.31-3.64
		c8.84,2.27,18.61,4.42,24.37,4.84c1.39,0.11,2.57-0.94,2.67-2.32c0.1-1.38-0.94-2.57-2.32-2.67c-9.17-0.65-31.37-6.52-39.92-9.37
		c-5.11-1.7-13.24-3.42-20.46-3.92c5.73-4.82,15.32-2.27,26.97,1.58l0.52,0.17c9.07,2.99,24.75,4.55,37.39,4.55
		c4.35,0,8.33-0.18,11.56-0.56c9.77-1.13,21.59-4.01,24.43-7.67c0.85-1.09,0.92-2.13,0.82-2.8c-0.7-5.15-11.25-8.2-17.37-9.19
		c-8.31-1.34-16.57-3.27-20.72-8.2c-2.06-2.45-3.08-5.3-2.8-7.81c0.19-1.71,0.98-3.13,2.28-4.11c0.71-0.53,2.87-2.16,7.43,1.39
		c0.1,0.08,0.21,0.16,0.32,0.24c-0.02,0.12-0.04,0.24-0.05,0.37c-0.43,3.88,0.58,7.22,2.76,9.16c0.48,0.42,1.07,0.63,1.66,0.63
		c0.69,0,1.37-0.28,1.87-0.84c0.92-1.03,0.83-2.61-0.21-3.53c-0.93-0.83-1.36-2.7-1.12-4.88c0.32-2.89,1.87-6.46,4.62-8.46
		c2.4,0.74,7.99,2.21,14.72,2.21c8.6,0,19.04-2.4,26.97-11.79c15.9-18.82,8.36-51.71,8.03-53.1c-0.03-0.11-0.07-0.22-0.11-0.33
		c-0.01-0.02-0.01-0.03-0.02-0.05c-0.06-0.14-0.13-0.27-0.21-0.39c-0.02-0.04-0.05-0.07-0.08-0.11c-0.06-0.08-0.12-0.17-0.2-0.24
		c-0.04-0.04-0.07-0.08-0.11-0.11c-0.07-0.07-0.14-0.13-0.22-0.19c-0.04-0.03-0.08-0.06-0.13-0.09c-0.1-0.07-0.21-0.12-0.32-0.18
		c-0.03-0.01-0.05-0.03-0.07-0.04c-0.14-0.06-0.29-0.1-0.44-0.14c-0.01,0-0.02-0.01-0.03-0.01c-0.03-0.01-0.06,0-0.1-0.01
		c-0.07-0.01-0.14-0.03-0.22-0.03c-0.04,0-0.07,0-0.11,0c-0.06,0-0.12,0-0.17,0c-0.09,0-0.19,0.01-0.28,0.03
		c-0.06,0.01-0.12,0.02-0.18,0.03c-0.1,0.02-0.2,0.05-0.29,0.09c-0.04,0.02-0.09,0.03-0.13,0.04c-0.13,0.05-0.25,0.12-0.37,0.2
		c-0.05,0.03-0.09,0.06-0.13,0.09c-0.08,0.06-0.15,0.11-0.22,0.18c-0.04,0.04-0.08,0.08-0.12,0.12c-0.06,0.07-0.12,0.14-0.18,0.21
		c-0.03,0.05-0.07,0.09-0.1,0.14c-0.06,0.09-0.11,0.18-0.16,0.28c-0.02,0.04-0.04,0.08-0.06,0.12c0,0.01-0.01,0.02-0.01,0.03
		c-3.02,7.47-9.8,9.76-17.66,12.41c-6.8,2.29-14.51,4.89-20.73,11.36c-11.23,11.67-10.25,29.77-9.64,35.29
		c-2.11,1.57-3.85,3.83-5.02,6.42c-5.92-3.94-10.16-2.07-12.22-0.51c-2.38,1.8-3.89,4.48-4.23,7.54c-0.44,3.87,1,8.1,3.95,11.59
		c5.47,6.49,15.13,8.52,23.75,9.92c6.53,1.06,11.17,3.21,12.74,4.52c-2.35,1.47-9.9,4.03-20.39,5.24
		c-11.87,1.37-35.4-0.01-46.81-3.77l-0.51-0.17c-11.56-3.82-27.31-9.01-35.01,3.1c-1.38,0.09-2.66,0.24-3.79,0.5
		c-4,0.92-7.05,3.1-8.59,6.13c-1.29,2.53-1.42,5.53-0.36,8.02c1.43,3.36,5.15,5.77,10.09,6.61c1.42,2.87,4.04,5.67,7.64,8.03
		c9.25,6.07,39.85,19.11,62.96,21.34c0,0,0.01,0,0.01,0c11.13,1.96,27.26,2.28,48.12,0.95c25.77-1.65,44.2-1.47,53.3,0.53
		c4.49,0.99,8.33,2.34,11.71,3.54c4.81,1.7,9.05,3.2,13.66,3.2c0.7,0,1.4-0.03,2.12-0.11c12.01-1.22,13.85-21.67,14.13-27.9
		C327.35,195.05,325.38,185.39,319.87,182.4z M248.72,93.39c0.89,10.8,0.4,27.17-8.55,37.78c-9.54,11.29-23.93,10.59-31.79,9.12
		C226.92,128.56,241.69,111.27,248.72,93.39z M212.49,108.16c5.37-5.58,12.16-7.87,18.72-10.09c4.28-1.44,8.64-2.92,12.38-5.33
		c-7.03,17.02-21.51,33.42-39.55,44.35C203.67,130.57,204.07,116.92,212.49,108.16z M111.65,199.47c-0.01,0.07-0.01,0.15-0.01,0.22
		c-1.92-0.62-3.66-1.64-4.31-3.15c-0.49-1.14-0.4-2.56,0.22-3.79c0.87-1.72,2.69-2.94,5.26-3.53c6.25-1.44,19.79,0.62,28.02,3.36
		c1.51,0.5,3.65,1.16,6.16,1.89c-1.34,0.02-2.64,0.18-3.9,0.52c-0.99,0.27-1.87,0.67-2.64,1.16c-5.03-2.1-16.55-6.21-23.79-3.24
		C113.76,194.11,111.93,196.5,111.65,199.47z M123.2,208.98c-5.17-3.4-6.78-6.99-6.58-9.02c0.11-1.13,0.74-1.91,1.94-2.4
		c3.68-1.51,10.9-0.41,18.84,2.76c-0.02,0.06-0.04,0.11-0.05,0.17c-0.87,3.61,0.99,8.13,4.73,11.5c2.11,1.91,8.38,7,16.02,11.84
		C143.11,219.14,129.02,212.8,123.2,208.98z"/>
</g>
<g id="Layer_20">
</g>
<g id="Layer_21">
</g>
<g id="Layer_22">
</g>
<g id="Layer_23">
</g>
<g id="Layer_24">
</g>
<g id="Layer_25">
</g>
<g id="Layer_26">
</g>
<g id="Layer_27">
</g>
<g id="Layer_28">
</g>
<g id="Layer_29">
</g>
<g id="Layer_30">
</g>
<g id="Layer_31">
</g>
<g id="Layer_2">
</g>
<g id="Layer_3">
</g>
<g id="Layer_4">
</g>
<g id="Layer_5">
</g>
<g id="Layer_6">
</g>
<g id="Layer_7">
</g>
<g id="Layer_8">
</g>
<g id="Layer_9">
</g>
<g id="Layer_10">
</g>
<g id="Layer_11">
</g>
<g id="Layer_12">
</g>
<g id="Layer_13">
</g>
<g id="Layer_14">
</g>
<g id="Layer_15">
</g>
<g id="Layer_16">
</g>
<g id="Layer_32">
</g>
<g id="Layer_33">
</g>
<g id="Layer_34">
</g>
<g id="Layer_35">
</g>
<g id="Layer_49">
</g>
<g id="Layer_50">
</g>
<g id="Layer_51">
</g>
</svg>
