<?xml version="1.0" encoding="utf-8"?>
<!-- Generator: Adobe Illustrator 23.0.1, SVG Export Plug-In . SVG Version: 6.00 Build 0)  -->
<svg version="1.1" xmlns="http://www.w3.org/2000/svg" xmlns:xlink="http://www.w3.org/1999/xlink" x="0px" y="0px"
	 viewBox="0 0 432 432" enable-background="new 0 0 432 432" xml:space="preserve">
<g id="Layer_37">
</g>
<g id="Layer_47">
</g>
<g id="Layer_42">
</g>
<g id="Layer_43">
</g>
<g id="Layer_44">
</g>
<g id="Layer_45">
</g>
<g id="Layer_46">
</g>
<g id="Layer_38">
</g>
<g id="Layer_39">
</g>
<g id="Layer_40">
</g>
<g id="Layer_41">
</g>
<g id="Layer_17">
</g>
<g id="Layer_18">
</g>
<g id="Layer_19">
</g>
<g id="Layer_20">
</g>
<g id="Layer_21">
</g>
<g id="Layer_22">
</g>
<g id="Layer_23">
</g>
<g id="Layer_24">
</g>
<g id="Layer_25">
</g>
<g id="Layer_26">
</g>
<g id="Layer_27">
</g>
<g id="Layer_28">
</g>
<g id="Layer_29">
</g>
<g id="Layer_30">
</g>
<g id="Layer_31">
</g>
<g id="Layer_2">
</g>
<g id="Layer_3">
</g>
<g id="Layer_4">
</g>
<g id="Layer_5">
</g>
<g id="Layer_6">
</g>
<g id="Layer_7">
</g>
<g id="Layer_8">
	<path d="M217.92,199.13c-35.45,0-88.2,5.17-88.2,19.43v70.33c0,14.25,52.74,19.43,88.2,19.43c35.45,0,88.2-5.17,88.2-19.43v-70.33
		C306.12,204.3,253.37,199.13,217.92,199.13z M217.92,204.13c54.62,0,83.2,9.39,83.2,14.43s-28.57,14.43-83.2,14.43
		s-83.2-9.39-83.2-14.43S163.3,204.13,217.92,204.13z M217.92,303.32c-54.62,0-83.2-9.39-83.2-14.43v-63.32
		c13.97,8.98,54.32,12.41,83.2,12.41c28.88,0,69.22-3.43,83.2-12.41v63.32C301.12,293.92,272.54,303.32,217.92,303.32z
		 M129.78,183.87C129.78,183.87,129.78,183.88,129.78,183.87c0,0.01,0.01,0.02,0.01,0.02c0.03,0.15,0.08,0.29,0.14,0.43
		c1.75,5.74,12.33,7.9,26.57,7.9c18.85,0,44.07-3.77,63.59-7.98c34.65-7.48,85.11-23.68,82.11-37.61c0,0,0,0,0,0l-3.79-17.53
		c0,0,0,0,0,0c-0.7-3.24-4.63-6.73-28.95-4.92c-16.41,1.22-37.83,4.57-60.31,9.42c-22.48,4.86-43.37,10.65-58.82,16.31
		c-22.9,8.39-25.03,13.19-24.33,16.43c0,0,0,0.01,0,0.01L129.78,183.87z M219.03,179.36c-53.39,11.53-83.3,8.38-84.37,3.46
		c0,0,0,0,0,0l-2.59-12.01c2.53,0.59,6.09,0.95,11.12,0.95c3.26,0,7.14-0.15,11.75-0.5c16.41-1.22,37.83-4.57,60.31-9.42
		c22.48-4.86,43.37-10.65,58.82-16.31c11.04-4.04,17.24-7.25,20.64-9.86l2.59,12.01c0,0,0,0,0,0
		C298.37,152.61,272.42,167.83,219.03,179.36z M154.18,153.84c15.01-5.33,34.9-10.78,56.02-15.35c21.12-4.56,41.49-7.81,57.36-9.14
		c19.35-1.63,24.55,0.2,25.75,0.86c-0.82,1.09-4.8,4.9-23.1,11.41c-15,5.33-34.9,10.79-56.02,15.35
		c-21.12,4.56-41.49,7.81-57.36,9.14c-19.35,1.63-24.55-0.2-25.75-0.86C131.9,164.15,135.89,160.34,154.18,153.84z M205.86,269.71
		c0.8,1.49,1.2,3.17,1.2,5.04c0,2.24-0.51,4.18-1.52,5.82c-1.01,1.64-2.42,2.91-4.21,3.79s-3.86,1.33-6.19,1.33
		c-1.2,0-2.36-0.16-3.5-0.48c-1.14-0.32-2.13-0.79-2.99-1.4c-0.52-0.31-0.87-0.64-1.06-0.99s-0.28-0.7-0.28-1.04
		c0-0.58,0.21-1.13,0.64-1.66c0.43-0.52,0.97-0.78,1.61-0.78c0.25,0,0.5,0.04,0.76,0.11c0.26,0.08,0.57,0.24,0.94,0.48
		c0.55,0.49,1.22,0.9,2,1.22c0.78,0.32,1.68,0.48,2.69,0.48c1.13,0,2.19-0.27,3.15-0.8c0.97-0.54,1.76-1.3,2.37-2.28
		c0.61-0.98,0.92-2.15,0.92-3.5c0-1.38-0.28-2.51-0.85-3.38c-0.57-0.87-1.32-1.53-2.25-1.98c-0.94-0.44-1.91-0.67-2.92-0.67
		c-0.55,0-1.03,0.05-1.43,0.16c-0.4,0.11-0.78,0.21-1.15,0.32c-0.37,0.11-0.77,0.16-1.2,0.16c-0.61,0-1.08-0.21-1.4-0.62
		c-0.32-0.41-0.48-0.91-0.48-1.5c0-0.37,0.07-0.69,0.21-0.97c0.14-0.28,0.35-0.57,0.62-0.87l7.68-8.46h-10.34
		c-0.61,0-1.13-0.21-1.54-0.62s-0.62-0.93-0.62-1.54c0-0.58,0.21-1.07,0.62-1.47s0.93-0.6,1.54-0.6h14.54
		c0.83,0,1.43,0.23,1.82,0.69c0.38,0.46,0.58,1,0.58,1.61c0,0.34-0.08,0.66-0.25,0.97s-0.39,0.6-0.67,0.87l-6.9,7.64
		c1.72,0.02,3.26,0.46,4.6,1.33C203.98,267.03,205.07,268.22,205.86,269.71z M242.41,253.66c0.48,0.45,0.71,1,0.71,1.68v27.55
		c0,0.67-0.21,1.23-0.64,1.68c-0.43,0.45-1,0.67-1.7,0.67c-0.74,0-1.33-0.22-1.77-0.67c-0.44-0.44-0.67-1-0.67-1.68v-20.76
		l-8.65,13.17c-0.21,0.28-0.49,0.51-0.83,0.71c-0.34,0.2-0.69,0.28-1.06,0.25c-0.34,0.03-0.68-0.05-1.04-0.25
		c-0.35-0.2-0.64-0.44-0.85-0.71l-8.65-13.46v21.05c0,0.67-0.21,1.23-0.62,1.68c-0.41,0.45-0.96,0.67-1.63,0.67
		c-0.64,0-1.17-0.22-1.59-0.67c-0.41-0.44-0.62-1-0.62-1.68v-27.55c0-0.64,0.24-1.2,0.71-1.66c0.48-0.46,1.04-0.69,1.68-0.69
		c0.37,0,0.75,0.09,1.15,0.28c0.4,0.18,0.71,0.44,0.92,0.78l10.68,16.27l10.94-16.27c0.49-0.71,1.12-1.06,1.89-1.06
		C241.39,252.99,241.93,253.21,242.41,253.66z"/>
</g>
<g id="Layer_9">
</g>
<g id="Layer_10">
</g>
<g id="Layer_11">
</g>
<g id="Layer_12">
</g>
<g id="Layer_13">
</g>
<g id="Layer_14">
</g>
<g id="Layer_15">
</g>
<g id="Layer_16">
</g>
<g id="Layer_32">
</g>
<g id="Layer_33">
</g>
<g id="Layer_34">
</g>
<g id="Layer_35">
</g>
<g id="Layer_49">
</g>
<g id="Layer_50">
</g>
<g id="Layer_51">
</g>
</svg>
