<?xml version="1.0" encoding="utf-8"?>
<!-- Generator: Adobe Illustrator 23.0.1, SVG Export Plug-In . SVG Version: 6.00 Build 0)  -->
<svg version="1.1" xmlns="http://www.w3.org/2000/svg" xmlns:xlink="http://www.w3.org/1999/xlink" x="0px" y="0px"
	 viewBox="0 0 432 432" enable-background="new 0 0 432 432" xml:space="preserve">
<g id="Layer_37">
</g>
<g id="Layer_47">
</g>
<g id="Layer_42">
</g>
<g id="Layer_43">
</g>
<g id="Layer_44">
</g>
<g id="Layer_45">
</g>
<g id="Layer_46">
</g>
<g id="Layer_38">
</g>
<g id="Layer_39">
</g>
<g id="Layer_40">
</g>
<g id="Layer_41">
</g>
<g id="Layer_17">
</g>
<g id="Layer_18">
</g>
<g id="Layer_19">
</g>
<g id="Layer_20">
</g>
<g id="Layer_21">
</g>
<g id="Layer_22">
</g>
<g id="Layer_23">
</g>
<g id="Layer_24">
</g>
<g id="Layer_25">
</g>
<g id="Layer_26">
</g>
<g id="Layer_27">
</g>
<g id="Layer_28">
</g>
<g id="Layer_29">
</g>
<g id="Layer_30">
</g>
<g id="Layer_31">
</g>
<g id="Layer_2">
</g>
<g id="Layer_3">
</g>
<g id="Layer_4">
</g>
<g id="Layer_5">
</g>
<g id="Layer_6">
</g>
<g id="Layer_7">
</g>
<g id="Layer_8">
</g>
<g id="Layer_9">
</g>
<g id="Layer_10">
</g>
<g id="Layer_11">
</g>
<g id="Layer_12">
</g>
<g id="Layer_13">
</g>
<g id="Layer_14">
</g>
<g id="Layer_15">
</g>
<g id="Layer_16">
</g>
<g id="Layer_32">
</g>
<g id="Layer_33">
</g>
<g id="Layer_34">
</g>
<g id="Layer_35">
	<path d="M217.92,199.13c-35.45,0-88.2,5.17-88.2,19.43v70.33c0,14.25,52.74,19.43,88.2,19.43s88.2-5.17,88.2-19.43v-70.33
		C306.12,204.3,253.37,199.13,217.92,199.13z M217.92,204.13c54.62,0,83.2,9.39,83.2,14.43s-28.57,14.43-83.2,14.43
		s-83.2-9.39-83.2-14.43S163.3,204.13,217.92,204.13z M217.92,303.32c-54.62,0-83.2-9.39-83.2-14.43v-63.32
		c13.97,8.98,54.32,12.41,83.2,12.41s69.22-3.43,83.2-12.41v63.32C301.12,293.92,272.54,303.32,217.92,303.32z M129.91,184.3
		c1.56,5.35,10.24,7.98,26.5,7.98c0.95,0,1.92-0.01,2.91-0.03c16.65-0.29,38.23-3.14,60.76-8c34.65-7.48,85.11-23.68,82.11-37.61
		c0,0,0,0,0,0l-3.79-17.53c0,0,0,0,0,0c-0.7-3.24-4.63-6.73-28.95-4.92c-16.41,1.22-37.83,4.57-60.31,9.42
		c-22.48,4.86-43.37,10.65-58.82,16.31c-22.9,8.39-25.03,13.19-24.33,16.43l3.79,17.53C129.81,184.02,129.86,184.16,129.91,184.3z
		 M219.03,179.36c-22.22,4.8-43.46,7.6-59.79,7.89c-18.61,0.32-24.21-2.75-24.57-4.43c0,0,0,0,0,0l-2.59-12.01
		c2.53,0.59,6.09,0.95,11.12,0.95c3.26,0,7.14-0.15,11.75-0.5c16.41-1.22,37.83-4.57,60.31-9.42c22.48-4.86,43.38-10.65,58.82-16.31
		c11.04-4.04,17.24-7.25,20.64-9.86l2.59,12.01c0,0,0,0,0,0C298.37,152.61,272.42,167.83,219.03,179.36z M154.18,153.84
		c15.01-5.33,34.9-10.78,56.02-15.35c21.12-4.56,41.49-7.81,57.36-9.14c19.35-1.63,24.55,0.2,25.75,0.86
		c-0.82,1.09-4.8,4.9-23.1,11.41c-15.01,5.33-34.9,10.78-56.02,15.35c-21.12,4.56-41.49,7.81-57.36,9.14
		c-19.35,1.63-24.55-0.2-25.75-0.86C131.9,164.15,135.89,160.34,154.18,153.84z M193.35,269.71c0.8,1.49,1.2,3.17,1.2,5.04
		c0,2.24-0.51,4.18-1.52,5.82c-1.01,1.64-2.42,2.91-4.21,3.79s-3.86,1.33-6.19,1.33c-1.2,0-2.36-0.16-3.5-0.48
		c-1.13-0.32-2.13-0.79-2.99-1.4c-0.52-0.31-0.87-0.64-1.06-0.99c-0.18-0.35-0.28-0.7-0.28-1.04c0-0.58,0.21-1.13,0.64-1.66
		c0.43-0.52,0.97-0.78,1.61-0.78c0.25,0,0.5,0.04,0.76,0.11c0.26,0.08,0.57,0.24,0.94,0.48c0.55,0.49,1.22,0.9,2,1.22
		c0.78,0.32,1.68,0.48,2.69,0.48c1.13,0,2.18-0.27,3.15-0.8c0.97-0.54,1.76-1.3,2.37-2.28s0.92-2.15,0.92-3.5
		c0-1.38-0.28-2.51-0.85-3.38c-0.57-0.87-1.32-1.53-2.25-1.98c-0.94-0.44-1.91-0.67-2.92-0.67c-0.55,0-1.03,0.05-1.43,0.16
		c-0.4,0.11-0.78,0.21-1.15,0.32s-0.77,0.16-1.2,0.16c-0.61,0-1.08-0.21-1.4-0.62c-0.32-0.41-0.48-0.91-0.48-1.5
		c0-0.37,0.07-0.69,0.21-0.97s0.34-0.57,0.62-0.87l7.68-8.46h-10.34c-0.61,0-1.13-0.21-1.54-0.62s-0.62-0.93-0.62-1.54
		c0-0.58,0.21-1.07,0.62-1.47s0.93-0.6,1.54-0.6h14.54c0.83,0,1.43,0.23,1.82,0.69s0.58,1,0.58,1.61c0,0.34-0.08,0.66-0.25,0.97
		c-0.17,0.31-0.39,0.6-0.67,0.87l-6.9,7.64c1.72,0.02,3.26,0.46,4.6,1.32C191.47,267.03,192.55,268.22,193.35,269.71z
		 M216.86,267.66c-0.92-0.98-1.97-1.75-3.15-2.3s-2.4-0.83-3.66-0.83c-1.26,0-2.38,0.22-3.36,0.67c-0.98,0.45-1.83,1-2.53,1.66
		c-0.04,0.04-0.07,0.08-0.11,0.12c0.25-0.73,0.56-1.44,0.94-2.14c0.67-1.24,1.48-2.37,2.42-3.38c0.94-1.01,1.96-1.89,3.06-2.62
		c1.1-0.74,2.22-1.29,3.36-1.66c0.61-0.18,1.1-0.48,1.45-0.9c0.35-0.41,0.53-0.9,0.53-1.45c0-0.83-0.24-1.4-0.71-1.72
		c-0.48-0.32-1-0.48-1.59-0.48c-0.28,0-0.58,0.05-0.92,0.14c-2.18,0.64-4.05,1.59-5.61,2.83c-1.56,1.24-2.88,2.63-3.96,4.16
		c-1.07,1.53-1.93,3.14-2.58,4.81c-0.64,1.67-1.1,3.28-1.38,4.83c-0.28,1.55-0.41,2.92-0.41,4.12c0,1.53,0.24,3.03,0.71,4.49
		c0.48,1.46,1.17,2.77,2.09,3.93c0.92,1.17,2.05,2.08,3.38,2.76c1.33,0.67,2.84,1.01,4.53,1.01c1.99,0,3.78-0.47,5.36-1.43
		c1.58-0.95,2.84-2.23,3.77-3.84c0.94-1.61,1.4-3.37,1.4-5.27c0-1.44-0.28-2.81-0.83-4.09S217.78,268.64,216.86,267.66z
		 M214.49,278.38c-0.51,0.95-1.2,1.69-2.09,2.23c-0.89,0.54-1.9,0.8-3.04,0.8c-1.2,0-2.25-0.28-3.15-0.83
		c-0.91-0.55-1.61-1.31-2.12-2.28s-0.76-2-0.76-3.11c0-1.2,0.26-2.28,0.78-3.24c0.52-0.97,1.23-1.74,2.14-2.32
		c0.9-0.58,1.96-0.87,3.15-0.87c1.2,0,2.23,0.29,3.11,0.87c0.87,0.58,1.55,1.35,2.02,2.3c0.48,0.95,0.71,2.02,0.71,3.22
		C215.25,276.36,214.99,277.43,214.49,278.38z M254.92,253.66c0.48,0.45,0.71,1,0.71,1.68v27.55c0,0.67-0.21,1.23-0.64,1.68
		c-0.43,0.45-1,0.67-1.7,0.67c-0.74,0-1.33-0.22-1.77-0.67c-0.44-0.44-0.67-1-0.67-1.68v-20.76l-8.65,13.17
		c-0.21,0.28-0.49,0.51-0.83,0.71c-0.34,0.2-0.69,0.28-1.06,0.25c-0.34,0.03-0.68-0.05-1.04-0.25c-0.35-0.2-0.64-0.44-0.85-0.71
		l-8.65-13.46v21.05c0,0.67-0.21,1.23-0.62,1.68c-0.41,0.45-0.96,0.67-1.63,0.67c-0.64,0-1.17-0.22-1.59-0.67
		c-0.41-0.44-0.62-1-0.62-1.68v-27.55c0-0.64,0.24-1.2,0.71-1.66c0.47-0.46,1.04-0.69,1.68-0.69c0.37,0,0.75,0.09,1.15,0.28
		c0.4,0.18,0.71,0.44,0.92,0.78l10.68,16.27l10.94-16.27c0.49-0.71,1.12-1.06,1.89-1.06C253.9,252.99,254.45,253.21,254.92,253.66z"
		/>
</g>
<g id="Layer_49">
</g>
<g id="Layer_50">
</g>
<g id="Layer_51">
</g>
</svg>
