<?xml version="1.0" encoding="utf-8"?>
<!-- Generator: Adobe Illustrator 23.0.1, SVG Export Plug-In . SVG Version: 6.00 Build 0)  -->
<svg version="1.1" xmlns="http://www.w3.org/2000/svg" xmlns:xlink="http://www.w3.org/1999/xlink" x="0px" y="0px"
	 viewBox="0 0 432 432" enable-background="new 0 0 432 432" xml:space="preserve">
<g id="Layer_37">
</g>
<g id="Layer_47">
</g>
<g id="Layer_42">
</g>
<g id="Layer_43">
</g>
<g id="Layer_44">
</g>
<g id="Layer_45">
</g>
<g id="Layer_46">
</g>
<g id="Layer_38">
</g>
<g id="Layer_39">
</g>
<g id="Layer_40">
</g>
<g id="Layer_41">
</g>
<g id="Layer_17">
</g>
<g id="Layer_18">
</g>
<g id="Layer_19">
</g>
<g id="Layer_20">
</g>
<g id="Layer_21">
</g>
<g id="Layer_22">
</g>
<g id="Layer_23">
</g>
<g id="Layer_24">
</g>
<g id="Layer_25">
</g>
<g id="Layer_26">
</g>
<g id="Layer_27">
	<path d="M216,312.5c81.33,0,147.5-66.17,147.5-147.5S297.33,17.5,216,17.5S68.5,83.67,68.5,165S134.67,312.5,216,312.5z M216,22.5
		c78.57,0,142.5,63.92,142.5,142.5S294.57,307.5,216,307.5S73.5,243.58,73.5,165S137.43,22.5,216,22.5z M123.81,211.93
		c2.04,4.01,5.89,6.85,11.2,8.58c11.06,3.6,28.46,2.37,48.98-3.28c6.32,30.83,18.15,51.17,32,51.17c12.37,0,23.13-16.24,29.79-41.69
		c7.27,3.15,14.12,5.49,20.34,6.95c0.02,0.21,0.02,0.42,0.04,0.63c0.46,3.82,2.37,7.23,5.39,9.61c2.56,2.02,5.67,3.09,8.88,3.09
		c0.57,0,1.15-0.03,1.73-0.1c3.82-0.46,7.24-2.37,9.62-5.39c2.36-3,3.42-6.73,2.99-10.52c0.71-0.6,1.36-1.27,1.94-2
		c6.4-8.13,3.54-22.44-8.05-40.3c-3.7-5.71-8.17-11.59-13.26-17.52c6.37-4.96,12.1-10.01,16.99-15.03
		c14.85-15.26,20.44-28.74,15.76-37.95c-6.28-12.34-29.79-13.66-60.15-5.31c-1.31-6.42-2.86-12.38-4.62-17.8
		c4.16-2.53,6.96-7.09,6.96-12.31c0-7.94-6.46-14.4-14.4-14.4c-1.97,0-3.85,0.4-5.56,1.12c-4.4-5.09-9.25-7.9-14.39-7.9
		c-12.45,0-23.27,16.44-29.92,42.16c-24.43-10.77-44.14-12.49-51.86-2.68c-6.4,8.13-3.54,22.44,8.05,40.3
		c3.81,5.87,8.43,11.93,13.71,18.04c-1.22,0.96-2.41,1.92-3.57,2.88c-1.31-1.05-2.82-1.9-4.51-2.45c-7.55-2.46-15.7,1.68-18.16,9.23
		c-1.55,4.75-0.48,9.74,2.41,13.39C122.98,194.2,120.02,204.47,123.81,211.93z M216,263.41c-10.36,0-21.22-17.9-27.22-47.55
		c7.27-2.19,14.89-4.92,22.72-8.15c10.26,6.84,20.29,12.53,29.7,16.94C234.98,249.01,225.29,263.41,216,263.41z M184.1,165
		c0-6.63,0.21-13.01,0.6-19.11c5.39-3.2,11.01-6.3,16.82-9.26c6.08-3.09,12.02-5.86,17.8-8.33c5.2,3.56,10.5,7.44,15.87,11.67
		c4.27,3.36,8.38,6.79,12.33,10.27c0.23,4.77,0.36,9.69,0.36,14.77c0,6.67-0.21,13.09-0.61,19.23c-5.39,3.21-11.02,6.31-16.84,9.26
		c-6.28,3.2-12.42,6.04-18.38,8.58c-5.34-3.64-10.79-7.62-16.32-11.98c-3.87-3.05-7.62-6.15-11.23-9.3
		C184.24,175.71,184.1,170.44,184.1,165z M179.31,176.14c-5.79-5.3-11.16-10.67-16.03-16.02c5.06-3.76,10.49-7.47,16.24-11.06
		c-0.28,5.19-0.42,10.51-0.42,15.95C179.1,168.77,179.17,172.49,179.31,176.14z M185.16,139.83c0.92-10.66,2.42-20.39,4.33-29.05
		c7.81,3.78,16.18,8.51,24.91,14.22c-4.99,2.2-10.05,4.58-15.14,7.18C194.43,134.63,189.72,137.19,185.16,139.83z M224.81,126.02
		c6.73-2.71,13.2-4.99,19.34-6.86c1.3,7.41,2.31,15.46,2.95,24.09c-2.86-2.43-5.8-4.85-8.81-7.22
		C233.79,132.49,229.29,129.16,224.81,126.02z M252.73,154.92c5.55,5.14,10.71,10.34,15.39,15.52c-4.89,3.61-10.12,7.17-15.65,10.62
		c0.28-5.22,0.42-10.59,0.42-16.06C252.9,161.59,252.84,158.23,252.73,154.92z M246.83,190.29c-0.94,10.81-2.47,20.68-4.43,29.42
		c-7.94-3.78-16.46-8.55-25.38-14.34c5.17-2.26,10.41-4.73,15.7-7.42C237.55,195.49,242.26,192.93,246.83,190.29z M192.65,194.02
		c4.65,3.66,9.3,7.1,13.92,10.32c-6.51,2.6-12.76,4.79-18.71,6.6c-1.26-7.14-2.25-14.9-2.89-23.18
		C187.47,189.87,190.04,191.96,192.65,194.02z M287.87,238.42c-1.55,1.97-3.78,3.22-6.28,3.52c-5.15,0.62-9.84-3.08-10.45-8.23
		c-0.3-2.49,0.4-4.96,1.95-6.93c1.55-1.97,3.78-3.22,6.28-3.52c0.38-0.04,0.76-0.07,1.13-0.07c2.1,0,4.12,0.7,5.8,2.02
		c1.97,1.55,3.22,3.78,3.52,6.28C290.11,233.99,289.42,236.45,287.87,238.42z M284.49,191.41c10,15.41,13.08,27.8,8.55,34.13
		c-0.91-1.62-2.14-3.07-3.65-4.26c-3.02-2.38-6.79-3.44-10.61-2.99c-3.82,0.46-7.24,2.37-9.62,5.39c-1.19,1.51-2.04,3.2-2.55,4.99
		c-5.87-1.43-12.46-3.72-19.61-6.86c2.39-10.36,4.13-22.04,5.08-34.65c6.89-4.18,13.38-8.53,19.36-12.97
		C276.46,180.04,280.86,185.82,284.49,191.41z M295.34,114.27c4.1,1.34,6.96,3.42,8.37,6.19c3.59,7.06-1.84,18.79-14.88,32.2
		c-4.79,4.93-10.43,9.88-16.71,14.76c-5.89-6.55-12.51-13.11-19.71-19.54c-0.61-10.72-1.79-20.84-3.46-30.11
		C269.37,112.08,285.75,111.14,295.34,114.27z M245.35,82.77c0,5.19-4.22,9.4-9.4,9.4s-9.4-4.22-9.4-9.4s4.22-9.4,9.4-9.4
		S245.35,77.59,245.35,82.77z M216,66.59c3.41,0,6.87,1.94,10.2,5.6c-2.86,2.63-4.66,6.4-4.66,10.58c0,7.94,6.46,14.4,14.4,14.4
		c0.97,0,1.92-0.1,2.83-0.28c1.67,5.21,3.17,11.02,4.45,17.37c-7.46,2.25-15.29,5.05-23.34,8.39c-10.09-6.75-19.95-12.39-29.23-16.8
		C196.88,81.19,206.64,66.59,216,66.59z M146.46,138.65c-10.18-15.69-13.21-28.26-8.31-34.49c1.92-2.44,5.13-3.92,9.42-4.43
		c8.66-1.03,21.72,1.92,37.33,8.91c-2.34,10.27-4.05,21.84-4.98,34.3c-7.12,4.33-13.82,8.83-19.96,13.43
		C154.75,150.36,150.2,144.41,146.46,138.65z M134.48,170.62c1.29-3.97,4.99-6.49,8.95-6.49c0.96,0,1.94,0.15,2.91,0.46
		c4.93,1.61,7.63,6.92,6.03,11.86c-1.61,4.93-6.92,7.63-11.85,6.03C135.58,180.87,132.88,175.55,134.48,170.62z M135.89,185.79
		c0.95,0.58,1.97,1.08,3.08,1.44c1.48,0.48,2.98,0.71,4.45,0.71c6.07,0,11.73-3.87,13.71-9.94c1.35-4.16,0.7-8.49-1.42-11.96
		c1.17-0.96,2.37-1.92,3.59-2.87c6.08,6.71,12.92,13.44,20.36,20.01c0.63,10.37,1.79,20.17,3.41,29.18
		c-29.17,8.11-50.09,6.57-54.79-2.68C125.45,204.12,128.23,195.66,135.89,185.79z"/>
	<path id="paraben_free" d="M72.18,336.14c-1.35-0.83-2.87-1.24-4.55-1.24H56.86c-0.52,0-0.96,0.18-1.31,0.53
		c-0.35,0.35-0.53,0.79-0.53,1.31v28.47c0,0.52,0.16,0.97,0.48,1.33c0.32,0.37,0.76,0.55,1.31,0.55c0.52,0,0.95-0.18,1.29-0.55
		c0.34-0.37,0.51-0.81,0.51-1.33v-11.04h9.02c1.69,0,3.2-0.43,4.55-1.29c1.35-0.86,2.42-2.02,3.2-3.5c0.78-1.47,1.17-3.11,1.17-4.92
		c0-1.84-0.39-3.48-1.17-4.92C74.6,338.1,73.53,336.96,72.18,336.14z M72.14,347.54c-0.46,0.95-1.07,1.7-1.84,2.25
		s-1.66,0.83-2.67,0.83h-9.02v-12.19h9.02c1.01,0,1.9,0.27,2.67,0.8c0.77,0.54,1.38,1.25,1.84,2.14s0.69,1.92,0.69,3.08
		C72.83,345.57,72.6,346.59,72.14,347.54z M93.3,335.95c-0.12-0.37-0.34-0.66-0.67-0.87c-0.32-0.21-0.68-0.32-1.08-0.32
		c-0.4-0.03-0.76,0.05-1.08,0.25c-0.32,0.2-0.56,0.51-0.71,0.94l-11.91,28.98c-0.09,0.25-0.12,0.48-0.09,0.69
		c0,0.43,0.14,0.8,0.41,1.1c0.28,0.31,0.71,0.46,1.29,0.46c0.34,0,0.66-0.11,0.97-0.32c0.31-0.21,0.52-0.51,0.64-0.87l3.08-7.5
		h14.57l3.1,7.45c0.15,0.4,0.38,0.71,0.69,0.92c0.31,0.21,0.64,0.32,1.01,0.32c0.46,0,0.87-0.16,1.24-0.48s0.55-0.76,0.55-1.31
		c0-0.25-0.05-0.49-0.14-0.74L93.3,335.95z M85.61,354.9l5.76-14.03l5.84,14.03H85.61z M134.42,363.92c-0.34-0.21-0.6-0.51-0.78-0.9
		c-0.18-0.38-0.32-0.91-0.41-1.59c-0.09-0.67-0.17-1.58-0.23-2.71c-0.03-1.29-0.31-2.42-0.83-3.38c-0.52-0.97-1.2-1.76-2.02-2.39
		c-0.41-0.31-0.85-0.57-1.31-0.79c0.91-0.41,1.73-0.96,2.46-1.65c0.86-0.81,1.53-1.78,2.02-2.9c0.49-1.12,0.74-2.32,0.74-3.61
		c0-1.78-0.41-3.35-1.22-4.71c-0.81-1.37-1.91-2.44-3.29-3.22c-1.38-0.78-2.93-1.17-4.65-1.17h-12.7c-0.52,0-0.96,0.18-1.31,0.53
		c-0.35,0.35-0.53,0.79-0.53,1.31v28.47c0,0.52,0.21,0.97,0.62,1.33s0.91,0.55,1.5,0.55c0.52,0,0.94-0.18,1.24-0.55
		s0.46-0.81,0.46-1.33v-11.18h9.71c0.67,0,1.33,0.08,1.98,0.23c0.64,0.15,1.23,0.43,1.75,0.83s0.94,0.92,1.24,1.56
		c0.31,0.64,0.46,1.46,0.46,2.44c0,1.75,0.15,3.13,0.46,4.14c0.31,1.01,0.69,1.79,1.15,2.32c0.46,0.54,0.94,0.94,1.43,1.22
		c0.25,0.15,0.54,0.25,0.87,0.28c0.34,0.03,0.67-0.01,1.01-0.12c0.34-0.11,0.6-0.3,0.78-0.58c0.31-0.43,0.39-0.87,0.25-1.33
		C135.13,364.56,134.85,364.2,134.42,363.92z M127.41,349.8c-0.78,0.55-1.62,0.86-2.51,0.92h-10.72v-12.28h10.49
		c1.56,0,2.86,0.54,3.89,1.61c1.03,1.07,1.54,2.42,1.54,4.05c0,1.26-0.25,2.38-0.76,3.38C128.83,348.47,128.19,349.25,127.41,349.8z
		 M154.02,335.95c-0.12-0.37-0.34-0.66-0.67-0.87c-0.32-0.21-0.68-0.32-1.08-0.32c-0.4-0.03-0.76,0.05-1.08,0.25
		c-0.32,0.2-0.56,0.51-0.71,0.94l-11.91,28.98c-0.09,0.25-0.12,0.48-0.09,0.69c0,0.43,0.14,0.8,0.41,1.1
		c0.28,0.31,0.71,0.46,1.29,0.46c0.34,0,0.66-0.11,0.97-0.32c0.31-0.21,0.52-0.51,0.64-0.87l3.08-7.5h14.57l3.1,7.45
		c0.15,0.4,0.38,0.71,0.69,0.92c0.31,0.21,0.64,0.32,1.01,0.32c0.46,0,0.87-0.16,1.24-0.48s0.55-0.76,0.55-1.31
		c0-0.25-0.05-0.49-0.14-0.74L154.02,335.95z M146.33,354.9l5.76-14.03l5.84,14.03H146.33z M191.76,351.09
		c-0.87-0.61-1.81-1.06-2.82-1.37c0.27-0.12,0.54-0.24,0.79-0.38c1.18-0.67,2.08-1.58,2.69-2.71c0.61-1.13,0.92-2.38,0.92-3.72
		c0-2.55-0.73-4.52-2.19-5.91c-1.46-1.39-3.53-2.09-6.23-2.09h-12.01c-0.52,0-0.96,0.18-1.31,0.53c-0.35,0.35-0.53,0.79-0.53,1.31
		v28.47c0,0.52,0.18,0.97,0.53,1.33c0.35,0.37,0.79,0.55,1.31,0.55h12.1c1.2,0,2.38-0.15,3.56-0.46c1.18-0.31,2.25-0.82,3.22-1.54
		c0.97-0.72,1.74-1.67,2.32-2.85c0.58-1.18,0.87-2.64,0.87-4.39c0-1.63-0.3-2.99-0.9-4.09
		C193.51,352.65,192.72,351.76,191.76,351.09z M175.04,338.53h9.34c1.56,0,2.79,0.42,3.68,1.27c0.89,0.84,1.33,2.03,1.33,3.56
		c0,1.72-0.48,3.01-1.45,3.89c-0.97,0.88-2.12,1.31-3.47,1.31h-9.43V338.53z M189.32,362.13c-1.15,0.92-2.63,1.38-4.44,1.38h-9.84
		v-11.27h9.71c1.04,0,2.05,0.15,3.01,0.46c0.97,0.31,1.75,0.87,2.37,1.68c0.61,0.81,0.92,1.97,0.92,3.47
		C191.05,359.78,190.47,361.21,189.32,362.13z M204.94,338.44v10.35h12.33c0.52,0,0.97,0.17,1.33,0.51
		c0.37,0.34,0.55,0.77,0.55,1.29s-0.18,0.94-0.55,1.26c-0.37,0.32-0.81,0.48-1.33,0.48h-12.33v11.18h14.4
		c0.52,0,0.97,0.18,1.33,0.55c0.37,0.37,0.55,0.78,0.55,1.24c0,0.52-0.18,0.95-0.55,1.29c-0.37,0.34-0.81,0.51-1.33,0.51h-16.38
		c-0.52,0-0.96-0.18-1.31-0.55c-0.35-0.37-0.53-0.81-0.53-1.33v-28.47c0-0.52,0.18-0.96,0.53-1.31c0.35-0.35,0.79-0.53,1.31-0.53
		h16.38c0.52,0,0.97,0.17,1.33,0.51c0.37,0.34,0.55,0.77,0.55,1.29s-0.18,0.94-0.55,1.27c-0.37,0.32-0.81,0.48-1.33,0.48H204.94z
		 M252.41,335.38c0.31,0.32,0.46,0.73,0.46,1.22v28.57c0,0.58-0.18,1.05-0.55,1.4c-0.37,0.35-0.81,0.53-1.33,0.53
		c-0.28,0-0.55-0.05-0.83-0.16c-0.28-0.11-0.49-0.25-0.64-0.44l-18.77-24.82v23.72c0,0.49-0.16,0.9-0.48,1.22
		c-0.32,0.32-0.74,0.48-1.27,0.48c-0.49,0-0.89-0.16-1.2-0.48c-0.31-0.32-0.46-0.73-0.46-1.22v-28.66c0-0.55,0.18-1,0.53-1.33
		c0.35-0.34,0.77-0.51,1.26-0.51c0.28,0,0.56,0.05,0.85,0.16c0.29,0.11,0.51,0.27,0.67,0.48l18.81,24.88V336.6
		c0-0.49,0.16-0.9,0.48-1.22c0.32-0.32,0.73-0.48,1.22-0.48C251.69,334.89,252.1,335.05,252.41,335.38z M292.89,335.4
		c0.37,0.34,0.55,0.77,0.55,1.29c0,0.49-0.18,0.91-0.55,1.24c-0.37,0.34-0.81,0.51-1.33,0.51h-14.21v10.4h12.14
		c0.52,0,0.97,0.18,1.33,0.53c0.37,0.35,0.55,0.79,0.55,1.31c0,0.46-0.18,0.87-0.55,1.22c-0.37,0.35-0.81,0.53-1.33,0.53h-12.14
		v12.79c0,0.52-0.18,0.97-0.55,1.33s-0.81,0.55-1.33,0.55c-0.55,0-1-0.18-1.36-0.55c-0.35-0.37-0.53-0.81-0.53-1.33v-28.47
		c0-0.52,0.18-0.96,0.53-1.31c0.35-0.35,0.79-0.53,1.31-0.53h16.15C292.08,334.89,292.52,335.06,292.89,335.4z M323.62,363.92
		c-0.34-0.21-0.6-0.51-0.78-0.9c-0.18-0.38-0.32-0.91-0.41-1.59c-0.09-0.67-0.17-1.58-0.23-2.71c-0.03-1.29-0.31-2.42-0.83-3.38
		c-0.52-0.97-1.2-1.76-2.02-2.39c-0.41-0.31-0.85-0.57-1.31-0.79c0.91-0.41,1.73-0.96,2.46-1.65c0.86-0.81,1.53-1.78,2.02-2.9
		c0.49-1.12,0.74-2.32,0.74-3.61c0-1.78-0.41-3.35-1.22-4.71c-0.81-1.37-1.91-2.44-3.29-3.22c-1.38-0.78-2.93-1.17-4.65-1.17h-12.7
		c-0.52,0-0.96,0.18-1.31,0.53c-0.35,0.35-0.53,0.79-0.53,1.31v28.47c0,0.52,0.21,0.97,0.62,1.33s0.91,0.55,1.5,0.55
		c0.52,0,0.94-0.18,1.24-0.55s0.46-0.81,0.46-1.33v-11.18h9.71c0.67,0,1.33,0.08,1.98,0.23c0.64,0.15,1.23,0.43,1.75,0.83
		s0.94,0.92,1.24,1.56c0.31,0.64,0.46,1.46,0.46,2.44c0,1.75,0.15,3.13,0.46,4.14c0.31,1.01,0.69,1.79,1.15,2.32
		c0.46,0.54,0.94,0.94,1.43,1.22c0.25,0.15,0.54,0.25,0.87,0.28c0.34,0.03,0.67-0.01,1.01-0.12c0.34-0.11,0.6-0.3,0.78-0.58
		c0.31-0.43,0.39-0.87,0.25-1.33C324.33,364.56,324.05,364.2,323.62,363.92z M316.6,349.8c-0.78,0.55-1.62,0.86-2.51,0.92h-10.72
		v-12.28h10.49c1.56,0,2.86,0.54,3.89,1.61c1.03,1.07,1.54,2.42,1.54,4.05c0,1.26-0.25,2.38-0.76,3.38
		C318.03,348.47,317.38,349.25,316.6,349.8z M334.47,338.44v10.35h12.33c0.52,0,0.97,0.17,1.33,0.51c0.37,0.34,0.55,0.77,0.55,1.29
		s-0.18,0.94-0.55,1.26c-0.37,0.32-0.81,0.48-1.33,0.48h-12.33v11.18h14.4c0.52,0,0.97,0.18,1.33,0.55
		c0.37,0.37,0.55,0.78,0.55,1.24c0,0.52-0.18,0.95-0.55,1.29c-0.37,0.34-0.81,0.51-1.33,0.51h-16.38c-0.52,0-0.96-0.18-1.31-0.55
		c-0.35-0.37-0.53-0.81-0.53-1.33v-28.47c0-0.52,0.18-0.96,0.53-1.31c0.35-0.35,0.79-0.53,1.31-0.53h16.38
		c0.52,0,0.97,0.17,1.33,0.51c0.37,0.34,0.55,0.77,0.55,1.29s-0.18,0.94-0.55,1.27c-0.37,0.32-0.81,0.48-1.33,0.48H334.47z
		 M376.42,364.06c0.37,0.37,0.55,0.78,0.55,1.24c0,0.52-0.18,0.95-0.55,1.29c-0.37,0.34-0.81,0.51-1.33,0.51h-16.38
		c-0.52,0-0.96-0.18-1.31-0.55c-0.35-0.37-0.53-0.81-0.53-1.33v-28.47c0-0.52,0.18-0.96,0.53-1.31c0.35-0.35,0.79-0.53,1.31-0.53
		h16.38c0.52,0,0.97,0.17,1.33,0.51c0.37,0.34,0.55,0.77,0.55,1.29s-0.18,0.94-0.55,1.27c-0.37,0.32-0.81,0.48-1.33,0.48h-14.4
		v10.35h12.33c0.52,0,0.97,0.17,1.33,0.51c0.37,0.34,0.55,0.77,0.55,1.29s-0.18,0.94-0.55,1.26c-0.37,0.32-0.81,0.48-1.33,0.48
		h-12.33v11.18h14.4C375.61,363.51,376.06,363.69,376.42,364.06z"/>
</g>
<g id="Layer_28">
</g>
<g id="Layer_29">
</g>
<g id="Layer_30">
</g>
<g id="Layer_31">
</g>
<g id="Layer_2">
</g>
<g id="Layer_3">
</g>
<g id="Layer_4">
</g>
<g id="Layer_5">
</g>
<g id="Layer_6">
</g>
<g id="Layer_7">
</g>
<g id="Layer_8">
</g>
<g id="Layer_9">
</g>
<g id="Layer_10">
</g>
<g id="Layer_11">
</g>
<g id="Layer_12">
</g>
<g id="Layer_13">
</g>
<g id="Layer_14">
</g>
<g id="Layer_15">
</g>
<g id="Layer_16">
</g>
<g id="Layer_32">
</g>
<g id="Layer_33">
</g>
<g id="Layer_34">
</g>
<g id="Layer_35">
</g>
<g id="Layer_49">
</g>
<g id="Layer_50">
</g>
<g id="Layer_51">
</g>
</svg>
