<?xml version="1.0" encoding="utf-8"?>
<!-- Generator: Adobe Illustrator 23.0.1, SVG Export Plug-In . SVG Version: 6.00 Build 0)  -->
<svg version="1.1" xmlns="http://www.w3.org/2000/svg" xmlns:xlink="http://www.w3.org/1999/xlink" x="0px" y="0px"
	 viewBox="0 0 432 432" enable-background="new 0 0 432 432" xml:space="preserve">
<g id="Layer_37">
</g>
<g id="Layer_47">
</g>
<g id="Layer_42">
</g>
<g id="Layer_43">
</g>
<g id="Layer_44">
</g>
<g id="Layer_45">
</g>
<g id="Layer_46">
</g>
<g id="Layer_38">
	<path id="palm_free" d="M116.04,336.13c-1.35-0.83-2.87-1.24-4.55-1.24h-10.76c-0.52,0-0.96,0.18-1.31,0.53
		c-0.35,0.35-0.53,0.79-0.53,1.31v28.47c0,0.52,0.16,0.97,0.48,1.33c0.32,0.37,0.76,0.55,1.31,0.55c0.52,0,0.95-0.18,1.29-0.55
		c0.34-0.37,0.51-0.81,0.51-1.33v-11.04h9.02c1.69,0,3.2-0.43,4.55-1.29c1.35-0.86,2.42-2.02,3.2-3.5c0.78-1.47,1.17-3.11,1.17-4.92
		c0-1.84-0.39-3.48-1.17-4.92C118.46,338.1,117.39,336.96,116.04,336.13z M116,347.54c-0.46,0.95-1.07,1.7-1.84,2.25
		c-0.77,0.55-1.66,0.83-2.67,0.83h-9.02v-12.19h9.02c1.01,0,1.9,0.27,2.67,0.81c0.77,0.54,1.38,1.25,1.84,2.14
		c0.46,0.89,0.69,1.92,0.69,3.08C116.69,345.56,116.46,346.59,116,347.54z M137.16,335.95c-0.12-0.37-0.34-0.66-0.67-0.87
		c-0.32-0.21-0.68-0.32-1.08-0.32c-0.4-0.03-0.76,0.05-1.08,0.25c-0.32,0.2-0.56,0.51-0.71,0.94l-11.91,28.98
		c-0.09,0.25-0.12,0.48-0.09,0.69c0,0.43,0.14,0.8,0.41,1.1c0.28,0.31,0.71,0.46,1.29,0.46c0.34,0,0.66-0.11,0.97-0.32
		c0.31-0.21,0.52-0.51,0.64-0.87l3.08-7.5h14.56l3.1,7.45c0.15,0.4,0.38,0.71,0.69,0.92c0.31,0.21,0.64,0.32,1.01,0.32
		c0.46,0,0.87-0.16,1.24-0.48c0.37-0.32,0.55-0.76,0.55-1.31c0-0.25-0.05-0.49-0.14-0.74L137.16,335.95z M129.48,354.9l5.76-14.02
		l5.84,14.02H129.48z M173.31,363.99c0.37,0.35,0.55,0.79,0.55,1.31c0,0.52-0.18,0.95-0.55,1.29c-0.37,0.34-0.81,0.51-1.33,0.51
		h-15.92c-0.52,0-0.96-0.18-1.31-0.55c-0.35-0.37-0.53-0.81-0.53-1.33v-28.47c0-0.52,0.18-0.96,0.55-1.31
		c0.37-0.35,0.83-0.53,1.38-0.53c0.52,0,0.97,0.18,1.33,0.53c0.37,0.35,0.55,0.79,0.55,1.31v26.73h13.94
		C172.5,363.46,172.94,363.63,173.31,363.99z M208.46,335.4c0.37,0.34,0.55,0.78,0.55,1.33v28.47c0,0.52-0.18,0.97-0.55,1.33
		c-0.37,0.37-0.83,0.55-1.38,0.55s-1.01-0.18-1.38-0.55c-0.37-0.37-0.55-0.81-0.55-1.33v-23l-9.71,14.77
		c-0.18,0.21-0.41,0.4-0.67,0.55c-0.26,0.15-0.53,0.23-0.81,0.23c-0.28,0-0.55-0.08-0.83-0.23c-0.28-0.15-0.51-0.34-0.69-0.55
		l-9.75-15.03v23.26c0,0.52-0.17,0.97-0.51,1.33c-0.34,0.37-0.77,0.55-1.29,0.55c-0.52,0-0.94-0.18-1.27-0.55
		c-0.32-0.37-0.48-0.81-0.48-1.33v-28.47c0-0.49,0.18-0.93,0.53-1.31c0.35-0.38,0.8-0.58,1.36-0.58c0.28,0,0.58,0.08,0.9,0.23
		c0.32,0.15,0.57,0.35,0.76,0.6l11.38,17.21l11.53-17.21c0.4-0.58,0.92-0.86,1.56-0.83C207.66,334.88,208.09,335.06,208.46,335.4z
		 M249.03,335.4c0.37,0.34,0.55,0.77,0.55,1.29c0,0.49-0.18,0.9-0.55,1.24c-0.37,0.34-0.81,0.51-1.33,0.51h-14.21v10.4h12.14
		c0.52,0,0.97,0.18,1.33,0.53c0.37,0.35,0.55,0.79,0.55,1.31c0,0.46-0.18,0.87-0.55,1.22c-0.37,0.35-0.81,0.53-1.33,0.53h-12.14
		v12.79c0,0.52-0.18,0.97-0.55,1.33c-0.37,0.37-0.81,0.55-1.33,0.55c-0.55,0-1-0.18-1.36-0.55c-0.35-0.37-0.53-0.81-0.53-1.33
		v-28.47c0-0.52,0.18-0.96,0.53-1.31c0.35-0.35,0.79-0.53,1.31-0.53h16.15C248.22,334.89,248.66,335.06,249.03,335.4z
		 M279.76,363.92c-0.34-0.21-0.6-0.51-0.78-0.9c-0.18-0.38-0.32-0.91-0.41-1.59c-0.09-0.67-0.17-1.58-0.23-2.71
		c-0.03-1.29-0.31-2.42-0.83-3.38c-0.52-0.97-1.2-1.76-2.02-2.39c-0.41-0.31-0.85-0.57-1.31-0.79c0.91-0.41,1.73-0.96,2.46-1.65
		c0.86-0.81,1.53-1.78,2.02-2.9c0.49-1.12,0.74-2.32,0.74-3.61c0-1.78-0.41-3.35-1.22-4.72c-0.81-1.36-1.91-2.44-3.29-3.22
		c-1.38-0.78-2.93-1.17-4.65-1.17h-12.7c-0.52,0-0.96,0.18-1.31,0.53c-0.35,0.35-0.53,0.79-0.53,1.31v28.47
		c0,0.52,0.21,0.97,0.62,1.33c0.41,0.37,0.91,0.55,1.5,0.55c0.52,0,0.93-0.18,1.24-0.55c0.31-0.37,0.46-0.81,0.46-1.33v-11.18h9.71
		c0.67,0,1.33,0.08,1.98,0.23c0.64,0.15,1.23,0.43,1.75,0.83c0.52,0.4,0.93,0.92,1.24,1.56c0.31,0.64,0.46,1.46,0.46,2.44
		c0,1.75,0.15,3.13,0.46,4.14c0.31,1.01,0.69,1.79,1.15,2.32c0.46,0.54,0.94,0.94,1.43,1.22c0.25,0.15,0.54,0.25,0.87,0.28
		c0.34,0.03,0.67-0.01,1.01-0.12c0.34-0.11,0.6-0.3,0.78-0.57c0.31-0.43,0.39-0.87,0.25-1.33
		C280.47,364.56,280.19,364.19,279.76,363.92z M270.23,350.71h-10.72v-12.28H270c1.56,0,2.86,0.54,3.89,1.61
		c1.03,1.07,1.54,2.42,1.54,4.05c0,1.26-0.25,2.38-0.76,3.38c-0.51,1-1.15,1.77-1.93,2.32
		C271.96,350.35,271.12,350.65,270.23,350.71z M290.61,338.43v10.35h12.33c0.52,0,0.97,0.17,1.33,0.51
		c0.37,0.34,0.55,0.77,0.55,1.29c0,0.52-0.18,0.94-0.55,1.27c-0.37,0.32-0.81,0.48-1.33,0.48h-12.33v11.18h14.4
		c0.52,0,0.97,0.18,1.33,0.55c0.37,0.37,0.55,0.78,0.55,1.24c0,0.52-0.18,0.95-0.55,1.29c-0.37,0.34-0.81,0.51-1.33,0.51h-16.38
		c-0.52,0-0.96-0.18-1.31-0.55c-0.35-0.37-0.53-0.81-0.53-1.33v-28.47c0-0.52,0.18-0.96,0.53-1.31c0.35-0.35,0.79-0.53,1.31-0.53
		h16.38c0.52,0,0.97,0.17,1.33,0.51c0.37,0.34,0.55,0.77,0.55,1.29s-0.18,0.94-0.55,1.26c-0.37,0.32-0.81,0.48-1.33,0.48H290.61z
		 M332.56,364.05c0.37,0.37,0.55,0.78,0.55,1.24c0,0.52-0.18,0.95-0.55,1.29c-0.37,0.34-0.81,0.51-1.33,0.51h-16.38
		c-0.52,0-0.96-0.18-1.31-0.55c-0.35-0.37-0.53-0.81-0.53-1.33v-28.47c0-0.52,0.18-0.96,0.53-1.31c0.35-0.35,0.79-0.53,1.31-0.53
		h16.38c0.52,0,0.97,0.17,1.33,0.51c0.37,0.34,0.55,0.77,0.55,1.29s-0.18,0.94-0.55,1.26c-0.37,0.32-0.81,0.48-1.33,0.48h-14.4
		v10.35h12.33c0.52,0,0.97,0.17,1.33,0.51c0.37,0.34,0.55,0.77,0.55,1.29c0,0.52-0.18,0.94-0.55,1.27
		c-0.37,0.32-0.81,0.48-1.33,0.48h-12.33v11.18h14.4C331.75,363.5,332.19,363.69,332.56,364.05z"/>
	<path d="M216,17.5C134.67,17.5,68.5,83.67,68.5,165S134.67,312.5,216,312.5S363.5,246.33,363.5,165S297.33,17.5,216,17.5z
		 M216,307.5c-78.57,0-142.5-63.93-142.5-142.5S137.43,22.5,216,22.5S358.5,86.43,358.5,165S294.57,307.5,216,307.5z M279.37,222.31
		c0.36,1.33-0.42,2.71-1.75,3.07c-8.31,2.27-13.6,5.37-19.21,8.66c-5.4,3.16-10.98,6.43-19.42,9.04
		c0.03,13.2-4.26,22.99-16.87,26.52c-0.23,0.06-0.45,0.09-0.67,0.09c-1.09,0-2.1-0.72-2.41-1.83c-0.37-1.33,0.4-2.71,1.73-3.08
		c9.59-2.68,13.13-10.31,13.28-21.06c-6.73-0.2-15.9-3.57-24.15-6.61c-5.02-1.85-9.75-3.6-12.36-3.97c-1.37-0.2-2.32-1.46-2.12-2.83
		c0.2-1.37,1.46-2.31,2.83-2.12c3.13,0.45,7.88,2.2,13.38,4.23c7.46,2.75,16.47,6.06,22.27,6.31c-0.25-3.61-0.79-7.5-1.55-11.61
		c-0.37,0.03-0.74,0.05-1.13,0.05c-5.83,0-13.83-2.82-21.6-5.55c-6.14-2.16-12.49-4.4-16.19-4.56c-1.38-0.06-2.45-1.23-2.39-2.61
		c0.06-1.38,1.2-2.43,2.61-2.39c4.44,0.2,10.85,2.45,17.63,4.84c7.2,2.53,15.24,5.36,20.09,5.27c-0.79-3.73-1.72-7.61-2.74-11.61
		c-0.29,0.02-0.59,0.04-0.89,0.04c-5.09,0-11.93-2.35-19.12-4.81c-7.14-2.44-14.52-4.97-19.35-4.84c-1.43,0.03-2.53-1.05-2.57-2.43
		c-0.04-1.38,1.05-2.53,2.43-2.57c5.73-0.15,13.55,2.52,21.11,5.1c6.37,2.18,12.91,4.42,17.1,4.53c-0.94-3.56-1.92-7.19-2.93-10.88
		c-0.06-0.22-0.12-0.45-0.18-0.68c0,0,0,0,0,0c-4.49,0-10.4-2-17.08-4.26c-7.53-2.54-16.07-5.43-22.08-4.93
		c-1.37,0.11-2.58-0.91-2.7-2.29c-0.11-1.38,0.91-2.58,2.29-2.7c7.05-0.58,15.71,2.35,24.09,5.18c5.15,1.74,10.43,3.52,14.11,3.91
		c-1.03-3.82-2.05-7.68-3.03-11.53c-3.93-0.23-8.9-1.89-14.49-3.78c-8.1-2.73-17.28-5.82-24.51-4.91c-1.38,0.17-2.62-0.8-2.79-2.17
		s0.8-2.62,2.17-2.79c8.37-1.05,18.12,2.24,26.73,5.14c4.35,1.46,8.51,2.87,11.63,3.37c-0.04-0.19-0.09-0.38-0.14-0.56
		c-0.88-3.7-1.83-7.33-2.82-10.9c-3.35-0.36-7.46-1.74-12.32-3.39c-8.12-2.75-18.22-6.17-26.72-4.81c-1.37,0.22-2.65-0.71-2.86-2.07
		c-0.22-1.36,0.71-2.65,2.07-2.86c9.72-1.55,20.47,2.09,29.11,5.01c3.35,1.13,6.58,2.23,9.18,2.8c-0.9-3.01-1.83-5.96-2.79-8.86
		c-3.35-0.2-7.58-1.62-12.4-3.25c-7.24-2.45-15.43-5.22-22.75-4.7c-1.37,0.1-2.57-0.94-2.67-2.31c-0.1-1.38,0.94-2.57,2.31-2.67
		c8.33-0.6,17.41,2.48,24.71,4.95c3.32,1.12,6.5,2.19,9,2.7c-1.06-3.03-2.14-5.99-3.24-8.88c-3.21-0.24-7.25-1.6-11.92-3.18
		c-5.91-2-12.61-4.27-18.72-4.56c-1.38-0.07-2.44-1.24-2.38-2.62c0.07-1.38,1.22-2.44,2.62-2.38c6.81,0.33,13.86,2.72,20.08,4.82
		c3.01,1.02,5.88,1.98,8.22,2.52c-1.19-3-2.4-5.92-3.6-8.75c-0.05-0.01-0.11-0.01-0.16-0.02c-0.01,0-0.02,0-0.03,0
		c-3.19-0.59-7.19-1.95-11.42-3.39c-4.36-1.48-9.31-3.16-13.99-4.2c-1.35-0.3-2.2-1.64-1.9-2.98c0.3-1.35,1.63-2.2,2.99-1.9
		c4.94,1.1,10.02,2.83,14.5,4.35c2.68,0.91,5.26,1.78,7.53,2.43c-1.3-2.95-2.6-5.79-3.87-8.52c0,0-0.01,0-0.01,0
		c-0.01,0-0.03-0.01-0.04-0.02c-0.02-0.01-0.03-0.01-0.05-0.01c-1.33-0.46-2.72-0.91-4.16-1.38c-4.74-1.54-10.11-3.29-15.8-6.13
		c-1.24-0.62-1.74-2.12-1.12-3.35c0.62-1.24,2.12-1.74,3.35-1.12c5.27,2.63,10.36,4.3,14.88,5.77c-1.42-2.97-2.79-5.78-4.1-8.44
		c-1.41-0.69-2.71-1.13-4.08-1.58c-3-0.99-6.1-2-9.81-5.7c-0.98-0.98-0.98-2.56,0-3.54c0.97-0.98,2.56-0.98,3.54,0
		c2.62,2.61,4.68,3.44,7.13,4.26c-3.92-7.98-7.01-14.4-8.61-19.26c-0.43-1.31,0.28-2.73,1.59-3.16c1.31-0.43,2.73,0.28,3.16,1.59
		c1.44,4.36,4.26,10.28,7.86,17.63c0.12-0.3,0.24-0.61,0.36-0.91c1.05-2.65,2.05-5.16,1.92-8.5c-0.06-1.38,1.02-2.54,2.4-2.6
		c1.37-0.06,2.54,1.02,2.6,2.4c0.18,4.4-1.12,7.67-2.26,10.55c-0.93,2.35-1.67,4.23-1.46,6.27c1.23,2.5,2.52,5.15,3.86,7.93
		c0.52-0.93,1.07-1.86,1.63-2.81c1.94-3.27,3.94-6.66,5.01-10.51c0.37-1.33,1.75-2.11,3.08-1.73c1.33,0.37,2.11,1.75,1.73,3.08
		c-1.25,4.48-3.52,8.31-5.52,11.7c-1.22,2.06-2.39,4.04-3.23,5.98c1.37,2.93,2.78,5.99,4.19,9.18c0.4-0.55,0.8-1.08,1.21-1.64
		c3.61-4.86,7.34-9.89,10.47-15.16c0.71-1.19,2.24-1.58,3.43-0.87c1.19,0.71,1.58,2.24,0.87,3.43c-3.26,5.49-7.07,10.63-10.76,15.59
		c-1.01,1.37-1.98,2.67-2.91,3.96c1.34,3.11,2.68,6.34,4.01,9.66c3.27-3.47,6.45-7.3,9.56-11.03c2.52-3.03,5.13-6.17,7.78-9.13
		c0.92-1.03,2.5-1.11,3.53-0.19c1.03,0.92,1.11,2.5,0.19,3.53c-2.59,2.88-5.17,5.98-7.65,8.98c-3.66,4.41-7.43,8.94-11.4,12.96
		c1.24,3.24,2.46,6.57,3.65,9.98c4.06-3.41,7.69-7.32,11.47-11.44c3.8-4.12,7.72-8.38,12.15-12.07c1.06-0.88,2.64-0.74,3.52,0.32
		c0.88,1.06,0.74,2.64-0.32,3.52c-4.17,3.48-7.99,7.62-11.67,11.62c-4.16,4.52-8.46,9.17-13.43,13.1c1.1,3.32,2.17,6.71,3.19,10.18
		c5.7-3.8,10.5-8.62,15.15-13.3c4.71-4.75,9.59-9.66,15.45-13.59c1.15-0.77,2.7-0.46,3.47,0.68c0.77,1.15,0.46,2.7-0.68,3.47
		c-5.45,3.65-9.93,8.17-14.69,12.96c-5.18,5.22-10.54,10.59-17.26,14.8c0.96,3.47,1.88,7,2.73,10.6c0.06,0.25,0.12,0.49,0.18,0.74
		c5.74-3.4,10.28-7.55,15.05-11.92c4.93-4.52,10.03-9.18,16.53-12.87c1.2-0.68,2.73-0.26,3.41,0.94s0.26,2.73-0.94,3.41
		c-6,3.4-10.67,7.68-15.61,12.2c-5.09,4.66-10.35,9.45-17.19,13.27c0.96,3.81,1.98,7.64,3,11.43c5.88-3.09,10.39-6.81,15.12-10.73
		c5.13-4.24,10.42-8.63,17.54-12.03c1.25-0.6,2.74-0.07,3.33,1.18c0.59,1.25,0.07,2.74-1.18,3.33c-6.56,3.13-11.39,7.14-16.51,11.37
		c-4.97,4.12-10.12,8.35-16.97,11.79c0.06,0.24,0.13,0.48,0.2,0.72c0.98,3.62,1.96,7.22,2.89,10.77c5.93-2.77,10.37-6.07,15.03-9.54
		c5.31-3.95,10.79-8.03,18.52-11.12c1.28-0.51,2.74,0.11,3.25,1.39c0.51,1.28-0.11,2.74-1.39,3.25c-7.13,2.85-12.12,6.56-17.4,10.49
		c-4.88,3.63-9.9,7.36-16.74,10.44c1.01,3.99,1.94,7.9,2.75,11.71c6.17-2.51,10.66-5.49,15.36-8.61
		c5.48-3.63,11.14-7.39,19.48-10.17c1.31-0.44,2.73,0.27,3.16,1.58c0.44,1.31-0.27,2.73-1.58,3.16c-7.71,2.57-12.85,5.98-18.29,9.59
		c-4.93,3.27-10.01,6.64-17.14,9.43c0.78,4.23,1.34,8.28,1.63,12.11c7.21-2.38,12.23-5.32,17.1-8.18
		c5.64-3.31,11.47-6.72,20.42-9.17C277.64,220.19,279.01,220.98,279.37,222.31z"/>
</g>
<g id="Layer_39">
</g>
<g id="Layer_40">
</g>
<g id="Layer_41">
</g>
<g id="Layer_17">
</g>
<g id="Layer_18">
</g>
<g id="Layer_19">
</g>
<g id="Layer_20">
</g>
<g id="Layer_21">
</g>
<g id="Layer_22">
</g>
<g id="Layer_23">
</g>
<g id="Layer_24">
</g>
<g id="Layer_25">
</g>
<g id="Layer_26">
</g>
<g id="Layer_27">
</g>
<g id="Layer_28">
</g>
<g id="Layer_29">
</g>
<g id="Layer_30">
</g>
<g id="Layer_31">
</g>
<g id="Layer_2">
</g>
<g id="Layer_3">
</g>
<g id="Layer_4">
</g>
<g id="Layer_5">
</g>
<g id="Layer_6">
</g>
<g id="Layer_7">
</g>
<g id="Layer_8">
</g>
<g id="Layer_9">
</g>
<g id="Layer_10">
</g>
<g id="Layer_11">
</g>
<g id="Layer_12">
</g>
<g id="Layer_13">
</g>
<g id="Layer_14">
</g>
<g id="Layer_15">
</g>
<g id="Layer_16">
</g>
<g id="Layer_32">
</g>
<g id="Layer_33">
</g>
<g id="Layer_34">
</g>
<g id="Layer_35">
</g>
<g id="Layer_49">
</g>
<g id="Layer_50">
</g>
<g id="Layer_51">
</g>
</svg>
