<?xml version="1.0" encoding="utf-8"?>
<!-- Generator: Adobe Illustrator 23.0.1, SVG Export Plug-In . SVG Version: 6.00 Build 0)  -->
<svg version="1.1" xmlns="http://www.w3.org/2000/svg" xmlns:xlink="http://www.w3.org/1999/xlink" x="0px" y="0px"
	 viewBox="0 0 432 432" enable-background="new 0 0 432 432" xml:space="preserve">
<g id="Layer_37">
</g>
<g id="Layer_47">
</g>
<g id="Layer_42">
</g>
<g id="Layer_43">
</g>
<g id="Layer_44">
</g>
<g id="Layer_45">
</g>
<g id="Layer_46">
</g>
<g id="Layer_38">
</g>
<g id="Layer_39">
</g>
<g id="Layer_40">
</g>
<g id="Layer_41">
</g>
<g id="Layer_17">
</g>
<g id="Layer_18">
</g>
<g id="Layer_19">
</g>
<g id="Layer_20">
	<path d="M68.5,165c0-81.33,66.17-147.5,147.5-147.5S363.5,83.67,363.5,165S297.33,312.5,216,312.5S68.5,246.33,68.5,165z M73.5,165
		c0,78.57,63.92,142.5,142.5,142.5S358.5,243.57,358.5,165S294.58,22.5,216,22.5S73.5,86.43,73.5,165z M134,190.3
		c-6.93-14.38-6.51-31.44,1.1-44.52c6.8-11.69,18.53-18.66,33.02-19.64c26.35-1.79,42.35,16.12,47.87,23.65
		c5.52-7.53,21.52-25.44,47.87-23.65c14.5,0.98,26.22,7.96,33.02,19.64c7.61,13.09,8.04,30.15,1.1,44.52
		c-9.82,20.37-35.75,39.13-55.16,46.43c-16.38,6.17-26.59,6.23-26.84,6.22c0,0,0,0-0.01,0c-0.42,0-10.57-0.1-26.84-6.22
		C169.75,229.42,143.82,210.66,134,190.3z M138.5,188.12c8.13,16.85,30.66,35.73,52.41,43.93c15.26,5.75,24.9,5.9,25.08,5.9
		c0.18,0,9.81-0.15,25.08-5.9c21.75-8.19,44.29-27.08,52.41-43.93c6.13-12.71,5.77-28.34-0.92-39.84
		c-5.94-10.21-16.25-16.3-29.04-17.17c-29.42-1.97-45.22,24.13-45.38,24.4c-0.02,0.04-0.05,0.06-0.07,0.1
		c-0.05,0.08-0.1,0.15-0.16,0.22c-0.05,0.06-0.1,0.11-0.15,0.16c-0.06,0.06-0.13,0.12-0.2,0.18c-0.06,0.05-0.12,0.1-0.19,0.14
		c-0.04,0.03-0.07,0.06-0.11,0.08c-0.03,0.02-0.07,0.03-0.11,0.05c-0.07,0.04-0.14,0.07-0.21,0.1c-0.08,0.03-0.17,0.07-0.25,0.09
		c-0.07,0.02-0.13,0.03-0.2,0.05c-0.09,0.02-0.18,0.03-0.27,0.04c-0.07,0.01-0.14,0.01-0.21,0.01c-0.09,0-0.18,0-0.27-0.01
		c-0.07-0.01-0.14-0.02-0.21-0.03c-0.09-0.02-0.18-0.04-0.26-0.06c-0.06-0.02-0.13-0.04-0.19-0.07c-0.09-0.04-0.18-0.08-0.27-0.13
		c-0.03-0.01-0.05-0.02-0.08-0.04c-0.03-0.02-0.05-0.04-0.08-0.06c-0.08-0.05-0.17-0.11-0.24-0.18c-0.05-0.04-0.1-0.09-0.15-0.14
		c-0.06-0.06-0.12-0.13-0.18-0.2c-0.05-0.06-0.1-0.13-0.15-0.2c-0.02-0.04-0.06-0.07-0.08-0.11c-0.22-0.37-16.02-26.38-45.38-24.4
		c-12.79,0.87-23.1,6.96-29.04,17.17C132.74,159.78,132.38,175.42,138.5,188.12z M189.45,180.96c4.63,0,7.5-3.55,7.62-3.7
		c0.86-1.08,0.68-2.65-0.4-3.51c-1.08-0.86-2.65-0.68-3.51,0.4c-0.01,0.02-1.53,1.81-3.71,1.81c-2.05,0-3.51-1.73-3.57-1.8
		c-0.85-1.08-2.41-1.27-3.49-0.43c-1.09,0.85-1.29,2.42-0.44,3.51C182.06,177.39,184.88,180.96,189.45,180.96z M242.55,180.96
		c4.57,0,7.39-3.57,7.5-3.72c0.84-1.08,0.64-2.63-0.43-3.48c-1.08-0.85-2.64-0.67-3.5,0.4c-0.01,0.02-1.48,1.8-3.57,1.8
		c-2.18,0-3.71-1.81-3.71-1.81c-0.86-1.08-2.43-1.26-3.51-0.4c-1.08,0.86-1.26,2.43-0.4,3.51
		C235.05,177.41,237.92,180.96,242.55,180.96z M194.37,192.34c0-1.38-1.12-2.5-2.5-2.5s-2.5,1.12-2.5,2.5
		c0,8.09,11.45,14.19,26.63,14.19s26.63-6.1,26.63-14.19c0-1.38-1.12-2.5-2.5-2.5s-2.5,1.12-2.5,2.5c0,4.35-8.88,9.19-21.63,9.19
		S194.37,196.69,194.37,192.34z M153.13,97.05c0-12.23,37.6-16.67,62.87-16.67s62.87,4.44,62.87,16.67s-37.6,16.67-62.87,16.67
		S153.13,109.29,153.13,97.05z M158.13,97.05c0,4.07,19.88,11.67,57.87,11.67s57.87-7.6,57.87-11.67S254,85.38,216,85.38
		S158.13,92.98,158.13,97.05z"/>
	<path id="cruelty_free" d="M84.69,362.36c0.37,0.49,0.51,1,0.41,1.54s-0.38,0.93-0.87,1.17c-0.77,0.46-1.64,0.88-2.62,1.27
		c-0.98,0.38-2,0.68-3.06,0.9c-1.06,0.21-2.12,0.32-3.2,0.32c-2.21,0-4.29-0.38-6.26-1.15c-1.96-0.77-3.7-1.87-5.2-3.31
		c-1.5-1.44-2.69-3.18-3.57-5.22c-0.87-2.04-1.31-4.33-1.31-6.88c0-2.39,0.41-4.58,1.24-6.58c0.83-1.99,1.99-3.73,3.47-5.2
		s3.22-2.62,5.2-3.45c1.98-0.83,4.12-1.24,6.42-1.24c1.59,0,3.15,0.21,4.67,0.64c1.52,0.43,2.91,1.04,4.16,1.84
		c0.52,0.28,0.82,0.69,0.9,1.24c0.08,0.55-0.07,1.06-0.44,1.52c-0.28,0.4-0.63,0.61-1.06,0.64c-0.43,0.03-0.86-0.06-1.29-0.28
		c-1.01-0.61-2.1-1.1-3.27-1.45c-1.17-0.35-2.39-0.53-3.68-0.53c-1.81,0-3.47,0.31-4.97,0.94c-1.5,0.63-2.81,1.51-3.91,2.65
		c-1.1,1.14-1.96,2.48-2.58,4.05c-0.61,1.56-0.92,3.3-0.92,5.2c0,2.02,0.32,3.83,0.97,5.43c0.64,1.59,1.53,2.95,2.65,4.07
		c1.12,1.12,2.42,1.97,3.91,2.55s3.11,0.87,4.85,0.87c1.26,0,2.47-0.17,3.63-0.51c1.17-0.34,2.27-0.83,3.31-1.47
		c0.43-0.21,0.86-0.29,1.29-0.23C84.02,361.77,84.39,361.99,84.69,362.36z M115.58,365.02c0.14,0.46,0.05,0.9-0.25,1.33
		c-0.18,0.28-0.45,0.47-0.78,0.57c-0.34,0.11-0.67,0.15-1.01,0.12c-0.34-0.03-0.63-0.12-0.87-0.28c-0.49-0.28-0.97-0.68-1.43-1.22
		c-0.46-0.54-0.84-1.31-1.15-2.32c-0.31-1.01-0.46-2.39-0.46-4.14c0-0.98-0.15-1.79-0.46-2.44c-0.31-0.64-0.72-1.17-1.24-1.56
		c-0.52-0.4-1.1-0.67-1.75-0.83c-0.64-0.15-1.3-0.23-1.98-0.23h-9.71v11.18c0,0.52-0.15,0.97-0.46,1.33
		c-0.31,0.37-0.72,0.55-1.24,0.55c-0.58,0-1.08-0.18-1.5-0.55c-0.41-0.37-0.62-0.81-0.62-1.33v-28.47c0-0.52,0.18-0.96,0.53-1.31
		c0.35-0.35,0.79-0.53,1.31-0.53h12.7c1.72,0,3.27,0.39,4.65,1.17c1.38,0.78,2.48,1.86,3.29,3.22c0.81,1.37,1.22,2.94,1.22,4.72
		c0,1.29-0.25,2.49-0.74,3.61c-0.49,1.12-1.17,2.09-2.02,2.9c-0.73,0.69-1.55,1.23-2.46,1.65c0.46,0.22,0.9,0.48,1.31,0.79
		c0.83,0.63,1.5,1.43,2.02,2.39c0.52,0.97,0.8,2.09,0.83,3.38c0.06,1.13,0.14,2.04,0.23,2.71c0.09,0.68,0.23,1.2,0.41,1.59
		c0.18,0.38,0.44,0.68,0.78,0.9C115.16,364.2,115.44,364.56,115.58,365.02z M109.65,347.47c0.51-1,0.76-2.12,0.76-3.38
		c0-1.63-0.51-2.97-1.54-4.05c-1.03-1.07-2.32-1.61-3.89-1.61H94.49v12.28h10.72c0.89-0.06,1.72-0.37,2.51-0.92
		C108.5,349.25,109.14,348.47,109.65,347.47z M144.36,334.85c-0.55,0-0.98,0.18-1.29,0.55c-0.31,0.37-0.46,0.81-0.46,1.33V355
		c0,1.69-0.41,3.19-1.22,4.51c-0.81,1.32-1.88,2.35-3.2,3.1c-1.32,0.75-2.76,1.13-4.32,1.13c-1.53,0-2.95-0.38-4.25-1.13
		c-1.3-0.75-2.34-1.79-3.11-3.1c-0.77-1.32-1.15-2.82-1.15-4.51v-18.26c0-0.52-0.19-0.97-0.58-1.33c-0.38-0.37-0.82-0.55-1.31-0.55
		c-0.58,0-1.05,0.18-1.4,0.55c-0.35,0.37-0.53,0.81-0.53,1.33V355c0,2.36,0.54,4.48,1.61,6.35c1.07,1.87,2.54,3.35,4.39,4.44
		c1.86,1.09,3.96,1.63,6.33,1.63c2.33,0,4.42-0.54,6.26-1.63c1.84-1.09,3.3-2.57,4.39-4.44c1.09-1.87,1.63-3.99,1.63-6.35v-18.26
		c0-0.52-0.17-0.97-0.51-1.33C145.31,335.03,144.88,334.85,144.36,334.85z M172.42,338.44c0.52,0,0.97-0.16,1.33-0.48
		c0.37-0.32,0.55-0.74,0.55-1.26s-0.18-0.95-0.55-1.29c-0.37-0.34-0.81-0.51-1.33-0.51h-16.38c-0.52,0-0.96,0.18-1.31,0.53
		c-0.35,0.35-0.53,0.79-0.53,1.31v28.47c0,0.52,0.18,0.97,0.53,1.33c0.35,0.37,0.79,0.55,1.31,0.55h16.38
		c0.52,0,0.97-0.17,1.33-0.51c0.37-0.34,0.55-0.77,0.55-1.29c0-0.46-0.18-0.87-0.55-1.24c-0.37-0.37-0.81-0.55-1.33-0.55h-14.4
		v-11.18h12.33c0.52,0,0.97-0.16,1.33-0.48c0.37-0.32,0.55-0.74,0.55-1.27c0-0.52-0.18-0.95-0.55-1.29s-0.81-0.51-1.33-0.51h-12.33
		v-10.35H172.42z M198.18,363.46h-13.94v-26.73c0-0.52-0.18-0.96-0.55-1.31c-0.37-0.35-0.81-0.53-1.33-0.53
		c-0.55,0-1.01,0.18-1.38,0.53c-0.37,0.35-0.55,0.79-0.55,1.31v28.47c0,0.52,0.18,0.97,0.53,1.33c0.35,0.37,0.79,0.55,1.31,0.55
		h15.92c0.52,0,0.97-0.17,1.33-0.51c0.37-0.34,0.55-0.77,0.55-1.29c0-0.52-0.18-0.96-0.55-1.31
		C199.14,363.64,198.7,363.46,198.18,363.46z M222.74,334.89h-21.39c-0.52,0-0.96,0.16-1.31,0.48c-0.35,0.32-0.53,0.74-0.53,1.26
		c0,0.52,0.18,0.94,0.53,1.27s0.79,0.48,1.31,0.48h8.74v26.82c0,0.52,0.18,0.97,0.55,1.33c0.37,0.37,0.83,0.55,1.38,0.55
		c0.58,0,1.06-0.18,1.43-0.55c0.37-0.37,0.55-0.81,0.55-1.33v-26.82h8.74c0.52,0,0.97-0.15,1.33-0.46c0.37-0.31,0.55-0.74,0.55-1.29
		c0-0.52-0.18-0.94-0.55-1.26C223.71,335.05,223.26,334.89,222.74,334.89z M250.2,334.71c-0.61,0-1.12,0.31-1.52,0.92l-8.77,12.34
		l-9.03-12.39c-0.4-0.58-0.91-0.87-1.52-0.87c-0.43,0-0.86,0.18-1.29,0.53c-0.43,0.35-0.64,0.79-0.64,1.31
		c0,0.21,0.04,0.44,0.11,0.67c0.08,0.23,0.21,0.47,0.39,0.71l10.03,13.55v13.73c0,0.52,0.18,0.97,0.53,1.33
		c0.35,0.37,0.81,0.55,1.36,0.55c0.49,0,0.91-0.18,1.26-0.55c0.35-0.37,0.53-0.81,0.53-1.33v-13.44l10.07-14.03
		c0.12-0.18,0.21-0.38,0.25-0.57c0.05-0.2,0.07-0.39,0.07-0.58c0-0.49-0.18-0.93-0.53-1.31C251.16,334.9,250.72,334.71,250.2,334.71
		z M287.55,334.89h-16.15c-0.52,0-0.96,0.18-1.31,0.53c-0.35,0.35-0.53,0.79-0.53,1.31v28.47c0,0.52,0.18,0.97,0.53,1.33
		c0.35,0.37,0.8,0.55,1.36,0.55c0.52,0,0.97-0.18,1.33-0.55c0.37-0.37,0.55-0.81,0.55-1.33v-12.79h12.14c0.52,0,0.97-0.18,1.33-0.53
		c0.37-0.35,0.55-0.76,0.55-1.22c0-0.52-0.18-0.96-0.55-1.31c-0.37-0.35-0.81-0.53-1.33-0.53h-12.14v-10.4h14.21
		c0.52,0,0.97-0.17,1.33-0.51c0.37-0.34,0.55-0.75,0.55-1.24c0-0.52-0.18-0.95-0.55-1.29C288.52,335.06,288.07,334.89,287.55,334.89
		z M320.46,365.02c0.14,0.46,0.05,0.9-0.25,1.33c-0.18,0.28-0.44,0.47-0.78,0.57c-0.34,0.11-0.67,0.15-1.01,0.12
		c-0.34-0.03-0.63-0.12-0.87-0.28c-0.49-0.28-0.97-0.68-1.43-1.22c-0.46-0.54-0.84-1.31-1.15-2.32c-0.31-1.01-0.46-2.39-0.46-4.14
		c0-0.98-0.15-1.79-0.46-2.44s-0.72-1.17-1.24-1.56c-0.52-0.4-1.1-0.67-1.75-0.83c-0.64-0.15-1.3-0.23-1.98-0.23h-9.71v11.18
		c0,0.52-0.15,0.97-0.46,1.33c-0.31,0.37-0.72,0.55-1.24,0.55c-0.58,0-1.08-0.18-1.5-0.55c-0.41-0.37-0.62-0.81-0.62-1.33v-28.47
		c0-0.52,0.18-0.96,0.53-1.31c0.35-0.35,0.79-0.53,1.31-0.53h12.7c1.72,0,3.27,0.39,4.65,1.17c1.38,0.78,2.48,1.86,3.29,3.22
		c0.81,1.37,1.22,2.94,1.22,4.72c0,1.29-0.25,2.49-0.74,3.61c-0.49,1.12-1.17,2.09-2.02,2.9c-0.73,0.69-1.55,1.23-2.46,1.65
		c0.46,0.22,0.9,0.48,1.31,0.79c0.83,0.63,1.5,1.43,2.02,2.39c0.52,0.97,0.8,2.09,0.83,3.38c0.06,1.13,0.14,2.04,0.23,2.71
		c0.09,0.68,0.23,1.2,0.41,1.59c0.18,0.38,0.44,0.68,0.78,0.9C320.04,364.2,320.33,364.56,320.46,365.02z M314.53,347.47
		c0.51-1,0.76-2.12,0.76-3.38c0-1.63-0.51-2.97-1.54-4.05c-1.03-1.07-2.32-1.61-3.89-1.61h-10.49v12.28h10.72
		c0.89-0.06,1.73-0.37,2.51-0.92C313.38,349.25,314.02,348.47,314.53,347.47z M344.87,338.44c0.52,0,0.97-0.16,1.33-0.48
		c0.37-0.32,0.55-0.74,0.55-1.26s-0.18-0.95-0.55-1.29c-0.37-0.34-0.81-0.51-1.33-0.51h-16.38c-0.52,0-0.96,0.18-1.31,0.53
		c-0.35,0.35-0.53,0.79-0.53,1.31v28.47c0,0.52,0.18,0.97,0.53,1.33c0.35,0.37,0.79,0.55,1.31,0.55h16.38
		c0.52,0,0.97-0.17,1.33-0.51c0.37-0.34,0.55-0.77,0.55-1.29c0-0.46-0.18-0.87-0.55-1.24c-0.37-0.37-0.81-0.55-1.33-0.55h-14.4
		v-11.18h12.33c0.52,0,0.97-0.16,1.33-0.48c0.37-0.32,0.55-0.74,0.55-1.27c0-0.52-0.18-0.95-0.55-1.29s-0.81-0.51-1.33-0.51h-12.33
		v-10.35H344.87z M371.09,363.51h-14.4v-11.18h12.33c0.52,0,0.97-0.16,1.33-0.48c0.37-0.32,0.55-0.74,0.55-1.27
		c0-0.52-0.18-0.95-0.55-1.29s-0.81-0.51-1.33-0.51h-12.33v-10.35h14.4c0.52,0,0.97-0.16,1.33-0.48c0.37-0.32,0.55-0.74,0.55-1.26
		s-0.18-0.95-0.55-1.29c-0.37-0.34-0.81-0.51-1.33-0.51h-16.38c-0.52,0-0.96,0.18-1.31,0.53c-0.35,0.35-0.53,0.79-0.53,1.31v28.47
		c0,0.52,0.18,0.97,0.53,1.33c0.35,0.37,0.79,0.55,1.31,0.55h16.38c0.52,0,0.97-0.17,1.33-0.51c0.37-0.34,0.55-0.77,0.55-1.29
		c0-0.46-0.18-0.87-0.55-1.24C372.05,363.69,371.61,363.51,371.09,363.51z"/>
</g>
<g id="Layer_21">
</g>
<g id="Layer_22">
</g>
<g id="Layer_23">
</g>
<g id="Layer_24">
</g>
<g id="Layer_25">
</g>
<g id="Layer_26">
</g>
<g id="Layer_27">
</g>
<g id="Layer_28">
</g>
<g id="Layer_29">
</g>
<g id="Layer_30">
</g>
<g id="Layer_31">
</g>
<g id="Layer_2">
</g>
<g id="Layer_3">
</g>
<g id="Layer_4">
</g>
<g id="Layer_5">
</g>
<g id="Layer_6">
</g>
<g id="Layer_7">
</g>
<g id="Layer_8">
</g>
<g id="Layer_9">
</g>
<g id="Layer_10">
</g>
<g id="Layer_11">
</g>
<g id="Layer_12">
</g>
<g id="Layer_13">
</g>
<g id="Layer_14">
</g>
<g id="Layer_15">
</g>
<g id="Layer_16">
</g>
<g id="Layer_32">
</g>
<g id="Layer_33">
</g>
<g id="Layer_34">
</g>
<g id="Layer_35">
</g>
<g id="Layer_49">
</g>
<g id="Layer_50">
</g>
<g id="Layer_51">
</g>
</svg>
