<?xml version="1.0" encoding="utf-8"?>
<!-- Generator: Adobe Illustrator 23.0.1, SVG Export Plug-In . SVG Version: 6.00 Build 0)  -->
<svg version="1.1" xmlns="http://www.w3.org/2000/svg" xmlns:xlink="http://www.w3.org/1999/xlink" x="0px" y="0px"
	 viewBox="0 0 432 432" enable-background="new 0 0 432 432" xml:space="preserve">
<g id="Layer_37">
</g>
<g id="Layer_47">
</g>
<g id="Layer_42">
</g>
<g id="Layer_43">
</g>
<g id="Layer_44">
</g>
<g id="Layer_45">
</g>
<g id="Layer_46">
</g>
<g id="Layer_38">
</g>
<g id="Layer_39">
</g>
<g id="Layer_40">
</g>
<g id="Layer_41">
</g>
<g id="Layer_17">
</g>
<g id="Layer_18">
</g>
<g id="Layer_19">
</g>
<g id="Layer_20">
</g>
<g id="Layer_21">
	<path d="M68.5,165c0-81.33,66.17-147.5,147.5-147.5S363.5,83.67,363.5,165S297.33,312.5,216,312.5S68.5,246.33,68.5,165z M73.5,165
		c0,78.58,63.93,142.5,142.5,142.5S358.5,243.58,358.5,165c0-78.57-63.93-142.5-142.5-142.5S73.5,86.43,73.5,165z M132.39,165
		c0-46.1,37.51-83.61,83.61-83.61s83.61,37.51,83.61,83.61S262.1,248.61,216,248.61S132.39,211.1,132.39,165z M289.64,192.49
		c-6.38-1.14-12.82,0.88-15.59,1.94c-6.87,2.64-18.38,7.07-27.07,2.45c-4.62-2.46-7.75-7.12-9.31-13.85
		c-1.78-7.73-4.6-12.83-8.37-15.19c-3.75-2.33-8.06-1.76-11.78-0.89c-6.39,1.49-13,3.03-10.33,19.81
		c2.96,18.59-1.6,21.03-13.14,25.19l-1.23,0.44c-5.64,2.05-6.62,11.78-2.98,26.72c8.19,2.9,16.98,4.49,26.15,4.49
		C249.68,243.61,278.47,222.32,289.64,192.49z M282.17,122.64c-5.34,1.78-10.43,4.74-10.8,9.81c-0.25,3.49,1.65,7.49,5.21,10.97
		c4.29,4.2,10.23,7.01,16.87,8.18C291.63,141.09,287.73,131.29,282.17,122.64z M138.17,154.03c4.56,10.51,11.94,18.91,21.48,20.37
		c5.61,0.86,11.53-1.65,16.22-6.87c6.42-7.13,9.09-17.37,6.8-26.09c-1.63-6.21-1.01-11.11,1.85-14.59
		c4.76-5.79,14.07-6.05,23.43-5.46c0.62,0.04,1.34,0.09,2.15,0.16c8.73,0.67,26.89,2.07,37.31-8.15c4.13-4.05,6.64-9.64,7.5-16.68
		c-11.48-6.57-24.76-10.35-38.92-10.35C176.37,86.39,143.52,115.86,138.17,154.03z M137.39,165c0,32.03,19.27,59.63,46.81,71.87
		c-2.79-13.33-2.45-25.75,6.92-29.16l1.24-0.45c10.21-3.69,12.33-4.45,9.9-19.7c-3.14-19.72,5.64-23.48,14.13-25.46
		c4.44-1.04,10.23-1.8,15.56,1.52c5.01,3.12,8.48,9.11,10.6,18.31c1.23,5.33,3.45,8.79,6.78,10.56c6.68,3.55,16.85-0.37,22.93-2.7
		c6-2.31,12.8-3.37,19.01-2.07c2.17-7.19,3.35-14.81,3.35-22.7c0-2.77-0.15-5.51-0.43-8.21c-8.26-1.16-15.74-4.55-21.1-9.79
		c-4.61-4.52-7.06-9.95-6.7-14.91c0.53-7.28,6.54-11.35,12.86-13.71c-5.43-7.35-12.11-13.72-19.72-18.8
		c-1.24,7.15-4.11,12.99-8.61,17.41c-12.04,11.81-32.47,10.23-41.2,9.56c-0.78-0.06-1.48-0.11-2.07-0.15
		c-5.02-0.31-15.46-0.97-19.25,3.65c-1.78,2.16-2.07,5.58-0.88,10.14c2.7,10.3-0.41,22.35-7.92,30.7
		c-5.06,5.62-11.39,8.69-17.74,8.69c-0.99,0-1.97-0.07-2.96-0.22c-9.16-1.4-16.34-7.62-21.47-15.87
		C137.42,163.99,137.39,164.49,137.39,165z"/>
	<path id="sustainable_development" d="M85.32,366.38c-1.64,0.75-3.49,1.14-5.54,1.17c-2.27,0-4.26-0.34-5.98-1.01
		c-1.72-0.67-3.37-1.75-4.97-3.22c-0.21-0.21-0.39-0.45-0.53-0.71c-0.14-0.26-0.21-0.54-0.21-0.85c0-0.49,0.18-0.93,0.53-1.31
		c0.35-0.38,0.79-0.58,1.31-0.58c0.43,0,0.81,0.17,1.15,0.51c1.2,1.17,2.49,2.05,3.89,2.67c1.4,0.61,2.97,0.92,4.71,0.92
		c1.35,0,2.57-0.21,3.66-0.64c1.09-0.43,1.96-1.03,2.6-1.79c0.64-0.77,0.97-1.66,0.97-2.67c-0.03-1.23-0.39-2.24-1.08-3.04
		c-0.69-0.8-1.64-1.46-2.85-2c-1.21-0.54-2.61-0.99-4.21-1.36c-1.41-0.34-2.71-0.75-3.89-1.24c-1.18-0.49-2.2-1.1-3.06-1.82
		c-0.86-0.72-1.53-1.59-2-2.62c-0.48-1.03-0.71-2.23-0.71-3.61c0-1.75,0.46-3.28,1.38-4.6c0.92-1.32,2.19-2.34,3.82-3.06
		c1.63-0.72,3.5-1.08,5.61-1.08c1.87,0,3.64,0.31,5.31,0.92c1.67,0.61,3.01,1.46,4.03,2.53c0.61,0.58,0.92,1.15,0.92,1.7
		c0,0.46-0.19,0.88-0.58,1.26c-0.38,0.38-0.82,0.58-1.31,0.58c-0.34,0-0.64-0.12-0.92-0.37c-0.52-0.58-1.18-1.1-1.98-1.56
		s-1.67-0.83-2.62-1.1s-1.9-0.41-2.85-0.41c-1.41,0-2.65,0.21-3.73,0.62c-1.07,0.41-1.91,1-2.51,1.75c-0.6,0.75-0.9,1.65-0.9,2.69
		c0,1.17,0.34,2.12,1.01,2.88c0.67,0.75,1.58,1.37,2.71,1.84c1.13,0.48,2.39,0.9,3.77,1.26c1.5,0.37,2.89,0.79,4.16,1.27
		c1.27,0.48,2.37,1.07,3.29,1.77c0.92,0.71,1.63,1.6,2.14,2.69c0.51,1.09,0.76,2.43,0.76,4.02c0,1.69-0.48,3.19-1.43,4.51
		C88.25,364.59,86.96,365.63,85.32,366.38z M119.77,361.34c1.09-1.87,1.63-3.99,1.63-6.35v-18.26c0-0.52-0.17-0.97-0.51-1.33
		c-0.34-0.37-0.77-0.55-1.29-0.55c-0.55,0-0.98,0.18-1.29,0.55c-0.31,0.37-0.46,0.81-0.46,1.33v18.26c0,1.69-0.41,3.19-1.22,4.51
		c-0.81,1.32-1.88,2.35-3.2,3.1c-1.32,0.75-2.76,1.13-4.32,1.13c-1.53,0-2.95-0.38-4.25-1.13s-2.34-1.79-3.1-3.1
		c-0.77-1.32-1.15-2.82-1.15-4.51v-18.26c0-0.52-0.19-0.97-0.58-1.33c-0.38-0.37-0.82-0.55-1.31-0.55c-0.58,0-1.05,0.18-1.4,0.55
		c-0.35,0.37-0.53,0.81-0.53,1.33v18.26c0,2.36,0.54,4.48,1.61,6.35c1.07,1.87,2.54,3.35,4.39,4.44c1.86,1.09,3.96,1.63,6.33,1.63
		c2.33,0,4.42-0.54,6.26-1.63C117.22,364.69,118.68,363.21,119.77,361.34z M147.81,363.27c0.95-1.32,1.43-2.82,1.43-4.51
		c0-1.59-0.25-2.94-0.76-4.02c-0.51-1.09-1.22-1.99-2.14-2.69c-0.92-0.71-2.02-1.3-3.29-1.77c-1.27-0.48-2.66-0.9-4.16-1.27
		c-1.38-0.37-2.64-0.79-3.77-1.26c-1.13-0.48-2.04-1.09-2.71-1.84c-0.68-0.75-1.01-1.71-1.01-2.88c0-1.04,0.3-1.94,0.9-2.69
		c0.6-0.75,1.43-1.33,2.51-1.75c1.07-0.41,2.32-0.62,3.73-0.62c0.95,0,1.9,0.14,2.85,0.41c0.95,0.28,1.82,0.64,2.62,1.1
		c0.8,0.46,1.46,0.98,1.98,1.56c0.28,0.25,0.58,0.37,0.92,0.37c0.49,0,0.93-0.19,1.31-0.58c0.38-0.38,0.58-0.8,0.58-1.26
		c0-0.55-0.31-1.12-0.92-1.7c-1.01-1.07-2.35-1.92-4.03-2.53c-1.67-0.61-3.44-0.92-5.31-0.92c-2.12,0-3.99,0.36-5.61,1.08
		c-1.63,0.72-2.9,1.74-3.82,3.06c-0.92,1.32-1.38,2.85-1.38,4.6c0,1.38,0.24,2.58,0.71,3.61c0.48,1.03,1.14,1.9,2,2.62
		c0.86,0.72,1.88,1.33,3.06,1.82c1.18,0.49,2.48,0.9,3.89,1.24c1.59,0.37,3,0.82,4.21,1.36c1.21,0.54,2.16,1.2,2.85,2
		c0.69,0.8,1.05,1.81,1.08,3.04c0,1.01-0.32,1.9-0.97,2.67c-0.64,0.77-1.51,1.36-2.6,1.79c-1.09,0.43-2.31,0.64-3.66,0.64
		c-1.75,0-3.32-0.31-4.71-0.92c-1.4-0.61-2.69-1.5-3.89-2.67c-0.34-0.34-0.72-0.51-1.15-0.51c-0.52,0-0.96,0.19-1.31,0.58
		c-0.35,0.38-0.53,0.82-0.53,1.31c0,0.31,0.07,0.59,0.21,0.85c0.14,0.26,0.31,0.5,0.53,0.71c1.59,1.47,3.25,2.55,4.97,3.22
		c1.72,0.67,3.71,1.01,5.98,1.01c2.05-0.03,3.9-0.42,5.54-1.17S146.86,364.59,147.81,363.27z M176.1,338.39
		c0.52,0,0.97-0.15,1.33-0.46c0.37-0.31,0.55-0.74,0.55-1.29c0-0.52-0.18-0.94-0.55-1.26c-0.37-0.32-0.81-0.48-1.33-0.48h-21.39
		c-0.52,0-0.96,0.16-1.31,0.48c-0.35,0.32-0.53,0.74-0.53,1.26c0,0.52,0.18,0.94,0.53,1.27s0.79,0.48,1.31,0.48h8.74v26.82
		c0,0.52,0.18,0.97,0.55,1.33c0.37,0.37,0.83,0.55,1.38,0.55c0.58,0,1.06-0.18,1.43-0.55c0.37-0.37,0.55-0.81,0.55-1.33v-26.82
		H176.1z M178.21,365.62c-0.03-0.21,0-0.44,0.09-0.69l11.91-28.98c0.15-0.43,0.39-0.74,0.71-0.94c0.32-0.2,0.68-0.28,1.08-0.25
		c0.4,0,0.76,0.11,1.08,0.32c0.32,0.21,0.54,0.51,0.67,0.87l11.87,28.7c0.09,0.25,0.14,0.49,0.14,0.74c0,0.55-0.18,0.99-0.55,1.31
		c-0.37,0.32-0.78,0.48-1.24,0.48c-0.37,0-0.71-0.11-1.01-0.32c-0.31-0.21-0.54-0.52-0.69-0.92l-3.1-7.45H184.6l-3.08,7.5
		c-0.12,0.37-0.34,0.66-0.64,0.87c-0.31,0.21-0.63,0.32-0.97,0.32c-0.58,0-1.01-0.15-1.29-0.46
		C178.35,366.42,178.21,366.05,178.21,365.62z M186.08,354.9h11.6l-5.84-14.02L186.08,354.9z M212.71,367.09
		c0.52,0,0.97-0.18,1.36-0.55c0.38-0.37,0.58-0.81,0.58-1.33v-28.43c0-0.55-0.18-1-0.55-1.36c-0.37-0.35-0.81-0.53-1.33-0.53
		c-0.55,0-1.01,0.18-1.38,0.53c-0.37,0.35-0.55,0.8-0.55,1.36v28.43c0,0.52,0.17,0.97,0.51,1.33
		C211.67,366.91,212.13,367.09,212.71,367.09z M244.91,366.49c0.15,0.18,0.37,0.33,0.64,0.44c0.28,0.11,0.55,0.16,0.83,0.16
		c0.52,0,0.97-0.18,1.33-0.53c0.37-0.35,0.55-0.82,0.55-1.4v-28.57c0-0.49-0.15-0.9-0.46-1.22c-0.31-0.32-0.72-0.48-1.24-0.48
		c-0.49,0-0.9,0.16-1.22,0.48c-0.32,0.32-0.48,0.73-0.48,1.22v23.82l-18.81-24.88c-0.15-0.21-0.38-0.38-0.67-0.48
		c-0.29-0.11-0.57-0.16-0.85-0.16c-0.49,0-0.91,0.17-1.26,0.51c-0.35,0.34-0.53,0.78-0.53,1.33v28.66c0,0.49,0.15,0.9,0.46,1.22
		c0.31,0.32,0.71,0.48,1.2,0.48c0.52,0,0.94-0.16,1.26-0.48c0.32-0.32,0.48-0.73,0.48-1.22v-23.72L244.91,366.49z M259.72,358.49
		l-3.08,7.5c-0.12,0.37-0.34,0.66-0.64,0.87c-0.31,0.21-0.63,0.32-0.97,0.32c-0.58,0-1.01-0.15-1.29-0.46
		c-0.28-0.31-0.41-0.67-0.41-1.1c-0.03-0.21,0-0.44,0.09-0.69l11.91-28.98c0.15-0.43,0.39-0.74,0.71-0.94
		c0.32-0.2,0.68-0.28,1.08-0.25c0.4,0,0.76,0.11,1.08,0.32c0.32,0.21,0.54,0.51,0.67,0.87l11.87,28.7c0.09,0.25,0.14,0.49,0.14,0.74
		c0,0.55-0.18,0.99-0.55,1.31c-0.37,0.32-0.78,0.48-1.24,0.48c-0.37,0-0.71-0.11-1.01-0.32c-0.31-0.21-0.54-0.52-0.69-0.92
		l-3.1-7.45H259.72z M261.2,354.9h11.6l-5.84-14.02L261.2,354.9z M299.88,367.09h-12.1c-0.52,0-0.96-0.18-1.31-0.55
		c-0.35-0.37-0.53-0.81-0.53-1.33v-28.47c0-0.52,0.18-0.96,0.53-1.31c0.35-0.35,0.79-0.53,1.31-0.53h12.01c2.7,0,4.78,0.7,6.23,2.09
		c1.46,1.4,2.19,3.37,2.19,5.91c0,1.35-0.31,2.59-0.92,3.73c-0.61,1.14-1.51,2.04-2.69,2.71c-0.25,0.14-0.52,0.27-0.8,0.38
		c1.01,0.31,1.95,0.76,2.82,1.37c0.97,0.67,1.75,1.56,2.35,2.67s0.9,2.47,0.9,4.09c0,1.75-0.29,3.21-0.87,4.39
		c-0.58,1.18-1.36,2.13-2.32,2.85c-0.97,0.72-2.04,1.23-3.22,1.54C302.26,366.94,301.08,367.09,299.88,367.09z M299.24,338.52h-9.34
		v10.03h9.43c1.35,0,2.51-0.44,3.47-1.31s1.45-2.17,1.45-3.89c0-1.53-0.45-2.72-1.33-3.56C302.03,338.95,300.8,338.52,299.24,338.52
		z M299.74,363.5c1.81,0,3.29-0.46,4.44-1.38c1.15-0.92,1.73-2.35,1.73-4.28c0-1.5-0.31-2.66-0.92-3.47
		c-0.61-0.81-1.4-1.37-2.37-1.68c-0.97-0.31-1.97-0.46-3.01-0.46h-9.71v11.27H299.74z M335.07,366.58c0.37-0.34,0.55-0.77,0.55-1.29
		c0-0.52-0.18-0.96-0.55-1.31c-0.37-0.35-0.81-0.53-1.33-0.53H319.8v-26.73c0-0.52-0.18-0.96-0.55-1.31
		c-0.37-0.35-0.81-0.53-1.33-0.53c-0.55,0-1.01,0.18-1.38,0.53c-0.37,0.35-0.55,0.79-0.55,1.31v28.47c0,0.52,0.18,0.97,0.53,1.33
		c0.35,0.37,0.79,0.55,1.31,0.55h15.92C334.26,367.09,334.7,366.92,335.07,366.58z M342.75,367.09h16.38c0.52,0,0.97-0.17,1.33-0.51
		c0.37-0.34,0.55-0.77,0.55-1.29c0-0.46-0.18-0.87-0.55-1.24c-0.37-0.37-0.81-0.55-1.33-0.55h-14.4v-11.18h12.33
		c0.52,0,0.97-0.16,1.33-0.48c0.37-0.32,0.55-0.74,0.55-1.27c0-0.52-0.18-0.95-0.55-1.29s-0.81-0.51-1.33-0.51h-12.33v-10.35h14.4
		c0.52,0,0.97-0.16,1.33-0.48c0.37-0.32,0.55-0.74,0.55-1.26s-0.18-0.95-0.55-1.29c-0.37-0.34-0.81-0.51-1.33-0.51h-16.38
		c-0.52,0-0.96,0.18-1.31,0.53c-0.35,0.35-0.53,0.79-0.53,1.31v28.47c0,0.52,0.18,0.97,0.53,1.33
		C341.79,366.91,342.23,367.09,342.75,367.09z M80.21,400.05c0.57,1.95,0.85,4,0.85,6.14c0,2.94-0.51,5.64-1.52,8.07
		c-1.01,2.44-2.51,4.39-4.51,5.84c-1.99,1.46-4.51,2.19-7.54,2.19h-11.5c-0.52,0-0.96-0.18-1.31-0.55
		c-0.35-0.37-0.53-0.81-0.53-1.33v-28.47c0-0.52,0.18-0.96,0.53-1.31c0.35-0.35,0.79-0.53,1.31-0.53h11.5
		c2.24,0,4.21,0.42,5.91,1.27c1.7,0.84,3.12,2.02,4.25,3.52C78.79,396.38,79.64,398.1,80.21,400.05z M77.11,406.19
		c0-1.66-0.19-3.24-0.58-4.76c-0.38-1.52-0.98-2.86-1.79-4.03c-0.81-1.17-1.86-2.08-3.13-2.76c-1.27-0.67-2.8-1.01-4.58-1.01h-9.06
		v25.07h9.06c2.36,0,4.29-0.57,5.77-1.7c1.49-1.13,2.58-2.65,3.27-4.55C76.76,410.55,77.11,408.46,77.11,406.19z M105.39,393.63
		c0.52,0,0.97-0.16,1.33-0.48c0.37-0.32,0.55-0.74,0.55-1.26s-0.18-0.95-0.55-1.29c-0.37-0.34-0.81-0.51-1.33-0.51H89.02
		c-0.52,0-0.96,0.18-1.31,0.53c-0.35,0.35-0.53,0.79-0.53,1.31v28.47c0,0.52,0.18,0.97,0.53,1.33c0.35,0.37,0.79,0.55,1.31,0.55
		h16.38c0.52,0,0.97-0.17,1.33-0.51c0.37-0.34,0.55-0.77,0.55-1.29c0-0.46-0.18-0.87-0.55-1.24c-0.37-0.37-0.81-0.55-1.33-0.55H91
		v-11.18h12.33c0.52,0,0.97-0.16,1.33-0.48c0.37-0.32,0.55-0.74,0.55-1.27c0-0.52-0.18-0.95-0.55-1.29
		c-0.37-0.34-0.81-0.51-1.33-0.51H91v-10.35H105.39z M136.77,390.04c-0.77,0-1.33,0.38-1.7,1.15l-10.11,25.03l-10.46-24.93
		c-0.37-0.86-0.97-1.29-1.79-1.29c-0.4,0-0.8,0.16-1.22,0.48c-0.41,0.32-0.62,0.77-0.62,1.36c0,0.15,0.02,0.3,0.05,0.44
		c0.03,0.14,0.08,0.27,0.14,0.39l11.96,28.43c0.15,0.37,0.38,0.65,0.69,0.85c0.31,0.2,0.63,0.31,0.97,0.35c0.37,0,0.71-0.1,1.04-0.3
		c0.32-0.2,0.58-0.5,0.76-0.9l12.01-28.47c0.12-0.31,0.18-0.58,0.18-0.83c0-0.52-0.18-0.94-0.55-1.27
		C137.73,390.21,137.29,390.04,136.77,390.04z M162.39,393.63c0.52,0,0.97-0.16,1.33-0.48c0.37-0.32,0.55-0.74,0.55-1.26
		s-0.18-0.95-0.55-1.29c-0.37-0.34-0.81-0.51-1.33-0.51h-16.38c-0.52,0-0.96,0.18-1.31,0.53c-0.35,0.35-0.53,0.79-0.53,1.31v28.47
		c0,0.52,0.18,0.97,0.53,1.33c0.35,0.37,0.79,0.55,1.31,0.55h16.38c0.52,0,0.97-0.17,1.33-0.51c0.37-0.34,0.55-0.77,0.55-1.29
		c0-0.46-0.18-0.87-0.55-1.24c-0.37-0.37-0.81-0.55-1.33-0.55h-14.4v-11.18h12.33c0.52,0,0.97-0.16,1.33-0.48
		c0.37-0.32,0.55-0.74,0.55-1.27c0-0.52-0.18-0.95-0.55-1.29c-0.37-0.34-0.81-0.51-1.33-0.51h-12.33v-10.35H162.39z M188.15,418.66
		h-13.94v-26.73c0-0.52-0.18-0.96-0.55-1.31c-0.37-0.35-0.81-0.53-1.33-0.53c-0.55,0-1.01,0.18-1.38,0.53
		c-0.37,0.35-0.55,0.79-0.55,1.31v28.47c0,0.52,0.18,0.97,0.53,1.33c0.35,0.37,0.79,0.55,1.31,0.55h15.92
		c0.52,0,0.97-0.17,1.33-0.51c0.37-0.34,0.55-0.77,0.55-1.29c0-0.52-0.18-0.96-0.55-1.31C189.11,418.83,188.67,418.66,188.15,418.66
		z M222.74,399.59c0.77,2.01,1.15,4.21,1.15,6.6c0,2.36-0.38,4.55-1.15,6.56c-0.77,2.01-1.84,3.76-3.22,5.27
		c-1.38,1.5-3.02,2.67-4.92,3.5c-1.9,0.83-3.97,1.24-6.21,1.24c-2.27,0-4.35-0.41-6.23-1.24c-1.89-0.83-3.52-1.99-4.9-3.5
		c-1.38-1.5-2.45-3.26-3.22-5.27c-0.77-2.01-1.15-4.19-1.15-6.56c0-2.39,0.38-4.59,1.15-6.6c0.77-2.01,1.84-3.76,3.22-5.24
		c1.38-1.49,3.01-2.65,4.9-3.47s3.96-1.24,6.23-1.24c2.24,0,4.31,0.41,6.21,1.24c1.9,0.83,3.54,1.99,4.92,3.47
		C220.9,395.83,221.97,397.58,222.74,399.59z M219.93,406.19c0-2.51-0.5-4.74-1.5-6.67c-1-1.93-2.35-3.45-4.07-4.55
		c-1.72-1.1-3.71-1.66-5.98-1.66s-4.27,0.55-6,1.66s-3.09,2.62-4.07,4.55c-0.98,1.93-1.47,4.16-1.47,6.67c0,2.48,0.49,4.7,1.47,6.65
		c0.98,1.95,2.34,3.47,4.07,4.58s3.73,1.66,6,1.66s4.26-0.55,5.98-1.66c1.72-1.1,3.07-2.63,4.07-4.58
		C219.43,410.89,219.93,408.67,219.93,406.19z M250.36,394.74c0.78,1.44,1.17,3.08,1.17,4.92c0,1.81-0.39,3.45-1.17,4.92
		c-0.78,1.47-1.85,2.64-3.2,3.5c-1.35,0.86-2.87,1.29-4.55,1.29h-9.02v11.04c0,0.52-0.17,0.97-0.51,1.33
		c-0.34,0.37-0.77,0.55-1.29,0.55c-0.55,0-0.99-0.18-1.31-0.55c-0.32-0.37-0.48-0.81-0.48-1.33v-28.47c0-0.52,0.18-0.96,0.53-1.31
		c0.35-0.35,0.79-0.53,1.31-0.53h10.76c1.69,0,3.2,0.41,4.55,1.24C248.51,392.16,249.58,393.3,250.36,394.74z M247.81,399.66
		c0-1.17-0.23-2.19-0.69-3.08c-0.46-0.89-1.07-1.6-1.84-2.14c-0.77-0.54-1.66-0.81-2.67-0.81h-9.02v12.19h9.02
		c1.01,0,1.9-0.28,2.67-0.83c0.77-0.55,1.38-1.3,1.84-2.25C247.58,401.79,247.81,400.76,247.81,399.66z M285.57,390.04
		c-0.64-0.03-1.17,0.25-1.56,0.83l-11.53,17.21l-11.38-17.21c-0.18-0.25-0.44-0.44-0.76-0.6c-0.32-0.15-0.62-0.23-0.9-0.23
		c-0.55,0-1,0.19-1.36,0.58c-0.35,0.38-0.53,0.82-0.53,1.31v28.47c0,0.52,0.16,0.97,0.48,1.33c0.32,0.37,0.74,0.55,1.27,0.55
		c0.52,0,0.95-0.18,1.29-0.55c0.34-0.37,0.51-0.81,0.51-1.33v-23.26l9.75,15.03c0.18,0.21,0.41,0.4,0.69,0.55
		c0.28,0.15,0.55,0.23,0.83,0.23c0.28,0,0.54-0.08,0.81-0.23c0.26-0.15,0.48-0.34,0.67-0.55l9.71-14.77v23
		c0,0.52,0.18,0.97,0.55,1.33c0.37,0.37,0.83,0.55,1.38,0.55s1.01-0.18,1.38-0.55c0.37-0.37,0.55-0.81,0.55-1.33v-28.47
		c0-0.55-0.18-1-0.55-1.33C286.49,390.26,286.06,390.08,285.57,390.04z M313.68,393.63c0.52,0,0.97-0.16,1.33-0.48
		c0.37-0.32,0.55-0.74,0.55-1.26s-0.18-0.95-0.55-1.29c-0.37-0.34-0.81-0.51-1.33-0.51H297.3c-0.52,0-0.96,0.18-1.31,0.53
		c-0.35,0.35-0.53,0.79-0.53,1.31v28.47c0,0.52,0.18,0.97,0.53,1.33c0.35,0.37,0.79,0.55,1.31,0.55h16.38
		c0.52,0,0.97-0.17,1.33-0.51c0.37-0.34,0.55-0.77,0.55-1.29c0-0.46-0.18-0.87-0.55-1.24c-0.37-0.37-0.81-0.55-1.33-0.55h-14.4
		v-11.18h12.33c0.52,0,0.97-0.16,1.33-0.48c0.37-0.32,0.55-0.74,0.55-1.27c0-0.52-0.18-0.95-0.55-1.29
		c-0.37-0.34-0.81-0.51-1.33-0.51h-12.33v-10.35H313.68z M345.51,390.09c-0.49,0-0.9,0.16-1.22,0.48c-0.32,0.32-0.48,0.73-0.48,1.22
		v23.82L325,390.73c-0.15-0.21-0.38-0.38-0.67-0.48c-0.29-0.11-0.57-0.16-0.85-0.16c-0.49,0-0.91,0.17-1.26,0.51
		c-0.35,0.34-0.53,0.78-0.53,1.33v28.66c0,0.49,0.15,0.9,0.46,1.22c0.31,0.32,0.71,0.48,1.2,0.48c0.52,0,0.94-0.16,1.26-0.48
		c0.32-0.32,0.48-0.73,0.48-1.22v-23.72l18.77,24.82c0.15,0.18,0.37,0.33,0.64,0.44c0.28,0.11,0.55,0.16,0.83,0.16
		c0.52,0,0.97-0.18,1.33-0.53c0.37-0.35,0.55-0.82,0.55-1.4v-28.57c0-0.49-0.15-0.9-0.46-1.22
		C346.45,390.25,346.03,390.09,345.51,390.09z M377.3,390.57c-0.37-0.32-0.81-0.48-1.33-0.48h-21.39c-0.52,0-0.96,0.16-1.31,0.48
		c-0.35,0.32-0.53,0.74-0.53,1.26c0,0.52,0.18,0.94,0.53,1.27s0.79,0.48,1.31,0.48h8.74v26.82c0,0.52,0.18,0.97,0.55,1.33
		c0.37,0.37,0.83,0.55,1.38,0.55c0.58,0,1.06-0.18,1.43-0.55c0.37-0.37,0.55-0.81,0.55-1.33v-26.82h8.74c0.52,0,0.97-0.15,1.33-0.46
		c0.37-0.31,0.55-0.74,0.55-1.29C377.85,391.32,377.67,390.9,377.3,390.57z"/>
</g>
<g id="Layer_22">
</g>
<g id="Layer_23">
</g>
<g id="Layer_24">
</g>
<g id="Layer_25">
</g>
<g id="Layer_26">
</g>
<g id="Layer_27">
</g>
<g id="Layer_28">
</g>
<g id="Layer_29">
</g>
<g id="Layer_30">
</g>
<g id="Layer_31">
</g>
<g id="Layer_2">
</g>
<g id="Layer_3">
</g>
<g id="Layer_4">
</g>
<g id="Layer_5">
</g>
<g id="Layer_6">
</g>
<g id="Layer_7">
</g>
<g id="Layer_8">
</g>
<g id="Layer_9">
</g>
<g id="Layer_10">
</g>
<g id="Layer_11">
</g>
<g id="Layer_12">
</g>
<g id="Layer_13">
</g>
<g id="Layer_14">
</g>
<g id="Layer_15">
</g>
<g id="Layer_16">
</g>
<g id="Layer_32">
</g>
<g id="Layer_33">
</g>
<g id="Layer_34">
</g>
<g id="Layer_35">
</g>
<g id="Layer_49">
</g>
<g id="Layer_50">
</g>
<g id="Layer_51">
</g>
</svg>
