<?xml version="1.0" encoding="utf-8"?>
<!-- Generator: Adobe Illustrator 23.0.1, SVG Export Plug-In . SVG Version: 6.00 Build 0)  -->
<svg version="1.1" xmlns="http://www.w3.org/2000/svg" xmlns:xlink="http://www.w3.org/1999/xlink" x="0px" y="0px"
	 viewBox="0 0 432 432" enable-background="new 0 0 432 432" xml:space="preserve">
<g id="Layer_37">
</g>
<g id="Layer_47">
</g>
<g id="Layer_42">
</g>
<g id="Layer_43">
</g>
<g id="Layer_44">
</g>
<g id="Layer_45">
</g>
<g id="Layer_46">
</g>
<g id="Layer_38">
</g>
<g id="Layer_39">
</g>
<g id="Layer_40">
</g>
<g id="Layer_41">
</g>
<g id="Layer_17">
</g>
<g id="Layer_18">
</g>
<g id="Layer_19">
</g>
<g id="Layer_20">
</g>
<g id="Layer_21">
</g>
<g id="Layer_22">
</g>
<g id="Layer_23">
</g>
<g id="Layer_24">
	<path d="M363.5,165c0,81.33-66.17,147.5-147.5,147.5S68.5,246.33,68.5,165S134.67,17.5,216,17.5S363.5,83.67,363.5,165z M358.5,165
		c0-78.57-63.92-142.5-142.5-142.5S73.5,86.43,73.5,165c0,78.58,63.92,142.5,142.5,142.5S358.5,243.58,358.5,165z M275.68,222.31
		c3.1,6.1,2.82,13.22-0.76,19.06s-9.8,9.32-16.64,9.32h-84.57c-6.84,0-13.06-3.48-16.64-9.32s-3.86-12.96-0.76-19.06
		c0.02-0.03,0.03-0.06,0.05-0.09L195.81,152V93.41h-2.61c-4.62,0-8.38-3.76-8.38-8.38v-6.58c0-4.62,3.76-8.38,8.38-8.38h45.61
		c4.62,0,8.38,3.76,8.38,8.38v6.58c0,4.62-3.76,8.38-8.38,8.38h-2.61V152l39.45,70.22C275.65,222.25,275.67,222.28,275.68,222.31z
		 M271.25,224.62l-39.74-70.75c-0.21-0.37-0.32-0.8-0.32-1.22V93.41h-11.74c-1.38,0-2.5-1.12-2.5-2.5s1.12-2.5,2.5-2.5h19.35
		c1.87,0,3.38-1.52,3.38-3.38v-6.58c0-1.87-1.52-3.38-3.38-3.38H193.2c-1.87,0-3.38,1.52-3.38,3.38v6.58c0,1.87,1.52,3.38,3.38,3.38
		h5.11c1.38,0,2.5,1.12,2.5,2.5v61.74c0,0.43-0.11,0.85-0.32,1.22l-39.74,70.75c-2.29,4.53-2.07,9.81,0.58,14.13
		c2.66,4.34,7.29,6.93,12.38,6.93h84.57c5.09,0,9.72-2.59,12.38-6.93C273.32,234.43,273.54,229.15,271.25,224.62z M258.31,218.48
		c2.33,4.57,2.12,9.82-0.52,14.12c-2.64,4.3-7.22,6.87-12.26,6.87h-59.06c-5.04,0-9.63-2.57-12.26-6.87
		c-2.64-4.3-2.84-9.55-0.56-14.04c0.02-0.03,0.03-0.06,0.05-0.09l13.36-23.78c0.36-0.64,0.99-1.09,1.71-1.23
		c0.72-0.14,1.47,0.05,2.04,0.51c0.57,0.46,14.19,11.23,23.27,0.34c6.27-7.51,12.04-10.93,17.61-10.48
		c7.2,0.59,11.43,7.75,13.23,10.82C248.36,200.48,257.91,217.75,258.31,218.48z M253.9,220.82c-0.06-0.1-9.87-17.87-13.28-23.64
		c-1.53-2.6-4.72-8-9.33-8.37c-3.74-0.29-8.36,2.71-13.36,8.7c-8.69,10.42-20.91,6.57-27.88,2.06l-11.96,21.29
		c-1.47,2.92-1.33,6.33,0.39,9.12c1.72,2.81,4.71,4.48,8,4.48h59.06c3.29,0,6.28-1.67,8-4.48
		C255.25,227.18,255.39,223.75,253.9,220.82z"/>
	<path id="sls_free" d="M139.73,354.74c0.51,1.09,0.76,2.43,0.76,4.03c0,1.69-0.48,3.19-1.43,4.51c-0.95,1.32-2.25,2.35-3.89,3.11
		c-1.64,0.75-3.49,1.14-5.54,1.17c-2.27,0-4.26-0.34-5.98-1.01c-1.72-0.67-3.38-1.75-4.97-3.22c-0.21-0.21-0.39-0.45-0.53-0.71
		c-0.14-0.26-0.21-0.54-0.21-0.85c0-0.49,0.18-0.93,0.53-1.31c0.35-0.38,0.79-0.58,1.31-0.58c0.43,0,0.81,0.17,1.15,0.51
		c1.2,1.17,2.49,2.05,3.89,2.67s2.97,0.92,4.71,0.92c1.35,0,2.57-0.21,3.66-0.64c1.09-0.43,1.96-1.03,2.6-1.79
		c0.64-0.77,0.97-1.66,0.97-2.67c-0.03-1.23-0.39-2.24-1.08-3.04c-0.69-0.8-1.64-1.46-2.85-2c-1.21-0.54-2.61-0.99-4.21-1.36
		c-1.41-0.34-2.71-0.75-3.89-1.24c-1.18-0.49-2.2-1.1-3.06-1.82c-0.86-0.72-1.53-1.59-2-2.62c-0.48-1.03-0.71-2.23-0.71-3.61
		c0-1.75,0.46-3.28,1.38-4.6c0.92-1.32,2.19-2.34,3.82-3.06c1.63-0.72,3.5-1.08,5.61-1.08c1.87,0,3.64,0.31,5.31,0.92
		c1.67,0.61,3.01,1.46,4.03,2.53c0.61,0.58,0.92,1.15,0.92,1.7c0,0.46-0.19,0.88-0.57,1.26c-0.38,0.38-0.82,0.58-1.31,0.58
		c-0.34,0-0.64-0.12-0.92-0.37c-0.52-0.58-1.18-1.1-1.98-1.56c-0.8-0.46-1.67-0.83-2.62-1.1c-0.95-0.28-1.9-0.41-2.85-0.41
		c-1.41,0-2.65,0.21-3.73,0.62c-1.07,0.41-1.91,1-2.51,1.75c-0.6,0.75-0.9,1.65-0.9,2.69c0,1.17,0.34,2.12,1.01,2.88
		c0.67,0.75,1.58,1.37,2.71,1.84s2.39,0.9,3.77,1.26c1.5,0.37,2.89,0.79,4.16,1.26c1.27,0.48,2.37,1.07,3.29,1.77
		S139.23,353.65,139.73,354.74z M164.41,363.46h-13.94v-26.73c0-0.52-0.18-0.96-0.55-1.31s-0.81-0.53-1.33-0.53
		c-0.55,0-1.01,0.18-1.38,0.53c-0.37,0.35-0.55,0.79-0.55,1.31v28.47c0,0.52,0.18,0.97,0.53,1.33c0.35,0.37,0.79,0.55,1.31,0.55
		h15.92c0.52,0,0.97-0.17,1.33-0.51s0.55-0.77,0.55-1.29s-0.18-0.96-0.55-1.31C165.38,363.64,164.93,363.46,164.41,363.46z
		 M188.93,352.05c-0.92-0.71-2.02-1.3-3.29-1.77c-1.27-0.47-2.66-0.9-4.16-1.26c-1.38-0.37-2.64-0.79-3.77-1.26
		c-1.13-0.48-2.04-1.09-2.71-1.84c-0.67-0.75-1.01-1.71-1.01-2.88c0-1.04,0.3-1.94,0.9-2.69c0.6-0.75,1.43-1.33,2.51-1.75
		c1.07-0.41,2.31-0.62,3.73-0.62c0.95,0,1.9,0.14,2.85,0.41c0.95,0.28,1.82,0.64,2.62,1.1c0.8,0.46,1.46,0.98,1.98,1.56
		c0.28,0.25,0.58,0.37,0.92,0.37c0.49,0,0.93-0.19,1.31-0.58c0.38-0.38,0.58-0.8,0.58-1.26c0-0.55-0.31-1.12-0.92-1.7
		c-1.01-1.07-2.35-1.92-4.03-2.53c-1.67-0.61-3.44-0.92-5.31-0.92c-2.12,0-3.99,0.36-5.61,1.08s-2.9,1.74-3.82,3.06
		c-0.92,1.32-1.38,2.85-1.38,4.6c0,1.38,0.24,2.58,0.71,3.61c0.47,1.03,1.14,1.9,2,2.62c0.86,0.72,1.88,1.33,3.06,1.82
		c1.18,0.49,2.48,0.9,3.89,1.24c1.59,0.37,3,0.82,4.21,1.36c1.21,0.54,2.16,1.2,2.85,2c0.69,0.8,1.05,1.81,1.08,3.04
		c0,1.01-0.32,1.9-0.97,2.67c-0.64,0.77-1.51,1.37-2.6,1.79c-1.09,0.43-2.31,0.64-3.66,0.64c-1.75,0-3.32-0.31-4.71-0.92
		c-1.4-0.61-2.69-1.5-3.89-2.67c-0.34-0.34-0.72-0.51-1.15-0.51c-0.52,0-0.96,0.19-1.31,0.58c-0.35,0.38-0.53,0.82-0.53,1.31
		c0,0.31,0.07,0.59,0.21,0.85c0.14,0.26,0.31,0.5,0.53,0.71c1.59,1.47,3.25,2.55,4.97,3.22c1.72,0.67,3.71,1.01,5.98,1.01
		c2.05-0.03,3.9-0.42,5.54-1.17s2.94-1.79,3.89-3.11c0.95-1.32,1.43-2.82,1.43-4.51c0-1.59-0.25-2.94-0.76-4.03
		C190.56,353.65,189.85,352.76,188.93,352.05z M228.63,334.89h-16.15c-0.52,0-0.96,0.18-1.31,0.53s-0.53,0.79-0.53,1.31v28.47
		c0,0.52,0.18,0.97,0.53,1.33c0.35,0.37,0.8,0.55,1.36,0.55c0.52,0,0.97-0.18,1.33-0.55c0.37-0.37,0.55-0.81,0.55-1.33v-12.79h12.14
		c0.52,0,0.97-0.18,1.33-0.53s0.55-0.76,0.55-1.22c0-0.52-0.18-0.96-0.55-1.31c-0.37-0.35-0.81-0.53-1.33-0.53h-12.14v-10.4h14.21
		c0.52,0,0.97-0.17,1.33-0.51c0.37-0.34,0.55-0.75,0.55-1.24c0-0.52-0.18-0.95-0.55-1.29C229.59,335.06,229.15,334.89,228.63,334.89
		z M261.54,365.02c0.14,0.46,0.05,0.91-0.25,1.33c-0.18,0.28-0.45,0.47-0.78,0.58c-0.34,0.11-0.67,0.15-1.01,0.12
		c-0.34-0.03-0.63-0.12-0.87-0.28c-0.49-0.28-0.97-0.68-1.43-1.22c-0.46-0.54-0.84-1.31-1.15-2.32s-0.46-2.39-0.46-4.14
		c0-0.98-0.15-1.79-0.46-2.44c-0.31-0.64-0.72-1.17-1.24-1.56s-1.1-0.67-1.75-0.83s-1.3-0.23-1.98-0.23h-9.71v11.18
		c0,0.52-0.15,0.97-0.46,1.33c-0.31,0.37-0.72,0.55-1.24,0.55c-0.58,0-1.08-0.18-1.5-0.55c-0.41-0.37-0.62-0.81-0.62-1.33v-28.47
		c0-0.52,0.18-0.96,0.53-1.31c0.35-0.35,0.79-0.53,1.31-0.53h12.7c1.72,0,3.27,0.39,4.65,1.17c1.38,0.78,2.48,1.86,3.29,3.22
		c0.81,1.37,1.22,2.94,1.22,4.72c0,1.29-0.25,2.49-0.74,3.61c-0.49,1.12-1.17,2.09-2.02,2.9c-0.73,0.69-1.55,1.23-2.46,1.65
		c0.46,0.22,0.9,0.48,1.31,0.79c0.83,0.63,1.5,1.43,2.02,2.39c0.52,0.97,0.8,2.09,0.83,3.38c0.06,1.13,0.14,2.04,0.23,2.71
		c0.09,0.67,0.23,1.2,0.41,1.59c0.18,0.38,0.44,0.68,0.78,0.9C261.12,364.2,261.4,364.56,261.54,365.02z M255.6,347.47
		c0.51-1,0.76-2.12,0.76-3.38c0-1.63-0.51-2.97-1.54-4.05s-2.32-1.61-3.89-1.61h-10.49v12.28h10.72c0.89-0.06,1.73-0.37,2.51-0.92
		C254.46,349.25,255.1,348.47,255.6,347.47z M285.94,338.44c0.52,0,0.96-0.16,1.33-0.48c0.37-0.32,0.55-0.74,0.55-1.26
		s-0.18-0.95-0.55-1.29c-0.37-0.34-0.81-0.51-1.33-0.51h-16.38c-0.52,0-0.96,0.18-1.31,0.53c-0.35,0.35-0.53,0.79-0.53,1.31v28.47
		c0,0.52,0.18,0.97,0.53,1.33c0.35,0.37,0.79,0.55,1.31,0.55h16.38c0.52,0,0.96-0.17,1.33-0.51c0.37-0.34,0.55-0.77,0.55-1.29
		c0-0.46-0.18-0.87-0.55-1.24c-0.37-0.37-0.81-0.55-1.33-0.55h-14.4v-11.18h12.33c0.52,0,0.97-0.16,1.33-0.48
		c0.37-0.32,0.55-0.74,0.55-1.27c0-0.52-0.18-0.95-0.55-1.29c-0.37-0.34-0.81-0.51-1.33-0.51h-12.33v-10.35H285.94z M312.16,363.51
		h-14.4v-11.18h12.33c0.52,0,0.97-0.16,1.33-0.48c0.37-0.32,0.55-0.74,0.55-1.27c0-0.52-0.18-0.95-0.55-1.29
		c-0.37-0.34-0.81-0.51-1.33-0.51h-12.33v-10.35h14.4c0.52,0,0.97-0.16,1.33-0.48c0.37-0.32,0.55-0.74,0.55-1.26
		s-0.18-0.95-0.55-1.29c-0.37-0.34-0.81-0.51-1.33-0.51h-16.38c-0.52,0-0.96,0.18-1.31,0.53s-0.53,0.79-0.53,1.31v28.47
		c0,0.52,0.18,0.97,0.53,1.33c0.35,0.37,0.79,0.55,1.31,0.55h16.38c0.52,0,0.97-0.17,1.33-0.51c0.37-0.34,0.55-0.77,0.55-1.29
		c0-0.46-0.18-0.87-0.55-1.24C313.13,363.69,312.68,363.51,312.16,363.51z"/>
</g>
<g id="Layer_25">
</g>
<g id="Layer_26">
</g>
<g id="Layer_27">
</g>
<g id="Layer_28">
</g>
<g id="Layer_29">
</g>
<g id="Layer_30">
</g>
<g id="Layer_31">
</g>
<g id="Layer_2">
</g>
<g id="Layer_3">
</g>
<g id="Layer_4">
</g>
<g id="Layer_5">
</g>
<g id="Layer_6">
</g>
<g id="Layer_7">
</g>
<g id="Layer_8">
</g>
<g id="Layer_9">
</g>
<g id="Layer_10">
</g>
<g id="Layer_11">
</g>
<g id="Layer_12">
</g>
<g id="Layer_13">
</g>
<g id="Layer_14">
</g>
<g id="Layer_15">
</g>
<g id="Layer_16">
</g>
<g id="Layer_32">
</g>
<g id="Layer_33">
</g>
<g id="Layer_34">
</g>
<g id="Layer_35">
</g>
<g id="Layer_49">
</g>
<g id="Layer_50">
</g>
<g id="Layer_51">
</g>
</svg>
