<?xml version="1.0" encoding="utf-8"?>
<!-- Generator: Adobe Illustrator 23.0.1, SVG Export Plug-In . SVG Version: 6.00 Build 0)  -->
<svg version="1.1" xmlns="http://www.w3.org/2000/svg" xmlns:xlink="http://www.w3.org/1999/xlink" x="0px" y="0px"
	 viewBox="0 0 432 432" enable-background="new 0 0 432 432" xml:space="preserve">
<g id="Layer_37">
</g>
<g id="Layer_47">
</g>
<g id="Layer_42">
</g>
<g id="Layer_43">
</g>
<g id="Layer_44">
</g>
<g id="Layer_45">
</g>
<g id="Layer_46">
</g>
<g id="Layer_38">
</g>
<g id="Layer_39">
</g>
<g id="Layer_40">
</g>
<g id="Layer_41">
</g>
<g id="Layer_17">
</g>
<g id="Layer_18">
</g>
<g id="Layer_19">
</g>
<g id="Layer_20">
</g>
<g id="Layer_21">
</g>
<g id="Layer_22">
</g>
<g id="Layer_23">
</g>
<g id="Layer_24">
</g>
<g id="Layer_25">
</g>
<g id="Layer_26">
</g>
<g id="Layer_27">
</g>
<g id="Layer_28">
</g>
<g id="Layer_29">
</g>
<g id="Layer_30">
</g>
<g id="Layer_31">
</g>
<g id="Layer_2">
</g>
<g id="Layer_3">
	<path id="sulfate_free" d="M83.52,354.74c0.51,1.09,0.76,2.43,0.76,4.02c0,1.69-0.48,3.19-1.43,4.51
		c-0.95,1.32-2.25,2.35-3.89,3.11c-1.64,0.75-3.49,1.14-5.54,1.17c-2.27,0-4.26-0.34-5.98-1.01c-1.72-0.67-3.37-1.75-4.97-3.22
		c-0.21-0.21-0.39-0.45-0.53-0.71c-0.14-0.26-0.21-0.54-0.21-0.85c0-0.49,0.18-0.93,0.53-1.31c0.35-0.38,0.79-0.57,1.31-0.57
		c0.43,0,0.81,0.17,1.15,0.51c1.2,1.17,2.49,2.05,3.89,2.67c1.4,0.61,2.97,0.92,4.71,0.92c1.35,0,2.57-0.21,3.66-0.64
		c1.09-0.43,1.96-1.03,2.6-1.79c0.64-0.77,0.97-1.66,0.97-2.67c-0.03-1.23-0.39-2.24-1.08-3.04c-0.69-0.8-1.64-1.46-2.85-2
		c-1.21-0.54-2.61-0.99-4.21-1.36c-1.41-0.34-2.71-0.75-3.89-1.24c-1.18-0.49-2.2-1.1-3.06-1.82c-0.86-0.72-1.53-1.59-2-2.62
		c-0.48-1.03-0.71-2.23-0.71-3.61c0-1.75,0.46-3.28,1.38-4.6s2.19-2.34,3.82-3.06c1.63-0.72,3.5-1.08,5.61-1.08
		c1.87,0,3.64,0.31,5.31,0.92c1.67,0.61,3.01,1.46,4.03,2.53c0.61,0.58,0.92,1.15,0.92,1.7c0,0.46-0.19,0.88-0.58,1.26
		c-0.38,0.38-0.82,0.58-1.31,0.58c-0.34,0-0.64-0.12-0.92-0.37c-0.52-0.58-1.18-1.1-1.98-1.56c-0.8-0.46-1.67-0.83-2.62-1.1
		c-0.95-0.28-1.9-0.41-2.85-0.41c-1.41,0-2.65,0.21-3.73,0.62c-1.07,0.41-1.91,1-2.51,1.75c-0.6,0.75-0.9,1.65-0.9,2.69
		c0,1.17,0.34,2.12,1.01,2.88c0.67,0.75,1.58,1.36,2.71,1.84c1.13,0.48,2.39,0.9,3.77,1.26c1.5,0.37,2.89,0.79,4.16,1.26
		c1.27,0.48,2.37,1.07,3.29,1.77C82.3,352.76,83.02,353.65,83.52,354.74z M113.26,334.85c-0.55,0-0.98,0.18-1.29,0.55
		c-0.31,0.37-0.46,0.81-0.46,1.33V355c0,1.69-0.41,3.19-1.22,4.51c-0.81,1.32-1.88,2.35-3.2,3.1c-1.32,0.75-2.76,1.13-4.32,1.13
		c-1.53,0-2.95-0.38-4.25-1.13c-1.3-0.75-2.34-1.79-3.1-3.1c-0.77-1.32-1.15-2.82-1.15-4.51v-18.26c0-0.52-0.19-0.97-0.58-1.33
		c-0.38-0.37-0.82-0.55-1.31-0.55c-0.58,0-1.05,0.18-1.4,0.55c-0.35,0.37-0.53,0.81-0.53,1.33V355c0,2.36,0.54,4.48,1.61,6.35
		c1.07,1.87,2.54,3.35,4.39,4.44s3.96,1.63,6.33,1.63c2.33,0,4.42-0.54,6.26-1.63c1.84-1.09,3.3-2.57,4.39-4.44
		c1.09-1.87,1.63-3.99,1.63-6.35v-18.26c0-0.52-0.17-0.97-0.51-1.33C114.21,335.03,113.78,334.85,113.26,334.85z M140.86,363.46
		h-13.94v-26.73c0-0.52-0.18-0.96-0.55-1.31s-0.81-0.53-1.33-0.53c-0.55,0-1.01,0.18-1.38,0.53c-0.37,0.35-0.55,0.79-0.55,1.31
		v28.47c0,0.52,0.18,0.97,0.53,1.33c0.35,0.37,0.79,0.55,1.31,0.55h15.92c0.52,0,0.97-0.17,1.33-0.51c0.37-0.34,0.55-0.77,0.55-1.29
		s-0.18-0.96-0.55-1.31C141.83,363.64,141.38,363.46,140.86,363.46z M166.02,334.89h-16.15c-0.52,0-0.96,0.18-1.31,0.53
		c-0.35,0.35-0.53,0.79-0.53,1.31v28.47c0,0.52,0.18,0.97,0.53,1.33c0.35,0.37,0.8,0.55,1.36,0.55c0.52,0,0.97-0.18,1.33-0.55
		s0.55-0.81,0.55-1.33v-12.79h12.14c0.52,0,0.97-0.18,1.33-0.53c0.37-0.35,0.55-0.76,0.55-1.22c0-0.52-0.18-0.96-0.55-1.31
		c-0.37-0.35-0.81-0.53-1.33-0.53h-12.14v-10.4h14.21c0.52,0,0.97-0.17,1.33-0.51c0.37-0.34,0.55-0.75,0.55-1.24
		c0-0.52-0.18-0.95-0.55-1.29C166.99,335.06,166.54,334.89,166.02,334.89z M196.98,364.66c0.09,0.25,0.14,0.49,0.14,0.74
		c0,0.55-0.18,0.99-0.55,1.31c-0.37,0.32-0.78,0.48-1.24,0.48c-0.37,0-0.71-0.11-1.01-0.32c-0.31-0.21-0.54-0.52-0.69-0.92
		l-3.1-7.45h-14.57l-3.08,7.5c-0.12,0.37-0.34,0.66-0.64,0.87c-0.31,0.22-0.63,0.32-0.97,0.32c-0.58,0-1.01-0.15-1.29-0.46
		c-0.28-0.31-0.41-0.67-0.41-1.1c-0.03-0.21,0-0.44,0.09-0.69l11.91-28.98c0.15-0.43,0.39-0.74,0.71-0.94
		c0.32-0.2,0.68-0.28,1.08-0.25c0.4,0,0.76,0.11,1.08,0.32c0.32,0.21,0.54,0.51,0.67,0.87L196.98,364.66z M189.03,354.9l-5.84-14.02
		l-5.76,14.02H189.03z M220.58,334.89h-21.39c-0.52,0-0.96,0.16-1.31,0.48s-0.53,0.74-0.53,1.26c0,0.52,0.18,0.94,0.53,1.27
		c0.35,0.32,0.79,0.48,1.31,0.48h8.74v26.82c0,0.52,0.18,0.97,0.55,1.33c0.37,0.37,0.83,0.55,1.38,0.55c0.58,0,1.06-0.18,1.43-0.55
		s0.55-0.81,0.55-1.33v-26.82h8.74c0.52,0,0.97-0.15,1.33-0.46c0.37-0.31,0.55-0.74,0.55-1.29c0-0.52-0.18-0.94-0.55-1.26
		S221.1,334.89,220.58,334.89z M246.2,338.44c0.52,0,0.97-0.16,1.33-0.48c0.37-0.32,0.55-0.74,0.55-1.27c0-0.52-0.18-0.95-0.55-1.29
		c-0.37-0.34-0.81-0.51-1.33-0.51h-16.38c-0.52,0-0.96,0.18-1.31,0.53s-0.53,0.79-0.53,1.31v28.47c0,0.52,0.18,0.97,0.53,1.33
		s0.79,0.55,1.31,0.55h16.38c0.52,0,0.97-0.17,1.33-0.51c0.37-0.34,0.55-0.77,0.55-1.29c0-0.46-0.18-0.87-0.55-1.24
		c-0.37-0.37-0.81-0.55-1.33-0.55h-14.4v-11.18h12.33c0.52,0,0.97-0.16,1.33-0.48s0.55-0.74,0.55-1.26s-0.18-0.95-0.55-1.29
		c-0.37-0.34-0.81-0.51-1.33-0.51H231.8v-10.35H246.2z M284.84,334.89h-16.15c-0.52,0-0.96,0.18-1.31,0.53s-0.53,0.79-0.53,1.31
		v28.47c0,0.52,0.18,0.97,0.53,1.33s0.8,0.55,1.36,0.55c0.52,0,0.97-0.18,1.33-0.55s0.55-0.81,0.55-1.33v-12.79h12.14
		c0.52,0,0.97-0.18,1.33-0.53c0.37-0.35,0.55-0.76,0.55-1.22c0-0.52-0.18-0.96-0.55-1.31c-0.37-0.35-0.81-0.53-1.33-0.53h-12.14
		v-10.4h14.21c0.52,0,0.97-0.17,1.33-0.51c0.37-0.34,0.55-0.75,0.55-1.24c0-0.52-0.18-0.95-0.55-1.29
		C285.8,335.06,285.36,334.89,284.84,334.89z M317.75,365.02c0.14,0.46,0.05,0.91-0.25,1.33c-0.18,0.28-0.45,0.47-0.78,0.58
		c-0.34,0.11-0.67,0.15-1.01,0.12c-0.34-0.03-0.63-0.12-0.87-0.28c-0.49-0.28-0.97-0.68-1.43-1.22c-0.46-0.54-0.84-1.31-1.15-2.32
		c-0.31-1.01-0.46-2.39-0.46-4.14c0-0.98-0.15-1.79-0.46-2.44c-0.31-0.64-0.72-1.17-1.24-1.56s-1.1-0.67-1.75-0.83
		c-0.64-0.15-1.3-0.23-1.98-0.23h-9.71v11.18c0,0.52-0.15,0.97-0.46,1.33s-0.72,0.55-1.24,0.55c-0.58,0-1.08-0.18-1.5-0.55
		s-0.62-0.81-0.62-1.33v-28.47c0-0.52,0.18-0.96,0.53-1.31c0.35-0.35,0.79-0.53,1.31-0.53h12.7c1.72,0,3.27,0.39,4.65,1.17
		c1.38,0.78,2.48,1.86,3.29,3.22s1.22,2.94,1.22,4.71c0,1.29-0.25,2.49-0.74,3.61c-0.49,1.12-1.17,2.09-2.02,2.9
		c-0.73,0.69-1.55,1.23-2.46,1.65c0.46,0.22,0.9,0.48,1.31,0.79c0.83,0.63,1.5,1.43,2.02,2.39s0.8,2.09,0.83,3.38
		c0.06,1.13,0.14,2.04,0.23,2.71c0.09,0.67,0.23,1.2,0.41,1.59c0.18,0.38,0.44,0.68,0.78,0.9
		C317.33,364.2,317.61,364.56,317.75,365.02z M309.89,349.8c0.78-0.55,1.43-1.33,1.93-2.32c0.51-1,0.76-2.12,0.76-3.38
		c0-1.63-0.51-2.97-1.54-4.05c-1.03-1.07-2.32-1.61-3.89-1.61h-10.49v12.28h10.72C308.27,350.66,309.1,350.35,309.89,349.8z
		 M342.15,338.44c0.52,0,0.97-0.16,1.33-0.48c0.37-0.32,0.55-0.74,0.55-1.27c0-0.52-0.18-0.95-0.55-1.29
		c-0.37-0.34-0.81-0.51-1.33-0.51h-16.38c-0.52,0-0.96,0.18-1.31,0.53c-0.35,0.35-0.53,0.79-0.53,1.31v28.47
		c0,0.52,0.18,0.97,0.53,1.33c0.35,0.37,0.79,0.55,1.31,0.55h16.38c0.52,0,0.97-0.17,1.33-0.51c0.37-0.34,0.55-0.77,0.55-1.29
		c0-0.46-0.18-0.87-0.55-1.24s-0.81-0.55-1.33-0.55h-14.4v-11.18h12.33c0.52,0,0.97-0.16,1.33-0.48c0.37-0.32,0.55-0.74,0.55-1.26
		s-0.18-0.95-0.55-1.29c-0.37-0.34-0.81-0.51-1.33-0.51h-12.33v-10.35H342.15z M368.37,363.51h-14.4v-11.18h12.33
		c0.52,0,0.97-0.16,1.33-0.48c0.37-0.32,0.55-0.74,0.55-1.26s-0.18-0.95-0.55-1.29c-0.37-0.34-0.81-0.51-1.33-0.51h-12.33v-10.35
		h14.4c0.52,0,0.97-0.16,1.33-0.48c0.37-0.32,0.55-0.74,0.55-1.27c0-0.52-0.18-0.95-0.55-1.29c-0.37-0.34-0.81-0.51-1.33-0.51H352
		c-0.52,0-0.96,0.18-1.31,0.53c-0.35,0.35-0.53,0.79-0.53,1.31v28.47c0,0.52,0.18,0.97,0.53,1.33c0.35,0.37,0.79,0.55,1.31,0.55
		h16.38c0.52,0,0.97-0.17,1.33-0.51c0.37-0.34,0.55-0.77,0.55-1.29c0-0.46-0.18-0.87-0.55-1.24S368.9,363.51,368.37,363.51z"/>
	<path d="M238.79,133.41v-32.82h1.04c2.96,0,5.37-2.41,5.37-5.37v-6.24c0-2.96-2.41-5.37-5.37-5.37h-47.66
		c-2.96,0-5.37,2.41-5.37,5.37v6.24c0,2.96,2.41,5.37,5.37,5.37h1.04v32.82c-25.14,9.46-41.9,33.56-41.9,60.55
		c0,35.67,29.02,64.7,64.69,64.7s64.7-29.02,64.7-64.7C280.7,166.97,263.93,142.87,238.79,133.41z M216,253.66
		c-32.92,0-59.69-26.78-59.69-59.7c0-25.46,16.16-48.15,40.22-56.45c0.02-0.01,0.04-0.02,0.06-0.03c0.09-0.03,0.18-0.08,0.27-0.12
		c0.06-0.03,0.12-0.06,0.18-0.1c0.07-0.05,0.14-0.1,0.21-0.16c0.06-0.05,0.12-0.09,0.17-0.14c0.06-0.06,0.12-0.12,0.17-0.19
		c0.05-0.06,0.1-0.11,0.14-0.17c0.05-0.07,0.09-0.15,0.13-0.22c0.04-0.06,0.07-0.13,0.1-0.19c0.04-0.08,0.06-0.16,0.09-0.24
		c0.03-0.07,0.05-0.15,0.07-0.22c0.02-0.07,0.03-0.15,0.04-0.23c0.01-0.09,0.02-0.18,0.03-0.27c0-0.03,0.01-0.05,0.01-0.08V98.09
		c0-1.38-1.12-2.5-2.5-2.5h-3.54c-0.2,0-0.37-0.17-0.37-0.37v-6.24c0-0.2,0.17-0.37,0.37-0.37h47.66c0.2,0,0.37,0.17,0.37,0.37v6.24
		c0,0.2-0.17,0.37-0.37,0.37h-17.62c-1.38,0-2.5,1.12-2.5,2.5s1.12,2.5,2.5,2.5h11.58v34.56c0,0.03,0.01,0.05,0.01,0.08
		c0,0.09,0.01,0.18,0.03,0.27c0.01,0.08,0.02,0.15,0.04,0.23c0.02,0.08,0.04,0.15,0.07,0.23c0.03,0.08,0.05,0.16,0.09,0.24
		c0.03,0.07,0.07,0.13,0.11,0.2c0.04,0.07,0.08,0.15,0.13,0.22c0.04,0.06,0.1,0.12,0.15,0.18c0.05,0.06,0.11,0.13,0.17,0.18
		c0.06,0.05,0.12,0.1,0.18,0.15c0.07,0.05,0.13,0.11,0.21,0.15c0.06,0.04,0.13,0.07,0.19,0.1c0.08,0.04,0.17,0.09,0.26,0.12
		c0.02,0.01,0.04,0.02,0.07,0.03c24.06,8.3,40.22,30.98,40.22,56.45C275.7,226.88,248.92,253.66,216,253.66z M215.11,189.72
		c-10.19,9.06-17.22,7.79-25.92,2.53c-8-4.84-13.47-7.06-19.42-4.95c-5.21,1.85-7.97,6.39-7.38,12.16
		c2.8,27.55,26.14,48.41,53.64,48.41c0.75,0,1.5-0.02,2.26-0.05c27.37-1.13,50-23.44,51.53-50.78l0.02-0.41
		c0.27-5.56-1.92-9.08-7.09-11.42C254.25,181.37,232.62,174.14,215.11,189.72z M260.68,189.76c3.68,1.66,4.3,3.61,4.16,6.62
		c0,0,0,0.01,0,0.01l-0.02,0.37c-1.39,24.8-21.92,45.03-46.75,46.05c-0.69,0.03-1.37,0.04-2.05,0.04
		c-24.95,0-46.13-18.93-48.66-43.91c-0.25-2.42,0.26-5.59,4.08-6.94c0.94-0.33,1.87-0.51,2.88-0.51c2.94,0,6.47,1.51,12.29,5.02
		c8.78,5.31,18.71,8.61,31.83-3.07C233.75,179.82,253.08,186.33,260.68,189.76z M216,17.5C134.67,17.5,68.5,83.67,68.5,165
		S134.67,312.5,216,312.5S363.5,246.33,363.5,165S297.33,17.5,216,17.5z M216,307.5c-78.57,0-142.5-63.92-142.5-142.5
		S137.43,22.5,216,22.5S358.5,86.42,358.5,165S294.57,307.5,216,307.5z"/>
</g>
<g id="Layer_4">
</g>
<g id="Layer_5">
</g>
<g id="Layer_6">
</g>
<g id="Layer_7">
</g>
<g id="Layer_8">
</g>
<g id="Layer_9">
</g>
<g id="Layer_10">
</g>
<g id="Layer_11">
</g>
<g id="Layer_12">
</g>
<g id="Layer_13">
</g>
<g id="Layer_14">
</g>
<g id="Layer_15">
</g>
<g id="Layer_16">
</g>
<g id="Layer_32">
</g>
<g id="Layer_33">
</g>
<g id="Layer_34">
</g>
<g id="Layer_35">
</g>
<g id="Layer_49">
</g>
<g id="Layer_50">
</g>
<g id="Layer_51">
</g>
</svg>
