<?xml version="1.0" encoding="utf-8"?>
<!-- Generator: Adobe Illustrator 23.0.1, SVG Export Plug-In . SVG Version: 6.00 Build 0)  -->
<svg version="1.1" xmlns="http://www.w3.org/2000/svg" xmlns:xlink="http://www.w3.org/1999/xlink" x="0px" y="0px"
	 viewBox="0 0 432 432" enable-background="new 0 0 432 432" xml:space="preserve">
<g id="Layer_37">
</g>
<g id="Layer_47">
	<path d="M302.96,157.06l-85.34-72.13c-0.01-0.01-0.02-0.01-0.03-0.02c-0.07-0.06-0.15-0.11-0.23-0.16
		c-0.06-0.04-0.12-0.08-0.19-0.12c-0.07-0.04-0.15-0.07-0.23-0.1c-0.08-0.03-0.15-0.07-0.23-0.09c-0.07-0.02-0.15-0.03-0.22-0.05
		c-0.08-0.02-0.17-0.04-0.25-0.05c-0.08-0.01-0.15,0-0.23,0c-0.08,0-0.16-0.01-0.25,0c-0.08,0.01-0.16,0.03-0.24,0.04
		c-0.08,0.02-0.16,0.03-0.23,0.05c-0.07,0.02-0.15,0.06-0.22,0.08c-0.08,0.03-0.16,0.06-0.24,0.1c-0.06,0.03-0.12,0.08-0.18,0.12
		c-0.08,0.05-0.16,0.1-0.24,0.16c-0.01,0.01-0.02,0.01-0.03,0.02l-85.34,72.13c-0.8,0.68-1.09,1.78-0.73,2.77
		c0.36,0.99,1.3,1.64,2.35,1.64h19.4v71.68c0,1.38,1.12,2.5,2.5,2.5H216h63.44c1.38,0,2.5-1.12,2.5-2.5v-71.68h19.4
		c1.05,0,1.99-0.66,2.35-1.64S303.76,157.74,302.96,157.06z M279.44,156.47c-1.38,0-2.5,1.12-2.5,2.5v71.68H216h-60.94v-71.68
		c0-1.38-1.12-2.5-2.5-2.5h-15.07L216,90.11l78.51,66.36H279.44z M200.68,141.89c-6.79-0.66-13.08,1.78-17.72,6.86
		c-9.88,10.81-6.79,29.91,7.03,43.48c7.27,7.13,19.42,13.39,26.01,13.39s18.74-6.26,26.01-13.39c13.83-13.57,16.92-32.67,7.03-43.48
		c-4.64-5.08-10.94-7.51-17.72-6.86c-5.94,0.57-11.46,3.51-15.32,8.04C212.14,145.4,206.63,142.46,200.68,141.89z M218.13,155.48
		c2.96-4.86,8.07-8.08,13.66-8.62c5.18-0.5,10,1.37,13.55,5.25c7.92,8.66,4.85,25.05-6.85,36.54c-6.86,6.73-17.73,11.96-22.5,11.96
		s-15.64-5.22-22.5-11.96c-11.7-11.48-14.77-27.87-6.85-36.54c3.18-3.47,7.36-5.33,11.91-5.33c0.54,0,1.09,0.03,1.64,0.08
		c5.59,0.54,10.7,3.76,13.66,8.62c0.45,0.74,1.26,1.2,2.13,1.2S217.68,156.22,218.13,155.48z M216,17.5
		C134.67,17.5,68.5,83.67,68.5,165S134.67,312.5,216,312.5S363.5,246.33,363.5,165S297.33,17.5,216,17.5z M216,307.5
		c-78.57,0-142.5-63.93-142.5-142.5S137.43,22.5,216,22.5S358.5,86.43,358.5,165S294.57,307.5,216,307.5z"/>
	<path id="supports_charity" d="M123.36,358.76c0,1.69-0.48,3.19-1.43,4.51c-0.95,1.32-2.25,2.35-3.89,3.1
		c-1.64,0.75-3.49,1.14-5.54,1.17c-2.27,0-4.26-0.34-5.98-1.01c-1.72-0.67-3.37-1.75-4.97-3.22c-0.21-0.21-0.39-0.45-0.53-0.71
		c-0.14-0.26-0.21-0.54-0.21-0.85c0-0.49,0.18-0.93,0.53-1.31c0.35-0.38,0.79-0.58,1.31-0.58c0.43,0,0.81,0.17,1.15,0.51
		c1.2,1.17,2.49,2.05,3.89,2.67c1.4,0.61,2.97,0.92,4.71,0.92c1.35,0,2.57-0.21,3.66-0.64c1.09-0.43,1.96-1.03,2.6-1.79
		c0.64-0.77,0.97-1.66,0.97-2.67c-0.03-1.23-0.39-2.24-1.08-3.04c-0.69-0.8-1.64-1.46-2.85-2c-1.21-0.54-2.61-0.99-4.21-1.36
		c-1.41-0.34-2.71-0.75-3.89-1.24c-1.18-0.49-2.2-1.1-3.06-1.82c-0.86-0.72-1.53-1.59-2-2.62c-0.48-1.03-0.71-2.23-0.71-3.61
		c0-1.75,0.46-3.28,1.38-4.6c0.92-1.32,2.19-2.34,3.82-3.06c1.63-0.72,3.5-1.08,5.61-1.08c1.87,0,3.64,0.31,5.31,0.92
		c1.67,0.61,3.01,1.46,4.03,2.53c0.61,0.58,0.92,1.15,0.92,1.7c0,0.46-0.19,0.88-0.58,1.26c-0.38,0.38-0.82,0.58-1.31,0.58
		c-0.34,0-0.64-0.12-0.92-0.37c-0.52-0.58-1.18-1.1-1.98-1.56c-0.8-0.46-1.67-0.83-2.62-1.1c-0.95-0.28-1.9-0.41-2.85-0.41
		c-1.41,0-2.65,0.21-3.73,0.62c-1.07,0.41-1.91,1-2.51,1.75c-0.6,0.75-0.9,1.65-0.9,2.69c0,1.17,0.34,2.12,1.01,2.88
		c0.67,0.75,1.58,1.37,2.71,1.84c1.13,0.48,2.39,0.9,3.77,1.26c1.5,0.37,2.89,0.79,4.16,1.27c1.27,0.48,2.37,1.07,3.29,1.77
		c0.92,0.71,1.63,1.6,2.14,2.69C123.1,355.83,123.36,357.17,123.36,358.76z M152.34,334.84c-0.55,0-0.98,0.18-1.29,0.55
		c-0.31,0.37-0.46,0.81-0.46,1.33v18.26c0,1.69-0.41,3.19-1.22,4.51c-0.81,1.32-1.88,2.35-3.2,3.1c-1.32,0.75-2.76,1.13-4.32,1.13
		c-1.53,0-2.95-0.38-4.25-1.13c-1.3-0.75-2.34-1.79-3.1-3.1c-0.77-1.32-1.15-2.82-1.15-4.51v-18.26c0-0.52-0.19-0.97-0.58-1.33
		c-0.38-0.37-0.82-0.55-1.31-0.55c-0.58,0-1.05,0.18-1.4,0.55c-0.35,0.37-0.53,0.81-0.53,1.33v18.26c0,2.36,0.54,4.48,1.61,6.35
		c1.07,1.87,2.54,3.35,4.39,4.44c1.86,1.09,3.96,1.63,6.33,1.63c2.33,0,4.42-0.54,6.26-1.63c1.84-1.09,3.3-2.57,4.39-4.44
		c1.09-1.87,1.63-3.99,1.63-6.35v-18.26c0-0.52-0.17-0.97-0.51-1.33C153.29,335.03,152.86,334.84,152.34,334.84z M182.54,339.54
		c0.78,1.44,1.17,3.08,1.17,4.92c0,1.81-0.39,3.45-1.17,4.92c-0.78,1.47-1.85,2.64-3.2,3.5c-1.35,0.86-2.87,1.29-4.55,1.29h-9.02
		v11.04c0,0.52-0.17,0.97-0.51,1.33c-0.34,0.37-0.77,0.55-1.29,0.55c-0.55,0-0.99-0.18-1.31-0.55c-0.32-0.37-0.48-0.81-0.48-1.33
		v-28.47c0-0.52,0.18-0.96,0.53-1.31c0.35-0.35,0.79-0.53,1.31-0.53h10.76c1.69,0,3.2,0.41,4.55,1.24
		C180.69,336.96,181.75,338.1,182.54,339.54z M179.98,344.46c0-1.17-0.23-2.19-0.69-3.08c-0.46-0.89-1.07-1.6-1.84-2.14
		c-0.77-0.54-1.66-0.81-2.67-0.81h-9.02v12.19h9.02c1.01,0,1.9-0.28,2.67-0.83c0.77-0.55,1.38-1.3,1.84-2.25
		C179.75,346.59,179.98,345.56,179.98,344.46z M190.22,366.54c-0.32-0.37-0.48-0.81-0.48-1.33v-28.47c0-0.52,0.18-0.96,0.53-1.31
		c0.35-0.35,0.79-0.53,1.31-0.53h10.76c1.69,0,3.2,0.41,4.55,1.24c1.35,0.83,2.42,1.96,3.2,3.4c0.78,1.44,1.17,3.08,1.17,4.92
		c0,1.81-0.39,3.45-1.17,4.92c-0.78,1.47-1.85,2.64-3.2,3.5c-1.35,0.86-2.87,1.29-4.55,1.29h-9.02v11.04c0,0.52-0.17,0.97-0.51,1.33
		c-0.34,0.37-0.77,0.55-1.29,0.55C190.98,367.09,190.54,366.91,190.22,366.54z M202.34,338.43h-9.02v12.19h9.02
		c1.01,0,1.9-0.28,2.67-0.83c0.77-0.55,1.38-1.3,1.84-2.25c0.46-0.95,0.69-1.98,0.69-3.08c0-1.17-0.23-2.19-0.69-3.08
		c-0.46-0.89-1.07-1.6-1.84-2.14C204.24,338.7,203.35,338.43,202.34,338.43z M245.16,344.39c0.77,2.01,1.15,4.21,1.15,6.6
		c0,2.36-0.38,4.55-1.15,6.56c-0.77,2.01-1.84,3.76-3.22,5.27c-1.38,1.5-3.02,2.67-4.92,3.5c-1.9,0.83-3.97,1.24-6.21,1.24
		c-2.27,0-4.35-0.41-6.23-1.24c-1.89-0.83-3.52-1.99-4.9-3.5c-1.38-1.5-2.45-3.26-3.22-5.27c-0.77-2.01-1.15-4.19-1.15-6.56
		c0-2.39,0.38-4.59,1.15-6.6c0.77-2.01,1.84-3.76,3.22-5.24c1.38-1.49,3.01-2.65,4.9-3.47c1.89-0.83,3.96-1.24,6.23-1.24
		c2.24,0,4.31,0.41,6.21,1.24c1.9,0.83,3.54,1.99,4.92,3.47C243.32,340.63,244.4,342.38,245.16,344.39z M242.36,350.99
		c0-2.51-0.5-4.74-1.5-6.67c-1-1.93-2.35-3.45-4.07-4.55c-1.72-1.1-3.71-1.66-5.98-1.66s-4.27,0.55-6,1.66
		c-1.73,1.1-3.09,2.62-4.07,4.55c-0.98,1.93-1.47,4.16-1.47,6.67c0,2.48,0.49,4.7,1.47,6.65c0.98,1.95,2.34,3.47,4.07,4.58
		c1.73,1.1,3.73,1.66,6,1.66s4.26-0.55,5.98-1.66c1.72-1.1,3.07-2.63,4.07-4.58C241.86,355.69,242.36,353.47,242.36,350.99z
		 M256.25,354.03v11.18c0,0.52-0.15,0.97-0.46,1.33c-0.31,0.37-0.72,0.55-1.24,0.55c-0.58,0-1.08-0.18-1.5-0.55
		c-0.41-0.37-0.62-0.81-0.62-1.33v-28.47c0-0.52,0.18-0.96,0.53-1.31c0.35-0.35,0.79-0.53,1.31-0.53h12.7
		c1.72,0,3.27,0.39,4.65,1.17c1.38,0.78,2.48,1.86,3.29,3.22c0.81,1.37,1.22,2.94,1.22,4.72c0,1.29-0.25,2.49-0.74,3.61
		c-0.49,1.12-1.17,2.09-2.02,2.9c-0.73,0.69-1.55,1.23-2.46,1.65c0.46,0.22,0.9,0.48,1.31,0.79c0.83,0.63,1.5,1.43,2.02,2.39
		c0.52,0.97,0.8,2.09,0.83,3.38c0.06,1.13,0.14,2.04,0.23,2.71c0.09,0.68,0.23,1.2,0.41,1.59c0.18,0.38,0.44,0.68,0.78,0.9
		c0.43,0.28,0.71,0.64,0.85,1.1s0.05,0.9-0.25,1.33c-0.18,0.28-0.44,0.47-0.78,0.57c-0.34,0.11-0.67,0.15-1.01,0.12
		c-0.34-0.03-0.63-0.12-0.87-0.28c-0.49-0.28-0.97-0.68-1.43-1.22c-0.46-0.54-0.84-1.31-1.15-2.32c-0.31-1.01-0.46-2.39-0.46-4.14
		c0-0.98-0.15-1.79-0.46-2.44c-0.31-0.64-0.72-1.17-1.24-1.56c-0.52-0.4-1.1-0.67-1.75-0.83c-0.64-0.15-1.3-0.23-1.98-0.23H256.25z
		 M266.74,338.43h-10.49v12.28h10.72c0.89-0.06,1.73-0.37,2.51-0.92c0.78-0.55,1.43-1.33,1.93-2.32c0.51-1,0.76-2.12,0.76-3.38
		c0-1.63-0.51-2.97-1.54-4.05C269.6,338.97,268.3,338.43,266.74,338.43z M282.15,338.39h8.74v26.82c0,0.52,0.18,0.97,0.55,1.33
		c0.37,0.37,0.83,0.55,1.38,0.55c0.58,0,1.06-0.18,1.43-0.55c0.37-0.37,0.55-0.81,0.55-1.33v-26.82h8.74c0.52,0,0.97-0.15,1.33-0.46
		c0.37-0.31,0.55-0.74,0.55-1.29c0-0.52-0.18-0.94-0.55-1.26c-0.37-0.32-0.81-0.48-1.33-0.48h-21.39c-0.52,0-0.96,0.16-1.31,0.48
		c-0.35,0.32-0.53,0.74-0.53,1.26c0,0.52,0.18,0.94,0.53,1.27S281.63,338.39,282.15,338.39z M330.42,354.74
		c-0.51-1.09-1.22-1.99-2.14-2.69c-0.92-0.71-2.02-1.3-3.29-1.77c-1.27-0.48-2.66-0.9-4.16-1.27c-1.38-0.37-2.64-0.79-3.77-1.26
		c-1.13-0.48-2.04-1.09-2.71-1.84c-0.68-0.75-1.01-1.71-1.01-2.88c0-1.04,0.3-1.94,0.9-2.69c0.6-0.75,1.43-1.33,2.51-1.75
		c1.07-0.41,2.31-0.62,3.73-0.62c0.95,0,1.9,0.14,2.85,0.41c0.95,0.28,1.82,0.64,2.62,1.1c0.8,0.46,1.46,0.98,1.98,1.56
		c0.28,0.25,0.58,0.37,0.92,0.37c0.49,0,0.93-0.19,1.31-0.58c0.38-0.38,0.58-0.8,0.58-1.26c0-0.55-0.31-1.12-0.92-1.7
		c-1.01-1.07-2.35-1.92-4.03-2.53c-1.67-0.61-3.44-0.92-5.31-0.92c-2.12,0-3.99,0.36-5.61,1.08c-1.63,0.72-2.9,1.74-3.82,3.06
		c-0.92,1.32-1.38,2.85-1.38,4.6c0,1.38,0.24,2.58,0.71,3.61c0.48,1.03,1.14,1.9,2,2.62c0.86,0.72,1.88,1.33,3.06,1.82
		c1.18,0.49,2.48,0.9,3.89,1.24c1.59,0.37,3,0.82,4.21,1.36c1.21,0.54,2.16,1.2,2.85,2c0.69,0.8,1.05,1.81,1.08,3.04
		c0,1.01-0.32,1.9-0.97,2.67c-0.64,0.77-1.51,1.36-2.6,1.79c-1.09,0.43-2.31,0.64-3.66,0.64c-1.75,0-3.32-0.31-4.71-0.92
		c-1.4-0.61-2.69-1.5-3.89-2.67c-0.34-0.34-0.72-0.51-1.15-0.51c-0.52,0-0.96,0.19-1.31,0.58c-0.35,0.38-0.53,0.82-0.53,1.31
		c0,0.31,0.07,0.59,0.21,0.85c0.14,0.26,0.31,0.5,0.53,0.71c1.59,1.47,3.25,2.55,4.97,3.22c1.72,0.67,3.71,1.01,5.98,1.01
		c2.05-0.03,3.9-0.42,5.54-1.17c1.64-0.75,2.94-1.79,3.89-3.1c0.95-1.32,1.43-2.82,1.43-4.51
		C331.18,357.17,330.93,355.83,330.42,354.74z M147.67,416.91c-0.43-0.06-0.86,0.02-1.29,0.23c-1.04,0.64-2.15,1.13-3.31,1.47
		c-1.17,0.34-2.38,0.51-3.63,0.51c-1.75,0-3.37-0.29-4.85-0.87c-1.49-0.58-2.79-1.43-3.91-2.55c-1.12-1.12-2-2.48-2.65-4.07
		c-0.64-1.59-0.97-3.4-0.97-5.43c0-1.9,0.31-3.63,0.92-5.2c0.61-1.56,1.47-2.91,2.58-4.05c1.1-1.13,2.41-2.02,3.91-2.65
		c1.5-0.63,3.16-0.94,4.97-0.94c1.29,0,2.51,0.18,3.68,0.53c1.17,0.35,2.25,0.84,3.27,1.45c0.43,0.21,0.86,0.31,1.29,0.28
		c0.43-0.03,0.78-0.25,1.06-0.64c0.37-0.46,0.51-0.97,0.44-1.52c-0.08-0.55-0.38-0.97-0.9-1.24c-1.26-0.8-2.65-1.41-4.16-1.84
		c-1.52-0.43-3.07-0.64-4.67-0.64c-2.3,0-4.44,0.41-6.42,1.24c-1.98,0.83-3.71,1.98-5.2,3.45c-1.49,1.47-2.65,3.21-3.47,5.2
		c-0.83,1.99-1.24,4.19-1.24,6.58c0,2.55,0.44,4.84,1.31,6.88c0.87,2.04,2.06,3.78,3.56,5.22c1.5,1.44,3.24,2.55,5.2,3.31
		c1.96,0.77,4.05,1.15,6.26,1.15c1.07,0,2.14-0.11,3.2-0.32c1.06-0.21,2.08-0.51,3.06-0.9c0.98-0.38,1.86-0.81,2.62-1.27
		c0.49-0.25,0.78-0.64,0.87-1.17c0.09-0.54-0.05-1.05-0.41-1.54C148.47,417.19,148.1,416.97,147.67,416.91z M177.89,390.09
		c-0.52,0-0.97,0.18-1.36,0.53c-0.38,0.35-0.58,0.8-0.58,1.36v12.14h-17.39v-12.14c0-0.55-0.18-1-0.55-1.36
		c-0.37-0.35-0.81-0.53-1.33-0.53c-0.55,0-1.01,0.18-1.38,0.53c-0.37,0.35-0.55,0.8-0.55,1.36v28.43c0,0.52,0.17,0.97,0.51,1.33
		c0.34,0.37,0.8,0.55,1.38,0.55c0.52,0,0.97-0.18,1.36-0.55c0.38-0.37,0.58-0.81,0.58-1.33v-12.7h17.39v12.7
		c0,0.52,0.18,0.97,0.55,1.33c0.37,0.37,0.81,0.55,1.33,0.55c0.55,0,1.01-0.18,1.38-0.55c0.37-0.37,0.55-0.81,0.55-1.33v-28.43
		c0-0.55-0.18-1-0.53-1.36C178.89,390.27,178.44,390.09,177.89,390.09z M212.3,419.85c0.09,0.25,0.14,0.49,0.14,0.74
		c0,0.55-0.18,0.99-0.55,1.31c-0.37,0.32-0.78,0.48-1.24,0.48c-0.37,0-0.71-0.11-1.01-0.32c-0.31-0.21-0.54-0.52-0.69-0.92
		l-3.1-7.45h-14.56l-3.08,7.5c-0.12,0.37-0.34,0.66-0.64,0.87c-0.31,0.21-0.63,0.32-0.97,0.32c-0.58,0-1.01-0.15-1.29-0.46
		c-0.28-0.31-0.41-0.67-0.41-1.1c-0.03-0.21,0-0.44,0.09-0.69l11.91-28.98c0.15-0.43,0.39-0.74,0.71-0.94
		c0.32-0.2,0.68-0.28,1.08-0.25c0.4,0,0.76,0.11,1.08,0.32c0.32,0.21,0.54,0.51,0.67,0.87L212.3,419.85z M204.35,410.1l-5.84-14.03
		l-5.76,14.03H204.35z M242.4,420.22c0.14,0.46,0.05,0.9-0.25,1.33c-0.18,0.28-0.44,0.47-0.78,0.57c-0.34,0.11-0.67,0.15-1.01,0.12
		c-0.34-0.03-0.63-0.12-0.87-0.28c-0.49-0.28-0.97-0.68-1.43-1.22c-0.46-0.54-0.84-1.31-1.15-2.32c-0.31-1.01-0.46-2.39-0.46-4.14
		c0-0.98-0.15-1.79-0.46-2.44c-0.31-0.64-0.72-1.17-1.24-1.56c-0.52-0.4-1.1-0.67-1.75-0.83c-0.64-0.15-1.3-0.23-1.98-0.23h-9.71
		v11.18c0,0.52-0.15,0.97-0.46,1.33c-0.31,0.37-0.72,0.55-1.24,0.55c-0.58,0-1.08-0.18-1.5-0.55c-0.41-0.37-0.62-0.81-0.62-1.33
		v-28.47c0-0.52,0.18-0.96,0.53-1.31c0.35-0.35,0.79-0.53,1.31-0.53h12.7c1.72,0,3.27,0.39,4.65,1.17c1.38,0.78,2.48,1.86,3.29,3.22
		c0.81,1.37,1.22,2.94,1.22,4.72c0,1.29-0.25,2.49-0.74,3.61c-0.49,1.12-1.17,2.09-2.02,2.9c-0.73,0.69-1.55,1.23-2.46,1.65
		c0.46,0.22,0.9,0.48,1.31,0.79c0.83,0.63,1.5,1.43,2.02,2.39c0.52,0.97,0.8,2.09,0.83,3.38c0.06,1.13,0.14,2.04,0.23,2.71
		c0.09,0.68,0.23,1.2,0.41,1.59c0.18,0.38,0.44,0.68,0.78,0.9C241.98,419.39,242.27,419.76,242.4,420.22z M234.54,405
		c0.78-0.55,1.43-1.33,1.93-2.32c0.51-1,0.76-2.12,0.76-3.38c0-1.63-0.51-2.97-1.54-4.05c-1.03-1.07-2.32-1.61-3.89-1.61h-10.49
		v12.28h10.72C232.92,405.85,233.76,405.55,234.54,405z M250.52,390.09c-0.55,0-1.01,0.18-1.38,0.53c-0.37,0.35-0.55,0.8-0.55,1.36
		v28.43c0,0.52,0.17,0.97,0.51,1.33c0.34,0.37,0.8,0.55,1.38,0.55c0.52,0,0.97-0.18,1.36-0.55c0.38-0.37,0.58-0.81,0.58-1.33v-28.43
		c0-0.55-0.18-1-0.55-1.36C251.49,390.27,251.04,390.09,250.52,390.09z M281.2,390.09h-21.39c-0.52,0-0.96,0.16-1.31,0.48
		c-0.35,0.32-0.53,0.74-0.53,1.26c0,0.52,0.18,0.94,0.53,1.27s0.79,0.48,1.31,0.48h8.74v26.82c0,0.52,0.18,0.97,0.55,1.33
		c0.37,0.37,0.83,0.55,1.38,0.55c0.58,0,1.06-0.18,1.43-0.55c0.37-0.37,0.55-0.81,0.55-1.33v-26.82h8.74c0.52,0,0.97-0.15,1.33-0.46
		c0.37-0.31,0.55-0.74,0.55-1.29c0-0.52-0.18-0.94-0.55-1.26C282.17,390.25,281.73,390.09,281.2,390.09z M308.67,389.91
		c-0.61,0-1.12,0.31-1.52,0.92l-8.77,12.34l-9.03-12.39c-0.4-0.58-0.91-0.87-1.52-0.87c-0.43,0-0.86,0.18-1.29,0.53
		c-0.43,0.35-0.64,0.79-0.64,1.31c0,0.21,0.04,0.44,0.11,0.67s0.21,0.47,0.39,0.71l10.03,13.55v13.73c0,0.52,0.18,0.97,0.53,1.33
		c0.35,0.37,0.81,0.55,1.36,0.55c0.49,0,0.91-0.18,1.27-0.55c0.35-0.37,0.53-0.81,0.53-1.33v-13.44l10.07-14.03
		c0.12-0.18,0.21-0.38,0.25-0.57c0.05-0.2,0.07-0.39,0.07-0.58c0-0.49-0.18-0.93-0.53-1.31
		C309.62,390.1,309.19,389.91,308.67,389.91z"/>
</g>
<g id="Layer_42">
</g>
<g id="Layer_43">
</g>
<g id="Layer_44">
</g>
<g id="Layer_45">
</g>
<g id="Layer_46">
</g>
<g id="Layer_38">
</g>
<g id="Layer_39">
</g>
<g id="Layer_40">
</g>
<g id="Layer_41">
</g>
<g id="Layer_17">
</g>
<g id="Layer_18">
</g>
<g id="Layer_19">
</g>
<g id="Layer_20">
</g>
<g id="Layer_21">
</g>
<g id="Layer_22">
</g>
<g id="Layer_23">
</g>
<g id="Layer_24">
</g>
<g id="Layer_25">
</g>
<g id="Layer_26">
</g>
<g id="Layer_27">
</g>
<g id="Layer_28">
</g>
<g id="Layer_29">
</g>
<g id="Layer_30">
</g>
<g id="Layer_31">
</g>
<g id="Layer_2">
</g>
<g id="Layer_3">
</g>
<g id="Layer_4">
</g>
<g id="Layer_5">
</g>
<g id="Layer_6">
</g>
<g id="Layer_7">
</g>
<g id="Layer_8">
</g>
<g id="Layer_9">
</g>
<g id="Layer_10">
</g>
<g id="Layer_11">
</g>
<g id="Layer_12">
</g>
<g id="Layer_13">
</g>
<g id="Layer_14">
</g>
<g id="Layer_15">
</g>
<g id="Layer_16">
</g>
<g id="Layer_32">
</g>
<g id="Layer_33">
</g>
<g id="Layer_34">
</g>
<g id="Layer_35">
</g>
<g id="Layer_49">
</g>
<g id="Layer_50">
</g>
<g id="Layer_51">
</g>
</svg>
