<?xml version="1.0" encoding="utf-8"?>
<!-- Generator: Adobe Illustrator 23.0.1, SVG Export Plug-In . SVG Version: 6.00 Build 0)  -->
<svg version="1.1" xmlns="http://www.w3.org/2000/svg" xmlns:xlink="http://www.w3.org/1999/xlink" x="0px" y="0px"
	 viewBox="0 0 432 432" enable-background="new 0 0 332 332" fill="#ffffff" xml:space="preserve">
<g id="Layer_37">
</g>
<g id="Layer_47">
</g>
<g id="Layer_42">
</g>
<g id="Layer_43">
</g>
<g id="Layer_44">
</g>
<g id="Layer_45">
</g>
<g id="Layer_46">
</g>
<g id="Layer_38">
</g>
<g id="Layer_39">
</g>
<g id="Layer_40">
</g>
<g id="Layer_41">
</g>
<g id="Layer_17">
</g>
<g id="Layer_18">
</g>
<g id="Layer_19">
</g>
<g id="Layer_20">
</g>
<g id="Layer_21">
</g>
<g id="Layer_22">
</g>
<g id="Layer_23">
</g>
<g id="Layer_24">
</g>
<g id="Layer_25">
</g>
<g id="Layer_26">
</g>
<g id="Layer_27">
</g>
<g id="Layer_28">
</g>
<g id="Layer_29">
</g>
<g id="Layer_30">
</g>
<g id="Layer_31">
</g>
<g id="Layer_2">
</g>
<g id="Layer_3">
</g>
<g id="Layer_4">
</g>
<g id="Layer_5">
</g>
<g id="Layer_6">
</g>
<g id="Layer_7">
</g>
<g id="Layer_8">
</g>
<g id="Layer_9">
</g>
<g id="Layer_10">
</g>
<g id="Layer_11">
</g>
<g id="Layer_12">
</g>
<g id="Layer_13">
</g>
<g id="Layer_14">
</g>
<g id="Layer_15">
</g>
<g id="Layer_16">
</g>
<g id="Layer_32">
</g>
<g id="Layer_33">
</g>
<g id="Layer_34">
</g>
<g id="Layer_35">
</g>
<g id="Layer_49">
</g>
<g id="Layer_50">
</g>
<g id="Layer_51">
	
	<path d="M216,17.5C134.67,17.5,68.5,83.67,68.5,165S134.67,312.5,216,312.5S363.5,246.33,363.5,165S297.33,17.5,216,17.5z
		 M216,307.5c-78.57,0-142.5-63.92-142.5-142.5c0-78.57,63.93-142.5,142.5-142.5c78.58,0,142.5,63.93,142.5,142.5
		C358.5,243.58,294.58,307.5,216,307.5z M204.1,176.87c-0.4-0.94-1.34-1.52-2.34-1.53l-11.4,0.16c-0.65,0.01-1.27,0.27-1.73,0.73
		l-14.77,14.77c-1.22,1.22-1.9,2.85-1.9,4.58c0,1.73,0.67,3.35,1.9,4.58c1.26,1.26,2.92,1.89,4.58,1.89c1.66,0,3.32-0.63,4.58-1.89
		l20.55-20.56C204.28,178.89,204.5,177.81,204.1,176.87z M179.48,196.63c-0.58,0.57-1.51,0.57-2.08,0
		c-0.28-0.28-0.43-0.65-0.43-1.04c0-0.39,0.15-0.76,0.43-1.04l14.06-14.06l4.23-0.06L179.48,196.63z M271.37,88.51
		c-3.78,0-7.33,1.47-10,4.14l-15.15,15.15l-1.4-1.4c-3.44-3.44-9.04-3.44-12.48,0c-1.67,1.67-2.59,3.88-2.59,6.24
		c0,2.36,0.92,4.58,2.59,6.24l1.4,1.4l-70.25,70.25c-1.12,1.12-1.73,2.6-1.73,4.18c0,1.58,0.62,3.06,1.73,4.18
		c0.23,0.23,0.27,0.5,0.27,0.64s-0.03,0.41-0.27,0.64l-0.36,0.36c-1.12,1.12-1.73,2.6-1.73,4.18c0,1.58,0.61,3.06,1.73,4.18
		l1.99,1.99c1.15,1.15,2.67,1.73,4.18,1.73c1.51,0,3.03-0.58,4.18-1.73l0.36-0.36c0.23-0.23,0.5-0.27,0.64-0.27
		c0.14,0,0.41,0.03,0.64,0.27c2.3,2.3,6.05,2.3,8.36,0l70.25-70.25l1.4,1.4c1.72,1.72,3.98,2.58,6.24,2.58s4.52-0.86,6.24-2.58
		c1.67-1.67,2.59-3.88,2.59-6.24c0-2.36-0.92-4.58-2.59-6.24l-1.4-1.4l15.15-15.15c2.67-2.67,4.14-6.22,4.14-10s-1.47-7.33-4.14-10
		C278.7,89.98,275.15,88.51,271.37,88.51z M250.2,136.75L179.95,207c-0.23,0.23-0.5,0.27-0.64,0.27s-0.41-0.03-0.64-0.27
		c-2.3-2.3-6.05-2.3-8.36,0l-0.36,0.36c-0.36,0.36-0.93,0.36-1.29,0l-1.99-1.99c-0.23-0.23-0.27-0.5-0.27-0.64
		c0-0.14,0.03-0.41,0.27-0.64l0.36-0.36c2.31-2.3,2.31-6.05,0-8.36c-0.23-0.23-0.27-0.5-0.27-0.64c0-0.14,0.03-0.41,0.27-0.64
		c0,0,0,0,0,0l70.25-70.25l1.95,1.95L250.2,136.75z M264.08,138.14c-1.49,1.49-3.92,1.49-5.41,0l-11.4-11.4l-8.23-8.23c0,0,0,0,0,0
		l-3.16-3.16c-0.72-0.72-1.12-1.68-1.12-2.71s0.4-1.98,1.12-2.71c0.75-0.75,1.73-1.12,2.71-1.12s1.96,0.37,2.71,1.12l11.4,11.4
		l8.23,8.23c0,0,0,0,0,0l3.16,3.16c0.72,0.72,1.12,1.68,1.12,2.71S264.81,137.42,264.08,138.14z M277.83,109.12l-15.15,15.15
		l-1.95-1.95l-10.98-10.98l15.15-15.15c1.73-1.73,4.02-2.68,6.46-2.68c2.44,0,4.74,0.95,6.46,2.68c1.73,1.73,2.68,4.02,2.68,6.46
		S279.56,107.39,277.83,109.12z M164.15,224.03c-0.76,0-1.48,0.34-1.95,0.94c-1.74,2.17-10.44,13.32-10.44,19.35
		c0,6.83,5.56,12.39,12.39,12.39s12.39-5.56,12.39-12.39c0-6.03-8.7-17.18-10.44-19.35C165.63,224.38,164.91,224.03,164.15,224.03z
		 M164.15,251.71c-4.07,0-7.39-3.31-7.39-7.39c0-2.65,3.86-8.89,7.39-13.68c3.53,4.79,7.39,11.03,7.39,13.68
		C171.54,248.39,168.22,251.71,164.15,251.71z"/>
</g>
</svg>
