<?xml version="1.0" encoding="utf-8"?>
<!-- Generator: Adobe Illustrator 23.0.1, SVG Export Plug-In . SVG Version: 6.00 Build 0)  -->
<svg version="1.1" xmlns="http://www.w3.org/2000/svg" xmlns:xlink="http://www.w3.org/1999/xlink" x="0px" y="0px"
	 viewBox="0 0 432 432" enable-background="new 0 0 332 332" stroke="#ffffff" fill="#ffffff"  xml:space="preserve">
<g id="Layer_37">
</g>
<g id="Layer_47">
</g>
<g id="Layer_42">
</g>
<g id="Layer_43">
</g>
<g id="Layer_44">
</g>
<g id="Layer_45">
</g>
<g id="Layer_46">
</g>
<g id="Layer_38">
</g>
<g id="Layer_39">
</g>
<g id="Layer_40">
</g>
<g id="Layer_41">
</g>
<g id="Layer_17">
</g>
<g id="Layer_18">
	<path d="M216,312.5c-81.33,0-147.5-66.17-147.5-147.5S134.67,17.5,216,17.5S363.5,83.67,363.5,165S297.33,312.5,216,312.5z
		 M358.5,165c0-78.57-63.92-142.5-142.5-142.5C137.43,22.5,73.5,86.43,73.5,165S137.43,307.5,216,307.5
		C294.58,307.5,358.5,243.57,358.5,165z M261.95,214.49c0,5.19-4.22,9.41-9.41,9.41h-24.86v21.98h4.5c7.7,0,13.96,6.26,13.96,13.96
		s-6.26,13.96-13.96,13.96h-32.37c-7.7,0-13.96-6.26-13.96-13.96s6.26-13.96,13.96-13.96h4.5V223.9h-24.86
		c-5.19,0-9.41-4.22-9.41-9.41c0-5.19,4.22-9.41,9.41-9.41h13.13v-91.8h9.58V88.69h11.33V49.37h5v39.33h11.33v24.59h9.58v91.8h13.13
		C257.73,205.09,261.95,209.31,261.95,214.49z M207.17,113.28h17.66V93.69h-17.66V113.28z M197.59,205.09h36.82v-86.8h-4.58h-27.66
		h-4.58v2.33h29.74v5h-29.74v7.86h14.61v5h-14.61v7.86h14.61v5h-14.61v7.86h29.74v5h-29.74v7.86h14.61v5h-14.61v7.86h14.61v5h-14.61
		v7.86h29.74v5h-29.74V205.09z M227.68,250.87h-23.37h-4.5c-4.94,0-8.96,4.02-8.96,8.96c0,4.94,4.02,8.96,8.96,8.96h32.37
		c4.94,0,8.96-4.02,8.96-8.96c0-4.94-4.02-8.96-8.96-8.96H227.68z M222.68,223.9h-13.37v21.98h13.37V223.9z M256.95,214.49
		c0-2.43-1.98-4.41-4.41-4.41h-13.13h-46.82h-13.13c-2.43,0-4.41,1.98-4.41,4.41s1.98,4.41,4.41,4.41h24.86h23.37h24.86
		C254.97,218.9,256.95,216.92,256.95,214.49z"/>
	
</g>
<g id="Layer_19">
</g>
<g id="Layer_20">
</g>
<g id="Layer_21">
</g>
<g id="Layer_22">
</g>
<g id="Layer_23">
</g>
<g id="Layer_24">
</g>
<g id="Layer_25">
</g>
<g id="Layer_26">
</g>
<g id="Layer_27">
</g>
<g id="Layer_28">
</g>
<g id="Layer_29">
</g>
<g id="Layer_30">
</g>
<g id="Layer_31">
</g>
<g id="Layer_2">
</g>
<g id="Layer_3">
</g>
<g id="Layer_4">
</g>
<g id="Layer_5">
</g>
<g id="Layer_6">
</g>
<g id="Layer_7">
</g>
<g id="Layer_8">
</g>
<g id="Layer_9">
</g>
<g id="Layer_10">
</g>
<g id="Layer_11">
</g>
<g id="Layer_12">
</g>
<g id="Layer_13">
</g>
<g id="Layer_14">
</g>
<g id="Layer_15">
</g>
<g id="Layer_16">
</g>
<g id="Layer_32">
</g>
<g id="Layer_33">
</g>
<g id="Layer_34">
</g>
<g id="Layer_35">
</g>
<g id="Layer_49">
</g>
<g id="Layer_50">
</g>
<g id="Layer_51">
</g>
</svg>
