<?xml version="1.0" encoding="utf-8"?>
<!-- Generator: Adobe Illustrator 23.0.1, SVG Export Plug-In . SVG Version: 6.00 Build 0)  -->
<svg version="1.1" xmlns="http://www.w3.org/2000/svg" xmlns:xlink="http://www.w3.org/1999/xlink" x="0px" y="0px"
	 viewBox="0 0 432 432" enable-background="new 0 0 332 332" fill="#ffffff" xml:space="preserve">
<g id="Layer_37">
</g>
<g id="Layer_47">
</g>
<g id="Layer_42">
</g>
<g id="Layer_43">
</g>
<g id="Layer_44">
</g>
<g id="Layer_45">
</g>
<g id="Layer_46">
</g>
<g id="Layer_38">
</g>
<g id="Layer_39">
</g>
<g id="Layer_40">
</g>
<g id="Layer_41">
</g>
<g id="Layer_17">
</g>
<g id="Layer_18">
</g>
<g id="Layer_19">
</g>
<g id="Layer_20">
</g>
<g id="Layer_21">
</g>
<g id="Layer_22">
</g>
<g id="Layer_23">
</g>
<g id="Layer_24">
</g>
<g id="Layer_25">
	<path d="M363.5,165c0,81.33-66.17,147.5-147.5,147.5S68.5,246.33,68.5,165S134.67,17.5,216,17.5S363.5,83.67,363.5,165z M358.5,165
		c0-78.57-63.92-142.5-142.5-142.5S73.5,86.43,73.5,165c0,78.58,63.92,142.5,142.5,142.5S358.5,243.58,358.5,165z M316.35,170.17
		c0,14.72-13.42,26.69-29.92,26.69c-0.9,0-1.81-0.05-2.71-0.12c-14.03,26.7-52.98,41.11-67.73,41.11s-53.7-14.41-67.73-41.11
		c-0.9,0.07-1.8,0.12-2.71,0.12c-16.5,0-29.92-11.97-29.92-26.69s13.42-26.69,29.92-26.69c1.47,0,2.94,0.1,4.39,0.29
		c0.54-1.3,1.1-2.59,1.69-3.87c0.04-0.22,0.09-0.43,0.19-0.64c0.1-0.21,0.23-0.4,0.38-0.56c12.28-25.63,35.91-46.55,63.78-46.55
		c27.88,0,51.5,20.92,63.78,46.55c0.15,0.17,0.28,0.35,0.38,0.56c0.1,0.21,0.15,0.42,0.19,0.64c0.59,1.28,1.16,2.57,1.69,3.87
		c1.45-0.19,2.92-0.29,4.39-0.29C302.93,143.48,316.35,155.45,316.35,170.17z M218.64,97.22c1.26,12.16,11.02,29.63,25.07,38.56
		c6.95,4.41,17.78,8.39,30.77,3.29C263.23,116.63,242.78,98.47,218.64,97.22z M157.51,139.07c12.99,5.1,23.82,1.13,30.77-3.29
		c14.06-8.93,23.81-26.4,25.07-38.56C189.22,98.47,168.77,116.63,157.51,139.07z M146.05,191.84c-1.85-4.79-2.9-9.93-2.9-15.41
		c0-2.6,0.15-5.23,0.42-7.88c-1.51-1.12-3.87-1.61-5.79-1.11c-1.88,0.48-3.08,1.75-3.56,3.77c-0.27,1.15-1.3,1.92-2.43,1.92
		c-0.19,0-0.39-0.02-0.58-0.07c-1.34-0.32-2.17-1.67-1.85-3.01c0.9-3.8,3.52-6.51,7.17-7.46c2.56-0.66,5.38-0.38,7.77,0.65
		c0.84-4.91,2.13-9.83,3.82-14.66c-0.85-0.08-1.7-0.12-2.55-0.12c-13.74,0-24.92,9.73-24.92,21.69s11.18,21.69,24.92,21.69
		C145.73,191.86,145.89,191.85,146.05,191.84z M283.85,176.44c0-10.84-2.59-22.21-7.23-32.84c-4.79,1.93-9.63,2.9-14.43,2.9
		c-7.21,0-14.35-2.17-21.16-6.5c-11.84-7.52-20.88-20.71-25.04-32.53c-4.15,11.82-13.2,25.01-25.04,32.53
		c-6.81,4.32-13.95,6.5-21.16,6.5c-4.8,0-9.63-0.97-14.43-2.9c-4.64,10.63-7.23,21.99-7.23,32.84c0,19.94,15.35,33.8,28.23,41.91
		c15.69,9.89,32.92,14.5,39.63,14.5s23.93-4.61,39.63-14.5C268.5,210.23,283.85,196.37,283.85,176.44z M311.35,170.17
		c0-11.96-11.18-21.69-24.92-21.69c-0.85,0-1.71,0.04-2.55,0.12c1.69,4.83,2.98,9.75,3.82,14.66c2.39-1.03,5.21-1.31,7.77-0.65
		c3.66,0.94,6.27,3.66,7.17,7.46c0.32,1.34-0.51,2.69-1.85,3.01c-0.19,0.05-0.39,0.07-0.58,0.07c-1.13,0-2.16-0.77-2.43-1.92
		c-0.48-2.02-1.68-3.29-3.56-3.77c-1.92-0.49-4.28-0.01-5.79,1.11c0.28,2.64,0.42,5.27,0.42,7.88c0,5.48-1.05,10.62-2.9,15.41
		c0.16,0,0.32,0.02,0.48,0.02C300.17,191.86,311.35,182.13,311.35,170.17z M228.85,172.83c-1.38,0-2.5,1.12-2.5,2.5v12.86
		c0,5.71-4.64,10.35-10.35,10.35s-10.35-4.64-10.35-10.35v-12.86c0-1.38-1.12-2.5-2.5-2.5s-2.5,1.12-2.5,2.5v12.86
		c0,8.46,6.88,15.35,15.35,15.35s15.35-6.88,15.35-15.35v-12.86C231.35,173.95,230.23,172.83,228.85,172.83z M183.85,150.09
		c-7.74,0-13.36,3.22-13.36,7.67c0,1.38,1.12,2.5,2.5,2.5s2.5-1.12,2.5-2.5c0-0.53,2.69-2.67,8.36-2.67c5.67,0,8.36,2.14,8.36,2.67
		c0,1.38,1.12,2.5,2.5,2.5s2.5-1.12,2.5-2.5C197.21,153.32,191.59,150.09,183.85,150.09z M248.15,150.09
		c-7.74,0-13.36,3.22-13.36,7.67c0,1.38,1.12,2.5,2.5,2.5s2.5-1.12,2.5-2.5c0-0.53,2.69-2.67,8.36-2.67c5.67,0,8.36,2.14,8.36,2.67
		c0,1.38,1.12,2.5,2.5,2.5s2.5-1.12,2.5-2.5C261.5,153.32,255.88,150.09,248.15,150.09z"/>
	
</g>
<g id="Layer_26">
</g>
<g id="Layer_27">
</g>
<g id="Layer_28">
</g>
<g id="Layer_29">
</g>
<g id="Layer_30">
</g>
<g id="Layer_31">
</g>
<g id="Layer_2">
</g>
<g id="Layer_3">
</g>
<g id="Layer_4">
</g>
<g id="Layer_5">
</g>
<g id="Layer_6">
</g>
<g id="Layer_7">
</g>
<g id="Layer_8">
</g>
<g id="Layer_9">
</g>
<g id="Layer_10">
</g>
<g id="Layer_11">
</g>
<g id="Layer_12">
</g>
<g id="Layer_13">
</g>
<g id="Layer_14">
</g>
<g id="Layer_15">
</g>
<g id="Layer_16">
</g>
<g id="Layer_32">
</g>
<g id="Layer_33">
</g>
<g id="Layer_34">
</g>
<g id="Layer_35">
</g>
<g id="Layer_49">
</g>
<g id="Layer_50">
</g>
<g id="Layer_51">
</g>
</svg>
